<svg width="12" height="12" viewBox="0 0 12 12" fill="none" xmlns="http://www.w3.org/2000/svg">
<path d="M6.73654 3.76467C6.80685 3.8349 6.90216 3.87434 7.00154 3.87434C7.10092 3.87434 7.19623 3.8349 7.26654 3.76467L7.62654 3.40467V8.49967C7.62654 8.59912 7.66605 8.69451 7.73638 8.76483C7.8067 8.83516 7.90208 8.87467 8.00154 8.87467C8.101 8.87467 8.19638 8.83516 8.26671 8.76483C8.33703 8.69451 8.37654 8.59912 8.37654 8.49967V3.40467L8.73654 3.76467C8.77087 3.80151 8.81227 3.83106 8.85827 3.85156C8.90427 3.87206 8.95393 3.88308 9.00428 3.88397C9.05463 3.88485 9.10464 3.87559 9.15134 3.85673C9.19803 3.83787 9.24045 3.8098 9.27606 3.77419C9.31167 3.73858 9.33974 3.69616 9.3586 3.64947C9.37746 3.60277 9.38672 3.55276 9.38584 3.50241C9.38495 3.45206 9.37393 3.4024 9.35343 3.3564C9.33293 3.3104 9.30338 3.269 9.26654 3.23467L8.26654 2.23467C8.19623 2.16444 8.10092 2.125 8.00154 2.125C7.90216 2.125 7.80685 2.16444 7.73654 2.23467L6.73654 3.23467C6.66632 3.30498 6.62687 3.40029 6.62687 3.49967C6.62687 3.59905 6.66632 3.69436 6.73654 3.76467ZM4.37654 8.59467L4.73654 8.23467C4.77087 8.19783 4.81227 8.16827 4.85827 8.14778C4.90427 8.12728 4.95393 8.11626 5.00428 8.11537C5.05463 8.11449 5.10465 8.12375 5.15134 8.14261C5.19803 8.16147 5.24045 8.18954 5.27606 8.22515C5.31167 8.26076 5.33974 8.30318 5.3586 8.34987C5.37746 8.39656 5.38673 8.44658 5.38584 8.49693C5.38495 8.54728 5.37393 8.59694 5.35343 8.64294C5.33294 8.68894 5.30338 8.73034 5.26654 8.76467L4.26654 9.76467C4.19623 9.83489 4.10092 9.87434 4.00154 9.87434C3.90217 9.87434 3.80685 9.83489 3.73654 9.76467L2.73654 8.76467C2.6997 8.73034 2.67015 8.68894 2.64965 8.64294C2.62916 8.59694 2.61813 8.54728 2.61725 8.49693C2.61636 8.44658 2.62562 8.39656 2.64448 8.34987C2.66334 8.30318 2.69141 8.26076 2.72702 8.22515C2.76263 8.18954 2.80505 8.16147 2.85174 8.14261C2.89844 8.12375 2.94845 8.11449 2.9988 8.11537C3.04915 8.11626 3.09881 8.12728 3.14481 8.14778C3.19081 8.16827 3.23221 8.19783 3.26654 8.23467L3.62654 8.59467V3.49967C3.62654 3.40021 3.66605 3.30483 3.73638 3.2345C3.8067 3.16418 3.90209 3.12467 4.00154 3.12467C4.101 3.12467 4.19638 3.16418 4.26671 3.2345C4.33703 3.30483 4.37654 3.40021 4.37654 3.49967V8.59467Z" fill="#3A3A3A"/>
</svg>
