<svg width="24" height="24" viewBox="0 0 24 24" fill="none" xmlns="http://www.w3.org/2000/svg">
<path fill-rule="evenodd" clip-rule="evenodd" d="M4.93436 12.09V7.64665C3.66287 8.09539 2.79224 6.87939 3.65215 5.89807H3.65266C3.66645 5.88215 3.68279 5.86763 3.70117 5.85451L11.7749 0.0715016C11.8265 0.0281303 11.8932 0.00289002 11.9632 0.000233345C12.0332 -0.00242333 12.1019 0.0176743 12.1573 0.0569808L20.2499 5.82781L20.2494 5.82828C20.2617 5.83718 20.2734 5.84701 20.2842 5.85779C21.308 6.86815 20.2285 8.20266 18.9851 7.66398V12.1659C18.932 12.1753 18.8799 12.1851 18.8288 12.1963L18.3922 11.8713V7.34359C18.3922 7.32532 18.3943 7.30799 18.3979 7.29113L12.0287 2.74941L5.517 7.29347C5.52364 7.31595 5.52721 7.33937 5.52721 7.36373V12.2521C5.36279 12.1893 5.19224 12.1411 5.01607 12.1055L4.93436 12.09ZM3.08024 18.8103C3.36722 18.8103 3.59904 19.0234 3.59904 19.2862C3.59904 19.549 3.36722 19.7621 3.08024 19.7621C2.79377 19.7621 2.56143 19.549 2.56143 19.2862C2.56143 19.0234 2.79377 18.8103 3.08024 18.8103ZM18.1839 14.6564C18.1834 14.566 18.1895 14.4808 18.2018 14.3997L17.1815 13.7749C17.0344 13.6849 16.8736 13.5819 16.7127 13.4784C15.4402 12.6605 14.2356 12.1518 12.6629 12.5252C11.7458 12.743 11.5262 13.1299 10.939 13.7711C10.918 13.8077 10.8884 13.8395 10.8532 13.8643L8.9633 15.9272C9.05981 16.3802 9.49385 16.5755 9.96722 16.5394C10.6076 16.4907 11.2382 15.9225 11.7085 15.5281C11.9505 15.3249 12.1931 15.122 12.4474 14.9829C13.0362 14.6611 13.6219 14.6503 14.2014 15.5422L17.1728 20.4582H18.1829L18.1839 14.6564ZM18.4229 13.87C18.4688 13.8114 18.5214 13.7575 18.5802 13.7088C18.8401 13.4948 19.2113 13.3903 19.6872 13.3898V13.3884L22.2705 13.3894C23.2984 13.3856 24.1242 13.7444 23.9847 14.819L23.4133 20.2324C23.3393 21.0938 22.9206 21.7931 21.8717 21.7529L19.5493 21.7533C19.2241 21.7688 18.9483 21.6878 18.7175 21.5187C18.548 21.395 18.4086 21.2259 18.2962 21.0146H17.493C17.6013 21.3046 17.5956 21.5805 17.5093 21.8245C17.4205 22.0765 17.2474 22.2906 17.0263 22.4513C16.8108 22.6087 16.5463 22.7164 16.271 22.7576C16.0014 22.7984 15.7196 22.7759 15.4576 22.6761C15.1527 22.9684 14.8321 23.1525 14.4971 23.2373C14.1611 23.322 13.821 23.3047 13.4763 23.1942C13.1495 23.5263 12.788 23.7347 12.3897 23.8139C11.9842 23.8944 11.5533 23.8387 11.0967 23.6415C10.9543 23.7436 10.8052 23.8242 10.6499 23.8832C10.4293 23.967 10.1975 24.0055 9.95649 23.9989C9.37743 23.9834 8.9873 23.8265 8.67683 23.5717C8.38066 23.3291 8.18202 23.0176 7.95785 22.6588L6.67717 20.6104H5.68449C5.53334 21.3065 5.07019 21.7416 4.23683 21.7257L2.07122 21.7262C0.919726 21.8976 0.57913 20.8713 0.482109 20.0315L0.479045 20.008L0.0317258 14.9215C-0.118913 13.9908 0.263556 13.3571 1.341 13.3112L1.37828 13.3093H4.12041V13.3102C4.79036 13.3037 5.47104 13.4732 5.68194 14.1224H7.54781C8.01709 13.8325 8.45624 13.6044 8.94185 13.4657C9.41828 13.3294 9.92994 13.2812 10.5407 13.3482C11.1933 12.6366 11.4869 12.2338 12.5117 11.9907C14.2923 11.5682 15.6225 12.1036 17.0569 13.0259C17.2065 13.1219 17.3551 13.2175 17.5155 13.3158L18.4229 13.87ZM5.13913 14.478C5.1312 14.4525 5.12708 14.4262 5.12687 14.3997C5.12687 14.3922 5.12739 14.3848 5.1279 14.3777C5.04109 13.9098 4.56364 13.8573 4.12398 13.862H4.12041V13.8629H1.36653C0.65113 13.8934 0.530619 14.2466 0.629683 14.848L0.632747 14.8733L1.08109 19.9734C1.13726 20.4586 1.26543 21.2994 1.99666 21.1777C2.01504 21.1744 2.03292 21.173 2.05079 21.173L4.21998 21.172L4.25266 21.1739C4.97675 21.1851 5.12228 20.6713 5.14015 20.1008L5.13913 14.478ZM5.74322 20.0567H6.85181C6.96926 20.0567 7.07036 20.1176 7.12041 20.2071L8.48126 22.3838C8.68041 22.7028 8.85658 22.9787 9.07819 23.1604C9.28551 23.3305 9.55666 23.4359 9.97283 23.4476C10.1291 23.4518 10.2787 23.4265 10.4212 23.3726C10.5085 23.3394 10.5943 23.2949 10.678 23.2391L9.79156 21.7173C9.60568 21.3969 10.1367 21.1374 10.3226 21.4573L11.2862 23.1117C11.6452 23.2789 11.9699 23.3309 12.2625 23.2729C12.5301 23.2199 12.7819 23.0724 13.0193 22.8349L11.6304 20.8352C11.4179 20.5298 11.9255 20.2333 12.1374 20.5387L13.6014 22.6466C13.8578 22.7421 14.1044 22.7642 14.3393 22.7047C14.5635 22.648 14.7876 22.5164 15.0118 22.3032L13.6862 20.0137C13.4998 19.6919 14.0329 19.4324 14.2193 19.7537L15.5909 22.1224C15.7691 22.2175 15.9754 22.2424 16.174 22.2124C16.3476 22.1861 16.5146 22.1182 16.6515 22.0185C16.7832 21.9224 16.8859 21.7983 16.9359 21.6559C16.991 21.4999 16.9854 21.3163 16.891 21.1168C16.871 21.0751 16.8634 21.0315 16.8664 20.9889C16.8246 20.9723 16.7875 20.9473 16.7578 20.9156C16.728 20.884 16.7065 20.8466 16.6949 20.8062L13.6842 15.8242C13.3497 15.3108 13.0479 15.2977 12.7563 15.4569C12.5495 15.5698 12.332 15.7525 12.1144 15.9352C11.5165 16.4359 10.8537 17.0275 10.0167 17.0912C9.15734 17.1563 8.41998 16.6837 8.34645 15.8668C8.33879 15.7825 8.373 15.7038 8.43377 15.6485L10.0607 13.8723C9.71445 13.8681 9.40858 13.9112 9.12109 13.9936C8.68296 14.1187 8.27394 14.337 7.82662 14.6171C7.77334 14.6556 7.70753 14.6765 7.63973 14.6766H5.74322V20.0567ZM20.8367 18.8103C21.1231 18.8103 21.3555 19.0234 21.3555 19.2862C21.3555 19.549 21.1231 19.7621 20.8367 19.7621C20.5497 19.7621 20.3173 19.549 20.3173 19.2862C20.3173 19.0234 20.5497 18.8103 20.8367 18.8103ZM10.3813 5.46198H13.6183C13.7322 5.46198 13.8251 5.54536 13.8251 5.64794V7.74642C13.8251 7.84901 13.7322 7.93238 13.6183 7.93238H10.3813C10.267 7.93238 10.1745 7.84901 10.1745 7.74642V5.64794C10.1745 5.54536 10.267 5.46198 10.3813 5.46198ZM13.4896 6.81147H12.1303V7.63213H13.4896V6.81147ZM11.8035 6.81147H10.51V7.63213H11.8035V6.81147ZM10.51 6.58289H11.8035V5.76176H10.51V6.58289ZM12.1303 6.58289H13.4896V5.76176H12.1303V6.58289ZM10.0826 9.20787H13.6295C13.7888 9.20787 13.9175 9.32965 13.9175 9.48001V10.5663C13.7291 10.5597 13.5376 10.562 13.342 10.5738V9.75216H10.3701V10.8047L9.79462 10.9883V9.48001C9.79462 9.32965 9.9233 9.20787 10.0826 9.20787Z" fill="#1A5C8A"/>
</svg>
