<svg width="24" height="24" viewBox="0 0 24 24" fill="none" xmlns="http://www.w3.org/2000/svg">
<g clip-path="url(#clip0_7482_11763)">
<path d="M15.9221 15.1508C16.4078 14.9614 16.9322 14.8594 17.4859 14.8594C17.6024 14.8594 17.7141 14.8642 17.8307 14.8739C18.5057 14.9225 19.1419 15.1362 19.6955 15.4664C20.9679 16.2191 21.8177 17.6032 21.8177 19.1864C21.8177 21.5757 19.88 23.5134 17.4907 23.5134C15.1014 23.5134 13.1637 21.5757 13.1637 19.1864C13.1637 18.1617 13.5231 17.2196 14.1156 16.4765C14.5818 15.8841 15.2034 15.4227 15.9221 15.1508Z" fill="#FDC75B"/>
<path d="M19.7198 6.61719V15.4169L19.6906 15.4654C19.137 15.1352 18.5057 14.9215 17.8258 14.873L17.8404 14.7176V6.61719H19.7198Z" fill="#499F2F"/>
<path d="M14.0427 16.4232V9.14844H15.9221V15.1509C15.2034 15.4277 14.5818 15.889 14.1059 16.4766L14.0427 16.4232Z" fill="#ED664C"/>
<path d="M12.1245 11.9375H10.2451V20.7032H12.1245V11.9375Z" fill="#499F2F"/>
<path d="M8.29768 13.0625H6.41827V20.7015H8.29768V13.0625Z" fill="#ED664C"/>
<path d="M4.47089 17.2344H2.59149V20.7018H4.47089V17.2344Z" fill="#499F2F"/>
<path d="M20.2054 15.2163V6.6157C20.2054 6.3486 19.9869 6.16406 19.7198 6.16406H17.8404C17.5733 6.16406 17.3402 6.3486 17.3402 6.6157V14.3713C17.0488 14.381 16.7088 14.4198 16.4175 14.4927V9.15071C16.4175 8.88361 16.1892 8.68936 15.9221 8.68936H14.0427C13.7756 8.68936 13.5522 8.87875 13.5522 9.15071V16.4012C12.9695 17.2122 12.6684 18.1883 12.6684 19.1887C12.6684 21.8452 14.8294 24.0014 17.4858 24.0014C20.1423 24.0014 22.3033 21.8403 22.3033 19.1887C22.2985 17.6007 21.5166 16.105 20.2054 15.2163ZM19.2341 7.13533V14.7015C18.9427 14.5849 18.6514 14.5024 18.3114 14.449V7.13533H19.2341ZM15.4462 9.66062V14.8326C15.1062 14.9832 14.8149 15.1726 14.5235 15.3862V9.66062H15.4462ZM17.4858 23.0301C15.3685 23.0301 13.6445 21.3061 13.6445 19.1887C13.6445 18.3049 13.9359 17.4745 14.4895 16.7849C14.8926 16.2798 15.4219 15.8864 16.0192 15.6436C16.0775 15.6339 16.1309 15.6096 16.1795 15.5805C16.5971 15.4251 17.0391 15.3474 17.4907 15.3474C17.5927 15.3474 17.6898 15.3522 17.7918 15.362H17.7967C18.3794 15.4057 18.9476 15.5853 19.4478 15.8864C20.6085 16.576 21.3321 17.8387 21.3321 19.1887C21.3272 21.3061 19.6032 23.0301 17.4858 23.0301Z" fill="black"/>
<path d="M18.9282 17.4791C19.1953 17.4791 19.4138 17.2605 19.4138 16.9934C19.4138 16.7263 19.1953 16.5078 18.9282 16.5078H16.8643H16.0387C15.7716 16.5078 15.553 16.7263 15.553 16.9934C15.553 17.2605 15.7716 17.4791 16.0387 17.4791H16.8643C17.0974 17.4791 17.3062 17.5762 17.4422 17.7219H16.0338C15.7667 17.7219 15.5482 17.9404 15.5482 18.2075C15.5482 18.4746 15.7667 18.6932 16.0338 18.6932H17.4373C17.4227 18.7417 17.4082 18.7369 17.3936 18.7514C17.2479 18.8923 17.0585 18.9845 16.8594 18.9845H16.0338C15.8347 18.9845 15.655 19.0962 15.5822 19.2808C15.5093 19.4653 15.553 19.6693 15.6987 19.8101L17.7675 21.7624C17.8598 21.8498 17.9812 21.8935 18.1026 21.8935C18.2337 21.8935 18.36 21.8401 18.4571 21.7429C18.6417 21.5487 18.632 21.2427 18.4377 21.0582L17.2188 19.9024C17.5441 19.8344 17.8404 19.6741 18.0832 19.4313C18.292 19.2225 18.4426 18.9845 18.5203 18.6932H18.9282C19.1953 18.6932 19.4138 18.4746 19.4138 18.2075C19.4138 17.9404 19.1953 17.7219 18.9282 17.7219H18.5203C18.4911 17.6248 18.4571 17.5762 18.4134 17.4791H18.9282Z" fill="black"/>
<path d="M8.79303 13.0559C8.79303 12.7888 8.5745 12.5703 8.3074 12.5703H6.41343C6.14633 12.5703 5.9278 12.7888 5.9278 13.0559V20.6804C5.9278 20.9475 6.14633 21.166 6.41343 21.166H8.3074C8.5745 21.166 8.79303 20.9475 8.79303 20.6804V13.0559ZM7.82177 20.2433H6.89906V13.5416H7.82177V20.2433Z" fill="black"/>
<path d="M12.6295 11.9388C12.6295 11.6717 12.411 11.4531 12.1439 11.4531H10.2499C9.98282 11.4531 9.76428 11.6717 9.76428 11.9388V20.7287C9.76428 20.9958 9.98282 21.2144 10.2499 21.2144H12.1439C12.411 21.2144 12.6295 20.9958 12.6295 20.7287V11.9388ZM11.6583 20.2431H10.7355V12.4244H11.6583V20.2431Z" fill="black"/>
<path d="M4.95651 17.2356C4.95651 16.9685 4.73798 16.75 4.47088 16.75H2.57691C2.30981 16.75 2.09128 16.9685 2.09128 17.2356V20.6836C2.09128 20.9507 2.30981 21.1693 2.57691 21.1693H4.47088C4.73798 21.1693 4.95651 20.9507 4.95651 20.6836V17.2356ZM3.98525 20.2466H3.06254V17.7213H3.98525V20.2466Z" fill="black"/>
<path d="M2.52836 14.399L11.5126 5.41481L13.3531 7.26993C13.4454 7.3622 13.5668 7.42533 13.6979 7.42533C13.8291 7.42533 13.9505 7.35735 14.0427 7.26993L19.6421 1.66087L19.6372 3.82193C19.6372 4.08903 19.8558 4.32214 20.1229 4.32214C20.39 4.32214 20.6085 4.08903 20.6085 3.82193L20.6133 0.49049C20.6133 0.359369 20.5648 0.23796 20.4725 0.14569C20.3802 0.0534197 20.2588 0 20.1277 0L16.806 0.00485633C16.5389 0.00485633 16.3204 0.223391 16.3204 0.49049C16.3204 0.757588 16.5389 0.976123 16.806 0.976123L18.9573 0.971267L13.6931 6.22096L11.8525 4.39498C11.7603 4.30271 11.6388 4.26872 11.5077 4.26872C11.3766 4.26872 11.2552 4.30757 11.1629 4.39498L1.83876 13.7191C1.64937 13.9085 1.64937 14.2145 1.83876 14.4039C1.93589 14.501 2.0573 14.5447 2.18356 14.5447C2.30983 14.5447 2.43124 14.4913 2.52836 14.399Z" fill="#549EF0"/>
</g>
<defs>
<clipPath id="clip0_7482_11763">
<rect width="24" height="24" fill="white"/>
</clipPath>
</defs>
</svg>
