<svg width="28" height="24" viewBox="0 0 38 34" fill="none" xmlns="http://www.w3.org/2000/svg">
<path d="M25.6597 14.803C26.2236 14.803 26.6807 14.3459 26.6807 13.782C26.6807 13.2182 26.2236 12.7611 25.6597 12.7611L21.8812 12.7611C21.4118 12.7611 21.0312 12.3805 21.0312 11.9111L21.0312 8.13253C21.0312 7.56867 20.5741 7.11158 20.0103 7.11158C19.4464 7.11158 18.9893 7.56867 18.9893 8.13253L18.9893 11.911C18.9893 12.3804 18.6087 12.761 18.1392 12.761L14.362 12.7605C13.7978 12.7605 13.3404 13.2178 13.3404 13.782C13.3404 14.3462 13.7978 14.8036 14.362 14.8035L18.1393 14.8031C18.6088 14.803 18.9894 15.1835 18.9894 15.653L18.9898 19.4328C18.9899 19.9963 19.4467 20.4531 20.0103 20.4531C20.5738 20.4531 21.0306 19.9963 21.0307 19.4328L21.0311 15.6529C21.0311 15.1835 21.4117 14.803 21.8811 14.803L25.6597 14.803Z" fill="white" stroke="white" stroke-width="0.3"/>
<path d="M2.32941 2.07812C1.87038 2.07813 1.43015 2.26047 1.10556 2.58506C0.780982 2.90964 0.598633 3.34987 0.598633 3.8089V6.55295C0.598613 6.78029 0.643381 7.0054 0.730378 7.21543C0.817375 7.42547 0.944898 7.6163 1.10566 7.77704L7.52172 14.1935V21.1166C7.52172 21.5757 7.70407 22.0159 8.02866 22.3405C8.35324 22.6651 8.79347 22.8474 9.2525 22.8474H12.714C13.1731 22.8474 13.6133 22.6651 13.9379 22.3405C14.2625 22.0159 14.4448 21.5757 14.4448 21.1166V19.3859H12.714V21.1166H9.2525V13.476L8.74547 12.9694L2.32941 6.55295V3.8089H19.6371V5.53967H21.3679V3.8089C21.3679 3.34987 21.1856 2.90964 20.861 2.58506C20.5364 2.26047 20.0962 2.07813 19.6371 2.07812H2.32941Z" fill="white"/>
</svg>
