<svg width="24" height="24" viewBox="0 0 24 24" fill="none" xmlns="http://www.w3.org/2000/svg">
<path fill-rule="evenodd" clip-rule="evenodd" d="M16.3374 16.7306C16.1125 16.7306 15.9578 16.5057 16.0422 16.2948C16.2531 15.8027 16.7452 14.467 16.9842 14.1015C17.1529 13.9468 17.42 14.003 17.5044 14.2139L18.1371 15.7043C18.348 15.3528 18.4605 14.9872 18.7417 14.9872C18.9947 14.9872 19.0791 15.2684 19.2478 15.5496L19.6274 14.9029C19.7399 14.6779 20.0492 14.6779 20.1757 14.9029L20.6819 15.7605C21.0193 15.7605 21.5114 15.6762 21.5114 16.0839C21.5114 16.5057 20.949 16.4073 20.4991 16.4073C20.232 16.4073 20.1054 16.0417 19.8946 15.6902L19.529 16.351C19.4025 16.5619 19.0931 16.5619 18.9666 16.351L18.7417 15.9433L18.3761 16.576C18.2355 16.8009 17.8981 16.7869 17.7996 16.5338L17.6872 16.2807H16.7452C16.6467 16.4916 16.5905 16.7306 16.3374 16.7306ZM23.6766 18.3897H0.323374C0.140598 18.3897 0 18.2491 0 18.0663V5.91869C0 5.74997 0.140598 5.60938 0.323374 5.60938H23.6766C23.8453 5.60938 24 5.74997 24 5.91869V18.0663C24 18.2491 23.8453 18.3897 23.6766 18.3897ZM0.632689 17.757H23.3533V6.24206H0.632689V17.757ZM22.0598 7.90112H15.8735C15.4517 7.90112 15.4517 7.25437 15.8735 7.25437H22.0598C22.4815 7.25437 22.4815 7.90112 22.0598 7.90112ZM8.12654 7.90112H1.94025C1.51845 7.90112 1.51845 7.25437 1.94025 7.25437H8.12654C8.54833 7.25437 8.54833 7.90112 8.12654 7.90112ZM12.6116 10.9099H1.94025C1.51845 10.9099 1.51845 10.2772 1.94025 10.2772H12.6116C13.0334 10.2772 13.0334 10.9099 12.6116 10.9099ZM22.0598 13.4547H1.94025C1.51845 13.4547 1.51845 12.822 1.94025 12.822H22.0598C22.4815 12.822 22.4815 13.4547 22.0598 13.4547ZM13.7083 16.2386H1.94025C1.51845 16.2386 1.51845 15.6059 1.94025 15.6059H13.7083C14.1301 15.6059 14.1301 16.2386 13.7083 16.2386ZM22.0598 10.9099H16.703C16.5343 10.9099 16.3937 10.7693 16.3937 10.6006V9.11025C16.3937 8.92748 16.5343 8.78688 16.703 8.78688H22.0598C22.2285 8.78688 22.3691 8.92748 22.3691 9.11025V10.6006C22.3691 10.7693 22.2285 10.9099 22.0598 10.9099ZM17.0264 10.2772H21.7364V9.41957H17.0264V10.2772ZM14.8752 11.3598C14.6221 11.3598 14.5518 11.163 14.5518 10.9521C13.9895 10.9521 14.0879 10.3194 14.4815 10.3194H14.9455V10.1647C14.0598 10.1647 14.1582 10.2069 14.1582 9.06807C14.1582 8.82906 14.3409 8.7447 14.5518 8.7447C14.5518 8.21043 15.1845 8.21043 15.1845 8.7447C15.761 8.7447 15.6485 9.37739 15.2689 9.37739H14.7909V9.53205C15.6907 9.53205 15.5782 9.48987 15.5782 10.6428C15.5782 10.8677 15.4095 10.9521 15.1845 10.9521C15.1845 11.163 15.1142 11.3598 14.8752 11.3598ZM22.0598 16.4073C21.638 16.4073 21.638 15.7605 22.0598 15.7605C22.4815 15.7605 22.4815 16.4073 22.0598 16.4073ZM17.42 15.634L17.2232 15.1559L17.0123 15.634H17.42Z" fill="#006EA7"/>
<path fill-rule="evenodd" clip-rule="evenodd" d="M1.94025 10.2773H12.6116C13.0334 10.2773 13.0334 10.91 12.6116 10.91H1.94025C1.51845 10.91 1.51845 10.2773 1.94025 10.2773ZM1.94025 12.8222H22.0598C22.4815 12.8222 22.4815 13.4548 22.0598 13.4548H1.94025C1.51845 13.4548 1.51845 12.8222 1.94025 12.8222ZM16.3374 16.7308C16.1125 16.7308 15.9578 16.5058 16.0422 16.2949C16.2531 15.8028 16.7452 14.4671 16.9842 14.1016C17.1529 13.9469 17.42 14.0032 17.5044 14.2141L18.1371 15.7044C18.348 15.3529 18.4605 14.9874 18.7417 14.9874C18.9947 14.9874 19.0791 15.2685 19.2478 15.5497L19.6274 14.903C19.7399 14.678 20.0492 14.678 20.1757 14.903L20.6819 15.7606C21.0193 15.7606 21.5114 15.6763 21.5114 16.084C21.5114 16.5058 20.949 16.4074 20.4991 16.4074C20.232 16.4074 20.1054 16.0418 19.8946 15.6903L19.529 16.3512C19.4025 16.562 19.0931 16.562 18.9666 16.3512L18.7417 15.9434L18.3761 16.5761C18.2355 16.8011 17.8981 16.787 17.7997 16.5339L17.6872 16.2809H16.7452C16.6467 16.4917 16.5905 16.7308 16.3374 16.7308ZM1.94025 15.606H13.7083C14.1301 15.606 14.1301 16.2387 13.7083 16.2387H1.94025C1.51845 16.2387 1.51845 15.606 1.94025 15.606ZM0.63269 17.7571H23.3533V6.24219H0.63269V17.7571ZM22.0598 7.90124H15.8735C15.4517 7.90124 15.4517 7.25449 15.8735 7.25449H22.0598C22.4815 7.25449 22.4815 7.90124 22.0598 7.90124ZM8.12654 7.90124H1.94025C1.51845 7.90124 1.51845 7.25449 1.94025 7.25449H8.12654C8.54833 7.25449 8.54833 7.90124 8.12654 7.90124ZM14.9455 10.1649C14.0598 10.1649 14.1582 10.207 14.1582 9.0682C14.1582 8.82918 14.341 8.74482 14.5518 8.74482C14.5518 8.21055 15.1845 8.21055 15.1845 8.74482C15.761 8.74482 15.6485 9.37751 15.2689 9.37751H14.7909V9.53217C15.6907 9.53217 15.5782 9.48999 15.5782 10.6429C15.5782 10.8678 15.4095 10.9522 15.1845 10.9522C15.1845 11.1631 15.1142 11.3599 14.8752 11.3599C14.6221 11.3599 14.5518 11.1631 14.5518 10.9522C13.9895 10.9522 14.0879 10.3195 14.4815 10.3195H14.9455V10.1649ZM16.3937 10.6007V9.11038C16.3937 8.9276 16.5343 8.787 16.703 8.787H22.0598C22.2285 8.787 22.3691 8.9276 22.3691 9.11038V10.6007C22.3691 10.7694 22.2285 10.91 22.0598 10.91H16.703C16.5343 10.91 16.3937 10.7694 16.3937 10.6007ZM22.0598 16.4074C21.638 16.4074 21.638 15.7606 22.0598 15.7606C22.4815 15.7606 22.4815 16.4074 22.0598 16.4074Z" fill="#59AAE7"/>
<path fill-rule="evenodd" clip-rule="evenodd" d="M17.0264 9.42188V10.2795H21.7364V9.42188H17.0264Z" fill="#59AAE7"/>
<path fill-rule="evenodd" clip-rule="evenodd" d="M17.42 15.6343L17.2232 15.1562L17.0123 15.6343H17.42Z" fill="#59AAE7"/>
</svg>
