<svg width="22" height="22" viewBox="-10 -10 52 52" fill="none" xmlns="http://www.w3.org/2000/svg">
<g clip-path="url(#clip0_2773_1281)">
<path d="M4.68477 20.9122C4.98213 22.031 5.62497 23.0275 6.52172 23.7597C7.41847 24.4919 8.52339 24.9225 9.67911 24.9901C10.8348 25.0576 11.9824 24.7588 12.9584 24.1362C13.9344 23.5135 14.689 22.5987 15.1148 21.5222C15.4948 21.6122 15.7398 22.1622 16.1898 22.7672C15.4743 24.1218 14.3343 25.2043 12.9445 25.8487C11.5547 26.493 9.99192 26.6637 8.4958 26.3345C6.99967 26.0053 5.65285 25.1945 4.66189 24.0262C3.67092 22.858 3.09055 21.397 3.00977 19.8672C3.51391 20.2944 4.07832 20.6448 4.68477 20.9072V20.9122Z" fill="#FF873C"/>
<path d="M12.9997 14.5024C12.9997 13.4146 12.6772 12.3512 12.0728 11.4468C11.4685 10.5423 10.6095 9.83736 9.60448 9.42107C8.59949 9.00479 7.49362 8.89587 6.42673 9.10809C5.35983 9.32031 4.37982 9.84413 3.61064 10.6133C2.84145 11.3825 2.31762 12.3625 2.1054 13.4294C1.89318 14.4963 2.0021 15.6022 2.41839 16.6072C2.83467 17.6122 3.53962 18.4711 4.44409 19.0755C5.34856 19.6798 6.41193 20.0024 7.49972 20.0024C8.10734 20.0033 8.71077 19.9019 9.28472 19.7024C9.40129 19.9608 9.56775 20.1937 9.77453 20.3876C9.98132 20.5815 10.2244 20.7327 10.4897 20.8324C9.58401 21.2597 8.59725 21.4879 7.5959 21.5017C6.59454 21.5155 5.60186 21.3146 4.68472 20.9124V20.9074C4.07827 20.645 3.51386 20.2946 3.00972 19.8674C2.11968 19.1217 1.42922 18.1663 1.00057 17.0872C0.571922 16.0081 0.418573 14.8393 0.55435 13.6862C0.690126 12.533 1.11076 11.4318 1.77832 10.4818C2.44589 9.53176 3.33939 8.76281 4.37828 8.24427C5.41717 7.72573 6.56878 7.4739 7.72929 7.51148C8.88979 7.54906 10.0227 7.87487 11.0259 8.45953C12.029 9.0442 12.8709 9.86933 13.4756 10.8606C14.0803 11.8518 14.4288 12.9779 14.4897 14.1374C14.4947 14.2574 14.4997 14.3824 14.4997 14.5024C14.4995 15.0378 14.4374 15.5713 14.3147 16.0924C14.1177 16.9584 13.7525 17.7773 13.2397 18.5024H11.2747C11.8213 17.9897 12.2564 17.3699 12.5532 16.6818C12.85 15.9937 13.002 15.2518 12.9997 14.5024Z" fill="#FC9942"/>
<path d="M7.5 9C8.60137 8.99998 9.67737 9.33063 10.5887 9.94911C11.5 10.5676 12.2046 11.4454 12.6113 12.469C13.018 13.4925 13.1081 14.6145 12.8698 15.6898C12.6316 16.7651 12.076 17.7441 11.275 18.5H9C9.01518 18.9148 9.11203 19.3226 9.285 19.7C8.71105 19.8994 8.10762 20.0009 7.5 20C6.04131 20 4.64236 19.4205 3.61091 18.3891C2.57946 17.3576 2 15.9587 2 14.5C2 13.0413 2.57946 11.6424 3.61091 10.6109C4.64236 9.57946 6.04131 9 7.5 9Z" fill="#FFC170"/>
<path d="M15.4102 18.5037H13.2402C13.753 17.7786 14.1183 16.9598 14.3152 16.0938C14.8746 16.7937 15.251 17.622 15.4102 18.5037Z" fill="#FFAC5A"/>
<path d="M14.9996 21.4981C15.0389 21.497 15.078 21.5038 15.1146 21.5181C14.6888 22.5947 13.9342 23.5094 12.9582 24.1321C11.9822 24.7548 10.8346 25.0536 9.67891 24.986C8.52319 24.9184 7.41827 24.4878 6.52152 23.7557C5.62478 23.0235 4.98194 22.027 4.68457 20.9081C5.60171 21.3103 6.59439 21.5113 7.59574 21.4975C8.59709 21.4837 9.58386 21.2554 10.4896 20.8281C10.8133 20.9451 11.1554 21.0027 11.4996 20.9981C12.6546 21.2379 13.8236 21.4048 14.9996 21.4981Z" fill="#FFAC5A"/>
<path d="M29 22.5V23.5C29 23.7652 28.8946 24.0196 28.7071 24.2071C28.5196 24.3946 28.2652 24.5 28 24.5C27.7348 24.5 27.4804 24.3946 27.2929 24.2071C27.1054 24.0196 27 23.7652 27 23.5V15.5C27.0008 15.235 27.1064 14.9811 27.2938 14.7938C27.4811 14.6064 27.735 14.5008 28 14.5C28.2646 14.502 28.5178 14.6079 28.7049 14.7951C28.892 14.9822 28.998 15.2354 29 15.5V22.5Z" fill="#FFAC5A"/>
<path d="M27 15.5V23.5C27 23.7652 26.8946 24.0196 26.7071 24.2071C26.5196 24.3946 26.2652 24.5 26 24.5C25.7348 24.5 25.4804 24.3946 25.2929 24.2071C25.1054 24.0196 25 23.7652 25 23.5V15.5C25.0008 15.235 25.1064 14.9811 25.2938 14.7938C25.4811 14.6064 25.735 14.5008 26 14.5C26.2646 14.502 26.5178 14.6079 26.7049 14.7951C26.892 14.9822 26.998 15.2354 27 15.5Z" fill="#FFC170"/>
<path d="M26 23.5V15.5C26.001 15.3254 26.0476 15.1541 26.1354 15.0031C26.2231 14.8522 26.3488 14.7268 26.5 14.6395C26.3489 14.549 26.1762 14.5008 26 14.5C25.735 14.5008 25.4811 14.6064 25.2938 14.7938C25.1064 14.9811 25.0008 15.235 25 15.5V23.5C25.0008 23.765 25.1064 24.0189 25.2938 24.2062C25.4811 24.3936 25.735 24.4992 26 24.5C26.1761 24.4989 26.3488 24.4508 26.5 24.3605C26.3488 24.2732 26.2231 24.1478 26.1354 23.9969C26.0476 23.8459 26.001 23.6746 26 23.5Z" fill="#FFAC5A"/>
<path d="M28 23.5V15.5C28.001 15.3254 28.0476 15.1541 28.1354 15.0031C28.2231 14.8522 28.3488 14.7268 28.5 14.6395C28.3489 14.549 28.1762 14.5008 28 14.5C27.735 14.5008 27.4811 14.6064 27.2938 14.7938C27.1064 14.9811 27.0008 15.235 27 15.5V23.5C27.0008 23.765 27.1064 24.0189 27.2938 24.2062C27.4811 24.3936 27.735 24.4992 28 24.5C28.1761 24.4989 28.3488 24.4508 28.5 24.3605C28.3488 24.2732 28.2231 24.1478 28.1354 23.9969C28.0476 23.8459 28.001 23.6746 28 23.5Z" fill="#FC9942"/>
<path d="M16.8295 17.9628L15.4995 18.4978H15.4095C15.2502 17.616 14.8739 16.7878 14.3145 16.0878C14.4371 15.5667 14.4992 15.0332 14.4995 14.4978C14.4995 14.3778 14.4945 14.2528 14.4895 14.1328C15.6712 15.1159 16.494 16.4627 16.8295 17.9628Z" fill="#FF873C"/>
<path d="M18 17.4978L16.83 17.9628C16.4945 16.4627 15.6717 15.1159 14.49 14.1328C14.461 13.582 14.367 13.0365 14.21 12.5078C17.115 12.7278 19.5 17.4978 19.5 17.4978H18Z" fill="#D79B8C"/>
<path d="M29 16H31.5V22.5H29V16Z" fill="#E0AEA2"/>
<path d="M29 21.5H31.5V22.5H29V21.5Z" fill="#D79B8C"/>
<path d="M25 16V22.5H24C23 22.5 22 24.5 20 24.5C17.79 24.5 16.8 23.585 16.19 22.765C15.74 22.16 15.495 21.61 15.115 21.52C15.0784 21.5057 15.0393 21.4989 15 21.5C13.824 21.4067 12.6551 21.2397 11.5 21C11.1558 21.0046 10.8137 20.947 10.49 20.83C10.2246 20.7303 9.9816 20.5791 9.77481 20.3852C9.56802 20.1913 9.40157 19.9584 9.285 19.7C9.11203 19.3226 9.01518 18.9148 9 18.5H15.5L16.83 17.965L18 17.5H19.5C19.5 17.5 17.115 12.73 14.21 12.51C13.9938 11.7789 13.6594 11.0881 13.22 10.465L16 10L22.5 16H25Z" fill="#E0AEA2"/>
<path d="M20 23.5C17.79 23.5 16.8 22.585 16.19 21.765C15.74 21.16 15.495 20.61 15.115 20.52C15.0784 20.5057 15.0393 20.4989 15 20.5C13.824 20.4067 12.6551 20.2397 11.5 20C11.1558 20.0046 10.8137 19.947 10.49 19.83C10.2246 19.7303 9.9816 19.5791 9.77481 19.3852C9.56802 19.1913 9.40157 18.9584 9.285 18.7C9.2535 18.6325 9.227 18.566 9.202 18.5H9C9.01518 18.9148 9.11203 19.3226 9.285 19.7C9.40157 19.9584 9.56802 20.1913 9.77481 20.3852C9.9816 20.5791 10.2246 20.7303 10.49 20.83C10.8137 20.947 11.1558 21.0046 11.5 21C12.6551 21.2397 13.824 21.4067 15 21.5C15.0393 21.4989 15.0784 21.5057 15.115 21.52C15.495 21.61 15.74 22.16 16.19 22.765C16.8 23.585 17.79 24.5 20 24.5C22 24.5 23 22.5 24 22.5H25V21.5H24C23 21.5 22 23.5 20 23.5Z" fill="#D79B8C"/>
<path d="M18.7897 6.50234L16.9971 8.29494C16.8018 8.49017 16.8018 8.8067 16.9971 9.00194C17.1923 9.19717 17.5088 9.19717 17.7041 9.00194L19.4967 7.20934C19.6919 7.01411 19.6919 6.69757 19.4967 6.50234C19.3014 6.30711 18.9849 6.30711 18.7897 6.50234Z" fill="#FFC170"/>
<path d="M16.5 6C16.5 5.72386 16.2761 5.5 16 5.5C15.7239 5.5 15.5 5.72386 15.5 6V8C15.5 8.27614 15.7239 8.5 16 8.5C16.2761 8.5 16.5 8.27614 16.5 8V6Z" fill="#FFC170"/>
<path d="M20.5 9.5H18.5C18.2239 9.5 18 9.72386 18 10C18 10.2761 18.2239 10.5 18.5 10.5H20.5C20.7761 10.5 21 10.2761 21 10C21 9.72386 20.7761 9.5 20.5 9.5Z" fill="#FFC170"/>
<path d="M10.5 12C10.5 11.8674 10.4473 11.7402 10.3536 11.6464C10.2598 11.5527 10.1326 11.5 10 11.5H5C4.86739 11.5 4.74021 11.5527 4.64645 11.6464C4.55268 11.7402 4.5 11.8674 4.5 12C4.5 12.1326 4.55268 12.2598 4.64645 12.3536C4.74021 12.4473 4.86739 12.5 5 12.5H7C7.17476 12.5005 7.3463 12.547 7.49742 12.6348C7.64854 12.7225 7.77393 12.8485 7.861 13H5C4.86739 13 4.74021 13.0527 4.64645 13.1464C4.55268 13.2402 4.5 13.3674 4.5 13.5C4.5 13.6326 4.55268 13.7598 4.64645 13.8536C4.74021 13.9473 4.86739 14 5 14H7.861C7.77393 14.1515 7.64854 14.2775 7.49742 14.3652C7.3463 14.453 7.17476 14.4995 7 14.5H5C4.90112 14.5 4.80448 14.5294 4.72227 14.5843C4.64007 14.6392 4.576 14.7173 4.53816 14.8087C4.50033 14.9 4.49042 15.0005 4.50971 15.0975C4.52899 15.1945 4.5766 15.2836 4.6465 15.3535L7.293 18C7.38676 18.0937 7.51392 18.1464 7.6465 18.1464C7.77908 18.1464 7.90624 18.0937 8 18C8.09374 17.9062 8.14639 17.7791 8.14639 17.6465C8.14639 17.5139 8.09374 17.3868 8 17.293L6.207 15.5H7C7.44211 15.4983 7.87121 15.3502 8.22022 15.0789C8.56923 14.8075 8.81848 14.4281 8.929 14H10C10.1326 14 10.2598 13.9473 10.3536 13.8536C10.4473 13.7598 10.5 13.6326 10.5 13.5C10.5 13.3674 10.4473 13.2402 10.3536 13.1464C10.2598 13.0527 10.1326 13 10 13H8.929C8.88339 12.8246 8.81373 12.6563 8.722 12.5H10C10.1326 12.5 10.2598 12.4473 10.3536 12.3536C10.4473 12.2598 10.5 12.1326 10.5 12Z" fill="#FF873C"/>
<path d="M4.5 11.5V12.5H7C7.17476 12.5005 7.3463 12.547 7.49742 12.6348C7.64854 12.7225 7.77393 12.8485 7.861 13H4.5V14H7.861C7.77393 14.1515 7.64854 14.2775 7.49742 14.3652C7.3463 14.453 7.17476 14.4995 7 14.5H5C4.90112 14.5 4.80448 14.5294 4.72227 14.5843C4.64007 14.6392 4.576 14.7173 4.53816 14.8087C4.50033 14.9 4.49042 15.0005 4.50971 15.0975C4.52899 15.1945 4.5766 15.2836 4.6465 15.3535L7.6465 18.3535L8.3535 17.6465L6.207 15.5H7C7.44211 15.4983 7.87121 15.3502 8.22022 15.0789C8.56923 14.8075 8.81848 14.4281 8.929 14H10.5V13H8.929C8.88339 12.8246 8.81373 12.6563 8.722 12.5H10.5V11.5H4.5Z" fill="black"/>
<path d="M31.4998 16.497V15.497H29.4998C29.5011 15.2068 29.4178 14.9226 29.2602 14.6791C29.1026 14.4355 28.8775 14.2431 28.6124 14.1253C28.3472 14.0076 28.0535 13.9697 27.7671 14.0161C27.4808 14.0626 27.2141 14.1914 26.9998 14.387C26.7854 14.1914 26.5188 14.0626 26.2324 14.0161C25.9461 13.9697 25.6524 14.0076 25.3872 14.1253C25.1221 14.2431 24.8969 14.4355 24.7393 14.6791C24.5817 14.9226 24.4985 15.2068 24.4998 15.497H22.6953L16.3393 9.62996C16.2831 9.57855 16.2159 9.54052 16.143 9.5187C16.07 9.49688 15.993 9.49184 15.9178 9.50395L13.4338 9.91795C12.7978 9.08857 11.9954 8.4014 11.078 7.90059C10.1607 7.39979 9.14871 7.09644 8.10714 7.01003C7.06557 6.92362 6.01745 7.05606 5.03011 7.39884C4.04277 7.74162 3.13807 8.28717 2.37412 9.00041C1.61018 9.71366 1.0039 10.5788 0.594231 11.5404C0.184566 12.5019 -0.0194204 13.5384 -0.00461964 14.5835C0.0101811 15.6285 0.243441 16.6589 0.680172 17.6084C1.1169 18.558 1.74744 19.4056 2.53128 20.097C2.655 21.6538 3.26221 23.133 4.26799 24.3278C5.27377 25.5226 6.62782 26.3731 8.14077 26.7605C9.65372 27.1478 11.2499 27.0526 12.7061 26.4882C14.1623 25.9238 15.4056 24.9183 16.2623 23.6125C16.9638 24.3305 18.0638 24.997 19.9998 24.997C21.3498 24.997 22.3073 24.2055 23.0053 23.6275C23.3793 23.3175 23.7658 22.997 23.9998 22.997H24.4998V23.497C24.4985 23.7871 24.5817 24.0713 24.7393 24.3149C24.8969 24.5584 25.1221 24.7508 25.3872 24.8686C25.6524 24.9863 25.9461 25.0242 26.2324 24.9778C26.5188 24.9313 26.7854 24.8025 26.9998 24.607C27.2141 24.8025 27.4808 24.9313 27.7671 24.9778C28.0535 25.0242 28.3472 24.9863 28.6124 24.8686C28.8775 24.7508 29.1026 24.5584 29.2602 24.3149C29.4178 24.0713 29.5011 23.7871 29.4998 23.497V22.997H31.4998V21.997H29.4998V16.497H31.4998ZM0.999781 14.497C1.00154 12.8041 1.66369 11.1786 2.84541 9.96641C4.02713 8.7542 5.63515 8.05085 7.32746 8.00597C9.01977 7.96109 10.6628 8.57823 11.9071 9.7261C13.1514 10.874 13.8988 12.462 13.9903 14.1525C13.9948 14.2655 13.9998 14.3835 13.9998 14.497C13.9997 14.995 13.9417 15.4913 13.8268 15.976C13.6621 16.6953 13.3707 17.3797 12.9663 17.997H12.3743C13.1108 16.979 13.5049 15.7534 13.4998 14.497C13.4998 13.3103 13.1479 12.1502 12.4886 11.1635C11.8293 10.1768 10.8922 9.4078 9.79588 8.95368C8.69953 8.49955 7.49313 8.38073 6.32924 8.61224C5.16535 8.84375 4.09626 9.4152 3.25714 10.2543C2.41803 11.0934 1.84658 12.1625 1.61507 13.3264C1.38356 14.4903 1.50238 15.6967 1.9565 16.7931C2.41063 17.8894 3.17967 18.8265 4.16636 19.4858C5.15306 20.1451 6.31309 20.497 7.49978 20.497C8.0223 20.4966 8.54247 20.4272 9.04678 20.2905C9.14713 20.4402 9.26221 20.5796 9.39028 20.7065C7.9287 21.1512 6.35746 21.0697 4.94978 20.476C4.92952 20.4637 4.90848 20.4529 4.88678 20.4435C4.32405 20.1998 3.80027 19.8747 3.33228 19.4785C2.60138 18.8705 2.01344 18.1089 1.61029 17.2479C1.20715 16.3869 0.998699 15.4477 0.999781 14.497ZM16.2338 17.665L15.7643 17.8525C15.572 17.1747 15.2597 16.537 14.8423 15.9695C14.8873 15.7455 14.9288 15.5195 14.9533 15.294C15.541 15.9862 15.9773 16.7939 16.2338 17.665ZM14.7723 17.997H14.1258C14.2531 17.7575 14.3666 17.5109 14.4658 17.2585C14.5878 17.4959 14.6903 17.7429 14.7723 17.997ZM11.4498 21.497C11.7468 21.5555 13.2758 21.8515 14.3533 21.958C13.9071 22.7481 13.2541 23.4018 12.4645 23.8489C11.6749 24.296 10.7784 24.5197 9.87126 24.4958C8.96414 24.472 8.08065 24.2015 7.31561 23.7136C6.55056 23.2256 5.93285 22.5385 5.52878 21.726C7.18138 22.1876 8.94332 22.0576 10.5103 21.3585C10.8155 21.448 11.1317 21.4947 11.4498 21.497ZM8.99978 17.997C8.86717 17.997 8.74 18.0496 8.64623 18.1434C8.55246 18.2372 8.49978 18.3643 8.49978 18.497C8.50292 18.7907 8.54495 19.0827 8.62478 19.3655C7.61396 19.5989 6.55557 19.5121 5.59627 19.1171C4.63697 18.7222 3.82427 18.0386 3.2708 17.1612C2.71733 16.2838 2.4505 15.2559 2.50728 14.22C2.56405 13.1841 2.94163 12.1916 3.58769 11.3799C4.23375 10.5682 5.11628 9.97756 6.113 9.68982C7.10972 9.40209 8.17126 9.43151 9.15051 9.77401C10.1298 10.1165 10.9782 10.7551 11.5783 11.6014C12.1784 12.4476 12.5005 13.4595 12.4998 14.497C12.5025 15.1462 12.377 15.7896 12.1305 16.3902C11.884 16.9908 11.5213 17.5368 11.0633 17.997H8.99978ZM9.99978 25.997C8.52652 25.9974 7.09693 25.4967 5.94587 24.5772C4.79482 23.6576 3.99075 22.3739 3.66578 20.937C3.86145 21.053 4.06311 21.1601 4.27078 21.2585C4.61733 22.3903 5.29133 23.3943 6.20775 24.1435C7.12417 24.8928 8.24197 25.354 9.42014 25.4687C10.5983 25.5835 11.7841 25.3468 12.8279 24.7885C13.8717 24.2301 14.7268 23.3752 15.2853 22.3315C15.3388 22.408 15.3908 22.485 15.4353 22.552C15.4853 22.6275 15.5403 22.7085 15.5968 22.7915C15.0252 23.7681 14.2076 24.578 13.2256 25.1404C12.2436 25.7028 11.1314 25.9981 9.99978 25.997ZM23.9998 21.997C23.4058 21.997 22.8998 22.415 22.3668 22.8575C21.7218 23.3915 20.9908 23.997 19.9998 23.997C17.5998 23.997 16.8303 22.841 16.2678 21.997C15.9248 21.483 15.5998 20.997 14.9998 20.997C13.8575 20.9031 12.7221 20.7395 11.5998 20.507C11.5669 20.5003 11.5334 20.4969 11.4998 20.497C11.0483 20.5324 10.5998 20.3984 10.2417 20.1211C9.88371 19.8437 9.64183 19.443 9.56328 18.997H15.4998C15.5633 18.997 15.6263 18.985 15.6853 18.9615L18.1853 17.9615L17.8143 17.0325L17.1678 17.2915C16.7601 15.9778 15.999 14.8016 14.9678 13.8915C14.8834 12.8163 14.5666 11.7722 14.0393 10.8315L15.8393 10.5315L22.1603 16.364C22.2527 16.4494 22.3739 16.4969 22.4998 16.497H24.4998V21.997H23.9998ZM25.9998 23.997C25.8672 23.997 25.74 23.9443 25.6462 23.8505C25.5525 23.7567 25.4998 23.6296 25.4998 23.497V15.497C25.4998 15.3643 25.5525 15.2372 25.6462 15.1434C25.74 15.0496 25.8672 14.997 25.9998 14.997C26.1324 14.997 26.2596 15.0496 26.3533 15.1434C26.4471 15.2372 26.4998 15.3643 26.4998 15.497V23.497C26.4998 23.6296 26.4471 23.7567 26.3533 23.8505C26.2596 23.9443 26.1324 23.997 25.9998 23.997ZM28.4998 23.497C28.4998 23.6296 28.4471 23.7567 28.3533 23.8505C28.2596 23.9443 28.1324 23.997 27.9998 23.997C27.8672 23.997 27.74 23.9443 27.6462 23.8505C27.5525 23.7567 27.4998 23.6296 27.4998 23.497V15.497C27.4998 15.3643 27.5525 15.2372 27.6462 15.1434C27.74 15.0496 27.8672 14.997 27.9998 14.997C28.1324 14.997 28.2596 15.0496 28.3533 15.1434C28.4471 15.2372 28.4998 15.3643 28.4998 15.497V23.497Z" fill="black"/>
<path d="M16.6436 8.64844L19.1432 6.14884L19.8502 6.85584L17.3506 9.35544L16.6436 8.64844Z" fill="black"/>
<path d="M15.5 5.5H16.5V8.5H15.5V5.5Z" fill="black"/>
<path d="M18 9.5H21V10.5H18V9.5Z" fill="black"/>
</g>
<defs>
<clipPath id="clip0_2773_1281">
<rect width="32" height="32" fill="white"/>
</clipPath>
</defs>
</svg>
