<svg width="19" height="21" viewBox="0 0 19 21" fill="none" xmlns="http://www.w3.org/2000/svg">
<path d="M5.02344 19.9141L1.27344 16.1641C0.908854 15.7214 0.908854 15.2786 1.27344 14.8359L5.02344 11.0859C5.46615 10.7214 5.90885 10.7214 6.35156 11.0859C6.71615 11.5286 6.71615 11.9714 6.35156 12.4141L4.20312 14.5625H17.5625C18.1354 14.6146 18.4479 14.9271 18.5 15.5C18.4479 16.0729 18.1354 16.3854 17.5625 16.4375H4.20312L6.35156 18.5859C6.71615 19.0286 6.71615 19.4714 6.35156 19.9141C5.90885 20.2786 5.46615 20.2786 5.02344 19.9141ZM18.2266 6.16406L14.4766 9.91406C14.0339 10.2786 13.5911 10.2786 13.1484 9.91406C12.7839 9.47135 12.7839 9.02865 13.1484 8.58594L15.2969 6.4375H1.9375C1.36458 6.38542 1.05208 6.07292 1 5.5C1.05208 4.92708 1.36458 4.61458 1.9375 4.5625H15.2969L13.1484 2.41406C12.7839 1.97135 12.7839 1.52865 13.1484 1.08594C13.5911 0.721354 14.0339 0.721354 14.4766 1.08594L18.2266 4.83594C18.5911 5.27865 18.5911 5.72135 18.2266 6.16406Z" fill="white"/>
</svg>
