<svg width="10" height="10" viewBox="-10 -10 52 52" fill="none" xmlns="http://www.w3.org/2000/svg">
<path d="M11.25 27.5C11.25 28.875 10.125 30 8.75 30C7.375 30 6.25 28.875 6.25 27.5C6.25 26.125 7.375 25 8.75 25C10.125 25 11.25 26.125 11.25 27.5ZM21.25 25C19.875 25 18.75 26.125 18.75 27.5C18.75 28.875 19.875 30 21.25 30C22.625 30 23.75 28.875 23.75 27.5C23.75 26.125 22.625 25 21.25 25ZM28.5125 11.975C27.15 13.8125 24.9625 15 22.5 15C18.3625 15 15 11.6375 15 7.5C15 6.1375 15.3625 4.85 16 3.75H5.3L5.25 3.3125C5.025 1.425 3.425 0 1.525 0H0V2.5H1.525C2.1625 2.5 2.6875 2.975 2.7625 3.6L4.7375 20.4375C4.9625 22.325 6.5625 23.75 8.4625 23.75H24.9875V21.25H8.475C7.8375 21.25 7.3125 20.775 7.2375 20.15L7.075 18.75H27.3L28.525 11.975H28.5125ZM26.25 6.25H18.75V8.75H26.25V6.25Z" fill="white"/>
</svg>
