<svg width="24" height="24" viewBox="0 0 24 24" fill="none" xmlns="http://www.w3.org/2000/svg">
<path d="M17.6284 18.2974L20.0961 20.7651C20.3323 21.0013 20.5684 21.2374 20.8045 21.4735C21.0574 21.7264 21.4798 21.7264 21.7326 21.4735C21.9855 21.2207 21.9855 20.7983 21.7326 20.5455C20.91 19.7229 20.0875 18.9003 19.2649 18.0777C19.0288 17.8416 18.7926 17.6055 18.5565 17.3693C18.3037 17.1165 17.8812 17.1165 17.6284 17.3693C17.3756 17.6222 17.3756 18.0446 17.6284 18.2974Z" fill="#FF6262"/>
<path d="M18.4757 21.5517C19.2983 20.7291 20.1209 19.9065 20.9435 19.0839C21.1796 18.8478 21.4157 18.6117 21.6519 18.3755C21.9047 18.1227 21.9047 17.7003 21.6519 17.4474C21.3991 17.1946 20.9766 17.1946 20.7238 17.4474C19.9012 18.27 19.0787 19.0926 18.2561 19.9152C18.0199 20.1513 17.7838 20.3874 17.5477 20.6236C17.2948 20.8764 17.2948 21.2989 17.5477 21.5517C17.8005 21.8045 18.2229 21.8045 18.4757 21.5517Z" fill="#FF6262"/>
<path d="M11.0837 11.4961C13.6391 11.4961 15.7107 9.42451 15.7107 6.86912C15.7107 4.31374 13.6391 2.24219 11.0837 2.24219C8.52834 2.24219 6.45679 4.31374 6.45679 6.86912C6.45679 9.42451 8.52834 11.4961 11.0837 11.4961Z" fill="#FFCEBF"/>
<path d="M15.3825 6.8672C15.382 6.99826 15.3766 7.12897 15.3661 7.25961C15.3609 7.32406 15.3537 7.38833 15.3459 7.45248C15.3544 7.38313 15.3404 7.48778 15.3397 7.49251C15.3333 7.53467 15.326 7.57667 15.3184 7.61863C15.272 7.87735 15.2007 8.13132 15.1108 8.37817C15.0895 8.43674 15.0664 8.49463 15.0427 8.55228C15.0684 8.48978 15.0284 8.58385 15.0265 8.58803C15.014 8.61638 15.0009 8.64449 14.9877 8.67256C14.931 8.79388 14.8678 8.91207 14.8008 9.02799C14.7392 9.13452 14.6723 9.23795 14.6024 9.3392C14.5675 9.38973 14.5311 9.43921 14.4943 9.48831C14.4337 9.56905 14.533 9.4397 14.4704 9.51877C14.445 9.55081 14.4189 9.58224 14.3927 9.6136C14.2289 9.80945 14.0472 9.98996 13.8536 10.1563C13.8071 10.1962 13.7594 10.2348 13.7114 10.2728C13.7636 10.2314 13.684 10.2934 13.6804 10.2962C13.6558 10.3146 13.6309 10.3325 13.606 10.3504C13.4978 10.4283 13.3856 10.5004 13.2711 10.5686C13.165 10.6319 13.0558 10.6898 12.945 10.7444C12.7948 10.8183 12.7639 10.8302 12.624 10.8834C12.3785 10.9766 12.1243 11.0461 11.8666 11.096C11.8038 11.1082 11.7406 11.1184 11.6774 11.1279C11.5729 11.1437 11.7423 11.1203 11.6371 11.1332C11.605 11.1372 11.5729 11.1404 11.5408 11.1437C11.3999 11.158 11.2583 11.1643 11.1168 11.1658C10.9856 11.1672 10.8545 11.1618 10.7237 11.1522C10.6592 11.1474 10.5948 11.1406 10.5304 11.1332C10.4252 11.121 10.5947 11.143 10.4901 11.1279C10.4479 11.1219 10.4058 11.1148 10.3637 11.1075C10.1045 11.0628 9.84981 10.9932 9.60212 10.9049C9.45613 10.8529 9.42081 10.8368 9.30646 10.7843C9.1847 10.7284 9.06604 10.6659 8.94965 10.5997C8.84268 10.5387 8.73878 10.4725 8.63704 10.4033C8.58625 10.3687 8.53654 10.3327 8.48718 10.2962C8.48359 10.2935 8.40365 10.2317 8.4562 10.2728C8.42399 10.2477 8.39237 10.2217 8.36085 10.1957C8.16393 10.0332 7.98224 9.85269 7.81466 9.66022C7.77442 9.61398 7.73556 9.56656 7.69715 9.51877C7.63396 9.44012 7.73434 9.56863 7.67322 9.48831C7.65463 9.46388 7.63654 9.43909 7.61845 9.41431C7.53988 9.30669 7.46709 9.19496 7.39809 9.08101C7.33415 8.97538 7.27553 8.86658 7.22024 8.75619C7.19249 8.70076 7.16643 8.64451 7.14095 8.58803C7.13908 8.58388 7.09872 8.48989 7.12483 8.55228C7.10877 8.51399 7.09363 8.47531 7.07863 8.4366C6.6921 7.43905 6.6865 6.41535 7.03551 5.41501C7.05606 5.35609 7.07842 5.2978 7.10137 5.23977C7.10303 5.23557 7.14255 5.14098 7.11599 5.20323C7.12818 5.17468 7.14095 5.14637 7.1537 5.11808C7.20883 4.9959 7.27047 4.87677 7.336 4.75988C7.39623 4.65247 7.46179 4.54813 7.53037 4.44587C7.56456 4.39487 7.6003 4.34488 7.63652 4.29528C7.65459 4.27049 7.67317 4.24606 7.69176 4.22164C7.65381 4.27149 7.72865 4.17655 7.73568 4.16792C7.89688 3.96992 8.0762 3.78704 8.26757 3.6182C8.45228 3.45524 8.60355 3.34494 8.84355 3.19747C8.94871 3.13285 9.05706 3.07351 9.16705 3.01754C9.22225 2.98944 9.27831 2.963 9.33461 2.93715C9.36283 2.92419 9.39128 2.91179 9.41976 2.89942C9.36152 2.92475 9.47474 2.87753 9.48527 2.87335C9.72911 2.77695 9.98191 2.70411 10.2385 2.6507C10.504 2.59541 10.6847 2.5768 10.9848 2.56944C11.1162 2.56623 11.2477 2.56988 11.3789 2.57767C11.4437 2.58153 11.5083 2.58742 11.5729 2.59395C11.605 2.59721 11.637 2.60115 11.6691 2.60506C11.6039 2.59707 11.7291 2.61437 11.7407 2.61622C12.001 2.65738 12.2571 2.72356 12.5064 2.80864C12.7544 2.89325 12.9112 2.96476 13.1642 3.10435C13.272 3.16388 13.3768 3.22876 13.4796 3.2967C13.5308 3.3306 13.581 3.36599 13.6309 3.40187C13.6558 3.4198 13.6803 3.43822 13.7049 3.45664C13.7353 3.47978 13.7374 3.48142 13.7113 3.46152C13.7274 3.47417 13.7433 3.4869 13.7592 3.49977C13.9583 3.65968 14.1424 3.83778 14.3125 4.02807C14.3533 4.07375 14.3928 4.12065 14.4318 4.16792C14.4513 4.19157 14.4704 4.2156 14.4894 4.23962C14.4505 4.19054 14.5243 4.28628 14.5309 4.29528C14.6102 4.40235 14.6837 4.51356 14.7534 4.62702C14.8234 4.74097 14.8874 4.8586 14.9472 4.97818C14.975 5.03361 15.001 5.08986 15.0265 5.14635C15.0284 5.15049 15.0688 5.24445 15.0426 5.18209C15.0587 5.22038 15.0738 5.25906 15.0888 5.29778C15.1875 5.55238 15.2606 5.81647 15.3126 6.08438C15.3248 6.14717 15.335 6.21034 15.3445 6.27355C15.3603 6.37803 15.3369 6.20865 15.3498 6.31384C15.355 6.35661 15.3592 6.39953 15.3633 6.44244C15.3766 6.58363 15.382 6.72547 15.3825 6.8672C15.3831 7.04605 15.5313 7.19532 15.7106 7.19532C15.889 7.19532 16.0394 7.04607 16.0388 6.8672C16.0349 5.75225 15.6582 4.67694 14.9723 3.79974C14.315 2.95897 13.3806 2.35009 12.3502 2.07552C11.2555 1.78381 10.094 1.89545 9.06004 2.34517C8.08893 2.76756 7.27056 3.53464 6.75421 4.45557C6.20153 5.44131 6.02423 6.58749 6.19991 7.69862C6.36693 8.7549 6.91417 9.74621 7.69 10.4774C8.49442 11.2356 9.53076 11.6887 10.6267 11.8C11.7157 11.9105 12.8404 11.6284 13.7594 11.0381C15.1703 10.1319 16.0329 8.5416 16.0388 6.8672C16.0394 6.68832 15.889 6.5391 15.7106 6.5391C15.5313 6.53907 15.3831 6.68835 15.3825 6.8672Z" fill="black"/>
<path d="M14.8085 19.4464C14.8085 20.3189 15.053 21.1434 15.4772 21.823H4.54031C3.55242 21.823 2.74219 21.032 2.74219 20.0444V16.2311C2.74219 14.2293 3.7793 12.4689 5.34094 11.4531C6.68695 13.1353 8.75953 14.2127 11.0815 14.2127C13.4035 14.2127 15.4751 13.1352 16.8211 11.4531C18.0199 12.2331 18.9078 13.4496 19.255 14.8798C16.7879 14.9454 14.8085 16.9636 14.8085 19.4464Z" fill="#2D5871"/>
<path d="M14.8085 19.4464C14.8085 20.3189 15.053 21.1434 15.4772 21.823H4.54031C3.55242 21.823 2.74219 21.032 2.74219 20.0444V16.2311C2.74219 14.2293 3.7793 12.4689 5.34094 11.4531C6.68695 13.1353 8.75953 14.2127 11.0815 14.2127C13.4035 14.2127 15.4751 13.1352 16.8211 11.4531C18.0199 12.2331 18.9078 13.4496 19.255 14.8798C16.7879 14.9454 14.8085 16.9636 14.8085 19.4464Z" stroke="black"/>
<path d="M18.8294 14.586C17.8715 14.6978 16.973 15.0866 16.224 15.7062C15.4019 16.3863 14.8216 17.3595 14.5942 18.3999C14.5189 18.7443 14.4816 19.0994 14.4804 19.4519C14.4835 20.1622 14.6374 20.8633 14.9322 21.5056H13.3089H8.8449H5.14614H4.5403C4.31539 21.5056 4.07267 21.4465 3.88389 21.3507C3.82909 21.3228 3.77652 21.2908 3.72493 21.2575C3.70028 21.2416 3.67644 21.2245 3.65263 21.2074M18.8294 14.586C18.8706 14.7123 18.9072 14.8404 18.9392 14.9701L19.2556 14.5547C19.1124 14.5591 18.9703 14.5695 18.8294 14.586ZM18.8294 14.586C18.4771 13.5058 17.7922 12.5591 16.8815 11.8928M16.8815 11.8928C16.9403 11.8249 16.9979 11.7559 17.0543 11.6857L16.6566 11.737C16.733 11.7871 16.808 11.839 16.8815 11.8928ZM16.8815 11.8928C15.5472 13.4345 13.6108 14.3968 11.572 14.5254C9.19562 14.6754 6.83945 13.6879 5.28508 11.8913M5.28508 11.8913C5.3542 11.8416 5.42779 11.7917 5.51122 11.737L5.1136 11.6857C5.16961 11.7554 5.22678 11.8239 5.28508 11.8913ZM5.28508 11.8913C5.15237 11.9866 5.03612 12.0807 4.89826 12.2038C4.70307 12.3782 4.51815 12.5644 4.34856 12.764C4.24965 12.8803 4.20221 12.9388 4.12442 13.0462C4.04403 13.1572 3.96662 13.2704 3.89443 13.3869C3.75538 13.6114 3.6298 13.8444 3.52325 14.0861C3.43904 14.2771 3.33174 14.5782 3.26499 14.8282C3.22853 14.9647 3.1959 15.1024 3.16974 15.2413C3.14581 15.3684 3.12653 15.4902 3.11678 15.578C3.08715 15.8446 3.07967 16.1114 3.07967 16.3793V19.9983V20.0432C3.07967 20.0765 3.08024 20.1099 3.08232 20.1431L3.08233 20.1432C3.08387 20.1675 3.0854 20.1918 3.08768 20.2161M3.08768 20.2161C3.08741 20.2152 3.08803 20.2215 3.09017 20.2398C3.08925 20.2319 3.08842 20.224 3.08768 20.2161ZM3.08768 20.2161C3.08813 20.2175 3.09102 20.2382 3.09343 20.2556C3.09507 20.2674 3.09648 20.2776 3.09678 20.2792C3.11054 20.3514 3.12692 20.4233 3.14954 20.4933L3.14978 20.494C3.15929 20.5234 3.16881 20.5529 3.17987 20.5818C3.18517 20.5956 3.18831 20.6043 3.18994 20.6091C3.19119 20.6118 3.19256 20.6148 3.19407 20.618C3.24454 20.7266 3.30346 20.8317 3.37456 20.9283C3.35972 20.9081 3.38 20.9335 3.39905 20.9574C3.41045 20.9717 3.42141 20.9854 3.42414 20.9885C3.44441 21.0113 3.46468 21.0341 3.48608 21.0559C3.52888 21.0994 3.57285 21.1419 3.61986 21.1809C3.62088 21.1817 3.62674 21.1862 3.63405 21.1918C3.65503 21.2077 3.68797 21.2328 3.65263 21.2074M3.65263 21.2074C3.65164 21.2067 3.6506 21.206 3.64951 21.2052L3.65125 21.2064C3.65171 21.2068 3.65217 21.2071 3.65263 21.2074Z" fill="#2D5871"/>
<path d="M18.8294 14.586C17.8715 14.6978 16.973 15.0866 16.224 15.7062C15.4019 16.3863 14.8216 17.3595 14.5942 18.3999C14.5189 18.7443 14.4816 19.0994 14.4804 19.4519C14.4835 20.1622 14.6374 20.8633 14.9322 21.5056H13.3089H8.8449H5.14614H4.5403C4.31539 21.5056 4.07267 21.4465 3.88389 21.3507C3.82909 21.3228 3.77652 21.2908 3.72493 21.2575C3.70028 21.2416 3.67644 21.2245 3.65263 21.2074M18.8294 14.586C18.8706 14.7123 18.9072 14.8404 18.9392 14.9701L19.2556 14.5547C19.1124 14.5591 18.9703 14.5695 18.8294 14.586ZM18.8294 14.586C18.4771 13.5058 17.7922 12.5591 16.8815 11.8928M16.8815 11.8928C16.9403 11.8249 16.9979 11.7559 17.0543 11.6857L16.6566 11.737C16.733 11.7871 16.808 11.839 16.8815 11.8928ZM16.8815 11.8928C15.5472 13.4345 13.6108 14.3968 11.572 14.5254C9.19562 14.6754 6.83945 13.6879 5.28508 11.8913M5.28508 11.8913C5.3542 11.8416 5.42779 11.7917 5.51122 11.737L5.1136 11.6857C5.16961 11.7554 5.22678 11.8239 5.28508 11.8913ZM5.28508 11.8913C5.15237 11.9866 5.03612 12.0807 4.89826 12.2038C4.70307 12.3782 4.51815 12.5644 4.34856 12.764C4.24965 12.8803 4.20221 12.9388 4.12442 13.0462C4.04403 13.1572 3.96662 13.2704 3.89443 13.3869C3.75538 13.6114 3.6298 13.8444 3.52325 14.0861C3.43904 14.2771 3.33174 14.5782 3.26499 14.8282C3.22853 14.9647 3.1959 15.1024 3.16974 15.2413C3.14581 15.3684 3.12653 15.4902 3.11678 15.578C3.08715 15.8446 3.07967 16.1114 3.07967 16.3793V19.9983V20.0432C3.07967 20.0765 3.08024 20.1099 3.08232 20.1431L3.08233 20.1432C3.08387 20.1675 3.0854 20.1918 3.08768 20.2161M3.08768 20.2161C3.08741 20.2152 3.08803 20.2215 3.09017 20.2398C3.08925 20.2319 3.08842 20.224 3.08768 20.2161ZM3.08768 20.2161C3.08813 20.2175 3.09102 20.2382 3.09343 20.2556C3.09507 20.2674 3.09648 20.2776 3.09678 20.2792C3.11054 20.3514 3.12692 20.4233 3.14954 20.4933L3.14978 20.494C3.15929 20.5234 3.16881 20.5529 3.17987 20.5818C3.18517 20.5956 3.18831 20.6043 3.18994 20.6091C3.19119 20.6118 3.19256 20.6148 3.19407 20.618C3.24454 20.7266 3.30346 20.8317 3.37456 20.9283C3.35972 20.9081 3.38 20.9335 3.39905 20.9574C3.41045 20.9717 3.42141 20.9854 3.42414 20.9885C3.44441 21.0113 3.46468 21.0341 3.48608 21.0559C3.52888 21.0994 3.57285 21.1419 3.61986 21.1809C3.62088 21.1817 3.62674 21.1862 3.63405 21.1918C3.65503 21.2077 3.68797 21.2328 3.65263 21.2074M3.65263 21.2074C3.65164 21.2067 3.6506 21.206 3.64951 21.2052L3.65125 21.2064C3.65171 21.2068 3.65217 21.2071 3.65263 21.2074Z" stroke="black"/>
</svg>
