<svg width="16" height="16" viewBox="0 0 16 16" fill="none" xmlns="http://www.w3.org/2000/svg">
<path fill-rule="evenodd" clip-rule="evenodd" d="M3.66667 13H13C13.1768 13 13.3464 13.0702 13.4714 13.1953C13.5964 13.3203 13.6667 13.4899 13.6667 13.6667C13.6667 13.8435 13.5964 14.013 13.4714 14.1381C13.3464 14.2631 13.1768 14.3333 13 14.3333H3.66667C3.48986 14.3333 3.32029 14.2631 3.19526 14.1381C3.07024 14.013 3 13.8435 3 13.6667C3 13.4899 3.07024 13.3203 3.19526 13.1953C3.32029 13.0702 3.48986 13 3.66667 13ZM3 9.66667L9.66667 3L11.6667 5L5 11.6667H3V9.66667ZM10.3333 2.33333L11.6667 1L13.6667 3L12.3327 4.334L10.3333 2.33333Z" fill="#1A5C8A"/>
</svg>
