<svg width="18" height="25" viewBox="0 0 18 25" fill="none" xmlns="http://www.w3.org/2000/svg">
<path d="M9.3 7.93L6.88 5.5H12.5V9H14V4H6.88L9.3 1.57L8.24 0.5L4 4.75L8.24 9L9.3 7.93ZM9 13C8.40666 13 7.82664 13.1759 7.33329 13.5056C6.83994 13.8352 6.45542 14.3038 6.22836 14.8519C6.0013 15.4001 5.94189 16.0033 6.05764 16.5853C6.1734 17.1672 6.45912 17.7018 6.87868 18.1213C7.29824 18.5409 7.83279 18.8266 8.41473 18.9424C8.99667 19.0581 9.59987 18.9987 10.1481 18.7716C10.6962 18.5446 11.1648 18.1601 11.4944 17.6667C11.8241 17.1734 12 16.5933 12 16C12 15.2044 11.6839 14.4413 11.1213 13.8787C10.5587 13.3161 9.79565 13 9 13ZM0 10V22H18V10M16 18C15.4696 18 14.9609 18.2107 14.5858 18.5858C14.2107 18.9609 14 19.4696 14 20H4C4 19.4696 3.78929 18.9609 3.41421 18.5858C3.03914 18.2107 2.53043 18 2 18V14C2.53043 14 3.03914 13.7893 3.41421 13.4142C3.78929 13.0391 4 12.5304 4 12H14C14 12.5304 14.2107 13.0391 14.5858 13.4142C14.9609 13.7893 15.4696 14 16 14V18Z" fill="white"/>
</svg>
