<svg width="24" height="24" viewBox="0 0 24 24" fill="none" xmlns="http://www.w3.org/2000/svg">
<path d="M13.0606 1.59375H10.9015C10.4695 1.59375 10.1193 1.944 10.1193 2.376V4.53506C10.1193 4.96706 10.4695 5.31731 10.9015 5.31731H13.0606C13.4926 5.31731 13.8429 4.96716 13.8429 4.53506V2.376C13.8428 1.944 13.4926 1.59375 13.0606 1.59375Z" fill="#8AC5DC"/>
<path d="M13.0606 1.45312H12.613C12.5353 1.45312 12.4724 1.51603 12.4724 1.59375C12.4724 1.67147 12.5353 1.73438 12.613 1.73438H13.0606C13.4143 1.73438 13.7022 2.02219 13.7022 2.37591V4.53506C13.7022 4.88878 13.4144 5.17659 13.0606 5.17659H10.9015C10.5478 5.17659 10.2599 4.88878 10.2599 4.53506V2.37591C10.2599 2.02219 10.5477 1.73438 10.9015 1.73438H11.3245C11.4023 1.73438 11.4652 1.67147 11.4652 1.59375C11.4652 1.51603 11.4023 1.45312 11.3245 1.45312H10.9015C10.3927 1.45312 9.97867 1.86713 9.97867 2.37591V4.53506C9.97867 5.04394 10.3927 5.45784 10.9015 5.45784H13.0606C13.5695 5.45784 13.9835 5.04384 13.9835 4.53506V2.37591C13.9834 1.86713 13.5694 1.45312 13.0606 1.45312Z" fill="#3A312A"/>
<path d="M8.67074 10.1406H6.51168C6.07968 10.1406 5.72943 10.4909 5.72943 10.9229V13.0819C5.72943 13.5139 6.07959 13.8642 6.51168 13.8642H8.67074C9.10274 13.8642 9.45299 13.5139 9.45299 13.0819V10.9229C9.4529 10.4909 9.10274 10.1406 8.67074 10.1406Z" fill="#ED6E7A"/>
<path d="M8.67074 10H6.51168C6.00281 10 5.58881 10.414 5.58881 10.9229V13.0819C5.58881 13.5908 6.00281 14.0048 6.51168 14.0048H8.67074C9.17962 14.0048 9.59362 13.5908 9.59362 13.0819V10.9229C9.59362 10.414 9.17962 10 8.67074 10ZM9.31237 13.0819C9.31237 13.4357 9.02456 13.7236 8.67074 13.7236H6.51168C6.15796 13.7236 5.87006 13.4358 5.87006 13.0819V10.9229C5.87006 10.5692 6.15787 10.2813 6.51168 10.2813H8.67074C9.02446 10.2813 9.31237 10.5691 9.31237 10.9229V13.0819Z" fill="#3A312A"/>
<path d="M17.4524 10.1406H15.2934C14.8614 10.1406 14.5111 10.4909 14.5111 10.9229V13.0819C14.5111 13.5139 14.8614 13.8642 15.2934 13.8642H17.4524C17.8844 13.8642 18.2347 13.5139 18.2347 13.0819V10.9229C18.2346 10.4909 17.8844 10.1406 17.4524 10.1406Z" fill="#ED6E7A"/>
<path d="M17.4524 10H15.2934C14.7845 10 14.3705 10.414 14.3705 10.9229V13.0819C14.3705 13.5908 14.7845 14.0048 15.2934 14.0048H17.4524C17.9613 14.0048 18.3753 13.5908 18.3753 13.0819V10.9229C18.3752 10.414 17.9612 10 17.4524 10ZM18.094 13.0819C18.094 13.4357 17.8061 13.7236 17.4523 13.7236H15.2933C14.9395 13.7236 14.6516 13.4358 14.6516 13.0819V10.9229C14.6516 10.5692 14.9395 10.2813 15.2933 10.2813H17.4523C17.806 10.2813 18.094 10.5691 18.094 10.9229V13.0819Z" fill="#3A312A"/>
<path d="M12.0005 5.17969C11.9227 5.17969 11.8598 5.24259 11.8598 5.32031V7.73287C11.8598 7.81059 11.9227 7.8735 12.0005 7.8735C12.0782 7.8735 12.1411 7.81059 12.1411 7.73287V5.32031C12.1411 5.24269 12.0782 5.17969 12.0005 5.17969Z" fill="#3A312A"/>
<path d="M16.3729 7.59375H7.62814C7.55042 7.59375 7.48752 7.65666 7.48752 7.73438V10.1498C7.48752 10.2276 7.55042 10.2905 7.62814 10.2905C7.70586 10.2905 7.76877 10.2276 7.76877 10.1498V7.875H16.2321V10.1498C16.2321 10.2276 16.2951 10.2905 16.3728 10.2905C16.4505 10.2905 16.5134 10.2276 16.5134 10.1498V7.73438C16.5135 7.65666 16.4505 7.59375 16.3729 7.59375Z" fill="#3A312A"/>
<path d="M7.61063 13.7266C7.53291 13.7266 7.47 13.7895 7.47 13.8672V16.2798C7.47 16.3575 7.53291 16.4204 7.61063 16.4204C7.68834 16.4204 7.75125 16.3575 7.75125 16.2798V13.8672C7.75125 13.7895 7.68834 13.7266 7.61063 13.7266Z" fill="#3A312A"/>
<path d="M11.983 16.1406H3.23831C3.16059 16.1406 3.09769 16.2035 3.09769 16.2812V18.6967C3.09769 18.7744 3.16059 18.8373 3.23831 18.8373C3.31603 18.8373 3.37894 18.7744 3.37894 18.6967V16.4219H11.8424V18.6967C11.8424 18.7744 11.9053 18.8373 11.983 18.8373C12.0607 18.8373 12.1237 18.7744 12.1237 18.6967V16.2812C12.1237 16.2035 12.0607 16.1406 11.983 16.1406Z" fill="#3A312A"/>
<path d="M20.7626 16.1391H16.5309V13.8672C16.5309 13.7895 16.468 13.7266 16.3903 13.7266C16.3126 13.7266 16.2497 13.7895 16.2497 13.8672V16.2798C16.2497 16.3575 16.3126 16.4204 16.3903 16.4204H20.622V18.6952C20.622 18.7729 20.6849 18.8358 20.7626 18.8358C20.8404 18.8358 20.9033 18.7729 20.9033 18.6952V16.2798C20.9033 16.202 20.8404 16.1391 20.7626 16.1391Z" fill="#3A312A"/>
<path d="M4.31689 18.6797H2.15783C1.72583 18.6797 1.37558 19.0298 1.37558 19.4619V19.8383C1.37802 19.8383 1.38036 19.8379 1.3828 19.8379V21.1718C1.38027 21.1718 1.37802 21.1715 1.37558 21.1714V21.621C1.37558 22.053 1.72583 22.4033 2.15783 22.4033H4.31689C4.74889 22.4033 5.09914 22.053 5.09914 21.621V19.4619C5.09905 19.0298 4.74889 18.6797 4.31689 18.6797Z" fill="#D5DC57"/>
<path d="M4.3168 18.5391H2.15774C1.64886 18.5391 1.23486 18.9531 1.23486 19.4618V19.8382C1.23486 19.8759 1.25239 19.9119 1.2793 19.9384C1.30555 19.9642 1.34314 19.9785 1.38008 19.9785C1.46174 19.98 1.52333 19.9163 1.52333 19.8379C1.52333 19.8222 1.5208 19.8072 1.51611 19.7932V19.4619C1.51611 19.1082 1.80393 18.8204 2.15774 18.8204H4.3168C4.67052 18.8204 4.95843 19.1082 4.95843 19.4619V21.621C4.95843 21.9747 4.67061 22.2626 4.3168 22.2626H2.15774C1.80402 22.2626 1.51611 21.9748 1.51611 21.621V21.2238C1.52277 21.2077 1.52652 21.1901 1.52652 21.1718C1.52652 21.094 1.46671 21.0312 1.38899 21.0312C1.38646 21.031 1.38064 21.0307 1.37811 21.0307C1.33911 21.0271 1.30386 21.0444 1.27696 21.071C1.25005 21.0974 1.23486 21.1335 1.23486 21.1713V21.6209C1.23486 22.1298 1.64886 22.5438 2.15774 22.5438H4.3168C4.82568 22.5438 5.23968 22.1298 5.23968 21.6209V19.4618C5.23968 18.953 4.82568 18.5391 4.3168 18.5391Z" fill="#3A312A"/>
<path d="M13.0986 18.6797H10.9395C10.5075 18.6797 10.1573 19.0298 10.1573 19.4619V21.621C10.1573 22.053 10.5075 22.4033 10.9395 22.4033H13.0986C13.5306 22.4033 13.8808 22.053 13.8808 21.621V19.4619C13.8807 19.0298 13.5306 18.6797 13.0986 18.6797Z" fill="#D5DC57"/>
<path d="M13.0985 18.5391H10.9394C10.4305 18.5391 10.0165 18.9531 10.0165 19.4618V21.6209C10.0165 22.1298 10.4305 22.5438 10.9394 22.5438H13.0985C13.6074 22.5438 14.0214 22.1298 14.0214 21.6209V19.4618C14.0214 18.953 13.6074 18.5391 13.0985 18.5391ZM13.7401 21.6209C13.7401 21.9746 13.4523 22.2625 13.0985 22.2625H10.9394C10.5857 22.2625 10.2978 21.9747 10.2978 21.6209V19.4618C10.2978 19.1081 10.5856 18.8203 10.9394 18.8203H13.0985C13.4522 18.8203 13.7401 19.1081 13.7401 19.4618V21.6209Z" fill="#3A312A"/>
<path d="M21.8423 18.6797H19.6832C19.2512 18.6797 18.9009 19.0298 18.9009 19.4619V21.621C18.9009 22.053 19.2512 22.4033 19.6832 22.4033H21.8423C22.2743 22.4033 22.6245 22.053 22.6245 21.621V19.4619C22.6244 19.0298 22.2743 18.6797 21.8423 18.6797Z" fill="#D5DC57"/>
<path d="M21.8422 18.5391H19.6831C19.1742 18.5391 18.7602 18.9531 18.7602 19.4618V21.6209C18.7602 22.1298 19.1742 22.5438 19.6831 22.5438H21.8422C22.351 22.5438 22.765 22.1298 22.765 21.6209V19.4618C22.765 18.953 22.351 18.5391 21.8422 18.5391ZM22.4838 21.6209C22.4838 21.9746 22.196 22.2625 21.8422 22.2625H19.6831C19.3294 22.2625 19.0415 21.9747 19.0415 21.6209V19.4618C19.0415 19.1081 19.3293 18.8203 19.6831 18.8203H21.8422C22.1959 18.8203 22.4838 19.1081 22.4838 19.4618V21.6209Z" fill="#3A312A"/>
<path d="M21.8419 18.8203H20.4356C20.79 18.8203 21.0778 19.1081 21.0778 19.4625V21.6216C21.0778 21.975 20.79 22.2628 20.4356 22.2628H21.8419C22.1963 22.2628 22.4841 21.975 22.4841 21.6216V19.4625C22.4841 19.1081 22.1963 18.8203 21.8419 18.8203Z" fill="#B9C239"/>
</svg>
