<svg width="40" height="40" viewBox="0 0 40 40" fill="none" xmlns="http://www.w3.org/2000/svg">
<circle cx="20" cy="20" r="20" fill="white"/>
<path d="M29 9.5H20C19.6023 9.5004 19.221 9.65856 18.9398 9.93978C18.6586 10.221 18.5004 10.6023 18.5 11V18.5H11C10.6023 18.5004 10.221 18.6586 9.93978 18.9398C9.65856 19.221 9.5004 19.6023 9.5 20V30.5H30.5V11C30.4996 10.6023 30.3414 10.221 30.0602 9.93978C29.779 9.65856 29.3977 9.5004 29 9.5ZM14.75 29V23.75H17.75V29H14.75ZM29 29H19.25V23C19.25 22.8011 19.171 22.6103 19.0303 22.4697C18.8897 22.329 18.6989 22.25 18.5 22.25H14C13.8011 22.25 13.6103 22.329 13.4697 22.4697C13.329 22.6103 13.25 22.8011 13.25 23V29H11V20H20V11H29V29Z" fill="#1A5C8A"/>
<path d="M21.5 14H23V15.5H21.5V14ZM26 14H27.5V15.5H26V14ZM21.5 18.5H23V20H21.5V18.5ZM26 18.5H27.5V20H26V18.5ZM21.5 23H23V24.5H21.5V23ZM26 23H27.5V24.5H26V23Z" fill="#1A5C8A"/>
</svg>
