<svg width="22" height="22" viewBox="-10 -10 52 52" fill="none" xmlns="http://www.w3.org/2000/svg">
<g clip-path="url(#clip0_2773_1318)">
<path d="M25.1478 14.7969H7.15039C6.87314 14.7969 6.64844 15.0216 6.64844 15.2989V30.9869C6.64844 31.2641 6.87314 31.4889 7.15039 31.4889H25.1478C25.425 31.4889 25.6497 31.2641 25.6497 30.9869V15.2989C25.6497 15.0216 25.425 14.7969 25.1478 14.7969Z" fill="#F29F4A" stroke="black" stroke-width="1.5" stroke-linecap="round" stroke-linejoin="round"/>
<path d="M9.02344 14.7994C9.28617 4.09858 12.1906 0.512742 16.1491 0.492269C20.139 0.471135 23.2616 4.57819 23.4303 14.7994" stroke="black" stroke-width="1.5" stroke-linecap="round" stroke-linejoin="round"/>
<path d="M14.8916 17.8844C16.169 17.8363 17.2408 18.9102 17.2855 20.283C17.3303 21.6558 16.3309 22.8077 15.0535 22.8557C15.0108 22.8574 14.968 22.8576 14.9253 22.8568" stroke="#00EFD1" stroke-width="1.49791" stroke-linecap="round" stroke-linejoin="round"/>
<path d="M13.8154 22.8594H14.9726" stroke="#00EFD1" stroke-width="1.49791" stroke-linecap="round" stroke-linejoin="round"/>
<path d="M13.8154 17.8828H18.4442" stroke="#00EFD1" stroke-width="1.49791" stroke-linecap="round" stroke-linejoin="round"/>
<path d="M14.9727 22.8594L17.2871 27.8338" stroke="#00EFD1" stroke-width="1.49791" stroke-linecap="round" stroke-linejoin="round"/>
<path d="M13.8154 20.3672H18.4442" stroke="#00EFD1" stroke-width="1.49791" stroke-linecap="round" stroke-linejoin="round"/>
</g>
<defs>
<clipPath id="clip0_2773_1318">
<rect width="32" height="32" fill="white"/>
</clipPath>
</defs>
</svg>
