<svg width="24" height="24" viewBox="0 0 24 24" fill="none" xmlns="http://www.w3.org/2000/svg">
<path d="M4.125 4.125V2.25C4.125 1.85218 4.28304 1.47064 4.56434 1.18934C4.84564 0.908035 5.22718 0.75 5.625 0.75H19.875C20.2728 0.75 20.6544 0.908035 20.9357 1.18934C21.217 1.47064 21.375 1.85218 21.375 2.25V21.75C21.375 22.1478 21.217 22.5294 20.9357 22.8107C20.6544 23.092 20.2728 23.25 19.875 23.25H5.625C5.22718 23.25 4.84564 23.092 4.56434 22.8107C4.28304 22.5294 4.125 22.1478 4.125 21.75V4.125Z" fill="#357176"/>
<path d="M19.875 0.75H5.625C5.36093 0.751368 5.10201 0.823218 4.875 0.958125C5.45295 4.99914 7.41245 8.71533 10.4204 11.475C13.4284 14.2347 17.2993 15.8676 21.375 16.0961V2.25C21.375 1.85218 21.217 1.47064 20.9357 1.18934C20.6544 0.908035 20.2728 0.75 19.875 0.75Z" fill="#45868E"/>
<path d="M21.375 6.375H17.25C16.8522 6.375 16.4706 6.21696 16.1893 5.93566C15.908 5.65436 15.75 5.27282 15.75 4.875V0.75L21.375 6.375Z" fill="#5994A2"/>
<path d="M5.0625 11.625H3.1875C2.87684 11.625 2.625 11.8768 2.625 12.1875C2.625 12.4982 2.87684 12.75 3.1875 12.75H5.0625C5.37316 12.75 5.625 12.4982 5.625 12.1875C5.625 11.8768 5.37316 11.625 5.0625 11.625Z" fill="#F1F1F3"/>
<path d="M5.0625 19.125H3.1875C2.87684 19.125 2.625 19.3768 2.625 19.6875C2.625 19.9982 2.87684 20.25 3.1875 20.25H5.0625C5.37316 20.25 5.625 19.9982 5.625 19.6875C5.625 19.3768 5.37316 19.125 5.0625 19.125Z" fill="#F1F1F3"/>
<path d="M5.0625 15.375H3.1875C2.87684 15.375 2.625 15.6268 2.625 15.9375C2.625 16.2482 2.87684 16.5 3.1875 16.5H5.0625C5.37316 16.5 5.625 16.2482 5.625 15.9375C5.625 15.6268 5.37316 15.375 5.0625 15.375Z" fill="#F1F1F3"/>
<path d="M4.125 4.125H5.0625C5.21168 4.125 5.35476 4.18426 5.46025 4.28975C5.56574 4.39524 5.625 4.53832 5.625 4.6875C5.625 4.83668 5.56574 4.97976 5.46025 5.08525C5.35476 5.19074 5.21168 5.25 5.0625 5.25H3.1875C3.03832 5.25 2.89524 5.19074 2.78975 5.08525C2.68426 4.97976 2.625 4.83668 2.625 4.6875C2.625 4.53832 2.68426 4.39524 2.78975 4.28975C2.89524 4.18426 3.03832 4.125 3.1875 4.125H4.125Z" fill="#F1F1F3"/>
<path d="M5.0625 7.875H3.1875C2.87684 7.875 2.625 8.12684 2.625 8.4375C2.625 8.74816 2.87684 9 3.1875 9H5.0625C5.37316 9 5.625 8.74816 5.625 8.4375C5.625 8.12684 5.37316 7.875 5.0625 7.875Z" fill="#F1F1F3"/>
<path d="M15.75 12.375C15.75 13.0425 15.5521 13.695 15.1812 14.2501C14.8104 14.8051 14.2833 15.2376 13.6666 15.4931C13.0499 15.7485 12.3713 15.8154 11.7166 15.6852C11.0619 15.5549 10.4605 15.2335 9.98852 14.7615C9.51651 14.2895 9.19508 13.6881 9.06485 13.0334C8.93463 12.3787 9.00146 11.7001 9.25691 11.0834C9.51235 10.4667 9.94494 9.93964 10.5 9.56879C11.055 9.19794 11.7075 9 12.375 9V12.375H15.75Z" fill="#FFD55D"/>
<path d="M16.875 11.25C16.875 10.3549 16.5194 9.49645 15.8865 8.86351C15.2535 8.23058 14.3951 7.875 13.5 7.875V11.25H16.875Z" fill="#FFD55D"/>
<path d="M17.9966 16.8751C17.998 16.8257 17.9894 16.7766 17.9712 16.7307C17.9531 16.6848 17.9258 16.6431 17.8911 16.608C17.8563 16.573 17.8148 16.5453 17.7691 16.5268C17.7234 16.5082 17.6744 16.4991 17.625 16.5001H15.75V17.2501H16.7198L13.9001 20.0697L12.2876 18.1351C12.2275 18.0629 12.1424 18.016 12.0493 18.0036C11.9561 17.9911 11.8618 18.0141 11.7848 18.0679L8.03476 20.6929L8.46451 21.3072L11.9321 18.8798L13.5866 20.8651C13.62 20.9051 13.6613 20.9378 13.708 20.961C13.7547 20.9841 13.8057 20.9973 13.8578 20.9997C13.9097 21.0015 13.9615 20.9927 14.01 20.9739C14.0585 20.9551 14.1026 20.9266 14.1398 20.8902L17.25 17.7803V18.7501H18V16.8751H17.9966Z" fill="#FFC239"/>
<path d="M9.51974 10.5781C9.06011 11.3049 8.89541 12.1798 9.05932 13.024C9.22322 13.8681 9.70335 14.6178 10.4016 15.1198C11.0998 15.6218 11.9634 15.8382 12.8158 15.7247C13.6682 15.6112 14.4451 15.1764 14.9876 14.5093C12.9301 13.561 11.0739 12.2265 9.51974 10.5781Z" fill="#FFC239"/>
<path d="M19.875 0.375H5.625C5.1279 0.375595 4.65133 0.573331 4.29983 0.924832C3.94833 1.27633 3.7506 1.7529 3.75 2.25V3.75H3.1875C2.93886 3.75 2.7004 3.84877 2.52459 4.02459C2.34877 4.2004 2.25 4.43886 2.25 4.6875C2.25 4.93614 2.34877 5.1746 2.52459 5.35041C2.7004 5.52623 2.93886 5.625 3.1875 5.625H3.75V7.5H3.1875C2.93886 7.5 2.7004 7.59877 2.52459 7.77459C2.34877 7.9504 2.25 8.18886 2.25 8.4375C2.25 8.68614 2.34877 8.9246 2.52459 9.10041C2.7004 9.27623 2.93886 9.375 3.1875 9.375H3.75V11.25H3.1875C2.93886 11.25 2.7004 11.3488 2.52459 11.5246C2.34877 11.7004 2.25 11.9389 2.25 12.1875C2.25 12.4361 2.34877 12.6746 2.52459 12.8504C2.7004 13.0262 2.93886 13.125 3.1875 13.125H3.75V15H3.1875C2.93886 15 2.7004 15.0988 2.52459 15.2746C2.34877 15.4504 2.25 15.6889 2.25 15.9375C2.25 16.1861 2.34877 16.4246 2.52459 16.6004C2.7004 16.7762 2.93886 16.875 3.1875 16.875H3.75V18.75H3.1875C2.93886 18.75 2.7004 18.8488 2.52459 19.0246C2.34877 19.2004 2.25 19.4389 2.25 19.6875C2.25 19.9361 2.34877 20.1746 2.52459 20.3504C2.7004 20.5262 2.93886 20.625 3.1875 20.625H3.75V21.75C3.7506 22.2471 3.94833 22.7237 4.29983 23.0752C4.65133 23.4267 5.1279 23.6244 5.625 23.625H19.875C20.3721 23.6244 20.8487 23.4267 21.2002 23.0752C21.5517 22.7237 21.7494 22.2471 21.75 21.75V2.25C21.7494 1.7529 21.5517 1.27633 21.2002 0.924832C20.8487 0.573331 20.3721 0.375595 19.875 0.375ZM21 2.25V5.46975L16.6553 1.125H19.875C20.1734 1.125 20.4595 1.24353 20.6705 1.4545C20.8815 1.66548 21 1.95163 21 2.25ZM16.125 1.65525L20.4697 6H17.25C16.9516 6 16.6655 5.88147 16.4545 5.6705C16.2435 5.45952 16.125 5.17337 16.125 4.875V1.65525ZM3 4.6875C3 4.63777 3.01975 4.59008 3.05492 4.55492C3.09008 4.51975 3.13777 4.5 3.1875 4.5H5.0625C5.11223 4.5 5.15992 4.51975 5.19508 4.55492C5.23025 4.59008 5.25 4.63777 5.25 4.6875C5.25 4.73723 5.23025 4.78492 5.19508 4.82008C5.15992 4.85525 5.11223 4.875 5.0625 4.875H3.1875C3.13777 4.875 3.09008 4.85525 3.05492 4.82008C3.01975 4.78492 3 4.73723 3 4.6875ZM3 8.4375C3 8.38777 3.01975 8.34008 3.05492 8.30492C3.09008 8.26975 3.13777 8.25 3.1875 8.25H5.0625C5.11223 8.25 5.15992 8.26975 5.19508 8.30492C5.23025 8.34008 5.25 8.38777 5.25 8.4375C5.25 8.48723 5.23025 8.53492 5.19508 8.57008C5.15992 8.60525 5.11223 8.625 5.0625 8.625H3.1875C3.13777 8.625 3.09008 8.60525 3.05492 8.57008C3.01975 8.53492 3 8.48723 3 8.4375ZM3 12.1875C3 12.1378 3.01975 12.0901 3.05492 12.0549C3.09008 12.0198 3.13777 12 3.1875 12H5.0625C5.11223 12 5.15992 12.0198 5.19508 12.0549C5.23025 12.0901 5.25 12.1378 5.25 12.1875C5.25 12.2372 5.23025 12.2849 5.19508 12.3201C5.15992 12.3552 5.11223 12.375 5.0625 12.375H3.1875C3.13777 12.375 3.09008 12.3552 3.05492 12.3201C3.01975 12.2849 3 12.2372 3 12.1875ZM3 15.9375C3 15.8878 3.01975 15.8401 3.05492 15.8049C3.09008 15.7698 3.13777 15.75 3.1875 15.75H5.0625C5.11223 15.75 5.15992 15.7698 5.19508 15.8049C5.23025 15.8401 5.25 15.8878 5.25 15.9375C5.25 15.9872 5.23025 16.0349 5.19508 16.0701C5.15992 16.1052 5.11223 16.125 5.0625 16.125H3.1875C3.13777 16.125 3.09008 16.1052 3.05492 16.0701C3.01975 16.0349 3 15.9872 3 15.9375ZM3 19.6875C3 19.6378 3.01975 19.5901 3.05492 19.5549C3.09008 19.5198 3.13777 19.5 3.1875 19.5H5.0625C5.11223 19.5 5.15992 19.5198 5.19508 19.5549C5.23025 19.5901 5.25 19.6378 5.25 19.6875C5.25 19.7372 5.23025 19.7849 5.19508 19.8201C5.15992 19.8552 5.11223 19.875 5.0625 19.875H3.1875C3.13777 19.875 3.09008 19.8552 3.05492 19.8201C3.01975 19.7849 3 19.7372 3 19.6875ZM19.875 22.875H5.625C5.32663 22.875 5.04048 22.7565 4.8295 22.5455C4.61853 22.3345 4.5 22.0484 4.5 21.75V20.625H5.0625C5.31114 20.625 5.5496 20.5262 5.72541 20.3504C5.90123 20.1746 6 19.9361 6 19.6875C6 19.4389 5.90123 19.2004 5.72541 19.0246C5.5496 18.8488 5.31114 18.75 5.0625 18.75H4.5V16.875H5.0625C5.31114 16.875 5.5496 16.7762 5.72541 16.6004C5.90123 16.4246 6 16.1861 6 15.9375C6 15.6889 5.90123 15.4504 5.72541 15.2746C5.5496 15.0988 5.31114 15 5.0625 15H4.5V13.125H5.0625C5.31114 13.125 5.5496 13.0262 5.72541 12.8504C5.90123 12.6746 6 12.4361 6 12.1875C6 11.9389 5.90123 11.7004 5.72541 11.5246C5.5496 11.3488 5.31114 11.25 5.0625 11.25H4.5V9.375H5.0625C5.31114 9.375 5.5496 9.27623 5.72541 9.10041C5.90123 8.9246 6 8.68614 6 8.4375C6 8.18886 5.90123 7.9504 5.72541 7.77459C5.5496 7.59877 5.31114 7.5 5.0625 7.5H4.5V5.625H5.0625C5.31114 5.625 5.5496 5.52623 5.72541 5.35041C5.90123 5.1746 6 4.93614 6 4.6875C6 4.43886 5.90123 4.2004 5.72541 4.02459C5.5496 3.84877 5.31114 3.75 5.0625 3.75H4.5V2.25C4.5 1.95163 4.61853 1.66548 4.8295 1.4545C5.04048 1.24353 5.32663 1.125 5.625 1.125H15.375V4.875C15.3756 5.3721 15.5733 5.84867 15.9248 6.20017C16.2763 6.55167 16.7529 6.7494 17.25 6.75H21V21.75C21 22.0484 20.8815 22.3345 20.6705 22.5455C20.4595 22.7565 20.1734 22.875 19.875 22.875Z" fill="black"/>
<path d="M12.375 16.125C13.3692 16.1239 14.3224 15.7285 15.0254 15.0254C15.7285 14.3224 16.1239 13.3692 16.125 12.375C16.125 12.2755 16.0855 12.1802 16.0152 12.1098C15.9448 12.0395 15.8495 12 15.75 12H12.75V9C12.75 8.90054 12.7105 8.80516 12.6402 8.73483C12.5698 8.66451 12.4745 8.625 12.375 8.625C11.3804 8.625 10.4266 9.02009 9.72335 9.72335C9.02009 10.4266 8.625 11.3804 8.625 12.375C8.625 13.3696 9.02009 14.3234 9.72335 15.0267C10.4266 15.7299 11.3804 16.125 12.375 16.125ZM12 9.39825V12.375C12 12.4745 12.0395 12.5698 12.1098 12.6402C12.1802 12.7105 12.2755 12.75 12.375 12.75H15.3517C15.2815 13.3069 15.0565 13.833 14.7021 14.2683C14.3478 14.7037 13.8784 15.0309 13.3474 15.2128C12.8163 15.3947 12.2449 15.424 11.6981 15.2972C11.1512 15.1705 10.6509 14.8929 10.254 14.496C9.85708 14.0991 9.57948 13.5988 9.45276 13.0519C9.32604 12.5051 9.35529 11.9337 9.53717 11.4026C9.71906 10.8716 10.0463 10.4022 10.4817 10.0479C10.917 9.69354 11.4431 9.46848 12 9.39825Z" fill="black"/>
<path d="M13.5 11.625H16.875C16.9745 11.625 17.0698 11.5855 17.1402 11.5152C17.2105 11.4448 17.25 11.3495 17.25 11.25C17.2489 10.2558 16.8535 9.30258 16.1504 8.59956C15.4474 7.89653 14.4942 7.50109 13.5 7.5C13.4005 7.5 13.3052 7.53951 13.2348 7.60983C13.1645 7.68016 13.125 7.77554 13.125 7.875V11.25C13.125 11.3495 13.1645 11.4448 13.2348 11.5152C13.3052 11.5855 13.4005 11.625 13.5 11.625ZM13.875 8.27325C14.5355 8.35765 15.1494 8.6589 15.6202 9.12977C16.0911 9.60063 16.3924 10.2145 16.4767 10.875H13.875V8.27325Z" fill="black"/>
<path d="M17.9715 16.7314C17.9431 16.6629 17.895 16.6043 17.8334 16.5631C17.7717 16.522 17.6992 16.5 17.625 16.5H15.75V17.25H16.7198L13.9001 20.0696L12.2876 18.135C12.2275 18.0629 12.1424 18.0159 12.0493 18.0035C11.9561 17.9911 11.8618 18.014 11.7848 18.0679L8.03476 20.6929L8.46451 21.3071L11.9321 18.8798L13.5866 20.865C13.62 20.905 13.6613 20.9376 13.708 20.9608C13.7546 20.984 13.8056 20.9971 13.8577 20.9995C13.9097 21.0019 13.9617 20.9934 14.0102 20.9745C14.0588 20.9557 14.1029 20.9269 14.1398 20.8901L17.25 17.7803V18.75H18V16.875H17.9966C17.9977 16.8259 17.9892 16.7771 17.9715 16.7314Z" fill="black"/>
</svg>
