<svg width="16" height="16" viewBox="0 0 16 16" fill="none" xmlns="http://www.w3.org/2000/svg">
<path d="M1.99479 1.99479V1.32812H1.32812V1.99479H1.99479ZM8.19013 9.13279C8.31586 9.25423 8.48426 9.32143 8.65906 9.31991C8.83386 9.31839 9.00107 9.24828 9.12467 9.12467C9.24828 9.00107 9.31839 8.83386 9.31991 8.65906C9.32143 8.48426 9.25423 8.31586 9.13279 8.19013L8.19013 9.13279ZM2.66146 7.32813V1.99479H1.32812V7.32813H2.66146ZM1.99479 2.66146H7.32813V1.32812H1.99479V2.66146ZM1.52346 2.46613L8.19013 9.13279L9.13279 8.19013L2.46613 1.52346L1.52346 2.46613Z" fill="#FF0000"/>
<path d="M2.65625 9.98958C2.65625 11.2362 2.65625 11.8589 2.92425 12.3229C3.09978 12.6269 3.35224 12.8794 3.65625 13.0549C4.12025 13.3229 4.74292 13.3229 5.98958 13.3229H9.32292C11.2082 13.3229 12.1516 13.3229 12.7369 12.7369C13.3229 12.1516 13.3229 11.2082 13.3229 9.32292V5.98958C13.3229 4.74292 13.3229 4.12025 13.0549 3.65625C12.8794 3.35224 12.6269 3.09978 12.3229 2.92425C11.8589 2.65625 11.2362 2.65625 9.98958 2.65625" stroke="#FF0000" stroke-width="2" stroke-linecap="round"/>
</svg>
