<svg width="16" height="16" viewBox="0 0 16 16" fill="none" xmlns="http://www.w3.org/2000/svg">
<path d="M2 6V10C2 11.8853 2 12.8287 2.586 13.414C3.17133 14 4.11467 14 6 14H10C11.8853 14 12.8287 14 13.414 13.414C14 12.8287 14 11.8853 14 10V6C14 4.11467 14 3.17133 13.414 2.586C12.8287 2 11.8853 2 10 2H6" stroke="#007129" stroke-width="2" stroke-linecap="round"/>
<path d="M9.99962 9.99962V10.6663H10.6663V9.99962H9.99962ZM5.13762 4.19495C5.01189 4.07352 4.84348 4.00632 4.66869 4.00784C4.49389 4.00936 4.32668 4.07947 4.20307 4.20307C4.07947 4.32668 4.00936 4.49389 4.00784 4.66869C4.00632 4.84348 4.07352 5.01189 4.19495 5.13762L5.13762 4.19495ZM9.33295 5.33295V9.99962H10.6663V5.33295H9.33295ZM9.99962 9.33295H5.33295V10.6663H9.99962V9.33295ZM10.471 9.52829L5.13762 4.19495L4.19495 5.13762L9.52829 10.471L10.471 9.52829Z" fill="#007129"/>
</svg>
