<svg width="21" height="21" viewBox="0 0 21 21" fill="none" xmlns="http://www.w3.org/2000/svg">
<path d="M7 19V13C7 12.4696 7.21071 11.9609 7.58579 11.5858C7.96086 11.2107 8.46957 11 9 11H10.6" stroke="#1A5C8A" stroke-width="2" stroke-linecap="round" stroke-linejoin="round"/>
<path d="M18 9L10 1L1 10H3V17C3 17.5304 3.21071 18.0391 3.58579 18.4142C3.96086 18.7893 4.46957 19 5 19H9.159M16 18C15.4696 18 14.9609 17.7893 14.5858 17.4142C14.2107 17.0391 14 16.5304 14 16C14 15.4696 14.2107 14.9609 14.5858 14.5858C14.9609 14.2107 15.4696 14 16 14M16 18C16.5304 18 17.0391 17.7893 17.4142 17.4142C17.7893 17.0391 18 16.5304 18 16C18 15.4696 17.7893 14.9609 17.4142 14.5858C17.0391 14.2107 16.5304 14 16 14M16 18V19.5M16 14V12.5M19.032 14.25L17.733 15M14.27 17L12.97 17.75M12.97 14.25L14.27 15M17.733 17L19.033 17.75" stroke="#1A5C8A" stroke-width="2" stroke-linecap="round" stroke-linejoin="round"/>
</svg>
