<svg width="24" height="24" viewBox="0 0 24 24" fill="none" xmlns="http://www.w3.org/2000/svg">
<path fill-rule="evenodd" clip-rule="evenodd" d="M7.84903 2.66406H10.9189C11.0876 2.66406 11.2255 2.80206 11.2255 2.97067V11.2086C11.2255 11.3772 11.0875 11.5152 10.9189 11.5152H7.84903C7.68037 11.5152 7.54242 11.3772 7.54242 11.2086V2.97067C7.54242 2.80202 7.68037 2.66406 7.84903 2.66406Z" fill="#ECBA78"/>
<path fill-rule="evenodd" clip-rule="evenodd" d="M10.2441 2.66406H10.919C11.0876 2.66406 11.2256 2.80202 11.2256 2.97067V11.2086C11.2256 11.3772 11.0876 11.5152 10.919 11.5152H10.2441C10.4127 11.5152 10.5507 11.3772 10.5507 11.2086V2.97063C10.5507 2.80202 10.4127 2.66406 10.2441 2.66406Z" fill="#E3A76F"/>
<path fill-rule="evenodd" clip-rule="evenodd" d="M9.59451 6.0625H12.6644C12.8331 6.0625 12.971 6.20045 12.971 6.36911V14.607C12.971 14.7756 12.833 14.9136 12.6644 14.9136H9.59451C9.42586 14.9136 9.2879 14.7756 9.2879 14.607V6.36911C9.28786 6.20045 9.42586 6.0625 9.59451 6.0625Z" fill="#FFE177"/>
<path fill-rule="evenodd" clip-rule="evenodd" d="M11.9896 6.0625H12.6644C12.8331 6.0625 12.971 6.20045 12.971 6.36911V14.607C12.971 14.7757 12.833 14.9136 12.6644 14.9136H11.9896C12.1582 14.9136 12.2962 14.7757 12.2962 14.607V6.36911C12.2962 6.20045 12.1582 6.0625 11.9896 6.0625Z" fill="#FFD064"/>
<path fill-rule="evenodd" clip-rule="evenodd" d="M1.82254 5.99768L4.48114 4.46272C4.62721 4.37839 4.81569 4.42892 4.89997 4.57498L9.01893 11.7092C9.10325 11.8552 9.05272 12.0437 8.90671 12.128L6.2481 13.663C6.10204 13.7473 5.91355 13.6968 5.82922 13.5508L1.71032 6.41656C1.62599 6.2705 1.67647 6.08201 1.82254 5.99768Z" fill="#8AC9FE"/>
<path fill-rule="evenodd" clip-rule="evenodd" d="M3.89676 4.80012L4.48115 4.46272C4.62721 4.37839 4.8157 4.42892 4.89998 4.57494L9.01893 11.7092C9.10326 11.8552 9.05277 12.0437 8.90671 12.128L8.32232 12.4654C8.46838 12.3811 8.51887 12.1926 8.43454 12.0466L4.31559 4.91234C4.23126 4.76628 4.04277 4.7158 3.89676 4.80012Z" fill="#60B7FF"/>
<path fill-rule="evenodd" clip-rule="evenodd" d="M6.27693 5.09375H9.34687C9.51552 5.09375 9.65348 5.2317 9.65348 5.40036V13.6382C9.65348 13.8069 9.51552 13.9448 9.34687 13.9448H6.27698C6.10832 13.9448 5.97037 13.8069 5.97037 13.6382V5.40036C5.97032 5.2317 6.10832 5.09375 6.27693 5.09375Z" fill="#6CF5C2"/>
<path fill-rule="evenodd" clip-rule="evenodd" d="M8.67206 5.09375H9.34687C9.51553 5.09375 9.65348 5.2317 9.65348 5.40036V13.6383C9.65348 13.8069 9.51553 13.9449 9.34687 13.9449H8.67206C8.84071 13.9449 8.97867 13.8069 8.97867 13.6383V5.40036C8.97867 5.2317 8.84071 5.09375 8.67206 5.09375Z" fill="#00E499"/>
<path fill-rule="evenodd" clip-rule="evenodd" d="M20.4901 8.40625C21.0624 8.40625 21.4453 8.98595 21.2378 9.50772L18.8776 17.1599C18.4809 18.4459 17.3229 19.304 15.9764 19.304H6.47269C5.12616 19.304 3.96807 18.4459 3.57146 17.1599L1.21121 9.50772C1.00379 8.98595 1.38661 8.40625 1.959 8.40625H20.4901Z" fill="#ECBA78"/>
<path fill-rule="evenodd" clip-rule="evenodd" d="M20.49 8.40625C21.0624 8.40625 21.4453 8.98595 21.2378 9.50772L18.8776 17.1599C18.4809 18.4459 17.3229 19.304 15.9763 19.304H6.47268C5.4103 19.304 4.46535 18.7698 3.91898 17.9127C4.39265 18.2139 4.95374 18.3835 5.5521 18.3835H15.0558C16.4023 18.3835 17.5604 17.5253 17.957 16.2393L20.3173 8.58714C20.3411 8.52728 20.357 8.46667 20.3659 8.40625H20.49Z" fill="#E3A76F"/>
<path d="M7.25495 21.1769C8.2881 20.7486 8.77846 19.564 8.35023 18.5308C7.92199 17.4977 6.7373 17.0073 5.70416 17.4355C4.67102 17.8638 4.18065 19.0485 4.60889 20.0816C5.03713 21.1147 6.22181 21.6051 7.25495 21.1769Z" fill="#8D9CA8"/>
<path d="M6.47267 20.1252C6.92792 20.1252 7.29697 19.7561 7.29697 19.3009C7.29697 18.8456 6.92792 18.4766 6.47267 18.4766C6.01743 18.4766 5.64838 18.8456 5.64838 19.3009C5.64838 19.7561 6.01743 20.1252 6.47267 20.1252Z" fill="#9FACBA"/>
<path d="M15.9763 21.3303C17.0945 21.3303 18.0009 20.4239 18.0009 19.3058C18.0009 18.1877 17.0945 17.2812 15.9763 17.2812C14.8582 17.2812 13.9518 18.1877 13.9518 19.3058C13.9518 20.4239 14.8582 21.3303 15.9763 21.3303Z" fill="#8D9CA8"/>
<path d="M15.9764 20.1252C16.4316 20.1252 16.8007 19.7561 16.8007 19.3009C16.8007 18.8456 16.4316 18.4766 15.9764 18.4766C15.5211 18.4766 15.1521 18.8456 15.1521 19.3009C15.1521 19.7561 15.5211 20.1252 15.9764 20.1252Z" fill="#9FACBA"/>
<path fill-rule="evenodd" clip-rule="evenodd" d="M1.20843 8.14844H21.2406C21.4937 8.14844 21.7008 8.35553 21.7008 8.6087V9.44416C21.7008 9.69733 21.4937 9.90442 21.2406 9.90442H1.20843C0.955263 9.90442 0.748169 9.69733 0.748169 9.44416V8.6087C0.748169 8.35553 0.95531 8.14844 1.20843 8.14844Z" fill="#C48958"/>
<path fill-rule="evenodd" clip-rule="evenodd" d="M1.20843 8.14844H21.2406C21.4937 8.14844 21.7009 8.35553 21.7009 8.6087V9.02641H0.748169V8.6087C0.748169 8.35553 0.95531 8.14844 1.20843 8.14844Z" fill="#E3A76F"/>
<circle cx="17.5" cy="7.5" r="4.5" fill="#499F2F"/>
<path d="M19.3333 7.66667H17.6667V9.33333C17.6667 9.51667 17.5167 9.66667 17.3333 9.66667C17.15 9.66667 17 9.51667 17 9.33333V7.66667H15.3333C15.15 7.66667 15 7.51667 15 7.33333C15 7.15 15.15 7 15.3333 7H17V5.33333C17 5.15 17.15 5 17.3333 5C17.5167 5 17.6667 5.15 17.6667 5.33333V7H19.3333C19.5167 7 19.6667 7.15 19.6667 7.33333C19.6667 7.51667 19.5167 7.66667 19.3333 7.66667Z" fill="white"/>
</svg>
