<svg width="22" height="22" viewBox="-10 -10 52 52" fill="none" xmlns="http://www.w3.org/2000/svg">
<g clip-path="url(#clip0_2773_7234)">
<path d="M6.2915 14.4453H25.7082V31.498H6.2915V14.4453Z" fill="#F29F4A" stroke="#3B3C3D" stroke-width="1.5"/>
<path d="M10.916 4.73768C11.6322 3.35143 12.7461 2.21066 14.1149 1.46162C15.4837 0.712576 17.045 0.389383 18.5986 0.533479C20.1523 0.677569 21.6276 1.2824 22.8353 2.2704C24.043 3.2584 24.9282 4.58456 25.3773 6.07889C25.8264 7.57322 25.8188 9.16761 25.3558 10.6577C24.8928 12.1478 23.9955 13.4656 22.7786 14.4423" stroke="#3B3C3D" stroke-width="1.5"/>
<path d="M14.5518 17.5017C15.0409 17.4841 15.5257 17.6018 15.9557 17.8428C16.3858 18.0838 16.7453 18.4392 16.997 18.872C17.2487 19.3048 17.3833 19.7992 17.3868 20.3038C17.3903 20.8084 17.2626 21.3048 17.0171 21.7413C16.7715 22.1778 16.417 22.5385 15.9905 22.7859C15.5639 23.0333 15.0807 23.1584 14.5914 23.1481" stroke="#00FFC1" stroke-width="1.50045"/>
<path d="M13.2778 23.1484H14.6475" stroke="#00FFC1" stroke-width="1.50045"/>
<path d="M13.2778 17.5H19.3651" stroke="#00FFC1" stroke-width="1.50045"/>
<path d="M14.6475 23.1484L17.3869 28.7971" stroke="#00FFC1" stroke-width="1.50045"/>
<path d="M13.2778 20.3281H19.3648" stroke="#00FFC1" stroke-width="1.50045"/>
</g>
<defs>
<clipPath id="clip0_2773_7234">
<rect width="32" height="32" fill="white"/>
</clipPath>
</defs>
</svg>
