<svg width="24" height="24" viewBox="0 0 24 24" fill="none" xmlns="http://www.w3.org/2000/svg">
<g clip-path="url(#clip0_7378_14222)">
<path d="M18.5049 12.6756C18.4361 12.7177 18.3571 12.7399 18.2764 12.7399C18.1957 12.7399 18.1167 12.7177 18.048 12.6756C15.0256 10.8262 13.1524 8.95117 13.1524 5.32347V3.85938H3.04965C2.91629 3.85938 2.8082 3.96747 2.8082 4.10083V17.8623H8.50707C8.74754 17.8623 8.94315 18.058 8.94315 18.2984V22.1138H18.9489C19.0823 22.1138 19.1904 22.0057 19.1904 21.8723V12.2418C18.9691 12.3872 18.7404 12.5315 18.5049 12.6756Z" fill="#DFF6FD"/>
<path d="M4.84121 17.8623V4.10083C4.84121 3.96747 4.94931 3.85938 5.08267 3.85938H3.04965C2.91629 3.85938 2.8082 3.96747 2.8082 4.10083V17.8623H4.84121Z" fill="#C8EFFE"/>
<path d="M13.2766 6.84375H6.78671C6.59251 6.84375 6.43515 7.00116 6.43515 7.19531C6.43515 7.38947 6.59251 7.54688 6.78671 7.54688H13.4346C13.3716 7.32089 13.3188 7.0868 13.2766 6.84375Z" fill="#62DBFB"/>
<path d="M13.8268 8.60156H6.78671C6.59251 8.60156 6.43515 8.75897 6.43515 8.95312C6.43515 9.14728 6.59251 9.30469 6.78671 9.30469H14.2168C14.073 9.07936 13.9428 8.84545 13.8268 8.60156Z" fill="#62DBFB"/>
<path d="M15.0378 10.3516H10.3098C10.1156 10.3516 9.95828 10.509 9.95828 10.7031C9.95828 10.8973 10.1156 11.0547 10.3098 11.0547H15.2118C15.356 11.0547 15.4797 10.9678 15.534 10.8437C15.3599 10.6834 15.1944 10.5197 15.0378 10.3516Z" fill="#62DBFB"/>
<path d="M8.86117 11.0547H6.78671C6.59251 11.0547 6.43515 10.8973 6.43515 10.7031C6.43515 10.509 6.59251 10.3516 6.78671 10.3516H8.86117C9.05537 10.3516 9.21273 10.509 9.21273 10.7031C9.21273 10.8973 9.05537 11.0547 8.86117 11.0547Z" fill="#62DBFB"/>
<path d="M15.2118 12.8125H6.78671C6.59251 12.8125 6.43515 12.6551 6.43515 12.4609C6.43515 12.2668 6.59251 12.1094 6.78671 12.1094H15.2118C15.406 12.1094 15.5634 12.2668 15.5634 12.4609C15.5634 12.6551 15.406 12.8125 15.2118 12.8125Z" fill="#01D0FB"/>
<path d="M15.2118 14.5703H12.9658C12.7716 14.5703 12.6143 14.4129 12.6143 14.2188C12.6143 14.0246 12.7716 13.8672 12.9658 13.8672H15.2118C15.406 13.8672 15.5634 14.0246 15.5634 14.2188C15.5634 14.4129 15.406 14.5703 15.2118 14.5703Z" fill="#01D0FB"/>
<path d="M11.662 13.8672H6.95959C7.15619 14.0758 7.3232 14.3124 7.45431 14.5703H11.662C11.8563 14.5703 12.0136 14.4129 12.0136 14.2188C12.0136 14.0246 11.8562 13.8672 11.662 13.8672Z" fill="#01D0FB"/>
<path d="M15.2119 15.6172H7.76398C7.77415 15.7176 7.7794 15.8195 7.7794 15.9227V16.3203H15.2119C15.4061 16.3203 15.5634 16.1629 15.5634 15.9688C15.5634 15.7746 15.406 15.6172 15.2119 15.6172Z" fill="#01D0FB"/>
<path d="M15.2118 17.375H7.77939V17.8633H8.50708C8.66673 17.8633 8.80628 17.9498 8.88222 18.0781H15.2118C15.406 18.0781 15.5634 17.9207 15.5634 17.7266C15.5634 17.5324 15.406 17.375 15.2118 17.375Z" fill="#01D0FB"/>
<path d="M13.3726 2.39385C13.2089 2.47564 13.1056 2.64285 13.1056 2.8258V5.3256C13.1056 9.02164 15.0695 10.9101 18.0235 12.7177C18.1786 12.8127 18.3742 12.8127 18.5293 12.7177C21.4833 10.9101 23.4472 9.02164 23.4472 5.3256V2.8258C23.4472 2.64285 23.3438 2.47564 23.1802 2.39385L18.4922 0.0509414C18.3564 -0.0169805 18.1964 -0.0169805 18.0605 0.0509414L13.3726 2.39385Z" fill="#FAC600"/>
<path d="M14.8415 4.52533V1.65625L13.3726 2.39036C13.2089 2.47216 13.1056 2.63936 13.1056 2.82231V5.32211C13.1056 9.01816 15.0695 10.9066 18.0235 12.7143C18.1786 12.8092 18.3742 12.8092 18.5292 12.7143C18.9595 12.451 19.3684 12.186 19.7537 11.914C16.8029 10.1074 14.8415 8.21898 14.8415 4.52533Z" fill="#E8B800"/>
<path d="M18.2546 9.12134C20.0788 9.12134 21.5575 7.6426 21.5575 5.81848C21.5575 3.99437 20.0788 2.51562 18.2546 2.51562C16.4305 2.51562 14.9518 3.99437 14.9518 5.81848C14.9518 7.6426 16.4305 9.12134 18.2546 9.12134Z" fill="#4FC123"/>
<path d="M16.3525 5.81844C16.3525 4.23472 17.4674 2.912 18.955 2.59072C18.7292 2.54197 18.495 2.51562 18.2546 2.51562C16.4305 2.51562 14.9518 3.99434 14.9518 5.81848C14.9518 7.64262 16.4305 9.12134 18.2546 9.12134C18.495 9.12134 18.7292 9.095 18.955 9.04625C17.4674 8.72487 16.3525 7.40216 16.3525 5.81844Z" fill="#47A920"/>
<path d="M18.0839 7.12068C17.9939 7.12068 17.9039 7.08636 17.8352 7.01769L16.7493 5.93179C16.612 5.79449 16.612 5.57188 16.7493 5.43463C16.8867 5.29733 17.1092 5.29733 17.2465 5.43463L18.0838 6.27191L19.5183 4.83735C19.6557 4.70005 19.8782 4.70005 20.0155 4.83735C20.1528 4.97464 20.1528 5.19725 20.0155 5.3345L18.3324 7.01764C18.2638 7.08636 18.1738 7.12068 18.0839 7.12068Z" fill="white"/>
<path d="M3.16529 17.8678V15.9299C3.16529 15.0443 3.8858 14.3237 4.77146 14.3237C5.65711 14.3237 6.37763 15.0442 6.37763 15.9299V17.8678H7.8263V15.9298C7.8263 14.2427 6.45863 12.875 4.77146 12.875C3.08429 12.875 1.71661 14.2427 1.71661 15.9298V17.8678H3.16529Z" fill="#3675BB"/>
<path d="M2.53521 17.8678V15.9298C2.53521 14.3816 3.68726 13.1032 5.18074 12.9031C5.04677 12.8851 4.91032 12.875 4.77143 12.875C3.0843 12.875 1.71658 14.2427 1.71658 15.9298V17.8678L2.53521 17.8678Z" fill="#2263AA"/>
<path d="M8.50712 24.0027H1.03576C0.769044 24.0027 0.552856 23.7866 0.552856 23.5198V18.3032C0.552856 18.0365 0.769044 17.8203 1.03576 17.8203H8.50712C8.77384 17.8203 8.99003 18.0365 8.99003 18.3032V23.5198C8.99003 23.7866 8.77379 24.0027 8.50712 24.0027Z" fill="#FAC600"/>
<path d="M2.58353 23.5198V18.3032C2.58353 18.0365 2.79972 17.8203 3.06643 17.8203H1.03576C0.769044 17.8203 0.552856 18.0365 0.552856 18.3032V23.5198C0.552856 23.7866 0.769044 24.0027 1.03576 24.0027H3.06643C2.79972 24.0027 2.58353 23.7866 2.58353 23.5198Z" fill="#E8B800"/>
</g>
<defs>
<clipPath id="clip0_7378_14222">
<rect width="24" height="24" fill="white"/>
</clipPath>
</defs>
</svg>
