<svg width="24" height="24" viewBox="0 0 24 24" fill="none" xmlns="http://www.w3.org/2000/svg">
<g clip-path="url(#clip0_7437_11348)">
<path d="M24 13.4062H13.4033V24.0029H24V13.4062Z" fill="#49A4FF"/>
<path d="M23.3895 3.15564C22.4462 1.28558 20.5074 0 18.2737 0C15.1163 0 12.5477 2.56879 12.5477 5.72626C12.5477 8.88373 15.1163 11.4523 18.2737 11.4523C20.5074 11.4523 22.4462 10.1667 23.3895 8.29669C23.7797 7.52325 24 6.65002 24 5.72607C24 4.80231 23.7797 3.92908 23.3895 3.15564Z" fill="#F76B1C"/>
<path d="M6.1571 0L0 10.8428H12.314L6.1571 0Z" fill="#2D5871"/>
<path d="M0 18.8318L2.98352 23.9995H8.95056L11.9341 18.8318L8.95056 13.6641H2.98352L0 18.8318Z" fill="#499F2F"/>
</g>
<defs>
<clipPath id="clip0_7437_11348">
<rect width="24" height="24" fill="white"/>
</clipPath>
</defs>
</svg>
