<svg width="24" height="24" viewBox="0 0 24 24" fill="none" xmlns="http://www.w3.org/2000/svg">
<path d="M8.06297 21.5339H10.4922V16.7303H9.40083C8.98627 16.7303 8.62871 16.4527 8.52586 16.0511C8.43286 15.6879 8.57218 15.3138 8.86861 15.0983V13.2995L9.87933 13.1437V14.5352L10.903 13.9742V12.9836L12.0419 12.8077V13.3503L12.8476 12.9089V0.578125L8.06297 2.62342V21.5339ZM12.042 11.5745L10.9031 11.7888V9.71523L12.042 9.43422V11.5745ZM12.042 8.20103L10.9031 8.52048V6.44528L12.042 6.05908V8.20103ZM12.042 2.81978V4.82758L10.9031 5.25212L10.9028 3.30855L12.042 2.81978ZM8.86866 4.18019L9.87999 3.74669L9.87966 5.63406L8.86861 6.00902L8.86866 4.18019ZM8.86866 7.13519L9.87971 6.79276V8.80961L8.86866 9.09283V7.13523V7.13519ZM8.86866 10.2159L9.87971 9.96667V11.9835L8.86866 12.1735V10.2159V10.2159ZM18.476 2.74366V12.6448L16.6011 11.6176C16.1581 11.3749 15.6473 11.3749 15.2043 11.6176L13.4101 12.6007V0.578125L18.476 2.74366ZM2.79099 8.35839V21.5339H7.50047V6.3452L2.79099 8.35839ZM4.80282 18.3232H3.98068V16.7457L4.803 16.6654L4.80282 18.3232ZM4.80329 15.7222L3.98068 15.8349V14.2514L4.80329 14.0824V15.7222ZM4.80329 13.1412L3.98068 13.3435V11.7601L4.80329 11.5015V13.1412ZM4.80357 10.5593L3.98072 10.8502V9.37131L4.80385 9.02462L4.80357 10.5593ZM6.59213 18.3232H5.64474V16.5828L6.59213 16.4902V18.3232ZM6.59213 15.4753L5.64474 15.6058V13.91L6.59213 13.7145V15.4753ZM6.59213 12.6996L5.64474 12.933V11.2361L6.59213 10.9367V12.6996ZM6.59213 9.92284L5.64446 10.2602V8.67109L6.59213 8.26952V9.92284ZM22.5683 15.5284L16.3309 12.1109C16.0563 11.9605 15.7493 11.9605 15.4747 12.1109L9.23719 15.5284C9.09891 15.6042 9.03174 15.7589 9.07088 15.9117C9.10997 16.0645 9.24324 16.1679 9.40093 16.1679H11.0548V21.5339H12.3194V18.1866H11.9681C11.8127 18.1866 11.6868 18.0607 11.6868 17.9054C11.6868 17.75 11.8127 17.6241 11.9681 17.6241H15.0897C15.2451 17.6241 15.371 17.75 15.371 17.9054C15.371 18.0607 15.245 18.1866 15.0897 18.1866H14.7384V21.5339H20.7508V16.1679H22.4047C22.5624 16.1679 22.6956 16.0645 22.7347 15.9117C22.7738 15.7589 22.7067 15.6042 22.5683 15.5284ZM15.0223 14.3464C15.0223 13.8602 15.4165 13.4659 15.9028 13.4659C16.3891 13.4659 16.7833 13.8602 16.7833 14.3464C16.7833 14.8327 16.3891 15.2269 15.9028 15.2269C15.4165 15.2269 15.0223 14.8327 15.0223 14.3464ZM17.6837 17.5281H16.4437V16.1679H17.6837V17.5281ZM19.4862 17.5281H18.2462V16.1679H19.4862V17.5281ZM1.25433 23.0748V22.4482C1.25433 22.2547 1.41268 22.0964 1.60618 22.0964H21.9712C22.1647 22.0964 22.3231 22.2547 22.3231 22.4482V23.0748C22.3231 23.2683 22.1647 23.4267 21.9712 23.4267H1.60618C1.41268 23.4267 1.25433 23.2683 1.25433 23.0748Z" fill="url(#paint0_linear_7374_13454)"/>
<defs>
<linearGradient id="paint0_linear_7374_13454" x1="12" y1="23.4267" x2="12" y2="0.578125" gradientUnits="userSpaceOnUse">
<stop stop-color="#1751FF"/>
<stop offset="1" stop-color="#5CC5FF"/>
</linearGradient>
</defs>
</svg>
