<svg width="24" height="24" viewBox="0 0 24 24" fill="none" xmlns="http://www.w3.org/2000/svg">
<path d="M7.87303 7.32869L5.43239 7.33212L5.42569 3.21927C5.42555 3.10419 5.51869 3.01081 5.63372 3.01063L7.65769 3.00781C7.77276 3.00767 7.86614 3.10081 7.86633 3.21584L7.87303 7.32869Z" fill="#FFB125"/>
<path d="M7.86637 3.21584C7.86623 3.10077 7.7728 3.00763 7.65773 3.00781L6.45103 3.0095C6.55804 3.01813 6.64256 3.10662 6.6427 3.21584L6.6494 7.32865L5.43243 7.33034V7.33202L7.87307 7.3286L7.86637 3.21584Z" fill="#FF901D"/>
<path d="M11.909 2.92969L5.37122 9.08844L5.38429 18.4512C5.38462 18.6982 5.58515 18.8981 5.83214 18.8978L18.0303 18.8808C18.2773 18.8804 18.4772 18.6799 18.4769 18.4329L18.4638 9.07016L11.909 2.92969Z" fill="#E1EFFB"/>
<path d="M18.4638 9.07016L11.9089 2.92969L10.8309 3.94523L16.3017 9.07011L16.3148 18.4329C16.3151 18.6798 16.1152 18.8803 15.8682 18.8807H18.0303C18.2773 18.8803 18.4772 18.6798 18.4769 18.4329L18.4638 9.07016Z" fill="#CCDFED"/>
<path d="M20.77 11.1385C20.5493 11.1388 20.3281 11.0583 20.1543 10.8955L11.909 3.17161L3.68545 10.9185C3.32405 11.259 2.75498 11.242 2.41463 10.8806C2.07413 10.5192 2.0911 9.95024 2.45255 9.60978L11.2909 1.28372C11.6364 0.958175 12.1755 0.957425 12.522 1.28199L21.3835 9.5833C21.7459 9.92272 21.7645 10.4917 21.425 10.854C21.2483 11.0426 21.0095 11.1381 20.77 11.1385Z" fill="#FF4C4C"/>
<path d="M21.425 9.76841C21.2483 9.95694 21.0095 10.0525 20.7699 10.0528C20.5493 10.0531 20.328 9.97264 20.1542 9.80984L11.909 2.08594L3.68545 9.83281C3.32404 10.1733 2.75498 10.1563 2.41462 9.79489C2.39184 9.77075 2.37098 9.74553 2.35139 9.71966C2.09235 10.063 2.1097 10.5527 2.41462 10.8762C2.75498 11.2377 3.32404 11.2547 3.68545 10.9142L11.909 3.16729L20.1542 10.8912C20.328 11.054 20.5493 11.1344 20.7699 11.1342C21.0095 11.1338 21.2483 11.0383 21.425 10.8498C21.7283 10.526 21.7449 10.0376 21.4866 9.695C21.4675 9.72022 21.4471 9.74478 21.425 9.76841Z" fill="#F33939"/>
<path d="M13.6001 10.6484L10.2393 10.6531C10.0816 10.6534 9.95398 10.7814 9.95416 10.9391L9.96527 18.8921L13.8972 18.8867L13.8861 10.9336C13.8858 10.7758 13.7578 10.6482 13.6001 10.6484Z" fill="#2D5871"/>
<path d="M13.886 10.9336C13.8858 10.7759 13.7578 10.6482 13.6001 10.6484L11.7013 10.6511C11.8171 10.6873 11.9013 10.7954 11.9015 10.9232L11.9126 18.8894L13.8971 18.8867L13.886 10.9336Z" fill="#1D4859"/>
<path d="M22.1758 14.8711L17.2222 18.1863L15.7458 18.1035L15.688 17.5224C15.602 16.6574 14.936 15.9632 14.0754 15.8414L10.1199 15.3859C9.2074 15.2568 8.32887 14.9511 7.53345 14.4857C6.44745 13.8505 5.21197 13.5156 3.9538 13.5156L1.10193 13.5156L1.10193 20.0253L8.63923 22.8796C8.92409 22.96 9.22324 22.9841 9.5156 22.9379C9.51733 22.9376 9.51912 22.9373 9.52085 22.9371L17.1091 21.8432C17.6937 21.7499 18.2433 21.5037 18.7021 21.1295L23.6065 16.7185C24.0466 16.3277 24.1282 15.6708 23.7971 15.1842C23.4347 14.6518 22.7104 14.5119 22.1758 14.8711Z" fill="#FED9A8"/>
<path d="M23.8617 15.2969L19.0141 19.3774C18.5553 19.7516 17.7927 19.9978 17.2081 20.0911L9.52087 20.6407C9.51913 20.6409 9.51735 20.6412 9.51562 20.6415C9.22326 20.6877 8.92406 20.6636 8.63924 20.5832L1.1019 17.7289L1.1019 20.0299L8.6392 22.8841C8.7816 22.9244 8.92762 22.9505 9.07457 22.9608C9.11132 22.9634 9.14812 22.965 9.18491 22.9655C9.29535 22.9672 9.40593 22.9598 9.51557 22.9425C9.5173 22.9422 9.51908 22.9419 9.52082 22.9416L17.1091 21.8478C17.2918 21.8186 17.4711 21.7745 17.6452 21.7163C17.68 21.7046 17.7146 21.6924 17.7491 21.6796C17.9211 21.6157 18.0876 21.5378 18.247 21.4466C18.2789 21.4283 18.3105 21.4096 18.3418 21.3903C18.4669 21.3131 18.5873 21.2276 18.702 21.134L23.6064 16.723C24.0148 16.3605 24.1139 15.7691 23.8617 15.2969Z" fill="#F4C892"/>
<path d="M16.3207 18.1441L7.97072 17.8099C7.93087 17.8083 7.89206 17.7966 7.85803 17.7758L7.4145 17.5057C7.19878 17.3743 7.31442 17.0416 7.56511 17.0723L16.3207 18.1441Z" fill="#F4C892"/>
<path d="M2.06306 22.2431H0.934686C0.418452 22.2431 0 21.8246 0 21.3084L0 12.9581C0 12.4419 0.418499 12.0234 0.934686 12.0234H2.06306C2.57929 12.0234 2.99774 12.4419 2.99774 12.9581L2.99774 21.3084C2.99774 21.8246 2.57929 22.2431 2.06306 22.2431Z" fill="#2D5871"/>
<path d="M2.06307 12.0234H0.9347C0.871232 12.0234 0.809357 12.0299 0.749451 12.042C1.1769 12.1279 1.49889 12.5054 1.49889 12.9581L1.49889 21.3084C1.49889 21.7611 1.1769 22.1386 0.749451 22.2245C0.809357 22.2366 0.871279 22.2431 0.9347 22.2431H2.06307C2.57931 22.2431 2.99776 21.8246 2.99776 21.3084L2.99776 12.9581C2.99776 12.4419 2.57931 12.0234 2.06307 12.0234Z" fill="#1D4859"/>
</svg>
