<svg width="24" height="24" viewBox="0 0 24 24" fill="none" xmlns="http://www.w3.org/2000/svg">
<g clip-path="url(#clip0_7374_13417)">
<path d="M16.854 14.1385H13.2759C13.8873 12.5733 13.7714 11.0667 13.3083 9.54878C13.1944 9.17533 12.8472 8.92188 12.4567 8.92188C11.9463 8.92188 11.54 9.34989 11.5665 9.8597C11.7195 12.8058 9.53286 12.991 7.80734 14.9626V21.3791C8.54103 21.4226 9.14469 21.5153 9.71516 21.9527C9.93144 22.1185 10.1952 22.2108 10.4677 22.2108H16.854V14.1385Z" fill="#FFCEBF"/>
<path d="M9.21351 20.7402V15.2352C9.21351 15.0528 9.28528 14.8783 9.41114 14.7463C11.1011 12.9731 13.1199 12.6944 12.9727 9.85971C12.9611 9.63569 13.033 9.42748 13.1606 9.26444C12.9858 9.04048 12.7075 8.9073 12.4088 8.92315C11.9176 8.94921 11.5429 9.38248 11.5673 9.87373C11.7127 12.8064 9.5302 12.9941 7.8074 14.9626V21.3791C8.54109 21.4227 9.14475 21.5153 9.71522 21.9527C9.9315 22.1186 10.1953 22.2108 10.4678 22.2108H11.874C11.6014 22.2108 11.3377 22.1185 11.1214 21.9527C10.716 21.6418 10.2937 21.5051 9.82008 21.4364C9.47268 21.386 9.21351 21.0911 9.21351 20.7402Z" fill="#FFB09E"/>
<path d="M4.61014 13.4141H7.80664V22.212H4.61014V13.4141Z" fill="#F25E6C"/>
<path d="M6.01629 13.4141H4.61014V22.212L6.01629 22.2112V13.4141Z" fill="#E8465E"/>
<path d="M12.2905 2.02667L12.7354 2.92826C12.7832 3.02511 12.8756 3.09223 12.9824 3.10775L13.9774 3.25231C14.2465 3.2914 14.354 3.62215 14.1592 3.81195L13.4393 4.51372C13.3619 4.58909 13.3267 4.6977 13.3449 4.80411L13.5149 5.79504C13.5609 6.06307 13.2795 6.26745 13.0388 6.14093L12.1489 5.67307C12.0533 5.62282 11.9391 5.62282 11.8436 5.67307L10.9536 6.14093C10.7129 6.2675 10.4316 6.06307 10.4776 5.79504L10.6475 4.80411C10.6658 4.69765 10.6305 4.58909 10.5532 4.51372L9.83323 3.81195C9.63851 3.62215 9.74595 3.2914 10.0151 3.25231L11.01 3.10775C11.1169 3.09223 11.2093 3.02511 11.2571 2.92826L11.702 2.02667C11.8224 1.78278 12.1701 1.78278 12.2905 2.02667Z" fill="#FED44C"/>
<path d="M13.345 4.79792L13.5149 5.78886C13.5609 6.05689 13.2796 6.26127 13.0389 6.13475L12.149 5.66689C12.0534 5.61664 11.9392 5.61664 11.8436 5.66689L10.9537 6.13475C10.713 6.26131 10.4317 6.05689 10.4776 5.78886L10.6476 4.79792C10.6658 4.69147 10.6306 4.58291 10.5532 4.50753L9.83329 3.80577C9.63857 3.61597 9.74601 3.28522 10.0151 3.24612L11.0101 3.10156C11.6269 4.16492 11.9963 4.74402 13.345 4.79792Z" fill="#F2B84C"/>
<path d="M7.11618 3.90163L7.56112 4.80323C7.60893 4.90007 7.70127 4.9672 7.80815 4.98271L8.80312 5.12727C9.07223 5.16637 9.17971 5.49712 8.98494 5.68691L8.26499 6.38868C8.18765 6.46406 8.1524 6.57266 8.17063 6.67907L8.3406 7.67001C8.38659 7.93804 8.10524 8.14241 7.86454 8.0159L6.97462 7.54804C6.87904 7.49779 6.76485 7.49779 6.66927 7.54804L5.77935 8.0159C5.53865 8.14246 5.2573 7.93804 5.30329 7.67001L5.47326 6.67907C5.49149 6.57262 5.45624 6.46406 5.3789 6.38868L4.65895 5.68691C4.46423 5.49712 4.57166 5.16637 4.84077 5.12727L5.83574 4.98271C5.94262 4.9672 6.03501 4.90007 6.08277 4.80323L6.52771 3.90163C6.64809 3.65779 6.99585 3.65779 7.11618 3.90163Z" fill="#FED44C"/>
<path d="M8.17063 6.67292L8.3406 7.66386C8.38659 7.93189 8.10524 8.13627 7.86454 8.00975L6.97462 7.54189C6.87904 7.49164 6.76485 7.49164 6.66927 7.54189L5.77935 8.00975C5.53865 8.13631 5.2573 7.93189 5.30329 7.66386L5.47326 6.67292C5.49149 6.56647 5.45624 6.45791 5.3789 6.38253L4.65895 5.68077C4.46423 5.49097 4.57166 5.16022 4.84077 5.12112L5.83574 4.97656C6.32484 6.17328 6.90051 6.51233 8.17063 6.67292Z" fill="#F2B84C"/>
<path d="M2.9046 8.12038L3.34954 9.02198C3.39735 9.11882 3.48969 9.18595 3.59657 9.20146L4.59154 9.34602C4.86065 9.38512 4.96813 9.71587 4.77337 9.90566L4.05341 10.6074C3.97607 10.6828 3.94082 10.7914 3.95905 10.8978L4.12902 11.8888C4.17501 12.1568 3.89366 12.3612 3.65296 12.2346L2.76304 11.7668C2.66746 11.7165 2.55327 11.7165 2.45769 11.7668L1.56777 12.2346C1.32707 12.3612 1.04573 12.1568 1.09171 11.8888L1.26168 10.8978C1.27991 10.7914 1.24466 10.6828 1.16732 10.6074L0.447367 9.90566C0.252648 9.71587 0.360086 9.38512 0.629195 9.34602L1.62416 9.20146C1.73104 9.18595 1.82343 9.11882 1.87119 9.02198L2.31613 8.12038C2.43651 7.87654 2.78427 7.87654 2.9046 8.12038Z" fill="#FED44C"/>
<path d="M3.95905 10.8917L4.12902 11.8827C4.17501 12.1507 3.89366 12.3551 3.65296 12.2285L2.76304 11.7607C2.66746 11.7104 2.55327 11.7104 2.4577 11.7607L1.56777 12.2285C1.32707 12.3551 1.04573 12.1507 1.09171 11.8827L1.26168 10.8917C1.27991 10.7853 1.24466 10.6767 1.16732 10.6013L0.447367 9.89952C0.252648 9.70972 0.360086 9.37897 0.629195 9.33987L1.62416 9.19531C1.99701 10.3212 2.70009 10.8055 3.95905 10.8917Z" fill="#F2B84C"/>
<path d="M21.6757 8.12038L22.1207 9.02198C22.1685 9.11882 22.2608 9.18595 22.3677 9.20146L23.3627 9.34602C23.6318 9.38512 23.7393 9.71587 23.5445 9.90566L22.8246 10.6074C22.7472 10.6828 22.712 10.7914 22.7302 10.8978L22.9002 11.8888C22.9462 12.1568 22.6648 12.3612 22.4241 12.2346L21.5342 11.7668C21.4386 11.7165 21.3244 11.7165 21.2288 11.7668L20.3389 12.2346C20.0982 12.3612 19.8169 12.1568 19.8629 11.8888L20.0328 10.8978C20.0511 10.7914 20.0158 10.6828 19.9385 10.6074L19.2185 9.90566C19.0238 9.71587 19.1312 9.38512 19.4003 9.34602L20.3953 9.20146C20.5022 9.18595 20.5946 9.11882 20.6423 9.02198L21.0873 8.12038C21.2077 7.87654 21.5554 7.87654 21.6757 8.12038Z" fill="#FED44C"/>
<path d="M22.7302 10.8917L22.9002 11.8826C22.9462 12.1506 22.6648 12.355 22.4241 12.2285L21.5342 11.7606C21.4386 11.7104 21.3244 11.7104 21.2288 11.7606L20.3389 12.2285C20.0982 12.3551 19.8169 12.1506 19.8629 11.8826L20.0328 10.8917C20.0511 10.7852 20.0158 10.6767 19.9385 10.6013L19.2185 9.89952C19.0238 9.70972 19.1312 9.37897 19.4003 9.33987L20.3953 9.19531C20.855 10.2274 21.4598 10.7899 22.7302 10.8917Z" fill="#F2B84C"/>
<path d="M17.4786 3.90163L17.9236 4.80323C17.9714 4.90007 18.0637 4.9672 18.1706 4.98271L19.1656 5.12727C19.4347 5.16637 19.5422 5.49712 19.3474 5.68691L18.6274 6.38868C18.5501 6.46406 18.5149 6.57266 18.5331 6.67907L18.7031 7.67001C18.749 7.93804 18.4677 8.14241 18.227 8.0159L17.3371 7.54804C17.2415 7.49779 17.1273 7.49779 17.0317 7.54804L16.1418 8.0159C15.9011 8.14246 15.6198 7.93804 15.6657 7.67001L15.8357 6.67907C15.8539 6.57262 15.8187 6.46406 15.7414 6.38868L15.0214 5.68691C14.8267 5.49712 14.9341 5.16637 15.2032 5.12727L16.1982 4.98271C16.3051 4.9672 16.3975 4.90007 16.4452 4.80323L16.8902 3.90163C17.0105 3.65779 17.3583 3.65779 17.4786 3.90163Z" fill="#FED44C"/>
<path d="M18.5331 6.67292L18.7031 7.66386C18.749 7.93189 18.4677 8.13627 18.227 8.00975L17.3371 7.54189C17.2415 7.49164 17.1273 7.49164 17.0317 7.54189L16.1418 8.00975C15.9011 8.13631 15.6198 7.93189 15.6657 7.66386L15.8357 6.67292C15.8539 6.56647 15.8187 6.45791 15.7414 6.38253L15.0214 5.68077C14.8267 5.49097 14.9341 5.16022 15.2032 5.12112L16.1982 4.97656C16.815 6.17328 17.1844 6.60237 18.5331 6.67292Z" fill="#F2B84C"/>
<path d="M17.9017 16.1587H15.8064C15.2491 16.1587 14.7973 15.7069 14.7973 15.1497C14.7973 14.5924 15.2491 14.1406 15.8064 14.1406H17.9017C18.459 14.1406 18.9107 14.5924 18.9107 15.1497C18.9107 15.7069 18.4589 16.1587 17.9017 16.1587Z" fill="#FFCEBF"/>
<path d="M16.2035 15.1497C16.2035 14.5924 16.6553 14.1406 17.2125 14.1406H15.8064C15.2491 14.1406 14.7973 14.5924 14.7973 15.1497C14.7973 15.707 15.2491 16.1587 15.8064 16.1587H17.2125C16.6552 16.1587 16.2035 15.707 16.2035 15.1497Z" fill="#FFB09E"/>
<path d="M17.9017 20.1978H15.8064C15.2491 20.1978 14.7973 19.746 14.7973 19.1887C14.7973 18.6314 15.2491 18.1797 15.8064 18.1797H17.9017C18.459 18.1797 18.9107 18.6315 18.9107 19.1887C18.9107 19.746 18.4589 20.1978 17.9017 20.1978Z" fill="#FFCEBF"/>
<path d="M16.2035 19.1887C16.2035 18.6314 16.6553 18.1797 17.2125 18.1797H15.8064C15.2491 18.1797 14.7973 18.6315 14.7973 19.1887C14.7973 19.746 15.2491 20.1978 15.8064 20.1978H17.2125C16.6552 20.1978 16.2035 19.746 16.2035 19.1887Z" fill="#FFB09E"/>
<path d="M17.4329 22.2134H16.2751C15.7178 22.2134 15.2661 21.7616 15.2661 21.2043C15.2661 20.647 15.7178 20.1953 16.2751 20.1953H17.4329C17.9902 20.1953 18.442 20.6471 18.442 21.2043C18.442 21.7616 17.9902 22.2134 17.4329 22.2134Z" fill="#FFCEBF"/>
<path d="M16.6722 21.2044C16.6722 20.6891 17.0584 20.2641 17.5571 20.2029C17.5164 20.1979 17.475 20.1953 17.433 20.1953H16.2751C15.7178 20.1953 15.2661 20.6471 15.2661 21.2043C15.2661 21.7616 15.7179 22.2134 16.2751 22.2134H17.433C17.475 22.2134 17.5164 22.2108 17.5571 22.2058C17.0584 22.1447 16.6722 21.7196 16.6722 21.2044Z" fill="#FFB09E"/>
<path d="M18.3704 18.1743H16.2751C15.7178 18.1743 15.2661 17.7225 15.2661 17.1653C15.2661 16.608 15.7178 16.1562 16.2751 16.1562H18.3704C18.9277 16.1562 19.3794 16.608 19.3794 17.1653C19.3794 17.7225 18.9277 18.1743 18.3704 18.1743Z" fill="#FFCEBF"/>
<path d="M16.6722 17.1653C16.6722 16.608 17.124 16.1562 17.6812 16.1562H16.2751C15.7178 16.1562 15.2661 16.608 15.2661 17.1653C15.2661 17.7226 15.7178 18.1743 16.2751 18.1743H17.6812C17.1239 18.1744 16.6722 17.7226 16.6722 17.1653Z" fill="#FFB09E"/>
<path d="M12.4806 21.8593H10.4679C10.2763 21.8593 10.085 21.7934 9.92895 21.6736C9.3575 21.2355 8.74906 21.1069 8.15891 21.0527V15.097C8.66384 14.5427 9.20502 14.1387 9.72936 13.7474C10.9131 12.8639 12.0312 12.0294 11.9177 9.84142C11.9347 9.49769 12.1144 9.30836 12.4567 9.27339C12.6923 9.27339 12.9042 9.42888 12.9722 9.65163C13.1097 10.1026 13.2065 10.5201 13.2678 10.9278C13.2966 11.1198 13.4757 11.2522 13.6677 11.2232C13.8597 11.1943 13.9919 11.0153 13.9631 10.8233C13.8966 10.3811 13.7924 9.93077 13.6447 9.44655C13.4849 8.92244 13.0076 8.57031 12.4567 8.57031C11.6685 8.65075 11.2547 9.08669 11.2155 9.87803C11.3096 11.6906 10.4704 12.317 9.3088 13.1839C8.94523 13.4553 8.54994 13.7504 8.1583 14.1066V13.4114C8.1583 13.203 7.98612 13.0878 7.80659 13.0598L4.60986 13.0612C4.4158 13.0613 4.25848 13.2187 4.25848 13.4128V16.9058C4.25848 17.0999 4.41589 17.2573 4.61005 17.2573C4.8042 17.2573 4.96161 17.0999 4.96161 16.9058V13.7642L7.45527 13.7631V21.8577L4.96161 21.8591V18.4381C4.96161 18.2439 4.8042 18.0865 4.61005 18.0865C4.41589 18.0865 4.25848 18.2439 4.25848 18.4381V22.2109C4.25848 22.4193 4.4307 22.5344 4.61023 22.5625L7.80697 22.5606C8.00103 22.5605 8.1583 22.4031 8.1583 22.209V21.7594C8.70566 21.8158 9.10995 21.9317 9.50094 22.2314C9.77891 22.4449 10.1223 22.5624 10.4678 22.5624H12.4805C12.6747 22.5624 12.8321 22.405 12.8321 22.2108C12.8321 22.0167 12.6748 21.8593 12.4806 21.8593Z" fill="black"/>
<path d="M6.37082 16.3964V15.5C6.37082 15.3058 6.21341 15.1484 6.01926 15.1484C5.8251 15.1484 5.66769 15.3058 5.66769 15.5V16.3964C5.66769 16.5906 5.8251 16.748 6.01926 16.748C6.21341 16.748 6.37082 16.5906 6.37082 16.3964Z" fill="black"/>
<path d="M18.9947 15.9632C19.6563 15.072 18.9897 13.7933 17.9016 13.7933L13.7699 13.7931C13.9043 13.3512 13.9904 12.8986 14.0268 12.4419C14.0421 12.2484 13.8977 12.079 13.7042 12.0636C13.5103 12.0483 13.3412 12.1927 13.3258 12.3862C13.2814 12.9453 13.1592 13.4755 12.9524 14.0067C12.9343 14.0491 12.9243 14.0958 12.9243 14.1448V15.0031C12.9243 15.9773 12.1316 16.7699 11.1574 16.7699C10.9633 16.7699 10.8059 16.9273 10.8059 17.1215C10.8059 17.3156 10.9633 17.473 11.1574 17.473C12.5194 17.473 13.6273 16.3651 13.6273 15.0031V14.4962H14.6155C14.2641 15.1299 14.5389 16.0291 15.182 16.3626C14.8253 16.9022 14.8253 17.4418 15.182 17.9814C14.2188 18.4809 14.2188 19.8993 15.182 20.3988C14.8616 20.8782 14.829 21.3671 15.0841 21.8656H14.0129C13.8187 21.8656 13.6613 22.0231 13.6613 22.2172C13.6613 22.4114 13.8187 22.5688 14.0129 22.5688L17.4329 22.5689C18.521 22.5689 19.1876 21.2901 18.526 20.3988C19.2311 20.0332 19.4743 19.0268 18.9947 18.3807C19.9579 17.8811 19.9579 16.4627 18.9947 15.9632ZM15.1488 15.1538C15.1488 14.7913 15.4438 14.4963 15.8064 14.4963H17.9017C18.2642 14.4963 18.5592 14.7913 18.5592 15.1538C18.5592 15.5164 18.2642 15.8114 17.9017 15.8114H15.8064C15.4438 15.8114 15.1488 15.5164 15.1488 15.1538ZM17.433 21.8656H16.2823C16.2798 21.8656 16.2775 21.8656 16.275 21.8656H16.2647C15.9069 21.8599 15.6176 21.5672 15.6176 21.2081C15.6176 20.8456 15.9126 20.5506 16.2751 20.5506H17.433C17.7955 20.5506 18.0905 20.8456 18.0905 21.2081C18.0905 21.5707 17.7955 21.8656 17.433 21.8656ZM17.9016 19.8475H15.8063C15.4438 19.8475 15.1488 19.5526 15.1488 19.19C15.1488 18.8274 15.4438 18.5325 15.8063 18.5325H17.9016C18.2642 18.5325 18.5591 18.8274 18.5591 19.19C18.5591 19.5526 18.2642 19.8475 17.9016 19.8475ZM18.3704 17.8294H16.2751C15.9125 17.8294 15.6175 17.5345 15.6175 17.172C15.6175 16.8094 15.9125 16.5144 16.2751 16.5144H18.3704C18.7329 16.5144 19.0279 16.8094 19.0279 17.172C19.0279 17.5345 18.7329 17.8294 18.3704 17.8294Z" fill="black"/>
<path d="M9.58788 4.06129L10.299 4.75448L10.1311 5.73328C10.0565 6.36173 10.5194 6.69571 11.1173 6.44976L11.9962 5.98762L12.8752 6.44976C13.3187 6.68282 13.9609 6.31345 13.8614 5.73328L13.6935 4.75443L14.4046 4.06129C14.8376 3.61373 14.6911 3.0044 14.0279 2.90203L13.0452 2.7592L12.6057 1.86867C12.3533 1.34039 11.6926 1.24898 11.3868 1.86867L10.9473 2.7592L9.96452 2.90203C9.32416 3.03956 9.1601 3.59034 9.58788 4.06129ZM11.0606 3.45328C11.282 3.42112 11.4733 3.28214 11.5723 3.08147L11.9963 2.22248L12.4202 3.08147C12.5192 3.28214 12.7106 3.42112 12.932 3.45328L13.8799 3.59104L13.194 4.25967C13.0338 4.41586 12.9607 4.64076 12.9985 4.86126L13.1604 5.80537L12.3125 5.35964C12.1017 5.25553 11.8909 5.25553 11.6801 5.35964L10.8322 5.80537L10.9941 4.86122C11.032 4.64067 10.9588 4.41581 10.7987 4.25967L10.1127 3.59104L11.0606 3.45328Z" fill="black"/>
<path d="M4.41359 5.93786L5.12469 6.631L4.95683 7.6098C4.85731 8.18988 5.49945 8.55944 5.94299 8.32633L6.82194 7.86419L7.70094 8.32633C8.25777 8.57472 8.73823 8.22667 8.68709 7.60985L8.51924 6.63109L9.23038 5.93791C9.64058 5.4963 9.49995 4.92794 8.85369 4.77864L7.87095 4.63581L7.43145 3.74528C7.08598 3.1526 6.54111 3.20533 6.21252 3.74528L5.77302 4.63581L4.79028 4.77864C4.13881 4.91622 3.98061 5.47281 4.41359 5.93786ZM5.88636 5.3298C6.10775 5.2976 6.299 5.15861 6.39805 4.95803L6.82199 4.09905L7.24592 4.95803C7.34492 5.15866 7.53622 5.29764 7.75766 5.32985L8.70561 5.46761L8.01974 6.13619C7.85947 6.29233 7.78639 6.51728 7.82422 6.73778L7.98613 7.68185L7.1383 7.23611C6.92745 7.13195 6.71661 7.13195 6.50572 7.23611L5.65789 7.68185L5.8198 6.73778C5.85763 6.51728 5.78459 6.29238 5.62433 6.13619L4.93841 5.46756L5.88636 5.3298Z" fill="black"/>
<path d="M4.47552 11.8294L4.30766 10.8506L5.01875 10.1574C5.45713 9.74521 5.25219 9.10073 4.64211 8.99812L3.65933 8.85529L3.21983 7.96476C3.03144 7.51874 2.30675 7.34507 2.00089 7.96476L1.56139 8.85529L0.578657 8.99812C-0.0622179 9.13588 -0.144249 9.73354 0.202016 10.1574L0.91311 10.8506L0.745251 11.8294C0.676063 12.4757 1.13309 12.8272 1.73141 12.5459L2.61041 12.0838L3.48941 12.5459C3.93289 12.779 4.57503 12.4094 4.47552 11.8294ZM3.80806 10.3557C3.64784 10.5118 3.57477 10.7367 3.61255 10.9573L3.77445 11.9013L2.92658 11.4556C2.72858 11.3515 2.49214 11.3515 2.29405 11.4556L1.44622 11.9013L1.60813 10.9572C1.64595 10.7367 1.57288 10.5118 1.41266 10.3557L0.726735 9.68704L1.67459 9.54932C1.89603 9.51716 2.08733 9.37818 2.18638 9.17751L2.61031 8.31852L3.03425 9.17746C3.1333 9.37813 3.32459 9.51712 3.54599 9.54927L4.49389 9.68704L3.80806 10.3557Z" fill="black"/>
<path d="M23.4132 8.99332L22.4305 8.85049L21.991 7.95996C21.6811 7.33231 21.0778 7.34023 20.772 7.95996L20.3325 8.85049L19.3498 8.99332C18.708 9.11351 18.5406 9.67596 18.973 10.1526L19.6842 10.8458L19.5163 11.8246C19.4168 12.4047 20.059 12.7741 20.5024 12.5411L21.3814 12.0789L22.2604 12.5411C22.8587 12.8107 23.3275 12.4592 23.2465 11.8246L23.0786 10.8458L23.7898 10.1526C24.1888 9.76971 23.9955 9.08417 23.4132 8.99332ZM22.5791 10.3509C22.4189 10.5071 22.3459 10.732 22.3837 10.9525L22.5456 11.8965L21.6978 11.4508C21.4869 11.3467 21.2761 11.3467 21.0652 11.4508L20.2174 11.8965L20.3793 10.9525C20.4172 10.7319 20.344 10.507 20.1838 10.3509L19.4979 9.68225L20.4459 9.54448C20.6673 9.51232 20.8585 9.37334 20.9576 9.17271L21.3816 8.31373L21.8055 9.17267C21.9045 9.37334 22.0958 9.51232 22.3173 9.54448L23.2652 9.68225L22.5791 10.3509Z" fill="black"/>
<path d="M14.776 5.93864L15.4871 6.63179L15.3192 7.61058C15.2419 8.24499 15.7048 8.57541 16.3054 8.32707L17.1843 7.86493L18.0633 8.32707C18.5069 8.56013 19.149 8.19071 19.0495 7.61058L18.8816 6.63179L19.5927 5.93864C20.017 5.42672 19.8881 4.9111 19.216 4.77938L18.2333 4.63655L17.7937 3.74607C17.5445 3.24085 16.8241 3.24094 16.5748 3.74607L16.1353 4.6366L15.1526 4.77943C14.492 4.90529 14.3279 5.43258 14.776 5.93864ZM16.2488 5.33058C16.4702 5.29838 16.6615 5.15939 16.7605 4.95877L17.1845 4.09983L17.6084 4.95877C17.7074 5.15939 17.8987 5.29838 18.1202 5.33058L19.0681 5.46835L18.3822 6.13697C18.2219 6.29316 18.1489 6.51807 18.1867 6.73857L18.3486 7.68268L17.5008 7.23694C17.29 7.13283 17.0791 7.13283 16.8682 7.23694L16.0204 7.68268L16.1823 6.73861C16.2202 6.51811 16.1471 6.29321 15.9869 6.13702L15.3009 5.46839L16.2488 5.33058Z" fill="black"/>
</g>
<defs>
<clipPath id="clip0_7374_13417">
<rect width="24" height="24" fill="white"/>
</clipPath>
</defs>
</svg>
