<svg width="22" height="22" viewBox="-10 -10 52 52" fill="none" xmlns="http://www.w3.org/2000/svg">
<g clip-path="url(#clip0_2773_1261)">
<path d="M28.3549 27.6509C28.3549 29.3698 26.9616 30.7631 25.2427 30.7631C23.5242 30.7631 22.1309 29.3698 22.1309 27.6509C22.1309 25.9324 23.5242 24.5391 25.2427 24.5391C26.9616 24.5391 28.3549 25.9324 28.3549 27.6509Z" fill="#00ACEA"/>
<path d="M25.8107 8.53668V8.72587C25.8107 12.8677 22.453 16.2255 18.3111 16.2255C14.1693 16.2255 10.8115 12.8677 10.8115 8.72587V8.53668C10.9156 4.46957 14.2426 1.22656 18.3111 1.22656C22.3796 1.22656 25.7066 4.46957 25.8107 8.53668Z" fill="#FEDB41"/>
<path d="M13.6361 27.6509C13.6361 29.3698 12.2428 30.7631 10.524 30.7631C8.80541 30.7631 7.41211 29.3698 7.41211 27.6509C7.41211 25.9324 8.80541 24.5391 10.524 24.5391C12.2428 24.5391 13.6361 25.9324 13.6361 27.6509Z" fill="#00ACEA"/>
<path d="M10.8116 8.72825C10.8116 12.8701 14.1693 16.2278 18.3111 16.2278C22.453 16.2278 25.8107 12.8701 25.8107 8.72825V8.53906H31.3056L28.0114 19.4591C27.6552 20.6429 26.5636 21.4525 25.3272 21.4495H10.6084C9.24878 21.4498 8.08491 20.4751 7.84672 19.1365L5.96826 8.54618H10.8187C10.8127 8.60669 10.8102 8.66747 10.8116 8.72825Z" fill="#00EFD1"/>
<path d="M17.127 8.53241H15.5357C15.2485 8.53268 14.99 8.70818 14.8835 8.97512C14.777 9.24206 14.8438 9.54706 15.0522 9.74501L19.0194 13.4948C19.1502 13.6175 19.3236 13.6851 19.5029 13.684C19.6956 13.6829 19.8799 13.6046 20.0146 13.4669C20.1422 13.3322 20.2109 13.1523 20.2054 12.9669C20.2002 12.7816 20.1214 12.6058 19.9864 12.4785L17.2951 9.9342C18.0529 9.89204 18.7689 9.5728 19.3066 9.03727C19.7142 8.63152 19.9984 8.11872 20.1266 7.55827H21.087C21.4742 7.55827 21.7879 7.24451 21.7879 6.85738C21.7879 6.47024 21.4742 6.15648 21.087 6.15648H20.1266C20.0453 5.8074 19.9029 5.47503 19.706 5.17523H21.087C21.4742 5.17523 21.7879 4.86147 21.7879 4.47433C21.7879 4.0872 21.4742 3.77344 21.087 3.77344H15.5357C15.1488 3.77344 14.8348 4.0872 14.8348 4.47433C14.8348 4.86147 15.1488 5.17523 15.5357 5.17523H17.127C17.784 5.17578 18.3809 5.55908 18.6547 6.15648H15.5428C15.1557 6.15648 14.8419 6.47024 14.8419 6.85738C14.8419 7.24451 15.1557 7.55827 15.5428 7.55827H18.6618C18.5778 7.73925 18.4641 7.90516 18.3253 8.0489C18.0025 8.35746 17.5735 8.53049 17.127 8.53241Z" fill="#083863"/>
<path d="M10.5242 23.8359C8.41849 23.8359 6.71143 25.543 6.71143 27.6487C6.71143 29.7547 8.41849 31.4617 10.5242 31.4617C12.6302 31.4617 14.3372 29.7547 14.3372 27.6487C14.335 25.5438 12.6291 23.8381 10.5242 23.8359ZM10.5242 30.0599C9.19276 30.0599 8.11322 28.9804 8.11322 27.6487C8.11322 26.3173 9.19276 25.2377 10.5242 25.2377C11.8559 25.2377 12.9354 26.3173 12.9354 27.6487C12.9354 28.9804 11.8559 30.0599 10.5242 30.0599Z" fill="#083863"/>
<path d="M31.3059 7.83589H26.4629C26.0059 3.67871 22.4938 0.53125 18.3114 0.53125C14.129 0.53125 10.6169 3.67871 10.1599 7.83589H6.55743L6.05968 5.01123C5.74948 3.2746 4.39013 1.91524 2.65349 1.60504L0.824047 1.28252C0.442662 1.2149 0.0787982 1.46897 0.010899 1.85036C-0.0567265 2.23147 0.197348 2.59561 0.578734 2.66323L2.40106 2.98575C3.55973 3.19109 4.46679 4.09815 4.67185 5.25654L7.15319 19.2534C7.44614 20.9284 8.90132 22.1498 10.6015 22.1481H25.3203C26.8667 22.1528 28.2323 21.1409 28.6775 19.6599L31.9717 8.73994C32.0331 8.52693 31.9942 8.2975 31.8666 8.11625C31.7333 7.94103 31.5263 7.83726 31.3059 7.83589ZM13.5593 3.86187C15.4938 1.97247 18.364 1.40846 20.8694 2.42558C23.3751 3.4427 25.04 5.84765 25.1101 8.55075V8.72598C25.1101 12.481 22.0661 15.5247 18.3114 15.5247C14.5567 15.5247 11.5127 12.481 11.5127 8.72598V8.55075C11.556 6.78044 12.2905 5.0972 13.5593 3.86187ZM27.339 19.2465C27.0745 20.1358 26.255 20.7439 25.3275 20.7395H10.6015C9.58058 20.7422 8.70666 20.0074 8.5339 19.0012L6.80274 9.23057H10.1249C10.3962 13.5528 13.9809 16.9193 18.3114 16.9193C22.6419 16.9193 26.2266 13.5528 26.4979 9.23057H30.3597L27.339 19.2465Z" fill="#083863"/>
<path d="M25.2429 23.8359C23.1372 23.8359 21.4302 25.543 21.4302 27.6487C21.4302 29.7547 23.1372 31.4617 25.2429 31.4617C27.3489 31.4617 29.056 29.7547 29.056 27.6487C29.0538 25.5438 27.3478 23.8381 25.2429 23.8359ZM25.2429 30.0599C23.9115 30.0599 22.832 28.9804 22.832 27.6487C22.832 26.3173 23.9115 25.2377 25.2429 25.2377C26.5746 25.2377 27.6542 26.3173 27.6542 27.6487C27.6542 28.9804 26.5746 30.0599 25.2429 30.0599Z" fill="#083863"/>
</g>
<defs>
<clipPath id="clip0_2773_1261">
<rect width="32" height="32" fill="white"/>
</clipPath>
</defs>
</svg>
