<svg width="10" height="10" viewBox="-10 -10 52 52" fill="none" xmlns="http://www.w3.org/2000/svg">
<g clip-path="url(#clip0_3087_8367)">
<path d="M11.25 27.5C11.25 28.875 10.125 30 8.75 30C7.375 30 6.25 28.875 6.25 27.5C6.25 26.125 7.375 25 8.75 25C10.125 25 11.25 26.125 11.25 27.5ZM21.25 25C19.875 25 18.75 26.125 18.75 27.5C18.75 28.875 19.875 30 21.25 30C22.625 30 23.75 28.875 23.75 27.5C23.75 26.125 22.625 25 21.25 25ZM29.9875 3.75H18.75V11.25L20.85 9.15L22.6125 10.9125L19.2625 14.2625C18.775 14.75 18.1375 14.9875 17.5 14.9875C16.8625 14.9875 16.225 14.75 15.7375 14.2625L12.375 10.9L14.1375 9.1375L16.25 11.25V3.75H6.55L6.5 3.3125C6.275 1.425 4.675 0 2.775 0H0V2.5H2.775C3.4125 2.5 3.9375 2.975 4.0125 3.6L5.9875 20.4375C6.2125 22.325 7.8125 23.75 9.7125 23.75H24.9875V21.25H9.725C9.0875 21.25 8.5625 20.775 8.4875 20.15L8.325 18.75H27L30 3.75H29.9875Z" fill="white"/>
</g>
<defs>
<clipPath id="clip0_3087_8367">
<rect width="30" height="30" fill="white"/>
</clipPath>
</defs>
</svg>
