<svg width="25" height="24" viewBox="0 0 25 24" fill="none" xmlns="http://www.w3.org/2000/svg">
<g clip-path="url(#clip0_2280_11538)">
<path d="M24.0164 22.6943L17.82 16.5969C19.4426 14.834 20.4397 12.5024 20.4397 9.93682C20.4389 4.44852 15.9183 0 10.3415 0C4.76469 0 0.244141 4.44852 0.244141 9.93682C0.244141 15.4251 4.76469 19.8736 10.3415 19.8736C12.7511 19.8736 14.9611 19.0402 16.697 17.6546L22.9175 23.776C23.2206 24.0746 23.7126 24.0746 24.0157 23.776C24.3195 23.4775 24.3195 22.9929 24.0164 22.6943ZM10.3415 18.3448C5.62292 18.3448 1.79776 14.5804 1.79776 9.93682C1.79776 5.29321 5.62292 1.52884 10.3415 1.52884C15.0601 1.52884 18.8852 5.29321 18.8852 9.93682C18.8852 14.5804 15.0601 18.3448 10.3415 18.3448Z" fill="#344054"/>
</g>
<defs>
<clipPath id="clip0_2280_11538">
<rect width="24" height="24" fill="white" transform="translate(0.244141)"/>
</clipPath>
</defs>
</svg>
