<svg width="40" height="40" viewBox="0 0 40 40" fill="none" xmlns="http://www.w3.org/2000/svg">
<circle cx="20" cy="20" r="20" fill="white"/>
<path d="M17 29V23C17 22.4696 17.2107 21.9609 17.5858 21.5858C17.9609 21.2107 18.4696 21 19 21H20.6" stroke="#1A5C8A" stroke-width="2" stroke-linecap="round" stroke-linejoin="round"/>
<path d="M28 19L20 11L11 20H13V27C13 27.5304 13.2107 28.0391 13.5858 28.4142C13.9609 28.7893 14.4696 29 15 29H19.159M26 28C25.4696 28 24.9609 27.7893 24.5858 27.4142C24.2107 27.0391 24 26.5304 24 26C24 25.4696 24.2107 24.9609 24.5858 24.5858C24.9609 24.2107 25.4696 24 26 24M26 28C26.5304 28 27.0391 27.7893 27.4142 27.4142C27.7893 27.0391 28 26.5304 28 26C28 25.4696 27.7893 24.9609 27.4142 24.5858C27.0391 24.2107 26.5304 24 26 24M26 28V29.5M26 24V22.5M29.032 24.25L27.733 25M24.27 27L22.97 27.75M22.97 24.25L24.27 25M27.733 27L29.033 27.75" stroke="#1A5C8A" stroke-width="2" stroke-linecap="round" stroke-linejoin="round"/>
</svg>
