<svg width="24" height="24" viewBox="0 0 24 24" fill="none" xmlns="http://www.w3.org/2000/svg">
<g clip-path="url(#clip0_7232_9229)">
<path fill-rule="evenodd" clip-rule="evenodd" d="M2.24817 23.9956V13.7352C1.79133 13.9448 1.3636 13.9495 1.00812 13.8049C0.730778 13.6932 0.496401 13.4924 0.324525 13.234C0.152649 12.9751 0.0432726 12.6601 0.0102645 12.3128C-0.0405171 11.7741 0.0942496 11.1657 0.478823 10.5941C0.498354 10.5661 0.519839 10.5381 0.54523 10.5148L11.6889 0.128718C11.8334 -0.0296291 12.0561 -0.0461867 12.2164 0.103066L23.3855 10.4707C23.403 10.4868 23.4187 10.5034 23.4341 10.5244C23.9517 11.189 24.0808 11.9257 23.9558 12.5481C23.8933 12.856 23.7702 13.1314 23.6003 13.3599C23.4306 13.5882 23.2138 13.7655 22.9675 13.8704C22.5769 14.0383 22.1122 14.0334 21.6415 13.7678V23.9673H20.5479V13.1941C20.5479 12.9586 12.8862 5.72754 12.0406 4.94187C11.1441 5.75553 3.34213 12.9285 3.34213 13.2314V24L2.24817 23.9956ZM7.41365 18.1808C7.87341 18.1808 8.32869 18.282 8.77909 18.4844L8.54647 19.8981L8.34295 20.0021C8.13963 19.8517 7.93885 19.7335 7.74021 19.6467C7.54158 19.56 7.382 19.5166 7.26091 19.5166C7.14958 19.5166 7.0611 19.5425 6.99587 19.5947C6.93063 19.6467 6.89782 19.7162 6.89782 19.8027C6.89782 19.9126 6.94743 20.0066 7.04665 20.0847C7.14587 20.1628 7.31169 20.2652 7.54431 20.3923C7.81521 20.5369 8.03806 20.6712 8.21229 20.7957C8.3867 20.9198 8.53924 21.0905 8.66991 21.3071C8.80057 21.524 8.86581 21.7913 8.86581 22.1094C8.86581 22.462 8.78475 22.7815 8.62244 23.0674C8.46014 23.3533 8.22908 23.5804 7.92888 23.7481C7.62869 23.916 7.28005 23.9998 6.88317 23.9998C6.38922 23.9998 5.87105 23.8897 5.32886 23.67L5.53961 22.1612L5.68492 22.0569C5.90758 22.2593 6.14606 22.42 6.40036 22.5382C6.65465 22.6567 6.86637 22.7162 7.03591 22.7162C7.17146 22.7162 7.2695 22.6887 7.33005 22.6336C7.3906 22.5788 7.42087 22.5107 7.42087 22.4298C7.42087 22.3083 7.36872 22.2059 7.26482 22.1222C7.16071 22.0383 6.99255 21.9354 6.75993 21.8141C6.49372 21.6754 6.27457 21.5441 6.1027 21.4198C5.93082 21.2955 5.7818 21.1248 5.65601 20.9081C5.53023 20.6915 5.46714 20.424 5.46714 20.1061C5.46714 19.7416 5.54957 19.4137 5.71402 19.1218C5.87887 18.8298 6.10875 18.6001 6.40407 18.4324C6.69938 18.2645 7.03591 18.1808 7.41365 18.1808ZM10.9117 19.6987C11.4539 19.6987 11.8633 19.872 12.1391 20.2188C12.4151 20.5658 12.5531 21.0774 12.5531 21.7537C12.5531 22.4937 12.4041 23.0532 12.1065 23.4319C11.8088 23.8104 11.3693 24 10.7883 24C10.2459 24 9.83671 23.8279 9.56073 23.4839C9.28475 23.1397 9.14686 22.6325 9.14686 21.962C9.14686 21.2162 9.29589 20.6525 9.59355 20.2708C9.8912 19.8893 10.3309 19.6987 10.9117 19.6987ZM10.81 20.8344C10.7131 20.8344 10.6406 20.8564 10.5922 20.8995C10.5437 20.9429 10.5109 21.0224 10.4943 21.1378C10.4773 21.2535 10.4689 21.4298 10.4689 21.667C10.4689 22.0198 10.4797 22.2813 10.5016 22.4517C10.5234 22.6222 10.5633 22.7409 10.6213 22.8074C10.6795 22.8738 10.7689 22.9069 10.89 22.9069C10.9867 22.9069 11.0582 22.8855 11.1043 22.8421C11.1502 22.7987 11.1818 22.7178 11.1988 22.5993C11.2156 22.4806 11.2242 22.3029 11.2242 22.066C11.2242 21.719 11.2133 21.4604 11.1914 21.2899C11.1695 21.1194 11.1297 21.0009 11.0717 20.9345C11.0135 20.8678 10.9262 20.8344 10.81 20.8344ZM14.41 22.0746L14.468 23.896H13.0516L13.1172 22.2484L13.0662 17.9208L14.4752 17.8081L14.41 22.0746ZM18.3583 22.0746L18.3657 22.6038C18.3657 22.6733 18.3727 22.7225 18.3872 22.7512C18.4018 22.7801 18.426 22.7948 18.4598 22.7948C18.4938 22.7948 18.535 22.7859 18.5835 22.7687L18.6706 22.8554L18.5471 23.7227C18.3678 23.8731 18.1428 23.9599 17.8715 23.983C17.7167 23.9713 17.5797 23.9135 17.4612 23.8095C17.3424 23.7052 17.2493 23.5609 17.1813 23.3759H17.1305C16.9368 23.6245 16.7092 23.8239 16.4477 23.9741C15.9879 23.9741 15.627 23.7892 15.3657 23.4191C15.1041 23.0492 14.9735 22.5462 14.9735 21.9102C14.9735 21.1989 15.133 20.657 15.4528 20.2838C15.7723 19.9112 16.2104 19.7246 16.7672 19.7246C16.8399 19.7246 16.9295 19.7335 17.036 19.7507L17.0143 17.9208L18.4233 17.8081L18.3583 22.0746ZM16.7241 20.8433C16.5645 20.8433 16.453 20.8953 16.3901 20.9993C16.3272 21.1033 16.2957 21.303 16.2957 21.5977C16.2957 21.9965 16.3297 22.2841 16.3973 22.4606C16.4653 22.6369 16.5719 22.725 16.7172 22.725C16.8381 22.725 16.9518 22.6672 17.0585 22.5515L17.0657 22.2393L17.0512 20.9298C16.9395 20.8722 16.8307 20.8433 16.7241 20.8433ZM12.2596 9.25293V12.1799H14.4588V12.172C14.4588 11.3649 14.1823 10.6312 13.7369 10.099C13.3483 9.63539 12.8319 9.32452 12.2596 9.25293ZM12.2596 12.7984V14.6155H14.4588V12.7984H12.2596ZM11.7418 14.6137V12.7984H9.54218V14.6155H11.7416L11.7418 14.6137ZM11.7418 12.1801V9.25293C11.1682 9.32616 10.6531 9.63539 10.2646 10.099C9.81933 10.6312 9.54237 11.3649 9.54237 12.172V12.1799L11.7418 12.1801ZM12.0006 8.61861C12.8195 8.61861 13.5635 9.01879 14.1016 9.66151C14.6414 10.3059 14.9752 11.1941 14.9752 12.1703V15.2305H9.0246V12.1703C9.0246 11.1925 9.35995 10.3042 9.89804 9.66151C10.4377 9.01856 11.1816 8.61861 12.0006 8.61861ZM18.3114 0.828338L21.6647 0.991816V6.39918L18.3114 3.75695V0.828338Z" fill="#1A5C8A"/>
</g>
<defs>
<clipPath id="clip0_7232_9229">
<rect width="24" height="24" fill="white"/>
</clipPath>
</defs>
</svg>
