<svg width="24" height="21" viewBox="0 0 24 21" fill="none" xmlns="http://www.w3.org/2000/svg">
<g clip-path="url(#clip0_7232_1497)">
<path fill-rule="evenodd" clip-rule="evenodd" d="M8.05078 18.769L7.79492 12.3295L10.6914 12.2143C11.9277 12.3862 13.1836 13.0033 14.4414 13.728L16.6914 13.6381C17.7129 13.6596 18.2871 14.6694 17.3242 15.3881C16.5586 15.9975 15.5156 16.0072 14.4453 15.9526C13.709 15.9447 13.7148 16.935 14.4824 16.9096C14.75 16.9194 15.0371 16.8451 15.291 16.8354C16.623 16.7807 17.709 16.4838 18.3379 15.4037L18.6445 14.603L21.9258 12.81C23.5781 12.1928 24.6914 13.7494 23.5059 15.017C21.1523 16.8764 18.8711 18.5737 16.375 19.8471C14.5723 21.0444 12.7246 21.0795 10.834 20.0678L8.05078 18.769ZM22.9023 2.90959L22.9336 9.16545C22.9355 9.49162 22.7285 9.77287 22.4375 9.89202V9.89397L17 12.0912C16.9531 12.099 16.9062 12.1049 16.8574 12.1049C16.752 12.1049 16.6484 12.0834 16.5508 12.0424L11.1992 9.99553V9.99358C10.9102 9.87248 10.707 9.58342 10.707 9.24553L10.7363 3.06975C10.7324 3.00334 10.7363 2.93694 10.748 2.87053C10.75 2.77678 10.7695 2.68303 10.8066 2.59709C10.8906 2.39397 11.0527 2.24358 11.2461 2.16545L16.4766 0.0599846C16.6895 -0.0259529 16.918 -0.0161873 17.1133 0.067797L22.334 1.95647C22.6465 2.06975 22.8438 2.351 22.8574 2.65373C22.8867 2.73577 22.9023 2.8217 22.9023 2.90959ZM15.832 10.7905L15.8711 5.34123L11.6836 3.53069L11.5957 9.00334L15.832 10.7905ZM22.0078 3.53264L17.3281 5.34319L17.3652 10.7865L22.0352 9.04241L22.0078 3.53264ZM0 12.1069L6.89844 11.7436L7.20508 19.4487L0.306641 19.81L0 12.1069Z" fill="#1A5C8A"/>
</g>
<defs>
<clipPath id="clip0_7232_1497">
<rect width="24" height="20.7891" fill="white"/>
</clipPath>
</defs>
</svg>
