<svg width="8" height="9" viewBox="0 0 8 9" fill="none" xmlns="http://www.w3.org/2000/svg">
<path fill-rule="evenodd" clip-rule="evenodd" d="M5.51332 0.312517V7.81251C5.51332 7.98497 5.65343 8.125 5.826 8.125C5.99856 8.125 6.13867 7.98497 6.13867 7.81251V0.312517C6.13867 0.140032 5.99856 0 5.826 0C5.65343 0 5.51332 0.140032 5.51332 0.312517Z" fill="#001439"/>
<path fill-rule="evenodd" clip-rule="evenodd" d="M2.29332 7.81248V0.31249C2.29332 0.140027 2.15321 -4.76837e-06 1.98064 -4.76837e-06C1.80808 -4.76837e-06 1.66797 0.140027 1.66797 0.31249V7.81248C1.66797 7.98497 1.80808 8.125 1.98064 8.125C2.15321 8.125 2.29332 7.98497 2.29332 7.81248Z" fill="#001439"/>
<path fill-rule="evenodd" clip-rule="evenodd" d="M3.93311 6.24476L5.59979 8.02142C5.65885 8.0844 5.74137 8.12013 5.82774 8.12013C5.91411 8.12013 5.99662 8.0844 6.05569 8.02142L7.72237 6.24476C7.84034 6.11898 7.83397 5.92113 7.70817 5.8032C7.58235 5.68527 7.38442 5.69162 7.26645 5.8174L5.82774 7.35107L4.38903 5.8174C4.27106 5.69162 4.07313 5.68527 3.94731 5.8032C3.82151 5.92113 3.81514 6.11898 3.93311 6.24476Z" fill="#001439"/>
<path fill-rule="evenodd" clip-rule="evenodd" d="M3.87353 1.88024L2.20685 0.103582C2.14779 0.0406003 2.06527 0.0048728 1.9789 0.0048728C1.89254 0.0048728 1.81002 0.0406003 1.75095 0.103582L0.0842733 1.88024C-0.0336955 2.00602 -0.0273285 2.20387 0.0984724 2.3218C0.224293 2.43973 0.422223 2.43338 0.540192 2.3076L1.9789 0.773933L3.41761 2.3076C3.53558 2.43338 3.73351 2.43973 3.85933 2.3218C3.98513 2.20387 3.9915 2.00602 3.87353 1.88024Z" fill="#001439"/>
</svg>
