<svg width="10" height="10" viewBox="-10 -10 52 52" fill="none" xmlns="http://www.w3.org/2000/svg">
<g clip-path="url(#clip0_3087_7931)">
<path d="M23.7501 10.0038H9.73147e-05V6.25375H23.7501V1.71875L29.5363 7.01375C29.6824 7.14425 29.7993 7.30413 29.8793 7.48292C29.9593 7.6617 30.0007 7.85537 30.0007 8.05125C30.0007 8.24713 29.9593 8.4408 29.8793 8.61958C29.7993 8.79837 29.6824 8.95825 29.5363 9.08875L23.7501 14.3788V10.0038ZM6.2501 15.4688L0.463847 20.7638C0.317776 20.8943 0.200907 21.0541 0.12089 21.2329C0.0408735 21.4117 -0.000488281 21.6054 -0.000488281 21.8013C-0.000488281 21.9971 0.0408735 22.1908 0.12089 22.3696C0.200907 22.5484 0.317776 22.7083 0.463847 22.8388L6.2501 28.1288V23.7538H30.0001V20.0038H6.2501V15.4688Z" fill="white"/>
</g>
<defs>
<clipPath id="clip0_3087_7931">
<rect width="30" height="30" fill="white"/>
</clipPath>
</defs>
</svg>
