<svg width="24" height="24" viewBox="0 0 24 24" fill="none" xmlns="http://www.w3.org/2000/svg">
<path d="M21.847 12.3533C21.847 12.318 21.8117 12.318 21.8117 12.2827C21.4941 11.718 20.7882 11.718 20.2588 12.071C19.5176 12.5651 17.9647 13.2357 16.5529 13.7298V17.4357L21.4941 13.7651C21.9529 13.4475 22.0941 12.8475 21.847 12.3533Z" fill="#F2A496"/>
<path d="M23.1882 12.8809C22.9059 12.3162 22.2 12.2456 21.6706 12.5632C20.8941 13.022 19.2706 13.622 17.8235 14.0103C17.8235 14.0103 17.9294 13.4456 17.647 13.0573C17.2588 12.5279 16.5882 12.3515 16.0235 12.5632L11.2588 13.622C10.9059 13.7632 9.63528 13.5867 9.21175 13.4809C7.76469 13.0926 6.24704 13.1985 4.94116 13.7985V20.5397C6.28234 19.622 9.77646 19.8338 11.8941 20.0456C13.0588 20.1867 14.2235 19.9044 15.2118 19.2691L22.8 14.3632C23.2588 14.0456 23.4353 13.4456 23.1882 12.8809Z" fill="#FABDAB"/>
<path d="M22.6588 12.4219C22.8706 12.9513 22.6588 13.516 22.2353 13.7983L15.8823 17.9278C15.0706 18.4572 14.1176 18.7395 13.1647 18.7748C5.36469 19.0925 4.94116 20.5395 4.94116 20.5395C6.28234 19.6219 9.77646 19.8336 11.8941 20.0454C13.0588 20.1866 14.2235 19.9042 15.2118 19.2689L22.8 14.3631C23.5412 13.8689 23.4353 12.6689 22.6588 12.4219Z" fill="#F2A496"/>
<path d="M17.2235 13.2011C17.0118 12.8835 16.5882 12.7776 16.2353 12.8835L15.4235 13.1658C15.2824 13.907 15.4235 14.507 15.9176 14.8952L16.9059 14.4364C17.4 14.2599 17.5412 13.6246 17.2235 13.2011Z" fill="#F8F9FE"/>
<path d="M17.2235 13.2006C17.047 12.9535 16.6941 12.777 16.3412 12.8829C16.8 12.9888 17.0823 13.4123 16.9765 13.9064C16.8353 14.4711 15.847 14.8947 15.9176 14.93L16.9059 14.4711C17.4 14.2594 17.5412 13.6241 17.2235 13.2006Z" fill="#F3F1FC"/>
<path d="M17.7882 14.0156C17.5412 15.0039 16.3765 15.2156 15.5647 15.6039C14.047 16.1686 12.4588 16.6274 10.8706 17.0156C11.8941 16.6627 12.9529 16.3097 13.9765 15.9568L15.5294 15.4274C16.3412 15.1097 17.4353 14.9333 17.7882 14.0156Z" fill="#F2A496"/>
<path d="M5.68233 12.1797H3.07056C2.78821 12.1797 2.57645 12.3915 2.57645 12.6738V20.615C2.57645 20.8973 2.78821 21.1091 3.07056 21.1091H5.68233C5.96468 21.1091 6.17645 20.8973 6.17645 20.615V12.6738C6.14115 12.3915 5.92939 12.1797 5.68233 12.1797Z" fill="#E9E7FC"/>
<path d="M4.44705 11.3672H1.19999C0.917636 11.3672 0.705872 11.579 0.705872 11.8613V21.426C0.705872 21.6731 0.917636 21.8848 1.19999 21.8848H4.44705C4.7294 21.8848 4.94117 21.6731 4.94117 21.3907V11.8613C4.94117 11.579 4.7294 11.3672 4.44705 11.3672Z" fill="#4C5C75"/>
<path d="M1.2 21.8878H4.44706C4.72942 21.8878 4.94118 21.676 4.94118 21.3937V11.8642C4.94118 11.7584 4.90589 11.6878 4.87059 11.6172C4.58824 13.4525 3.38824 20.1584 0.74118 21.6054C0.811769 21.7819 0.988239 21.8878 1.2 21.8878Z" fill="#1D2943"/>
<path d="M4.37645 21.3575C4.30586 20.7575 4.27057 20.1928 4.27057 19.5928C4.27057 19.0281 4.30586 18.3928 4.37645 17.8281C4.44704 18.3928 4.48233 19.0634 4.48233 19.5928C4.48233 20.1928 4.44704 20.7575 4.37645 21.3575Z" fill="white"/>
<path d="M2.82352 14.1163C3.31083 14.1163 3.70587 13.7212 3.70587 13.2339C3.70587 12.7466 3.31083 12.3516 2.82352 12.3516C2.3362 12.3516 1.94116 12.7466 1.94116 13.2339C1.94116 13.7212 2.3362 14.1163 2.82352 14.1163Z" fill="#E9E7FC"/>
<path d="M3 12.3906C3.17647 12.5318 3.28235 12.7789 3.28235 13.0259C3.28235 13.52 2.89411 13.9083 2.4 13.9083C2.3647 13.9083 2.29411 13.9083 2.25882 13.9083C2.4 14.0142 2.61176 14.12 2.82353 14.12C3.31764 14.12 3.70588 13.7318 3.70588 13.2377C3.70588 12.8142 3.38823 12.4612 3 12.3906Z" fill="#DEDFFB"/>
<path d="M9.88235 6.52895V4.02307C9.88235 3.49366 9.67059 3.03483 9.31765 2.68189C8.9647 2.32895 8.50588 2.11719 7.97647 2.11719C6.91765 2.11719 6.07059 2.96425 6.07059 4.02307V6.52895C7.44706 6.8466 8.71765 6.8466 9.88235 6.52895Z" fill="#1D2943"/>
<path d="M11.047 9.03033C11.047 10.4421 4.87057 10.4421 4.87057 9.03033C4.87057 8.0421 5.68234 7.26562 6.63528 7.26562H6.81175C6.81175 7.90092 7.34116 8.43033 7.97646 8.43033C8.61175 8.43033 9.14116 7.90092 9.14116 7.26562H9.24705C10.2353 7.26562 11.047 8.0421 11.047 9.03033Z" fill="#78E75A"/>
<path d="M11.0471 9.03327C11.0471 8.39798 10.7294 7.83327 10.2 7.51562C9.95294 7.90386 8.82353 9.20974 5.18823 9.52739C6.49411 10.4097 11.0471 10.2686 11.0471 9.03327Z" fill="#72D561"/>
<path d="M9.14115 7.26562C9.14115 7.90092 8.61174 8.43033 7.97644 8.43033C7.34115 8.43033 6.81174 7.90092 6.81174 7.26562H9.14115Z" fill="white"/>
<path d="M8.75292 6.49219V7.26866C8.75292 7.69219 8.39998 8.04513 7.97645 8.04513C7.55292 8.04513 7.19998 7.69219 7.19998 7.26866V6.49219H8.75292Z" fill="#FABDAB"/>
<path d="M8.75292 6.67188V7.1307C7.48233 7.20129 7.19998 6.74246 7.19998 6.74246V6.67188H8.75292Z" fill="#EA8B82"/>
<path d="M9.42352 4.40917V5.50329C9.42352 6.24446 8.85881 6.91505 8.11764 6.98564C7.27058 7.05623 6.5647 6.38564 6.5647 5.57388V4.44446C6.5647 3.5974 9.42352 3.5974 9.42352 4.40917Z" fill="#FABDAB"/>
<path d="M7.55292 6.07031C7.51762 6.07031 7.48233 6.1409 7.48233 6.17619C7.55292 6.35267 7.72939 6.45855 7.94115 6.45855C8.15292 6.45855 8.32939 6.35267 8.39998 6.17619C8.43527 6.1409 8.39998 6.07031 8.32939 6.07031H7.55292Z" fill="white"/>
<path d="M8.15293 5.60938C8.11763 5.67996 8.04705 5.75055 7.97646 5.75055C7.87058 5.75055 7.79999 5.67996 7.79999 5.60938H8.15293Z" fill="#EA8B82"/>
<path d="M7.44704 5.07868C7.44704 5.14926 7.37645 5.25515 7.27057 5.25515C7.19998 5.25515 7.12939 5.18456 7.12939 5.07868C7.12939 5.00809 7.19998 4.9375 7.27057 4.9375C7.37645 4.9375 7.44704 5.00809 7.44704 5.07868Z" fill="#1D2943"/>
<path d="M8.78823 5.07868C8.78823 5.14926 8.71764 5.25515 8.61176 5.25515C8.54117 5.25515 8.47058 5.18456 8.47058 5.07868C8.47058 5.00809 8.54117 4.9375 8.61176 4.9375C8.71764 4.9375 8.78823 5.00809 8.78823 5.07868Z" fill="#1D2943"/>
<path d="M7.65881 4.72684C7.65881 4.76213 7.62352 4.79743 7.58822 4.79743H6.98822C6.95293 4.79743 6.91763 4.76213 6.91763 4.72684C6.91763 4.69154 6.95293 4.65625 6.98822 4.65625H7.58822C7.62352 4.65625 7.65881 4.69154 7.65881 4.72684Z" fill="#1D2943"/>
<path d="M9 4.72684C9 4.76213 8.9647 4.79743 8.92941 4.79743H8.32941C8.29411 4.79743 8.25882 4.76213 8.25882 4.72684C8.25882 4.69154 8.29411 4.65625 8.32941 4.65625H8.92941C8.9647 4.65625 9 4.69154 9 4.72684Z" fill="#1D2943"/>
<path d="M9.95293 4.94347C9.95293 5.22583 9.70588 5.47289 9.42352 5.47289V4.41406C9.70588 4.41406 9.95293 4.66112 9.95293 4.94347Z" fill="#FABDAB"/>
<path d="M9.52941 4.41029V5.43382C9.49411 5.43382 9.45882 5.43382 9.42352 5.43382V4.375C9.45882 4.41029 9.49411 4.41029 9.52941 4.41029Z" fill="#EA8B82"/>
<path d="M6.03528 4.94347C6.03528 5.22583 6.28234 5.47289 6.56469 5.47289V4.41406C6.28234 4.41406 6.03528 4.66112 6.03528 4.94347Z" fill="#FABDAB"/>
<path d="M6.4588 4.41029V5.43382H6.56468V4.375C6.52939 4.41029 6.4941 4.41029 6.4588 4.41029Z" fill="#EA8B82"/>
<path d="M6.70587 3.42135C6.77646 3.139 6.95293 2.92723 7.19999 2.78606C7.44705 2.64488 7.7294 2.57429 8.01175 2.64488C7.7647 2.71547 7.51764 2.78606 7.30587 2.92723C7.05881 3.03311 6.88234 3.20959 6.70587 3.42135Z" fill="white"/>
<path d="M20.5059 4.02307V7.83484H16.7294V4.02307C16.7294 2.96425 17.5765 2.11719 18.6353 2.11719C19.1647 2.11719 19.6235 2.32895 19.9765 2.68189C20.2941 3.03483 20.5059 3.52895 20.5059 4.02307Z" fill="#1D2943"/>
<path d="M21.6706 9.03033C21.6706 10.4421 15.4941 10.4421 15.4941 9.03033C15.4941 8.0421 16.3059 7.26562 17.2588 7.26562H17.4353C17.4353 7.90092 17.9647 8.43033 18.6 8.43033C19.2353 8.43033 19.7647 7.90092 19.7647 7.26562H19.8706C20.8941 7.26562 21.6706 8.0421 21.6706 9.03033Z" fill="#57B3FE"/>
<path d="M21.6706 9.03327C21.6706 8.39798 21.3529 7.83327 20.8235 7.51562C20.5765 7.90386 19.4471 9.20974 15.8118 9.52739C17.1177 10.4097 21.6706 10.2686 21.6706 9.03327Z" fill="#5094FF"/>
<path d="M19.8 7.26562C19.8 7.90092 19.2706 8.43033 18.6353 8.43033C18 8.43033 17.4706 7.90092 17.4706 7.26562H19.8Z" fill="white"/>
<path d="M19.4118 6.49219V7.26866C19.4118 7.69219 19.0588 8.04513 18.6353 8.04513C18.2118 8.04513 17.8588 7.69219 17.8588 7.26866V6.49219H19.4118Z" fill="#FABDAB"/>
<path d="M19.4118 6.67188V7.1307C18.1412 7.20129 17.8588 6.74246 17.8588 6.74246V6.67188H19.4118Z" fill="#EA8B82"/>
<path d="M20.0471 4.40917V5.50329C20.0471 6.24446 19.4823 6.91505 18.7412 6.98564C17.8941 7.05623 17.1882 6.38564 17.1882 5.57388V4.44446C17.1882 3.5974 20.0471 3.5974 20.0471 4.40917Z" fill="#FABDAB"/>
<path d="M18.2118 6.07031C18.1765 6.07031 18.1412 6.1409 18.1412 6.17619C18.2118 6.35267 18.3882 6.45855 18.6 6.45855C18.8118 6.45855 18.9882 6.35267 19.0588 6.17619C19.0941 6.1409 19.0588 6.07031 18.9882 6.07031H18.2118Z" fill="white"/>
<path d="M18.7765 5.60938C18.7412 5.67996 18.6706 5.75055 18.6 5.75055C18.4941 5.75055 18.4235 5.67996 18.4235 5.60938H18.7765Z" fill="#EA8B82"/>
<path d="M18.1059 5.07868C18.1059 5.14926 18.0353 5.25515 17.9294 5.25515C17.8588 5.25515 17.7882 5.18456 17.7882 5.07868C17.7882 5.00809 17.8588 4.9375 17.9294 4.9375C18.0353 4.9375 18.1059 5.00809 18.1059 5.07868Z" fill="#1D2943"/>
<path d="M19.4118 5.07868C19.4118 5.14926 19.3412 5.25515 19.2353 5.25515C19.1647 5.25515 19.0941 5.18456 19.0941 5.07868C19.0941 5.00809 19.1647 4.9375 19.2353 4.9375C19.3412 4.9375 19.4118 5.00809 19.4118 5.07868Z" fill="#1D2943"/>
<path d="M18.2823 4.72684C18.2823 4.76213 18.247 4.79743 18.2117 4.79743H17.647C17.6117 4.79743 17.5764 4.76213 17.5764 4.72684C17.5764 4.69154 17.6117 4.65625 17.647 4.65625H18.247C18.2823 4.65625 18.2823 4.69154 18.2823 4.72684Z" fill="#1D2943"/>
<path d="M19.6235 4.72684C19.6235 4.76213 19.5882 4.79743 19.5529 4.79743H18.9529C18.9176 4.79743 18.8824 4.76213 18.8824 4.72684C18.8824 4.69154 18.9176 4.65625 18.9529 4.65625H19.5529C19.5882 4.65625 19.6235 4.69154 19.6235 4.72684Z" fill="#1D2943"/>
<path d="M20.5765 4.94347C20.5765 5.22583 20.3294 5.47289 20.0471 5.47289V4.41406C20.3294 4.41406 20.5765 4.66112 20.5765 4.94347Z" fill="#FABDAB"/>
<path d="M20.1529 4.41029V5.43382C20.1176 5.43382 20.0824 5.43382 20.0471 5.43382V4.375C20.0824 4.41029 20.1176 4.41029 20.1529 4.41029Z" fill="#EA8B82"/>
<path d="M16.6588 4.94347C16.6588 5.22583 16.9059 5.47289 17.1882 5.47289V4.41406C16.9059 4.41406 16.6588 4.66112 16.6588 4.94347Z" fill="#FABDAB"/>
<path d="M17.0823 4.41029V5.43382H17.1882V4.375C17.1529 4.41029 17.1176 4.41029 17.0823 4.41029Z" fill="#EA8B82"/>
<path d="M17.3647 3.42135C17.4353 3.139 17.6117 2.92723 17.8588 2.78606C18.1059 2.64488 18.3882 2.57429 18.6706 2.64488C18.4235 2.71547 18.1765 2.78606 17.9647 2.92723C17.7176 3.03311 17.5059 3.20959 17.3647 3.42135Z" fill="white"/>
<path d="M17.1176 10.7281C17.1176 11.7164 15.0353 12.034 14.0823 12.1046C12.7059 12.2458 8.8941 12.1046 8.8941 10.7281C8.8941 10.0575 9.17646 9.49283 9.59999 9.03401C9.77646 8.85754 9.95293 8.71636 10.1647 8.61048C10.4823 8.43401 10.8706 8.32812 11.2941 8.32812H11.5059H14.6118H14.7529C14.8941 8.32812 15.0706 8.32813 15.2118 8.36342C15.2823 8.36342 15.3529 8.39871 15.4235 8.43401C16.4118 8.75165 17.1176 9.6693 17.1176 10.7281Z" fill="#F34B58"/>
<path d="M11.4706 8.3637L11.8588 9.91664C11.9294 10.199 12.2118 10.2696 12.3529 10.1284L13.0588 9.45781L12.0706 8.25781L11.4706 8.3637Z" fill="#E9E7FC"/>
<path d="M14.647 8.36746L14.2235 10.0263C14.1882 10.2381 13.9059 10.3086 13.7647 10.1675L13.0588 9.49687L14.047 8.29688L14.647 8.36746Z" fill="#E9E7FC"/>
<path d="M14.0471 7.48438V8.47261C14.0471 9.00202 13.5882 9.46085 13.0588 9.46085C12.5294 9.46085 12.0706 9.00202 12.0706 8.47261V7.48438H14.0471Z" fill="#FABDAB"/>
<path d="M14.0471 7.73061V8.29531C12.4588 8.3659 12.0706 7.8012 12.0706 7.8012V7.69531H14.0471V7.73061Z" fill="#EA8B82"/>
<path d="M14.8588 4.09375V6.31728C14.8588 7.30551 14.0471 8.11728 13.0588 8.11728C12.0706 8.11728 11.2588 7.30551 11.2588 6.31728V4.09375H14.8588Z" fill="#FABDAB"/>
<path d="M15.4588 5.7165C15.4588 6.03414 15.2118 6.3165 14.8588 6.3165V5.15179C15.1765 5.1165 15.4588 5.36356 15.4588 5.7165Z" fill="#FABDAB"/>
<path d="M15 5.11719V6.28189C14.9647 6.28189 14.9294 6.28189 14.8588 6.28189V5.11719H15Z" fill="#EA8B82"/>
<path d="M10.6588 5.7165C10.6588 6.03414 10.9059 6.3165 11.2588 6.3165V5.15179C10.9059 5.1165 10.6588 5.36356 10.6588 5.7165Z" fill="#FABDAB"/>
<path d="M11.1176 5.11719V6.28189H11.2588V5.11719C11.1882 5.11719 11.1529 5.11719 11.1176 5.11719Z" fill="#EA8B82"/>
<path d="M12.5294 6.95312C12.4588 6.95312 12.4235 7.02371 12.4588 7.0943C12.5647 7.30607 12.7765 7.44724 13.0235 7.44724C13.2706 7.44724 13.5176 7.30607 13.5882 7.0943C13.6235 7.02371 13.5882 6.95312 13.5176 6.95312H12.5294Z" fill="white"/>
<path d="M13.2706 6.35156C13.2353 6.45744 13.1294 6.52803 13.0235 6.52803C12.9176 6.52803 12.8118 6.45744 12.7765 6.35156H13.2706Z" fill="#EA8B82"/>
<path d="M12.3882 5.71958C12.3882 5.82546 12.2823 5.93134 12.1765 5.93134C12.0706 5.93134 11.9647 5.82546 11.9647 5.71958C11.9647 5.61369 12.0706 5.50781 12.1765 5.50781C12.2823 5.54311 12.3882 5.61369 12.3882 5.71958Z" fill="#1D2943"/>
<path d="M14.047 5.71958C14.047 5.82546 13.9412 5.93134 13.8353 5.93134C13.7294 5.93134 13.6235 5.82546 13.6235 5.71958C13.6235 5.61369 13.7294 5.50781 13.8353 5.50781C13.9764 5.54311 14.047 5.61369 14.047 5.71958Z" fill="#1D2943"/>
<path d="M12.6353 5.25809C12.6353 5.29338 12.6 5.32868 12.5647 5.32868H11.8235C11.7882 5.32868 11.7529 5.29338 11.7529 5.25809C11.7529 5.22279 11.7882 5.1875 11.8235 5.1875H12.5647C12.6 5.1875 12.6353 5.22279 12.6353 5.25809Z" fill="#1D2943"/>
<path d="M14.3294 5.25809C14.3294 5.29338 14.2941 5.32868 14.2588 5.32868H13.5176C13.4823 5.32868 13.4471 5.29338 13.4471 5.25809C13.4471 5.22279 13.4823 5.1875 13.5176 5.1875H14.2588C14.2941 5.1875 14.3294 5.22279 14.3294 5.25809Z" fill="#1D2943"/>
<path d="M14.9294 5.85784C14.7882 5.4696 14.647 4.83431 14.5059 4.12843C13.3412 4.58725 12 4.48137 11.2588 3.98725C10.5882 3.52843 10.6941 2.82255 11.2235 2.4696C11.8941 1.97549 13.1647 1.9049 14.0823 2.64608C14.0823 2.64608 15.2823 2.18725 14.8588 3.35196C15.6353 3.1049 15.3882 4.34019 14.9294 5.85784Z" fill="#1D2943"/>
<path d="M11.1529 3.35193C11.8941 3.10487 11.647 4.34016 11.1882 5.85781C11.047 5.46957 10.9059 4.83428 10.7647 4.1284C10.7647 4.1284 10.6588 3.31663 11.1529 3.35193Z" fill="#1D2943"/>
<path d="M17.1176 10.7308C17.1176 9.81314 16.6235 9.03667 15.8823 8.64844C15.6 9.60138 14.4 11.7896 8.96469 10.9778C9.63528 12.6367 17.1176 12.5308 17.1176 10.7308Z" fill="#E11226"/>
<path d="M16.7294 10.4141C16.7647 10.767 16.5529 11.0847 16.2706 11.2964C15.9176 11.5082 15.5294 11.5082 15.247 11.367C15.6 11.3317 15.8823 11.2258 16.1294 11.0847C16.3412 10.9082 16.5529 10.6964 16.7294 10.4141Z" fill="white"/>
<path d="M21.4235 8.46875C21.4588 8.82169 21.247 9.13934 20.9647 9.3511C20.8235 9.45699 20.647 9.52757 20.4706 9.52757C20.2941 9.52757 20.1176 9.52757 19.9412 9.42169C20.2941 9.3864 20.5765 9.28051 20.8235 9.13934C21.0706 8.99816 21.247 8.7511 21.4235 8.46875Z" fill="white"/>
<path d="M5.4 8.71397C5.3647 8.46691 5.54117 8.21985 5.75294 8.07868C5.85882 8.00809 6 7.97279 6.14117 7.9375C6.28235 7.9375 6.42353 7.9375 6.52941 8.00809C6.28235 8.04338 6.07059 8.11397 5.89411 8.21985C5.64706 8.32574 5.50588 8.46691 5.4 8.71397Z" fill="white"/>
</svg>
