<svg width="24" height="24" viewBox="0 0 24 24" fill="none" xmlns="http://www.w3.org/2000/svg">
<g clip-path="url(#clip0_7378_14061)">
<path d="M18.8 23.5984H6.39999C5.73729 23.5984 5.19999 23.0611 5.19999 22.3984V13.9984H2.79999V1.59844C2.79999 0.935742 3.33729 0.398438 3.99999 0.398438H17.2C18.0836 0.398438 18.8 1.11484 18.8 1.99844V23.5984Z" fill="#FBEDBF"/>
<path d="M11.2 11.5969V10.7969L8.79999 12.7969L11.2 14.7969V13.9969H22.8V11.5969H11.2Z" fill="#99D8AA"/>
<path d="M6.39999 23.6031C7.06269 23.6031 7.59999 23.0658 7.59999 22.4031V21.2031H19.6C20.2627 21.2031 20.8 21.7404 20.8 22.4031C20.8 23.0658 20.2627 23.6031 19.6 23.6031H6.39999Z" fill="#FBD699"/>
<path d="M5.19999 13.9984H2.79999V1.59844C2.79999 0.935742 3.33729 0.398438 3.99999 0.398438C4.66268 0.398438 5.19999 0.935742 5.19999 1.59844V13.9984Z" fill="#F7BA61"/>
<path d="M7.20001 2.39844H11.2V3.19844H7.20001V2.39844Z" fill="#EEE1B5"/>
<path d="M7.20001 4H11.2V4.8H7.20001V4Z" fill="#EEE1B5"/>
<path d="M8.80002 17.6016H16.8V18.4016H8.80002V17.6016Z" fill="#EEE1B5"/>
<path d="M8.80002 19.1953H16.8V19.9953H8.80002V19.1953Z" fill="#EEE1B5"/>
<path d="M14.4 16H16.8V16.8H14.4V16Z" fill="#EEE1B5"/>
<path d="M15.2 8L12.8 6V6.8H1.20001V9.2H12.8V10L15.2 8Z" fill="#4799CF"/>
<path d="M22.8 11.2H19.2V2C19.1986 0.895898 18.3041 0.00136719 17.2 0H3.99999C3.11639 0 2.39999 0.716406 2.39999 1.6V6.4H1.19999C0.979089 6.4 0.799988 6.5791 0.799988 6.8V9.2C0.799988 9.4209 0.979089 9.6 1.19999 9.6H2.39999V14C2.39999 14.2209 2.57909 14.4 2.79999 14.4H4.79999V22.4C4.79999 23.2836 5.51639 24 6.39999 24H19.6C20.4836 24 21.2 23.2836 21.2 22.4C21.2 21.5164 20.4836 20.8 19.6 20.8H19.2V14.4H22.8C23.0209 14.4 23.2 14.2209 23.2 14V11.6C23.2 11.3791 23.0209 11.2 22.8 11.2ZM3.19999 1.6C3.19999 1.1582 3.55819 0.8 3.99999 0.8C4.44179 0.8 4.79999 1.1582 4.79999 1.6V6.4H3.19999V1.6ZM1.59999 7.2H12.8C13.0012 7.2 13.1711 7.05078 13.1969 6.85117L14.5752 8L13.1969 9.14883C13.1711 8.94922 13.0012 8.8 12.8 8.8H1.59999V7.2ZM3.19999 13.6V9.6H4.79999V13.6H3.19999ZM20.4 22.4C20.4 22.8418 20.0418 23.2 19.6 23.2H7.78514C7.92636 22.957 8.00038 22.6811 7.99999 22.4V21.6H19.6C20.0418 21.6 20.4 21.9582 20.4 22.4ZM18.4 20.8H7.59999C7.37909 20.8 7.19999 20.9791 7.19999 21.2V22.4C7.19999 22.8418 6.84179 23.2 6.39999 23.2C5.95819 23.2 5.59999 22.8418 5.59999 22.4V9.6H12.4V10C12.4 10.1553 12.4898 10.2967 12.6305 10.3625C12.7711 10.4283 12.9371 10.4068 13.0564 10.3072L15.4564 8.30723C15.5475 8.23125 15.6002 8.11875 15.6002 8C15.6002 7.88125 15.5475 7.76875 15.4564 7.69277L13.0564 5.69277C12.9371 5.59316 12.7711 5.57168 12.6305 5.6375C12.4898 5.70332 12.4 5.84473 12.4 6V6.4H5.59999V1.6C5.59862 1.31836 5.52206 1.04219 5.37831 0.8H17.2C17.8627 0.8 18.4 1.3373 18.4 2V11.2H11.6V10.8C11.6 10.6447 11.5101 10.5033 11.3695 10.4375C11.2289 10.3717 11.0629 10.3932 10.9435 10.4928L8.54354 12.4928C8.45253 12.5688 8.39979 12.6813 8.39979 12.8C8.39979 12.9187 8.45253 13.0312 8.54354 13.1072L10.9435 15.1072C11.0629 15.2068 11.2289 15.2283 11.3695 15.1625C11.5101 15.0967 11.6 14.9553 11.6 14.8V14.4H18.4V20.8ZM22.4 13.6H11.2C11.1484 13.6002 11.0974 13.6105 11.05 13.6305C11.0353 13.6381 11.0213 13.6467 11.0076 13.6561C10.9789 13.6709 10.9519 13.6891 10.9275 13.7104C10.9146 13.7248 10.9027 13.74 10.892 13.7561C10.8724 13.7785 10.8558 13.8031 10.842 13.8297C10.8342 13.8484 10.8281 13.868 10.8236 13.8881C10.8152 13.9076 10.8086 13.9279 10.8039 13.9488L9.42479 12.8L10.8031 11.6512C10.8078 11.6721 10.8144 11.6924 10.8228 11.7119C10.8271 11.732 10.8334 11.7516 10.8412 11.7703C10.8549 11.7969 10.8717 11.8215 10.8912 11.8439C10.9019 11.86 10.9139 11.8752 10.9267 11.8896C10.9512 11.9109 10.9781 11.9291 11.0068 11.9439C11.0205 11.9533 11.0346 11.9619 11.0492 11.9695C11.0969 11.9896 11.1482 12 11.2 12H22.4V13.6Z" fill="black"/>
<path d="M7.20001 2.39844H11.2V3.19844H7.20001V2.39844Z" fill="black"/>
<path d="M7.20001 4H11.2V4.8H7.20001V4Z" fill="black"/>
<path d="M8.79999 17.6016H16.8V18.4016H8.79999V17.6016Z" fill="black"/>
<path d="M8.79999 19.2031H16.8V20.0031H8.79999V19.2031Z" fill="black"/>
<path d="M14.4 16H16.8V16.8H14.4V16Z" fill="black"/>
</g>
<defs>
<clipPath id="clip0_7378_14061">
<rect width="24" height="24" fill="white"/>
</clipPath>
</defs>
</svg>
