<svg width="66" height="66" viewBox="0 0 66 66" fill="none" xmlns="http://www.w3.org/2000/svg">
<g filter="url(#filter0_d_2405_4652)">
<circle cx="33" cy="28" r="26" fill="#49A4FF"/>
</g>
<path d="M29.0847 24.8334C29.0847 26.2256 27.6361 27.5417 25.5917 27.5417C23.5473 27.5417 22.0987 26.2256 22.0987 24.8334C22.0987 23.4411 23.5473 22.125 25.5917 22.125C27.6361 22.125 29.0847 23.4411 29.0847 24.8334Z" fill="white" stroke="white" stroke-width="1.08333"/>
<path d="M44.0907 24.8334C44.0907 26.2256 42.6421 27.5417 40.5977 27.5417C38.5533 27.5417 37.1047 26.2256 37.1047 24.8334C37.1047 23.4411 38.5533 22.125 40.5977 22.125C42.6421 22.125 44.0907 23.4411 44.0907 24.8334Z" fill="white" stroke="white" stroke-width="1.08333"/>
<path d="M29.6264 32.9583H20.8846C20.6605 32.9583 19.5398 32.4166 20.2122 31.3333C20.9339 30.1705 22.0054 29.3472 22.902 29.1666H27.6091C28.954 29.1666 29.7609 29.925 30.2989 30.7916C31.557 32.8185 30.9713 32.9583 29.6264 32.9583Z" fill="white" stroke="white" stroke-width="1.08333"/>
<path d="M44.6323 32.9583H35.8905C35.6664 32.9583 34.5456 32.4166 35.2181 31.3333C35.9398 30.1705 37.0112 29.3472 37.9078 29.1666H42.615C43.9598 29.1666 44.7668 29.925 45.3047 30.7916C46.5629 32.8185 45.9772 32.9583 44.6323 32.9583Z" fill="white" stroke="white" stroke-width="1.08333"/>
<path d="M22.902 20.5L28.6293 17.9864L23.5888 14.2832L22.902 20.5ZM26.1477 16.9765C27.6662 15.631 29.6999 14.5417 32.1241 14.5417L32.1241 13.4583C29.3603 13.4583 27.0816 14.7016 25.4293 16.1656L26.1477 16.9765ZM32.1241 14.5417C36.1246 14.5417 38.6569 15.5436 40.3884 16.7952C42.1369 18.0592 43.1075 19.5979 43.9799 20.8155L44.8605 20.1845C44.0252 19.0187 42.9464 17.3075 41.0231 15.9173C39.0829 14.5148 36.321 13.4583 32.1241 13.4583L32.1241 14.5417Z" fill="white"/>
<path d="M44.42 34.5833L38.4442 36.4298L43.0312 40.6818L44.42 34.5833ZM35.1979 40V40.5417V40ZM40.8041 37.7088C39.338 38.6927 37.4382 39.4583 35.1979 39.4583V40.5417C37.6933 40.5417 39.7996 39.6876 41.4078 38.6083L40.8041 37.7088ZM35.1979 39.4583C31.1782 39.4583 28.632 38.6183 26.8958 37.5725C25.1501 36.5209 24.1846 35.2444 23.3125 34.2302L22.4911 34.9365C23.3268 35.9084 24.4107 37.3402 26.3368 38.5004C28.2723 39.6664 31.0203 40.5417 35.1979 40.5417L35.1979 39.4583Z" fill="white"/>
<defs>
<filter id="filter0_d_2405_4652" x="0.5" y="0.5" width="65" height="65" filterUnits="userSpaceOnUse" color-interpolation-filters="sRGB">
<feFlood flood-opacity="0" result="BackgroundImageFix"/>
<feColorMatrix in="SourceAlpha" type="matrix" values="0 0 0 0 0 0 0 0 0 0 0 0 0 0 0 0 0 0 127 0" result="hardAlpha"/>
<feOffset dy="5"/>
<feGaussianBlur stdDeviation="3.25"/>
<feComposite in2="hardAlpha" operator="out"/>
<feColorMatrix type="matrix" values="0 0 0 0 0 0 0 0 0 0 0 0 0 0 0 0 0 0 0.2 0"/>
<feBlend mode="normal" in2="BackgroundImageFix" result="effect1_dropShadow_2405_4652"/>
<feBlend mode="normal" in="SourceGraphic" in2="effect1_dropShadow_2405_4652" result="shape"/>
</filter>
</defs>
</svg>