<svg width="18" height="18" viewBox="0 0 18 18" fill="none" xmlns="http://www.w3.org/2000/svg">
<g clip-path="url(#clip0_985_2878)">
<path d="M16.425 13.4999H16V13.0749C16 12.9224 15.9394 12.7762 15.8316 12.6684C15.7238 12.5605 15.5775 12.4999 15.425 12.4999H14V8.81494H12V12.4999H10V8.81494H8V12.4999H6V8.81494H4V12.4999H2.575C2.4225 12.4999 2.27625 12.5605 2.16841 12.6684C2.06058 12.7762 2 12.9224 2 13.0749V13.4999H1.575C1.4225 13.4999 1.27625 13.5605 1.16841 13.6684C1.06058 13.7762 1 13.9224 1 14.0749V15.4999H17V14.0749C17 13.9224 16.9394 13.7762 16.8316 13.6684C16.7238 13.5605 16.5775 13.4999 16.425 13.4999Z" fill="#570033"/>
<path d="M11.2499 7.49996C10.9439 7.49626 10.6442 7.4126 10.3805 7.25728C10.1168 7.10197 9.89831 6.8804 9.74669 6.61456C9.59507 6.34873 9.5156 6.04787 9.51617 5.74183C9.51674 5.4358 9.59732 5.13523 9.74993 4.86996L9.81993 4.74996L9.14493 4.35996L7.17493 5.49996H5.56993L8.92993 3.56996C8.99074 3.53485 9.05971 3.51637 9.12993 3.51637C9.20014 3.51637 9.26912 3.53485 9.32993 3.56996L10.2049 4.06996L11.0299 2.63996L8.99993 1.45996L1.24993 5.91496C1.19017 5.94622 1.13736 5.98924 1.09467 6.04144C1.05197 6.09363 1.02028 6.15393 1.00149 6.21869C0.9827 6.28346 0.977206 6.35135 0.985338 6.41829C0.993469 6.48524 1.01506 6.54984 1.04881 6.60823C1.08255 6.66661 1.12776 6.71756 1.18171 6.75802C1.23566 6.79848 1.29724 6.8276 1.36273 6.84365C1.42823 6.85969 1.4963 6.86232 1.56284 6.85137C1.62938 6.84043 1.69302 6.81614 1.74993 6.77996L2.49993 6.33996V7.99996H15.4999V7.49996H11.2499Z" fill="#570033"/>
<path d="M13.4249 0.569907L10.5649 5.49991C10.4984 5.59757 10.4602 5.71175 10.4546 5.8298C10.449 5.94784 10.4761 6.06513 10.5331 6.16868C10.59 6.27223 10.6745 6.35799 10.7772 6.41645C10.8799 6.47492 10.9968 6.5038 11.1149 6.49991H16.8399C16.9581 6.5038 17.0749 6.47492 17.1776 6.41645C17.2803 6.35799 17.3649 6.27223 17.4218 6.16868C17.4788 6.06513 17.5059 5.94784 17.5003 5.8298C17.4947 5.71175 17.4565 5.59757 17.3899 5.49991L14.5299 0.569907C14.4735 0.473435 14.3929 0.393412 14.2959 0.337802C14.199 0.282191 14.0892 0.25293 13.9774 0.25293C13.8657 0.25293 13.7559 0.282191 13.659 0.337802C13.562 0.393412 13.4813 0.473435 13.4249 0.569907Z" fill="#570033"/>
</g>
<defs>
<clipPath id="clip0_985_2878">
<rect width="18" height="18" fill="white"/>
</clipPath>
</defs>
</svg>
