<svg width="16" height="16" viewBox="0 0 16 16" fill="none" xmlns="http://www.w3.org/2000/svg">
<path d="M1.33594 5.33398V8.00132H2.0026V12.0007H1.33594V14.0007H12.0026L14.0026 14.0013L14.6693 14.0007V12.0007H14.0026V8.00132H14.6693V5.33398L8.0026 1.33398L1.33594 5.33398ZM4.0026 12.0007V8.00132H5.33594V12.0007H4.0026ZM7.33594 12.0007V8.00132H8.66927V12.0007H7.33594ZM12.0026 12.0007H10.6693V8.00132H12.0026V12.0007ZM9.33594 5.33398C9.33589 5.50912 9.30135 5.68254 9.23429 5.84433C9.16723 6.00612 9.06895 6.15312 8.94508 6.27693C8.82121 6.40074 8.67416 6.49894 8.51233 6.56593C8.35051 6.63291 8.17708 6.66736 8.00194 6.66732C7.8268 6.66727 7.65338 6.63273 7.49159 6.56567C7.3298 6.49861 7.1828 6.40033 7.05899 6.27646C6.93518 6.15259 6.83698 6.00554 6.77 5.84371C6.70301 5.68189 6.66856 5.50846 6.6686 5.33332C6.66869 4.97961 6.80929 4.64042 7.05946 4.39037C7.30963 4.14032 7.64889 3.9999 8.0026 3.99998C8.35631 4.00007 8.6955 4.14067 8.94555 4.39084C9.1956 4.64102 9.33603 4.98027 9.33594 5.33398Z" fill="#330E67"/>
</svg>
