<svg width="40" height="40" viewBox="0 0 40 40" fill="none" xmlns="http://www.w3.org/2000/svg">
<circle cx="20" cy="20" r="19.5" fill="#F4F4F4" stroke="url(#paint0_linear_8581_11591)"/>
<path d="M19.962 25.9857H26.772C27.0372 26.0006 27.3018 25.9473 27.5405 25.8309C27.7793 25.7145 27.9842 25.5388 28.1358 25.3208C28.2874 25.1027 28.3806 24.8494 28.4066 24.585C28.4325 24.3207 28.3903 24.0541 28.284 23.8107C27.924 22.7227 26.489 21.4177 26.489 20.1337C26.489 17.2837 26.489 16.5337 25.085 14.8577C24.6301 14.3188 24.0669 13.8817 23.432 13.5747L22.649 13.1947C22.5172 13.116 22.4035 13.0102 22.3154 12.8844C22.2274 12.7586 22.1669 12.6156 22.138 12.4647C22.0597 11.9571 21.7913 11.4983 21.3873 11.1813C20.9832 10.8643 20.4736 10.7129 19.962 10.7577C19.4596 10.7276 18.964 10.8857 18.572 11.2014C18.18 11.517 17.9197 11.9675 17.842 12.4647C17.8068 12.6205 17.7378 12.7667 17.6398 12.8929C17.5418 13.019 17.4173 13.1221 17.275 13.1947L16.492 13.5747C15.8574 13.8818 15.2946 14.3189 14.84 14.8577C13.437 16.5337 13.437 17.2837 13.437 20.1337C13.437 21.4177 12.067 22.5917 11.707 23.7447C11.49 24.4417 11.37 25.9857 13.187 25.9857H19.962Z" stroke="#003087" stroke-width="1.5" stroke-linecap="round" stroke-linejoin="round"/>
<path d="M23.225 25.9844C23.2339 26.4153 23.1555 26.8436 22.9947 27.2435C22.8338 27.6434 22.5938 28.0066 22.289 28.3114C21.9842 28.6162 21.621 28.8562 21.2211 29.017C20.8212 29.1779 20.393 29.2562 19.962 29.2474C19.5311 29.2565 19.1027 29.1784 18.7027 29.0176C18.3028 28.8568 17.9395 28.6168 17.6347 28.312C17.33 28.0071 17.0901 27.6437 16.9294 27.2437C16.7688 26.8437 16.6907 26.4153 16.7 25.9844" stroke="#003087" stroke-width="1.5" stroke-linecap="round" stroke-linejoin="round"/>
<circle cx="27" cy="16" r="4" fill="#AE3333"/>
<defs>
<linearGradient id="paint0_linear_8581_11591" x1="-6" y1="29" x2="45.5" y2="13" gradientUnits="userSpaceOnUse">
<stop stop-color="#0098EE"/>
<stop offset="1" stop-color="#E264F7"/>
</linearGradient>
</defs>
</svg>
