<svg width="16" height="16" viewBox="0 0 16 16" fill="none" xmlns="http://www.w3.org/2000/svg">
<path d="M3.33073 4H15.3307V12H3.33073V4ZM9.33073 6C9.86116 6 10.3699 6.21071 10.7449 6.58579C11.12 6.96086 11.3307 7.46957 11.3307 8C11.3307 8.53043 11.12 9.03914 10.7449 9.41421C10.3699 9.78929 9.86116 10 9.33073 10C8.8003 10 8.29159 9.78929 7.91652 9.41421C7.54144 9.03914 7.33073 8.53043 7.33073 8C7.33073 7.46957 7.54144 6.96086 7.91652 6.58579C8.29159 6.21071 8.8003 6 9.33073 6ZM5.9974 5.33333C5.9974 5.68696 5.85692 6.02609 5.60687 6.27614C5.35682 6.52619 5.01768 6.66667 4.66406 6.66667V9.33333C5.01768 9.33333 5.35682 9.47381 5.60687 9.72386C5.85692 9.97391 5.9974 10.313 5.9974 10.6667H12.6641C12.6641 10.313 12.8045 9.97391 13.0546 9.72386C13.3046 9.47381 13.6438 9.33333 13.9974 9.33333V6.66667C13.6438 6.66667 13.3046 6.52619 13.0546 6.27614C12.8045 6.02609 12.6641 5.68696 12.6641 5.33333H5.9974ZM0.664062 6.66667H1.9974V13.3333H12.6641V14.6667H0.664062V6.66667Z" fill="#431807"/>
</svg>
