<svg width="16" height="16" viewBox="0 0 16 16" fill="none" xmlns="http://www.w3.org/2000/svg">
<path d="M9 10.666C9 10.9312 8.89464 11.1856 8.70711 11.3731C8.51957 11.5607 8.26522 11.666 8 11.666C7.73478 11.666 7.48043 11.5607 7.29289 11.3731C7.10536 11.1856 7 10.9312 7 10.666C7 10.4008 7.10536 10.1464 7.29289 9.95891C7.48043 9.77137 7.73478 9.66602 8 9.66602C8.26522 9.66602 8.51957 9.77137 8.70711 9.95891C8.89464 10.1464 9 10.4008 9 10.666Z" fill="#003B12"/>
<path d="M9.56467 0.439453L11.6847 3.41012L13.0827 2.93345L14.3587 6.66612H15V14.6661H1V6.66612H1.34V6.65945L1.772 6.66345L9.56467 0.439453ZM6.26467 6.66612H12.95L12.2587 4.64412L11.244 4.96879L6.26467 6.66612ZM5.226 5.61079L10.3667 3.85945L9.29733 2.35945L5.226 5.61079ZM3.66667 7.99945H2.33333V9.33279C2.68696 9.33279 3.02609 9.19231 3.27614 8.94226C3.52619 8.69221 3.66667 8.35308 3.66667 7.99945ZM10.3333 10.6661C10.3333 10.3597 10.273 10.0563 10.1557 9.77319C10.0385 9.4901 9.86659 9.23288 9.64992 9.01621C9.43325 8.79954 9.17602 8.62766 8.89293 8.5104C8.60984 8.39314 8.30642 8.33279 8 8.33279C7.69358 8.33279 7.39017 8.39314 7.10707 8.5104C6.82398 8.62766 6.56675 8.79954 6.35008 9.01621C6.13341 9.23288 5.96154 9.4901 5.84428 9.77319C5.72702 10.0563 5.66667 10.3597 5.66667 10.6661C5.66667 11.285 5.9125 11.8785 6.35008 12.316C6.78767 12.7536 7.38116 12.9995 8 12.9995C8.61884 12.9995 9.21233 12.7536 9.64992 12.316C10.0875 11.8785 10.3333 11.285 10.3333 10.6661ZM13.6667 13.3328V11.9995C13.313 11.9995 12.9739 12.1399 12.7239 12.39C12.4738 12.64 12.3333 12.9792 12.3333 13.3328H13.6667ZM12.3333 7.99945C12.3333 8.35308 12.4738 8.69221 12.7239 8.94226C12.9739 9.19231 13.313 9.33279 13.6667 9.33279V7.99945H12.3333ZM2.33333 13.3328H3.66667C3.66667 12.9792 3.52619 12.64 3.27614 12.39C3.02609 12.1399 2.68696 11.9995 2.33333 11.9995V13.3328Z" fill="#003B12"/>
</svg>
