<svg width="40" height="40" viewBox="-7 -9 40 40" fill="none" xmlns="http://www.w3.org/2000/svg">
<g id="Frame" clip-path="url(#clip0_3088_8377)">
<path id="Vector" d="M21.2354 14.2714L21.1212 14.3329C20.6247 13.7367 19.7692 13.5065 19.1173 13.837L19.1102 13.8407L18.8291 13.9921C18.1222 13.3978 17.1191 13.3088 16.3187 13.7696L14.771 14.6111H12.7107C12.2657 14.6105 11.8265 14.5099 11.4256 14.3167L11.1417 14.1794C9.49065 13.3759 7.52827 13.5677 6.06371 14.6754C6.05664 14.6806 6.04999 14.686 6.04334 14.692L5.35816 15.3019C5.10322 15.5284 4.80232 15.6972 4.47605 15.7964L4.0899 14.53C4.04893 14.3955 3.925 14.3038 3.78443 14.3038H0.470821C0.379325 14.3036 0.292196 14.3429 0.231684 14.4113C0.170964 14.4797 0.142683 14.571 0.153704 14.6617L1.25831 23.7185C1.27786 23.8788 1.41385 23.9992 1.57543 23.9992H6.54552C6.64679 23.9992 6.74203 23.9512 6.80234 23.8699C6.86243 23.7886 6.88052 23.6836 6.85099 23.5867L6.20033 21.4519L8.22655 20.1712C8.49626 20.0223 8.81254 19.9813 9.11115 20.0568C9.1178 20.0585 9.12446 20.0599 9.13111 20.0612L13.2676 20.8229C14.3942 21.0244 15.5556 20.8605 16.5822 20.355C16.5957 20.3481 16.6088 20.3407 16.6213 20.3319L23.7759 15.4196C23.9152 15.324 23.9559 15.1362 23.8686 14.9915C23.325 14.0857 22.1645 13.7683 21.2354 14.2714ZM19.4094 14.4053C19.7769 14.2212 20.2385 14.3685 20.5382 14.6475L17.8382 16.1042L17.6901 16.1822C17.6053 15.9457 17.4834 15.7243 17.3289 15.5263L19.4094 14.4053ZM16.6277 14.3287L16.6352 14.3246C17.1208 14.0439 17.7197 14.0457 18.2033 14.3294L16.8467 15.0603C16.5918 14.8752 16.3023 14.7434 15.9954 14.6723L16.6277 14.3287ZM1.85802 23.3604L0.831398 14.9426H3.54758L6.11404 23.3604H1.85802ZM16.2784 19.7923C15.3799 20.2294 14.3659 20.3704 13.3821 20.1945L9.25609 19.4346C8.79965 19.3221 8.31742 19.3874 7.90736 19.6176C7.90257 19.6203 7.89758 19.6232 7.8928 19.6264L6.00674 20.8185L4.66216 16.4082C5.07681 16.2818 5.45901 16.067 5.78278 15.779L6.45798 15.1778C7.73081 14.2212 9.4318 14.0578 10.8635 14.7542L11.1471 14.8914C11.635 15.1266 12.1692 15.2489 12.7105 15.2497H15.4624C16.2861 15.2508 16.9948 15.8328 17.1561 16.6407L15.1755 16.5511C14.4497 16.5184 13.7225 16.5519 13.0028 16.6513C12.8282 16.6756 12.7061 16.8368 12.7302 17.0117C12.7546 17.1863 12.9157 17.3084 13.0906 17.2841C13.7716 17.1901 14.4597 17.1583 15.1466 17.1892L17.4938 17.2957C17.4986 17.2957 17.5034 17.2959 17.5082 17.2959C17.6847 17.2959 17.8276 17.1531 17.8276 16.9765C17.8276 16.9287 17.8259 16.8815 17.823 16.8343L18.1387 16.6679L21.539 14.8336C22.0674 14.5475 22.722 14.6492 23.1387 15.0821L16.2784 19.7923Z" fill="#0E3203"/>
<path id="Vector_2" d="M2.81787 22.0956C2.81787 22.6379 3.25768 23.0775 3.8002 23.0775C4.34253 23.0773 4.78212 22.6375 4.78191 22.095C4.78191 21.5527 4.34211 21.1131 3.79958 21.1133C3.25747 21.1139 2.81829 21.5535 2.81787 22.0956ZM3.79979 21.7523C3.98943 21.7523 4.14311 21.906 4.14311 22.0956C4.14331 22.2851 3.98943 22.4389 3.8 22.4389C3.61035 22.4389 3.45668 22.2853 3.45668 22.0956C3.45668 21.906 3.61014 21.7523 3.79958 21.7521L3.79979 21.7523Z" fill="#0E3203"/>
<path id="Vector_3" d="M12.0324 12.2895C15.1489 12.2895 17.6752 9.76318 17.6752 6.64671C17.6752 3.53023 15.1489 1.00391 12.0324 1.00391C8.91597 1.00391 6.38965 3.53023 6.38965 6.64671C6.39318 9.76172 8.91743 12.286 12.0324 12.2895ZM12.0324 1.64271C14.796 1.64271 17.0364 3.88312 17.0364 6.64671C17.0364 9.4103 14.796 11.6507 12.0324 11.6507C9.26886 11.6507 7.02846 9.4103 7.02846 6.64671C7.03158 3.88436 9.2701 1.64583 12.0324 1.64271Z" fill="#0E3203"/>
<path id="Vector_4" d="M11.325 6.62683H11.3132L10.3664 6.61665H10.3629C10.2327 6.61665 10.1154 6.69566 10.0668 6.81627C10.0179 6.93709 10.0474 7.07537 10.141 7.16583L12.4833 9.42723C12.6103 9.54992 12.8125 9.54638 12.9349 9.41933C13.0574 9.29248 13.0539 9.09036 12.927 8.96767L11.1624 7.26419L11.3061 7.26585C12.1431 7.27458 12.8678 6.68568 13.0304 5.86451L13.6833 5.87158H13.6867C13.8632 5.87241 14.0069 5.73018 14.0077 5.55384C14.0088 5.37729 13.8665 5.2336 13.6902 5.23277L13.0377 5.2257C12.988 4.93832 12.8661 4.6682 12.6833 4.44092L13.6985 4.45152H13.7021C13.8784 4.45256 14.0221 4.31033 14.0231 4.13378C14.024 3.95744 13.8817 3.81375 13.7054 3.81271L11.3433 3.78734L10.3966 3.77736C10.2202 3.77549 10.0757 3.91689 10.0738 4.09323C10.072 4.26978 10.2134 4.4143 10.3897 4.41617L11.3365 4.42615C11.8212 4.43177 12.2452 4.75325 12.3816 5.21842L10.3814 5.19721H10.3778C10.2015 5.19617 10.0576 5.33841 10.0568 5.51495C10.0557 5.69129 10.1982 5.83498 10.3745 5.83602L12.3739 5.85723C12.2292 6.31471 11.805 6.626 11.325 6.62683Z" fill="#0E3203"/>
<path id="Vector_5" d="M19.8765 3.60156C19.7 3.60156 19.5571 3.74463 19.5571 3.92097V4.45331C19.5571 4.62985 19.7 4.77271 19.8765 4.77271C20.0529 4.77271 20.1959 4.62985 20.1959 4.45331V3.92097C20.1959 3.74463 20.0529 3.60156 19.8765 3.60156Z" fill="#0E3203"/>
<path id="Vector_6" d="M19.8765 5.19922C19.7 5.19922 19.5571 5.34229 19.5571 5.51862V6.05096C19.5571 6.22751 19.7 6.37037 19.8765 6.37037C20.0529 6.37037 20.1959 6.22751 20.1959 6.05096V5.51862C20.1959 5.34229 20.0529 5.19922 19.8765 5.19922Z" fill="#0E3203"/>
<path id="Vector_7" d="M18.8121 4.66797C18.6355 4.66797 18.4927 4.81104 18.4927 4.98737C18.4927 5.16392 18.6355 5.30678 18.8121 5.30678H19.3444C19.5208 5.30678 19.6638 5.16392 19.6638 4.98737C19.6638 4.81104 19.5208 4.66797 19.3444 4.66797H18.8121Z" fill="#0E3203"/>
<path id="Vector_8" d="M20.9416 5.30678C21.1179 5.30678 21.261 5.16392 21.261 4.98737C21.261 4.81104 21.1179 4.66797 20.9416 4.66797H20.4092C20.2327 4.66797 20.0898 4.81104 20.0898 4.98737C20.0898 5.16392 20.2327 5.30678 20.4092 5.30678H20.9416Z" fill="#0E3203"/>
<path id="Vector_9" d="M5.86872 0C5.69238 0 5.54932 0.143066 5.54932 0.319404V0.851743C5.54932 1.02808 5.69238 1.17115 5.86872 1.17115C6.04527 1.17115 6.18812 1.02808 6.18812 0.851743V0.319404C6.18812 0.143066 6.04527 0 5.86872 0Z" fill="#0E3203"/>
<path id="Vector_10" d="M5.86872 1.59766C5.69238 1.59766 5.54932 1.74072 5.54932 1.91706V2.4494C5.54932 2.62574 5.69238 2.7688 5.86872 2.7688C6.04527 2.7688 6.18812 2.62574 6.18812 2.4494V1.91706C6.18812 1.74072 6.04527 1.59766 5.86872 1.59766Z" fill="#0E3203"/>
<path id="Vector_11" d="M4.80427 1.06641C4.62793 1.06641 4.48486 1.20947 4.48486 1.38581C4.48486 1.56215 4.62793 1.70521 4.80427 1.70521H5.33661C5.51315 1.70521 5.65601 1.56215 5.65601 1.38581C5.65601 1.20947 5.51315 1.06641 5.33661 1.06641H4.80427Z" fill="#0E3203"/>
<path id="Vector_12" d="M6.93329 1.06641H6.40095C6.22461 1.06641 6.08154 1.20947 6.08154 1.38581C6.08154 1.56215 6.22461 1.70521 6.40095 1.70521H6.93329C7.10983 1.70521 7.25269 1.56215 7.25269 1.38581C7.25269 1.20947 7.10983 1.06641 6.93329 1.06641Z" fill="#0E3203"/>
</g>
<defs>
<clipPath id="clip0_3088_8377">
<rect width="24" height="24" fill="white"/>
</clipPath>
</defs>
</svg>
