<?xml version="1.0" encoding="UTF-8"?>
<svg version="1.1" xmlns="http://www.w3.org/2000/svg" width="512" height="512">
<path d="M0 0 C1.07239426 -0.00571014 2.14478851 -0.01142029 3.24967957 -0.01730347 C5.00695374 -0.01898026 5.00695374 -0.01898026 6.79972839 -0.02069092 C8.03752548 -0.02565582 9.27532257 -0.03062073 10.55062866 -0.03573608 C13.94333136 -0.04783404 17.33597251 -0.05530003 20.72868943 -0.05974674 C22.85011131 -0.06268154 24.97152783 -0.06678711 27.09294701 -0.07125092 C33.73564497 -0.08491907 40.37833064 -0.09458909 47.02104169 -0.09845281 C54.67936791 -0.10293221 62.33751552 -0.1204774 69.99578744 -0.1494534 C75.9220468 -0.17109495 81.84825599 -0.1811584 87.77455443 -0.18249393 C91.31103399 -0.18354018 94.84734551 -0.18940942 98.38378334 -0.20731354 C102.33108361 -0.22690968 106.27816195 -0.22249537 110.22550964 -0.21600342 C111.39095306 -0.2252182 112.55639648 -0.23443298 113.75715637 -0.243927 C120.70150542 -0.2081459 126.23719387 0.09943102 131.66764832 4.85919189 C132.13428894 5.44700439 132.60092957 6.03481689 133.08171082 6.64044189 C133.80487488 7.52216064 133.80487488 7.52216064 134.54264832 8.42169189 C137.19273813 12.33457618 136.86787399 16.42763097 136.87467957 20.95684814 C136.87800797 21.72794418 136.88133636 22.49904022 136.88476562 23.29350281 C136.88982885 24.92843022 136.89217414 26.56336797 136.89201355 28.19830322 C136.89418142 30.66943062 136.91229122 33.14009771 136.93132019 35.61114502 C136.9989875 53.60882649 136.9989875 53.60882649 134.70671082 59.14044189 C132.74523208 60.52982267 130.74504506 61.86648299 128.70671082 63.14044189 C127.50535341 65.86100463 127.14722221 68.15475355 126.70671082 71.14044189 C127.03671082 71.47044189 127.36671082 71.80044189 127.70671082 72.14044189 C127.89421082 75.07794189 127.89421082 75.07794189 127.70671082 78.14044189 C125.70671082 80.14044189 125.70671082 80.14044189 123.33171082 80.32794189 C119.8196314 81.41501409 119.09245057 83.07802063 117.30827332 86.15606689 C116.50641055 88.20785092 116.50641055 88.20785092 117.27702332 90.60919189 C117.70671082 93.14044189 117.70671082 93.14044189 116.65983582 95.28106689 C110.02060759 103.50396424 102.14324945 110.31732215 92.70671082 115.14044189 C95.31766595 116.50865658 97.8483782 117.57849931 100.66374207 118.44512939 C119.79813059 124.57876616 138.0196061 133.47557974 153.70671082 146.14044189 C154.27647644 146.59886475 154.84624207 147.0572876 155.43327332 147.52960205 C199.3845374 183.2884086 227.05605588 234.58184589 236.70671082 290.14044189 C236.89136902 291.18434082 236.89136902 291.18434082 237.07975769 292.24932861 C239.30592477 305.39886284 239.33217207 318.83974902 239.70671082 332.14044189 C242.5399001 329.33195513 245.36980703 326.5202069 248.19670105 323.7053833 C249.15901777 322.74809809 250.12222973 321.79171196 251.08634949 320.83624268 C252.47126527 319.46344402 253.85271073 318.08714718 255.23405457 316.71075439 C256.06670837 315.8833374 256.89936218 315.05592041 257.75724792 314.20343018 C260.77231126 311.01278707 260.83826845 309.16582861 260.8802948 304.87139893 C260.90052956 303.21794968 260.90052956 303.21794968 260.9211731 301.53109741 C260.93161148 300.33225922 260.94204987 299.13342102 260.95280457 297.89825439 C260.98577291 295.361793 261.018984 292.82533475 261.05241394 290.28887939 C261.09961358 286.28889349 261.14397846 282.28894859 261.18351746 278.28887939 C261.22356092 274.42936067 261.27505797 270.57011762 261.32780457 266.71075439 C261.33621872 265.53215851 261.34463287 264.35356262 261.353302 263.13925171 C261.66399638 241.97161069 261.66399638 241.97161069 267.81999207 234.83184814 C272.89944275 230.27822052 278.38603421 227.8820412 285.20671082 227.51544189 C291.13306697 227.84235546 295.97188865 229.5396593 300.70671082 233.14044189 C306.2369656 239.55868474 307.85598015 244.95547891 307.86784363 253.32452393 C307.87280853 254.15906601 307.87777344 254.99360809 307.88288879 255.85343933 C307.89750933 258.61838606 307.90431377 261.38327533 307.90983582 264.14825439 C307.91558926 266.07296754 307.92134697 267.99768068 307.92710876 269.9223938 C307.93761976 273.96252713 307.94346115 278.00264056 307.94694519 282.04278564 C307.95241692 287.20414718 307.97641623 292.36524318 308.00491714 297.52652168 C308.02360374 301.50553131 308.02875242 305.48447789 308.03028107 309.46352768 C308.03329673 311.36520711 308.04128834 313.26688572 308.05446625 315.16852188 C308.0716458 317.83921299 308.06961719 320.50926775 308.06315613 323.17999268 C308.07237091 323.95643631 308.08158569 324.73287994 308.09107971 325.53285217 C308.03876345 332.4850024 306.65739494 339.85447916 301.67546082 345.01544189 C301.06186707 345.66512939 300.44827332 346.31481689 299.81608582 346.98419189 C299.11999207 347.69575439 298.42389832 348.40731689 297.70671082 349.14044189 C296.90749207 349.99637939 296.10827332 350.85231689 295.28483582 351.73419189 C292.62474091 354.56950263 289.92100376 357.35704389 287.20671082 360.14044189 C286.74989929 360.624646 286.29308777 361.1088501 285.82243347 361.60772705 C284.47824795 363.03101034 283.10834877 364.42986934 281.73796082 365.82794189 C280.9393866 366.65680908 280.14081238 367.48567627 279.31803894 368.33966064 C275.94467778 370.66594261 273.7234465 370.34257137 269.70671082 370.14044189 C267.14332393 371.62037345 267.14332393 371.62037345 265.70671082 374.14044189 C265.66505319 376.14000801 265.66505319 378.14087578 265.70671082 380.14044189 C264.64421082 382.51544189 264.64421082 382.51544189 262.70671082 384.14044189 C261.03608582 384.07856689 261.03608582 384.07856689 259.33171082 384.01544189 C255.50128854 383.76025492 255.50128854 383.76025492 252.76921082 386.76544189 C250.38168704 389.87259158 250.38168704 389.87259158 251.07487488 392.82427979 C250.47222953 398.25248391 246.58934477 400.93266324 242.75358582 404.57403564 C241.53593536 405.76827904 241.53593536 405.76827904 240.29368591 406.98664856 C237.69517315 409.5317179 235.07756085 412.05589661 232.45671082 414.57794189 C229.85273734 417.09884057 227.25333744 419.62404004 224.6625824 422.15852356 C223.0503779 423.73420829 221.43021857 425.30180671 219.8011322 426.86003113 C212.76118077 433.71006296 212.76118077 433.71006296 209.22428894 442.70758057 C209.22880066 443.48335449 209.23331238 444.25912842 209.23796082 445.05841064 C209.22378113 445.92014893 209.20960144 446.78188721 209.19499207 447.66973877 C209.19885925 448.5469458 209.20272644 449.42415283 209.20671082 450.32794189 C209.24603035 459.36488196 209.24603035 459.36488196 206.87858582 462.76934814 C204.70671082 464.14044189 204.70671082 464.14044189 201.45671082 463.89044189 C200.54921082 463.64294189 199.64171082 463.39544189 198.70671082 463.14044189 C198.37671082 461.82044189 198.04671082 460.50044189 197.70671082 459.14044189 C172.95671082 459.14044189 148.20671082 459.14044189 122.70671082 459.14044189 C122.37671082 460.46044189 122.04671082 461.78044189 121.70671082 463.14044189 C118.89421082 463.76544189 118.89421082 463.76544189 115.70671082 464.14044189 C112.70671082 462.14044189 112.70671082 462.14044189 111.70671082 459.14044189 C111.70671082 453.86044189 111.70671082 448.58044189 111.70671082 443.14044189 C76.72671082 443.14044189 41.74671082 443.14044189 5.70671082 443.14044189 C5.70671082 448.42044189 5.70671082 453.70044189 5.70671082 459.14044189 C5.04671082 460.46044189 4.38671082 461.78044189 3.70671082 463.14044189 C0.76921082 464.01544189 0.76921082 464.01544189 -2.29328918 464.14044189 C-3.28328918 463.48044189 -4.27328918 462.82044189 -5.29328918 462.14044189 C-5.29328918 461.15044189 -5.29328918 460.16044189 -5.29328918 459.14044189 C-30.04328918 459.14044189 -54.79328918 459.14044189 -80.29328918 459.14044189 C-80.62328918 460.46044189 -80.95328918 461.78044189 -81.29328918 463.14044189 C-84.04328918 463.89044189 -84.04328918 463.89044189 -87.29328918 464.14044189 C-89.46516418 462.76934814 -89.46516418 462.76934814 -91.29328918 460.14044189 C-91.97667849 456.01411803 -91.79995763 451.84056664 -91.78157043 447.66973877 C-91.79575012 446.80800049 -91.80992981 445.94626221 -91.82453918 445.05841064 C-91.82002747 444.28263672 -91.81551575 443.50686279 -91.81086731 442.70758057 C-93.29169577 434.82756476 -99.48859115 429.54903768 -104.96150208 424.17926025 C-105.83508865 423.31005447 -106.70867523 422.44084869 -107.60873413 421.54530334 C-109.49996614 419.66545805 -111.39365147 417.78855421 -113.29214668 415.91609001 C-116.29664195 412.95237132 -119.28947386 409.97705572 -122.28070068 406.99995422 C-128.63020027 400.68366316 -134.99232568 394.38015982 -141.35578918 388.07794189 C-148.23045625 381.26941438 -155.10287535 374.45870534 -161.96073908 367.63324648 C-164.9320791 364.67681288 -167.91056863 361.7278391 -170.89482701 358.7844485 C-173.18730602 356.5196768 -175.47007345 354.24514773 -177.75447083 351.972229 C-178.57896729 351.16323151 -179.40346375 350.35423401 -180.25294495 349.52072144 C-188.33861295 341.4373165 -190.42436766 335.05695251 -190.48616028 323.74517822 C-190.49433777 322.91195038 -190.50251526 322.07872253 -190.51094055 321.22024536 C-190.53569049 318.47099508 -190.55228471 315.7217961 -190.56672668 312.97247314 C-190.57205036 312.02970709 -190.57737404 311.08694103 -190.58285904 310.11560631 C-190.60954668 305.12446279 -190.62893474 300.13334389 -190.64338684 295.14215088 C-190.65671601 291.02473691 -190.68455633 286.90781968 -190.72541809 282.79058838 C-190.7748865 277.80510606 -190.79952506 272.82007355 -190.80661392 267.83435631 C-190.81330132 265.94184135 -190.82845743 264.04933543 -190.85250473 262.15696144 C-191.08525238 242.73167639 -191.08525238 242.73167639 -185.29328918 235.14044189 C-182.94172668 232.88653564 -182.94172668 232.88653564 -180.66828918 231.57794189 C-179.91289856 231.12290283 -179.15750793 230.66786377 -178.37922668 230.19903564 C-172.4718477 227.20109612 -165.85511088 227.05154212 -159.55891418 228.97637939 C-153.4615041 231.72945243 -149.29936773 235.1273079 -146.29328918 241.14044189 C-144.11460386 249.48679669 -144.04843078 257.93207012 -144.12532043 266.49981689 C-144.11964832 269.0219561 -144.11244166 271.54409224 -144.10383606 274.06622314 C-144.09965055 277.99223273 -144.10601224 281.9171922 -144.13874817 285.84307861 C-144.16566969 289.66688754 -144.14887382 293.48852959 -144.12532043 297.31231689 C-144.14584976 298.48018738 -144.16637909 299.64805786 -144.18753052 300.85131836 C-144.11969273 306.58490816 -143.80535969 310.27085843 -139.97541809 314.70196533 C-138.77200812 315.87326254 -137.54719386 317.02336725 -136.29328918 318.14044189 C-135.26377136 319.22615479 -135.26377136 319.22615479 -134.2134552 320.33380127 C-133.38865662 321.15074463 -133.38865662 321.15074463 -132.54719543 321.98419189 C-131.9381134 322.59005127 -131.32903137 323.19591064 -130.70149231 323.82012939 C-129.78786926 324.72118408 -129.78786926 324.72118408 -128.85578918 325.64044189 C-128.21963684 326.27208252 -127.5834845 326.90372314 -126.92805481 327.55450439 C-125.38546113 329.08549963 -123.83971604 330.61331856 -122.29328918 332.14044189 C-122.28394348 331.49421875 -122.27459778 330.84799561 -122.26496887 330.18218994 C-121.81592894 305.11739706 -118.80589397 281.0985724 -111.29328918 257.14044189 C-111.0424054 256.32092041 -110.79152161 255.50139893 -110.53303528 254.65704346 C-103.60918612 232.34933653 -93.343198 207.52570312 -77.29328918 190.14044189 C-74.9756319 189.42116894 -72.64233045 188.74945259 -70.29328918 188.14044189 C-68.19564754 186.62149384 -68.19564754 186.62149384 -67.29328918 184.14044189 C-67.22244271 182.76711025 -67.20588099 181.39037411 -67.23078918 180.01544189 C-67.25141418 178.73669189 -67.27203918 177.45794189 -67.29328918 176.14044189 C-65.29328918 174.14044189 -65.29328918 174.14044189 -61.91828918 173.76544189 C-58.33854134 173.39689673 -58.33854134 173.39689673 -55.91828918 171.57794189 C-53.97952824 169.09658994 -53.97952824 169.09658994 -53.98078918 165.32794189 C-53.57320019 160.89337359 -51.94930903 159.0319108 -48.68782043 156.10919189 C-47.50252747 155.13466064 -47.50252747 155.13466064 -46.29328918 154.14044189 C-45.28653137 153.30512939 -44.27977356 152.46981689 -43.24250793 151.60919189 C-39.66132496 148.69363507 -35.99766721 145.89721082 -32.29328918 143.14044189 C-31.72110657 142.71327881 -31.14892395 142.28611572 -30.55940247 141.8460083 C-13.65468396 129.42849459 5.49337234 121.3874969 25.70671082 116.14044189 C24.968078 115.67895752 24.22944519 115.21747314 23.46842957 114.74200439 C2.33358234 101.15339868 -11.71363251 82.55210479 -17.83503723 57.9644165 C-19.59837637 49.75880228 -19.63180655 41.61246 -19.60896301 33.25933838 C-19.60577225 30.81496779 -19.62944935 28.37177575 -19.65461731 25.92755127 C-19.65688808 24.35658923 -19.65759483 22.78562399 -19.65657043 21.21466064 C-19.66578018 20.4926799 -19.67498993 19.77069916 -19.68447876 19.02684021 C-19.63402285 13.4797497 -18.3494605 9.41606537 -14.60969543 5.27716064 C-14.03090637 4.79891846 -13.45211731 4.32067627 -12.85578918 3.82794189 C-12.27957825 3.33680908 -11.70336731 2.84567627 -11.10969543 2.33966064 C-7.6203924 0.03597025 -4.0943769 0.01308013 0 0 Z " fill="#020302" transform="translate(197.2932891845703,23.85955810546875)"/>
<path d="M0 0 C4.1098221 3.55177517 8.06698722 7.25454419 12 11 C13.05960937 11.98033203 13.05960937 11.98033203 14.140625 12.98046875 C20.49633257 19.03905991 25.72445125 26.00947803 31 33 C31.43103027 33.56493164 31.86206055 34.12986328 32.30615234 34.71191406 C39.55364566 44.26174931 45.49186662 54.36115472 51 65 C51.39074707 65.75410156 51.78149414 66.50820312 52.18408203 67.28515625 C68.20304295 98.63741548 76.06092034 132.17875707 76.25 167.25 C76.25553894 167.93629486 76.26107788 168.62258972 76.26678467 169.3296814 C76.27846805 171.30829481 76.27231419 173.2869884 76.265625 175.265625 C76.26336914 176.41836914 76.26111328 177.57111328 76.25878906 178.75878906 C75.72376116 185.45976112 73.39728116 189.1983998 68.66015625 193.80078125 C68.13739609 194.32262497 67.61463593 194.84446869 67.07603455 195.38212585 C65.97541955 196.47672752 64.86997629 197.5664936 63.76000977 198.65161133 C62.06069971 200.31426145 60.37809028 201.99251293 58.69726562 203.67382812 C57.62333715 204.73793002 56.5484982 205.80111398 55.47265625 206.86328125 C54.96944351 207.36426834 54.46623077 207.86525543 53.94776917 208.38142395 C49.591083 212.62078605 46.2034366 213.39794249 40.29296875 213.359375 C36.40244364 212.74961638 34.67776365 210.81165184 32 208 C30.05054888 204.10109776 30.13740606 200.21712591 31 196 C33.38007275 192.1053355 36.71741293 189.12906472 40 186 C42.31659705 183.74933525 44.62451949 181.49049225 46.92431641 179.22265625 C48.53461752 177.63898494 50.15643443 176.06692278 51.79052734 174.5078125 C57.0979175 169.33251437 60.36918547 165.45548282 61.43359375 157.9375 C61.44233251 151.36595359 61.05576571 147.26153389 57 142 C52.28845047 137.5300684 47.71809186 135.70533625 41.25 135.5 C40.28578125 135.4484375 39.3215625 135.396875 38.328125 135.34375 C28.69124967 137.24397894 21.50378314 146.05172913 14.8671875 152.734375 C13.82108372 153.7784517 12.7745355 154.82208325 11.72756958 155.86529541 C9.54606172 158.04240777 7.37000038 160.22478086 5.19775391 162.41113281 C2.43670718 165.18924812 -0.33756592 167.95370002 -3.11612129 170.71429062 C-5.27681667 172.86405438 -7.4302044 175.02102519 -9.58156967 177.18012238 C-10.60067584 178.20120586 -11.62194845 179.22013255 -12.64557266 180.23668671 C-40.21618255 207.65851082 -39.0639306 232.81294629 -40 274 C-75.64 274 -111.28 274 -148 274 C-148.33 259.48 -148.66 244.96 -149 230 C-152.2753475 200.52187253 -172.6604081 183.15007544 -192.49951172 163.31518555 C-194.91518978 160.8996103 -197.32383772 158.47714795 -199.73091698 156.05300808 C-202.05309122 153.71704279 -204.38245228 151.38826571 -206.7109375 149.05859375 C-207.5693222 148.19302353 -208.42770691 147.32745331 -209.31210327 146.43565369 C-210.11709259 145.633741 -210.92208191 144.83182831 -211.75146484 144.00561523 C-212.45330902 143.30234604 -213.1551532 142.59907684 -213.87826538 141.87449646 C-219.88537025 136.56737808 -225.37032483 135.57939556 -233.17578125 135.65234375 C-238.92894421 136.36054777 -242.59654299 139.48858476 -246.4375 143.625 C-248.87188004 147.32525766 -249.20683925 150.344287 -249.3125 154.6875 C-249.34988281 155.68136719 -249.38726562 156.67523438 -249.42578125 157.69921875 C-248.08026523 168.13005392 -240.03508257 174.40538342 -232.875 181.3125 C-231.20782308 182.93704614 -229.54355948 184.56447608 -227.88162231 186.19438171 C-226.85243006 187.20201337 -225.81975818 188.20610669 -224.78317261 189.20613098 C-220.96899305 192.91434513 -218.7039667 195.39515763 -218.5625 200.8125 C-218.62208938 204.51787612 -219.00448733 206.68152295 -221.375 209.5625 C-224.62248053 212.57801763 -226.29736499 213.23203498 -230.625 213.5 C-231.44226563 213.5721875 -232.25953125 213.644375 -233.1015625 213.71875 C-237.7946394 212.55496813 -240.5848375 209.30232673 -244 206 C-244.79341797 205.24879883 -245.58683594 204.49759766 -246.40429688 203.72363281 C-248.94097169 201.29901595 -251.44183324 198.84175942 -253.9375 196.375 C-255.23010742 195.12589844 -255.23010742 195.12589844 -256.54882812 193.8515625 C-257.36673828 193.04203125 -258.18464844 192.2325 -259.02734375 191.3984375 C-259.76718506 190.67317871 -260.50702637 189.94791992 -261.26928711 189.20068359 C-268.62732388 179.84459057 -264.5682845 154.26602533 -263.31640625 142.65625 C-258.40860918 104.63905478 -244.17864882 69.76797323 -223 38 C-222.83328148 35.5417707 -222.83328148 35.5417707 -223 33 C-223 29 -223 29 -221.5 27.25 C-219.80312459 24.70468688 -219.84641677 23.84324186 -219.9375 20.875 C-219.958125 19.59625 -219.97875 18.3175 -220 17 C-218 15 -218 15 -214.6875 14.6875 C-210.85142341 14.34494061 -210.85142341 14.34494061 -208.5625 11.4375 C-207.716875 10.633125 -206.87125 9.82875 -206 9 C-204.74316406 9.05027344 -203.48632812 9.10054687 -202.19140625 9.15234375 C-198.70543904 9.25241747 -198.12347868 9.08706406 -195.0859375 6.9453125 C-193.74402344 5.54925781 -193.74402344 5.54925781 -192.375 4.125 C-191.34321281 3.10330728 -190.30522486 2.08784566 -189.26171875 1.078125 C-188.72853027 0.56185547 -188.1953418 0.04558594 -187.64599609 -0.48632812 C-134.04184959 -49.78115285 -54.01997787 -45.19803399 0 0 Z " fill="#129A6C" transform="translate(350,183)"/>
<path d="M0 0 C4.1098221 3.55177517 8.06698722 7.25454419 12 11 C13.05960937 11.98033203 13.05960937 11.98033203 14.140625 12.98046875 C20.49633257 19.03905991 25.72445125 26.00947803 31 33 C31.43103027 33.56493164 31.86206055 34.12986328 32.30615234 34.71191406 C39.55364566 44.26174931 45.49186662 54.36115472 51 65 C51.39074707 65.75410156 51.78149414 66.50820312 52.18408203 67.28515625 C65.35844503 93.0699775 74.39328568 121.98285979 76 151 C76.05978027 151.91362305 76.11956055 152.82724609 76.18115234 153.76855469 C76.35604842 156.72072211 76.46868919 159.66922278 76.5625 162.625 C76.63960205 163.99446777 76.63960205 163.99446777 76.71826172 165.39160156 C76.78270151 170.17780062 76.34461412 173.20634019 73.1875 176.8984375 C71.80792835 178.28203224 70.40982122 179.64724116 69 181 C67.64888668 182.42334462 66.2980654 183.8469818 64.95298767 185.27603149 C62.98477561 187.351746 60.98154356 189.39172518 58.97485352 191.43017578 C57.94189669 192.48494986 56.91526596 193.54595317 55.89477539 194.61279297 C54.40116984 196.17321959 52.88885824 197.7131062 51.37109375 199.25 C50.48349365 200.16265625 49.59589355 201.0753125 48.68139648 202.015625 C45.50822244 204.36394136 43.8583022 204.42991803 40 204 C39.68286133 201.83886719 39.68286133 201.83886719 40 199 C41.63927692 196.97158561 43.17814268 195.33140625 45.07421875 193.578125 C45.85548882 192.82169708 45.85548882 192.82169708 46.65254211 192.04998779 C48.31939457 190.43751814 50.00142228 188.8423398 51.6875 187.25 C64.82881239 175.32851054 64.82881239 175.32851054 70.16796875 158.9765625 C70.17441406 157.87054688 70.18085938 156.76453125 70.1875 155.625 C70.20167969 154.52414062 70.21585937 153.42328125 70.23046875 152.2890625 C69.72825368 145.1218576 66.55391202 139.42466004 62 134 C55.8923905 129.0517606 49.67462308 126.70100372 41.8125 126.5625 C40.58144531 126.52253906 39.35039062 126.48257813 38.08203125 126.44140625 C27.06901763 127.31006636 19.56051292 135.76385233 12.3046875 143.20703125 C11.22149198 144.29957304 10.13717176 145.39100078 9.05178833 146.48136902 C6.22285522 149.32922907 3.40927515 152.19178417 0.59881592 155.05786133 C-2.28162673 157.98980784 -5.17659726 160.90733466 -8.0703125 163.82617188 C-13.72771405 169.53690802 -19.36894951 175.26327926 -25 181 C-25 177.343389 -24.2769182 176.87654553 -21.9375 174.1875 C-14.64088607 165.0888883 -10.12874851 154.16287155 -7 143 C-6.77441406 142.22914063 -6.54882812 141.45828125 -6.31640625 140.6640625 C-4.24275567 132.28365394 -4.76002011 123.56402809 -5 115 C-5.01804687 113.99582031 -5.03609375 112.99164063 -5.0546875 111.95703125 C-6.17586734 90.15997621 -18.80195668 69.20256251 -34.15234375 54.4453125 C-43.95830799 46.02482743 -54.67082369 39.90676331 -67 36 C-67.65693848 35.79117188 -68.31387695 35.58234375 -68.99072266 35.3671875 C-92.40274248 28.24497497 -116.54097997 31.61119981 -138 43 C-159.92600381 55.46876361 -174.25597794 74.96517611 -181.2734375 99.16015625 C-183.16097476 106.53778843 -183.21967224 113.5278958 -183.25 121.125 C-183.270625 122.3934375 -183.29125 123.661875 -183.3125 124.96875 C-183.34489186 132.8237762 -182.52106746 139.56334354 -180 147 C-179.70963867 147.91144775 -179.41927734 148.82289551 -179.12011719 149.76196289 C-177.27986227 155.43126093 -174.76270598 160.67314114 -172 165.9375 C-171.66782471 166.57655273 -171.33564941 167.21560547 -170.9934082 167.87402344 C-169.05813578 171.46015126 -167.04580003 174.28733434 -164 177 C-164.33 177.66 -164.66 178.32 -165 179 C-165.57105469 178.42006287 -166.14210938 177.84012573 -166.73046875 177.24261475 C-172.13336507 171.75932458 -177.54599568 166.28591415 -182.96961975 160.82313156 C-185.75713095 158.0148113 -188.54082578 155.20292148 -191.31591797 152.38232422 C-193.99787694 149.65666853 -196.68969974 146.94111299 -199.38842773 144.23206329 C-200.41251527 143.20062698 -201.43309642 142.16569615 -202.44995117 141.1271286 C-210.7078259 132.70012808 -217.83283033 127.05455466 -230 126.5625 C-238.38319978 126.65669326 -245.16447198 129.29858136 -251.234375 135.15625 C-257.98348154 143.29980004 -258.94929769 151.66868226 -258 162 C-255.75647164 172.44972268 -248.00899739 179.09410221 -240.6328125 186.234375 C-239.86155029 186.98775146 -239.09028809 187.74112793 -238.2956543 188.51733398 C-236.73916314 190.03224995 -235.17045653 191.53472816 -233.58911133 193.02368164 C-232.86747803 193.72356201 -232.14584473 194.42344238 -231.40234375 195.14453125 C-230.74741943 195.76690674 -230.09249512 196.38928223 -229.41772461 197.03051758 C-227.63919356 199.50122706 -227.7197031 201.02228795 -228 204 C-230.946127 204.44963223 -233.11292872 204.59596039 -235.65518188 202.88800049 C-237.47927022 201.23172362 -239.19219138 199.50783354 -240.89453125 197.7265625 C-241.52735519 197.08762054 -242.16017914 196.44867859 -242.81217957 195.79037476 C-244.82674425 193.74889816 -246.8192305 191.68725157 -248.8125 189.625 C-250.17249569 188.24347873 -251.53380997 186.86325418 -252.89648438 185.484375 C-261.80990107 176.41968451 -264.29871585 172.73514545 -264.31689453 159.97875977 C-263.7780106 116.09298414 -247.06187142 74.09280713 -223 38 C-222.83328148 35.5417707 -222.83328148 35.5417707 -223 33 C-223 29 -223 29 -221.5 27.25 C-219.80312459 24.70468688 -219.84641677 23.84324186 -219.9375 20.875 C-219.958125 19.59625 -219.97875 18.3175 -220 17 C-218 15 -218 15 -214.6875 14.6875 C-210.85142341 14.34494061 -210.85142341 14.34494061 -208.5625 11.4375 C-207.716875 10.633125 -206.87125 9.82875 -206 9 C-204.74316406 9.05027344 -203.48632812 9.10054687 -202.19140625 9.15234375 C-198.70543904 9.25241747 -198.12347868 9.08706406 -195.0859375 6.9453125 C-193.74402344 5.54925781 -193.74402344 5.54925781 -192.375 4.125 C-191.34321281 3.10330728 -190.30522486 2.08784566 -189.26171875 1.078125 C-188.72853027 0.56185547 -188.1953418 0.04558594 -187.64599609 -0.48632812 C-134.04184959 -49.78115285 -54.01997787 -45.19803399 0 0 Z " fill="#13BE6C" transform="translate(350,183)"/>
<path d="M0 0 C1.28060538 1.09281803 2.55150818 2.19710724 3.8125 3.3125 C5.05 4.2715625 5.05 4.2715625 6.3125 5.25 C18.73889565 15.50177641 26.79892496 32.48800197 28.8125 48.3125 C30.49457091 67.92990531 25.8842342 86.47527072 13.8125 102.3125 C2.4195382 115.83864915 -13.24319534 126.50896075 -31.1875 128.3125 C-54.4390642 129.40635866 -72.75132243 126.31209207 -90.6953125 110.7109375 C-105.09005515 96.85768987 -113.01829354 79.37914045 -113.70874023 59.46313477 C-113.96394155 39.97572106 -107.97289097 24.20037748 -95.1875 9.3125 C-94.68992188 8.71953125 -94.19234375 8.1265625 -93.6796875 7.515625 C-70.35415445 -18.036969 -27.18104228 -20.96050524 0 0 Z " fill="#ECECEC" transform="translate(298.1875,246.6875)"/>
<path d="M0 0 C4.29275376 1.73536854 6.00848969 3.87754689 8 8 C8.28967436 10.7634731 8.42072084 13.29922927 8.40405273 16.05981445 C8.41091599 16.8572406 8.41777924 17.65466675 8.42485046 18.47625732 C8.44311125 21.10544786 8.43928109 23.73404105 8.43359375 26.36328125 C8.43815687 28.19785251 8.44346284 30.03242206 8.44947815 31.86698914 C8.45840857 35.71112004 8.45598806 39.55504321 8.44604492 43.39916992 C8.43457283 48.31186547 8.45473995 53.22384034 8.48396206 58.13644123 C8.50236241 61.9258628 8.50202367 65.71511304 8.49632454 69.5045681 C8.4961717 71.31496375 8.50218504 73.12537128 8.51461601 74.93572426 C8.52959185 77.47493443 8.51880054 80.01283121 8.50170898 82.55200195 C8.51621094 83.66124275 8.51621094 83.66124275 8.53100586 84.79289246 C8.43426758 91.69989628 5.95917063 96.75285399 1.45043945 101.92431641 C0.51417725 102.80780762 -0.42208496 103.69129883 -1.38671875 104.6015625 C-2.4173792 105.59629046 -3.44797633 106.59108402 -4.47851562 107.5859375 C-6.08805925 109.11442497 -7.70172349 110.63839483 -9.31762695 112.16015625 C-10.89289208 113.65083219 -12.45255379 115.15658214 -14.01171875 116.6640625 C-14.94459717 117.54529785 -15.87747559 118.4265332 -16.83862305 119.33447266 C-19.91892601 123.13326942 -20 126.24549846 -20 131 C-20.66 131.598125 -21.32 132.19625 -22 132.8125 C-24.62303329 135.68144266 -24.07873194 137.22086709 -24 141 C-25.0625 143.375 -25.0625 143.375 -27 145 C-28.11375 144.95875 -29.2275 144.9175 -30.375 144.875 C-34.20542228 144.61981302 -34.20542228 144.61981302 -36.9375 147.625 C-39.32502378 150.73214969 -39.32502378 150.73214969 -38.63183594 153.68383789 C-39.23448129 159.11204202 -43.11736604 161.79222135 -46.953125 165.43359375 C-47.76489197 166.22975601 -48.57665894 167.02591827 -49.4130249 167.84620667 C-52.01153766 170.39127601 -54.62914996 172.91545471 -57.25 175.4375 C-59.85397348 177.95839868 -62.45337338 180.48359814 -65.04412842 183.01808167 C-66.65633291 184.5937664 -68.27649225 186.16136482 -69.90557861 187.71958923 C-76.94553004 194.56962106 -76.94553004 194.56962106 -80.48242188 203.56713867 C-80.47791016 204.3429126 -80.47339844 205.11868652 -80.46875 205.91796875 C-80.48292969 206.77970703 -80.49710937 207.64144531 -80.51171875 208.52929688 C-80.50785156 209.40650391 -80.50398438 210.28371094 -80.5 211.1875 C-80.46068046 220.22444007 -80.46068046 220.22444007 -82.828125 223.62890625 C-85 225 -85 225 -88.25 224.75 C-89.61125 224.37875 -89.61125 224.37875 -91 224 C-91.33 222.68 -91.66 221.36 -92 220 C-116.75 220 -141.5 220 -167 220 C-167.0825 208.223125 -167.165 196.44625 -167.25 184.3125 C-167.28641602 180.61973877 -167.32283203 176.92697754 -167.36035156 173.12231445 C-167.37841797 168.54724121 -167.37841797 168.54724121 -167.3817749 166.39274597 C-167.38784202 164.91576794 -167.40175046 163.43880734 -167.42230225 161.96195984 C-167.70702724 140.38773947 -160.13327916 125.00487414 -145.52792358 109.3503418 C-142.9218303 106.67681833 -140.28725577 104.03570611 -137.63671875 101.40625 C-136.6723067 100.44303481 -135.70826926 99.4794444 -134.74458313 98.51550293 C-132.7467892 96.51925519 -130.74573861 94.52635612 -128.74194336 92.53613281 C-126.18034964 89.99167728 -123.6255391 87.44053751 -121.07287884 84.88712311 C-119.09230218 82.90681856 -117.10912954 80.92913139 -115.12507057 78.95231628 C-113.72600413 77.55794548 -112.32840344 76.16210449 -110.93083191 74.76623535 C-110.07927017 73.92105347 -109.22770844 73.07587158 -108.3503418 72.20507812 C-107.60471481 71.46326294 -106.85908783 70.72144775 -106.09086609 69.95715332 C-101.67417431 65.82291295 -99.22802811 64.44776354 -93.19140625 64.63671875 C-89.94994935 65.17407257 -88.21519329 66.64635713 -86 69 C-84.20401698 72.59196604 -84.31656063 76.09500916 -85 80 C-86.23950195 81.88989258 -86.23950195 81.88989258 -87.92578125 83.70703125 C-88.5614502 84.39506836 -89.19711914 85.08310547 -89.85205078 85.79199219 C-94.55617252 90.62764541 -99.38143896 95.3377254 -104.23632812 100.02148438 C-111.90740243 107.4405369 -111.90740243 107.4405369 -115.53125 117.24609375 C-115.45411937 125.12305968 -114.8887829 130.96980681 -109.28125 136.78125 C-103.54076953 141.93795279 -98.91784102 142.36699568 -91.28125 142.265625 C-78.09105342 141.19784718 -67.90962279 127.07802189 -59.13671875 118.33984375 C-58.64463236 117.85058474 -58.15254597 117.36132572 -57.64554787 116.85724068 C-55.05002253 114.27654096 -52.45725417 111.69311103 -49.86694336 109.10717773 C-47.21331182 106.45906077 -44.55049478 103.82038218 -41.88550091 101.18370724 C-39.8136602 99.13057693 -37.74864216 97.07068455 -35.68537331 95.00894356 C-34.70677635 94.03334579 -33.72571202 93.06021575 -32.74201012 92.08976555 C-22.05663624 81.84295158 -22.05663624 81.84295158 -17.86869812 68.16763306 C-17.86521866 67.0754245 -17.8617392 65.98321594 -17.8581543 64.85791016 C-17.85111984 63.61627106 -17.84408539 62.37463196 -17.83683777 61.09536743 C-17.83502188 60.43462849 -17.83320599 59.77388954 -17.83133507 59.0931282 C-17.82413869 57.01595374 -17.80844921 54.9390113 -17.78999329 52.86190796 C-17.73766984 46.95777549 -17.68955953 41.05377349 -17.67407227 35.14941406 C-17.66396626 31.53299341 -17.63458053 27.91716284 -17.59275246 24.3009758 C-17.5804784 22.9271835 -17.57531463 21.55330775 -17.57755089 20.17946243 C-17.59400429 6.77384447 -17.59400429 6.77384447 -13 2 C-8.74178609 -0.83880927 -4.99661255 -0.51165313 0 0 Z " fill="#FDB49D" transform="translate(487,263)"/>
<path d="M0 0 C4.29812375 1.73753939 5.94651417 3.91303122 8 8 C8.37181091 10.93243408 8.37181091 10.93243408 8.36889648 14.20800781 C8.37577988 15.43988831 8.38266327 16.6717688 8.38975525 17.940979 C8.38657728 18.59435493 8.38339931 19.24773087 8.38012505 19.92090607 C8.37096367 21.98239645 8.3812963 24.04298693 8.39674377 26.10443115 C8.43669285 31.96267375 8.43805599 37.82084297 8.43579102 43.67919922 C8.43573959 47.27078208 8.45506768 50.86188111 8.48512459 54.45333099 C8.49585077 56.46994236 8.48383773 58.48663396 8.47129822 60.50323486 C8.55314005 70.652279 10.22289199 77.72102063 17.37109375 85.1640625 C17.82874619 85.6450943 18.28639862 86.1261261 18.75791931 86.62173462 C20.49048104 88.42936625 22.24465403 90.21448258 24 92 C24.76403137 92.78419312 25.52806274 93.56838623 26.31524658 94.37634277 C31.86988832 100.07603209 37.46312764 105.73567051 43.0793457 111.37451172 C45.57427256 113.88057984 48.05726372 116.39814832 50.53795719 118.91829491 C52.47968333 120.88633675 54.43040747 122.84527734 56.38354301 124.80199051 C57.74246714 126.16802503 59.091747 127.54363259 60.44068909 128.91952515 C66.49649294 134.95435393 72.94356728 140.96192441 81.5390625 142.7265625 C89.01969912 142.48036433 94.91031376 141.82752687 100.5234375 136.57421875 C105.48820996 131.02113511 106.41585659 125.91429839 106.2421875 118.70703125 C105.20862815 107.15450496 93.87224689 98.75378745 86.125 91.125 C84.41699476 89.4424115 82.71114749 87.75762867 81.0078125 86.0703125 C80.26160645 85.33570801 79.51540039 84.60110352 78.74658203 83.84423828 C75.58092202 80.50157743 75.67132574 77.69634304 75.70703125 73.26171875 C76.13655801 69.9457722 77.60924354 68.25012373 80 66 C83.28178445 64.35910777 86.46509214 64.3588691 90 65 C96.95218023 68.85474397 102.56684066 75.26040604 108.125 80.82421875 C109.08067819 81.77599693 110.03657459 82.72755605 110.99267578 83.6789093 C112.98615156 85.66496971 114.97577053 87.65479816 116.96289062 89.6472168 C119.4823132 92.17241786 122.0128899 94.68609571 124.54678345 97.19676495 C126.52205772 99.15714706 128.49019105 101.12458446 130.45648193 103.09397316 C131.8300341 104.46677733 133.21007898 105.83307571 134.59033203 107.19914246 C142.09812164 114.76166014 149.0275561 122.87433907 153.375 132.6875 C154.06722656 134.20923828 154.06722656 134.20923828 154.7734375 135.76171875 C157.19386911 142.15196653 158.25075564 147.7823769 158.22705078 154.609375 C158.22729185 155.33392883 158.22753292 156.05848267 158.2277813 156.80499268 C158.22630402 159.12012582 158.21114535 161.43492546 158.1953125 163.75 C158.19236713 165.19140468 158.19032973 166.6328115 158.18920898 168.07421875 C158.17877891 173.3828454 158.15085642 178.69142607 158.125 184 C158.08375 195.88 158.0425 207.76 158 220 C133.25 220 108.5 220 83 220 C82.67 213.4 82.34 206.8 82 200 C78.89789222 192.43078701 78.89789222 192.43078701 74.43310547 186.61791992 C73.64031189 185.77885101 72.84751831 184.9397821 72.03070068 184.07528687 C71.023165 183.04753946 70.01260593 182.02275223 69 181 C68.06107784 180.04944418 68.06107784 180.04944418 67.10318756 179.07968521 C62.3530082 174.28664913 57.56521936 169.53216627 52.76886368 164.78539467 C50.02498797 162.06840076 47.28571683 159.34684415 44.54782104 156.62382507 C36.77016902 148.88870151 28.98993743 141.15623803 21.19335938 133.44018555 C16.40829887 128.70444493 11.63387082 123.95820648 6.8652916 119.20586205 C5.05165521 117.40211415 3.23437109 115.60202617 1.41336441 113.80571938 C-1.12808774 111.29801151 -3.65685306 108.77813334 -6.18310547 106.25512695 C-7.30988457 105.15227608 -7.30988457 105.15227608 -8.45942688 104.02714539 C-14.32511079 98.12697736 -17.30217264 93.5667535 -17.40658569 84.91731262 C-17.400513 84.17422348 -17.39444031 83.43113434 -17.38818359 82.66552734 C-17.39606903 81.46172173 -17.39606903 81.46172173 -17.40411377 80.2335968 C-17.41723671 77.60084133 -17.40860498 74.9686983 -17.3984375 72.3359375 C-17.40046006 70.49703862 -17.40337301 68.65814053 -17.40713501 66.81924438 C-17.41154757 62.97447028 -17.40516028 59.1299059 -17.39111328 55.28515625 C-17.37399788 50.36111506 -17.38388421 45.43756363 -17.40183067 40.51354027 C-17.41267681 36.71996374 -17.40921877 32.92650316 -17.4014473 29.13292313 C-17.39944884 27.31726651 -17.40189211 25.5015993 -17.40888596 23.68595505 C-17.41651681 21.14891442 -17.40487479 18.61266536 -17.38818359 16.07568359 C-17.39729263 14.95497719 -17.39729263 14.95497719 -17.40658569 13.81163025 C-17.35236996 9.35661362 -16.69649991 6.56632193 -14 3 C-9.79219289 -1.0066022 -5.51857672 -0.65398718 0 0 Z " fill="#FDB49D" transform="translate(34,263)"/>
<path d="M0 0 C1.61520035 -0.01268921 1.61520035 -0.01268921 3.26303101 -0.02563477 C4.44442657 -0.01956207 5.62582214 -0.01348938 6.84301758 -0.00723267 C8.70913193 -0.0151181 8.70913193 -0.0151181 10.61294556 -0.02316284 C14.0262752 -0.03411622 17.43906045 -0.03153227 20.85235977 -0.02202559 C24.42241403 -0.01443632 27.99244484 -0.02147255 31.5625 -0.02618408 C37.55806664 -0.03164379 43.55352245 -0.02444445 49.54907227 -0.01016235 C56.483196 0.00616466 63.41705512 0.0008763 70.35117245 -0.01564157 C76.30199672 -0.02925038 82.25274128 -0.03117909 88.20357609 -0.02332556 C91.7589203 -0.01864568 95.31414008 -0.01803274 98.86947632 -0.02793503 C102.83211575 -0.03820057 106.79445818 -0.02397709 110.75708008 -0.00723267 C111.93847565 -0.01330536 113.11987122 -0.01937805 114.33706665 -0.02563477 C115.952267 -0.01294556 115.952267 -0.01294556 117.60009766 0 C119.00597893 0.00169662 119.00597893 0.00169662 120.44026184 0.00342751 C123.23448894 0.45045352 124.1271955 1.1370297 125.80004883 3.38095093 C126.140625 5.43663025 126.140625 5.43663025 126.09301758 7.82064819 C126.08310791 8.71490005 126.07319824 9.60915192 126.06298828 10.53050232 C126.03809326 11.49306442 126.01319824 12.45562653 125.98754883 13.44735718 C125.97050903 14.93210793 125.97050903 14.93210793 125.953125 16.44685364 C125.91642819 19.61278051 125.86053258 22.77789436 125.80004883 25.94345093 C125.7205452 30.1113969 125.66043408 34.27894168 125.61254883 38.44735718 C125.58765381 39.41194351 125.56275879 40.37652985 125.53710938 41.37034607 C125.52719971 42.26144577 125.51729004 43.15254547 125.50708008 44.07064819 C125.49136963 44.85657852 125.47565918 45.64250885 125.45947266 46.45225525 C125.62805786 47.40695961 125.62805786 47.40695961 125.80004883 48.38095093 C126.79004883 49.04095093 127.78004883 49.70095093 128.80004883 50.38095093 C128.56608398 51.44636108 128.56608398 51.44636108 128.32739258 52.53329468 C128.03541992 53.91194702 128.03541992 53.91194702 127.73754883 55.31845093 C127.54032227 56.23497437 127.3430957 57.1514978 127.13989258 58.09579468 C126.97166992 59.22694702 126.97166992 59.22694702 126.80004883 60.38095093 C127.13004883 60.71095093 127.46004883 61.04095093 127.80004883 61.38095093 C127.98754883 64.31845093 127.98754883 64.31845093 127.80004883 67.38095093 C125.80004883 69.38095093 125.80004883 69.38095093 123.48754883 69.56845093 C120.29175804 70.53462024 120.09732673 71.19495457 118.42504883 73.94345093 C117.17895508 75.88485718 117.17895508 75.88485718 115.80004883 77.38095093 C113.46671549 77.38095093 111.13338216 77.38095093 108.80004883 77.38095093 C106.24165664 80.08703304 106.24165664 80.08703304 104.65161133 82.24423218 C98.77004301 89.03161166 90.00096322 94.72179854 81.80004883 98.38095093 C81.14004883 98.38095093 80.48004883 98.38095093 79.80004883 98.38095093 C80.89943902 95.61153469 82.02001584 92.85365857 83.16723633 90.10360718 C91.55804439 69.73524668 96.26137507 48.52566402 94.80004883 26.38095093 C93.68168659 25.03690318 93.68168659 25.03690318 90.80004883 25.25595093 C87.91841107 25.03690318 87.91841107 25.03690318 86.80004883 26.38095093 C86.5473998 28.48117891 86.3548519 30.5886759 86.18676758 32.69735718 C86.0754248 34.01171753 85.96408203 35.32607788 85.84936523 36.68026733 C85.76153778 37.72552582 85.76153778 37.72552582 85.67193604 38.79190063 C83.80743939 60.54806456 80.18868739 81.6956012 66.42504883 99.44345093 C63.50081126 101.60181675 61.52621715 102.55300713 57.90551758 102.73641968 C53.22330937 101.94591699 50.62140102 99.01857783 47.80004883 95.38095093 C36.92950136 78.28781248 33.02859837 58.67179347 31.73754883 38.75595093 C31.58410214 36.4301556 31.42677522 34.10461182 31.26489258 31.77938843 C31.19906982 30.76537964 31.13324707 29.75137085 31.06542969 28.70663452 C31.04918962 26.42263143 31.04918962 26.42263143 29.80004883 25.38095093 C26.80004883 25.21428426 26.80004883 25.21428426 23.80004883 25.38095093 C21.96189312 27.21910664 22.58264057 30.03441053 22.55004883 32.50595093 C22.58650793 53.686086 26.37991895 75.58451069 36.69848633 94.26376343 C37.80004883 96.38095093 37.80004883 96.38095093 37.80004883 98.38095093 C21.60066948 93.49504735 8.76964526 80.36355513 0.78442383 65.81454468 C-5.09690507 54.59891695 -8.33311472 44.4651963 -8.40307617 31.80673218 C-8.40877625 31.00108322 -8.41447632 30.19543427 -8.42034912 29.3653717 C-8.42975058 27.67192888 -8.43631366 25.97846816 -8.44018555 24.28500366 C-8.44996034 21.69101718 -8.48105573 19.09780107 -8.51245117 16.5039978 C-8.51897558 14.85491394 -8.52422825 13.20582445 -8.52807617 11.55673218 C-8.54042297 10.78170853 -8.55276978 10.00668488 -8.56549072 9.20817566 C-8.54327444 3.86952151 -8.54327444 3.86952151 -7.00267029 1.677145 C-4.56938447 -0.07244018 -2.98552408 0.00360293 0 0 Z " fill="#12BD6C" transform="translate(197.199951171875,34.619049072265625)"/>
<path d="M0 0 C0.86625 0.804375 1.7325 1.60875 2.625 2.4375 C19.3652964 16.68527742 38.95133258 24.61338247 61 24.3125 C62.18078125 24.31572266 63.3615625 24.31894531 64.578125 24.32226562 C85.7517149 24.1940115 104.70611965 17.45612142 120.9765625 3.69921875 C123 2 123 2 126 0 C124.50019064 3.19910076 122.6687869 6.01609027 120.6875 8.9375 C116.80449678 14.97233418 114.31900407 21.23406677 112 28 C111.64550781 28.89074219 111.29101562 29.78148437 110.92578125 30.69921875 C106.48343771 46.53795416 108.2631948 75.94581841 108 87 C78.3 87 48.6 87 18 87 C17.6875 65.4375 17.6875 65.4375 17.61206055 58.73217773 C17.39463535 44.90303433 16.70772263 31.37374095 10.75 18.625 C10.45279053 17.96290527 10.15558105 17.30081055 9.84936523 16.61865234 C7.58509035 11.77197641 4.82631566 7.63303629 1.28515625 3.6015625 C0 2 0 2 0 0 Z " fill="#12BE6D" transform="translate(193,369)"/>
<path d="M0 0 C16.56739142 13.07182064 26.47343095 31.69921855 30.125 52.25 C31.77884477 74.05109583 27.76689489 95.53146053 13.875 113 C12.63452203 114.42501188 11.38477376 115.84201757 10.125 117.25 C9.50625 118.06339844 8.8875 118.87679687 8.25 119.71484375 C-2.60597736 132.66618439 -21.34240462 141.77974073 -37.875 144.25 C-65.62454584 145.93115825 -86.24540485 140.78832033 -107.859375 122.578125 C-121.03624504 110.36836469 -131.1707708 90.79613292 -131.98510742 72.81933594 C-132.5636212 46.38833509 -127.61058842 26.18952966 -109.06640625 6.484375 C-108.34324219 5.74703125 -107.62007812 5.0096875 -106.875 4.25 C-106.28589844 3.63640625 -105.69679687 3.0228125 -105.08984375 2.390625 C-76.05961919 -25.42734842 -30.76717421 -22.99451033 0 0 Z M-104.8125 15.734375 C-115.72046982 29.03879274 -122.4883657 44.71373944 -122.3125 61.9375 C-122.30420166 62.99114746 -122.29590332 64.04479492 -122.28735352 65.13037109 C-121.85612381 85.15723118 -113.84012093 102.73497767 -99.3828125 116.6484375 C-82.28629896 131.51276529 -64.89601928 135.18112704 -42.6496582 134.45507812 C-23.55007478 133.04340632 -7.17274763 122.41575992 5.125 108.25 C17.78932769 91.6889561 22.40604486 72.53923784 19.85253906 52.06542969 C16.86036754 34.07001849 6.58949823 17.16705006 -7.9453125 6.1640625 C-17.13459987 0.16039475 -27.06165821 -4.62398704 -37.875 -6.75 C-39.009375 -6.976875 -40.14375 -7.20375 -41.3125 -7.4375 C-65.84192616 -9.58920405 -87.73527831 -2.22182134 -104.8125 15.734375 Z " fill="#030504" transform="translate(306.875,240.75)"/>
<path d="M0 0 C3.02645945 1.01968403 4.12074735 2.10809321 6.1640625 4.54296875 C6.85113281 5.35765625 7.53820312 6.17234375 8.24609375 7.01171875 C12.24080407 11.96597618 16.18294107 16.95780033 20.08496094 21.98535156 C22.53696595 25.13887043 25.00747952 28.27781668 27.4765625 31.41796875 C27.92491455 31.98926514 28.3732666 32.56056152 28.83520508 33.14916992 C30.80035334 35.65205455 32.77322164 38.13151326 34.83203125 40.55859375 C37.02579569 43.51038663 37.01858276 45.25906682 36.5390625 48.85546875 C34.5390625 50.85546875 34.5390625 50.85546875 31.5 51.05078125 C30.31664063 51.02757812 29.13328125 51.004375 27.9140625 50.98046875 C26.13128906 50.95339844 26.13128906 50.95339844 24.3125 50.92578125 C22.93964844 50.89097656 22.93964844 50.89097656 21.5390625 50.85546875 C21.54350372 51.48995941 21.54794495 52.12445007 21.55252075 52.77816772 C21.5966633 59.36380773 21.62689102 65.94940592 21.64892578 72.53515625 C21.65900233 74.99513454 21.67266381 77.45510081 21.68994141 79.91503906 C21.71411711 83.4446916 21.7255289 86.97418622 21.734375 90.50390625 C21.74469757 91.60914642 21.75502014 92.7143866 21.76565552 93.8531189 C21.76588211 95.38447983 21.76588211 95.38447983 21.76611328 96.94677734 C21.7705545 97.84834564 21.77499573 98.74991394 21.77957153 99.67880249 C21.5390625 101.85546875 21.5390625 101.85546875 19.5390625 103.85546875 C16.48929195 104.09244863 13.53349209 104.20789574 10.48046875 104.2265625 C9.58037582 104.23559097 8.6802829 104.24461945 7.75291443 104.25392151 C5.84727312 104.26844302 3.94158174 104.27731545 2.03588867 104.28100586 C-0.88382669 104.29290918 -3.80143376 104.34208026 -6.72070312 104.39257812 C-8.57030216 104.40204117 -10.4199142 104.40927677 -12.26953125 104.4140625 C-13.14459824 104.43359482 -14.01966522 104.45312714 -14.92124939 104.47325134 C-20.82263551 104.4291978 -20.82263551 104.4291978 -23.51708984 102.00732422 C-24.93282274 97.27966987 -24.82811174 92.77529544 -24.75390625 87.8671875 C-24.74966141 86.80885208 -24.74541656 85.75051666 -24.74104309 84.66011047 C-24.72428112 81.28746863 -24.68663262 77.9154293 -24.6484375 74.54296875 C-24.63338749 72.25326385 -24.61969964 69.96354957 -24.60742188 67.67382812 C-24.57438573 62.06750355 -24.52421067 56.46152921 -24.4609375 50.85546875 C-25.72550781 50.89027344 -25.72550781 50.89027344 -27.015625 50.92578125 C-28.65917969 50.95285156 -28.65917969 50.95285156 -30.3359375 50.98046875 C-31.42648438 51.00367188 -32.51703125 51.026875 -33.640625 51.05078125 C-36.4609375 50.85546875 -36.4609375 50.85546875 -38.4609375 48.85546875 C-39.01573077 45.83739334 -39.00864259 43.77502202 -37.41162109 41.09375 C-35.89060066 39.11426035 -34.29418311 37.23254683 -32.6484375 35.35546875 C-31.44809174 33.935848 -30.24889252 32.51525709 -29.05078125 31.09375 C-28.4460498 30.38428223 -27.84131836 29.67481445 -27.21826172 28.94384766 C-24.63412309 25.87289435 -22.17054466 22.71385694 -19.7109375 19.54296875 C-16.32045401 15.20914792 -12.91463149 10.88916339 -9.4609375 6.60546875 C-8.7596875 5.7340625 -8.0584375 4.86265625 -7.3359375 3.96484375 C-5.02800313 1.36841758 -3.59348174 -0.21104575 0 0 Z " fill="#000000" transform="translate(66.4609375,97.14453125)"/>
<path d="M0 0 C3.02645945 1.01968403 4.12074735 2.10809321 6.1640625 4.54296875 C6.85371094 5.36023438 7.54335938 6.1775 8.25390625 7.01953125 C11.71586462 11.31591035 15.12822057 15.64858853 18.515625 20.00390625 C22.36589045 24.93665806 26.33176609 29.77515519 30.29956055 34.61352539 C30.82332275 35.25410889 31.34708496 35.89469238 31.88671875 36.5546875 C32.35086182 37.12018311 32.81500488 37.68567871 33.29321289 38.26831055 C36.25221681 42.03795281 36.94462021 44.09016568 36.5390625 48.85546875 C34.5390625 50.85546875 34.5390625 50.85546875 31.71875 51.05078125 C30.62820313 51.02757812 29.53765625 51.004375 28.4140625 50.98046875 C27.31835938 50.96242187 26.22265625 50.944375 25.09375 50.92578125 C24.25070312 50.90257812 23.40765625 50.879375 22.5390625 50.85546875 C22.54572433 51.44571335 22.55238617 52.03595795 22.55924988 52.64408875 C22.62566552 58.79221139 22.670889 64.94023196 22.70385742 71.08862305 C22.71893558 73.38261047 22.7394012 75.67656912 22.76538086 77.97045898 C22.80180608 81.2694408 22.81879881 84.56804115 22.83203125 87.8671875 C22.84751511 88.89132248 22.86299896 89.91545746 22.87895203 90.97062683 C22.87987885 94.8998065 22.72596134 98.23134459 21.59521484 102.00732422 C18.23709759 105.02572218 14.70439089 104.51130891 10.34765625 104.4140625 C9.4466066 104.41173111 8.54555695 104.40939972 7.61720276 104.40699768 C5.71321134 104.39725635 3.80924911 104.37546027 1.90551758 104.3425293 C-1.01589624 104.29309635 -3.93562755 104.28104873 -6.85742188 104.27539062 C-8.70574716 104.26130588 -10.55405778 104.24510192 -12.40234375 104.2265625 C-13.27943497 104.2211998 -14.15652618 104.2158371 -15.06019592 104.21031189 C-21.22767249 104.08873376 -21.22767249 104.08873376 -23.4609375 101.85546875 C-23.70144653 99.67880249 -23.70144653 99.67880249 -23.68798828 96.94677734 C-23.68776169 95.41541641 -23.68776169 95.41541641 -23.68753052 93.8531189 C-23.67720795 92.74787872 -23.66688538 91.64263855 -23.65625 90.50390625 C-23.6534201 89.37473785 -23.65059021 88.24556946 -23.64767456 87.08218384 C-23.63645212 83.46483904 -23.61134372 79.84773909 -23.5859375 76.23046875 C-23.57591037 73.78255565 -23.56678406 71.33463868 -23.55859375 68.88671875 C-23.53650607 62.87621811 -23.50300824 56.86586092 -23.4609375 50.85546875 C-24.83378906 50.89027344 -24.83378906 50.89027344 -26.234375 50.92578125 C-28.01714844 50.95285156 -28.01714844 50.95285156 -29.8359375 50.98046875 C-31.01929688 51.00367188 -32.20265625 51.026875 -33.421875 51.05078125 C-36.4609375 50.85546875 -36.4609375 50.85546875 -38.4609375 48.85546875 C-39.08282935 45.7413685 -38.99542785 43.71844327 -37.30175781 40.98388672 C-35.62930178 38.85411027 -33.88138994 36.82012958 -32.0859375 34.79296875 C-30.79124232 33.2801216 -29.49828558 31.76578506 -28.20703125 30.25 C-27.56749512 29.50572754 -26.92795898 28.76145508 -26.26904297 27.99462891 C-23.79280876 25.06500911 -21.45857427 22.04164533 -19.1484375 18.98046875 C-15.98798171 14.83432626 -12.7966497 10.7252784 -9.5234375 6.66796875 C-8.81316406 5.78753906 -8.10289062 4.90710938 -7.37109375 4 C-5.04863721 1.39257947 -3.61414638 -0.21225939 0 0 Z " fill="#000000" transform="translate(447.4609375,97.14453125)"/>
<path d="M0 0 C6.89079122 5.29733826 13.30683231 11.03260076 19.5625 17.0625 C20.61630859 18.03896484 20.61630859 18.03896484 21.69140625 19.03515625 C37.28868773 33.8762059 48.5986826 53.18797164 58.5625 72.0625 C58.93052734 72.72483643 59.29855469 73.38717285 59.67773438 74.06958008 C61.01274251 77.07666381 60.74581085 79.82400835 60.5625 83.0625 C59.5625 84.0625 59.5625 84.0625 56 84.125 C54.865625 84.104375 53.73125 84.08375 52.5625 84.0625 C52.23564209 83.45365967 51.90878418 82.84481934 51.57202148 82.2175293 C29.27286878 40.767847 0.65374992 3.11679409 -46.07421875 -11.71875 C-77.1503448 -20.79984568 -109.06934504 -16.11515691 -137.2644043 -0.91918945 C-141.57176938 1.47199119 -145.61143664 4.1166478 -149.5078125 7.12890625 C-152.17342912 8.41854668 -153.67084447 7.96506467 -156.4375 7.0625 C-158.4375 5.0625 -158.4375 5.0625 -158.79296875 2.6328125 C-158.4375 0.0625 -158.4375 0.0625 -156.98828125 -1.5703125 C-150.86606669 -5.65178887 -144.49495118 -9.17274418 -138 -12.625 C-137.13093018 -13.0885791 -136.26186035 -13.5521582 -135.36645508 -14.02978516 C-91.77818156 -36.66912954 -38.70174843 -28.97022183 0 0 Z " fill="#73FDB9" transform="translate(335.4375,183.9375)"/>
<path d="M0 0 C2.4375 0.8125 2.4375 0.8125 4.4375 2.8125 C4.6328125 5.6328125 4.6328125 5.6328125 4.5625 8.9375 C4.54445313 10.03320312 4.52640625 11.12890625 4.5078125 12.2578125 C4.48460937 13.10085938 4.46140625 13.94390625 4.4375 14.8125 C5.01757812 14.91046875 5.59765625 15.0084375 6.1953125 15.109375 C14.91633072 16.77874482 20.22806851 20.71020054 25.4375 27.8125 C27.91509311 32.091979 28.08527539 36.96371069 27.4375 41.8125 C25.4375 43.8125 25.4375 43.8125 22.4375 44.125 C21.4475 44.021875 20.4575 43.91875 19.4375 43.8125 C17.4375 40.8125 17.4375 40.8125 16.5625 36.9375 C15.64321684 33.06083302 14.34789762 30.6397434 11.4375 27.8125 C7.28932778 25.69364944 3.62246322 25.48405049 -1 25.4375 C-2.91619141 25.39496094 -2.91619141 25.39496094 -4.87109375 25.3515625 C-9.9987147 25.99183686 -12.89411569 28.06316033 -16.4140625 31.75390625 C-18.5357096 35.55699476 -18.0694663 39.59234811 -17.5625 43.8125 C-15.95600192 47.58777049 -14.091492 49.75248679 -10.5625 51.8125 C-7.77908635 52.11062051 -5.16000169 52.26954679 -2.375 52.3125 C7.36547529 52.70536892 14.42708363 53.90019989 21.70703125 60.875 C26.85592143 66.63989735 28.1745985 72.07809959 27.8828125 79.78125 C26.77004037 87.35590942 23.11271503 92.94581646 17.18359375 97.65625 C12.75978789 100.58566059 9.8065711 101.01900273 4.4375 100.8125 C4.47230469 101.71613281 4.50710938 102.61976563 4.54296875 103.55078125 C4.57003906 104.73027344 4.59710938 105.90976562 4.625 107.125 C4.65980469 108.29675781 4.69460938 109.46851563 4.73046875 110.67578125 C4.4375 113.8125 4.4375 113.8125 3.0859375 115.7421875 C1.4375 116.8125 1.4375 116.8125 -1.125 116.625 C-3.5625 115.8125 -3.5625 115.8125 -5.5625 113.8125 C-5.7578125 110.7734375 -5.7578125 110.7734375 -5.6875 107.1875 C-5.66945312 105.99898438 -5.65140625 104.81046875 -5.6328125 103.5859375 C-5.60960937 102.67070312 -5.58640625 101.75546875 -5.5625 100.8125 C-6.5525 100.915625 -7.5425 101.01875 -8.5625 101.125 C-14.25821139 101.10198702 -18.36368411 97.94336131 -22.33203125 94.09765625 C-27.61195574 88.2267913 -28.78840417 83.75474421 -28.73046875 75.921875 C-28.5625 73.8125 -28.5625 73.8125 -27.5625 72.8125 C-22.18192128 72.34462359 -22.18192128 72.34462359 -19.91796875 74.0546875 C-18.29273898 76.16233417 -18.08544543 77.56655302 -17.75 80.1875 C-17.07788489 83.71466818 -16.34575472 85.50772248 -13.5625 87.8125 C-7.33001609 91.96748928 -0.82530402 91.4781947 6.4375 90.8125 C10.73524995 89.31357419 13.46558995 87.31086132 15.9375 83.5 C16.94490486 78.08519888 17.23204081 74.43214088 14.8125 69.5 C11.79721691 66.08796914 8.9322206 64.10447175 4.29931641 63.56225586 C1.06453089 63.44291492 -2.16182847 63.43011265 -5.3984375 63.4609375 C-12.68899334 63.3207345 -17.24601887 60.83446736 -22.5859375 55.96875 C-23.03195313 55.4221875 -23.47796875 54.875625 -23.9375 54.3125 C-24.39898437 53.7659375 -24.86046875 53.219375 -25.3359375 52.65625 C-29.58444151 46.26996372 -29.47458718 39.2221994 -28.5625 31.8125 C-25.98962426 24.8721448 -21.87118027 20.5024828 -15.5625 16.8125 C-12.08924819 15.6547494 -9.20182552 15.74383348 -5.5625 15.8125 C-5.61470703 14.45705078 -5.61470703 14.45705078 -5.66796875 13.07421875 C-5.69503906 11.89472656 -5.72210938 10.71523438 -5.75 9.5 C-5.78480469 8.32824219 -5.81960937 7.15648437 -5.85546875 5.94921875 C-5.5625 2.8125 -5.5625 2.8125 -4.2109375 0.8828125 C-2.5625 -0.1875 -2.5625 -0.1875 0 0 Z " fill="#060606" transform="translate(256.5625,246.1875)"/>
<path d="M0 0 C4.40155018 4.21745492 8.26108607 8.79009229 12.125 13.5 C12.74503906 14.24636719 13.36507812 14.99273437 14.00390625 15.76171875 C16.97346567 19.3698931 19.75856176 22.8770625 22 27 C18.04 27.495 18.04 27.495 14 28 C13.67 45.16 13.34 62.32 13 80 C4.75 80 -3.5 80 -12 80 C-12.04898438 76.41382813 -12.09796875 72.82765625 -12.1484375 69.1328125 C-12.20240084 65.67101762 -12.25972661 62.2092937 -12.31738281 58.74755859 C-12.35573647 56.33615372 -12.3905779 53.92469038 -12.421875 51.51318359 C-12.46738703 48.05284687 -12.52540404 44.59291492 -12.5859375 41.1328125 C-12.59748871 40.04944611 -12.60903992 38.96607971 -12.62094116 37.84988403 C-12.64081085 36.8489975 -12.66068054 35.84811096 -12.68115234 34.81689453 C-12.69447601 33.93309113 -12.70779968 33.04928772 -12.7215271 32.13870239 C-12.80669004 29.7867175 -12.80669004 29.7867175 -15 28 C-16.98821313 27.60235737 -18.98944339 27.26224651 -21 27 C-17.82296098 22.02419623 -14.25071711 17.4919422 -10.5 12.9375 C-9.36444873 11.55089147 -8.22902896 10.16417524 -7.09375 8.77734375 C-6.56265625 8.13007324 -6.0315625 7.48280273 -5.484375 6.81591797 C-3.63863148 4.55791792 -1.81532437 2.28250344 0 0 Z " fill="#71C0E7" transform="translate(65,111)"/>
<path d="M0 0 C3.68237804 3.59581219 7.11431951 7.32090675 10.4375 11.25 C10.91614502 11.81485107 11.39479004 12.37970215 11.88793945 12.96166992 C15.6159761 17.41900887 18.96283937 22.04058581 22 27 C18.04 27.495 18.04 27.495 14 28 C13.67 45.16 13.34 62.32 13 80 C4.75 80 -3.5 80 -12 80 C-12.33 62.84 -12.66 45.68 -13 28 C-15.64 27.67 -18.28 27.34 -21 27 C-16.77804881 21.35347581 -12.52728404 15.72971701 -8.25 10.125 C-7.67378906 9.36703125 -7.09757812 8.6090625 -6.50390625 7.828125 C-5.67439453 6.74144531 -5.67439453 6.74144531 -4.828125 5.6328125 C-4.3321582 4.98199707 -3.83619141 4.33118164 -3.32519531 3.66064453 C-2 2 -2 2 0 0 Z " fill="#71C0E7" transform="translate(446,111)"/>
<path d="M0 0 C1 1 1 1 1.55957031 3.53540039 C0.67313265 9.02381091 -3.02638496 11.70585095 -6.953125 15.43359375 C-7.76489197 16.22975601 -8.57665894 17.02591827 -9.4130249 17.84620667 C-12.01153766 20.39127601 -14.62914996 22.91545471 -17.25 25.4375 C-19.85397348 27.95839868 -22.45337338 30.48359814 -25.04412842 33.01808167 C-26.65633291 34.5937664 -28.27649225 36.16136482 -29.90557861 37.71958923 C-36.94553004 44.56962106 -36.94553004 44.56962106 -40.48242188 53.56713867 C-40.47791016 54.3429126 -40.47339844 55.11868652 -40.46875 55.91796875 C-40.49001953 57.21057617 -40.49001953 57.21057617 -40.51171875 58.52929688 C-40.50785156 59.40650391 -40.50398438 60.28371094 -40.5 61.1875 C-40.46066834 70.22722628 -40.46066834 70.22722628 -42.83203125 73.625 C-45 75 -45 75 -48.1875 74.8125 C-51 74 -51 74 -52 73 C-52.31096695 69.34217083 -52.27864946 65.66939804 -52.3125 62 C-52.34150391 60.98292969 -52.37050781 59.96585937 -52.40039062 58.91796875 C-52.49777878 47.24637242 -48.54901695 40.76065777 -40.50750732 32.53155518 C-40.01002991 32.02614197 -39.51255249 31.52072876 -39 31 C-38.42904602 30.41595398 -37.85809204 29.83190796 -37.26983643 29.23016357 C-33.26891129 25.14492051 -29.23567393 21.09306759 -25.1862793 17.0559082 C-23.03901541 14.9140748 -20.8972385 12.76685591 -18.75585938 10.61914062 C-17.39094611 9.25488699 -16.02572332 7.89094295 -14.66015625 6.52734375 C-14.02062515 5.88578842 -13.38109406 5.24423309 -12.72218323 4.58323669 C-12.1307402 3.99494583 -11.53929718 3.40665497 -10.92993164 2.80053711 C-10.15124474 2.02304359 -10.15124474 2.02304359 -9.35682678 1.22984314 C-6.21289219 -1.61985473 -3.96222901 -0.84302745 0 0 Z " fill="#050303" transform="translate(447,413)"/>
<path d="M0 0 C3.14146628 1.17804986 3.96764718 1.949412 5.5 4.9375 C6.42187542 8.45480931 7.19217359 11.66851508 5.375 15 C3.5 15.9375 3.5 15.9375 1 15.9375 C-2.38932732 14.58176907 -3.05433532 13.26252876 -4.5 9.9375 C-5.98257373 3.79540885 -5.98257373 3.79540885 -4.375 0.9375 C-2.5 -0.0625 -2.5 -0.0625 0 0 Z " fill="#71FCB7" transform="translate(399.5,277.0625)"/>
<path d="M0 0 C0.90991047 2.97788882 1.25960381 4.43497994 -0.0625 7.3125 C-2 9 -2 9 -5.0625 9.4375 C-6.031875 9.293125 -7.00125 9.14875 -8 9 C-10 6 -10 6 -9.75 2.875 C-9.37875 1.451875 -9.37875 1.451875 -9 0 C-5.93109813 -1.53445094 -3.29905734 -0.54984289 0 0 Z " fill="#060404" transform="translate(462,399)"/>
<path d="M0 0 C1.670625 0.061875 1.670625 0.061875 3.375 0.125 C4.76931504 2.91363007 4.63160094 5.04578868 4.375 8.125 C1.375 10.125 1.375 10.125 -1.75 9.8125 C-4.625 9.125 -4.625 9.125 -5.625 8.125 C-5.8125 5.1875 -5.8125 5.1875 -5.625 2.125 C-3.625 0.125 -3.625 0.125 0 0 Z " fill="#000402" transform="translate(135.625,197.875)"/>
<path d="M0 0 C2 2 2 2 2.25 5 C2 8 2 8 0 10 C-2.83386167 10.3633156 -4.40522151 10.3568671 -6.875 8.875 C-8 7 -8 7 -7.8125 3.875 C-7.544375 2.92625 -7.27625 1.9775 -7 1 C-4.48718205 -0.25640898 -2.78302919 -0.20872719 0 0 Z " fill="#000302" transform="translate(323,94)"/>
</svg>
