<svg width="24" height="25" viewBox="0 0 24 25" fill="none" xmlns="http://www.w3.org/2000/svg">
<g id="Layer_1" clip-path="url(#clip0_4217_10124)">
<path id="Vector" d="M14 7.5V0.96C14.913 1.306 15.753 1.839 16.465 2.55L19.949 6.036C20.661 6.747 21.194 7.587 21.54 8.5H15C14.448 8.5 14 8.051 14 7.5ZM15.5 15.5H8.5C8.224 15.5 8 15.724 8 16V18C8 18.276 8.224 18.5 8.5 18.5H15.5C15.776 18.5 16 18.276 16 18V16C16 15.724 15.776 15.5 15.5 15.5ZM22 10.985V19.5C22 22.257 19.757 24.5 17 24.5H7C4.243 24.5 2 22.257 2 19.5V5.5C2 2.743 4.243 0.5 7 0.5H11.515C11.678 0.5 11.839 0.513 12 0.524V7.5C12 9.154 13.346 10.5 15 10.5H21.976C21.987 10.661 22 10.822 22 10.985ZM6 6.5C6 7.052 6.448 7.5 7 7.5H9C9.552 7.5 10 7.052 10 6.5C10 5.948 9.552 5.5 9 5.5H7C6.448 5.5 6 5.948 6 6.5ZM6 10.5C6 11.052 6.448 11.5 7 11.5H9C9.552 11.5 10 11.052 10 10.5C10 9.948 9.552 9.5 9 9.5H7C6.448 9.5 6 9.948 6 10.5ZM18 16C18 14.622 16.878 13.5 15.5 13.5H8.5C7.122 13.5 6 14.622 6 16V18C6 19.378 7.122 20.5 8.5 20.5H15.5C16.878 20.5 18 19.378 18 18V16Z" fill="#2A99E6"/>
</g>
<defs>
<clipPath id="clip0_4217_10124">
<rect width="24" height="24" fill="white" transform="translate(0 0.5)"/>
</clipPath>
</defs>
</svg>
