<svg width="40" height="40" viewBox="-7 -9 40 40" fill="none" xmlns="http://www.w3.org/2000/svg">
<g id="Layer_1" clip-path="url(#clip0_3088_8371)">
<g id="Group">
<path id="Vector" d="M23.76 15.4366C23.3363 14.7653 22.47 14.5028 21.75 14.8328L21.4051 14.9903C21.4163 14.5966 21.4088 14.3191 21.4088 14.3116C21.4088 14.1766 21.3825 11.0191 19.0163 10.3066C18.075 10.0216 17.0175 9.46656 16.3013 9.05031C16.6613 8.61156 16.95 8.05281 17.1338 7.40031C17.58 7.13406 17.8725 6.42156 17.9625 5.96406C18.105 5.23281 17.85 4.80906 17.5126 4.62156L17.5313 4.15656C17.565 3.38031 17.3063 2.66031 16.8 2.13531C16.26 1.56906 15.4913 1.25781 14.64 1.25781H14.1113C13.26 1.25781 12.4913 1.56906 11.9513 2.13531C11.4375 2.66031 11.1788 3.37656 11.2163 4.14906L11.235 4.61781C10.9013 4.80531 10.6463 5.22906 10.785 5.96406C10.8713 6.42156 11.1638 7.13781 11.61 7.40031C11.7938 8.05281 12.0825 8.61156 12.4425 9.05031C11.6513 9.50781 10.6388 10.0328 9.72755 10.3066C7.8938 10.8578 7.4663 12.9278 7.3688 13.8391H5.46755V13.2016C5.46755 12.9991 5.3063 12.8378 5.1038 12.8378H1.0013C0.810049 12.8378 0.652549 12.9841 0.637549 13.1753L4.89999e-05 21.5566C-0.007451 21.6578 0.026299 21.7553 0.097549 21.8303C0.165049 21.9053 0.262549 21.9466 0.363799 21.9466H5.1038C5.3063 21.9466 5.46755 21.7853 5.46755 21.5828V20.9153H7.0988C7.2263 20.9153 7.35005 20.9378 7.47005 20.9828L11.88 22.5766C12.2025 22.6928 12.5363 22.7491 12.87 22.7491C13.3425 22.7491 13.8113 22.6366 14.2313 22.4078L23.1525 17.6941C23.6775 17.4203 24 16.8766 24 16.2841C24 15.9841 23.9175 15.6916 23.76 15.4366ZM11.9925 6.78156C11.8763 6.73656 11.595 6.33156 11.4975 5.82531C11.4713 5.69781 11.4113 5.27406 11.6363 5.23281C11.6513 5.22906 11.6813 5.22531 11.6963 5.22156C11.8613 5.18031 11.9738 5.02656 11.97 4.85781L11.9438 4.12281C11.9175 3.53781 12.1013 3.02406 12.4725 2.63406C12.8738 2.21406 13.455 1.98156 14.1075 1.98156H14.6363C15.2888 1.98156 15.87 2.21406 16.2713 2.63406C16.6425 3.02406 16.8263 3.53781 16.8 4.12656L16.7738 4.85781C16.7663 5.03031 16.8825 5.18031 17.0475 5.22531C17.055 5.22531 17.0851 5.23281 17.0926 5.23281C17.3288 5.27781 17.2688 5.69781 17.2425 5.82906C17.145 6.33531 16.86 6.74031 16.755 6.78156C16.6125 6.80781 16.5 6.91281 16.4663 7.05156C16.1325 8.42406 15.2888 9.34656 14.3663 9.34656C13.4438 9.34656 12.6038 8.42406 12.2663 7.05156C12.2363 6.90906 12.1313 6.80781 11.9925 6.78156ZM9.93755 11.0003C10.98 10.6853 12.135 10.0741 12.9825 9.57531C13.4025 9.89031 13.875 10.0703 14.3663 10.0703C14.8613 10.0703 15.3338 9.89406 15.75 9.57531C16.4925 10.0103 17.7076 10.6703 18.7988 11.0003C20.6475 11.5591 20.6738 14.2816 20.6738 14.3228C20.6738 14.3266 20.6888 14.7766 20.6551 15.3278L18.75 16.1978V13.8353C18.75 13.6328 18.5888 13.4716 18.3863 13.4716C18.1838 13.4716 18.0225 13.6328 18.0225 13.8353V16.5278L16.6388 17.1578C16.6425 17.1241 16.65 17.0903 16.65 17.0566C16.65 16.2878 16.0238 15.6616 15.2513 15.6616H11.9063C11.73 15.6616 11.5538 15.6166 11.3925 15.5341L10.7213 15.1816V13.8353C10.7213 13.6328 10.56 13.4716 10.3575 13.4716C10.155 13.4716 9.9938 13.6328 9.9938 13.8353V14.7953L8.5688 14.0453C8.4188 13.9666 8.25755 13.9103 8.09255 13.8766C8.18255 13.0928 8.5388 11.4241 9.93755 11.0003ZM4.74005 21.2228H0.757549L1.3388 13.5653H4.74005V21.2228ZM22.815 17.0528L13.89 21.7666C13.35 22.0553 12.705 22.1003 12.1238 21.8903L7.71755 20.2966C7.5188 20.2253 7.3088 20.1878 7.0988 20.1878H5.46755V14.5628H7.6838H7.68755H7.7063H7.71005H7.7213C7.89755 14.5628 8.0738 14.6078 8.2313 14.6903L11.0588 16.1791C11.3213 16.3141 11.6175 16.3853 11.9063 16.3853H15.2513C15.6225 16.3853 15.9225 16.6853 15.9225 17.0528C15.9225 17.2816 15.8138 17.4391 15.7275 17.5291C15.6863 17.5703 15.6338 17.6078 15.5775 17.6416L15.5363 17.6603C15.4463 17.7016 15.3488 17.7241 15.255 17.7241H10.9425C10.2375 17.7241 9.66755 18.2941 9.66755 18.9991C9.66755 19.2016 9.8288 19.3628 10.0313 19.3628C10.2338 19.3628 10.395 19.2016 10.395 18.9991C10.395 18.6991 10.6425 18.4516 10.9425 18.4516H15.255C15.4538 18.4516 15.6525 18.4066 15.8363 18.3203L21.1463 15.9016H21.15L22.0538 15.4891C22.4475 15.3091 22.92 15.4516 23.1488 15.8191C23.235 15.9541 23.2801 16.1153 23.2801 16.2803C23.2726 16.6066 23.0963 16.9028 22.815 17.0528Z" fill="#69560D"/>
</g>
</g>
<defs>
<clipPath id="clip0_3088_8371">
<rect width="24" height="24" fill="white"/>
</clipPath>
</defs>
</svg>
