<svg width="40" height="40" viewBox="-7 -9 40 40" fill="none" xmlns="http://www.w3.org/2000/svg">
<g id="Layer_1">
<g id="Group">
<path id="Vector" d="M9.3649 22.3603H17.7499C19.1299 22.3603 20.2499 21.2403 20.2499 19.8603V5.86031C20.2499 5.58531 20.0249 5.36031 19.7499 5.36031H13.7599L15.2149 3.90031C15.3099 3.80531 15.3599 3.68031 15.3599 3.54531C15.3599 3.41031 15.3099 3.28531 15.2149 3.19031L13.7999 1.77531C13.6099 1.58531 13.2799 1.58531 13.0899 1.77531L9.9149 4.96031L8.8549 3.90031C8.6599 3.70531 8.3449 3.70531 8.1499 3.89531L5.4849 6.50031C5.2899 6.69031 5.2849 7.00531 5.4699 7.20031L6.5449 8.34531L3.8899 11.0053C3.6949 11.2003 3.6949 11.5153 3.8899 11.7103L5.3049 13.1253C5.4949 13.3153 5.8299 13.3103 6.0149 13.1253L6.8599 12.2753V19.8553C6.8649 21.2403 7.9849 22.3603 9.3649 22.3603ZM19.2499 6.36031V19.8603C19.2499 20.6853 18.5749 21.3603 17.7499 21.3603H9.3649C8.5399 21.3603 7.8649 20.6853 7.8649 19.8603V11.2753L12.7649 6.36031H19.2499ZM6.5349 6.87531L8.4949 4.95531L9.2099 5.67031L7.2549 7.64031L6.5349 6.87531ZM5.6649 12.0703L4.9599 11.3653L7.5599 8.75531C7.5749 8.74531 7.5949 8.73031 7.6049 8.71531L13.4499 2.84031L14.1549 3.55031L12.2399 5.47531C12.2099 5.50031 12.1799 5.52531 12.1749 5.54031L7.1099 10.6203C7.0349 10.6653 6.9749 10.7253 6.9349 10.7953L5.6649 12.0703Z" fill="#04302E"/>
<path id="Vector_2" d="M11.25 9.35938C10.975 9.35938 10.75 9.58437 10.75 9.85938V17.3594C10.75 17.6344 10.975 17.8594 11.25 17.8594C11.525 17.8594 11.75 17.6344 11.75 17.3594V9.85938C11.75 9.58437 11.525 9.35938 11.25 9.35938Z" fill="#04302E"/>
<path id="Vector_3" d="M15.75 17.8594C16.025 17.8594 16.25 17.6344 16.25 17.3594V9.85938C16.25 9.58437 16.025 9.35938 15.75 9.35938C15.475 9.35938 15.25 9.58437 15.25 9.85938V17.3594C15.25 17.6394 15.475 17.8594 15.75 17.8594Z" fill="#04302E"/>
</g>
</g>
</svg>
