<svg width="24" height="24" viewBox="0 0 24 24" fill="none" xmlns="http://www.w3.org/2000/svg">
<path d="M22.7413 8.77909H15.2231V1.26187C17.1937 1.32556 19.0701 2.13611 20.4686 3.53444C21.867 4.93275 22.6776 6.80893 22.7413 8.77909Z" stroke="white" stroke-width="2.5"/>
<mask id="path-2-inside-1_2210_7299" fill="white">
<path d="M22.8889 12.0369H13.0832C12.9394 12.0369 12.7971 12.0086 12.6642 11.9536C12.5314 11.8986 12.4107 11.8179 12.309 11.7163C12.2073 11.6146 12.1267 11.4939 12.0717 11.3611C12.0167 11.2283 11.9883 11.0859 11.9883 10.9421V1.11335C11.9893 0.957305 11.9572 0.802825 11.8942 0.660052C11.8312 0.517279 11.7387 0.389439 11.6228 0.284922C11.5069 0.180404 11.3703 0.101572 11.2217 0.053599C11.0732 0.00562559 10.9163 -0.0104048 10.7611 0.00655988C8.5025 0.246365 6.3579 1.12054 4.57532 2.52799C2.79274 3.93543 1.44501 5.81866 0.68797 7.95989C-0.0690682 10.1011 -0.204485 12.4129 0.297381 14.6279C0.799246 16.8428 1.91789 18.8705 3.52396 20.4764C5.13002 22.0823 7.1579 23.2008 9.37307 23.7027C11.5883 24.2045 13.9002 24.0691 16.0417 23.3121C18.1831 22.5551 20.0665 21.2075 21.4741 19.4251C22.8817 17.6427 23.756 15.4983 23.9958 13.2399C24.0092 13.0867 23.9905 12.9324 23.9409 12.7868C23.8913 12.6412 23.8119 12.5075 23.7077 12.3943C23.6036 12.2811 23.477 12.1909 23.336 12.1293C23.195 12.0678 23.0427 12.0363 22.8889 12.0369Z"/>
</mask>
<path d="M22.8889 12.0369V14.5369L22.8984 14.5369L22.8889 12.0369ZM11.9883 1.11335L9.48838 1.09853L9.48834 1.10594V1.11335H11.9883ZM10.7611 0.00655988L11.0251 2.4926L11.0329 2.49175L10.7611 0.00655988ZM23.9958 13.2399L26.4818 13.5039L26.4843 13.4807L26.4863 13.4574L23.9958 13.2399ZM22.8889 9.53691H13.0832V14.5369H22.8889V9.53691ZM13.0832 9.53691C13.2677 9.53691 13.4504 9.57324 13.6208 9.64384L11.7076 14.2633C12.1437 14.4439 12.6112 14.5369 13.0832 14.5369V9.53691ZM13.6208 9.64384C13.7913 9.71444 13.9462 9.81793 14.0767 9.9484L10.5413 13.4841C10.8752 13.8179 11.2715 14.0827 11.7076 14.2633L13.6208 9.64384ZM14.0767 9.9484C14.2072 10.0789 14.3107 10.2338 14.3813 10.4043L9.76201 12.3179C9.94269 12.754 10.2075 13.1503 10.5413 13.4841L14.0767 9.9484ZM14.3813 10.4043C14.452 10.5748 14.4883 10.7576 14.4883 10.9421H9.48834C9.48834 11.4142 9.58133 11.8817 9.76201 12.3179L14.3813 10.4043ZM14.4883 10.9421V1.11335H9.48834V10.9421H14.4883ZM14.4883 1.12817C14.4913 0.619606 14.3867 0.116163 14.1814 -0.349118L9.60692 1.66922C9.52762 1.48949 9.48722 1.295 9.48838 1.09853L14.4883 1.12817ZM14.1814 -0.349118C13.9762 -0.8144 13.6748 -1.231 13.2972 -1.57158L9.94849 2.14143C9.80263 2.00988 9.68622 1.84896 9.60692 1.66922L14.1814 -0.349118ZM13.2972 -1.57158C12.9195 -1.91217 12.4741 -2.16904 11.9902 -2.32536L10.4533 2.43255C10.2664 2.37218 10.0944 2.27298 9.94849 2.14143L13.2972 -1.57158ZM11.9902 -2.32536C11.5063 -2.48167 10.9949 -2.5339 10.4894 -2.47863L11.0329 2.49175C10.8377 2.51309 10.6401 2.49292 10.4533 2.43255L11.9902 -2.32536ZM10.4972 -2.47947C7.76929 -2.18984 5.17909 -1.13404 3.02611 0.565859L6.12453 4.49011C7.53671 3.37512 9.23571 2.68257 11.0251 2.49259L10.4972 -2.47947ZM3.02611 0.565859C0.873129 2.26576 -0.754685 4.54033 -1.66905 7.12656L3.04499 8.79323C3.6447 7.09699 4.71236 5.60511 6.12453 4.49011L3.02611 0.565859ZM-1.66905 7.12656C-2.58342 9.71279 -2.74698 12.505 -2.14082 15.1803L2.73558 14.0754C2.33801 12.3208 2.44529 10.4895 3.04499 8.79323L-1.66905 7.12656ZM-2.14082 15.1803C-1.53465 17.8556 -0.183525 20.3046 1.75628 22.2442L5.29164 18.7085C4.01931 17.4363 3.13314 15.83 2.73558 14.0754L-2.14082 15.1803ZM1.75628 22.2442C3.69608 24.1839 6.14531 25.5348 8.82073 26.1409L9.92542 21.2644C8.17048 20.8669 6.56397 19.9807 5.29164 18.7085L1.75628 22.2442ZM8.82073 26.1409C11.4962 26.7469 14.2885 26.5834 16.8749 25.6692L15.2085 20.955C13.512 21.5547 11.6804 21.662 9.92542 21.2644L8.82073 26.1409ZM16.8749 25.6692C19.4612 24.7549 21.736 23.1273 23.4361 20.9745L19.5122 17.8757C18.3971 19.2877 16.905 20.3553 15.2085 20.955L16.8749 25.6692ZM23.4361 20.9745C25.1362 18.8217 26.1922 16.2317 26.4818 13.5039L21.5098 12.9759C21.3198 14.765 20.6272 16.4637 19.5122 17.8757L23.4361 20.9745ZM26.4863 13.4574C26.5299 12.958 26.469 12.455 26.3073 11.9805L21.5744 13.593C21.512 13.4097 21.4884 13.2154 21.5053 13.0225L26.4863 13.4574ZM26.3073 11.9805C26.1456 11.506 25.8868 11.0705 25.5474 10.7016L21.868 14.0871C21.7369 13.9446 21.6369 13.7763 21.5744 13.593L26.3073 11.9805ZM25.5474 10.7016C25.2081 10.3327 24.7955 10.0387 24.3361 9.83813L22.3358 14.4206C22.1584 14.3431 21.9991 14.2295 21.868 14.0871L25.5474 10.7016ZM24.3361 9.83813C23.8768 9.6376 23.3806 9.53502 22.8794 9.53692L22.8984 14.5369C22.7048 14.5376 22.5132 14.498 22.3358 14.4206L24.3361 9.83813Z" fill="white" mask="url(#path-2-inside-1_2210_7299)"/>
</svg>
