<svg width="40" height="36" viewBox="0 0 40 36" fill="none" xmlns="http://www.w3.org/2000/svg">
<g id="hand recieve money">
<path id="Vector" d="M0.833374 17.5H5.83337V31.6667H0.833374V17.5Z" fill="#6FABE6"/>
<path id="Vector_2" d="M5.83333 17.5C5.83333 30.625 5.75 30 5.83333 30C4.94928 30 4.10143 29.6488 3.47631 29.0237C2.85119 28.3986 2.5 27.5507 2.5 26.6667V17.5H5.83333Z" fill="#82BCF4"/>
<path id="Vector_3" d="M39.1669 24.1654C39.1671 24.6253 39.0403 25.0764 38.8007 25.4689C38.561 25.8615 38.2177 26.1803 37.8085 26.3904C23.1168 33.8987 23.4251 34.1654 20.1418 34.1654C17.7584 34.1654 16.8084 33.4737 10.1417 30.4487C8.91672 29.882 8.06672 29.9987 5.83337 29.9987V19.1654C13.7751 18.1737 11.2417 17.7737 23.5668 23.5654C23.9593 23.7509 24.2967 24.0355 24.5457 24.391C24.7948 24.7465 24.9471 25.1608 24.9874 25.593C25.0278 26.0253 24.9549 26.4606 24.776 26.8561C24.597 27.2516 24.3181 27.5937 23.9668 27.8487L35.5252 21.9404C35.9064 21.7447 36.3315 21.6503 36.7596 21.6662C37.1878 21.6821 37.6047 21.8077 37.9703 22.0311C38.3359 22.2545 38.638 22.5681 38.8475 22.9418C39.0571 23.3156 39.167 23.7369 39.1669 24.1654Z" fill="#F6CCAF"/>
<path id="Vector_4" d="M39.0168 23.3318C38.5752 24.6235 38.7502 24.2401 24.3918 31.5818C23.0784 32.2503 21.6139 32.5661 20.1417 32.4985C17.7584 32.4985 16.8084 31.8068 10.1417 28.7818C9.57365 28.5163 8.95954 28.3635 8.33334 28.3318C8.11232 28.3318 7.90036 28.244 7.74408 28.0877C7.5878 27.9314 7.5 27.7195 7.5 27.4985V18.9568C13.475 18.2151 11.7834 18.0318 23.5668 23.5651C23.8951 23.7211 24.1854 23.9469 24.4175 24.2266C24.6497 24.5063 24.818 24.8333 24.9108 25.1847C25.0036 25.5362 25.0187 25.9036 24.955 26.2615C24.8912 26.6194 24.7502 26.959 24.5418 27.2568C24.1668 27.8485 23.3918 28.1485 24.7084 27.4651C36.2835 21.5568 35.5418 21.9068 35.8335 21.8151C36.4568 21.5959 37.1416 21.6324 37.7381 21.9166C38.3346 22.2008 38.7944 22.7096 39.0168 23.3318Z" fill="#FFDEC7"/>
<path id="Vector_5" d="M21.075 28.8447L14.5 25.753C14.3169 25.6488 14.18 25.4791 14.1169 25.2781C14.0539 25.077 14.0693 24.8595 14.1601 24.6694C14.251 24.4793 14.4105 24.3306 14.6065 24.2534C14.8026 24.1761 15.0206 24.176 15.2167 24.253L21.7917 27.3447C23.2 28.003 23.7 26.4197 24.5417 27.2613C24.1667 27.853 23.3917 28.153 24.7084 27.4697C25.3584 28.7363 22.7167 29.6363 21.075 28.8447Z" fill="#EDB996"/>
<path id="Vector_6" d="M12.5001 0.835938H37.5003V14.1693H12.5001V0.835938Z" fill="#9DCC6B"/>
<path id="Vector_7" d="M37.5002 0.835938V12.5026H16.6668C16.0614 12.5089 15.4743 12.2952 15.0145 11.9013C14.5547 11.5075 14.2535 10.9601 14.1667 10.3609C14.1667 10.1359 14.1667 10.8859 14.1667 0.835938H37.5002Z" fill="#B5E08C"/>
<path id="Vector_8" d="M28.3334 7.49826C28.3347 8.09797 28.1741 8.68692 27.8686 9.20301C27.5632 9.7191 27.1241 10.1432 26.5978 10.4307C26.0715 10.7181 25.4773 10.8583 24.878 10.8363C24.2787 10.8143 23.6964 10.6311 23.1925 10.3059C22.6887 9.9807 22.2818 9.52558 22.015 8.98852C21.7481 8.45145 21.6311 7.85234 21.6762 7.25433C21.7213 6.65632 21.927 6.08156 22.2714 5.59063C22.6159 5.09971 23.0864 4.71081 23.6334 4.46493C24.1405 4.23698 24.6966 4.13949 25.251 4.18133C25.8054 4.22318 26.3405 4.40303 26.8076 4.70451C27.2748 5.006 27.6591 5.41954 27.9256 5.90748C28.192 6.39543 28.3322 6.94229 28.3334 7.49826Z" fill="#84B749"/>
<path id="Vector_9" d="M28.0335 8.86712C27.4178 9.14085 26.7335 9.22154 26.071 9.09856C25.4085 8.97558 24.7988 8.6547 24.3224 8.17824C23.8459 7.70177 23.525 7.09209 23.4021 6.42958C23.2791 5.76707 23.3598 5.08284 23.6335 4.46712C24.2492 4.19339 24.9334 4.1127 25.596 4.23568C26.2585 4.35866 26.8681 4.67953 27.3446 5.156C27.8211 5.63247 28.142 6.24215 28.2649 6.90466C28.3879 7.56717 28.3072 8.25139 28.0335 8.86712Z" fill="#9DCC6B"/>
<path id="Vector_10" d="M16.6668 0.835938C16.6668 1.94101 16.2278 3.00081 15.4464 3.78222C14.665 4.56362 13.6052 5.0026 12.5001 5.0026V3.33594C13.1632 3.33594 13.799 3.07255 14.2679 2.6037C14.7367 2.13486 15.0001 1.49898 15.0001 0.835938H16.6668Z" fill="#84B749"/>
<path id="Vector_11" d="M37.5002 3.33594V5.0026C36.3951 5.0026 35.3353 4.56362 34.5539 3.78222C33.7725 3.00081 33.3335 1.94101 33.3335 0.835938H35.0002C35.0002 1.49898 35.2636 2.13486 35.7324 2.6037C36.2012 3.07255 36.8371 3.33594 37.5002 3.33594Z" fill="#9DCC6B"/>
<g id="Group">
<path id="Vector_12" d="M16.6668 14.1667H15.0001C15.0001 13.5036 14.7367 12.8677 14.2679 12.3989C13.799 11.9301 13.1632 11.6667 12.5001 11.6667V10C13.6052 10 14.665 10.439 15.4464 11.2204C16.2278 12.0018 16.6668 13.0616 16.6668 14.1667Z" fill="#84B749"/>
<path id="Vector_13" d="M37.5003 10V11.6667C36.8372 11.6667 36.2014 11.9301 35.7325 12.3989C35.2637 12.8677 35.0003 13.5036 35.0003 14.1667H33.3336C33.3336 13.0616 33.7726 12.0018 34.554 11.2204C35.3354 10.439 36.3952 10 37.5003 10Z" fill="#84B749"/>
<path id="Vector_14" d="M17.5002 8.33073C17.2792 8.33073 17.0672 8.24293 16.9109 8.08665C16.7547 7.93037 16.6669 7.71841 16.6669 7.4974C16.6669 7.33258 16.7157 7.17146 16.8073 7.03442C16.8989 6.89738 17.029 6.79057 17.1813 6.7275C17.3336 6.66442 17.5011 6.64792 17.6628 6.68008C17.8244 6.71223 17.9729 6.7916 18.0895 6.90814C18.206 7.02468 18.2854 7.17317 18.3175 7.33482C18.3497 7.49647 18.3332 7.66403 18.2701 7.8163C18.207 7.96857 18.1002 8.09872 17.9632 8.19029C17.8261 8.28186 17.665 8.33073 17.5002 8.33073Z" fill="#84B749"/>
<path id="Vector_15" d="M32.5002 8.33072C32.3635 8.32992 32.2292 8.29551 32.1089 8.23053C31.9886 8.16554 31.8862 8.07197 31.8107 7.95806C31.7351 7.84415 31.6887 7.71341 31.6756 7.57734C31.6625 7.44128 31.683 7.30408 31.7355 7.17784C31.7879 7.0516 31.8705 6.94019 31.9762 6.85343C32.0818 6.76667 32.2071 6.70723 32.3412 6.68034C32.4752 6.65346 32.6138 6.65995 32.7447 6.69925C32.8756 6.73855 32.9949 6.80946 33.0919 6.90571C33.2094 7.02227 33.2896 7.17119 33.3221 7.33348C33.3547 7.49577 33.3382 7.66408 33.2747 7.81695C33.2112 7.96982 33.1037 8.10032 32.9658 8.19183C32.8278 8.28333 32.6658 8.33168 32.5002 8.33072Z" fill="#84B749"/>
</g>
<path id="Vector_16" d="M37.5002 10V11.6667C37.1493 11.6674 36.8025 11.742 36.4823 11.8855C36.1621 12.0291 35.8758 12.2385 35.6418 12.5H33.6752C33.9999 11.756 34.5349 11.123 35.2144 10.6789C35.8939 10.2348 36.6884 9.9988 37.5002 10Z" fill="#9DCC6B"/>
<path id="Vector_17" d="M16.3084 12.501C15.7663 12.4276 15.2632 12.1783 14.8763 11.7914C14.4895 11.4046 14.2402 10.9015 14.1667 10.3594C15.119 10.7867 15.8811 11.5488 16.3084 12.501Z" fill="#9DCC6B"/>
<path id="Vector_18" d="M16.6667 0.835938C16.668 1.64773 16.432 2.44219 15.9879 3.12171C15.5437 3.80124 14.9108 4.33622 14.1667 4.66094V2.69427C14.4283 2.46034 14.6377 2.17398 14.7812 1.85381C14.9248 1.53364 14.9994 1.18683 15.0001 0.835938H16.6667Z" fill="#9DCC6B"/>
<path id="Vector_19" d="M39.6336 22.6474C39.4343 22.2569 39.1599 21.9095 38.8261 21.6252C38.4924 21.3409 38.1058 21.1252 37.6885 20.9905C37.2713 20.8558 36.8316 20.8048 36.3946 20.8403C35.9576 20.8758 35.5319 20.9971 35.1419 21.1974L25.8335 25.9557C25.8584 25.3027 25.6908 24.6567 25.3515 24.0981C25.0122 23.5395 24.5162 23.093 23.9251 22.8141C11.8084 17.1224 13.7751 17.3307 6.6667 18.2224V17.4974C6.6667 17.2764 6.57891 17.0644 6.42263 16.9081C6.26634 16.7519 6.05438 16.6641 5.83337 16.6641H0.833338C0.612323 16.6641 0.40036 16.7519 0.244079 16.9081C0.0877979 17.0644 0 17.2764 0 17.4974L0 31.6641C0 31.8851 0.0877979 32.097 0.244079 32.2533C0.40036 32.4096 0.612323 32.4974 0.833338 32.4974H5.83337C6.05438 32.4974 6.26634 32.4096 6.42263 32.2533C6.57891 32.097 6.6667 31.8851 6.6667 31.6641V30.8307C8.04171 30.8307 8.80005 30.7391 9.80839 31.2057C22.3085 36.8724 19.0751 36.9057 38.1919 27.1307C38.977 26.7267 39.5697 26.0278 39.84 25.1872C40.1103 24.3467 40.036 23.4333 39.6336 22.6474ZM5.00003 30.8307H1.66668V18.3307H5.00003V30.8307ZM37.4335 25.6474C22.8501 33.0974 22.9668 33.3307 20.6001 33.3307C19.3808 33.3906 18.1646 33.1622 17.0501 32.6641C8.61671 28.8391 10.0001 29.1641 6.6667 29.1641V19.8974C13.5084 19.0641 11.1751 18.6641 23.2085 24.3141C23.4079 24.4078 23.5867 24.5402 23.7347 24.7035C23.8826 24.8668 23.9967 25.0578 24.0703 25.2655C24.1439 25.4732 24.1756 25.6935 24.1636 25.9135C24.1516 26.1335 24.096 26.349 24.0001 26.5474C23.9101 26.7473 23.7815 26.9275 23.6217 27.0777C23.4619 27.2278 23.274 27.3449 23.0689 27.4223C22.8638 27.4997 22.6453 27.5359 22.4262 27.5288C22.207 27.5216 21.9915 27.4713 21.7918 27.3807L15.2168 24.2474C15.0206 24.1704 14.8026 24.1705 14.6066 24.2478C14.4105 24.325 14.251 24.4737 14.1602 24.6638C14.0694 24.8539 14.0539 25.0714 14.117 25.2725C14.18 25.4735 14.3169 25.6432 14.5001 25.7474L21.0751 28.8391C21.5945 29.0903 22.1711 29.1995 22.7463 29.1556C23.3216 29.1117 23.8749 28.9162 24.3501 28.5891L35.9002 22.6807C36.2936 22.4774 36.7517 22.4387 37.1736 22.5731C37.5956 22.7075 37.9469 23.004 38.1502 23.3974C38.3535 23.7908 38.3923 24.2489 38.2579 24.6708C38.1235 25.0928 37.827 25.4441 37.4335 25.6474Z" fill="black"/>
<path id="Vector_20" d="M12.5001 15H37.5002C37.7212 15 37.9332 14.9122 38.0895 14.7559C38.2458 14.5996 38.3336 14.3877 38.3336 14.1667V0.833333C38.3336 0.61232 38.2458 0.400358 38.0895 0.244078C37.9332 0.0877973 37.7212 0 37.5002 0H12.5001C12.2791 0 12.0671 0.0877973 11.9108 0.244078C11.7545 0.400358 11.6667 0.61232 11.6667 0.833333V14.1667C11.6667 14.3877 11.7545 14.5996 11.9108 14.7559C12.0671 14.9122 12.2791 15 12.5001 15ZM16.5834 1.66667H33.4169C33.5802 2.46741 33.9754 3.20245 34.5532 3.78032C35.1311 4.35818 35.8661 4.75336 36.6669 4.91667V10.0833C35.8661 10.2466 35.1311 10.6418 34.5532 11.2197C33.9754 11.7975 33.5802 12.5326 33.4169 13.3333H16.5834C16.4201 12.5326 16.025 11.7975 15.4471 11.2197C14.8692 10.6418 14.1342 10.2466 13.3334 10.0833V4.91667C14.1342 4.75336 14.8692 4.35818 15.4471 3.78032C16.025 3.20245 16.4201 2.46741 16.5834 1.66667ZM13.3334 11.8167C13.6829 11.9411 14.0004 12.1418 14.2627 12.4041C14.525 12.6664 14.7257 12.9838 14.8501 13.3333H13.3334V11.8167ZM35.1502 13.3333C35.2746 12.9838 35.4753 12.6664 35.7376 12.4041C36 12.1418 36.3174 11.9411 36.6669 11.8167V13.3333H35.1502ZM36.6669 3.18333C36.3174 3.0589 36 2.85824 35.7376 2.59592C35.4753 2.33359 35.2746 2.01616 35.1502 1.66667H36.6669V3.18333ZM14.8501 1.66667C14.7257 2.01616 14.525 2.33359 14.2627 2.59592C14.0004 2.85824 13.6829 3.0589 13.3334 3.18333V1.66667H14.8501Z" fill="black"/>
<path id="Vector_21" d="M25.0002 11.6693C25.8243 11.6693 26.6298 11.4249 27.315 10.9671C28.0002 10.5092 28.5343 9.85848 28.8497 9.09712C29.165 8.33576 29.2475 7.49798 29.0868 6.68973C28.926 5.88148 28.5292 5.13905 27.9464 4.55633C27.3637 3.97361 26.6213 3.57677 25.813 3.416C25.0048 3.25523 24.167 3.33774 23.4056 3.65311C22.6443 3.96847 21.9935 4.50253 21.5357 5.18773C21.0779 5.87293 20.8335 6.67852 20.8335 7.50261C20.8335 8.60767 21.2725 9.66748 22.0539 10.4489C22.8353 11.2303 23.8951 11.6693 25.0002 11.6693ZM25.0002 5.00261C25.4946 5.00261 25.978 5.14923 26.3891 5.42393C26.8002 5.69864 27.1206 6.08908 27.3099 6.5459C27.4991 7.00271 27.5486 7.50538 27.4521 7.99033C27.3557 8.47528 27.1176 8.92074 26.7679 9.27037C26.4183 9.62 25.9728 9.85811 25.4879 9.95457C25.0029 10.051 24.5003 10.0015 24.0435 9.8123C23.5866 9.62309 23.1962 9.30265 22.9215 8.89153C22.6468 8.48041 22.5002 7.99706 22.5002 7.50261C22.5002 6.83956 22.7636 6.20368 23.2324 5.73484C23.7012 5.266 24.3371 5.00261 25.0002 5.00261Z" fill="black"/>
<path id="Vector_22" d="M17.5 8.33072C17.6367 8.32992 17.7711 8.29551 17.8914 8.23053C18.0116 8.16554 18.1141 8.07197 18.1896 7.95806C18.2652 7.84415 18.3116 7.71341 18.3247 7.57734C18.3378 7.44128 18.3172 7.30408 18.2648 7.17784C18.2124 7.0516 18.1297 6.94019 18.0241 6.85343C17.9185 6.76667 17.7931 6.70723 17.6591 6.68034C17.5251 6.65346 17.3865 6.65995 17.2556 6.69925C17.1247 6.73855 17.0054 6.80946 16.9084 6.90571C16.7909 7.02227 16.7107 7.17119 16.6781 7.33348C16.6456 7.49577 16.6621 7.66408 16.7256 7.81695C16.789 7.96982 16.8966 8.10032 17.0345 8.19183C17.1725 8.28333 17.3345 8.33168 17.5 8.33072Z" fill="black"/>
<path id="Vector_23" d="M32.5002 8.33072C32.6369 8.32992 32.7713 8.29551 32.8915 8.23053C33.0118 8.16554 33.1142 8.07197 33.1897 7.95806C33.2653 7.84415 33.3117 7.71341 33.3248 7.57734C33.3379 7.44128 33.3174 7.30408 33.2649 7.17784C33.2125 7.0516 33.1299 6.94019 33.0242 6.85343C32.9186 6.76667 32.7933 6.70723 32.6592 6.68034C32.5252 6.65346 32.3866 6.65995 32.2557 6.69925C32.1248 6.73855 32.0056 6.80946 31.9085 6.90571C31.791 7.02227 31.7108 7.17119 31.6783 7.33348C31.6457 7.49577 31.6622 7.66408 31.7257 7.81695C31.7892 7.96982 31.8967 8.10032 32.0347 8.19183C32.1726 8.28333 32.3346 8.33168 32.5002 8.33072Z" fill="black"/>
</g>
</svg>
