<svg width="30" height="30" viewBox="0 0 30 30" fill="none" xmlns="http://www.w3.org/2000/svg">
<g clip-path="url(#clip0_8468_11654)">
<path d="M24.1877 22.6877L26.5964 14.5948C26.912 13.5344 26.3082 12.4189 25.2478 12.1033C24.1874 11.7877 23.0719 12.3915 22.7563 13.4519L22.165 15.4386L18.511 8.6878C18.0545 7.84438 17.0006 7.53073 16.1572 7.98725C15.3138 8.44377 15.0001 9.49761 15.4566 10.3411L14.622 8.79922C14.1655 7.9558 13.1116 7.64213 12.2682 8.09866C11.4248 8.55519 11.1111 9.60906 11.5677 10.4525L12.0509 11.3452C11.5943 10.5018 10.5405 10.1881 9.69703 10.6446C8.85361 11.1011 8.53996 12.155 8.99647 12.9984L10.1889 15.2014C9.73229 14.3579 8.67846 14.0443 7.83503 14.5008C6.99161 14.9573 6.67796 16.0112 7.13448 16.8546L10.8153 23.6549C12.7048 27.1458 17.0665 28.4439 20.5574 26.5544L21.4335 26.0801C22.8199 25.3297 23.7709 24.0884 24.1877 22.6881C24.1877 22.6879 24.1877 22.6878 24.1877 22.6877Z" fill="#F6EE86"/>
<path d="M10.3605 15.5172L10.1888 15.2L9.69859 14.6337C9.1733 14.2432 8.44855 14.1674 7.83501 14.4995C6.99158 14.956 6.67794 16.0098 7.13445 16.8533C7.13445 16.8533 8.59816 19.5575 9.40745 21.0526C8.89704 18.9157 9.35843 16.5905 10.3605 15.5172Z" fill="#EED076"/>
<path d="M8.99643 12.9969L9.63657 14.1796C9.62377 13.6251 9.82944 11.474 10.8928 10.4739C10.5008 10.3884 10.0775 10.4371 9.69693 10.6431C8.85356 11.0996 8.5399 12.1535 8.99643 12.9969Z" fill="#EED076"/>
<path d="M20.0127 7.21869C20.9021 7.69433 21.4424 8.65273 21.3892 9.6602C21.379 9.8542 21.528 10.0196 21.7218 10.0298C21.9157 10.04 22.0812 9.89113 22.0914 9.69722C22.1589 8.41861 21.4731 7.20232 20.3444 6.59865C20.1729 6.50701 19.9601 6.57168 19.8685 6.74284C19.7769 6.91411 19.8415 7.12715 20.0127 7.21869ZM20.9036 4.90816C22.8136 5.92965 23.9739 7.98774 23.8597 10.1513C23.8494 10.3455 23.9986 10.5108 24.1922 10.521C24.3861 10.5312 24.5516 10.3823 24.5618 10.1884C24.6904 7.75372 23.3846 5.43773 21.2352 4.28821C21.064 4.19652 20.851 4.26115 20.7594 4.4324C20.6679 4.60359 20.7324 4.81662 20.9036 4.90816ZM5.77639 22.6368C3.90237 21.5493 2.81381 19.4524 3.00295 17.2947C3.01989 17.1013 2.87707 16.9306 2.68339 16.9138C2.48997 16.8968 2.31945 17.0399 2.30248 17.2333C2.08961 19.6615 3.31463 22.0211 5.42343 23.2449C5.59095 23.3422 5.8063 23.2856 5.90399 23.1173C6.00145 22.9494 5.94433 22.7342 5.77639 22.6368ZM25.348 11.7686C24.1035 11.3982 22.7897 12.1094 22.4193 13.3539L22.0701 14.527L18.8202 8.52267C18.2708 7.50771 17.0049 7.13085 15.9898 7.68029C15.5364 7.92573 15.1964 8.32085 15.0218 8.80151L14.9312 8.63407C14.3831 7.62147 13.1133 7.24365 12.1008 7.79167C11.2373 8.2591 10.8354 9.25121 11.0757 10.1612C10.5745 10.0236 10.0217 10.0713 9.5296 10.3376C8.5171 10.8857 8.1392 12.1554 8.68722 13.168L9.13638 13.9977C8.65608 13.8852 8.13457 13.9411 7.66761 14.1938C6.6551 14.7419 6.2772 16.0116 6.82523 17.0241L10.2352 23.3241C10.3277 23.4949 10.541 23.5583 10.7118 23.4659C10.8825 23.3735 10.9461 23.1601 10.8536 22.9894L7.44361 16.6894C7.08008 16.0178 7.33074 15.1756 8.0024 14.8121C8.67554 14.4477 9.51526 14.6976 9.87963 15.3708L11.6236 18.5928C11.716 18.7635 11.9293 18.827 12.1001 18.7346C12.2709 18.6422 12.3344 18.4288 12.242 18.2581C12.2377 18.2501 9.35009 12.9153 9.30562 12.8332C8.94209 12.1616 9.19273 11.3195 9.86435 10.9559C10.5352 10.5928 11.3764 10.8425 11.7405 11.5125L11.7414 11.5141C11.9273 11.8576 14.2531 16.1545 14.3853 16.3987C14.4777 16.5695 14.691 16.633 14.8618 16.5405C15.0326 16.4481 15.0961 16.2348 15.0036 16.064C14.6282 15.3703 12.2234 10.9277 11.8768 10.2872C11.5132 9.61562 11.7639 8.77348 12.4355 8.40994C13.1071 8.04646 13.9493 8.29702 14.3128 8.96868L17.413 14.6963C17.5055 14.8671 17.7188 14.9305 17.8895 14.8381C18.0603 14.7457 18.1238 14.5323 18.0314 14.3616L15.7657 10.1759C15.4022 9.50429 15.6528 8.66212 16.3244 8.29857C16.9975 7.93422 17.8373 8.18401 18.2017 8.8573L21.8557 15.6081C22.0044 15.8826 22.4126 15.841 22.5019 15.541L23.0931 13.5544C23.3529 12.6815 24.2745 12.1827 25.1474 12.4425C26.0203 12.7023 26.5191 13.6238 26.2593 14.4967L26.1036 15.0197C26.0482 15.2058 26.1542 15.4015 26.3403 15.4569C26.5264 15.5123 26.7222 15.4063 26.7775 15.2203L26.9332 14.6973C27.3037 13.4529 26.5926 12.139 25.348 11.7686ZM20.4847 16.8314C20.3549 16.687 20.1326 16.6753 19.9883 16.8052C18.6216 18.0348 17.9369 19.8606 18.1569 21.6893C18.1802 21.8826 18.3556 22.0195 18.5479 21.9964C18.7407 21.9732 18.8782 21.7981 18.855 21.6054C18.6623 20.0036 19.2618 18.4046 20.4585 17.3279C20.6029 17.198 20.6146 16.9757 20.4847 16.8314ZM26.063 16.3892C25.8768 16.3338 25.6811 16.4398 25.6257 16.6258L23.8507 22.59C23.4424 23.9615 22.5246 25.092 21.2662 25.7732L20.39 26.2474C17.3954 27.8683 13.7224 27.0219 11.7142 24.4006C11.596 24.2464 11.3754 24.2172 11.2212 24.3353C11.0671 24.4534 11.0379 24.674 11.156 24.8282C13.3805 27.732 17.4355 28.6462 20.7247 26.8658L21.6008 26.3916C23.0244 25.621 24.0627 24.3421 24.5246 22.7903L26.2996 16.8264C26.355 16.6403 26.2491 16.4446 26.063 16.3892ZM6.71613 20.2998C5.84348 19.7934 5.33656 18.817 5.42466 17.8122C5.44163 17.6188 5.29884 17.4482 5.1051 17.4313C4.91167 17.4144 4.74115 17.5575 4.72419 17.7508C4.61242 19.026 5.25574 20.2653 6.36317 20.9079C6.53069 21.0052 6.74604 20.9486 6.84373 20.7803C6.94114 20.6124 6.88402 20.3973 6.71613 20.2998Z" fill="black"/>
</g>
<defs>
<clipPath id="clip0_8468_11654">
<rect width="24" height="24" fill="white" transform="translate(6.84622) rotate(16.5743)"/>
</clipPath>
</defs>
</svg>
