<svg width="18" height="14" viewBox="0 0 18 14" fill="none" xmlns="http://www.w3.org/2000/svg">
<g id="&#240;&#159;&#166;&#134; icon &#34;trending up&#34;">
<path id="Vector" d="M0.00709543 12.375C-0.00236503 12.4534 -0.00236504 12.5329 0.00709541 12.6112C0.0157948 12.6773 0.0326138 12.7417 0.0570698 12.8025C0.083479 12.8575 0.11355 12.9101 0.147026 12.96C0.185055 13.0312 0.232208 13.0956 0.286959 13.1512L0.406899 13.23C0.464598 13.2784 0.528677 13.3164 0.596806 13.3425L0.796709 13.3425C0.857618 13.4089 0.928738 13.4622 1.0066 13.5L6.00414 13.5C6.26923 13.5 6.52346 13.3815 6.7109 13.1705C6.89835 12.9595 7.00365 12.6734 7.00365 12.375C7.00365 12.0766 6.89835 11.7905 6.7109 11.5795C6.52346 11.3685 6.26923 11.25 6.00414 11.25L3.17554 11.25L7.17357 5.95125L11.4914 8.8425C11.696 8.97941 11.9372 9.02971 12.1717 8.98434C12.4062 8.93897 12.6186 8.80091 12.7708 8.595L17.7684 1.845C17.8525 1.73132 17.9159 1.60007 17.9549 1.45877C17.994 1.31746 18.0078 1.16888 17.9958 1.02153C17.9837 0.874184 17.9459 0.730965 17.8846 0.600074C17.8233 0.469183 17.7396 0.353193 17.6384 0.258751C17.4586 0.0910348 17.2323 -0.00051219 16.9987 1.81982e-06C16.8519 -0.000267129 16.7068 0.0358838 16.5738 0.105882C16.4408 0.17588 16.3231 0.278009 16.2291 0.405001L11.7813 6.4125L7.5134 3.5325C7.31097 3.39736 7.07266 3.34696 6.84045 3.39017C6.60824 3.43339 6.39703 3.56746 6.24403 3.76875L2.00611 9.3375L2.00611 6.75C2.00611 6.45163 1.90081 6.16548 1.71336 5.9545C1.52592 5.74353 1.27169 5.625 1.0066 5.625C0.741519 5.625 0.487288 5.74353 0.299845 5.9545C0.112401 6.16548 0.00709589 6.45163 0.00709587 6.75L0.00709543 12.375Z" fill="#CE3333"/>
</g>
</svg>
