<svg width="18" height="14" viewBox="0 0 18 14" fill="none" xmlns="http://www.w3.org/2000/svg">
<g id="&#240;&#159;&#166;&#134; icon &#34;trending up&#34;">
<path id="Vector" d="M17.9968 1.625C18.0063 1.54661 18.0063 1.46714 17.9968 1.38875C17.9881 1.3227 17.9713 1.25833 17.9468 1.1975C17.9204 1.14252 17.8904 1.08987 17.8569 1.04C17.8189 0.968847 17.7717 0.904403 17.7169 0.84875L17.597 0.77C17.5393 0.721576 17.4752 0.683617 17.4071 0.6575H17.2072C17.1463 0.591119 17.0752 0.537752 16.9973 0.5L11.9998 0.5C11.7347 0.5 11.4804 0.618527 11.293 0.829505C11.1056 1.04048 11.0003 1.32663 11.0003 1.625C11.0003 1.92337 11.1056 2.20952 11.293 2.42049C11.4804 2.63147 11.7347 2.75 11.9998 2.75L14.8284 2.75L10.8303 8.04875L6.51246 5.1575C6.30795 5.02059 6.06674 4.97029 5.83222 5.01566C5.5977 5.06103 5.38526 5.19908 5.23309 5.405L0.235553 12.155C0.151392 12.2687 0.0879833 12.3999 0.048958 12.5412C0.00993276 12.6825 -0.00394219 12.8311 0.00812774 12.9785C0.0201977 13.1258 0.0579754 13.269 0.119297 13.3999C0.180619 13.5308 0.26428 13.6468 0.365489 13.7412C0.545312 13.909 0.771637 14.0005 1.00517 14C1.15201 14.0003 1.2971 13.9641 1.43012 13.8941C1.56314 13.8241 1.68082 13.722 1.7748 13.595L6.22261 7.5875L10.4905 10.4675C10.6929 10.6026 10.9312 10.653 11.1635 10.6098C11.3957 10.5666 11.6069 10.4325 11.7599 10.2312L15.9978 4.6625L15.9978 7.25C15.9978 7.54837 16.1031 7.83452 16.2905 8.04549C16.478 8.25647 16.7322 8.375 16.9973 8.375C17.2624 8.375 17.5166 8.25647 17.7041 8.04549C17.8915 7.83452 17.9968 7.54837 17.9968 7.25L17.9968 1.625Z" fill="#42B683"/>
</g>
</svg>
