<svg width="14" height="10" viewBox="0 0 14 10" fill="none" xmlns="http://www.w3.org/2000/svg">
<path d="M13.9945 9.16667C14.0018 9.22473 14.0018 9.2836 13.9945 9.34167C13.9877 9.39059 13.9746 9.43827 13.9556 9.48333C13.9351 9.52406 13.9117 9.56306 13.8856 9.6C13.8561 9.65271 13.8194 9.70044 13.7768 9.74167L13.6835 9.8C13.6386 9.83587 13.5888 9.86399 13.5358 9.88333H13.3803C13.333 9.9325 13.2776 9.97204 13.2171 10H9.33011C9.12393 10 8.9262 9.9122 8.78041 9.75592C8.63462 9.59964 8.55272 9.38768 8.55272 9.16667C8.55272 8.94565 8.63462 8.73369 8.78041 8.57741C8.9262 8.42113 9.12393 8.33333 9.33011 8.33333H11.5301L8.42056 4.40833L5.06221 6.55C4.90314 6.65142 4.71554 6.68867 4.53313 6.65507C4.35073 6.62146 4.1855 6.5192 4.06714 6.36667L0.180169 1.36667C0.114711 1.28246 0.0653933 1.18524 0.0350403 1.08057C0.00468728 0.975899 -0.00610435 0.865838 0.00328337 0.756691C0.0126711 0.647544 0.0420538 0.541455 0.0897485 0.4445C0.137443 0.347544 0.202513 0.261625 0.281231 0.191668C0.421094 0.0674334 0.597124 -0.000378609 0.778764 1.90735e-06C0.892971 -0.000197411 1.00582 0.0265808 1.10928 0.0784321C1.21273 0.130282 1.30427 0.205934 1.37736 0.300002L4.83677 4.75L8.15624 2.61667C8.31369 2.51656 8.49904 2.47923 8.67965 2.51124C8.86026 2.54325 9.02453 2.64256 9.14354 2.79167L12.4397 6.91667L12.4397 5C12.4397 4.77899 12.5216 4.56703 12.6674 4.41075C12.8132 4.25447 13.0109 4.16667 13.2171 4.16667C13.4233 4.16667 13.621 4.25447 13.7668 4.41075C13.9126 4.56703 13.9945 4.77899 13.9945 5L13.9945 9.16667Z" fill="#26855C"/>
</svg>
