<svg width="78" height="77" viewBox="0 0 78 77" fill="none" xmlns="http://www.w3.org/2000/svg">
<g id="icons8-inventory (1) 1" opacity="0.16">
<g id="Group">
<g id="Group_2">
<path id="Vector" d="M-3.28729 42.9091V85.6327H70.237L70.236 42.9091L33.4748 24.0312L-3.28729 42.9091Z" fill="#FEFDEF"/>
<path id="Vector_2" d="M59.8045 85.1335H7.14517V48.3713C7.14517 46.725 8.47954 45.3906 10.1259 45.3906H56.8237C58.4701 45.3906 59.8045 46.725 59.8045 48.3713V85.1335Z" fill="#1A5C8A"/>
<path id="Vector_3" d="M59.8045 53.3392H7.14517V48.3713C7.14517 46.725 8.47954 45.3906 10.1259 45.3906H56.8237C58.4701 45.3906 59.8045 46.725 59.8045 48.3713V53.3392Z" fill="#CDCBBD"/>
<path id="Vector_4" d="M37.946 40.421H29.0038C28.4554 40.421 28.0103 39.9759 28.0103 39.4274V36.4467C28.0103 35.8982 28.4554 35.4531 29.0038 35.4531H37.946C38.4944 35.4531 38.9395 35.8982 38.9395 36.4467V39.4274C38.9395 39.9759 38.4944 40.421 37.946 40.421Z" fill="#78CDD4"/>
<path id="Vector_5" d="M70.237 42.8604L33.4748 24.0312L-3.28729 42.8604V47.8283L33.4748 28.9991L70.237 47.8283V42.8604Z" fill="#CECCBE"/>
<path id="Vector_6" d="M33.4748 14.0938L74.2112 34.9587V44.8945L33.4748 24.0295L-7.26161 44.8945V34.9587L33.4748 14.0938Z" fill="#1A5C8A"/>
<path id="Vector_7" d="M53.843 68.2463V82.1563C53.843 83.8027 52.5086 85.1371 50.8623 85.1371H36.4555C34.8092 85.1371 33.4748 83.8027 33.4748 82.1563V68.2463C33.4748 66.6 34.8092 65.2656 36.4555 65.2656H50.8623C52.5086 65.2656 53.843 66.6 53.843 68.2463Z" fill="#FCBA7F"/>
<path id="Vector_8" d="M33.4748 68.2463V82.1563C33.4748 83.8027 32.1404 85.1371 30.4941 85.1371H16.0873C14.441 85.1371 13.1066 83.8027 13.1066 82.1563V68.2463C13.1066 66.6 14.441 65.2656 16.0873 65.2656H30.4941C32.1404 65.2656 33.4748 66.6 33.4748 68.2463Z" fill="#FCBA7F"/>
<g id="Group_3">
<path id="Vector_9" d="M37.946 40.9224H29.0038C28.1821 40.9224 27.5135 40.2537 27.5135 39.432V36.4513C27.5135 35.6296 28.1821 34.9609 29.0038 34.9609H37.946C38.7676 34.9609 39.4363 35.6296 39.4363 36.4513V39.432C39.4363 40.2537 38.7676 40.9224 37.946 40.9224ZM29.0038 35.9545C28.7296 35.9545 28.507 36.1771 28.507 36.4513V39.432C28.507 39.7062 28.7296 39.9288 29.0038 39.9288H37.946C38.2202 39.9288 38.4427 39.7062 38.4427 39.432V36.4513C38.4427 36.1771 38.2202 35.9545 37.946 35.9545H29.0038Z" fill="#1F212B"/>
<path id="Vector_10" d="M74.2114 45.8889C74.0564 45.8889 73.9004 45.8522 73.7583 45.7796L33.4749 25.1471L-6.80843 45.7796C-7.11643 45.9376 -7.48405 45.9237 -7.78014 45.7429C-8.07523 45.562 -8.25507 45.2411 -8.25507 44.8954V34.9596C-8.25507 34.5871 -8.04642 34.2453 -7.71456 34.0754L33.0219 13.2104C33.306 13.0653 33.6438 13.0653 33.928 13.2104L74.6644 34.0754C74.9963 34.2453 75.2049 34.5871 75.2049 34.9596V44.8954C75.2049 45.2411 75.0251 45.562 74.729 45.7429C74.571 45.8402 74.3912 45.8889 74.2114 45.8889ZM33.4749 23.0368C33.6299 23.0368 33.7859 23.0735 33.928 23.1461L73.2178 43.2699V35.5667L33.4749 15.2114L-6.26792 35.5667V43.2699L33.0219 23.1461C33.1639 23.0735 33.3199 23.0368 33.4749 23.0368Z" fill="#1F212B"/>
<path id="Vector_11" d="M70.237 86.6234H-3.28733C-3.83578 86.6234 -4.2809 86.1783 -4.2809 85.6298V42.9062H-2.29376V84.6362H69.2434V42.9062H71.2305V85.6298C71.2305 85.8931 71.1262 86.1465 70.9394 86.3323C70.7526 86.5181 70.5003 86.6234 70.237 86.6234Z" fill="#1F212B"/>
<path id="Vector_12" d="M59.8045 85.6349H7.14524C6.87101 85.6349 6.64845 85.4123 6.64845 85.1381V48.3759C6.64845 46.4583 8.20836 44.8984 10.126 44.8984H56.8238C58.7414 44.8984 60.3013 46.4583 60.3013 48.3759V85.1381C60.3013 85.4123 60.0788 85.6349 59.8045 85.6349ZM7.64202 84.6413H59.3077V48.3759C59.3077 47.0068 58.193 45.892 56.8238 45.892H10.126C8.75681 45.892 7.64202 47.0068 7.64202 48.3759V84.6413Z" fill="#1F212B"/>
<path id="Vector_13" d="M59.8045 53.8373H7.14524C6.87101 53.8373 6.64845 53.6148 6.64845 53.3405C6.64845 53.0663 6.87101 52.8438 7.14524 52.8438H59.8045C60.0788 52.8438 60.3013 53.0663 60.3013 53.3405C60.3013 53.6148 60.0788 53.8373 59.8045 53.8373Z" fill="#1F212B"/>
<path id="Vector_14" d="M35.9588 49.8608H30.991C30.7167 49.8608 30.4942 49.6382 30.4942 49.364C30.4942 49.0897 30.7167 48.8672 30.991 48.8672H35.9588C36.233 48.8672 36.4556 49.0897 36.4556 49.364C36.4556 49.6382 36.233 49.8608 35.9588 49.8608Z" fill="#1F212B"/>
<path id="Vector_15" d="M50.8624 85.6306H36.4556C34.538 85.6306 32.9781 84.0707 32.9781 82.1531V68.2431C32.9781 66.3255 34.538 64.7656 36.4556 64.7656H50.8624C52.78 64.7656 54.3399 66.3255 54.3399 68.2431V82.1531C54.3399 84.0707 52.78 85.6306 50.8624 85.6306ZM36.4556 65.7592C35.0864 65.7592 33.9717 66.874 33.9717 68.2431V82.1531C33.9717 83.5223 35.0864 84.6371 36.4556 84.6371H50.8624C52.2315 84.6371 53.3463 83.5223 53.3463 82.1531V68.2431C53.3463 66.874 52.2315 65.7592 50.8624 65.7592H36.4556Z" fill="#1F212B"/>
<path id="Vector_16" d="M30.4941 85.6306H16.0873C14.1697 85.6306 12.6098 84.0707 12.6098 82.1531V68.2431C12.6098 66.3255 14.1697 64.7656 16.0873 64.7656H30.4941C32.4116 64.7656 33.9716 66.3255 33.9716 68.2431V82.1531C33.9716 84.0707 32.4116 85.6306 30.4941 85.6306ZM16.0873 65.7592C14.7181 65.7592 13.6033 66.874 13.6033 68.2431V82.1531C13.6033 83.5223 14.7181 84.6371 16.0873 84.6371H30.4941C31.8632 84.6371 32.978 83.5223 32.978 82.1531V68.2431C32.978 66.874 31.8632 65.7592 30.4941 65.7592H16.0873Z" fill="#1F212B"/>
<path id="Vector_17" d="M47.3849 71.7215H40.4299C39.8814 71.7215 39.4363 71.2764 39.4363 70.7279C39.4363 70.1795 39.8814 69.7344 40.4299 69.7344H47.3849C47.9333 69.7344 48.3785 70.1795 48.3785 70.7279C48.3785 71.2764 47.9333 71.7215 47.3849 71.7215Z" fill="#1F212B"/>
<path id="Vector_18" d="M26.5199 71.7215H19.5649C19.0164 71.7215 18.5713 71.2764 18.5713 70.7279C18.5713 70.1795 19.0164 69.7344 19.5649 69.7344H26.5199C27.0683 69.7344 27.5134 70.1795 27.5134 70.7279C27.5134 71.2764 27.0683 71.7215 26.5199 71.7215Z" fill="#1F212B"/>
</g>
</g>
</g>
</g>
</svg>
