<svg width="40" height="40" viewBox="-7 -9 40 40" fill="none" xmlns="http://www.w3.org/2000/svg">
<g id="Frame" clip-path="url(#clip0_3088_8432)">
<g id="Out line">
<path id="Vector" d="M8.625 14.625V10.5C8.625 10.4005 8.58549 10.3052 8.51516 10.2348C8.44484 10.1645 8.34946 10.125 8.25 10.125H6.75C6.65054 10.125 6.55516 10.1645 6.48484 10.2348C6.41451 10.3052 6.375 10.4005 6.375 10.5V14.625H7.125V10.875H7.875V14.625H8.625Z" fill="#023247"/>
<path id="Vector_2" d="M14.625 16.125V10.875C14.625 10.7755 14.5855 10.6802 14.5152 10.6098C14.4448 10.5395 14.3495 10.5 14.25 10.5H12.75C12.6505 10.5 12.5552 10.5395 12.4848 10.6098C12.4145 10.6802 12.375 10.7755 12.375 10.875V16.125H13.125V11.25H13.875V16.125H14.625Z" fill="#023247"/>
<path id="Vector_3" d="M11.625 16.125V9.375C11.625 9.27554 11.5855 9.18016 11.5152 9.10984C11.4448 9.03951 11.3495 9 11.25 9H9.75C9.65054 9 9.55516 9.03951 9.48484 9.10984C9.41451 9.18016 9.375 9.27554 9.375 9.375V15.375H10.125V9.75H10.875V16.125H11.625Z" fill="#023247"/>
<path id="Vector_4" d="M17.625 13.125V9.375C17.625 9.27554 17.5855 9.18016 17.5152 9.10984C17.4448 9.03951 17.3495 9 17.25 9H15.75C15.6505 9 15.5552 9.03951 15.4848 9.10984C15.4145 9.18016 15.375 9.27554 15.375 9.375V13.5H16.125V9.75H16.875V13.125H17.625Z" fill="#023247"/>
<path id="Vector_5" d="M20.625 12.75V7.125C20.625 7.02554 20.5855 6.93016 20.5152 6.85984C20.4448 6.78951 20.3495 6.75 20.25 6.75H18.75C18.6505 6.75 18.5552 6.78951 18.4848 6.85984C18.4145 6.93016 18.375 7.02554 18.375 7.125V12.75H19.125V7.5H19.875V12.75H20.625Z" fill="#023247"/>
<path id="Vector_6" d="M6.48483 9.26516C6.55516 9.33548 6.65055 9.37499 6.75001 9.37499C6.84947 9.37499 6.94486 9.33548 7.01519 9.26516L10.1107 6.16965L13.2213 9.62585C13.2553 9.6637 13.2967 9.69421 13.343 9.71553C13.3892 9.73685 13.4393 9.74853 13.4902 9.74986C13.4935 9.74995 13.4967 9.75 13.5 9.75C13.5995 9.75 13.6949 9.71049 13.7652 9.64016L18.75 4.65534V5.625C18.75 5.72446 18.7895 5.81984 18.8598 5.89016C18.9302 5.96049 19.0256 6 19.125 6H20.625C20.7245 6 20.8199 5.96049 20.8902 5.89016C20.9605 5.81984 21 5.72446 21 5.625V1.125C21 1.02554 20.9605 0.930162 20.8902 0.859836C20.8199 0.78951 20.7245 0.750001 20.625 0.75H16.125C16.0256 0.750001 15.9302 0.78951 15.8598 0.859836C15.7895 0.930162 15.75 1.02554 15.75 1.125V2.625C15.75 2.72446 15.7895 2.81984 15.8598 2.89016C15.9302 2.96049 16.0256 3 16.125 3H17.0947L13.5143 6.58035L10.4037 3.12415C10.3697 3.08631 10.3283 3.0558 10.2821 3.03448C10.2358 3.01316 10.1857 3.00148 10.1349 3.00014C10.084 2.9988 10.0333 3.00784 9.98606 3.0267C9.93878 3.04556 9.89583 3.07385 9.85983 3.10984L5.35983 7.60984C5.28951 7.68017 5.25 7.77555 5.25 7.875C5.25 7.97445 5.28951 8.06983 5.35983 8.14016L6.48483 9.26516ZM10.1107 3.91965L13.2213 7.37585C13.2553 7.41369 13.2967 7.4442 13.343 7.46552C13.3892 7.48684 13.4393 7.49852 13.4902 7.49986C13.5411 7.5012 13.5917 7.49216 13.639 7.4733C13.6862 7.45444 13.7292 7.42615 13.7652 7.39016L18.2652 2.89016C18.3176 2.83771 18.3533 2.77089 18.3678 2.69815C18.3823 2.62541 18.3748 2.55001 18.3464 2.4815C18.3181 2.41298 18.27 2.35441 18.2083 2.31321C18.1467 2.272 18.0742 2.25001 18 2.25H16.5V1.5H20.25V5.25H19.5V3.75C19.5 3.67583 19.478 3.60333 19.4368 3.54166C19.3956 3.47999 19.337 3.43192 19.2685 3.40354C19.2 3.37516 19.1246 3.36773 19.0518 3.3822C18.9791 3.39667 18.9123 3.43239 18.8598 3.48484L13.5143 8.83035L10.4037 5.37415C10.3697 5.3363 10.3283 5.30579 10.2821 5.28447C10.2358 5.26315 10.1857 5.25147 10.1349 5.25014C10.1316 5.25004 10.1283 5.25 10.125 5.25C10.0255 5.25 9.93016 5.28951 9.85983 5.35984L6.75001 8.46966L6.15533 7.875L10.1107 3.91965Z" fill="#023247"/>
<path id="Vector_7" d="M4.125 22.8758V22.1258H5.25C5.34946 22.1258 5.44484 22.0863 5.51516 22.0159C5.58549 21.9456 5.625 21.8502 5.625 21.7508V20.7683C7.41563 22.4119 9.77187 23.3005 12.2019 23.2485C14.632 23.1966 16.9481 22.2081 18.6668 20.4894L22.7652 16.3911C23.013 16.1434 23.1616 15.8135 23.1831 15.4638C23.2045 15.114 23.0973 14.7685 22.8817 14.4923C22.666 14.2161 22.3568 14.0283 22.0122 13.9643C21.6677 13.9003 21.3117 13.9645 21.0112 14.1449C20.8832 13.9467 20.7091 13.7825 20.5039 13.6663C20.2986 13.5501 20.0682 13.4852 19.8325 13.4774C19.5967 13.4695 19.3625 13.5188 19.15 13.6211C18.9374 13.7235 18.7528 13.8757 18.6118 14.0649L18.4529 14.2782C18.3716 14.2158 18.2845 14.1613 18.1929 14.1154C17.9989 14.0184 17.7873 13.9617 17.5708 13.9485C17.3543 13.9353 17.1374 13.966 16.9331 14.0388C16.7288 14.1116 16.5413 14.2249 16.3818 14.3719C16.2224 14.519 16.0943 14.6967 16.0053 14.8945L15.06 16.9953C14.862 16.9162 14.6507 16.8757 14.4375 16.8758H9.90532L9.26518 16.2356C8.79542 15.7671 8.18496 15.4657 7.52742 15.3775C6.86989 15.2894 6.20158 15.4193 5.625 15.7475V15.3758C5.625 15.2763 5.58549 15.1809 5.51516 15.1106C5.44484 15.0403 5.34946 15.0008 5.25 15.0008H4.125V14.6258C4.125 14.5263 4.08549 14.4309 4.01516 14.3606C3.94484 14.2903 3.84946 14.2508 3.75 14.2508H0.75V15.0008H3.375V22.5008H0.75V23.2508H3.75C3.84946 23.2508 3.94484 23.2113 4.01516 23.1409C4.08549 23.0706 4.125 22.9752 4.125 22.8758ZM20.15 14.3281C20.2782 14.4051 20.3787 14.5206 20.4373 14.6581L17.4619 17.6336C17.0636 18.0324 16.614 18.3764 16.1248 18.6564L19.2132 14.5131C19.3183 14.3712 19.4726 14.2736 19.6458 14.2394C19.8191 14.2052 19.9988 14.2368 20.15 14.3281ZM16.6892 15.2023C16.7368 15.0967 16.8052 15.0017 16.8903 14.9232C16.9754 14.8447 17.0756 14.7842 17.1847 14.7453C17.2938 14.7065 17.4096 14.6901 17.5252 14.6971C17.6409 14.7041 17.7539 14.7345 17.8575 14.7863C17.9095 14.8124 17.9587 14.8437 18.0045 14.8797L15.8935 17.7118C15.8345 17.611 15.7652 17.5166 15.6868 17.43L16.6892 15.2023ZM8.73482 16.7659L9.48482 17.5159C9.55515 17.5862 9.65054 17.6258 9.75 17.6258H14.4375C14.6861 17.6258 14.9246 17.7245 15.1004 17.9003C15.2762 18.0762 15.375 18.3146 15.375 18.5633C15.375 18.8119 15.2762 19.0504 15.1004 19.2262C14.9246 19.402 14.6861 19.5008 14.4375 19.5008H9.75V20.2508H14.4375C14.6695 20.2508 14.8991 20.2029 15.1117 20.11C15.3244 20.0171 15.5155 19.8812 15.6731 19.7109C16.541 19.354 17.3293 18.8281 17.9922 18.1639L21.2651 14.891C21.3937 14.7624 21.5682 14.6901 21.75 14.6901C21.9319 14.6901 22.1063 14.7624 22.2349 14.891C22.3635 15.0196 22.4358 15.194 22.4358 15.3759C22.4358 15.5578 22.3635 15.7322 22.2349 15.8608L18.1365 19.959C16.5089 21.5865 14.3016 22.5008 12 22.5008C9.69833 22.5007 7.49098 21.5864 5.8635 19.9589L5.625 19.7204V16.6638C6.05982 16.2837 6.62276 16.0827 7.20004 16.1017C7.77731 16.1206 8.32586 16.358 8.73482 16.7659ZM4.875 15.7508V21.3758H4.125V15.7508H4.875Z" fill="#023247"/>
</g>
</g>
<defs>
<clipPath id="clip0_3088_8432">
<rect width="24" height="24" fill="white"/>
</clipPath>
</defs>
</svg>
