<svg width="40" height="40" viewBox="-7 -9 40 40" fill="none" xmlns="http://www.w3.org/2000/svg">
<g id="Layer_3" clip-path="url(#clip0_3088_8366)">
<path id="Vector" d="M22.4711 13.1428L19.125 11.7482V10.7469C19.5856 10.4826 19.9844 10.1229 20.2949 9.69202C20.6053 9.26112 20.8201 8.76892 20.925 8.24831H21C21.2984 8.25239 21.5861 8.13777 21.8 7.92968C22.0139 7.72158 22.1363 7.43705 22.1404 7.13869C22.1445 6.84032 22.0298 6.55255 21.8217 6.33869C21.6136 6.12483 21.3291 6.00239 21.0308 5.99831L21.3983 5.14631C21.7123 4.41827 21.7283 3.59613 21.443 2.85638C21.1576 2.11663 20.5936 1.51825 19.872 1.18969L18.825 0.713436C18.2055 0.438378 17.5242 0.332074 16.8504 0.40531C16.1765 0.478545 15.534 0.728714 14.988 1.13044L14.4045 1.57069C13.8087 1.72413 13.297 2.10535 12.9795 2.63231C12.8041 2.9234 12.6947 3.2494 12.659 3.58734C12.6232 3.92529 12.662 4.26696 12.7725 4.58831C12.2064 4.47507 11.6221 4.48929 11.0621 4.62994C11.2224 3.94955 11.1415 3.23461 10.8333 2.60723C10.525 1.97985 10.0085 1.47894 9.372 1.19006L8.325 0.713436C7.70548 0.438378 7.02423 0.332074 6.35036 0.40531C5.67649 0.478545 5.03397 0.728714 4.488 1.13044L3.9045 1.57069C3.56655 1.65704 3.25222 1.81798 2.98458 2.04169C2.71695 2.26539 2.50281 2.54619 2.35787 2.86347C2.21293 3.18075 2.14088 3.52645 2.147 3.87521C2.15313 4.22398 2.23727 4.56694 2.39325 4.87894L2.9535 5.99831C2.65513 6.00448 2.37144 6.12892 2.16482 6.34426C1.9582 6.55959 1.84559 6.84819 1.85175 7.14656C1.85792 7.44493 1.98236 7.72863 2.1977 7.93525C2.41304 8.14186 2.70163 8.25448 3 8.24831H3.075C3.18031 8.76866 3.39533 9.26059 3.70571 9.69131C4.01609 10.122 4.41471 10.4816 4.875 10.7462V11.7482L1.52888 13.1428C1.18682 13.2846 0.894557 13.5248 0.689139 13.8329C0.48372 14.141 0.37439 14.5031 0.375003 14.8734V19.8733C0.375003 19.9728 0.414511 20.0681 0.484838 20.1385C0.555164 20.2088 0.650546 20.2483 0.750003 20.2483H3.375V23.2483C3.375 23.3478 3.41451 23.4431 3.48484 23.5135C3.55516 23.5838 3.65055 23.6233 3.75 23.6233H20.25C20.3495 23.6233 20.4448 23.5838 20.5152 23.5135C20.5855 23.4431 20.625 23.3478 20.625 23.2483V20.2483H23.25C23.3495 20.2483 23.4448 20.2088 23.5152 20.1385C23.5855 20.0681 23.625 19.9728 23.625 19.8733V14.8734C23.6256 14.5031 23.5163 14.141 23.3109 13.8329C23.1054 13.5248 22.8132 13.2846 22.4711 13.1428ZM13.2649 5.52094L14.3115 5.99831C14.8544 6.24562 15.2787 6.6959 15.4933 7.25252C15.7079 7.80913 15.6957 8.42769 15.4594 8.97544L15.3469 9.23231L14.9625 8.45569C14.938 8.40623 14.9029 8.36279 14.8596 8.32847C14.8164 8.29415 14.7661 8.2698 14.7124 8.25716C14.6587 8.24451 14.6028 8.24389 14.5488 8.25532C14.4948 8.26676 14.444 8.28997 14.4 8.32331L13.8 8.77331C13.2807 9.16278 12.6491 9.37331 12 9.37331C11.3509 9.37331 10.7193 9.16278 10.2 8.77331L9.6 8.32331C9.55622 8.29015 9.50562 8.26714 9.45186 8.25592C9.3981 8.2447 9.34252 8.24556 9.28913 8.25844C9.23558 8.27099 9.18545 8.29516 9.14229 8.32925C9.09913 8.36334 9.064 8.4065 9.03938 8.45569L8.625 9.28744L8.31525 8.66831C8.19442 8.4266 8.13735 8.15803 8.14947 7.88807C8.16159 7.61811 8.24249 7.35573 8.38449 7.12582C8.5265 6.89591 8.72489 6.7061 8.96086 6.5744C9.19682 6.4427 9.46252 6.37348 9.73275 6.37331C10.0216 6.37303 10.3061 6.44421 10.5608 6.58049C10.8155 6.71678 11.0326 6.91395 11.1926 7.15444L11.3104 7.33144L11.9344 6.91519L11.8166 6.73856C11.4833 6.23918 10.9813 5.87655 10.4025 5.71706C10.8279 5.45454 11.3108 5.29951 11.8095 5.26534C12.3082 5.23117 12.8077 5.31889 13.2649 5.52094ZM15.75 10.8733H16.125C16.2245 10.8733 16.3198 10.9128 16.3902 10.9831C16.4605 11.0535 16.5 11.1489 16.5 11.2483C16.5 11.3478 16.4605 11.4431 16.3902 11.5135C16.3198 11.5838 16.2245 11.6233 16.125 11.6233H15.75V10.8733ZM10.875 15.2004C11.6073 15.4309 12.3927 15.4309 13.125 15.2004V15.9681L12 17.0931L10.875 15.9681V15.2004ZM12 14.6233C11.2046 14.6224 10.4421 14.3061 9.87967 13.7436C9.31725 13.1812 9.0009 12.4187 9 11.6233V10.2118L9.50925 9.19293L9.75 9.37331C10.3991 9.86014 11.1886 10.1233 12 10.1233C12.8114 10.1233 13.6009 9.86014 14.25 9.37331L14.4908 9.19293L15 10.2118V11.6233C14.9991 12.4187 14.6828 13.1812 14.1203 13.7436C13.5579 14.3061 12.7954 14.6224 12 14.6233ZM8.25 11.6233H7.875C7.77555 11.6233 7.68016 11.5838 7.60984 11.5135C7.53951 11.4431 7.5 11.3478 7.5 11.2483C7.5 11.1489 7.53951 11.0535 7.60984 10.9831C7.68016 10.9128 7.77555 10.8733 7.875 10.8733H8.25V11.6233ZM3.375 19.1383V19.4983H1.125V14.8734C1.12487 14.6514 1.19056 14.4343 1.31378 14.2496C1.43699 14.065 1.6122 13.9209 1.81725 13.8358L5.39438 12.3456C5.46286 12.317 5.52133 12.2687 5.56239 12.2069C5.60344 12.1451 5.62523 12.0725 5.625 11.9983V10.5223C5.62302 10.4513 5.60177 10.3821 5.56353 10.3222C5.52529 10.2623 5.47149 10.2139 5.40788 10.1822C4.95958 9.95919 4.57451 9.62712 4.28803 9.21648C4.00156 8.80583 3.82287 8.32978 3.76838 7.83206C3.75822 7.7403 3.71458 7.65551 3.6458 7.59393C3.57702 7.53235 3.48795 7.4983 3.39563 7.49831H3C2.90055 7.49831 2.80516 7.4588 2.73484 7.38848C2.66451 7.31815 2.625 7.22277 2.625 7.12331C2.625 7.02385 2.66451 6.92847 2.73484 6.85815C2.80516 6.78782 2.90055 6.74831 3 6.74831H3.375C3.42447 6.74831 3.47345 6.73853 3.51912 6.71952C3.56479 6.70051 3.60624 6.67265 3.6411 6.63755C3.67596 6.60245 3.70352 6.5608 3.72221 6.515C3.7409 6.4692 3.75035 6.42015 3.75 6.37069L3.74738 5.99569C3.74703 5.9384 3.73356 5.88196 3.708 5.83069L3.06413 4.54331C2.95627 4.32717 2.89923 4.08925 2.89735 3.8477C2.89547 3.60616 2.94881 3.36737 3.05329 3.14958C3.15777 2.93179 3.31063 2.74076 3.5002 2.59106C3.68978 2.44136 3.91105 2.33695 4.14713 2.28581C4.2002 2.27406 4.25017 2.25118 4.29375 2.21869L4.93875 1.73119C5.37642 1.4095 5.89135 1.2092 6.43135 1.15059C6.97135 1.09198 7.51726 1.17714 8.01375 1.39744L9.0615 1.87331C9.60438 2.12062 10.0287 2.5709 10.2433 3.12752C10.4579 3.68413 10.4457 4.30269 10.2094 4.85044L10.1486 4.99106C10.0062 5.0699 9.8693 5.15823 9.73875 5.25544L9.14738 5.69831C8.81011 5.78496 8.49651 5.94601 8.22959 6.16966C7.96268 6.3933 7.74922 6.67386 7.60487 6.99076C7.46052 7.30765 7.38894 7.65284 7.39539 8.00101C7.40183 8.34917 7.48614 8.69148 7.64213 9.00281L8.20313 10.1233H7.875C7.57663 10.1233 7.29049 10.2418 7.07951 10.4528C6.86853 10.6638 6.75 10.9499 6.75 11.2483C6.75 11.5467 6.86853 11.8328 7.07951 12.0438C7.29049 12.2548 7.57663 12.3733 7.875 12.3733H8.325C8.4324 12.8922 8.64829 13.3825 8.9585 13.8121C9.26871 14.2416 9.66624 14.6008 10.125 14.8659V15.8383L4.74825 17.3319C4.35385 17.4424 4.0063 17.6786 3.75843 18.0046C3.51055 18.3307 3.37592 18.7287 3.375 19.1383ZM19.875 22.8733H17.625V19.8733H16.875V22.8733H7.125V19.8733H6.375V22.8733H4.125V19.1383C4.12555 18.8924 4.20645 18.6535 4.35539 18.4578C4.50433 18.2622 4.71313 18.1206 4.95 18.0546L10.3909 16.5433L11.736 17.8884C11.8063 17.9587 11.9017 17.9982 12.0011 17.9982C12.1006 17.9982 12.1959 17.9587 12.2663 17.8884L13.6114 16.5433L19.05 18.0546C19.2869 18.1206 19.4957 18.2622 19.6446 18.4578C19.7936 18.6535 19.8745 18.8924 19.875 19.1383V22.8733ZM22.875 19.4983H20.625V19.1383C20.6241 18.7287 20.4895 18.3307 20.2416 18.0046C19.9937 17.6786 19.6462 17.4424 19.2518 17.3319L13.875 15.8383V14.8659C14.3338 14.6008 14.7313 14.2416 15.0415 13.8121C15.3517 13.3825 15.5676 12.8922 15.675 12.3733H16.125C16.4234 12.3733 16.7095 12.2548 16.9205 12.0438C17.1315 11.8328 17.25 11.5467 17.25 11.2483C17.25 10.9499 17.1315 10.6638 16.9205 10.4528C16.7095 10.2418 16.4234 10.1233 16.125 10.1233H15.7808L16.1483 9.27169C16.4623 8.54364 16.4783 7.7215 16.193 6.98175C15.9076 6.24201 15.3436 5.64362 14.622 5.31506L13.752 4.91869L13.5645 4.54369C13.4566 4.32756 13.3995 4.08962 13.3975 3.84805C13.3956 3.60648 13.4489 3.36766 13.5533 3.14983C13.6578 2.932 13.8106 2.74092 14.0002 2.59117C14.1898 2.44143 14.411 2.33698 14.6471 2.28581C14.7002 2.27406 14.7502 2.25118 14.7938 2.21869L15.4388 1.73119C15.8764 1.4095 16.3913 1.2092 16.9313 1.15059C17.4714 1.09198 18.0173 1.17714 18.5138 1.39744L19.5615 1.87331C20.1044 2.12062 20.5287 2.5709 20.7433 3.12752C20.9579 3.68413 20.9457 4.30269 20.7094 4.85044L20.2781 5.84831C20.2577 5.89566 20.2472 5.94673 20.2474 5.99831L20.25 6.37331C20.25 6.47277 20.2895 6.56815 20.3598 6.63848C20.4302 6.7088 20.5255 6.74831 20.625 6.74831H21C21.0995 6.74831 21.1948 6.78782 21.2652 6.85815C21.3355 6.92847 21.375 7.02385 21.375 7.12331C21.375 7.22277 21.3355 7.31815 21.2652 7.38848C21.1948 7.4588 21.0995 7.49831 21 7.49831H20.6044C20.5121 7.4983 20.423 7.53235 20.3542 7.59393C20.2854 7.65551 20.2418 7.7403 20.2316 7.83206C20.1769 8.33167 19.9971 8.8094 19.7086 9.221C19.4202 9.6326 19.0326 9.96475 18.5816 10.1867C18.5191 10.2177 18.4666 10.2656 18.4298 10.3249C18.393 10.3842 18.3735 10.4525 18.3735 10.5223V11.9983C18.3735 12.0723 18.3954 12.1447 18.4364 12.2063C18.4775 12.2679 18.5358 12.3159 18.6041 12.3444L22.1828 13.8358C22.3878 13.9209 22.563 14.065 22.6862 14.2496C22.8094 14.4343 22.8751 14.6514 22.875 14.8734V19.4983Z" fill="#04302E"/>
</g>
<defs>
<clipPath id="clip0_3088_8366">
<rect width="24" height="24" fill="white"/>
</clipPath>
</defs>
</svg>
