<svg width="14" height="14" viewBox="0 0 14 14" fill="none" xmlns="http://www.w3.org/2000/svg">
<path d="M1.74935 1.74984V1.1665H1.16602V1.74984H1.74935ZM7.17027 7.99559C7.28028 8.10185 7.42764 8.16064 7.58058 8.15931C7.73353 8.15799 7.87984 8.09664 7.98799 7.98848C8.09615 7.88033 8.1575 7.73402 8.15883 7.58107C8.16015 7.42812 8.10136 7.28077 7.9951 7.17075L7.17027 7.99559ZM2.33268 6.4165V1.74984H1.16602V6.4165H2.33268ZM1.74935 2.33317H6.41602V1.1665H1.74935V2.33317ZM1.33693 2.16225L7.17027 7.99559L7.9951 7.17075L2.16177 1.33742L1.33693 2.16225Z" fill="#007129"/>
<path d="M2.33203 8.74967C2.33203 9.84051 2.33203 10.3853 2.56653 10.7913C2.72012 11.0574 2.94102 11.2783 3.20703 11.4318C3.61303 11.6663 4.15786 11.6663 5.2487 11.6663H8.16536C9.81503 11.6663 10.6404 11.6663 11.1526 11.1536C11.6654 10.6414 11.6654 9.81601 11.6654 8.16634V5.24967C11.6654 4.15884 11.6654 3.61401 11.4309 3.20801C11.2773 2.942 11.0564 2.7211 10.7904 2.56751C10.3844 2.33301 9.83953 2.33301 8.7487 2.33301" stroke="#007129" stroke-width="2" stroke-linecap="round"/>
</svg>
