<svg width="14" height="14" viewBox="0 0 14 14" fill="none" xmlns="http://www.w3.org/2000/svg">
<g clip-path="url(#clip0_330_2144)">
<path d="M1.75 5.25V8.75C1.75 10.3997 1.75 11.2251 2.26275 11.7372C2.77492 12.25 3.60033 12.25 5.25 12.25H8.75C10.3997 12.25 11.2251 12.25 11.7372 11.7372C12.25 11.2251 12.25 10.3997 12.25 8.75V5.25C12.25 3.60033 12.25 2.77492 11.7372 2.26275C11.2251 1.75 10.3997 1.75 8.75 1.75H5.25" stroke="#FF0000" stroke-width="2" stroke-linecap="round"/>
<path d="M8.74967 8.74991V9.33324H9.333V8.74991H8.74967ZM4.49542 3.67083C4.3854 3.56457 4.23805 3.50577 4.0851 3.5071C3.93215 3.50843 3.78585 3.56978 3.67769 3.67793C3.56954 3.78609 3.50819 3.9324 3.50686 4.08534C3.50553 4.23829 3.56433 4.38564 3.67058 4.49566L4.49542 3.67083ZM8.16633 4.66658V8.74991H9.333V4.66658H8.16633ZM8.74967 8.16658H4.66633V9.33324H8.74967V8.16658ZM9.16208 8.33749L4.49542 3.67083L3.67058 4.49566L8.33725 9.16233L9.16208 8.33749Z" fill="#FF0000"/>
</g>
<defs>
<clipPath id="clip0_330_2144">
<rect width="14" height="14" fill="white"/>
</clipPath>
</defs>
</svg>
