<svg width="272" height="80" viewBox="0 0 272 80" fill="none" xmlns="http://www.w3.org/2000/svg">
<g clip-path="url(#clip0_1236_1627)">
<path d="M15.3531 32.2258C15.1611 32.5416 14.9357 32.7898 14.6771 32.9705C14.4179 33.149 14.1492 33.2511 13.8708 33.2769C13.5919 33.3004 13.325 33.2375 13.0701 33.0883L13.6309 32.1662C13.74 32.2249 13.8541 32.2469 13.973 32.2324C14.0914 32.2155 14.2051 32.1668 14.3139 32.0862C14.4228 32.0057 14.518 31.8984 14.5994 31.7645C14.6843 31.6249 14.7347 31.4865 14.7505 31.3494C14.7663 31.2122 14.7489 31.0867 14.6984 30.973C14.6479 30.8592 14.5655 30.7676 14.4513 30.6981C14.3357 30.6278 14.2137 30.5981 14.0855 30.6089C13.9567 30.6175 13.8304 30.6662 13.7068 30.7552C13.584 30.8428 13.4729 30.9683 13.3734 31.1319L13.1278 31.5358L12.4553 31.1268L12.7009 30.7229C12.785 30.5847 12.8352 30.4482 12.8515 30.3133C12.8688 30.177 12.8531 30.0535 12.8045 29.9428C12.7545 29.8313 12.6724 29.7408 12.5582 29.6714C12.4497 29.6054 12.3386 29.5736 12.2251 29.576C12.1111 29.5762 12.0025 29.6086 11.8994 29.6734C11.7971 29.7367 11.7087 29.8297 11.6341 29.9524C11.5586 30.0765 11.5122 30.2037 11.4947 30.334C11.4758 30.4635 11.4884 30.5842 11.5324 30.6959C11.5765 30.8077 11.6522 30.8991 11.7596 30.9702L11.2258 31.8479C10.9789 31.6919 10.8022 31.4869 10.6959 31.233C10.5896 30.9791 10.5541 30.7025 10.5892 30.4033C10.6239 30.1019 10.7312 29.8031 10.9113 29.507C11.0931 29.2081 11.3064 28.9796 11.5513 28.8215C11.7962 28.6633 12.0487 28.5784 12.3089 28.5666C12.5685 28.5526 12.812 28.6158 13.0396 28.7561C13.2829 28.9021 13.4394 29.1006 13.5089 29.3515C13.5793 29.6009 13.5626 29.8602 13.4588 30.1293L13.4927 30.1499C13.7273 29.8561 13.9855 29.6809 14.2671 29.6243C14.5482 29.5654 14.823 29.6186 15.0914 29.7837C15.339 29.9324 15.5149 30.1369 15.6192 30.3973C15.7243 30.6563 15.7556 30.9448 15.7129 31.2626C15.6703 31.5804 15.5503 31.9015 15.3531 32.2258Z" fill="#018323"/>
<path d="M17.6443 28.66C17.5074 28.8819 17.3393 29.0742 17.14 29.2369C16.9415 29.3981 16.71 29.5104 16.4456 29.5736C16.1812 29.6368 15.8838 29.6336 15.5533 29.564C15.2238 29.493 14.8609 29.337 14.4648 29.0961C14.1019 28.8734 13.8022 28.6342 13.5657 28.3784C13.3287 28.1203 13.1568 27.8535 13.0501 27.5781C12.9442 27.3012 12.9047 27.0232 12.9315 26.7441C12.957 26.4641 13.0512 26.1901 13.2141 25.9223C13.3898 25.6332 13.6014 25.4123 13.8488 25.2596C14.0948 25.106 14.3544 25.0205 14.6276 25.0032C14.9017 24.9844 15.1664 25.0334 15.4219 25.1501L14.8727 26.0532C14.7004 25.9967 14.5369 25.9987 14.3823 26.0591C14.2277 26.1196 14.0998 26.2331 13.9987 26.3994C13.8272 26.6814 13.8195 26.9703 13.9756 27.2661C14.1326 27.5605 14.4211 27.8373 14.8409 28.0965L14.8589 28.0669C14.7701 27.924 14.7139 27.7702 14.6906 27.6053C14.6667 27.4382 14.6736 27.2696 14.7115 27.0994C14.7487 26.927 14.8154 26.7619 14.9114 26.604C15.0674 26.3474 15.267 26.1558 15.51 26.0294C15.7516 25.9021 16.0126 25.8445 16.2929 25.8566C16.5733 25.8688 16.8489 25.9572 17.1196 26.1218C17.4128 26.3001 17.6321 26.5271 17.7773 26.8028C17.9234 27.077 17.9871 27.3756 17.9685 27.6984C17.9493 28.0189 17.8412 28.3394 17.6443 28.66ZM16.9227 28.227C17.0085 28.086 17.0514 27.9392 17.0514 27.7867C17.0515 27.6341 17.013 27.491 16.936 27.3573C16.859 27.2235 16.7486 27.1129 16.6048 27.0254C16.4609 26.938 16.3126 26.8912 16.1599 26.8852C16.0079 26.8778 15.8647 26.9085 15.7301 26.9773C15.5956 27.0461 15.4854 27.151 15.3997 27.292C15.3354 27.3978 15.2955 27.5078 15.2801 27.622C15.2656 27.7348 15.273 27.8465 15.3023 27.9571C15.3325 28.0662 15.3826 28.1681 15.4525 28.2627C15.521 28.3565 15.6074 28.4352 15.7117 28.4986C15.8513 28.5835 15.9982 28.6294 16.1524 28.6362C16.3074 28.6417 16.4529 28.6105 16.5889 28.5425C16.7257 28.4731 16.837 28.368 16.9227 28.227Z" fill="#018323"/>
<path d="M20.2056 25.1035C19.9829 25.4663 19.7031 25.7249 19.3659 25.8791C19.0297 26.0319 18.6502 26.0763 18.2275 26.0124C17.8056 25.947 17.3583 25.7696 16.8854 25.4801C16.4131 25.1928 16.053 24.8783 15.8052 24.5363C15.5582 24.193 15.4273 23.8382 15.4125 23.4719C15.3972 23.1033 15.4997 22.7379 15.7201 22.3755C15.9404 22.0132 16.2173 21.7548 16.5508 21.6003C16.8851 21.4444 17.2615 21.3971 17.68 21.4585C18.097 21.519 18.5413 21.6936 19.0127 21.9822C19.4879 22.2712 19.851 22.5886 20.1022 22.9345C20.3543 23.279 20.4899 23.6357 20.5089 24.0046C20.5279 24.3734 20.4268 24.7397 20.2056 25.1035ZM19.4464 24.6417C19.5973 24.3936 19.593 24.1196 19.4334 23.8198C19.2739 23.52 18.9442 23.2191 18.4442 22.9169C18.1157 22.7172 17.8216 22.5847 17.562 22.5194C17.3031 22.4528 17.0814 22.4474 16.8969 22.5031C16.7132 22.5575 16.5711 22.6672 16.4708 22.8321C16.3208 23.0789 16.3241 23.3513 16.4808 23.6493C16.6375 23.9474 16.9614 24.2468 17.4526 24.5475C17.7853 24.7498 18.0832 24.8856 18.3463 24.9548C18.6088 25.0217 18.833 25.0278 19.019 24.9728C19.2036 24.9171 19.346 24.8067 19.4464 24.6417Z" fill="#018323"/>
<path d="M17.2189 20.9515C17.157 21.0523 17.0792 21.1242 16.9855 21.1671C16.892 21.2096 16.7865 21.2219 16.669 21.2041C16.5518 21.186 16.4274 21.1366 16.2959 21.0562C16.1646 20.9763 16.0646 20.8889 15.9957 20.7938C15.927 20.6984 15.8906 20.5997 15.8865 20.4979C15.8822 20.3954 15.9107 20.2939 15.972 20.1931C16.0332 20.0924 16.1102 20.0206 16.2029 19.9776C16.2959 19.9343 16.4005 19.9211 16.5168 19.9382C16.6328 19.955 16.7563 20.0035 16.8873 20.0838C17.0194 20.1641 17.1204 20.2524 17.1902 20.3485C17.2603 20.4443 17.298 20.5434 17.3032 20.646C17.3085 20.7485 17.2804 20.8503 17.2189 20.9515ZM17.0079 20.8231C17.0498 20.7541 17.0486 20.678 17.0043 20.5946C16.9599 20.5113 16.8683 20.4276 16.7293 20.3436C16.638 20.2881 16.5562 20.2513 16.484 20.2331C16.4121 20.2146 16.3504 20.2131 16.2991 20.2286C16.2481 20.2437 16.2086 20.2742 16.1807 20.3201C16.139 20.3886 16.1399 20.4644 16.1835 20.5472C16.227 20.6301 16.3171 20.7133 16.4536 20.7969C16.5461 20.8532 16.6289 20.8909 16.7021 20.9101C16.775 20.9288 16.8374 20.9304 16.8891 20.9152C16.9404 20.8996 16.98 20.869 17.0079 20.8231Z" fill="#018323"/>
<path d="M31.1182 51.5845C31.1099 51.7803 31.333 51.9031 31.4993 51.7995C32.7129 51.0432 34.8981 50.1274 36.6209 50.8479C36.7807 50.9148 36.9707 50.8121 36.9819 50.6392L37.3008 45.7492C37.306 45.6702 37.272 45.5936 37.2056 45.5506C36.3487 44.9956 34.1679 44.503 31.4233 46.4932C31.3661 46.5347 31.3303 46.6012 31.3273 46.6718L31.1182 51.5845Z" fill="url(#paint0_linear_1236_1627)"/>
<path d="M38.3003 45.9343C38.1529 45.898 38.0058 46.0031 37.9991 46.1548L37.7842 50.9893C37.7803 51.0763 37.8239 51.1586 37.9016 51.198C38.9167 51.7132 41.357 52.1349 44.021 50.1408C44.075 50.1004 44.1091 50.0375 44.1136 49.9702L44.4242 45.3117C44.4375 45.1117 44.2048 44.9815 44.0323 45.0834C42.9109 45.7458 40.7296 46.5334 38.3003 45.9343Z" fill="url(#paint1_linear_1236_1627)"/>
<path d="M30.8848 57.4439C30.8765 57.6397 31.0996 57.7625 31.2659 57.6588C32.4795 56.9026 34.6647 55.9868 36.3875 56.7073C36.5473 56.7742 36.7373 56.6715 36.7485 56.4986L37.0674 51.6086C37.0726 51.5296 37.0386 51.453 36.9722 51.4099C36.1153 50.855 33.9345 50.3624 31.1899 52.3526C31.1327 52.3941 31.0969 52.4606 31.0939 52.5312L30.8848 57.4439Z" fill="url(#paint2_linear_1236_1627)"/>
<path d="M38.0669 51.7937C37.9195 51.7573 37.7724 51.8625 37.7657 52.0142L37.5508 56.8487C37.5469 56.9357 37.5905 57.018 37.6682 57.0574C38.6833 57.5726 41.1236 57.9943 43.7876 56.0002C43.8416 55.9598 43.8757 55.8969 43.8802 55.8296L44.1908 51.1711C44.2041 50.9711 43.9714 50.8409 43.7989 50.9428C42.6775 51.6052 40.4962 52.3927 38.0669 51.7937Z" fill="url(#paint3_linear_1236_1627)"/>
<path d="M51.1343 45.3853L41.9929 36.0096L39.4146 38.2363L50.8999 49.9559L72.9329 30.6186L75.2769 32.8453L76.8004 24.5244L68.1279 26.048L70.2374 28.2747L51.1343 45.3853Z" fill="#007932"/>
<path d="M21.4858 45.2678L16.2119 51.2447L21.4858 55.6982L41.2921 32.845L51.6054 43.627L56.4105 38.9392L40.8233 22.5317L28.6348 36.8296V31.4386H21.4858V45.2678Z" fill="#018323"/>
<path d="M14.6892 34.2521L9.64972 31.5566C7.39953 35.4007 7.93082 43.3153 8.47774 46.7921C10.6342 60.1056 20.9397 67.3405 25.8229 69.2937C39.2303 74.6379 48.2607 70.7919 51.9579 68.5905C67.3107 59.4493 69.3031 45.1514 67.3107 37.6508C68.9515 61.7932 48.7936 70.5829 36.8395 69.0593C12.2749 64.184 11.8374 43.8231 14.6892 34.2521Z" fill="url(#paint4_linear_1236_1627)"/>
<path d="M16.8013 19.3685C18.7546 17.4543 23.8097 13.2509 28.4038 11.7508L27.1146 8.00049L41.2955 11.7508L32.3885 23.8219L30.8649 18.7825C29.5758 18.7825 26.4583 20.0951 21.9579 23.4703L16.8013 19.3685Z" fill="#018323"/>
<path d="M90.0309 32V8.63271H99.2501C101.015 8.63271 102.521 8.94838 103.768 9.57973C105.023 10.2035 105.978 11.0896 106.632 12.2382C107.294 13.3792 107.625 14.7217 107.625 16.2659C107.625 17.8176 107.29 19.1526 106.621 20.2707C105.951 21.3813 104.982 22.2332 103.711 22.8265C102.449 23.4198 100.92 23.7165 99.1246 23.7165H92.9519V19.7459H98.3259C99.2691 19.7459 100.053 19.6166 100.676 19.3579C101.3 19.0993 101.764 18.7114 102.068 18.1941C102.38 17.6769 102.536 17.0341 102.536 16.2659C102.536 15.49 102.38 14.8358 102.068 14.3034C101.764 13.7709 101.296 13.3678 100.665 13.0939C100.041 12.8125 99.2539 12.6718 98.3031 12.6718H94.9714V32H90.0309ZM102.65 21.3661L108.458 32H103.004L97.3218 21.3661H102.65ZM109.188 32V8.63271H124.934V12.706H114.129V18.274H124.124V22.3473H114.129V27.9267H124.98V32H109.188ZM130.962 32H125.668L133.734 8.63271H140.101L148.156 32H142.862L137.009 13.9725H136.826L130.962 32ZM130.631 22.8151H143.136V26.6716H130.631V22.8151ZM149.041 32V8.63271H153.981V27.9267H163.999V32H149.041ZM161.535 12.706V8.63271H180.726V12.706H173.573V32H168.689V12.706H161.535ZM180.59 8.63271H186.124L191.452 18.6962H191.68L197.009 8.63271H202.542L194.019 23.7393V32H189.113V23.7393L180.59 8.63271ZM111.504 61.3164C111.504 63.8645 111.021 66.0324 110.055 67.8199C109.097 69.6075 107.788 70.9729 106.13 71.9161C104.48 72.8517 102.624 73.3195 100.562 73.3195C98.4856 73.3195 96.622 72.8479 94.9714 71.9047C93.3208 70.9614 92.0163 69.5961 91.0578 67.8085C90.0994 66.021 89.6202 63.8569 89.6202 61.3164C89.6202 58.7682 90.0994 56.6003 91.0578 54.8128C92.0163 53.0252 93.3208 51.6637 94.9714 50.7281C96.622 49.7848 98.4856 49.3132 100.562 49.3132C102.624 49.3132 104.48 49.7848 106.13 50.7281C107.788 51.6637 109.097 53.0252 110.055 54.8128C111.021 56.6003 111.504 58.7682 111.504 61.3164ZM106.495 61.3164C106.495 59.6657 106.248 58.2737 105.754 57.1404C105.267 56.007 104.578 55.1475 103.688 54.5618C102.799 53.976 101.756 53.6832 100.562 53.6832C99.368 53.6832 98.3259 53.976 97.4359 54.5618C96.5459 55.1475 95.8538 56.007 95.3593 57.1404C94.8725 58.2737 94.6291 59.6657 94.6291 61.3164C94.6291 62.967 94.8725 64.359 95.3593 65.4923C95.8538 66.6257 96.5459 67.4853 97.4359 68.071C98.3259 68.6567 99.368 68.9495 100.562 68.9495C101.756 68.9495 102.799 68.6567 103.688 68.071C104.578 67.4853 105.267 66.6257 105.754 65.4923C106.248 64.359 106.495 62.967 106.495 61.3164ZM113.236 73V49.6327H122.455C124.22 49.6327 125.726 49.9484 126.974 50.5797C128.229 51.2035 129.183 52.0896 129.837 53.2382C130.499 54.3792 130.83 55.7217 130.83 57.2659C130.83 58.8176 130.495 60.1526 129.826 61.2707C129.157 62.3813 128.187 63.2332 126.916 63.8265C125.654 64.4198 124.125 64.7165 122.33 64.7165H116.157V60.7459H121.531C122.474 60.7459 123.258 60.6166 123.881 60.3579C124.505 60.0993 124.969 59.7114 125.273 59.1941C125.585 58.6769 125.741 58.0341 125.741 57.2659C125.741 56.49 125.585 55.8358 125.273 55.3034C124.969 54.7709 124.501 54.3678 123.87 54.0939C123.246 53.8125 122.459 53.6718 121.508 53.6718H118.177V73H113.236ZM125.855 62.3661L131.663 73H126.209L120.527 62.3661H125.855ZM147.888 57.186C147.728 56.6307 147.504 56.1401 147.215 55.7141C146.926 55.2806 146.572 54.9155 146.154 54.6188C145.743 54.3145 145.271 54.0825 144.739 53.9228C144.214 53.7631 143.632 53.6832 142.993 53.6832C141.799 53.6832 140.749 53.9798 139.844 54.5732C138.947 55.1665 138.247 56.0298 137.745 57.1632C137.243 58.289 136.992 59.6657 136.992 61.2935C136.992 62.9213 137.239 64.3057 137.733 65.4467C138.228 66.5877 138.928 67.4586 139.833 68.0596C140.738 68.6529 141.807 68.9495 143.039 68.9495C144.157 68.9495 145.112 68.7517 145.903 68.3562C146.702 67.9531 147.31 67.3864 147.728 66.6561C148.154 65.9259 148.367 65.0626 148.367 64.0661L149.371 64.2144H143.347V60.4948H153.125V63.4386C153.125 65.4923 152.692 67.2571 151.825 68.7327C150.957 70.2008 149.763 71.3342 148.242 72.1329C146.721 72.9239 144.979 73.3195 143.016 73.3195C140.825 73.3195 138.901 72.8365 137.243 71.8704C135.585 70.8968 134.291 69.5162 133.363 67.7287C132.443 65.9335 131.983 63.8037 131.983 61.3392C131.983 59.4451 132.257 57.7565 132.804 56.2732C133.36 54.7823 134.136 53.5197 135.132 52.4852C136.128 51.4507 137.288 50.6634 138.612 50.1233C139.936 49.5833 141.369 49.3132 142.913 49.3132C144.237 49.3132 145.469 49.5072 146.61 49.8951C147.751 50.2755 148.763 50.8155 149.645 51.5153C150.535 52.2151 151.262 53.048 151.825 54.0141C152.387 54.9725 152.749 56.0298 152.908 57.186H147.888ZM158.214 73H152.92L160.987 49.6327H167.354L175.409 73H170.115L164.262 54.9725H164.079L158.214 73ZM157.884 63.8151H170.389V67.6716H157.884V63.8151ZM195.839 49.6327V73H191.572L181.405 58.2928H181.234V73H176.294V49.6327H180.629L190.716 64.3285H190.921V49.6327H195.839ZM202.933 49.6327V73H197.993V49.6327H202.933ZM217.747 56.3531C217.655 55.4327 217.264 54.7177 216.571 54.208C215.879 53.6984 214.94 53.4436 213.753 53.4436C212.947 53.4436 212.266 53.5577 211.711 53.7859C211.155 54.0065 210.729 54.3145 210.433 54.7101C210.144 55.1056 209.999 55.5544 209.999 56.0564C209.984 56.4748 210.072 56.8399 210.262 57.1518C210.459 57.4636 210.729 57.7337 211.072 57.9619C211.414 58.1825 211.81 58.3764 212.258 58.5438C212.707 58.7035 213.186 58.8404 213.696 58.9545L215.795 59.4566C216.815 59.6848 217.75 59.989 218.602 60.3693C219.454 60.7497 220.192 61.2175 220.816 61.7727C221.439 62.328 221.923 62.9822 222.265 63.7352C222.615 64.4883 222.793 65.3516 222.801 66.3253C222.793 67.7553 222.428 68.9952 221.706 70.0449C220.991 71.087 219.956 71.8971 218.602 72.4751C217.256 73.0456 215.632 73.3309 213.73 73.3309C211.844 73.3309 210.201 73.0418 208.801 72.4637C207.409 71.8856 206.321 71.0299 205.538 69.8965C204.762 68.7556 204.355 67.3445 204.317 65.6635H209.098C209.151 66.447 209.376 67.1011 209.771 67.626C210.174 68.1432 210.71 68.535 211.38 68.8012C212.057 69.0598 212.821 69.1891 213.673 69.1891C214.51 69.1891 215.236 69.0674 215.852 68.824C216.476 68.5806 216.959 68.2421 217.302 67.8085C217.644 67.375 217.815 66.8767 217.815 66.3139C217.815 65.789 217.659 65.3478 217.347 64.9903C217.043 64.6328 216.594 64.3285 216.001 64.0775C215.415 63.8265 214.696 63.5983 213.844 63.3929L211.3 62.754C209.33 62.2748 207.774 61.5255 206.633 60.5063C205.492 59.487 204.926 58.114 204.933 56.3873C204.926 54.9725 205.302 53.7364 206.063 52.6791C206.831 51.6218 207.885 50.7965 209.223 50.2032C210.562 49.6099 212.083 49.3132 213.787 49.3132C215.522 49.3132 217.035 49.6099 218.328 50.2032C219.629 50.7965 220.641 51.6218 221.363 52.6791C222.086 53.7364 222.459 54.9611 222.482 56.3531H217.747ZM224.196 73V49.6327H239.942V53.706H229.137V59.274H239.132V63.3473H229.137V68.9267H239.988V73H224.196ZM241.942 73V49.6327H251.161C252.926 49.6327 254.432 49.9484 255.679 50.5797C256.934 51.2035 257.889 52.0896 258.543 53.2382C259.205 54.3792 259.536 55.7217 259.536 57.2659C259.536 58.8176 259.201 60.1526 258.532 61.2707C257.862 62.3813 256.893 63.2332 255.622 63.8265C254.36 64.4198 252.831 64.7165 251.036 64.7165H244.863V60.7459H250.237C251.18 60.7459 251.964 60.6166 252.587 60.3579C253.211 60.0993 253.675 59.7114 253.979 59.1941C254.291 58.6769 254.447 58.0341 254.447 57.2659C254.447 56.49 254.291 55.8358 253.979 55.3034C253.675 54.7709 253.207 54.3678 252.576 54.0939C251.952 53.8125 251.165 53.6718 250.214 53.6718H246.882V73H241.942ZM254.561 62.3661L260.369 73H254.915L249.233 62.3661H254.561Z" fill="url(#paint5_linear_1236_1627)"/>
</g>
<defs>
<linearGradient id="paint0_linear_1236_1627" x1="37.0747" y1="45.1538" x2="31.5665" y2="51.7169" gradientUnits="userSpaceOnUse">
<stop stop-color="#2BA1A5"/>
<stop offset="1" stop-color="#60A636"/>
</linearGradient>
<linearGradient id="paint1_linear_1236_1627" x1="37.0747" y1="45.1538" x2="31.5665" y2="51.7169" gradientUnits="userSpaceOnUse">
<stop stop-color="#2BA1A5"/>
<stop offset="1" stop-color="#60A636"/>
</linearGradient>
<linearGradient id="paint2_linear_1236_1627" x1="36.8413" y1="51.0132" x2="31.3331" y2="57.5762" gradientUnits="userSpaceOnUse">
<stop stop-color="#2BA1A5"/>
<stop offset="1" stop-color="#60A636"/>
</linearGradient>
<linearGradient id="paint3_linear_1236_1627" x1="36.8413" y1="51.0132" x2="31.3331" y2="57.5762" gradientUnits="userSpaceOnUse">
<stop stop-color="#2BA1A5"/>
<stop offset="1" stop-color="#60A636"/>
</linearGradient>
<linearGradient id="paint4_linear_1236_1627" x1="63.5604" y1="49.6048" x2="-27.2672" y2="22.2976" gradientUnits="userSpaceOnUse">
<stop stop-color="#27A0AB"/>
<stop offset="1" stop-color="#499F2F"/>
</linearGradient>
<linearGradient id="paint5_linear_1236_1627" x1="269.65" y1="41.0001" x2="81.0652" y2="41.4381" gradientUnits="userSpaceOnUse">
<stop stop-color="#499F2F"/>
<stop offset="1" stop-color="#499F2F"/>
</linearGradient>
<clipPath id="clip0_1236_1627">
<rect width="272" height="80" fill="white"/>
</clipPath>
</defs>
</svg>
