<svg width="290" height="267" viewBox="0 0 290 267" fill="none" xmlns="http://www.w3.org/2000/svg">
<path d="M64.8794 78.8138V90.1351H212.492V78.8138" stroke="#62BECD" stroke-width="0.870871" stroke-dasharray="1.74 1.74"/>
<path d="M102.763 54.4294V69.6697H182.447V54.4294" stroke="#62BECD" stroke-width="0.870871" stroke-dasharray="1.74 1.74"/>
<rect x="158.499" y="75.7657" width="12.1922" height="3.48348" fill="#E1A148"/>
<rect x="160.24" y="79.2492" width="8.70871" height="13.9339" fill="#E1A148"/>
<path d="M108.858 103.198L144.129 67.9279L180.705 103.198H108.858Z" fill="#E1A148"/>
<path d="M114.955 100.586L144.129 71.4114L174.174 100.586H114.955Z" fill="#FECC91"/>
<path d="M52.346 106.185H28.397C18.6433 103.05 23.4621 97.3315 27.0907 94.864C25.0006 90.3355 29.9936 88.3325 32.7514 87.8971C39.37 78.1433 44.7984 84.4136 46.6853 88.7679C52.2589 88.0712 52.7814 92.5417 52.346 94.864C60.358 99.0442 55.6843 104.153 52.346 106.185Z" fill="#62BECD"/>
<path d="M78.4715 76.5757H54.5225C44.7688 73.4406 49.5876 67.7219 53.2162 65.2544C51.1261 60.7259 56.1191 58.7229 58.8769 58.2874C65.4955 48.5337 70.9239 54.804 72.8108 59.1583C78.3844 58.4616 78.9069 62.9321 78.4715 65.2544C86.4835 69.4346 81.8098 74.5437 78.4715 76.5757Z" fill="#62BECD"/>
<path d="M117.66 52.1914H93.7115C83.9577 49.0562 88.7766 43.3375 92.4052 40.87C90.3151 36.3415 95.3081 34.3385 98.0658 33.9031C104.684 24.1493 110.113 30.4196 112 34.7739C117.573 34.0772 118.096 38.5477 117.66 40.87C125.672 45.0502 120.999 50.1593 117.66 52.1914Z" fill="#62BECD"/>
<path d="M157.721 33.9031H133.772C124.018 30.7679 128.837 25.0492 132.466 22.5817C130.376 18.0532 135.369 16.0502 138.126 15.6148C144.745 5.86102 150.173 12.1313 152.06 16.4856C157.634 15.7889 158.156 20.2594 157.721 22.5817C165.733 26.7619 161.059 31.871 157.721 33.9031Z" fill="#62BECD"/>
<path d="M198.652 52.1914H174.703C164.949 49.0562 169.768 43.3375 173.396 40.87C171.306 36.3415 176.299 34.3385 179.057 33.9031C185.676 24.1493 191.104 30.4196 192.991 34.7739C198.565 34.0772 199.087 38.5477 198.652 40.87C206.664 45.0502 201.99 50.1593 198.652 52.1914Z" fill="#62BECD"/>
<path d="M225.649 76.5757H201.7C191.947 73.4406 196.765 67.7219 200.394 65.2544C198.304 60.7259 203.297 58.7229 206.055 58.2874C212.673 48.5337 218.102 54.804 219.989 59.1583C225.562 58.4616 226.085 62.9321 225.649 65.2544C233.661 69.4346 228.988 74.5437 225.649 76.5757Z" fill="#62BECD"/>
<path d="M263.967 106.185H240.018C230.264 103.05 235.083 97.3315 238.712 94.864C236.622 90.3355 241.615 88.3325 244.372 87.8971C250.991 78.1433 256.42 84.4136 258.306 88.7679C263.88 88.0712 264.403 92.5417 263.967 94.864C271.979 99.0442 267.305 104.153 263.967 106.185Z" fill="#62BECD"/>
<rect x="116.697" y="102.763" width="55.7357" height="29.6096" fill="#F6B968"/>
<path d="M152.838 93.6385H136.291H135.856C136.291 90.3002 138.527 84.8946 144.129 84.4944C150.225 84.059 152.257 90.8808 152.838 93.6385Z" fill="#B1DCDB" stroke="#E0A051" stroke-width="0.870871"/>
<rect x="138.469" y="110.601" width="11.3213" height="21.7718" fill="#768869"/>
<path d="M134.985 109.73H120.18V123.664H134.985V109.73Z" fill="#A4DEEB" stroke="#E1A148" stroke-width="0.870871"/>
<path d="M168.949 109.73H154.144V123.664H168.949V109.73Z" fill="#A4DEEB" stroke="#E1A148" stroke-width="0.870871"/>
<path d="M117.132 132.372H171.997L173.739 132.808V134.985L177.222 136.291V138.904H114.084V135.856L116.261 134.985V132.372H117.132Z" fill="#BCE4E5" stroke="#11100E" stroke-width="0.870871"/>
<path d="M116.262 134.985H173.739" stroke="#11100E" stroke-width="0.870871"/>
<ellipse cx="213.364" cy="126.712" rx="10.4505" ry="12.6276" fill="#B0AF32"/>
<path d="M209.009 124.227L212.598 127.657L216.331 123.142" stroke="#F9B867" stroke-width="0.870871"/>
<path d="M209.256 131.28L212.846 134.71L216.579 130.195" stroke="#F9B867" stroke-width="0.870871"/>
<path d="M212.74 122.793L213.175 153.273" stroke="#F9B867" stroke-width="0.870871"/>
<ellipse cx="67.928" cy="126.712" rx="10.4505" ry="12.6276" fill="#B0AF32"/>
<path d="M63.5737 124.227L67.1633 127.657L70.8962 123.142" stroke="#F9B867" stroke-width="0.870871"/>
<path d="M63.8203 131.28L67.4099 134.71L71.1427 130.195" stroke="#F9B867" stroke-width="0.870871"/>
<path d="M67.3037 122.793L67.7391 153.273" stroke="#F9B867" stroke-width="0.870871"/>
<path d="M93.2633 129.004L94.9227 126.763L94.9389 127.198L96.3092 128.89L96.7148 139.768L93.6689 139.882L93.2633 129.004Z" fill="#E09D4B"/>
<path d="M98.4854 128.809L100.145 126.568L100.161 127.003L101.531 128.695L101.937 139.574L98.891 139.687L98.4854 128.809Z" fill="#E09D4B"/>
<path d="M103.707 128.614L105.366 126.374L105.382 126.809L106.753 128.501L107.158 139.379L104.112 139.492L103.707 128.614Z" fill="#E09D4B"/>
<rect x="91.7012" y="133.855" width="16.5465" height="2.61261" transform="rotate(-2.13536 91.7012 133.855)" fill="#E09D4B"/>
<path d="M183.625 128.082L185.59 126.104L185.543 126.537L186.655 128.409L185.488 139.232L182.457 138.905L183.625 128.082Z" fill="#E09D4B"/>
<path d="M188.821 128.642L190.786 126.664L190.739 127.097L191.851 128.969L190.684 139.792L187.653 139.465L188.821 128.642Z" fill="#E09D4B"/>
<path d="M194.015 129.203L195.98 127.225L195.934 127.658L197.046 129.53L195.878 140.353L192.848 140.026L194.015 129.203Z" fill="#E09D4B"/>
<rect x="181.379" y="132.657" width="16.5465" height="2.61261" transform="rotate(6.15675 181.379 132.657)" fill="#E09D4B"/>
<path d="M145 37.012V66.1862" stroke="#62BECD" stroke-width="0.870871" stroke-dasharray="1.74 1.74"/>
<path d="M38.7539 108.423V127.583H54.865" stroke="#62BECD" stroke-width="0.870871" stroke-dasharray="1.74 1.74"/>
<path d="M251.682 108.859V128.453H226.862" stroke="#62BECD" stroke-width="0.870871" stroke-dasharray="1.74 1.74"/>
<rect x="105.375" y="158.498" width="79.2492" height="53.994" rx="3.48348" fill="#637886"/>
<rect x="111.471" y="163.724" width="65.3153" height="44.4144" rx="3.48348" fill="#5D646A"/>
<rect x="141.952" y="171.562" width="11.3213" height="8.70871" fill="#DF9F4E"/>
<rect x="120.18" y="181.141" width="11.3213" height="8.70871" fill="#DF9F4E"/>
<ellipse cx="166.336" cy="175.045" rx="6.96697" ry="6.0961" fill="#ABB22E"/>
<ellipse cx="117.132" cy="197.688" rx="3.04805" ry="2.61261" fill="#ABB22E"/>
<ellipse cx="124.099" cy="197.688" rx="3.04805" ry="2.61261" fill="white"/>
<ellipse cx="131.066" cy="197.688" rx="3.04805" ry="2.61261" fill="#B22E4E"/>
<ellipse cx="138.033" cy="197.688" rx="3.04805" ry="2.61261" fill="#5CC0D1"/>
<path d="M148.484 188.979L155.649 198.776H141.319L148.484 188.979Z" fill="#5CC0D1"/>
<path d="M125.841 171.562L133.006 181.359H118.676L125.841 171.562Z" fill="#DF9F4E"/>
<path d="M166.772 188.979L168.238 192.89H172.984L169.144 195.308L170.611 199.219L166.772 196.802L162.933 199.219L164.399 195.308L160.56 192.89H165.305L166.772 188.979Z" fill="#E19E4F"/>
<path d="M104.189 182.883H105.931L105.495 193.769L103.753 196.381C102.708 199.865 106.221 201.026 108.108 201.171L116.816 195.511C122.042 193.769 121.316 197.397 120.3 199.429L114.204 203.784L107.237 212.492V219.024H95.0446V202.913C94.6963 200.474 95.1898 197.543 95.4801 196.381L104.189 182.883Z" fill="#FECC8F"/>
<path d="M146.307 197.555L151.967 225.423L147.613 217.585C143.084 213.057 141.952 217.15 141.952 219.762L150.661 235.438L156.757 235.003L156.322 238.051L173.304 234.132L171.562 230.648C174 229.952 174.61 226.874 174.61 225.423L170.255 205.393C169.21 201.561 165.756 202.345 164.159 203.216C162.766 200.429 159.805 202.055 158.499 203.216C155.712 199.732 153.854 202.635 153.273 204.522L151.967 196.684C148.484 191.807 146.742 195.233 146.307 197.555Z" fill="#FECB8F"/>
<path d="M154.58 212.36L153.273 204.522M153.273 204.522L151.967 196.684C148.484 191.807 146.742 195.233 146.307 197.555L151.967 225.423L147.613 217.585C143.084 213.057 141.952 217.15 141.952 219.762L150.661 235.438L156.757 235.003L156.322 238.051L173.304 234.132L171.562 230.648C174 229.952 174.61 226.874 174.61 225.423L170.255 205.393C169.21 201.561 165.756 202.345 164.159 203.216M153.273 204.522C153.854 202.635 155.712 199.732 158.499 203.216M158.499 203.216L160.24 211.489M158.499 203.216C159.805 202.055 162.766 200.429 164.159 203.216M164.159 203.216L166.772 214.102" stroke="#FECC8F" stroke-width="0.870871"/>
<rect x="90.5703" y="218.589" width="21.7718" height="6.0961" fill="#DDF1F9"/>
<rect x="87.9575" y="223.814" width="26.997" height="13.9339" fill="#637987"/>
<rect x="154.093" y="237.311" width="21.7718" height="6.0961" transform="rotate(-11.3242 154.093 237.311)" fill="#DDF1F9"/>
<rect x="152.558" y="242.947" width="26.997" height="13.9339" transform="rotate(-11.3242 152.558 242.947)" fill="#637987"/>
<path d="M40.3087 91.3358C40.2781 91.3 40.24 91.2713 40.1972 91.2516C40.1544 91.2319 40.1078 91.2217 40.0607 91.2217C40.0135 91.2217 39.9669 91.2319 39.9241 91.2516C39.8813 91.2713 39.8433 91.3 39.8126 91.3358C38.951 92.3436 36.1416 95.8276 36.1416 98.4084C36.1416 100.813 37.6558 102.327 40.0605 102.327C42.4652 102.327 43.9794 100.813 43.9794 98.4084C43.9794 95.8276 41.1701 92.3436 40.3087 91.3358ZM40.496 100.912C40.4436 100.912 40.3921 100.9 40.3456 100.876C40.2991 100.852 40.259 100.817 40.2288 100.774C40.1986 100.732 40.179 100.682 40.1718 100.631C40.1646 100.579 40.1699 100.526 40.1873 100.477C40.2096 100.412 40.2516 100.357 40.3074 100.318C40.3631 100.279 40.4298 100.258 40.4979 100.259C40.9301 100.258 41.3444 100.086 41.6501 99.7803C41.9558 99.4746 42.1279 99.0603 42.1288 98.628C42.1278 98.5599 42.1484 98.4933 42.1874 98.4375C42.2265 98.3818 42.2822 98.3398 42.3466 98.3175C42.3959 98.3001 42.4487 98.2947 42.5005 98.302C42.5523 98.3092 42.6016 98.3287 42.6443 98.359C42.6869 98.3892 42.7217 98.4293 42.7457 98.4758C42.7697 98.5222 42.7821 98.5738 42.782 98.6261C42.7813 99.2322 42.5403 99.8133 42.1117 100.242C41.6831 100.67 41.1021 100.912 40.496 100.912Z" fill="white"/>
<g clip-path="url(#clip0_2570_330)">
<path d="M62.7027 71.992C62.3833 71.992 62.1099 71.8782 61.8823 71.6506C61.6547 71.423 61.5411 71.1498 61.5415 70.8308V65.025C61.5415 64.7057 61.6553 64.4323 61.8829 64.2047C62.1105 63.9771 62.3837 63.8635 62.7027 63.8639H63.2832V62.7027C63.2832 61.8996 63.5664 61.2149 64.1326 60.6486C64.6989 60.0824 65.3834 59.7994 66.1861 59.7998C66.9893 59.7998 67.674 60.0829 68.2402 60.6492C68.8065 61.2155 69.0894 61.9 69.0891 62.7027V63.8639H69.6696C69.989 63.8639 70.2624 63.9777 70.49 64.2053C70.7176 64.4328 70.8312 64.7061 70.8308 65.025V70.8308C70.8308 71.1502 70.717 71.4236 70.4894 71.6512C70.2618 71.8788 69.9886 71.9924 69.6696 71.992H62.7027ZM66.1861 69.0891C66.5055 69.0891 66.7789 68.9753 67.0065 68.7477C67.2341 68.5201 67.3477 68.2469 67.3473 67.9279C67.3473 67.6086 67.2335 67.3352 67.0059 67.1076C66.7783 66.88 66.5051 66.7664 66.1861 66.7668C65.8668 66.7668 65.5934 66.8806 65.3658 67.1082C65.1382 67.3357 65.0246 67.609 65.025 67.9279C65.025 68.2473 65.1388 68.5207 65.3664 68.7483C65.594 68.9759 65.8672 69.0895 66.1861 69.0891ZM64.4444 63.8639H67.9279V62.7027C67.9279 62.2189 67.7586 61.8076 67.4199 61.469C67.0812 61.1303 66.67 60.961 66.1861 60.961C65.7023 60.961 65.2911 61.1303 64.9524 61.469C64.6137 61.8076 64.4444 62.2189 64.4444 62.7027V63.8639Z" fill="white"/>
</g>
<g clip-path="url(#clip1_2570_330)">
<path fill-rule="evenodd" clip-rule="evenodd" d="M249.94 90.8608C250.384 90.8608 250.812 91.0305 251.135 91.3353C251.458 91.6401 251.653 92.0569 251.679 92.5004L251.682 92.6026V92.9323C251.78 92.8816 251.89 92.8598 252 92.8694C252.11 92.8791 252.215 92.9198 252.303 92.9869L252.36 93.0374C252.455 93.1307 252.515 93.2537 252.53 93.386C252.545 93.5183 252.515 93.6518 252.443 93.764C252.371 93.8763 252.263 93.9605 252.137 94.0027C252.011 94.0448 251.874 94.0422 251.749 93.9954L251.682 93.9658V95.4236C251.686 95.4509 251.688 95.4782 251.688 95.506L251.686 95.5479L251.682 95.5885V97.0428C251.799 96.9796 251.934 96.9586 252.065 96.9833C252.196 97.008 252.314 97.0769 252.401 97.1785C252.487 97.2801 252.535 97.4081 252.538 97.5413C252.541 97.6744 252.498 97.8044 252.416 97.9097L252.362 97.97C252.673 98.4404 252.84 98.9911 252.843 99.5548C252.846 100.119 252.685 100.671 252.379 101.145C252.073 101.618 251.636 101.992 251.121 102.222C250.606 102.451 250.035 102.525 249.479 102.436C248.922 102.346 248.404 102.097 247.987 101.717C247.57 101.338 247.272 100.845 247.13 100.3C246.989 99.7541 247.009 99.179 247.188 98.6447C247.368 98.1104 247.699 97.6399 248.142 97.2908C248.157 97.2792 248.171 97.2657 248.183 97.2507L248.198 97.2217V92.6026C248.198 92.1406 248.382 91.6976 248.709 91.371C249.035 91.0443 249.478 90.8608 249.94 90.8608ZM249.94 92.022C249.798 92.022 249.661 92.0742 249.554 92.1687C249.448 92.2632 249.38 92.3934 249.364 92.5346L249.36 92.6026V97.2228C249.36 97.6147 249.164 97.9346 248.928 98.1459L248.862 98.2017C248.581 98.4228 248.376 98.7249 248.272 99.067C248.169 99.409 248.174 99.7745 248.286 100.114C248.397 100.453 248.61 100.75 248.896 100.964C249.183 101.178 249.527 101.299 249.885 101.311C250.242 101.322 250.594 101.223 250.893 101.028C251.192 100.832 251.424 100.55 251.557 100.218C251.69 99.8866 251.717 99.5221 251.636 99.1742C251.555 98.8262 251.369 98.5116 251.103 98.2731L251.018 98.2017C250.776 98.0101 250.56 97.7064 250.525 97.3279L250.521 97.224V92.6026C250.521 92.4486 250.46 92.3009 250.351 92.192C250.242 92.0832 250.094 92.022 249.94 92.022ZM254.004 97.822C254.146 97.822 254.284 97.8743 254.39 97.9689C254.496 98.0635 254.564 98.1939 254.581 98.3352L254.585 98.4084C254.585 98.5563 254.528 98.6987 254.426 98.8063C254.325 98.9139 254.186 98.9786 254.038 98.9873C253.89 98.996 253.745 98.9479 253.632 98.8529C253.518 98.758 253.445 98.6232 253.428 98.4763L253.424 98.4026C253.424 98.2486 253.485 98.1009 253.594 97.992C253.703 97.8832 253.85 97.822 254.004 97.822ZM256.466 97.1427C256.571 97.2465 256.633 97.3867 256.639 97.5346C256.645 97.6825 256.594 97.827 256.496 97.9385C256.399 98.05 256.263 98.1202 256.115 98.1345C255.968 98.1489 255.821 98.1065 255.704 98.0159L255.644 97.9636C255.539 97.8541 255.48 97.7075 255.481 97.5553C255.483 97.403 255.544 97.2574 255.651 97.1498C255.759 97.0421 255.905 96.9811 256.057 96.9798C256.209 96.9784 256.356 97.0369 256.466 97.1427ZM254.004 93.7637C254.466 93.7637 254.909 93.9472 255.236 94.2739C255.562 94.6005 255.746 95.0435 255.746 95.5055C255.746 95.9674 255.562 96.4104 255.236 96.7371C254.909 97.0637 254.466 97.2472 254.004 97.2472C253.542 97.2472 253.099 97.0637 252.773 96.7371C252.446 96.4104 252.262 95.9674 252.262 95.5055C252.262 95.0435 252.446 94.6005 252.773 94.2739C253.099 93.9472 253.542 93.7637 254.004 93.7637ZM254.004 94.9249C253.85 94.9249 253.703 94.9861 253.594 95.0949C253.485 95.2038 253.424 95.3515 253.424 95.5055C253.424 95.6594 253.485 95.8071 253.594 95.916C253.703 96.0249 253.85 96.086 254.004 96.086C254.158 96.086 254.306 96.0249 254.415 95.916C254.524 95.8071 254.585 95.6594 254.585 95.5055C254.585 95.3515 254.524 95.2038 254.415 95.0949C254.306 94.9861 254.158 94.9249 254.004 94.9249ZM256.907 94.9249C257.055 94.9251 257.197 94.9817 257.305 95.0833C257.413 95.1849 257.477 95.3237 257.486 95.4714C257.495 95.6192 257.447 95.7646 257.352 95.8781C257.257 95.9916 257.122 96.0645 256.975 96.082L256.901 96.086C256.753 96.0859 256.611 96.0292 256.503 95.9276C256.396 95.8261 256.331 95.6872 256.322 95.5395C256.314 95.3918 256.362 95.2463 256.457 95.1328C256.552 95.0194 256.686 94.9464 256.833 94.929L256.907 94.9249ZM256.469 93.0415C256.569 93.1415 256.629 93.2745 256.638 93.4156C256.647 93.5567 256.604 93.6961 256.518 93.8079L256.465 93.8665C256.361 93.9706 256.221 94.0311 256.073 94.0356C255.926 94.0401 255.782 93.9883 255.671 93.8907C255.561 93.7932 255.491 93.6572 255.477 93.5103C255.463 93.3635 255.506 93.2168 255.596 93.1001L255.648 93.0421C255.757 92.9332 255.905 92.8721 256.059 92.8721C256.213 92.8721 256.36 92.9326 256.469 93.0415ZM254.004 92.0162C254.146 92.0162 254.284 92.0685 254.39 92.1631C254.496 92.2577 254.564 92.3881 254.581 92.5294L254.585 92.6026C254.585 92.7505 254.528 92.8929 254.426 93.0005C254.325 93.1081 254.186 93.1728 254.038 93.1815C253.89 93.1902 253.745 93.1421 253.632 93.0471C253.518 92.9522 253.445 92.8174 253.428 92.6705L253.424 92.5968C253.424 92.4428 253.485 92.2951 253.594 92.1862C253.703 92.0773 253.85 92.0162 254.004 92.0162Z" fill="white"/>
</g>
<path d="M209.026 66.2036L210.187 68.2182L208.719 70.0645L206.687 66.5461L209.026 66.2036ZM215.395 69.6697V68.0963C215.906 67.8699 216.266 67.3648 216.266 66.7668C216.266 66.4358 216.15 66.1281 215.958 65.8959L217.102 65.2282C217.689 64.8857 217.892 64.1367 217.549 63.5503L216.748 62.157C216.585 61.8754 216.317 61.6698 216.002 61.585C215.688 61.5001 215.353 61.543 215.07 61.7041L210.35 64.4444C209.798 64.7521 209.607 65.4605 209.926 66.0178L210.797 67.5273C211.116 68.0789 211.83 68.2705 212.382 67.9511L213.474 67.3241C213.619 67.6667 213.892 67.9453 214.234 68.0963V69.6697C214.234 70.3083 214.757 70.8308 215.395 70.8308H218.298V69.6697H215.395Z" fill="white"/>
<g clip-path="url(#clip2_2570_330)">
<path d="M186.367 49.2042H184.625C184.51 49.2042 184.399 49.2501 184.317 49.3317C184.236 49.4134 184.19 49.5241 184.19 49.6396C184.19 49.7551 184.236 49.8659 184.317 49.9475C184.399 50.0292 184.51 50.0751 184.625 50.0751H186.367C186.482 50.0751 186.593 50.0292 186.675 49.9475C186.756 49.8659 186.802 49.7551 186.802 49.6396C186.802 49.5241 186.756 49.4134 186.675 49.3317C186.593 49.2501 186.482 49.2042 186.367 49.2042ZM186.802 47.8979H184.19C184.074 47.8979 183.963 47.9438 183.882 48.0254C183.8 48.1071 183.754 48.2178 183.754 48.3333C183.754 48.4488 183.8 48.5596 183.882 48.6412C183.963 48.7229 184.074 48.7688 184.19 48.7688H186.802C186.918 48.7688 187.029 48.7229 187.11 48.6412C187.192 48.5596 187.238 48.4488 187.238 48.3333C187.238 48.2178 187.192 48.1071 187.11 48.0254C187.029 47.9438 186.918 47.8979 186.802 47.8979ZM188.583 38.2827C187.764 37.4632 186.668 37.012 185.496 37.012C184.924 37.0106 184.357 37.1223 183.828 37.3407C183.299 37.559 182.819 37.8797 182.414 38.2843C182.009 38.6889 181.689 39.1695 181.47 39.6984C181.252 40.2273 181.14 40.7942 181.142 41.3664C181.142 42.6351 181.628 43.8219 182.475 44.6223L182.594 44.7336C183.084 45.1919 183.754 45.8198 183.754 46.3739V47.027C183.754 47.1425 183.8 47.2533 183.882 47.3349C183.963 47.4166 184.074 47.4625 184.19 47.4625H184.843C184.901 47.4625 184.956 47.4395 184.997 47.3987C185.038 47.3579 185.061 47.3025 185.061 47.2447V44.0557C185.061 44.0117 185.047 43.9687 185.022 43.9324C184.997 43.8961 184.962 43.8682 184.921 43.8524C184.669 43.7498 184.431 43.6188 184.209 43.4619C184.159 43.4301 184.116 43.3885 184.083 43.3396C184.05 43.2907 184.027 43.2356 184.016 43.1776C184.005 43.1196 184.005 43.0599 184.018 43.0021C184.03 42.9444 184.055 42.8898 184.089 42.8417C184.123 42.7937 184.167 42.7531 184.218 42.7225C184.268 42.6918 184.325 42.6718 184.383 42.6637C184.442 42.6555 184.501 42.6593 184.558 42.6749C184.615 42.6905 184.668 42.7175 184.715 42.7543C184.916 42.8969 185.304 43.1081 185.496 43.1081C185.688 43.1081 186.076 42.8964 186.278 42.7543C186.372 42.6952 186.485 42.6743 186.594 42.6957C186.703 42.7172 186.799 42.7796 186.864 42.87C186.929 42.9604 186.956 43.072 186.941 43.182C186.926 43.2921 186.869 43.3922 186.783 43.4619C186.561 43.6185 186.322 43.7493 186.071 43.8516C186.03 43.8674 185.995 43.8953 185.97 43.9316C185.945 43.9679 185.931 44.0109 185.931 44.0549V47.2447C185.931 47.3025 185.954 47.3579 185.995 47.3987C186.036 47.4395 186.091 47.4625 186.149 47.4625H186.802C186.918 47.4625 187.029 47.4166 187.11 47.3349C187.192 47.2533 187.238 47.1425 187.238 47.027V46.3739C187.238 45.8328 187.901 45.2055 188.385 44.7472L188.518 44.6204C189.39 43.7885 189.85 42.6621 189.85 41.3664C189.853 40.7941 189.743 40.2269 189.525 39.6977C189.307 39.1684 188.987 38.6874 188.583 38.2827Z" fill="white"/>
</g>
<g clip-path="url(#clip3_2570_330)">
<path d="M104.505 47.8979C104.098 47.8979 103.755 47.7576 103.474 47.477C103.193 47.1964 103.053 46.8529 103.053 46.4465C103.053 46.0401 103.193 45.6965 103.474 45.4159C103.755 45.1353 104.098 44.995 104.505 44.995C104.911 44.995 105.254 45.1353 105.535 45.4159C105.816 45.6965 105.956 46.0401 105.956 46.4465C105.956 46.8529 105.816 47.1964 105.535 47.477C105.254 47.7576 104.911 47.8979 104.505 47.8979ZM101.224 44.6176L100.005 43.3694C100.576 42.7985 101.246 42.3462 102.016 42.0126C102.785 41.6789 103.615 41.5119 104.505 41.5115C105.395 41.5115 106.225 41.6809 106.994 42.0195C107.764 42.3582 108.434 42.8178 109.004 43.3984L107.785 44.6176C107.359 44.1919 106.866 43.858 106.304 43.6161C105.743 43.3742 105.143 43.2533 104.505 43.2533C103.866 43.2533 103.266 43.3742 102.705 43.6161C102.144 43.858 101.65 44.1919 101.224 44.6176ZM98.7568 42.1502L97.5376 40.9309C98.4278 40.0214 99.468 39.3102 100.658 38.7973C101.848 38.2845 103.131 38.028 104.505 38.028C105.879 38.028 107.161 38.2845 108.351 38.7973C109.541 39.3102 110.581 40.0214 111.472 40.9309L110.252 42.1502C109.507 41.4051 108.644 40.822 107.661 40.4009C106.679 39.9798 105.627 39.7694 104.505 39.7698C103.382 39.7698 102.33 39.9803 101.347 40.4015C100.365 40.8226 99.5015 41.4055 98.7568 42.1502Z" fill="white"/>
</g>
<g clip-path="url(#clip4_2570_330)">
<path d="M145 18.7237V17.4174C145 17.3019 145.046 17.1912 145.127 17.1095C145.209 17.0278 145.32 16.982 145.435 16.982C145.551 16.982 145.662 17.0278 145.743 17.1095C145.825 17.1912 145.871 17.3019 145.871 17.4174V18.7237C145.871 18.8392 145.825 18.9499 145.743 19.0316C145.662 19.1133 145.551 19.1591 145.435 19.1591C145.32 19.1591 145.209 19.1133 145.127 19.0316C145.046 18.9499 145 18.8392 145 18.7237ZM145.435 20.03C144.746 20.03 144.073 20.2343 143.5 20.6171C142.927 20.9999 142.481 21.5439 142.217 22.1804C141.953 22.8169 141.884 23.5174 142.019 24.1931C142.153 24.8688 142.485 25.4895 142.972 25.9767C143.459 26.4639 144.08 26.7956 144.756 26.93C145.431 27.0645 146.132 26.9955 146.768 26.7318C147.405 26.4682 147.949 26.0217 148.332 25.4488C148.715 24.876 148.919 24.2025 148.919 23.5135C148.918 22.5899 148.55 21.7045 147.897 21.0514C147.244 20.3984 146.359 20.031 145.435 20.03ZM141.644 20.3381C141.725 20.4198 141.836 20.4657 141.952 20.4657C142.067 20.4657 142.178 20.4198 142.26 20.3381C142.342 20.2564 142.388 20.1456 142.388 20.03C142.388 19.9145 142.342 19.8036 142.26 19.7219L141.389 18.8511C141.307 18.7694 141.197 18.7235 141.081 18.7235C140.965 18.7235 140.855 18.7694 140.773 18.8511C140.691 18.9328 140.645 19.0436 140.645 19.1591C140.645 19.2747 140.691 19.3855 140.773 19.4672L141.644 20.3381ZM141.644 26.6889L140.773 27.5598C140.691 27.6415 140.645 27.7523 140.645 27.8679C140.645 27.9834 140.691 28.0942 140.773 28.1759C140.855 28.2576 140.965 28.3035 141.081 28.3035C141.197 28.3035 141.307 28.2576 141.389 28.1759L142.26 27.3051C142.3 27.2646 142.332 27.2166 142.354 27.1637C142.376 27.1108 142.388 27.0542 142.388 26.997C142.388 26.9398 142.376 26.8831 142.354 26.8303C142.332 26.7774 142.3 26.7294 142.26 26.6889C142.219 26.6485 142.171 26.6164 142.119 26.5945C142.066 26.5726 142.009 26.5613 141.952 26.5613C141.895 26.5613 141.838 26.5726 141.785 26.5945C141.732 26.6164 141.684 26.6485 141.644 26.6889ZM148.919 20.4654C148.976 20.4655 149.033 20.4543 149.086 20.4324C149.138 20.4106 149.186 20.3785 149.227 20.3381L150.098 19.4672C150.179 19.3855 150.225 19.2747 150.225 19.1591C150.225 19.0436 150.179 18.9328 150.098 18.8511C150.016 18.7694 149.905 18.7235 149.79 18.7235C149.674 18.7235 149.563 18.7694 149.482 18.8511L148.611 19.7219C148.55 19.7828 148.508 19.8605 148.491 19.945C148.475 20.0295 148.483 20.1171 148.516 20.1967C148.549 20.2763 148.605 20.3443 148.677 20.3922C148.748 20.44 148.833 20.4655 148.919 20.4654ZM149.227 26.6889C149.145 26.6072 149.034 26.5613 148.919 26.5613C148.803 26.5613 148.692 26.6072 148.611 26.6889C148.529 26.7706 148.483 26.8814 148.483 26.997C148.483 27.1125 148.529 27.2233 148.611 27.3051L149.482 28.1759C149.522 28.2164 149.57 28.2485 149.623 28.2704C149.676 28.2923 149.732 28.3035 149.79 28.3035C149.847 28.3035 149.904 28.2923 149.956 28.2704C150.009 28.2485 150.057 28.2164 150.098 28.1759C150.138 28.1355 150.17 28.0874 150.192 28.0346C150.214 27.9817 150.225 27.9251 150.225 27.8679C150.225 27.8106 150.214 27.754 150.192 27.7011C150.17 27.6483 150.138 27.6002 150.098 27.5598L149.227 26.6889ZM141.081 23.5135C141.081 23.398 141.035 23.2873 140.953 23.2056C140.872 23.1239 140.761 23.0781 140.646 23.0781H139.339C139.224 23.0781 139.113 23.1239 139.031 23.2056C138.95 23.2873 138.904 23.398 138.904 23.5135C138.904 23.629 138.95 23.7397 139.031 23.8214C139.113 23.9031 139.224 23.9489 139.339 23.9489H140.646C140.761 23.9489 140.872 23.9031 140.953 23.8214C141.035 23.7397 141.081 23.629 141.081 23.5135ZM145.435 27.8679C145.32 27.8679 145.209 27.9137 145.127 27.9954C145.046 28.077 145 28.1878 145 28.3033V29.6096C145 29.7251 145.046 29.8358 145.127 29.9175C145.209 29.9992 145.32 30.045 145.435 30.045C145.551 30.045 145.662 29.9992 145.743 29.9175C145.825 29.8358 145.871 29.7251 145.871 29.6096V28.3033C145.871 28.1878 145.825 28.077 145.743 27.9954C145.662 27.9137 145.551 27.8679 145.435 27.8679ZM151.531 23.0781H150.225C150.11 23.0781 149.999 23.1239 149.917 23.2056C149.836 23.2873 149.79 23.398 149.79 23.5135C149.79 23.629 149.836 23.7397 149.917 23.8214C149.999 23.9031 150.11 23.9489 150.225 23.9489H151.531C151.647 23.9489 151.758 23.9031 151.839 23.8214C151.921 23.7397 151.967 23.629 151.967 23.5135C151.967 23.398 151.921 23.2873 151.839 23.2056C151.758 23.1239 151.647 23.0781 151.531 23.0781Z" fill="white"/>
</g>
<defs>
<clipPath id="clip0_2570_330">
<rect width="13.9339" height="13.9339" fill="white" transform="translate(59.2192 59.2192)"/>
</clipPath>
<clipPath id="clip1_2570_330">
<rect width="13.9339" height="13.9339" fill="white" transform="translate(244.715 89.6997)"/>
</clipPath>
<clipPath id="clip2_2570_330">
<rect width="13.9339" height="13.9339" fill="white" transform="translate(178.529 36.5766)"/>
</clipPath>
<clipPath id="clip3_2570_330">
<rect width="13.9339" height="13.9339" fill="white" transform="translate(97.5376 35.7057)"/>
</clipPath>
<clipPath id="clip4_2570_330">
<rect width="13.9339" height="13.9339" fill="white" transform="translate(138.469 16.5465)"/>
</clipPath>
</defs>
</svg>
