<svg width="294" height="261" viewBox="0 0 294 261" fill="none" xmlns="http://www.w3.org/2000/svg">
<path d="M33.3703 222.555C6.0244 190.992 -5.67295 146.488 2.62073 105.558C5.07964 93.4224 9.67503 80.9253 19.4762 73.3592C29.7157 65.4548 43.6124 64.4399 56.5359 64.9973C69.4594 65.5548 82.6756 67.3311 95.1396 63.8718C113.645 58.7355 126.988 43.2035 141.178 30.2621C155.368 17.3201 174.446 5.81937 192.836 11.3562C206.568 15.4901 216.069 28.3342 221.022 41.792C225.975 55.2498 227.339 69.7245 230.703 83.6642C234.068 97.604 239.987 111.762 251.49 120.324C257.182 124.561 263.913 127.174 269.884 131.008C284.712 140.53 294.134 157.937 293.999 175.558C293.863 193.18 284.175 210.439 269.203 219.732" fill="url(#paint0_linear_2516_1666)" fill-opacity="0.38"/>
<path d="M286.783 186.195H4.77168C3.59916 186.195 2.64844 185.244 2.64844 184.072C2.64844 182.899 3.59916 181.949 4.77168 181.949H286.783C287.956 181.949 288.907 182.899 288.907 184.072C288.907 185.244 287.956 186.195 286.783 186.195Z" fill="#95CC8F"/>
<path d="M243.7 41.6655H186.457V181.948H243.7V41.6655Z" fill="#618D8E"/>
<path d="M243.701 41.6656H215.079V181.948H243.701V41.6656Z" fill="#567C7C"/>
<path d="M246.117 39.1727H184.041V41.6647H246.117V39.1727Z" fill="#496B6A"/>
<path d="M246.117 39.1727H215.079V41.6647H246.117V39.1727Z" fill="#3D5958"/>
<path d="M246.117 68.4034H184.041V70.8955H246.117V68.4034Z" fill="#496B6A"/>
<path d="M246.117 68.4034H215.079V70.8955H246.117V68.4034Z" fill="#3D5958"/>
<path d="M246.117 97.6337H184.041V100.126H246.117V97.6337Z" fill="#496B6A"/>
<path d="M246.117 97.6337H215.079V100.126H246.117V97.6337Z" fill="#3D5958"/>
<path d="M246.117 126.864H184.041V129.356H246.117V126.864Z" fill="#496B6A"/>
<path d="M246.117 126.864H215.079V129.356H246.117V126.864Z" fill="#3D5958"/>
<path d="M246.117 156.095H184.041V158.587H246.117V156.095Z" fill="#496B6A"/>
<path d="M246.117 156.095H215.079V158.587H246.117V156.095Z" fill="#3D5958"/>
<path d="M203.458 46.5211H195.845V63.5487H203.458V46.5211Z" fill="#C6DCF4"/>
<path d="M203.789 63.8791H195.513V46.1894H203.789V63.8791ZM196.175 63.217H203.127V46.8515H196.175V63.217Z" fill="#FFB300"/>
<path d="M234.313 46.5212H226.699V63.5488H234.313V46.5212Z" fill="#B3CFE5"/>
<path d="M234.644 63.8792H226.367V46.1895H234.644V63.8792ZM227.029 63.2171H233.982V46.8516H227.029V63.2171Z" fill="#E9F4FF"/>
<path d="M218.885 46.5212H211.271V63.5488H218.885V46.5212Z" fill="#C6DCF4"/>
<path d="M218.885 46.5212H215.078V63.5488H218.885V46.5212Z" fill="#B3CFE5"/>
<path d="M219.217 63.8792H210.94V46.1895H219.217V63.8792ZM211.602 63.2171H218.555V46.8516H211.602V63.2171Z" fill="#F8FCFF"/>
<path d="M215.078 46.8522H218.554V63.2171H215.078V63.8792H219.216V46.1901H215.078V46.8522Z" fill="#E9F4FF"/>
<path d="M203.458 75.7513H195.845V92.7789H203.458V75.7513Z" fill="#C6DCF4"/>
<path d="M203.789 93.11H195.513V75.4203H203.789V93.11ZM196.175 92.4479H203.127V76.0824H196.175V92.4479Z" fill="#F8FCFF"/>
<path d="M234.313 75.7512H226.699V92.7788H234.313V75.7512Z" fill="#B3CFE5"/>
<path d="M234.644 93.1099H226.367V75.4202H234.644V93.1099ZM227.029 92.4478H233.982V76.0822H227.029V92.4478Z" fill="#E9F4FF"/>
<path d="M218.885 75.7512H211.271V92.7788H218.885V75.7512Z" fill="#C6DCF4"/>
<path d="M218.885 75.7512H215.078V92.7788H218.885V75.7512Z" fill="#B3CFE5"/>
<path d="M219.217 93.1099H210.94V75.4202H219.217V93.1099ZM211.602 92.4478H218.555V76.0822H211.602V92.4478Z" fill="#F8FCFF"/>
<path d="M215.078 76.0823H218.554V92.4479H215.078V93.1099H219.216V75.4202H215.078V76.0823Z" fill="#E9F4FF"/>
<path d="M203.458 104.982H195.845V122.01H203.458V104.982Z" fill="#C6DCF4"/>
<path d="M203.789 122.34H195.513V104.65H203.789V122.34ZM196.175 121.678H203.127V105.312H196.175V121.678Z" fill="#F8FCFF"/>
<path d="M234.313 104.982H226.699V122.01H234.313V104.982Z" fill="#B3CFE5"/>
<path d="M234.644 122.34H226.367V104.651H234.644V122.34ZM227.029 121.678H233.982V105.313H227.029V121.678Z" fill="#E9F4FF"/>
<path d="M218.885 104.982H211.271V122.01H218.885V104.982Z" fill="#C6DCF4"/>
<path d="M218.885 104.982H215.078V122.01H218.885V104.982Z" fill="#B3CFE5"/>
<path d="M219.217 122.34H210.94V104.651H219.217V122.34ZM211.602 121.678H218.555V105.313H211.602V121.678Z" fill="#F8FCFF"/>
<path d="M215.078 105.313H218.554V121.678H215.078V122.34H219.216V104.651H215.078V105.313Z" fill="#E9F4FF"/>
<path d="M203.458 134.212H195.845V151.24H203.458V134.212Z" fill="#C6DCF4"/>
<path d="M203.789 151.571H195.513V133.881H203.789V151.571ZM196.175 150.909H203.127V134.543H196.175V150.909Z" fill="#F8FCFF"/>
<path d="M234.313 134.212H226.699V151.24H234.313V134.212Z" fill="#B3CFE5"/>
<path d="M234.644 151.571H226.367V133.881H234.644V151.571ZM227.029 150.909H233.982V134.543H227.029V150.909Z" fill="#E9F4FF"/>
<path d="M218.885 134.212H211.271V151.24H218.885V134.212Z" fill="#C6DCF4"/>
<path d="M218.885 134.212H215.078V151.24H218.885V134.212Z" fill="#B3CFE5"/>
<path d="M219.217 151.571H210.94V133.881H219.217V151.571ZM211.602 150.909H218.555V134.543H211.602V150.909Z" fill="#F8FCFF"/>
<path d="M215.078 134.543H218.554V150.909H215.078V151.571H219.216V133.881H215.078V134.543Z" fill="#E9F4FF"/>
<path d="M203.458 163.443H195.845V180.471H203.458V163.443Z" fill="#C6DCF4"/>
<path d="M203.789 180.801H195.513V163.111H203.789V180.801ZM196.175 180.139H203.127V163.774H196.175V180.139Z" fill="#F8FCFF"/>
<path d="M234.313 163.443H226.699V180.471H234.313V163.443Z" fill="#B3CFE5"/>
<path d="M234.644 180.801H226.367V163.112H234.644V180.801ZM227.029 180.139H233.982V163.774H227.029V180.139Z" fill="#E9F4FF"/>
<path d="M218.885 163.443H211.271V180.471H218.885V163.443Z" fill="#C6DCF4"/>
<path d="M218.885 163.443H215.078V180.471H218.885V163.443Z" fill="#B3CFE5"/>
<path d="M219.217 180.801H210.94V163.112H219.217V180.801ZM211.602 180.139H218.555V163.774H211.602V180.139Z" fill="#F8FCFF"/>
<path d="M215.078 163.774H218.554V180.139H215.078V180.801H219.216V163.112H215.078V163.774Z" fill="#E9F4FF"/>
<path d="M279.792 151.08H264.606V181.937H279.792V151.08Z" fill="#C48F5F"/>
<path d="M279.791 151.08H272.198V181.937H279.791V151.08Z" fill="#BC8557"/>
<path d="M252.276 140.014H277.112L281.562 150.387H252.276V140.014Z" fill="#824920"/>
<path d="M252.277 140.014H227.441L222.992 150.387H252.277V140.014Z" fill="#824920"/>
<path d="M281.563 150.413H264.606V151.747H281.563V150.413Z" fill="#A56734"/>
<path d="M264.606 181.937H239.875V150.726L252.24 138.037L264.606 150.726V181.937Z" fill="#D8AC7C"/>
<path d="M264.606 181.937V150.726L252.24 138.037V181.937H264.606Z" fill="#CE9E6E"/>
<path d="M276.629 159.987H267.766V177.194H276.629V159.987Z" fill="#C6DCF4"/>
<path d="M276.63 159.987H272.198V177.194H276.63V159.987Z" fill="#B3CFE5"/>
<path d="M277.075 177.639H267.321V159.542H277.075V177.639ZM268.211 176.749H276.185V160.432H268.211V176.749Z" fill="#F8FCFF"/>
<path d="M272.234 160.432H276.185V176.749H272.234V177.639H277.075V159.542H272.234V160.432Z" fill="#E9F4FF"/>
<path d="M239.893 151.08H224.708V181.937H239.893V151.08Z" fill="#C48F5F"/>
<path d="M239.892 151.08H232.3V181.937H239.892V151.08Z" fill="#BC8557"/>
<path d="M239.893 150.412H222.937V151.747H239.893V150.412Z" fill="#A56734"/>
<path d="M236.733 159.987H227.869V177.194H236.733V159.987Z" fill="#C6DCF4"/>
<path d="M236.733 159.987H232.301V177.194H236.733V159.987Z" fill="#B3CFE5"/>
<path d="M237.177 177.639H227.424V159.542H237.177V177.639ZM228.314 176.749H236.288V160.432H228.314V176.749Z" fill="#F8FCFF"/>
<path d="M232.337 160.432H236.287V176.749H232.337V177.639H237.177V159.542H232.337V160.432Z" fill="#E9F4FF"/>
<path d="M258.539 163.646H245.941V181.938H258.539V163.646Z" fill="#C6DCF4"/>
<path d="M258.539 163.646H252.276V181.938H258.539V163.646Z" fill="#B3CFE5"/>
<path d="M245.497 163.201V181.937H246.387V174.136V164.091H258.094V174.136V179.392V180.282H258.984V163.201H245.497Z" fill="#F8FCFF"/>
<path d="M258.984 181.938V163.201H252.276V164.091H258.094V181.938H258.984Z" fill="#E9F4FF"/>
<path d="M256.672 150.635H247.809V158.994H256.672V150.635Z" fill="#C6DCF4"/>
<path d="M256.672 150.635H252.24V158.994H256.672V150.635Z" fill="#B3CFE5"/>
<path d="M257.117 159.439H247.363V150.19H257.117V159.439ZM248.253 158.549H256.227V151.081H248.253V158.549Z" fill="#F8FCFF"/>
<path d="M252.276 151.08H256.227V158.549H252.276V159.439H257.117V150.19H252.276V151.08Z" fill="#E9F4FF"/>
<path d="M237.852 153.758L236.896 152.826L252.24 137.081L267.584 152.826L266.628 153.758L252.24 138.993L237.852 153.758Z" fill="#A56734"/>
<path d="M114.048 4.82373H42.2041V181.948H114.048V4.82373Z" fill="#766193"/>
<path d="M114.048 4.82373H78.126V181.948H114.048V4.82373Z" fill="#695784"/>
<path d="M119.091 0H37.1602V4.96151H119.091V0Z" fill="#594C72"/>
<path d="M119.091 0H78.126V4.96151H119.091V0Z" fill="#4B4263"/>
<path d="M105.446 10.4031H50.8037V17.4323H105.446V10.4031Z" fill="#C6DCF4"/>
<path d="M105.446 10.4031H78.125V17.4323H105.446V10.4031Z" fill="#B3CFE5"/>
<path d="M105.758 17.7433H50.4932V10.0911H105.758V17.7433ZM51.1162 17.1203H105.135V10.7141H51.1162V17.1203Z" fill="white"/>
<path d="M78.126 10.7149H105.136V17.1203H78.126V17.7433H105.759V10.0919H78.126V10.7149Z" fill="#EDEDED"/>
<path d="M105.446 23.1849H50.8037V30.214H105.446V23.1849Z" fill="#C6DCF4"/>
<path d="M105.446 23.1849H78.125V30.214H105.446V23.1849Z" fill="#B3CFE5"/>
<path d="M105.758 30.5252H50.4932V22.873H105.758V30.5252ZM51.1162 29.9022H105.135V23.4961H51.1162V29.9022Z" fill="white"/>
<path d="M78.126 23.4961H105.136V29.9022H78.126V30.5252H105.759V22.873H78.126V23.4961Z" fill="#EDEDED"/>
<path d="M105.446 35.9667H50.8037V42.9958H105.446V35.9667Z" fill="#C6DCF4"/>
<path d="M105.446 35.9667H78.125V42.9958H105.446V35.9667Z" fill="#B3CFE5"/>
<path d="M105.758 43.307H50.4932V35.6549H105.758V43.307ZM51.1162 42.684H105.135V36.2779H51.1162V42.684Z" fill="white"/>
<path d="M78.126 36.2778H105.136V42.6839H78.126V43.3069H105.759V35.6548H78.126V36.2778Z" fill="#EDEDED"/>
<path d="M105.446 48.7485H50.8037V55.7776H105.446V48.7485Z" fill="#C6DCF4"/>
<path d="M105.446 48.7485H78.125V55.7776H105.446V48.7485Z" fill="#B3CFE5"/>
<path d="M105.758 56.0888H50.4932V48.4366H105.758V56.0888ZM51.1162 55.4658H105.135V49.0597H51.1162V55.4658Z" fill="white"/>
<path d="M78.126 49.0597H105.136V55.4658H78.126V56.0888H105.759V48.4366H78.126V49.0597Z" fill="#EDEDED"/>
<path d="M105.446 61.5303H50.8037V68.5594H105.446V61.5303Z" fill="#C6DCF4"/>
<path d="M105.446 61.5303H78.125V68.5594H105.446V61.5303Z" fill="#B3CFE5"/>
<path d="M105.758 68.8706H50.4932V61.2185H105.758V68.8706ZM51.1162 68.2476H105.135V61.8415H51.1162V68.2476Z" fill="white"/>
<path d="M78.126 61.8415H105.136V68.2476H78.126V68.8706H105.759V61.2185H78.126V61.8415Z" fill="#EDEDED"/>
<path d="M105.446 74.3121H50.8037V81.3412H105.446V74.3121Z" fill="#C6DCF4"/>
<path d="M105.446 74.3121H78.125V81.3412H105.446V74.3121Z" fill="#B3CFE5"/>
<path d="M105.758 81.6524H50.4932V74.0002H105.758V81.6524ZM51.1162 81.0294H105.135V74.6233H51.1162V81.0294Z" fill="white"/>
<path d="M78.126 74.6233H105.136V81.0294H78.126V81.6524H105.759V74.0002H78.126V74.6233Z" fill="#EDEDED"/>
<path d="M105.446 87.0938H50.8037V94.1229H105.446V87.0938Z" fill="#C6DCF4"/>
<path d="M105.446 87.0938H78.125V94.1229H105.446V87.0938Z" fill="#B3CFE5"/>
<path d="M105.758 94.4344H50.4932V86.7822H105.758V94.4344ZM51.1162 93.8114H105.135V87.4052H51.1162V93.8114Z" fill="white"/>
<path d="M78.126 87.4051H105.136V93.8112H78.126V94.4342H105.759V86.7821H78.126V87.4051Z" fill="#EDEDED"/>
<path d="M105.446 99.8756H50.8037V106.905H105.446V99.8756Z" fill="#C6DCF4"/>
<path d="M105.446 99.8756H78.125V106.905H105.446V99.8756Z" fill="#B3CFE5"/>
<path d="M105.758 107.216H50.4932V99.5639H105.758V107.216ZM51.1162 106.593H105.135V100.187H51.1162V106.593Z" fill="white"/>
<path d="M78.126 100.187H105.136V106.593H78.126V107.216H105.759V99.5638H78.126V100.187Z" fill="#EDEDED"/>
<path d="M105.446 112.657H50.8037V119.686H105.446V112.657Z" fill="#C6DCF4"/>
<path d="M105.446 112.657H78.125V119.686H105.446V112.657Z" fill="#B3CFE5"/>
<path d="M105.758 119.998H50.4932V112.346H105.758V119.998ZM51.1162 119.375H105.135V112.969H51.1162V119.375Z" fill="white"/>
<path d="M78.126 112.969H105.136V119.375H78.126V119.998H105.759V112.346H78.126V112.969Z" fill="#EDEDED"/>
<path d="M105.446 125.439H50.8037V132.468H105.446V125.439Z" fill="#C6DCF4"/>
<path d="M105.446 125.439H78.125V132.468H105.446V125.439Z" fill="#B3CFE5"/>
<path d="M105.758 132.78H50.4932V125.128H105.758V132.78ZM51.1162 132.157H105.135V125.751H51.1162V132.157Z" fill="white"/>
<path d="M78.126 125.75H105.136V132.157H78.126V132.78H105.759V125.127H78.126V125.75Z" fill="#EDEDED"/>
<path d="M105.446 138.22H50.8037V145.25H105.446V138.22Z" fill="#C6DCF4"/>
<path d="M105.446 138.22H78.125V145.25H105.446V138.22Z" fill="#B3CFE5"/>
<path d="M105.758 145.561H50.4932V137.909H105.758V145.561ZM51.1162 144.939H105.135V138.532H51.1162V144.939Z" fill="white"/>
<path d="M78.126 138.532H105.136V144.938H78.126V145.561H105.759V137.909H78.126V138.532Z" fill="#EDEDED"/>
<path d="M105.446 151.002H50.8037V158.031H105.446V151.002Z" fill="#C6DCF4"/>
<path d="M105.446 151.002H78.125V158.031H105.446V151.002Z" fill="#B3CFE5"/>
<path d="M105.758 158.343H50.4932V150.691H105.758V158.343ZM51.1162 157.72H105.135V151.314H51.1162V157.72Z" fill="white"/>
<path d="M78.126 151.314H105.136V157.72H78.126V158.343H105.759V150.691H78.126V151.314Z" fill="#EDEDED"/>
<path d="M83.7942 163.784H72.457V181.948H83.7942V163.784Z" fill="#C6DCF4"/>
<path d="M83.7946 163.784H78.126V181.948H83.7946V163.784Z" fill="#B3CFE5"/>
<path d="M72.1455 163.473V181.948H72.7685V181.325V171.129V164.096H83.4827V171.129V174.81V175.433H84.1057V163.473H72.1455Z" fill="#F8FCFF"/>
<path d="M84.1058 181.948V163.473H78.126V164.096H83.4827V181.948H84.1058Z" fill="#E9F4FF"/>
<path d="M68.2678 163.784H46.0801V175.209H68.2678V163.784Z" fill="#C6DCF4"/>
<path d="M68.2674 163.784H57.1738V175.209H68.2674V163.784Z" fill="#B3CFE5"/>
<path d="M68.5803 175.521H45.7695V163.473H68.5803V175.521ZM46.3925 174.898H67.9566V164.096H46.3925V174.898Z" fill="white"/>
<path d="M57.1748 164.096H67.9565V174.898H57.1748V175.521H68.5802V163.473H57.1748V164.096Z" fill="#EDEDED"/>
<path d="M110.171 163.784H87.9834V175.209H110.171V163.784Z" fill="#C6DCF4"/>
<path d="M110.171 163.784H99.0771V175.209H110.171V163.784Z" fill="#B3CFE5"/>
<path d="M110.483 175.521H87.6719V163.473H110.483V175.521ZM88.2955 174.898H109.86V164.096H88.2955V174.898Z" fill="white"/>
<path d="M99.0771 164.096H109.859V174.898H99.0771V175.521H110.482V163.473H99.0771V164.096Z" fill="#EDEDED"/>
<path d="M32.3778 142.497H13.4051L8.43164 155.086H32.3778V142.497Z" fill="#684054"/>
<path d="M46.5947 133.367H84.6436L89.617 145.957H46.5947V133.367Z" fill="#684054"/>
<path d="M87.4597 146.705H56.3096V181.953H87.4597V146.705Z" fill="#AD778D"/>
<path d="M87.4591 146.705H75.8975V181.953H87.4591V146.705Z" fill="#A36F87"/>
<path d="M89.6182 145.96H63.9863V147.452H89.6182V145.96Z" fill="#995B77"/>
<path d="M80.8101 167.151H70.9023V177.49H80.8101V167.151Z" fill="#C6DCF4"/>
<path d="M80.8117 167.151H75.8574V177.49H80.8117V167.151Z" fill="#B3CFE5"/>
<path d="M81.3085 177.987H70.4062V166.655H81.3085V177.987ZM71.4007 176.992H80.314V167.649H71.4007V176.992Z" fill="#F8FCFF"/>
<path d="M75.8975 167.649H80.3134V176.992H75.8975V177.987H81.3085V166.654H75.8975V167.649Z" fill="#E9F4FF"/>
<path d="M80.8101 152.63H70.9023V162.969H80.8101V152.63Z" fill="#C6DCF4"/>
<path d="M80.8117 152.63H75.8574V162.969H80.8117V152.63Z" fill="#B3CFE5"/>
<path d="M81.3085 163.466H70.4062V152.133H81.3085V163.466ZM71.4007 162.471H80.314V153.127H71.4007V162.471Z" fill="#F8FCFF"/>
<path d="M75.8975 153.127H80.3134V162.471H75.8975V163.466H81.3085V152.133H75.8975V153.127Z" fill="#E9F4FF"/>
<path d="M64.8558 181.953H28.333V147.066L46.5947 129.685L64.8558 147.066V181.953Z" fill="#CE8DAE"/>
<path d="M64.8558 181.953V147.066L46.5947 129.685V181.953H64.8558Z" fill="#C184A0"/>
<path d="M28.3355 155.807H10.5723V181.954H28.3355V155.807Z" fill="#AD778D"/>
<path d="M28.3335 155.807H19.8213V181.954H28.3335V155.807Z" fill="#A36F87"/>
<path d="M66.6231 149.776L46.595 130.715L26.5676 149.776L25.54 148.696L46.595 128.655L67.6513 148.696L66.6231 149.776Z" fill="#995B77"/>
<path d="M28.334 155.06H8.43164V156.552H28.334V155.06Z" fill="#995B77"/>
<path d="M53.6365 161.507H39.5557V181.953H53.6365V161.507Z" fill="#C6DCF4"/>
<path d="M53.6367 161.507H46.6367V181.953H53.6367V161.507Z" fill="#B3CFE5"/>
<path d="M39.0566 161.01V181.953H40.0517V173.232V162.005H53.1381V173.232V179.108V180.103H54.1325V161.01H39.0566Z" fill="#F8FCFF"/>
<path d="M54.133 181.953V161.01H46.6357V162.005H53.1385V181.953H54.133Z" fill="#E9F4FF"/>
<path d="M35.51 164.563H31.8799V178.898H35.51V164.563Z" fill="#C6DCF4"/>
<path d="M36.0087 179.396H31.3828V164.065H36.0087V179.396ZM32.3779 178.401H35.0142V165.06H32.3779V178.401Z" fill="#F8FCFF"/>
<path d="M61.3098 164.563H57.6797V178.898H61.3098V164.563Z" fill="#B3CFE5"/>
<path d="M61.8085 179.395H57.1826V164.065H61.8085V179.395ZM58.1777 178.4H60.814V165.06H58.1777V178.4Z" fill="#F8FCFF"/>
<path d="M51.5494 142.497H41.6416V155.819H51.5494V142.497Z" fill="#C6DCF4"/>
<path d="M51.5509 142.497H46.5967V155.819H51.5509V142.497Z" fill="#B3CFE5"/>
<path d="M52.0474 156.316H41.1445V142H52.0467L52.0474 156.316ZM42.1396 155.322H51.053V142.994H42.1396V155.322Z" fill="#F8FCFF"/>
<path d="M46.6367 142.994H51.0527V155.322H46.6367V156.316H52.0478V142H46.6367V142.994Z" fill="#E9F4FF"/>
<path d="M24.7349 162.874H14.8271V176.197H24.7349V162.874Z" fill="#C6DCF4"/>
<path d="M24.7355 162.874H19.7812V176.197H24.7355V162.874Z" fill="#B3CFE5"/>
<path d="M25.2323 176.694H14.3301V162.378H25.2323V176.694ZM15.3245 175.7H24.2379V163.372H15.3245V175.7Z" fill="#F8FCFF"/>
<path d="M19.8213 163.372H24.2373V175.7H19.8213V176.694H25.2317V162.377H19.8213V163.372Z" fill="#E9F4FF"/>
<path d="M167.32 32.4511V20.3439H142.049V37.9198L127.633 41.0394V181.948H172.885V31.2475L167.32 32.4511Z" fill="#617391"/>
<path d="M167.32 20.3439H150.259V181.948H172.885V31.2474L167.32 32.451V20.3439Z" fill="#53657F"/>
<path d="M154.917 164.92H145.545V181.949H154.917V164.92Z" fill="#C6DCF4"/>
<path d="M154.917 164.92H150.258V181.949H154.917V164.92Z" fill="#B3CFE5"/>
<path d="M145.214 164.589V181.948H145.876V181.286V172.724V165.251H154.587V172.724V176.635V177.297H155.249V164.589H145.214Z" fill="#F8FCFF"/>
<path d="M155.249 181.948V164.589H150.259V165.251H154.587V181.948H155.249Z" fill="#E9F4FF"/>
<path d="M154.918 44.9794H145.545V57.7784H154.918V44.9794Z" fill="#C6DCF4"/>
<path d="M154.918 44.9794H150.231V57.7785H154.918V44.9794Z" fill="#B3CFE5"/>
<path d="M155.248 58.109H145.214V44.6486H155.248V58.109ZM145.876 57.4469H154.586V45.3106H145.876V57.4469Z" fill="#F8FCFF"/>
<path d="M150.231 45.3105H154.587V57.4468H150.231V58.1089H155.249V44.6484H150.231V45.3105Z" fill="#E9F4FF"/>
<path d="M141.109 44.9794H131.736V57.7784H141.109V44.9794Z" fill="#C6DCF4"/>
<path d="M141.44 58.1089H131.405V44.6485H141.44V58.1089ZM132.067 57.4469H140.777V45.3106H132.067V57.4469Z" fill="#F8FCFF"/>
<path d="M168.727 44.9794H159.354V57.7785H168.727V44.9794Z" fill="#B3CFE5"/>
<path d="M169.058 58.1089H159.023V44.6485H169.058V58.1089ZM159.686 57.4469H168.396V45.3106H159.686V57.4469Z" fill="#E9F4FF"/>
<path d="M154.918 62.1135H145.545V74.9125H154.918V62.1135Z" fill="#C6DCF4"/>
<path d="M154.918 62.1136H150.231V74.9126H154.918V62.1136Z" fill="#B3CFE5"/>
<path d="M155.248 75.2433H145.214V61.7822H155.248V75.2433ZM145.876 74.5812H154.586V62.4442H145.876V74.5812Z" fill="#F8FCFF"/>
<path d="M150.231 62.4444H154.587V74.5813H150.231V75.2434H155.249V61.7823H150.231V62.4444Z" fill="#E9F4FF"/>
<path d="M141.109 62.1135H131.736V74.9125H141.109V62.1135Z" fill="#C6DCF4"/>
<path d="M141.44 75.2433H131.405V61.7822H141.44V75.2433ZM132.067 74.5812H140.777V62.4442H132.067V74.5812Z" fill="#F8FCFF"/>
<path d="M168.727 62.1135H159.354V74.9126H168.727V62.1135Z" fill="#B3CFE5"/>
<path d="M169.058 75.2433H159.023V61.7822H169.058V75.2433ZM159.686 74.5812H168.396V62.4442H159.686V74.5812Z" fill="#E9F4FF"/>
<path d="M154.918 79.2477H145.545V92.0468H154.918V79.2477Z" fill="#C6DCF4"/>
<path d="M154.918 79.2477H150.231V92.0468H154.918V79.2477Z" fill="#B3CFE5"/>
<path d="M155.248 92.3777H145.214V78.9172H155.248V92.3777ZM145.876 91.7156H154.586V79.5793H145.876V91.7156Z" fill="#F8FCFF"/>
<path d="M150.231 79.5788H154.587V91.7157H150.231V92.3778H155.249V78.9167H150.231V79.5788Z" fill="#E9F4FF"/>
<path d="M141.109 79.2476H131.736V92.0466H141.109V79.2476Z" fill="#C6DCF4"/>
<path d="M141.44 92.3775H131.405V78.9171H141.44V92.3775ZM132.067 91.7154H140.777V79.5791H132.067V91.7154Z" fill="#F8FCFF"/>
<path d="M168.727 79.2476H159.354V92.0466H168.727V79.2476Z" fill="#B3CFE5"/>
<path d="M169.058 92.3775H159.023V78.9171H169.058V92.3775ZM159.686 91.7154H168.396V79.5791H159.686V91.7154Z" fill="#E9F4FF"/>
<path d="M154.918 96.382H145.545V109.181H154.918V96.382Z" fill="#C6DCF4"/>
<path d="M154.918 96.382H150.231V109.181H154.918V96.382Z" fill="#B3CFE5"/>
<path d="M155.248 109.512H145.214V96.0516H155.248V109.512ZM145.876 108.85H154.586V96.7137H145.876V108.85Z" fill="#F8FCFF"/>
<path d="M150.231 96.7131H154.587V108.85H150.231V109.512H155.249V96.051H150.231V96.7131Z" fill="#E9F4FF"/>
<path d="M141.109 96.382H131.736V109.181H141.109V96.382Z" fill="#C6DCF4"/>
<path d="M141.44 109.512H131.405V96.0515H141.44V109.512ZM132.067 108.85H140.777V96.7135H132.067V108.85Z" fill="#F8FCFF"/>
<path d="M168.727 96.382H159.354V109.181H168.727V96.382Z" fill="#B3CFE5"/>
<path d="M169.058 109.512H159.023V96.0515H169.058V109.512ZM159.686 108.85H168.396V96.7135H159.686V108.85Z" fill="#E9F4FF"/>
<path d="M154.918 113.516H145.545V126.315H154.918V113.516Z" fill="#C6DCF4"/>
<path d="M154.918 113.516H150.231V126.315H154.918V113.516Z" fill="#B3CFE5"/>
<path d="M155.248 126.646H145.214V113.185H155.248V126.646ZM145.876 125.984H154.586V113.847H145.876V125.984Z" fill="#F8FCFF"/>
<path d="M150.231 113.848H154.587V125.984H150.231V126.646H155.249V113.186H150.231V113.848Z" fill="#E9F4FF"/>
<path d="M141.109 113.516H131.736V126.315H141.109V113.516Z" fill="#C6DCF4"/>
<path d="M141.44 126.646H131.405V113.185H141.44V126.646ZM132.067 125.984H140.777V113.847H132.067V125.984Z" fill="#F8FCFF"/>
<path d="M168.727 113.516H159.354V126.315H168.727V113.516Z" fill="#B3CFE5"/>
<path d="M169.058 126.646H159.023V113.185H169.058V126.646ZM159.686 125.984H168.396V113.847H159.686V125.984Z" fill="#E9F4FF"/>
<path d="M154.918 130.651H145.545V143.45H154.918V130.651Z" fill="#C6DCF4"/>
<path d="M154.918 130.651H150.231V143.45H154.918V130.651Z" fill="#B3CFE5"/>
<path d="M155.248 143.78H145.214V130.319H155.248V143.78ZM145.876 143.118H154.586V130.981H145.876V143.118Z" fill="#F8FCFF"/>
<path d="M150.231 130.982H154.587V143.118H150.231V143.78H155.249V130.32H150.231V130.982Z" fill="#E9F4FF"/>
<path d="M141.109 130.651H131.736V143.45H141.109V130.651Z" fill="#C6DCF4"/>
<path d="M141.44 143.78H131.405V130.319H141.44V143.78ZM132.067 143.118H140.777V130.981H132.067V143.118Z" fill="#F8FCFF"/>
<path d="M168.727 130.651H159.354V143.45H168.727V130.651Z" fill="#B3CFE5"/>
<path d="M169.058 143.78H159.023V130.319H169.058V143.78ZM159.686 143.118H168.396V130.981H159.686V143.118Z" fill="#E9F4FF"/>
<path d="M154.918 147.785H145.545V160.584H154.918V147.785Z" fill="#C6DCF4"/>
<path d="M154.918 147.785H150.231V160.584H154.918V147.785Z" fill="#B3CFE5"/>
<path d="M155.248 160.915H145.214V147.454H155.248V160.915ZM145.876 160.253H154.586V148.116H145.876V160.253Z" fill="#F8FCFF"/>
<path d="M150.231 148.116H154.587V160.253H150.231V160.915H155.249V147.454H150.231V148.116Z" fill="#E9F4FF"/>
<path d="M141.109 147.785H131.736V160.584H141.109V147.785Z" fill="#C6DCF4"/>
<path d="M141.44 160.915H131.405V147.454H141.44V160.915ZM132.067 160.253H140.777V148.116H132.067V160.253Z" fill="#F8FCFF"/>
<path d="M168.727 147.785H159.354V160.584H168.727V147.785Z" fill="#B3CFE5"/>
<path d="M169.058 160.915H159.023V147.454H169.058V160.915ZM159.686 160.253H168.396V148.116H159.686V160.253Z" fill="#E9F4FF"/>
<path d="M141.109 164.92H131.736V177.719H141.109V164.92Z" fill="#C6DCF4"/>
<path d="M141.44 178.049H131.405V164.588H141.44V178.049ZM132.067 177.387H140.777V165.25H132.067V177.387Z" fill="#F8FCFF"/>
<path d="M168.727 164.92H159.354V177.719H168.727V164.92Z" fill="#B3CFE5"/>
<path d="M169.058 178.049H159.023V164.588H169.058V178.049ZM159.686 177.387H168.396V165.25H159.686V177.387Z" fill="#E9F4FF"/>
<path d="M226.294 223.207H65.2618C61.8356 223.207 59.0576 220.43 59.0576 217.003V108.799C59.0576 105.373 61.835 102.595 65.2618 102.595H226.294C229.721 102.595 232.499 105.372 232.499 108.799V217.003C232.499 220.43 229.721 223.207 226.294 223.207Z" fill="#435377"/>
<path d="M226.295 102.596H145.778V223.207H226.295C229.721 223.207 232.499 220.43 232.499 217.003V108.799C232.499 105.373 229.721 102.596 226.295 102.596Z" fill="#354863"/>
<path d="M217.712 217.537H73.845C73.502 217.537 73.2246 217.26 73.2246 216.917V108.886C73.2246 108.543 73.5027 108.265 73.845 108.265H217.712C218.055 108.265 218.332 108.543 218.332 108.886V216.917C218.332 217.259 218.054 217.537 217.712 217.537Z" fill="#C6DCF4"/>
<path d="M217.712 108.265H145.778V217.537H217.712C218.055 217.537 218.332 217.26 218.332 216.917V108.886C218.332 108.543 218.054 108.265 217.712 108.265Z" fill="#B3CFE5"/>
<path d="M66.1411 166.197C67.9617 166.197 69.4376 164.721 69.4376 162.901C69.4376 161.08 67.9617 159.604 66.1411 159.604C64.3206 159.604 62.8447 161.08 62.8447 162.901C62.8447 164.721 64.3206 166.197 66.1411 166.197Z" fill="#334159"/>
<path d="M191.108 108.265H182.388L157.185 116.252L154.654 108.265H152.196L154.951 116.96L118.524 128.502L112.111 108.265H109.653L116.29 129.21L101.742 133.82L93.6444 108.265H91.1868L99.5083 134.528L84.4649 139.294L74.6325 108.265H73.842C73.4991 108.265 73.2217 108.543 73.2217 108.886V111.57L82.2311 140.002L73.2217 142.857V145.315L82.9388 142.236L90.2169 165.205L73.2217 170.59V173.048L90.9246 167.439L93.9708 177.051L73.2217 181.547V183.945L94.6818 179.294L103.7 207.754L73.4031 217.354C73.5156 217.467 73.6706 217.536 73.842 217.536H80.5858L104.408 209.988L106.8 217.536H109.258L106.641 209.28L121.685 204.513L125.811 217.536H128.27L123.919 203.805L138.466 199.195L144.278 217.536H146.735L140.699 198.488L177.126 186.945L186.819 217.536H189.278L179.36 186.237L210.254 176.448L218.329 201.931V194.174L212.488 175.74L218.329 173.889V171.431L211.78 173.506L205.972 155.177L218.329 152.5V150.103L205.261 152.934L199.005 133.19L218.329 127.067V124.608L198.297 130.956L191.108 108.265ZM188.787 108.696L196.065 131.665L165.171 141.454L157.893 118.485L188.787 108.696ZM127.219 155.939L163.645 144.396L168.851 160.825L131.342 168.954L127.219 155.939ZM129.043 169.451L114.063 172.697L110.438 161.256L124.985 156.646L129.043 169.451ZM155.659 119.193L162.937 142.162L126.511 153.704L119.233 130.735L155.659 119.193ZM116.999 131.444L124.277 154.413L109.73 159.023L102.452 136.054L116.999 131.444ZM85.1746 141.528L100.218 136.761L107.496 159.73L92.4527 164.496L85.1746 141.528ZM93.1604 166.731L108.204 161.964L111.763 173.196L96.2728 176.553L93.1604 166.731ZM105.936 207.047L96.9838 178.796L112.474 175.439L120.979 202.28L105.936 207.047ZM123.213 201.572L114.774 174.941L129.754 171.694L137.76 196.962L123.213 201.572ZM139.994 196.255L132.054 171.197L169.563 163.068L176.421 184.712L139.994 196.255ZM209.548 174.215L178.654 184.004L171.863 162.571L203.674 155.677L209.548 174.215ZM202.963 153.433L171.152 160.327L165.879 143.688L196.773 133.899L202.963 153.433Z" fill="white"/>
<path d="M145.776 217.537H146.737L145.776 214.505V217.537Z" fill="#E9F4FF"/>
<path d="M191.107 108.265H182.387L157.184 116.252L154.653 108.265H152.195L154.95 116.959L145.776 119.866V122.324L155.658 119.193L162.936 142.162L145.776 147.6V150.058L163.644 144.396L168.85 160.825L145.776 165.825V168.222L169.562 163.068L176.42 184.712L145.776 194.422V196.881L177.128 186.946L186.821 217.538H189.279L179.362 186.239L210.255 176.449L218.331 201.932V194.175L212.489 175.741L218.331 173.89V171.432L211.782 173.507L205.974 155.178L218.331 152.501V150.104L205.263 152.935L199.006 133.191L218.331 127.068V124.61L198.299 130.957L191.107 108.265ZM157.892 118.485L188.786 108.696L196.064 131.665L165.17 141.454L157.892 118.485ZM209.547 174.215L178.653 184.004L171.862 162.57L203.673 155.677L209.547 174.215ZM202.962 153.433L171.151 160.327L165.878 143.688L196.772 133.898L202.962 153.433Z" fill="#E9F4FF"/>
<path d="M159.271 163.546C159.271 155.835 152.755 149.646 144.928 150.185C138.219 150.646 132.827 156.156 132.498 162.873C132.372 165.439 132.969 167.856 134.102 169.939L144.457 188.88C144.924 189.735 146.147 189.75 146.636 188.907L157.298 170.544C158.549 168.507 159.271 166.111 159.271 163.546Z" fill="#C16772"/>
<path d="M145.877 150.169V189.485C146.18 189.406 146.458 189.215 146.637 188.907L157.299 170.543C158.549 168.506 159.271 166.11 159.271 163.546C159.271 156.15 153.272 150.171 145.877 150.169Z" fill="#B25464"/>
<path d="M152.407 165.084C153.254 161.484 151.021 157.878 147.42 157.032C143.819 156.186 140.214 158.419 139.367 162.02C138.521 165.621 140.754 169.226 144.355 170.072C147.956 170.918 151.561 168.685 152.407 165.084Z" fill="#DDA76C"/>
<path d="M152.573 163.546C152.573 159.847 149.575 156.849 145.876 156.849V170.243C149.575 170.243 152.573 167.245 152.573 163.546Z" fill="#CC9156"/>
<path d="M110.194 119.606C110.194 117.331 108.271 115.504 105.961 115.663C103.981 115.8 102.39 117.425 102.293 119.408C102.256 120.165 102.432 120.878 102.766 121.493L105.822 127.082C105.959 127.335 106.32 127.339 106.465 127.091L109.611 121.672C109.981 121.07 110.194 120.363 110.194 119.606Z" fill="#C16772"/>
<path d="M106.241 115.659V127.261C106.331 127.238 106.413 127.182 106.466 127.09L109.612 121.671C109.981 121.07 110.194 120.363 110.194 119.606C110.194 117.424 108.424 115.659 106.241 115.659Z" fill="#B25464"/>
<path d="M108.218 119.607C108.218 120.698 107.333 121.583 106.242 121.583C105.151 121.583 104.266 120.698 104.266 119.607C104.266 118.515 105.151 117.63 106.242 117.63C107.333 117.63 108.218 118.515 108.218 119.607Z" fill="#DDA76C"/>
<path d="M108.218 119.607C108.218 118.515 107.333 117.63 106.242 117.63V121.583C107.334 121.583 108.218 120.698 108.218 119.607Z" fill="#CC9156"/>
<path d="M208.748 195.196C208.748 192.92 206.825 191.093 204.515 191.252C202.535 191.389 200.944 193.014 200.848 194.997C200.811 195.754 200.987 196.467 201.321 197.082L204.377 202.672C204.515 202.924 204.876 202.928 205.02 202.679L208.167 197.26C208.535 196.66 208.748 195.953 208.748 195.196Z" fill="#C16772"/>
<path d="M204.796 191.248V202.851C204.885 202.828 204.967 202.772 205.02 202.68L208.167 197.261C208.536 196.66 208.749 195.953 208.749 195.196C208.748 193.013 206.978 191.249 204.796 191.248Z" fill="#B25464"/>
<path d="M206.772 195.196C206.772 196.287 205.887 197.172 204.796 197.172C203.704 197.172 202.819 196.287 202.819 195.196C202.819 194.104 203.705 193.219 204.796 193.219C205.887 193.219 206.772 194.105 206.772 195.196Z" fill="#DDA76C"/>
<path d="M206.772 195.196C206.772 194.104 205.887 193.219 204.796 193.219V197.172C205.887 197.173 206.772 196.287 206.772 195.196Z" fill="#CC9156"/>
<path d="M93.6889 197.713C93.6889 196.006 92.2469 194.636 90.5143 194.755C89.0293 194.857 87.8363 196.077 87.7634 197.564C87.7356 198.132 87.8674 198.667 88.1183 199.128L90.4104 203.32C90.5136 203.509 90.7844 203.513 90.893 203.326L93.2526 199.261C93.5287 198.811 93.6889 198.28 93.6889 197.713Z" fill="#C16772"/>
<path d="M90.7246 194.752V203.454C90.7915 203.436 90.8531 203.395 90.8928 203.326L93.2524 199.261C93.5291 198.811 93.6887 198.28 93.6887 197.713C93.6893 196.076 92.3612 194.752 90.7246 194.752Z" fill="#B25464"/>
<path d="M92.2059 197.713C92.2059 198.531 91.5425 199.195 90.7236 199.195C89.9046 199.195 89.2412 198.532 89.2412 197.713C89.2412 196.894 89.9046 196.231 90.7236 196.231C91.5419 196.231 92.2059 196.894 92.2059 197.713Z" fill="#DDA76C"/>
<path d="M92.206 197.713C92.206 196.894 91.5426 196.231 90.7236 196.231V199.195C91.5419 199.195 92.206 198.531 92.206 197.713Z" fill="#CC9156"/>
<path d="M212.514 138.645C212.514 136.938 211.072 135.568 209.339 135.688C207.854 135.789 206.661 137.009 206.589 138.496C206.561 139.064 206.693 139.599 206.943 140.06L209.236 144.252C209.339 144.441 209.61 144.445 209.718 144.258L212.078 140.194C212.355 139.743 212.514 139.213 212.514 138.645Z" fill="#C16772"/>
<path d="M209.55 135.684V144.386C209.617 144.369 209.678 144.327 209.718 144.259L212.078 140.194C212.354 139.743 212.514 139.213 212.514 138.646C212.515 137.008 211.187 135.685 209.55 135.684Z" fill="#B25464"/>
<path d="M211.031 138.645C211.031 139.464 210.368 140.127 209.549 140.127C208.73 140.127 208.066 139.464 208.066 138.645C208.066 137.827 208.73 137.163 209.549 137.163C210.368 137.163 211.031 137.827 211.031 138.645Z" fill="#DDA76C"/>
<path d="M211.031 138.645C211.031 137.827 210.368 137.163 209.549 137.163V140.127C210.368 140.127 211.031 139.464 211.031 138.645Z" fill="#CC9156"/>
<path d="M83.6132 158.041C83.6132 156.838 82.5969 155.873 81.3767 155.957C80.3306 156.029 79.4898 156.888 79.4382 157.935C79.4183 158.335 79.5117 158.712 79.6884 159.037L81.3032 161.991C81.376 162.124 81.5667 162.126 81.6429 161.995L83.3053 159.132C83.5006 158.815 83.6132 158.441 83.6132 158.041Z" fill="#C16772"/>
<path d="M81.5254 155.955V162.086C81.5724 162.073 81.6161 162.043 81.6439 161.996L83.3063 159.132C83.5017 158.814 83.6142 158.441 83.6142 158.041C83.6135 156.887 82.6787 155.955 81.5254 155.955Z" fill="#B25464"/>
<path d="M81.5255 159.084C82.1021 159.084 82.5696 158.617 82.5696 158.04C82.5696 157.464 82.1021 156.996 81.5255 156.996C80.9489 156.996 80.4814 157.464 80.4814 158.04C80.4814 158.617 80.9489 159.084 81.5255 159.084Z" fill="#DDA76C"/>
<path d="M82.5695 158.04C82.5695 157.464 82.102 156.996 81.5254 156.996V159.085C82.102 159.085 82.5695 158.617 82.5695 158.04Z" fill="#CC9156"/>
<path d="M178.508 118.393C178.508 117.191 177.492 116.226 176.272 116.31C175.225 116.382 174.385 117.241 174.334 118.288C174.314 118.688 174.407 119.065 174.584 119.39L176.199 122.343C176.272 122.476 176.462 122.479 176.538 122.348L178.201 119.484C178.395 119.167 178.508 118.794 178.508 118.393Z" fill="#C16772"/>
<path d="M176.42 116.308V122.438C176.467 122.426 176.511 122.396 176.538 122.348L178.201 119.485C178.396 119.167 178.508 118.794 178.508 118.394C178.508 117.24 177.573 116.308 176.42 116.308Z" fill="#B25464"/>
<path d="M177.464 118.393C177.464 118.97 176.997 119.437 176.42 119.437C175.843 119.437 175.376 118.97 175.376 118.393C175.376 117.816 175.843 117.349 176.42 117.349C176.997 117.349 177.464 117.816 177.464 118.393Z" fill="#DDA76C"/>
<path d="M177.464 118.393C177.464 117.816 176.997 117.349 176.42 117.349V119.438C176.997 119.438 177.464 118.97 177.464 118.393Z" fill="#CC9156"/>
<path opacity="0.4" d="M146.259 207.785C169.072 207.785 187.566 189.291 187.566 166.478C187.566 143.664 169.072 125.17 146.259 125.17C123.445 125.17 104.951 143.664 104.951 166.478C104.951 189.291 123.445 207.785 146.259 207.785Z" fill="#6E83DB"/>
<path d="M146.739 211.386C121.976 211.386 101.83 191.24 101.83 166.478C101.83 141.715 121.976 121.57 146.739 121.57C171.5 121.57 191.646 141.715 191.646 166.478C191.646 191.241 171.501 211.386 146.739 211.386ZM146.739 128.771C125.947 128.771 109.031 145.687 109.031 166.478C109.031 187.269 125.947 204.185 146.739 204.185C167.53 204.185 184.445 187.269 184.445 166.478C184.445 145.687 167.53 128.771 146.739 128.771Z" fill="#57517C"/>
<path d="M176.286 195.389L173.878 197.66L192.905 217.829L195.313 215.558L176.286 195.389Z" fill="#CE8DAE"/>
<path d="M231.293 260.414C230.15 260.414 229.009 259.96 228.163 259.063L190.98 219.648C189.35 217.92 189.429 215.196 191.159 213.565C192.886 211.935 195.61 212.013 197.242 213.743L234.424 253.157C236.054 254.886 235.975 257.61 234.246 259.24C233.414 260.025 232.353 260.414 231.293 260.414Z" fill="#618D8E"/>
<path d="M146.738 121.569C146.45 121.569 146.164 121.586 145.877 121.591V128.793C146.164 128.786 146.45 128.771 146.738 128.771C167.53 128.771 184.445 145.686 184.445 166.478C184.445 187.269 167.53 204.184 146.738 204.184C146.45 204.184 146.164 204.169 145.877 204.163V211.364C146.165 211.369 146.45 211.386 146.738 211.386C171.5 211.386 191.646 191.24 191.646 166.478C191.646 141.715 171.501 121.569 146.738 121.569Z" fill="#404060"/>
<defs>
<linearGradient id="paint0_linear_2516_1666" x1="35" y1="68.5003" x2="238.5" y2="204" gradientUnits="userSpaceOnUse">
<stop stop-color="#5CC131"/>
<stop offset="1" stop-color="#57AEE4"/>
</linearGradient>
</defs>
</svg>
