<svg width="261" height="248" viewBox="0 0 261 248" fill="none" xmlns="http://www.w3.org/2000/svg">
<path d="M160.866 48.9882C174.394 48.9882 185.36 38.0218 185.36 24.4942C185.36 10.9665 174.394 0.000183105 160.866 0.000183105C147.338 0.000183105 136.372 10.9665 136.372 24.4942C136.372 38.0218 147.338 48.9882 160.866 48.9882Z" fill="#FFB300"/>
<path d="M160.343 0.00701904C147.057 0.285861 136.372 11.1421 136.372 24.4942C136.372 37.8469 147.057 48.7025 160.343 48.9813V0.00701904Z" fill="#FFC44D"/>
<path d="M109.03 55.5625H24.5102C23.7594 46.2489 38.9827 44.9783 44.5104 48.4064C45.2178 43.3605 50.0544 41.7421 54.496 43.7903C50.4518 30.7456 67.599 23.0852 75.9717 25.8481C84.1557 28.5484 89.1686 36.7248 87.3254 45.0466C90.2194 44.0536 96.3626 43.2344 96.1434 47.9872C98.6741 46.0123 103.678 45.5428 105.681 47.1947C107.927 49.0479 111.033 53.5348 109.03 55.5625Z" fill="#FFD384"/>
<path d="M260.455 57.1951H188.845C188.208 49.3043 201.107 48.2274 205.79 51.132C206.39 46.8568 210.488 45.4856 214.251 47.2213C210.824 36.1695 225.352 29.6792 232.446 32.0198C239.38 34.3077 243.627 41.2353 242.066 48.2858C244.518 47.4449 249.723 46.7506 249.537 50.7774C251.681 49.1043 255.92 48.7062 257.617 50.106C259.521 51.676 262.152 55.4773 260.455 57.1951Z" fill="#FFD384"/>
<path d="M20.4019 126.612C19.8815 126.615 19.4505 125.989 19.5058 125.242C20.2703 113.25 30.1229 103.814 42.1286 103.559C42.8856 103.541 43.4886 103.994 43.465 104.512C43.4303 105.371 43.4011 106.225 43.3713 107.08C43.3464 107.6 42.8322 108.003 42.2286 108.017C32.53 108.219 24.5715 115.844 23.9474 125.523C23.912 126.125 23.4872 126.627 22.9655 126.627C22.1147 126.624 21.2571 126.619 20.4019 126.612Z" fill="#8798F0"/>
<path d="M11.1924 126.035C10.6682 126.038 10.2447 125.182 10.3087 124.147C11.3625 107.659 24.9128 94.6717 41.4346 94.3307C42.4717 94.3065 43.3045 94.7667 43.2828 95.284C43.2524 96.1441 43.2194 96.9968 43.1896 97.8501C43.1642 98.3767 42.4134 98.763 41.5296 98.7835C27.3205 99.0816 15.6656 110.252 14.7602 124.438C14.6987 125.318 14.2758 126.046 13.7541 126.051C12.8983 126.045 12.0413 126.039 11.1924 126.035Z" fill="#8798F0"/>
<path d="M0.869211 126.52C0.347547 126.525 -0.08034 125.38 0.0128143 123.993C1.42441 101.899 19.5839 84.4985 41.718 84.0345C43.1116 84.0054 44.2363 84.4786 44.212 84.9984C44.1829 85.8573 44.1481 86.7062 44.1176 87.5608C44.0959 88.0837 43.0563 88.4588 41.8186 88.4873C21.991 88.9084 5.72628 104.494 4.45751 124.281C4.38113 125.516 3.96007 126.535 3.43965 126.539C2.58015 126.535 1.72313 126.529 0.869211 126.52Z" fill="#8798F0"/>
<path d="M40.9412 116.797C43.0894 118.99 43.0533 122.509 40.8605 124.656C38.6683 126.804 35.1495 126.768 33.0014 124.575C30.8532 122.383 30.8893 118.864 33.0821 116.716C35.2743 114.568 38.7931 114.604 40.9412 116.797Z" fill="#8798F0"/>
<path d="M128.829 168.737C128.123 157.661 122.806 149.466 115.016 142.702C111.149 139.345 106.296 138.614 106.267 132.423C106.247 128.192 108.838 124.299 109.093 120.014C109.692 109.926 104.477 106.287 97.2705 102.039C91.4024 98.5808 85.6572 95.1981 87.9178 86.744C89.4859 80.8791 93.5722 76.9734 91.5166 70.2632C88.5674 60.6385 71.8462 60.8043 68.9485 70.265C66.8935 76.9734 70.9798 80.8791 72.5479 86.744C74.8085 95.1987 69.064 98.5815 63.1953 102.039C55.9888 106.287 50.7734 109.926 51.3727 120.014C51.6274 124.299 54.2195 128.192 54.199 132.423C54.1698 138.614 49.3159 139.345 45.4494 142.702C37.6592 149.466 32.3426 157.661 31.6364 168.737C28.9635 210.668 77.1659 216.769 104.528 209.064C119.469 204.857 129.884 185.288 128.829 168.737Z" fill="#33A685"/>
<path d="M222.808 168.737C222.102 157.661 216.786 149.466 208.995 142.702C205.129 139.345 200.276 138.614 200.246 132.423C200.226 128.192 202.818 124.299 203.072 120.014C203.671 109.926 198.456 106.287 191.249 102.039C185.381 98.5808 179.636 95.1981 181.897 86.744C183.465 80.8791 187.551 76.9734 185.496 70.2632C182.546 60.6385 165.825 60.8043 162.927 70.265C160.872 76.9734 164.959 80.8791 166.527 86.744C168.787 95.1987 163.042 98.5815 157.174 102.039C149.968 106.287 144.752 109.926 145.352 120.014C145.606 124.299 148.199 128.192 148.178 132.423C148.149 138.614 143.295 139.345 139.428 142.702C131.638 149.466 126.322 157.661 125.615 168.737C122.943 210.668 171.145 216.769 198.507 209.064C213.448 204.857 223.863 185.288 222.808 168.737Z" fill="#33A685"/>
<path d="M180.134 162.826C179.428 151.75 174.112 143.555 166.322 136.791C162.455 133.433 157.602 132.703 157.572 126.511C157.552 122.281 160.144 118.388 160.398 114.103C160.997 104.015 155.782 100.375 148.576 96.1283C142.708 92.6698 136.962 89.287 139.223 80.833C140.791 74.968 144.877 71.0623 142.822 64.3521C139.872 54.7274 123.151 54.8932 120.254 64.354C118.199 71.0623 122.285 74.968 123.853 80.8324C126.114 89.287 120.369 92.6698 114.5 96.1277C107.294 100.375 102.079 104.015 102.678 114.103C102.933 118.387 105.525 122.28 105.504 126.511C105.475 132.702 100.621 133.433 96.7545 136.79C88.9644 143.554 83.6477 151.749 82.9416 162.826C80.2687 204.756 128.471 210.858 155.834 203.152C170.774 198.945 181.189 179.377 180.134 162.826Z" fill="#268D6F"/>
<path d="M181.44 222.195C179.921 223.715 178.977 225.808 178.977 228.114C178.977 232.723 182.748 236.494 187.359 236.494H218.459C219.168 236.778 219.806 237.204 220.339 237.737C221.352 238.751 221.981 240.149 221.981 241.686C221.981 244.761 219.464 247.276 216.39 247.276H63.1597C61.6226 247.276 60.2247 246.647 59.2112 245.634C58.1977 244.621 57.5692 243.223 57.5692 241.686C57.5692 239.34 59.0329 237.321 61.0916 236.494H86.9364C89.2423 236.494 91.3364 235.551 92.8554 234.033C94.3751 232.513 95.3178 230.418 95.3178 228.114C95.3178 225.817 94.3446 223.591 92.6741 222.018C90.6228 220.086 88.3753 219.828 85.6881 219.811C77.362 219.76 69.0359 219.708 60.7097 219.657C58.23 219.657 55.9762 218.642 54.3417 217.007C52.7071 215.373 51.6924 213.12 51.6924 210.639C51.6924 205.681 55.7496 201.622 60.7097 201.622H215.892C218.371 201.622 220.625 202.637 222.26 204.271C223.894 205.906 224.909 208.159 224.909 210.639C224.909 215.598 220.852 219.657 215.892 219.657C209.521 219.657 203.15 219.685 196.78 219.708C191.947 219.725 185.231 218.402 181.44 222.195Z" fill="#8BCE99"/>
<path d="M186.116 170.521H79.0985C71.381 170.521 65.0664 164.206 65.0664 156.488C65.0664 148.771 71.381 142.456 79.0985 142.456H186.116C193.834 142.456 200.148 148.771 200.148 156.488C200.148 164.206 193.834 170.521 186.116 170.521Z" fill="#D86721"/>
<path d="M175.856 220.106H166.703V211.716C166.703 210.71 165.88 209.886 164.872 209.886H159.533C158.527 209.886 157.703 210.709 157.703 211.716V226.207C157.703 227.214 158.527 228.038 159.533 228.038H163.041H164.872H175.855C176.861 228.038 177.685 227.214 177.685 226.207V221.936C177.687 220.93 176.862 220.106 175.856 220.106Z" fill="#D86721"/>
<path d="M177.229 230.174H158.161C157.155 230.174 156.331 229.351 156.331 228.343V228.038C156.331 227.032 157.155 226.208 158.161 226.208H177.229C178.235 226.208 179.059 227.032 179.059 228.038V228.343C179.059 229.35 178.235 230.174 177.229 230.174Z" fill="#FFD384"/>
<path d="M158.653 221.174H149.5V212.785C149.5 211.778 148.677 210.954 147.67 210.954H142.331C141.324 210.954 140.501 211.777 140.501 212.785V227.276C140.501 228.282 141.324 229.106 142.331 229.106H145.839H147.67H158.653C159.66 229.106 160.483 228.282 160.483 227.276V223.004C160.484 221.998 159.66 221.174 158.653 221.174Z" fill="#D86721"/>
<path d="M160.026 231.242H140.958C139.951 231.242 139.128 230.418 139.128 229.411V229.106C139.128 228.099 139.951 227.276 140.958 227.276H160.026C161.032 227.276 161.856 228.099 161.856 229.106V229.411C161.856 230.418 161.032 231.242 160.026 231.242Z" fill="#FFD384"/>
<path d="M87.8469 217.982C86.8235 217.982 85.9863 217.145 85.9863 216.122V187.782C85.9863 186.759 86.8235 185.922 87.8469 185.922C88.8704 185.922 89.7075 186.759 89.7075 187.782V216.122C89.7075 217.144 88.8704 217.982 87.8469 217.982Z" fill="#352A38"/>
<path d="M178.877 217.982C177.854 217.982 177.017 217.144 177.017 216.121V187.782C177.017 186.758 177.854 185.921 178.877 185.921C179.901 185.921 180.738 186.758 180.738 187.782V216.121C180.738 217.144 179.901 217.982 178.877 217.982Z" fill="#352A38"/>
<path d="M197.412 190.928H81.247C79.2938 190.928 77.6953 188.766 77.6953 186.123C77.6953 183.481 79.2938 181.319 81.247 181.319H197.412C199.365 181.319 200.963 183.481 200.963 186.123C200.963 188.766 199.365 190.928 197.412 190.928Z" fill="#D86721"/>
<path d="M140.764 120.561C136.89 116.078 128.55 117.321 123.264 117.321C118.741 117.321 112.872 116.944 108.623 118.678C103.42 120.802 104.588 128.061 104.526 132.43C104.406 140.998 104.292 149.566 104.187 158.134C104.144 161.722 102.988 167.073 108.328 167.54C109.341 167.629 110.412 167.54 111.429 167.54C120.787 167.54 130.295 168.012 139.638 167.54C143.875 167.326 144.33 164.506 144.242 161.393C144.119 157.091 143.997 152.79 143.875 148.489C143.732 143.483 143.59 138.476 143.448 133.47C143.334 129.476 143.677 124.441 141.061 120.931C140.966 120.803 140.867 120.68 140.764 120.561Z" fill="#FFB300"/>
<path d="M124.87 125.265C122.652 125.265 120.837 123.21 120.837 120.698V104.343C120.837 101.831 122.652 99.7753 124.87 99.7753C127.089 99.7753 128.904 101.831 128.904 104.343V120.698C128.904 123.21 127.089 125.265 124.87 125.265Z" fill="#DA8B55"/>
<path d="M114.181 103.747H115.027C116.298 103.747 117.339 102.707 117.339 101.435V97.4067C117.339 96.1355 116.298 95.0953 115.027 95.0953H114.181C112.909 95.0953 111.869 96.1355 111.869 97.4067V101.436C111.869 102.707 112.909 103.747 114.181 103.747Z" fill="#CC7B45"/>
<path d="M125.638 89.7097L131.059 92.5478C131.477 92.7664 132.016 92.6353 132.257 92.2565L132.492 91.8882C132.734 91.5094 132.589 91.02 132.171 90.8014L126.75 87.9633C126.332 87.7447 125.793 87.8758 125.552 88.2546L125.317 88.6229C125.076 89.0017 125.22 89.4904 125.638 89.7097Z" fill="#D39933"/>
<path d="M135.95 103.898H136.797C138.068 103.898 139.108 102.858 139.108 101.586V97.5577C139.108 96.2865 138.068 95.2463 136.797 95.2463H135.95C134.679 95.2463 133.639 96.2865 133.639 97.5577V101.587C133.639 102.858 134.679 103.898 135.95 103.898Z" fill="#CC7B45"/>
<path d="M134.527 92.7842V105.926C134.527 110.225 130.645 113.746 125.898 113.746H124.136C119.397 113.746 115.515 110.225 115.515 105.926V92.7842C115.515 91.277 115.993 89.8604 116.818 88.6668C118.347 86.4485 121.059 84.9655 124.136 84.9655H125.898C129.029 84.9655 131.788 86.4963 133.297 88.7817C134.082 89.9505 134.527 91.3186 134.527 92.7842Z" fill="#DA8B55"/>
<path d="M108.747 166.211C108.84 174.569 116.336 181.319 125.574 181.319C134.812 181.319 142.308 174.569 142.401 166.211H108.747Z" fill="#3F3E5E"/>
<path d="M119.061 103.209C119.337 106.112 122.019 108.392 125.292 108.392C128.565 108.392 131.246 106.112 131.523 103.209H119.061Z" fill="#F8F8F8"/>
<path d="M147.565 216.284C146.773 216.909 145.765 217.266 144.679 217.228C142.245 217.142 140.343 215.098 140.429 212.666L141.52 181.978L122.462 181.298C120.03 181.212 118.127 179.169 118.214 176.735C118.299 174.301 120.342 172.4 122.777 172.487L146.24 173.323C148.673 173.409 150.575 175.453 150.489 177.885L149.241 212.979C149.193 214.325 148.546 215.51 147.565 216.284Z" fill="#5A5389"/>
<path d="M165.026 216.284C164.234 216.909 163.226 217.266 162.14 217.228C159.706 217.142 157.804 215.098 157.89 212.666L158.981 181.978L139.923 181.298C137.491 181.212 135.588 179.169 135.675 176.735C135.76 174.301 137.803 172.4 140.238 172.487L163.701 173.323C166.134 173.409 168.036 175.453 167.95 177.885L166.702 212.979C166.653 214.325 166.006 215.51 165.026 216.284Z" fill="#5A5389"/>
<path d="M127.527 172.964C126.682 173.044 125.805 172.883 125.004 172.447L102.058 159.947C100.652 159.18 99.7719 157.712 99.7589 156.111L99.508 125.433C99.4881 122.998 101.458 121.003 103.881 120.989C106.316 120.969 108.305 122.927 108.325 125.361L108.554 153.445L129.222 164.703C131.36 165.868 132.149 168.545 130.984 170.684C130.257 172.021 128.937 172.83 127.527 172.964Z" fill="#FB8D1E"/>
<path d="M126.716 164.626L123.436 166.786L128.225 175.569L133.868 178.596L136.149 176.931L131.746 172.551L129.933 167.789L132.501 169.181L134.841 172.411L136.256 171.791L133.06 166.853L126.716 164.626Z" fill="#DE8950"/>
<path d="M148.287 155.17L134.92 124.332C134.061 122.353 134.979 120.032 136.958 119.174C138.938 118.316 141.258 119.233 142.117 121.213L155.483 152.051C156.341 154.03 155.423 156.351 153.444 157.209C151.466 158.067 149.145 157.15 148.287 155.17Z" fill="#FFB300"/>
<path d="M149.452 156.758L130.883 138.188C129.499 136.803 129.499 134.538 130.883 133.154L131.395 132.642C132.779 131.257 135.045 131.257 136.429 132.642L154.999 151.211C156.383 152.596 156.383 154.862 154.999 156.246L154.487 156.758C153.102 158.142 150.837 158.142 149.452 156.758Z" fill="#FB8D1E"/>
<path d="M133.69 137.514L137.617 137.431L138.236 127.446L135.07 121.881L132.251 122.076L133.649 128.128L132.65 133.125L131.216 130.579L130.954 126.6L129.426 126.371L129.504 132.252L133.69 137.514Z" fill="#DE8950"/>
<path d="M115.446 97.0208C118.524 96.9711 118.434 91.3409 119.609 89.5269C122.247 92.65 129.747 93.8722 133.552 93.1015C136.405 92.524 139.597 91.4856 141.329 89.0536C143.227 86.3888 143.441 82.9794 140.189 81.1498C136.122 78.8613 130.462 83.2619 126.345 83.7948C122.481 84.2953 115.445 81.1579 113.059 85.3194C110.974 88.9561 114.966 92.5358 115.446 97.0208Z" fill="#3F3E5E"/>
<path d="M132.101 89.1833C131.716 91.791 131.174 97.8379 135.003 98.3987C134.902 95.7233 134.906 90.8719 135.775 88.448" fill="#3F3E5E"/>
<path d="M171.522 178.597H121.456C119.986 178.597 118.783 177.394 118.783 175.924C118.783 174.454 119.986 173.251 121.456 173.251H171.522C172.992 173.251 174.195 174.454 174.195 175.924C174.195 177.394 172.992 178.597 171.522 178.597Z" fill="#BCB7B1"/>
<path d="M171.114 176.17H132.507C130.813 176.17 129.426 174.784 129.426 173.089V141.273C129.426 139.578 130.813 138.191 132.507 138.191H171.114C172.809 138.191 174.196 139.578 174.196 141.273V173.089C174.196 174.784 172.809 176.17 171.114 176.17Z" fill="white"/>
<path opacity="0.54" d="M104.053 79.7009C106.446 79.7009 108.386 77.7609 108.386 75.3679C108.386 72.9749 106.446 71.035 104.053 71.035C101.66 71.035 99.7197 72.9749 99.7197 75.3679C99.7197 77.7609 101.66 79.7009 104.053 79.7009Z" fill="#A4B5FF"/>
<path d="M111.98 17.8354C114.904 16.6242 116.293 13.2717 115.081 10.3475C113.87 7.42329 110.518 6.03468 107.594 7.24595C104.669 8.45722 103.281 11.8097 104.492 14.7339C105.703 17.6581 109.056 19.0467 111.98 17.8354Z" fill="#A4B5FF"/>
<path d="M164.583 217.345H159.641C158.233 217.345 157.081 216.193 157.081 214.785V213.257C157.081 211.849 158.233 210.697 159.641 210.697H164.583C165.991 210.697 167.143 211.849 167.143 213.257V214.785C167.143 216.193 165.991 217.345 164.583 217.345Z" fill="#8AADFF"/>
<path d="M147.673 217.345H142.731C141.323 217.345 140.171 216.193 140.171 214.785V213.257C140.171 211.849 141.323 210.697 142.731 210.697H147.673C149.081 210.697 150.233 211.849 150.233 213.257V214.785C150.233 216.193 149.081 217.345 147.673 217.345Z" fill="#8AADFF"/>
<path d="M39.491 247.277C42.5323 247.277 44.9977 244.811 44.9977 241.77C44.9977 238.729 42.5323 236.264 39.491 236.264C36.4498 236.264 33.9844 238.729 33.9844 241.77C33.9844 244.811 36.4498 247.277 39.491 247.277Z" fill="#8BCE99"/>
<path d="M237.113 247.277C240.154 247.277 242.62 244.811 242.62 241.77C242.62 238.729 240.154 236.264 237.113 236.264C234.072 236.264 231.606 238.729 231.606 241.77C231.606 244.811 234.072 247.277 237.113 247.277Z" fill="#8BCE99"/>
<path d="M19.8369 140.187L22.1067 136.037L24.3766 140.187L28.5269 142.456L24.3766 144.727L22.1067 148.877L19.8369 144.727L15.6865 142.456L19.8369 140.187Z" fill="#8798F0"/>
<path d="M8.03217 42.0996L10.302 37.9493L12.5719 42.0996L16.7222 44.3695L12.5719 46.6393L10.302 50.7897L8.03217 46.6393L3.88184 44.3695L8.03217 42.0996Z" fill="#8798F0"/>
<path d="M248.756 179.049L251.026 174.899L253.296 179.049L257.446 181.319L253.296 183.59L251.026 187.739L248.756 183.59L244.605 181.319L248.756 179.049Z" fill="#8798F0"/>
<path opacity="0.29" d="M11.0531 193.717C17.1575 193.717 22.1061 188.769 22.1061 182.664C22.1061 176.56 17.1575 171.611 11.0531 171.611C4.94863 171.611 0 176.56 0 182.664C0 188.769 4.94863 193.717 11.0531 193.717Z" fill="#A4B5FF"/>
<path d="M246.629 155.435C250.213 155.435 253.118 152.53 253.118 148.946C253.118 145.362 250.213 142.457 246.629 142.457C243.045 142.457 240.14 145.362 240.14 148.946C240.14 152.53 243.045 155.435 246.629 155.435Z" fill="#A4B5FF"/>
<path d="M259.107 203.204C260.152 203.204 261 202.356 261 201.311C261 200.265 260.152 199.418 259.107 199.418C258.061 199.418 257.214 200.265 257.214 201.311C257.214 202.356 258.061 203.204 259.107 203.204Z" fill="#A4B5FF"/>
<path d="M11.4822 157.795C12.1339 157.795 12.6622 157.267 12.6622 156.615C12.6622 155.963 12.1339 155.435 11.4822 155.435C10.8305 155.435 10.3022 155.963 10.3022 156.615C10.3022 157.267 10.8305 157.795 11.4822 157.795Z" fill="#A4B5FF"/>
<path opacity="0.54" d="M48.7047 26.9695C49.4593 23.7738 47.4804 20.5714 44.2847 19.8168C41.0889 19.0622 37.8866 21.0411 37.132 24.2369C36.3774 27.4326 38.3563 30.635 41.552 31.3896C44.7477 32.1442 47.9501 30.1653 48.7047 26.9695Z" fill="#A4B5FF"/>
<path d="M26.0432 72.0963C26.0432 73.9029 24.5781 75.3679 22.7716 75.3679C20.965 75.3679 19.5 73.9029 19.5 72.0963C19.5 70.2897 20.9644 68.8247 22.7716 68.8247C24.5788 68.8247 26.0432 70.2891 26.0432 72.0963Z" fill="#A4B5FF"/>
<path opacity="0.73" d="M213.303 21.3832C213.303 23.101 211.91 24.4939 210.192 24.4939C208.474 24.4939 207.081 23.101 207.081 21.3832C207.081 19.6654 208.473 18.2725 210.192 18.2725C211.91 18.2731 213.303 19.6654 213.303 21.3832Z" fill="#A4B5FF"/>
<path d="M227.648 210.953C226.505 210.953 225.569 210.018 225.569 208.875V127.882C225.569 126.739 226.505 125.804 227.648 125.804C228.791 125.804 229.727 126.739 229.727 127.882V208.875C229.727 210.018 228.791 210.953 227.648 210.953Z" fill="#BCB7B1"/>
<path d="M254.133 129.697H199.423C197.729 129.697 196.342 128.311 196.342 126.616V71.9063C196.342 70.2115 197.729 68.8247 199.423 68.8247H254.133C255.828 68.8247 257.214 70.2115 257.214 71.9063V126.616C257.214 128.311 255.828 129.697 254.133 129.697Z" fill="#8798F0"/>
<path d="M254.133 68.8247H227.158V129.698H254.133C255.827 129.698 257.214 128.311 257.214 126.616V71.9069C257.214 70.2115 255.827 68.8247 254.133 68.8247Z" fill="#6E83DB"/>
<path d="M214.48 109.286C214.171 109.008 214.254 108.408 214.689 107.998C221.6 101.353 232.49 101.099 239.705 107.404C240.161 107.801 240.272 108.391 239.979 108.684C239.496 109.171 239.019 109.657 238.541 110.144C238.246 110.436 237.726 110.397 237.363 110.081C231.536 104.985 222.739 105.192 217.156 110.551C216.811 110.886 216.291 110.953 215.983 110.673C215.483 110.214 214.98 109.75 214.48 109.286Z" fill="white"/>
<path d="M209.363 103.995C209.053 103.715 209.264 102.984 209.859 102.409C219.362 93.2752 234.345 92.92 244.268 101.602C244.892 102.145 245.136 102.864 244.844 103.156C244.362 103.646 243.884 104.13 243.407 104.616C243.108 104.913 242.457 104.736 241.925 104.273C233.389 96.8089 220.502 97.115 212.327 104.974C211.816 105.459 211.175 105.66 210.865 105.383C210.363 104.918 209.861 104.454 209.363 103.995Z" fill="white"/>
<path d="M203.016 98.7306C202.706 98.453 203.07 97.5494 203.873 96.783C216.607 84.5438 236.684 84.0693 249.981 95.6968C250.818 96.429 251.226 97.3121 250.932 97.6046C250.452 98.094 249.974 98.5747 249.496 99.0616C249.201 99.3572 248.386 99.0193 247.641 98.3704C235.727 87.9582 217.745 88.383 206.337 99.3423C205.628 100.027 204.83 100.401 204.521 100.124C204.017 99.659 203.515 99.1951 203.016 98.7306Z" fill="white"/>
<path d="M231.875 114.554C231.96 116.999 230.043 119.049 227.594 119.134C225.145 119.219 223.09 117.306 223.005 114.862C222.92 112.417 224.836 110.366 227.285 110.281C229.735 110.196 231.79 112.109 231.875 114.554Z" fill="white"/>
<path d="M239.105 215.205H217.376C215.682 215.205 214.295 213.819 214.295 212.124V209.093C214.295 207.398 215.682 206.012 217.376 206.012H239.105C240.8 206.012 242.187 207.398 242.187 209.093V212.124C242.187 213.818 240.8 215.205 239.105 215.205Z" fill="#FFD384"/>
</svg>
