<svg width="333" height="306" viewBox="0 0 333 306" fill="none" xmlns="http://www.w3.org/2000/svg">
<path d="M74.5 90.5V103.5H244V90.5" stroke="white" stroke-dasharray="2 2"/>
<path d="M118 62.5V80H209.5V62.5" stroke="white" stroke-dasharray="2 2"/>
<rect x="182" y="87" width="14" height="4" fill="#E1A148"/>
<rect x="184" y="91" width="10" height="16" fill="#E1A148"/>
<path d="M125 118.5L165.5 78L207.5 118.5H125Z" fill="#E1A148"/>
<path d="M132 115.5L165.5 82L200 115.5H132Z" fill="#FECC91"/>
<path d="M60.1071 121.93H32.6071C21.4072 118.33 26.9405 111.763 31.1071 108.93C28.7071 103.73 34.4405 101.43 37.6071 100.93C45.2071 89.7301 51.4405 96.9301 53.6071 101.93C60.0071 101.13 60.6071 106.263 60.1071 108.93C69.3071 113.73 63.9405 119.597 60.1071 121.93Z" fill="#62BECD"/>
<path d="M90.1071 87.9301H62.6071C51.4072 84.3301 56.9405 77.7634 61.1071 74.9301C58.7071 69.7301 64.4405 67.4301 67.6071 66.9301C75.2071 55.7301 81.4405 62.9301 83.6071 67.9301C90.0071 67.1301 90.6071 72.2634 90.1071 74.9301C99.3071 79.7301 93.9405 85.5967 90.1071 87.9301Z" fill="#62BECD"/>
<path d="M135.107 59.9301H107.607C96.4072 56.3301 101.94 49.7634 106.107 46.9301C103.707 41.7301 109.44 39.4301 112.607 38.9301C120.207 27.7301 126.44 34.9301 128.607 39.9301C135.007 39.1301 135.607 44.2634 135.107 46.9301C144.307 51.7301 138.94 57.5967 135.107 59.9301Z" fill="#62BECD"/>
<path d="M181.107 38.9301H153.607C142.407 35.3301 147.94 28.7634 152.107 25.9301C149.707 20.7301 155.44 18.4301 158.607 17.9301C166.207 6.73008 172.44 13.9301 174.607 18.9301C181.007 18.1301 181.607 23.2634 181.107 25.9301C190.307 30.7301 184.94 36.5967 181.107 38.9301Z" fill="#62BECD"/>
<path d="M228.107 59.9301H200.607C189.407 56.3301 194.94 49.7634 199.107 46.9301C196.707 41.7301 202.44 39.4301 205.607 38.9301C213.207 27.7301 219.44 34.9301 221.607 39.9301C228.007 39.1301 228.607 44.2634 228.107 46.9301C237.307 51.7301 231.94 57.5967 228.107 59.9301Z" fill="#62BECD"/>
<path d="M259.107 87.9301H231.607C220.407 84.3301 225.94 77.7634 230.107 74.9301C227.707 69.7301 233.44 67.4301 236.607 66.9301C244.207 55.7301 250.44 62.9301 252.607 67.9301C259.007 67.1301 259.607 72.2634 259.107 74.9301C268.307 79.7301 262.94 85.5967 259.107 87.9301Z" fill="#62BECD"/>
<path d="M303.107 121.93H275.607C264.407 118.33 269.94 111.763 274.107 108.93C271.707 103.73 277.44 101.43 280.607 100.93C288.207 89.7301 294.44 96.9301 296.607 101.93C303.007 101.13 303.607 106.263 303.107 108.93C312.307 113.73 306.94 119.597 303.107 121.93Z" fill="#62BECD"/>
<rect x="134" y="118" width="64" height="34" fill="#F6B968"/>
<path d="M175.5 107.523H156.5H156C156.5 103.69 159.067 97.4824 165.5 97.0229C172.5 96.5229 174.833 104.356 175.5 107.523Z" fill="#B1DCDB" stroke="#E0A051"/>
<rect x="159" y="127" width="13" height="25" fill="#768869"/>
<path d="M155 126H138V142H155V126Z" fill="#A4DEEB" stroke="#E1A148"/>
<path d="M194 126H177V142H194V126Z" fill="#A4DEEB" stroke="#E1A148"/>
<path d="M134.5 152H197.5L199.5 152.5V155L203.5 156.5V159.5H131V156L133.5 155V152H134.5Z" fill="#BCE4E5" stroke="#11100E"/>
<path d="M133.5 155H199.5" stroke="#11100E"/>
<ellipse cx="245" cy="145.5" rx="12" ry="14.5" fill="#B0AF32"/>
<path d="M240 142.647L244.122 146.586L248.408 141.401" stroke="#F9B867"/>
<path d="M240.284 150.746L244.406 154.684L248.692 149.5" stroke="#F9B867"/>
<path d="M244.284 141L244.784 176" stroke="#F9B867"/>
<ellipse cx="78" cy="145.5" rx="12" ry="14.5" fill="#B0AF32"/>
<path d="M73 142.647L77.1219 146.586L81.4082 141.401" stroke="#F9B867"/>
<path d="M73.2837 150.746L77.4056 154.684L81.6919 149.5" stroke="#F9B867"/>
<path d="M77.2837 141L77.7837 176" stroke="#F9B867"/>
<path d="M107.092 148.132L108.997 145.559L109.016 146.059L110.589 148.001L111.055 160.493L107.557 160.623L107.092 148.132Z" fill="#E09D4B"/>
<path d="M113.088 147.908L114.993 145.335L115.012 145.835L116.585 147.778L117.051 160.269L113.554 160.399L113.088 147.908Z" fill="#E09D4B"/>
<path d="M119.083 147.685L120.989 145.112L121.007 145.611L122.581 147.554L123.047 160.045L119.549 160.176L119.083 147.685Z" fill="#E09D4B"/>
<rect x="105.298" y="153.702" width="19" height="3" transform="rotate(-2.13536 105.298 153.702)" fill="#E09D4B"/>
<path d="M210.852 147.073L213.109 144.802L213.055 145.299L214.332 147.449L212.991 159.877L209.511 159.501L210.852 147.073Z" fill="#E09D4B"/>
<path d="M216.818 147.717L219.074 145.446L219.021 145.943L220.298 148.092L218.957 160.52L215.477 160.145L216.818 147.717Z" fill="#E09D4B"/>
<path d="M222.783 148.36L225.04 146.089L224.986 146.586L226.263 148.736L224.922 161.164L221.443 160.788L222.783 148.36Z" fill="#E09D4B"/>
<rect x="208.274" y="152.327" width="19" height="3" transform="rotate(6.15675 208.274 152.327)" fill="#E09D4B"/>
<path d="M166.5 42.5V76" stroke="white" stroke-dasharray="2 2"/>
<path d="M44.5 124.5V146.5H63" stroke="white" stroke-dasharray="2 2"/>
<path d="M289 125V147.5H260.5" stroke="white" stroke-dasharray="2 2"/>
<rect x="121" y="182" width="91" height="62" rx="4" fill="#637886"/>
<rect x="128" y="188" width="75" height="51" rx="4" fill="#5D646A"/>
<rect x="163" y="197" width="13" height="10" fill="#DF9F4E"/>
<rect x="138" y="208" width="13" height="10" fill="#DF9F4E"/>
<ellipse cx="191" cy="201" rx="8" ry="7" fill="#ABB22E"/>
<ellipse cx="134.5" cy="227" rx="3.5" ry="3" fill="#ABB22E"/>
<ellipse cx="142.5" cy="227" rx="3.5" ry="3" fill="white"/>
<ellipse cx="150.5" cy="227" rx="3.5" ry="3" fill="#B22E4E"/>
<ellipse cx="158.5" cy="227" rx="3.5" ry="3" fill="#5CC0D1"/>
<path d="M170.5 217L178.727 228.25H162.273L170.5 217Z" fill="#5CC0D1"/>
<path d="M144.5 197L152.727 208.25H136.273L144.5 197Z" fill="#DF9F4E"/>
<path d="M191.5 217L193.184 221.491H198.633L194.225 224.267L195.908 228.759L191.5 225.983L187.092 228.759L188.775 224.267L184.367 221.491H189.816L191.5 217Z" fill="#E19E4F"/>
<path d="M119.638 210H121.638L121.138 222.5L119.138 225.5C117.938 229.5 121.971 230.833 124.138 231L134.138 224.5C140.138 222.5 139.304 226.667 138.138 229L131.138 234L123.138 244V251.5H109.138V233C108.738 230.2 109.304 226.833 109.638 225.5L119.638 210Z" fill="#FECC8F"/>
<path d="M168 226.848L174.5 258.848L169.5 249.848C164.3 244.648 163 249.348 163 252.348L173 270.348L180 269.848L179.5 273.348L199 268.848L197 264.848C199.8 264.048 200.5 260.514 200.5 258.848L195.5 235.848C194.3 231.448 190.333 232.348 188.5 233.348C186.9 230.148 183.5 232.014 182 233.348C178.8 229.348 176.667 232.681 176 234.848L174.5 225.848C170.5 220.248 168.5 224.181 168 226.848Z" fill="#FECB8F"/>
<path d="M177.5 243.848L176 234.848M176 234.848L174.5 225.848C170.5 220.248 168.5 224.181 168 226.848L174.5 258.848L169.5 249.848C164.3 244.648 163 249.348 163 252.348L173 270.348L180 269.848L179.5 273.348L199 268.848L197 264.848C199.8 264.048 200.5 260.514 200.5 258.848L195.5 235.848C194.3 231.448 190.333 232.348 188.5 233.348M176 234.848C176.667 232.681 178.8 229.348 182 233.348M182 233.348L184 242.848M182 233.348C183.5 232.014 186.9 230.148 188.5 233.348M188.5 233.348L191.5 245.848" stroke="#FECC8F"/>
<rect x="104" y="251" width="25" height="7" fill="#DDF1F9"/>
<rect x="101" y="257" width="31" height="16" fill="#637987"/>
<rect x="176.941" y="272.498" width="25" height="7" transform="rotate(-11.3242 176.941 272.498)" fill="#DDF1F9"/>
<rect x="175.178" y="278.97" width="31" height="16" transform="rotate(-11.3242 175.178 278.97)" fill="#637987"/>
</svg>
