<svg width="14" height="10" viewBox="0 0 14 10" fill="none" xmlns="http://www.w3.org/2000/svg">
<path d="M13.9945 0.833333C14.0018 0.775267 14.0018 0.7164 13.9945 0.658333C13.9877 0.609407 13.9746 0.561728 13.9556 0.516666C13.9351 0.475939 13.9117 0.436939 13.8856 0.4C13.8561 0.347294 13.8194 0.299558 13.7768 0.258333L13.6835 0.2C13.6386 0.16413 13.5888 0.136012 13.5358 0.116667L13.3803 0.116667C13.333 0.0674958 13.2776 0.0279646 13.2171 0L9.33011 0C9.12393 6.58672e-09 8.9262 0.0877975 8.78041 0.244078C8.63462 0.400358 8.55272 0.612319 8.55272 0.833333C8.55272 1.05435 8.63462 1.26631 8.78041 1.42259C8.9262 1.57887 9.12393 1.66667 9.33011 1.66667L11.5301 1.66667L8.42056 5.59167L5.06221 3.45C4.90314 3.34858 4.71554 3.31133 4.53313 3.34493C4.35073 3.37854 4.1855 3.4808 4.06714 3.63333L0.180169 8.63333C0.114711 8.71754 0.0653933 8.81476 0.0350403 8.91943C0.00468728 9.0241 -0.00610435 9.13416 0.00328337 9.24331C0.0126711 9.35246 0.0420538 9.45854 0.0897485 9.5555C0.137443 9.65246 0.202513 9.73837 0.281231 9.80833C0.421094 9.93257 0.597124 10.0004 0.778764 10C0.892971 10.0002 1.00582 9.97342 1.10928 9.92157C1.21273 9.86972 1.30427 9.79407 1.37736 9.7L4.83677 5.25L8.15624 7.38333C8.31369 7.48344 8.49904 7.52077 8.67965 7.48876C8.86026 7.45675 9.02453 7.35744 9.14354 7.20833L12.4397 3.08333L12.4397 5C12.4397 5.22101 12.5216 5.43297 12.6674 5.58925C12.8132 5.74553 13.0109 5.83333 13.2171 5.83333C13.4233 5.83333 13.621 5.74553 13.7668 5.58925C13.9126 5.43297 13.9945 5.22101 13.9945 5L13.9945 0.833333Z" fill="#B71C1C"/>
</svg>
