<svg width="114" height="82" viewBox="0 0 114 82" fill="none" xmlns="http://www.w3.org/2000/svg">
<g id="icons8-rupee 1" opacity="0.27">
<path id="Vector" d="M102.75 67.5C102.75 98.5612 77.5612 123.75 46.5 123.75C15.4388 123.75 -9.75 98.5612 -9.75 67.5C-9.75 36.4388 15.4388 11.25 46.5 11.25C77.5612 11.25 102.75 36.4388 102.75 67.5Z" fill="#FFB300"/>
<path id="Vector_2" d="M32.4375 36.5625H69V45H32.4375V36.5625ZM24 50.625H69V59.0625H24V50.625Z" fill="white"/>
<path id="Vector_3" d="M36.4903 75.9375H36.6563C46.8403 75.9375 57.75 68.0259 57.75 56.25C57.75 44.4741 46.8403 36.5625 36.6563 36.5625H24V45H36.6563C41.9634 45 49.3125 48.9122 49.3125 56.25C49.3125 63.5878 41.9634 67.5 36.6563 67.5H24V76.5084L53.6972 101.25H66.8709L36.4903 75.9375Z" fill="white"/>
</g>
</svg>
