<svg width="81" height="46" viewBox="0 0 81 46" fill="none" xmlns="http://www.w3.org/2000/svg">
<g opacity="0.25">
<path fill-rule="evenodd" clip-rule="evenodd" d="M39.4798 3.67188C29.3825 3.67188 30.5353 18.3829 23.246 22.8675C13.5978 28.803 -3 25.8641 -3 36.0501C-3 53.9322 16.0186 71.2036 39.4802 71.2036C62.9414 71.2036 78.4847 50.5399 78.4847 32.6578C78.4847 14.7756 62.9409 3.67188 39.4798 3.67188Z" fill="#EDE4F1"/>
<path fill-rule="evenodd" clip-rule="evenodd" d="M38.739 0C34.9159 0 31.8157 3.10013 31.8157 6.92324C31.8157 10.7468 34.9154 13.847 38.739 13.847C42.5626 13.847 45.6622 10.7468 45.6622 6.92324C45.6622 3.09965 42.5626 0 38.739 0Z" fill="#2B2870"/>
<path fill-rule="evenodd" clip-rule="evenodd" d="M38.739 0.71875C35.3112 0.71875 32.532 3.49745 32.532 6.92573C32.532 10.3535 35.3107 13.1322 38.739 13.1322C42.1672 13.1322 44.9459 10.3535 44.9459 6.92573C44.9459 3.49793 42.1672 0.71875 38.739 0.71875Z" fill="#D7CCE5"/>
<path fill-rule="evenodd" clip-rule="evenodd" d="M40.5064 8.46298C40.3658 8.34352 40.279 7.93765 40.2685 7.5788C40.2862 7.44591 40.2982 7.27848 40.3054 7.0789C40.9982 6.35592 41.0217 5.92607 40.3769 5.78742C40.2728 5.87857 40.1692 6.11509 40.0665 6.49553C39.925 6.52048 39.8031 6.47058 39.7009 6.34873C39.7451 5.73321 39.7532 5.23955 39.7268 4.86823C39.201 4.35969 38.2497 4.47387 37.0479 4.89749C37.0609 5.23907 37.0882 5.59696 37.1299 5.97308C36.9544 6.22111 37.1419 6.96137 37.5257 7.77886C37.5296 8.28931 37.8884 8.49128 38.6028 8.38622L38.5462 8.56564C38.3231 8.59683 38.0971 8.63377 37.8673 8.67551C36.6828 11.0766 38.9554 12.051 41.131 8.58148C40.9593 8.55077 40.7506 8.51191 40.5064 8.46298Z" fill="#F9B08C"/>
<path fill-rule="evenodd" clip-rule="evenodd" d="M36.9011 5.44789C37.9767 5.39176 38.7649 4.50039 39.7426 5.32364C39.7685 5.69592 39.7455 5.72711 39.7014 6.34262C39.8035 6.46448 39.9254 6.51437 40.0669 6.48991C40.1696 6.10899 40.2732 5.87247 40.3773 5.78132C41.0221 5.91996 40.9986 6.34982 40.3058 7.0728C40.2987 7.27237 40.2867 7.43933 40.2689 7.5727C40.2795 7.93155 40.3663 8.33741 40.5069 8.45687C40.7511 8.50581 40.9593 8.54467 41.131 8.57489C41.4246 8.63966 41.7038 8.7169 41.9639 8.80469C42.6029 9.02154 43.1272 9.30842 43.4655 9.66488C43.5609 9.96088 43.6507 10.2737 43.7351 10.6033C43.9668 10.2895 44.1693 9.9532 44.3396 9.59867C43.9419 8.77974 42.5338 8.86849 42.4364 7.25174C42.244 4.06334 40.9252 3.70929 40.291 3.66035C39.5301 2.95752 37.507 2.44179 36.6247 3.36531C35.8413 4.18424 36.0716 5.40807 36.9011 5.44789ZM37.08 6.45536C37.1304 6.80222 37.2916 7.27285 37.5267 7.77179C37.53 8.28272 37.8889 8.48566 38.6027 8.38011L38.5466 8.55954C38.3235 8.59072 38.0976 8.62766 37.8678 8.6694C37.3122 8.76775 37.0052 8.95053 36.9107 9.07862C36.7183 9.18273 36.5542 9.28252 36.4141 9.37943C36.4568 9.11269 36.5777 8.85506 36.7279 8.60703C37.0848 8.01982 36.1354 8.43096 36.5518 7.51561C36.7907 6.9898 36.9236 6.78015 37.08 6.45536Z" fill="#071023"/>
<path fill-rule="evenodd" clip-rule="evenodd" d="M41.131 8.57812C38.9553 12.0477 36.6828 11.0733 37.8673 8.67216C37.2441 8.78202 36.9337 8.99934 36.8847 9.12504C35.552 10.5782 35.6988 11.53 36.0807 12.5332C36.8867 12.9155 37.7876 13.13 38.739 13.13C39.8112 13.13 40.8206 12.858 41.7009 12.3796C41.297 11.638 41.4251 8.92642 41.9638 8.8084C41.7033 8.72013 41.4246 8.64337 41.131 8.57812Z" fill="#9588C0"/>
<path fill-rule="evenodd" clip-rule="evenodd" d="M43.7351 10.6033C43.6507 10.2732 43.5605 9.9604 43.465 9.66488C43.1268 9.30842 42.6024 9.02153 41.9634 8.80469C41.4246 8.92271 41.2965 11.6342 41.7005 12.3759C42.5021 11.9398 43.1963 11.3325 43.7351 10.6033Z" fill="#F9B08C"/>
<path fill-rule="evenodd" clip-rule="evenodd" d="M36.0807 12.5304C35.6993 11.5277 35.5525 10.5759 36.8853 9.12226C36.8906 9.10835 36.8992 9.09348 36.9107 9.07812C35.9862 9.5785 35.7161 9.97861 35.5876 10.4224C35.4384 10.9343 35.3165 11.4697 35.2138 12.0286C35.4873 12.2181 35.7771 12.386 36.0807 12.5304Z" fill="#F9B08C"/>
<path fill-rule="evenodd" clip-rule="evenodd" d="M38.4531 8.84751L38.4905 8.73333C38.6944 8.61771 39.0681 8.37927 39.6107 8.01562C39.3012 8.18402 38.9649 8.30587 38.6027 8.38167L38.5466 8.5611C38.4343 8.57693 38.3206 8.5942 38.2069 8.61291C38.3259 8.66904 38.408 8.74676 38.4531 8.84751Z" fill="#ED7D57"/>
<path fill-rule="evenodd" clip-rule="evenodd" d="M41.348 12.5558C41.4679 12.5002 41.5855 12.4417 41.7006 12.3788C41.4506 11.9197 41.4046 10.7064 41.5336 9.82031C41.3696 10.8959 41.3077 11.8084 41.348 12.5558Z" fill="#6251A1"/>
<path fill-rule="evenodd" clip-rule="evenodd" d="M24.6195 15.6445C24.7759 15.2367 25.2341 15.0323 25.6423 15.1887C26.0506 15.3456 26.2545 15.8033 26.0981 16.212C25.3094 18.272 24.0246 19.9665 22.2452 21.2945C20.4966 22.5994 18.2763 23.5406 15.5868 24.1178C15.1603 24.2113 14.7391 23.9403 14.646 23.5142C14.553 23.0878 14.8236 22.6665 15.25 22.5735C17.7174 22.0438 19.7333 21.1951 21.2982 20.0274C22.8315 18.8832 23.9388 17.4219 24.6195 15.6445ZM21.1082 15.538C20.7067 16.4634 20.1382 17.1945 19.4027 17.7309C18.6567 18.2749 17.726 18.6295 16.6125 18.7945C16.1803 18.8588 15.8814 19.2613 15.9457 19.6935C16.01 20.1258 16.4125 20.4242 16.8442 20.3604C18.2149 20.157 19.3792 19.707 20.3344 19.0104C21.3006 18.3056 22.0423 17.3581 22.558 16.1698C22.7322 15.7687 22.5494 15.3029 22.1488 15.1283C21.7487 14.9541 21.2824 15.1379 21.1082 15.538Z" fill="#EDE4F1"/>
<path fill-rule="evenodd" clip-rule="evenodd" d="M68.7564 12.2031C64.9328 12.2031 61.8332 15.3033 61.8332 19.1268C61.8332 22.9504 64.9328 26.0501 68.7564 26.0501C72.58 26.0501 75.6797 22.9504 75.6797 19.1268C75.6797 15.3028 72.58 12.2031 68.7564 12.2031Z" fill="#2B2870"/>
<path fill-rule="evenodd" clip-rule="evenodd" d="M68.7564 12.9219C65.3281 12.9219 62.5494 15.7006 62.5494 19.1289C62.5494 22.5571 65.3281 25.3358 68.7564 25.3358C72.1842 25.3358 74.9634 22.5571 74.9634 19.1289C74.9634 15.7006 72.1847 12.9219 68.7564 12.9219Z" fill="#D7CCE5"/>
<path fill-rule="evenodd" clip-rule="evenodd" d="M70.0566 20.0391C70.4135 20.2449 70.5233 20.5826 70.7651 20.7083C71.4665 20.775 72.1583 20.8287 72.4879 21.0571C72.9657 21.6352 73.4095 22.1883 73.8192 22.7161C73.3865 23.3253 72.8463 23.8526 72.2269 24.2709C72.0178 24.0541 71.8239 23.8435 71.645 23.6391C71.681 23.9303 71.6704 24.2628 71.6138 24.6355C70.7589 25.0798 69.7874 25.3312 68.7569 25.3312C67.0495 25.3312 65.5033 24.6413 64.3811 23.5259C65.1367 22.4795 65.8089 21.6016 66.3975 20.8916C67.002 20.751 67.4534 20.6771 67.7509 20.6709C67.8785 20.5203 68.067 20.3917 68.317 20.2842C68.1711 21.0864 68.116 22.0482 68.1236 22.7276C69.2693 21.888 69.9136 20.7913 70.0566 20.0391Z" fill="#9588C0"/>
<path fill-rule="evenodd" clip-rule="evenodd" d="M67.7503 20.6757C67.6155 21.0711 67.544 21.3978 67.5349 21.6554C67.6889 21.5326 67.8031 21.4491 67.8765 21.4035C67.9326 22.0387 68.0151 22.482 68.1231 22.7324C68.1154 22.0526 68.1705 21.0912 68.3164 20.2891C68.0664 20.396 67.8779 20.5251 67.7503 20.6757Z" fill="#38308D"/>
<path fill-rule="evenodd" clip-rule="evenodd" d="M70.0564 20.0391C69.9135 20.7913 69.2692 21.888 68.123 22.7276C68.8076 22.4843 69.5565 21.8895 69.9854 21.0983C70.0564 21.366 70.1461 21.6788 70.2546 22.0377C70.553 21.6683 70.7228 21.2255 70.765 20.7083C70.5232 20.5826 70.4134 20.2444 70.0564 20.0391Z" fill="#38308D"/>
<path fill-rule="evenodd" clip-rule="evenodd" d="M68.2992 19.8155C68.373 20.0923 68.3654 20.3274 68.2766 20.5216C68.1605 21.271 68.1164 22.1149 68.1231 22.7285C69.2169 21.9268 69.854 20.8915 70.0339 20.1441C69.8886 19.9109 69.8296 19.6375 69.856 19.3261C69.8291 19.1803 69.9121 18.9087 70.1045 18.511C70.7593 18.3978 70.9219 17.848 70.6494 17.4119C70.3434 17.3035 70.1783 17.5539 70.0977 18.0073C69.9236 17.9814 69.9903 17.7026 70.008 17.5722C70.0901 17.1946 70.0215 16.9912 69.8838 16.6328C69.0979 17.186 68.4239 17.2032 67.3502 16.8914C67.3814 17.1495 67.4044 17.3971 67.4193 17.6369C67.1247 18.3541 67.5747 19.5732 68.2992 19.8155Z" fill="#FAB688"/>
<path fill-rule="evenodd" clip-rule="evenodd" d="M67.3498 16.8968C68.423 17.2086 69.097 17.1914 69.8833 16.6382C70.021 16.9961 70.0896 17.1995 70.0076 17.5775C69.9898 17.708 69.9231 17.9868 70.0973 18.0127C70.1779 17.5588 70.3429 17.3089 70.649 17.4173C70.9215 17.8534 70.7589 18.4032 70.104 18.5164C69.9116 18.9141 69.8286 19.1857 69.8555 19.3315C69.8291 19.6433 69.8886 19.9163 70.0335 20.1495C70.0416 20.1135 70.0493 20.079 70.056 20.0449C70.413 20.2507 70.5228 20.5884 70.7646 20.7141C71.466 20.7808 72.1578 20.8346 72.4874 21.0629C72.5824 21.1781 72.6764 21.2922 72.7685 21.405C72.9926 20.8792 73.1106 20.493 73.0708 20.3222C72.9196 19.6702 72.2326 19.9974 72.2446 19.6112C72.2629 19.0096 71.4137 18.5385 71.5269 17.9378C71.7577 16.7102 71.2789 16.3379 71.2755 16.2443C71.2472 15.3141 70.6907 15.2901 70.1366 14.9764C69.1531 14.4194 68.2987 15.1006 68.0195 15.1188C66.5985 15.2119 67.3858 15.8226 66.7491 16.3729C66.2252 16.8267 66.4733 17.1702 66.527 17.4423C66.551 17.5656 66.6652 18.0707 66.3025 18.3264C65.7709 18.7006 66.2569 19.4879 65.9436 19.5829C64.7361 19.9489 65.2806 20.3136 65.3132 21.1574C65.3238 21.4275 65.4509 21.6693 65.6208 21.8675C65.8942 21.5158 66.1523 21.1915 66.3965 20.8969C67.001 20.7564 67.4524 20.6825 67.7499 20.6762C67.8775 20.5256 68.066 20.397 68.316 20.2896C68.3016 20.3673 68.2886 20.4455 68.2757 20.5261C68.364 20.3318 68.3721 20.0967 68.2982 19.8199C67.5738 19.5776 67.1238 18.3586 67.4184 17.6418C67.404 17.4029 67.3814 17.1549 67.3498 16.8968Z" fill="#071023"/>
<path fill-rule="evenodd" clip-rule="evenodd" d="M68.2992 19.8183C68.7382 19.8677 68.9368 19.8648 69.3426 19.7031C69.1047 19.9598 68.7737 20.1008 68.3481 20.1253C68.3443 20.0294 68.328 19.9272 68.2992 19.8183Z" fill="#ED7D57"/>
<path fill-rule="evenodd" clip-rule="evenodd" d="M74.0768 27.0234C70.2532 27.0234 67.1536 30.1231 67.1536 33.9467C67.1536 37.7703 70.2532 40.8704 74.0768 40.8704C77.9004 40.8704 81 37.7703 81 33.9467C81 30.1231 77.9004 27.0234 74.0768 27.0234Z" fill="#2B2870"/>
<path fill-rule="evenodd" clip-rule="evenodd" d="M74.0768 27.7422C70.6485 27.7422 67.8698 30.5209 67.8698 33.9487C67.8698 37.377 70.6485 40.1557 74.0768 40.1557C77.5051 40.1557 80.2838 37.377 80.2838 33.9487C80.2838 30.5209 77.5046 27.7422 74.0768 27.7422Z" fill="#D7CCE5"/>
<path fill-rule="evenodd" clip-rule="evenodd" d="M73.9981 39.3275C74.6439 39.4748 75.21 39.6782 75.6964 39.9368C75.1798 40.0759 74.6372 40.1508 74.0768 40.1508C72.6635 40.1508 71.361 39.6782 70.3175 38.8828C71.726 38.9629 72.9528 39.1107 73.9981 39.3275Z" fill="#C6BCDD"/>
<path fill-rule="evenodd" clip-rule="evenodd" d="M76.5144 39.6533C76.5499 39.1304 76.596 38.6368 76.6531 38.1719C76.5437 38.7356 76.4482 39.2494 76.3662 39.7143C76.4161 39.6946 76.4655 39.6744 76.5144 39.6533Z" fill="#6251A1"/>
<path fill-rule="evenodd" clip-rule="evenodd" d="M71.3042 39.4988C71.4117 38.5969 71.5834 37.5765 71.9327 36.4141C71.4616 36.6511 70.9396 37.4863 70.3658 38.9203C70.6599 39.14 70.9737 39.3333 71.3042 39.4988Z" fill="#9588C0"/>
<path fill-rule="evenodd" clip-rule="evenodd" d="M71.9328 36.4152C71.5836 37.5777 71.4113 38.5986 71.3044 39.5C72.1391 39.9174 73.0804 40.152 74.0768 40.152C74.8852 40.152 75.6581 39.9975 76.3662 39.7159C76.4482 39.2515 76.5442 38.7372 76.6531 38.1735C76.596 38.6379 76.5499 39.132 76.5144 39.655C77.3228 39.3091 78.0434 38.7967 78.632 38.1605C78.5543 37.6266 78.4401 37.0725 78.2895 36.4968C77.8764 35.97 76.9543 35.7738 75.5233 35.9081C74.0308 37.1675 73.3476 37.2284 73.4747 36.0895C72.8237 36.1067 72.3094 36.2156 71.9328 36.4152Z" fill="#9588C0"/>
<path fill-rule="evenodd" clip-rule="evenodd" d="M71.8873 36.439C71.5136 37.2138 71.2708 38.3259 71.0837 39.3827C71.1566 39.423 71.23 39.4614 71.3044 39.4988C71.4119 38.5969 71.5836 37.5765 71.9329 36.4141C71.918 36.4217 71.9026 36.4304 71.8873 36.439Z" fill="#6251A1"/>
<path fill-rule="evenodd" clip-rule="evenodd" d="M74.9744 33.6609C74.8281 33.0555 74.8003 32.367 74.6007 32.1008C72.9864 31.5327 72.806 32.426 72.094 32.5968C72.0864 32.818 72.154 33.066 72.297 33.3404C72.2432 34.3182 72.473 34.9231 72.9864 35.1529C73.1159 35.2896 73.3294 35.3702 73.6268 35.3937C73.598 35.5185 73.5117 35.9718 73.4747 36.0875C73.3476 37.2264 74.0308 37.165 75.5233 35.9061L75.5295 35.9052C75.5204 35.5051 75.4868 35.1975 75.4931 34.8958C75.4978 34.69 75.5055 34.5077 75.5175 34.3484C76.0519 33.7914 76.158 33.3404 75.8346 32.9945C75.411 32.7945 75.1659 33.0785 75.0982 33.848C74.973 33.7986 75.0603 33.8403 74.9744 33.6609Z" fill="#FAB688"/>
<path fill-rule="evenodd" clip-rule="evenodd" d="M72.0939 32.5972C72.8059 32.4269 72.9863 31.5331 74.6006 32.1012C74.7997 32.3674 74.8275 33.0559 74.9743 33.6613C75.0602 33.8407 74.9724 33.799 75.0986 33.8479C75.1662 33.0789 75.4114 32.7944 75.835 32.9944C76.1583 33.3403 76.0523 33.7913 75.5179 34.3483C75.5059 34.5076 75.4982 34.6904 75.4934 34.8957C76.9974 33.5097 76.6933 31.6281 75.7774 31.0088C76.0005 31.0323 76.2279 31.1186 76.4591 31.2683C76.1252 30.8212 75.6767 30.6662 75.112 30.8025C75.1729 30.4863 75.1614 30.2532 75.077 30.1016C75.0516 30.3155 75.0089 30.4806 74.9494 30.5971C74.5872 30.2661 73.8911 30.1894 73.1782 30.4571C72.2561 30.8039 71.3028 31.6521 70.9401 31.3993C70.9953 32.2691 71.489 32.7973 72.0939 32.5972Z" fill="#071023"/>
<path fill-rule="evenodd" clip-rule="evenodd" d="M74.5776 35.125C74.3099 35.2977 73.9927 35.3889 73.6267 35.3989C73.6109 35.468 73.5773 35.6388 73.5437 35.7971C74.0057 35.6724 74.3506 35.4488 74.5776 35.125Z" fill="#ED7D57"/>
<path fill-rule="evenodd" clip-rule="evenodd" d="M61.2008 27.0938L58.0134 30.2692L58.8395 30.5105L57.5533 32.2357L58.3876 32.512L56.3419 35.2399L59.5294 32.0639L58.7032 31.8231L59.9899 30.097L59.1552 29.8216L61.2008 27.0938Z" fill="#9588C0"/>
<path fill-rule="evenodd" clip-rule="evenodd" d="M42.6681 16.7422L39.4806 19.9172L40.3068 20.158L39.0206 21.8841L39.8548 22.16L37.8092 24.8878L40.9966 21.7119L40.1705 21.4711L41.4567 19.7454L40.6224 19.4696L42.6681 16.7422Z" fill="#9588C0"/>
<path fill-rule="evenodd" clip-rule="evenodd" d="M65.0331 29.375L61.8452 32.5509L62.6713 32.7918L61.3851 34.5174L62.2198 34.7933L60.1742 37.5216L63.3616 34.3457L62.5355 34.1048L63.8217 32.3787L62.9874 32.1033L65.0331 29.375Z" fill="#9588C0"/>
<path fill-rule="evenodd" clip-rule="evenodd" d="M46.4999 19.0234L43.3124 22.1989L44.1386 22.4397L42.8524 24.1659L43.6866 24.4412L41.6415 27.1696L44.8289 23.9936L44.0028 23.7528L45.289 22.0271L44.4542 21.7518L46.4999 19.0234Z" fill="#9588C0"/>
<path fill-rule="evenodd" clip-rule="evenodd" d="M57.6827 25.3594L54.4953 28.5353L55.3214 28.7761L54.0352 30.5018L54.8695 30.7776L52.8243 33.505L56.0118 30.33L55.1857 30.0892L56.4714 28.3631L55.6371 28.0872L57.6827 25.3594Z" fill="#9588C0"/>
<path fill-rule="evenodd" clip-rule="evenodd" d="M39.1501 15.0078L35.9622 18.1833L36.7883 18.4241L35.5026 20.1502L36.3369 20.4256L34.2913 23.1535L37.4787 19.978L36.6526 19.7372L37.9388 18.0115L37.1045 17.7352L39.1501 15.0078Z" fill="#9588C0"/>
<path fill-rule="evenodd" clip-rule="evenodd" d="M54.9775 3.82031C58.8011 3.82031 61.9007 6.91996 61.9007 10.7436C61.9007 14.5671 58.8011 17.6668 54.9775 17.6668C51.1539 17.6668 48.0543 14.5671 48.0543 10.7436C48.0547 6.91996 51.1539 3.82031 54.9775 3.82031Z" fill="#2B2870"/>
<path fill-rule="evenodd" clip-rule="evenodd" d="M54.978 4.53906C58.4058 4.53906 61.185 7.31776 61.185 10.7456C61.185 14.1738 58.4063 16.9525 54.978 16.9525C51.5498 16.9525 48.7711 14.1738 48.7711 10.7456C48.7706 7.31776 51.5498 4.53906 54.978 4.53906Z" fill="#D7CCE5"/>
<path fill-rule="evenodd" clip-rule="evenodd" d="M57.4813 12.1585C57.264 12.1743 56.9215 12.1326 56.8605 12.0558C56.6298 11.7622 56.4695 11.4561 56.41 11.2628C56.4551 11.1342 56.5026 10.9721 56.5516 10.7763C57.3892 10.2078 57.5034 9.78709 56.8951 9.51412C56.7723 9.58272 56.6207 9.79477 56.4384 10.1498C56.2935 10.1435 56.1831 10.0697 56.1083 9.92718C56.281 9.32846 56.3937 8.84247 56.4456 8.46827C56.033 7.85515 55.0682 7.76736 53.7906 7.93287C53.7316 8.27301 53.6827 8.6333 53.6448 9.01326C53.4188 9.22147 53.4481 9.99291 53.6563 10.8824C53.5522 11.388 53.8645 11.6643 54.5928 11.7099C54.6033 11.8898 54.5865 12.1091 54.575 12.1345C54.5568 12.1729 54.492 12.2103 54.4028 12.2429H54.4023C54.3778 13.0762 55.4045 13.0489 57.4813 12.1585Z" fill="#FAB688"/>
<path fill-rule="evenodd" clip-rule="evenodd" d="M53.7906 7.92685C55.0682 7.76133 56.0335 7.84913 56.4456 8.46225C56.3937 8.83549 56.281 9.32243 56.1083 9.92116C56.1831 10.0636 56.293 10.138 56.4384 10.1438C56.6202 9.78875 56.7723 9.5767 56.8946 9.5081C57.5029 9.78155 57.3887 10.2018 56.5511 10.7703C56.5022 10.9661 56.4547 11.1282 56.4096 11.2568C57.1628 11.0879 57.7932 10.4143 57.8814 10.1231C58.7603 8.39124 57.7802 7.65963 57.2559 7.39337C57.0241 5.67827 54.5338 7.19427 53.2864 6.36719C52.7913 7.05275 53.4044 7.9115 53.7906 7.92685Z" fill="#071023"/>
<path fill-rule="evenodd" clip-rule="evenodd" d="M60.0734 14.2897C60.0091 14.0848 59.9424 13.8862 59.8729 13.6953C59.5337 13.1733 58.7368 12.6605 57.4818 12.1562C55.405 13.0467 54.3783 13.074 54.4028 12.2397C53.7921 12.4398 52.9813 12.7953 51.9714 13.3043C51.5209 13.6463 51.1064 14.3012 50.7279 15.2684C51.8385 16.3118 53.3334 16.9518 54.9775 16.9518C57.0879 16.9518 58.9517 15.8992 60.0734 14.2897Z" fill="#9588C0"/>
<path fill-rule="evenodd" clip-rule="evenodd" d="M51.4039 15.8231L51.437 15.6484L51.3962 15.8178L51.4039 15.8231Z" fill="#C8252C"/>
<path fill-rule="evenodd" clip-rule="evenodd" d="M55.4328 11.5312C55.2285 11.632 54.9488 11.6905 54.5933 11.7073C54.6 11.8277 54.5952 11.9664 54.587 12.0523C54.9449 11.9832 55.2265 11.81 55.4328 11.5312Z" fill="#ED7D57"/>
<path fill-rule="evenodd" clip-rule="evenodd" d="M36.0198 35.4424L29.2904 31.5469L25.7695 37.6296C21.767 44.5428 24.1494 53.4738 31.0631 57.4763C37.9767 61.4788 46.9077 59.0969 50.9098 52.1828L54.4306 46.1005L47.7012 42.205L44.1803 48.2872C42.3204 51.5001 38.1705 52.6069 34.9581 50.7469C31.7457 48.8874 30.639 44.7375 32.4985 41.5247L36.0198 35.4424Z" fill="#9588C0"/>
<path fill-rule="evenodd" clip-rule="evenodd" d="M29.2904 31.5482L36.0199 35.4438L40.3621 27.9424L33.6326 24.0469L29.2904 31.5482ZM52.0444 34.705L47.7017 42.2063L54.4311 46.1018L58.7738 38.5995L52.0444 34.705Z" fill="#CCCED0"/>
<path fill-rule="evenodd" clip-rule="evenodd" d="M40.3624 27.9453L36.0198 35.4466L32.4984 41.5289C31.2367 43.7089 31.3403 46.3201 32.5411 48.3552C32.4562 47.0671 32.7373 45.742 33.4296 44.547L41.2135 31.1006L40.3624 27.9453Z" fill="#6251A1"/>
<path fill-rule="evenodd" clip-rule="evenodd" d="M50.9098 52.1861C46.9072 59.0998 37.9767 61.4817 31.0631 57.4796C28.2714 55.8638 26.2186 53.444 25.0264 50.6783C25.8007 54.6664 28.2234 58.3149 31.9938 60.4977C38.9074 64.5003 47.8384 62.1174 51.8405 55.2042L59.6244 41.7578L58.7733 38.6016L54.4306 46.1039L50.9098 52.1861Z" fill="#6251A1"/>
<path fill-rule="evenodd" clip-rule="evenodd" d="M54.4306 46.1034L58.7733 38.6016L59.6249 41.7573L55.2822 49.2592L54.4306 46.1034Z" fill="#A9ABB1"/>
<path fill-rule="evenodd" clip-rule="evenodd" d="M41.2135 31.1006L36.8708 38.6024L36.0198 35.4467L40.3625 27.9453L41.2135 31.1006Z" fill="#A9ABB1"/>
<path fill-rule="evenodd" clip-rule="evenodd" d="M26.9856 38.0625H13.2308C12.9597 38.0625 12.68 38.2846 12.6086 38.5557L10.1614 47.8743C10.0904 48.1454 10.254 48.367 10.525 48.367H24.2794C24.5504 48.367 24.8306 48.1454 24.9016 47.8743L27.3488 38.5557C27.4203 38.2846 27.2567 38.0625 26.9856 38.0625Z" fill="#CCCED0"/>
<path fill-rule="evenodd" clip-rule="evenodd" d="M12.315 38.3303L10.6531 44.6567C8.65784 43.6833 6.2543 42.1208 3.73322 40.1169C3.6651 39.2145 3.58162 38.4953 3.48136 37.9585C3.68333 37.557 3.90497 37.129 4.14629 36.6723C1.81999 36.6574 0.401373 36.157 -0.109558 35.1712C0.512675 33.35 1.38294 31.491 2.49979 29.5931C3.28178 28.4374 4.81217 27.7576 7.09194 27.5547C7.3582 30.6116 12.0477 30.4552 10.9448 27.8233C12.6465 28.2796 14.0876 29.1239 15.2688 30.355C16.2853 32.8583 16.9047 34.606 17.1283 35.5972C16.0248 36.3696 14.9795 36.87 13.9922 37.0978C13.9475 37.3152 13.9116 37.5613 13.8856 37.8376H12.9362C12.6661 37.8376 12.3864 38.0592 12.315 38.3303Z" fill="#9588C0"/>
<path fill-rule="evenodd" clip-rule="evenodd" d="M10.6536 44.6551L12.3154 38.3286C12.3865 38.0576 12.6661 37.8359 12.9372 37.8359H13.8866H26.6916C26.9626 37.8359 27.4457 38.1857 27.3651 38.4543C27.3781 38.2293 27.2231 38.0595 26.9857 38.0595H13.2308C12.9598 38.0595 12.6801 38.2816 12.6086 38.5527L10.1614 47.8713C10.1187 48.0339 10.1604 48.1788 10.2588 48.269C10.0323 48.1227 9.81644 47.8396 9.86682 47.6477L10.6536 44.6551Z" fill="#85868B"/>
<path fill-rule="evenodd" clip-rule="evenodd" d="M12.4502 41.8906C13.9245 42.6362 15.6689 42.8655 17.4622 42.9571C17.4425 43.0214 17.4272 43.0876 17.4161 43.1552C17.2967 43.9108 17.8292 44.5542 18.5992 44.5542C19.3241 44.5542 19.9818 43.9799 20.0945 43.2665C20.1065 43.1888 20.1123 43.1125 20.1109 43.0382C21.9728 43.0881 23.7718 43.1903 25.2595 43.7722L24.2362 47.6682H10.9328L12.4502 41.8906Z" fill="#A9ABB1"/>
<path fill-rule="evenodd" clip-rule="evenodd" d="M18.8967 42.3203C18.404 42.3203 17.941 42.7199 17.8628 43.2131C17.7846 43.7058 18.1209 44.1055 18.6141 44.1055C19.1073 44.1055 19.5702 43.7058 19.648 43.2131C19.7262 42.7199 19.3899 42.3203 18.8967 42.3203Z" fill="#8D8F94"/>
<path fill-rule="evenodd" clip-rule="evenodd" d="M3.07123 46.0958C3.34564 45.2596 3.54282 44.3912 3.66276 43.4922C5.51506 44.2094 7.63363 44.9007 10.3116 45.9595L9.94985 47.3369C5.9027 47.4688 3.60998 47.0553 3.07123 46.0958Z" fill="#9588C0"/>
<path fill-rule="evenodd" clip-rule="evenodd" d="M10.3116 45.9585C7.63361 44.9002 5.51504 44.2084 3.66273 43.4912C2.03063 42.8588 0.604341 42.2073 -0.816193 41.2675C-0.757184 39.4536 -0.487085 37.6987 0.26372 35.6641C0.953118 36.3232 2.24748 36.6591 4.1468 36.6715C3.59701 37.7107 3.14892 38.6068 2.80303 39.3596C5.65992 41.7286 8.41416 43.5631 10.6536 44.6555L10.3116 45.9585Z" fill="#FAB688"/>
<path fill-rule="evenodd" clip-rule="evenodd" d="M16.7729 35.8359C16.9792 36.557 17.1701 37.2229 17.3462 37.8346H13.8867C13.9126 37.5587 13.9481 37.3116 13.9932 37.0948C14.8731 36.8919 15.8 36.4721 16.7729 35.8359Z" fill="#FAB688"/>
<path fill-rule="evenodd" clip-rule="evenodd" d="M7.0963 27.587C7.46043 27.1231 7.78186 26.6923 7.87589 26.3862C7.80249 26.1766 7.72573 25.9122 7.64513 25.5927C6.27977 24.6649 6.09315 23.9793 7.08527 23.5341C7.28532 23.6464 7.53335 23.9918 7.82983 24.5699C8.06635 24.5608 8.24578 24.4394 8.36763 24.2072C8.08602 23.2314 7.90228 22.4384 7.81736 21.8286C8.48997 20.8288 10.0631 20.6859 12.1466 20.9559C12.243 21.5105 12.3222 22.0977 12.3841 22.7176C12.7525 23.0568 12.705 24.3147 12.3659 25.7649C12.5352 26.5891 12.0262 27.0396 10.8388 27.115C10.8215 27.4076 10.9362 27.7804 10.9453 27.824L10.9458 27.8245C10.9463 27.8269 10.9472 27.8298 10.9492 27.8331C12.0329 30.4468 7.3923 30.607 7.0963 27.587Z" fill="#FAB688"/>
<path fill-rule="evenodd" clip-rule="evenodd" d="M12.1471 20.9567C10.0635 20.6866 8.49043 20.8296 7.81782 21.8294C7.90274 22.4387 8.086 23.2322 8.36809 24.208C8.24624 24.4407 8.06633 24.5616 7.8303 24.5707C7.53381 23.9921 7.28578 23.6472 7.08573 23.5349C6.09361 23.9801 6.28023 24.6661 7.64559 25.5935C7.72571 25.913 7.80295 26.1773 7.87635 26.387C6.6482 26.1116 5.62058 25.0135 5.47617 24.538C4.04316 21.7142 5.64121 20.5216 6.4966 20.0865C6.87368 17.2905 10.9347 19.7622 12.9694 18.4141C13.7773 19.5309 12.777 20.9318 12.1471 20.9567Z" fill="#071023"/>
<path fill-rule="evenodd" clip-rule="evenodd" d="M9.29593 27.0781C9.87067 27.1247 10.385 27.1362 10.8393 27.1146C10.8273 27.3156 10.8781 27.555 10.9136 27.6989C10.1777 27.6802 9.63847 27.473 9.29593 27.0781Z" fill="#ED7D57"/>
<path fill-rule="evenodd" clip-rule="evenodd" d="M4.14682 36.6706C4.45242 36.118 4.77577 35.3748 5.11639 34.4403C4.93313 35.5279 4.94273 36.3113 4.64672 37.2056C4.88564 38.4707 4.98446 39.7607 4.96 41.0623C4.55509 40.7586 4.14587 40.4424 3.73328 40.1148C3.66516 39.2123 3.58168 38.4932 3.48141 37.9564C3.68387 37.5553 3.90551 37.1269 4.14682 36.6706ZM14.7042 36.8889C14.4638 36.9729 14.2268 37.0424 13.9932 37.0962C14.0819 35.7116 14.14 34.5679 14.1678 33.6641C14.4341 34.9987 14.613 36.0738 14.7042 36.8889ZM3.07123 46.0939C3.34564 45.2577 3.54282 44.3893 3.66276 43.4903C4.00578 43.6231 4.35791 43.7551 4.72108 43.8884C4.57572 44.8734 4.36703 45.8578 4.10317 46.8384C3.58504 46.6441 3.24106 46.3966 3.07123 46.0939Z" fill="#6251A1"/>
</g>
</svg>
