<svg width="20" height="20" viewBox="0 0 20 20" fill="none" xmlns="http://www.w3.org/2000/svg">
<g clip-path="url(#clip0_160_154)">
<path d="M11.0938 3.43757C11.3847 3.63082 11.3847 3.63082 11.6675 3.89289C11.775 3.99202 11.8825 4.09116 11.9933 4.1933C12.6388 4.81589 13.2752 5.44673 13.9062 6.08405C14.0422 6.22071 14.1782 6.35737 14.3182 6.49818C14.65 6.83178 14.9814 7.16575 15.3125 7.50007C15.3565 7.32263 15.3565 7.32263 15.4013 7.1416C15.4413 6.98657 15.4813 6.83155 15.5225 6.67182C15.5809 6.44121 15.5809 6.44121 15.6406 6.20593C15.8692 5.51578 16.0671 5.33754 16.7188 5.00007C17.4176 4.87631 18.0873 4.84263 18.7457 5.13862C19.371 5.60106 19.5697 6.12896 19.6875 6.87507C19.6289 7.41218 19.6289 7.41218 19.5312 7.81257C19.325 7.76101 19.1187 7.70944 18.9062 7.65632C18.8928 7.56024 18.8793 7.46417 18.8654 7.36518C18.7331 6.55254 18.7331 6.55254 18.2422 5.91804C17.7018 5.74609 17.4113 5.75104 16.875 5.93757C16.3922 6.55864 16.335 7.08773 16.2988 7.8614C16.2886 8.05737 16.2783 8.25335 16.2677 8.45527C16.2619 8.60411 16.256 8.75296 16.25 8.90632C15.9681 9.01007 15.9681 9.01007 15.625 9.06257C15.3771 8.90445 15.3771 8.90445 15.1361 8.65249C15.0449 8.55913 14.9536 8.46578 14.8595 8.36959C14.7627 8.26675 14.6658 8.1639 14.566 8.05793C14.4141 7.90209 14.4141 7.90209 14.2591 7.7431C13.9345 7.40998 13.6125 7.07445 13.291 6.73835C12.9699 6.4035 12.6483 6.06928 12.3247 5.73695C12.1231 5.52996 11.923 5.3215 11.7247 5.11146C11.1861 4.55722 11.1861 4.55722 10.5014 4.21996C10.1409 4.19175 10.1409 4.19175 9.80469 4.40436C9.49356 4.72661 9.38817 4.86473 9.375 5.31257C9.67041 5.87681 10.0102 6.29253 10.4706 6.72919C10.5889 6.8437 10.7072 6.9582 10.8292 7.07618C11.0784 7.3144 11.3283 7.55203 11.5787 7.78907C11.6964 7.90337 11.8141 8.01768 11.9354 8.13544C12.0437 8.23848 12.152 8.34152 12.2636 8.44768C12.5 8.75007 12.5 8.75007 12.5 9.37507C11.7274 9.3149 11.3619 8.93154 10.8606 8.38874C10.6973 8.21903 10.5339 8.04935 10.3705 7.87971C10.1163 7.61197 9.863 7.34351 9.61052 7.07419C9.36519 6.81372 9.11701 6.55624 8.86841 6.2989C8.79448 6.21817 8.72055 6.13744 8.64438 6.05426C8.09106 5.485 7.66275 5.3371 6.875 5.31257C6.54948 5.4558 6.54948 5.4558 6.40625 5.78132C6.31803 6.22222 6.31803 6.22222 6.40625 6.71882C6.69368 7.08063 6.95931 7.36714 7.29492 7.67707C7.38509 7.76443 7.47526 7.85179 7.56817 7.9418C7.8558 8.22007 8.14633 8.49504 8.4375 8.7696C8.72838 9.04554 9.01851 9.32213 9.30683 9.60074C9.48611 9.77384 9.66692 9.94539 9.84936 10.1152C10.0958 10.3523 10.0958 10.3523 10.4688 10.7813C10.4688 10.9876 10.4688 11.1938 10.4688 11.4063C9.74509 11.3335 9.45438 11.0827 8.96606 10.5567C8.83253 10.4169 8.69899 10.2771 8.5614 10.1331C8.28406 9.83669 8.00736 9.53966 7.73132 9.24201C7.53041 9.03234 7.53041 9.03234 7.32544 8.81843C7.20522 8.68932 7.085 8.56021 6.96114 8.42719C6.45641 8.04467 6.0968 7.98695 5.46875 7.96882C4.99721 8.22583 4.99721 8.22583 4.86328 8.56452C4.83494 9.06042 5.0344 9.27955 5.3125 9.68757C5.57252 9.96202 5.84117 10.2284 6.11572 10.4883C6.27165 10.6388 6.42749 10.7894 6.58325 10.94C6.82749 11.1745 7.07237 11.4083 7.31888 11.6404C7.55796 11.8663 7.79401 12.095 8.02979 12.3243C8.24256 12.5267 8.24256 12.5267 8.45963 12.7332C8.75 13.1251 8.75 13.1251 8.71689 13.5657C8.67625 13.6781 8.63562 13.7905 8.59375 13.9063C7.67203 13.6467 7.16066 12.963 6.53381 12.2831C6.0163 11.7381 6.0163 11.7381 5.34973 11.4112C4.9867 11.3811 4.9867 11.3811 4.63867 11.5723C4.33307 11.865 4.33307 11.865 4.32617 12.3218C4.3839 12.902 4.49246 13.0528 4.89258 13.4669C5.01746 13.5984 5.14233 13.7299 5.271 13.8654C5.68823 14.2861 6.1122 14.6998 6.53564 15.1142C6.66972 15.2462 6.8038 15.3782 6.94195 15.5142C7.21481 15.7819 7.48928 16.048 7.76539 16.3124C7.89232 16.4365 8.01925 16.5605 8.15002 16.6883C8.26545 16.7995 8.38087 16.9106 8.49979 17.0251C8.75 17.3438 8.75 17.3438 8.75 17.9688C7.93617 17.9172 7.52078 17.4505 6.98059 16.8964C6.8429 16.7585 6.8429 16.7585 6.70243 16.6178C6.50905 16.4235 6.31644 16.2284 6.12453 16.0327C5.83111 15.7335 5.53527 15.437 5.23895 15.1408C5.05112 14.9514 4.86343 14.7619 4.6759 14.5722C4.54358 14.4394 4.54358 14.4394 4.40858 14.3038C3.80457 13.6851 3.46715 13.295 3.38867 12.4317C3.46014 11.617 3.71281 11.2603 4.32617 10.7325C4.44541 10.6455 4.56465 10.5585 4.6875 10.4688C4.58438 10.3431 4.48125 10.2175 4.375 10.088C4.0225 9.55352 3.96173 9.10051 3.9917 8.46686C4.11754 7.85935 4.38118 7.59874 4.84375 7.18757C5.2832 7.05085 5.2832 7.05085 5.625 7.03132C5.57344 6.92819 5.52187 6.82507 5.46875 6.71882C5.40514 6.05727 5.42879 5.70071 5.74219 5.10749C6.24113 4.51153 6.24113 4.51153 6.71875 4.37507C7.38373 4.32757 7.86746 4.32274 8.4375 4.68757C8.52773 4.53933 8.61797 4.39108 8.71094 4.23835C9.32787 3.3815 10.0831 3.24478 11.0938 3.43757Z" fill="black"/>
<path d="M19.0625 8.4375C19.2172 8.4375 19.3719 8.4375 19.5312 8.4375C19.768 8.91092 19.7129 9.40252 19.7137 9.92188C19.7145 10.0977 19.7145 10.0977 19.7153 10.2771C19.7161 10.5262 19.7165 10.7752 19.7165 11.0242C19.7168 11.4004 19.7196 11.7765 19.7226 12.1527C19.7312 14.4726 19.5615 16.2567 17.8906 17.9883C16.3602 19.5142 14.7638 20.041 12.6461 20.0505C11.6541 20.0365 10.8733 19.8622 10 19.375C9.83887 19.2977 9.67773 19.2203 9.51172 19.1406C9.41504 19.0633 9.31836 18.9859 9.21875 18.9062C9.21875 18.7 9.21875 18.4937 9.21875 18.2812C9.81221 18.3421 10.2657 18.4825 10.791 18.75C12.1075 19.354 13.546 19.3576 14.9127 18.9172C16.4331 18.2812 17.7816 17.118 18.4857 15.6183C18.7714 14.8096 18.7796 14.0091 18.7939 13.1616C18.7968 13.0313 18.7997 12.901 18.8027 12.7667C18.8149 12.211 18.8256 11.6552 18.8363 11.0994C18.8443 10.693 18.8533 10.2867 18.8623 9.88037C18.8644 9.75375 18.8665 9.62713 18.8687 9.49668C18.8886 8.61139 18.8886 8.61139 19.0625 8.4375Z" fill="black"/>
<path d="M12.1875 0C13.6728 0.0471536 14.58 0.612036 15.5957 1.67969C16.1396 2.33767 16.5178 3.07418 16.7188 3.90625C16.6672 4.06094 16.6156 4.21562 16.5625 4.375C16.2769 4.35181 16.2769 4.35181 15.9375 4.21875C15.7153 3.83179 15.7153 3.83179 15.5078 3.33984C14.8267 1.906 13.9635 1.25532 12.4854 0.723267C12.3871 0.690839 12.2888 0.658411 12.1875 0.625C12.1875 0.41875 12.1875 0.2125 12.1875 0Z" fill="black"/>
<path d="M0.625 14.375C0.779687 14.4266 0.934375 14.4781 1.09375 14.5312C1.23779 14.8444 1.23779 14.8444 1.36719 15.2441C2.02879 16.9707 3.23827 17.6649 4.84375 18.4375C4.84375 18.5922 4.84375 18.7469 4.84375 18.9062C3.74726 19.0493 3.05059 18.6225 2.1875 17.9688C1.23235 17.1234 0.526809 16.1254 0.3125 14.8438C0.415625 14.6891 0.51875 14.5344 0.625 14.375Z" fill="black"/>
<path d="M14.375 10.1562C14.6328 10.2078 14.8906 10.2594 15.1563 10.3125C15.0789 10.5026 15.0016 10.6928 14.9219 10.8887C14.5079 12.1228 14.6089 13.424 14.8438 14.6875C14.6375 14.7391 14.4313 14.7906 14.2188 14.8438C13.6556 13.8347 13.6224 12.8578 13.75 11.7188C13.9114 11.1709 14.1175 10.6656 14.375 10.1562Z" fill="black"/>
<path d="M2.65625 14.2188C3.33058 14.4513 3.4482 14.8526 3.75 15.4688C4.13106 15.8129 4.53557 16.0344 5 16.25C5 16.4562 5 16.6625 5 16.875C4.12376 16.8392 3.69613 16.6225 3.04382 16.0419C2.67538 15.6268 2.50938 15.2908 2.4707 14.7363C2.5 14.375 2.5 14.375 2.65625 14.2188Z" fill="black"/>
<path d="M12.0312 2.03125C12.9075 2.06701 13.3351 2.28373 13.9874 2.86438C14.4618 3.39878 14.5706 3.82376 14.5312 4.53125C14.1699 4.51172 14.1699 4.51172 13.75 4.375C13.5832 4.06802 13.4273 3.75491 13.2812 3.4375C12.8576 3.05619 12.3667 2.78682 11.875 2.5C11.9266 2.34531 11.9781 2.19062 12.0312 2.03125Z" fill="black"/>
</g>
<defs>
<clipPath id="clip0_160_154">
<rect width="20" height="20" fill="white"/>
</clipPath>
</defs>
</svg>
