<?xml version="1.0" encoding="UTF-8"?>
<svg version="1.1" xmlns="http://www.w3.org/2000/svg" width="512" height="512">
<path d="M0 0 C1.04269043 -0.0038269 2.08538086 -0.00765381 3.15966797 -0.01159668 C5.35840829 -0.01431178 7.55718114 -0.00697885 9.75585938 0.00976562 C13.11401647 0.03117996 16.47003415 0.00994921 19.828125 -0.015625 C21.9687547 -0.01298165 24.10938308 -0.00785654 26.25 0 C27.25015137 -0.00809692 28.25030273 -0.01619385 29.28076172 -0.02453613 C35.19018613 0.05463053 38.64946299 0.55294502 43.125 4.53125 C46.24745923 9.91732574 46.63931475 14.82809598 46.8125 20.96875 C46.84666016 21.79568359 46.88082031 22.62261719 46.91601562 23.47460938 C46.99768621 25.49303944 47.06303724 27.51211884 47.125 29.53125 C48.15238281 30.02753906 49.17976563 30.52382813 50.23828125 31.03515625 C57.75139931 34.70538894 64.96427306 38.46205881 71.890625 43.18359375 C74.81892237 44.98102 74.81892237 44.98102 78.125 45.53125 C81.13818607 44.15008334 81.13818607 44.15008334 84.1875 42.15625 C89.90823561 38.60642395 94.26815545 36.64312537 101.125 37.53125 C110.46762588 41.82885791 115.38165726 53.99010427 120.41357422 62.56884766 C121.13909393 63.79587269 121.87419697 65.01728049 122.61865234 66.23291016 C127.19183519 73.710275 131.05943167 80.50583857 129.125 89.53125 C125.54538029 96.53331532 117.93367872 100.1778738 111.125 103.53125 C110.465 103.53125 109.805 103.53125 109.125 103.53125 C109.29 104.211875 109.455 104.8925 109.625 105.59375 C110.19576972 108.94702212 110.15700115 112.13512785 110.125 115.53125 C110.81768982 115.52680878 111.51037964 115.52236755 112.22406006 115.51779175 C119.42637064 115.4735827 126.62864274 115.4433936 133.83105469 115.42138672 C136.51990375 115.41245097 139.2086587 115.39852762 141.89746094 115.38037109 C145.75979313 115.35614244 149.62198075 115.34477125 153.484375 115.3359375 C154.6886615 115.32561493 155.892948 115.31529236 157.13372803 115.30465698 C158.25458801 115.30450592 159.375448 115.30435486 160.53027344 115.30419922 C162.00920074 115.29753738 162.00920074 115.29753738 163.51800537 115.29074097 C166.23303674 115.54121696 167.84799373 116.05455914 170.125 117.53125 C171.33547233 119.95219466 171.24817555 121.47069319 171.24525452 124.17556763 C171.24731651 125.64375443 171.24731651 125.64375443 171.24942017 127.14160156 C171.24582489 128.21909668 171.24222961 129.2965918 171.23852539 130.40673828 C171.23867142 131.53844452 171.23881744 132.67015076 171.2389679 133.83615112 C171.23826907 137.59130749 171.23047807 141.34641476 171.22265625 145.1015625 C171.22079196 147.69945244 171.21936811 150.29734274 171.21836853 152.89523315 C171.21493546 159.04338783 171.2070473 165.19152213 171.19701904 171.33966911 C171.18585067 178.33837068 171.18034562 185.33707308 171.17532361 192.33578134 C171.1648645 206.73428042 171.14726956 221.13276458 171.125 235.53125 C172.27750244 235.65822266 173.43000488 235.78519531 174.61743164 235.91601562 C176.15252897 236.08964528 177.68760261 236.26348454 179.22265625 236.4375 C179.97953735 236.52032227 180.73641846 236.60314453 181.51623535 236.68847656 C197.06119038 238.46744038 197.06119038 238.46744038 201.125 242.53125 C201.57215147 246.10349344 201.47015385 247.96270978 199.5859375 251.06640625 C198.89757812 251.90042969 198.20921875 252.73445312 197.5 253.59375 C192.90034389 259.53565451 190.02855083 265.61332018 187.125 272.53125 C187.90359375 272.66402344 188.6821875 272.79679687 189.484375 272.93359375 C192.125 273.53125 192.125 273.53125 194.375 275.09375 C197.71601399 276.84018913 199.84090939 276.71664526 203.5390625 276.55078125 C206.4511391 276.52878671 209.18002711 276.9399074 212.0625 277.34375 C218.5181591 277.92838239 222.86534612 276.21592435 228.125 272.53125 C229.0325 271.603125 229.94 270.675 230.875 269.71875 C233.125 267.53125 233.125 267.53125 236.25 266.96875 C239.125 267.53125 239.125 267.53125 241.125 269.15625 C242.125 271.53125 242.125 271.53125 241.8125 274.34375 C238.16465328 281.23412714 231.3538397 285.84748915 224.125 288.53125 C219.48271349 289.86590737 215.06625003 289.44041911 210.3125 289.09375 C209.52423828 289.04154297 208.73597656 288.98933594 207.92382812 288.93554688 C205.99048471 288.80665731 204.05767836 288.66975506 202.125 288.53125 C202.125 289.52125 202.125 290.51125 202.125 291.53125 C203.135625 291.593125 204.14625 291.655 205.1875 291.71875 C215.10071647 293.0102606 224.58019148 296.97063721 233.4375 301.46875 C234.0776001 301.78013916 234.7177002 302.09152832 235.37719727 302.41235352 C238.60451076 304.13268202 240.01559747 305.30176448 241.60546875 308.63671875 C242.125 311.53125 242.125 311.53125 241.125 313.90625 C238.28859473 316.21082928 236.73993589 315.89400903 233.125 315.53125 C230.49576017 314.36521468 228.06794724 313.1651329 225.5625 311.78125 C216.76734962 307.14927335 207.98716257 304.03837573 198.125 302.53125 C199.21639623 305.80543868 199.85410317 306.36673146 202.4375 308.46875 C222.70591304 325.80023736 239.22474844 348.22787168 242.125 375.53125 C243.52148849 397.95619981 239.91170372 420.98790671 225.46875 438.9453125 C214.22370983 451.35234015 198.55494267 457.15725452 182.125 458.53125 C177.16739046 458.69865232 172.2100068 458.7209784 167.25 458.734375 C166.53812531 458.73720238 165.82625061 458.74002975 165.09280396 458.74294281 C161.32016642 458.75787081 157.54756645 458.76713873 153.77490234 458.77148438 C149.92702803 458.77693848 146.07951301 458.80091962 142.23175049 458.82945633 C139.23039836 458.84831595 136.22912847 458.85330065 133.22772217 458.85482025 C131.81189017 458.85779859 130.39605785 458.865658 128.98028564 458.87900543 C109.57963308 459.04875604 90.07340268 455.82131426 75.125 442.53125 C65.57107977 432.69535643 60.53724832 420.63887697 57.125 407.53125 C56.898125 406.69722656 56.67125 405.86320312 56.4375 405.00390625 C50.88350253 380.58945902 57.19808867 356.08937851 70.171875 335.2421875 C77.77543706 324.44512937 88.03664222 311.92348852 99.125 304.53125 C98.83625 303.95375 98.5475 303.37625 98.25 302.78125 C97.87875 302.03875 97.5075 301.29625 97.125 300.53125 C96.78082031 299.9434375 96.43664062 299.355625 96.08203125 298.75 C93.89507397 293.67982964 94.14110379 287.25453416 96 282.109375 C98.79560032 277.21707444 102.01544638 274.80216272 107.125 272.53125 C108.115 272.53125 109.105 272.53125 110.125 272.53125 C105.18869099 261.72949048 105.18869099 261.72949048 98.625 251.90625 C96.58445601 249.38065867 96.13123287 248.5642842 95.5 245.21875 C96.125 242.53125 96.125 242.53125 97.8125 240.59375 C101.88698054 238.72169137 105.61626988 240.68729752 109.625 242.15625 C120.53459473 245.36683352 130.87005843 242.03954643 141.35083008 238.70336914 C147.91093206 236.66329552 152.97814285 236.18096429 160.125 235.53125 C160.125 199.56125 160.125 163.59125 160.125 126.53125 C143.625 126.53125 127.125 126.53125 110.125 126.53125 C110.125 129.17125 110.125 131.81125 110.125 134.53125 C109.625 137.53125 109.625 137.53125 109.125 139.53125 C109.846875 139.80453125 110.56875 140.0778125 111.3125 140.359375 C118.22149972 143.23812488 125.36463041 146.88793039 129.125 153.53125 C131.11107667 163.36168469 126.43050542 170.60517152 121.5 178.65625 C120.77780958 179.87764441 120.05774284 181.1002971 119.33984375 182.32421875 C107.32380388 202.67980021 107.32380388 202.67980021 101.125 205.53125 C94.44899805 206.66277575 90.55813681 204.53479899 84.8359375 201.13671875 C81.99475398 199.45411583 79.09132184 197.97961535 76.125 196.53125 C75.26519531 197.18351563 74.40539062 197.83578125 73.51953125 198.5078125 C54.68476129 212.53125 54.68476129 212.53125 46.125 212.53125 C46.15980469 213.82160156 46.19460938 215.11195313 46.23046875 216.44140625 C46.25862342 218.15884106 46.28592177 219.87629007 46.3125 221.59375 C46.35020508 222.86508789 46.35020508 222.86508789 46.38867188 224.16210938 C46.45339186 229.74960141 46.01105787 233.68485094 43.125 238.53125 C37.84720061 243.21469547 33.10836008 243.11802321 26.25 243.0625 C25.20730957 243.0663269 24.16461914 243.07015381 23.09033203 243.07409668 C20.89159171 243.07681178 18.69281886 243.06947885 16.49414062 243.05273438 C13.13598353 243.03132004 9.77996585 243.05255079 6.421875 243.078125 C4.2812453 243.07548165 2.14061692 243.07035654 0 243.0625 C-1.00015137 243.07059692 -2.00030273 243.07869385 -3.03076172 243.08703613 C-8.94018613 243.00786947 -12.39946299 242.50955498 -16.875 238.53125 C-19.99745923 233.14517426 -20.38931475 228.23440402 -20.5625 222.09375 C-20.59666016 221.26681641 -20.63082031 220.43988281 -20.66601562 219.58789062 C-20.74768621 217.56946056 -20.81303724 215.55038116 -20.875 213.53125 C-22.38126953 212.82162109 -22.38126953 212.82162109 -23.91796875 212.09765625 C-33.20745746 207.63541658 -41.58406484 202.66427053 -49.875 196.53125 C-50.93460938 197.09714844 -51.99421875 197.66304687 -53.0859375 198.24609375 C-54.47395102 198.98699286 -55.86197226 199.72787753 -57.25 200.46875 C-57.94867188 200.84193359 -58.64734375 201.21511719 -59.3671875 201.59960938 C-64.862914 204.53242496 -68.54233021 206.33765739 -74.875 205.53125 C-84.18197822 201.25004002 -88.80974158 189.3174905 -93.5625 180.78125 C-94.69085828 178.76531819 -95.81974607 176.74968265 -96.94921875 174.734375 C-97.68531372 173.41421387 -97.68531372 173.41421387 -98.4362793 172.06738281 C-99.42219658 170.329438 -100.44685013 168.61306569 -101.50317383 166.91699219 C-103.35582868 163.69504108 -103.74702802 161.24243728 -103.875 157.53125 C-101.25293779 148.5853907 -94.58393015 145.20162162 -87.046875 140.66796875 C-84.875 139.53125 -84.875 139.53125 -82.875 139.53125 C-83.205 138.21125 -83.535 136.89125 -83.875 135.53125 C-83.875 132.56125 -83.875 129.59125 -83.875 126.53125 C-100.375 126.53125 -116.875 126.53125 -133.875 126.53125 C-133.875 162.50125 -133.875 198.47125 -133.875 235.53125 C-110.62993857 235.3732423 -110.62993857 235.3732423 -87.38525391 235.17089844 C-82.86010742 235.15283203 -82.86010742 235.15283203 -80.73275757 235.1494751 C-79.26648077 235.14338617 -77.80022231 235.12943012 -76.33407593 235.10894775 C-66.53591606 234.97906696 -57.4325952 235.05132951 -49.4375 241.49609375 C-48.6640625 242.47255859 -48.6640625 242.47255859 -47.875 243.46875 C-47.33875 244.11714844 -46.8025 244.76554688 -46.25 245.43359375 C-42.07770943 251.79870748 -42.50270078 258.38053519 -42.50439453 265.71362305 C-42.50003355 267.82748763 -42.46371134 269.93924021 -42.42578125 272.05273438 C-42.36307397 279.59981177 -42.74071443 285.09928527 -46.875 291.53125 C-47.55567204 292.85748821 -48.22583287 294.18930952 -48.875 295.53125 C-48.25625 296.211875 -47.6375 296.8925 -47 297.59375 C-44.5430932 300.99006234 -43.82554395 303.49143821 -42.875 307.53125 C-42.25496094 307.54542969 -41.63492188 307.55960937 -40.99609375 307.57421875 C-23.76441632 308.50227125 -8.70419096 316.33606959 4.125 327.53125 C4.73988281 328.05074219 5.35476562 328.57023437 5.98828125 329.10546875 C20.24230358 342.11431212 26.82352459 361.46394451 28.33984375 380.18359375 C29.05860422 399.3026223 22.45332847 418.22168103 9.875 432.59375 C8.30758086 434.2547464 6.72415743 435.9007877 5.125 437.53125 C4.38636719 438.30597656 3.64773437 439.08070313 2.88671875 439.87890625 C-1.8159055 444.48668765 -6.74326683 447.85124338 -12.5625 450.84375 C-13.45980835 451.31385498 -13.45980835 451.31385498 -14.37524414 451.79345703 C-26.64498694 457.73539796 -39.09542223 459.12640033 -52.50561523 459.04882812 C-54.11059703 459.05426465 -55.71557381 459.06139579 -57.32054138 459.07006836 C-61.63009765 459.08811284 -65.93926571 459.0813162 -70.2488277 459.06855202 C-74.78007633 459.05833765 -79.31129445 459.06783975 -83.84254456 459.07409668 C-91.44025576 459.08134354 -99.03781065 459.07185818 -106.63549805 459.05273438 C-115.40456933 459.03091633 -124.17326924 459.03806457 -132.94233173 459.06004 C-140.49856752 459.07821326 -148.05469183 459.08074457 -155.61094242 459.07028532 C-160.11252595 459.06406801 -164.61393499 459.06316714 -169.11550713 459.07643127 C-173.34208215 459.0880193 -177.56817895 459.07991063 -181.79470253 459.05685425 C-183.34101443 459.05158522 -184.88736689 459.05304989 -186.43366241 459.06190491 C-194.44459471 459.10353857 -201.03115811 459.12549223 -207.875 454.53125 C-215.10574576 447.30050424 -216.26741756 440.93972776 -216.33398438 431.046875 C-216.32689453 429.76296875 -216.31980469 428.4790625 -216.3125 427.15625 C-216.33248047 425.88007813 -216.35246094 424.60390625 -216.37304688 423.2890625 C-216.36914463 415.73431736 -215.63432517 410.10680649 -211.875 403.53125 C-210.68233319 401.49049792 -210.68233319 401.49049792 -209.875 399.53125 C-210.68620988 397.41346802 -210.68620988 397.41346802 -212.1875 395.46875 C-216.85609618 388.8048086 -216.12934339 382.33105714 -216.1875 374.40625 C-216.21650391 373.11203125 -216.24550781 371.8178125 -216.27539062 370.484375 C-216.32599881 362.83864581 -215.70973188 357.1790613 -211.875 350.53125 C-210.68148503 348.49140608 -210.68148503 348.49140608 -209.875 346.53125 C-210.68620988 344.41346802 -210.68620988 344.41346802 -212.1875 342.46875 C-216.85609618 335.8048086 -216.12934339 329.33105714 -216.1875 321.40625 C-216.21650391 320.11203125 -216.24550781 318.8178125 -216.27539062 317.484375 C-216.32599881 309.83864581 -215.70973188 304.1790613 -211.875 297.53125 C-210.68148503 295.49140608 -210.68148503 295.49140608 -209.875 293.53125 C-210.68620988 291.41346802 -210.68620988 291.41346802 -212.1875 289.46875 C-216.5322512 283.26706404 -216.09355736 277.70382201 -216.11523438 270.29931641 C-216.1248982 268.30228695 -216.15608516 266.30539948 -216.1875 264.30859375 C-216.22735398 254.47462299 -215.17955372 248.43027465 -208.484375 241.0390625 C-203.41810052 236.29250437 -197.29971267 235.40116386 -190.62573242 235.41772461 C-189.09471138 235.41783791 -189.09471138 235.41783791 -187.53276062 235.41795349 C-185.89812614 235.42569542 -185.89812614 235.42569542 -184.23046875 235.43359375 C-182.54308342 235.43571617 -182.54308342 235.43571617 -180.8216095 235.43788147 C-177.23521241 235.44347069 -173.64887816 235.45602128 -170.0625 235.46875 C-167.62825611 235.47376639 -165.19401124 235.47832906 -162.75976562 235.48242188 C-156.79815571 235.4934366 -150.83658234 235.51016406 -144.875 235.53125 C-144.87684359 234.93618243 -144.87868717 234.34111486 -144.88058662 233.72801495 C-144.92473318 219.25639901 -144.95784074 204.78478907 -144.97862434 190.31312084 C-144.98894199 183.31476106 -145.00301161 176.31644619 -145.02587891 169.31811523 C-145.04792335 162.56840202 -145.05955834 155.81874519 -145.06475449 149.06899452 C-145.06845901 146.48971127 -145.07569269 143.91043066 -145.08646011 141.33116722 C-145.10091015 137.72747582 -145.10298065 134.12397923 -145.10205078 130.52026367 C-145.10924133 129.44636383 -145.11643188 128.37246399 -145.12384033 127.26602173 C-145.121091 126.28585587 -145.11834167 125.30569 -145.11550903 124.29582214 C-145.11735262 123.44316363 -145.11919621 122.59050512 -145.12109566 121.71200848 C-144.875 119.53125 -144.875 119.53125 -142.875 116.53125 C-139.77166117 115.49680372 -137.64623751 115.41041576 -134.39379883 115.41772461 C-133.27286331 115.41780014 -132.1519278 115.41787567 -130.99702454 115.41795349 C-129.78757675 115.42311478 -128.57812897 115.42827606 -127.33203125 115.43359375 C-126.09329758 115.4350087 -124.8545639 115.43642365 -123.57829285 115.43788147 C-120.28868463 115.44253398 -116.9991254 115.4515161 -113.70953369 115.46258545 C-110.35128377 115.47282371 -106.99302667 115.47738426 -103.63476562 115.48242188 C-97.04815788 115.49345855 -90.46158295 115.51020233 -83.875 115.53125 C-83.89046875 113.62859375 -83.89046875 113.62859375 -83.90625 111.6875 C-83.92974302 108.79785815 -83.79793428 106.30005283 -82.875 103.53125 C-83.596875 103.25796875 -84.31875 102.9846875 -85.0625 102.703125 C-92.18808785 99.73413006 -98.5771107 96.04740475 -102.875 89.53125 C-104.64685012 85.04256303 -103.45751698 80.92842024 -101.875 76.53125 C-99.65462875 72.10153401 -97.15180612 67.85440101 -94.625 63.59375 C-93.96886719 62.46517578 -93.31273437 61.33660156 -92.63671875 60.17382812 C-81.04735635 40.37053392 -81.04735635 40.37053392 -74.875 37.53125 C-66.68766544 36.30314982 -60.7185296 40.02460026 -54 44.40625 C-52.01777007 45.70554417 -52.01777007 45.70554417 -50.14453125 45.36328125 C-46.92259844 44.18209073 -44.25466336 42.26248982 -41.4375 40.34375 C-34.86108302 35.97316924 -28.15676101 32.61571687 -20.875 29.53125 C-20.83761719 28.31308594 -20.80023438 27.09492187 -20.76171875 25.83984375 C-20.69601883 24.2161171 -20.62957291 22.59242051 -20.5625 20.96875 C-20.52866211 19.76895508 -20.52866211 19.76895508 -20.49414062 18.54492188 C-20.25388043 13.1936721 -19.58236207 9.20130525 -16.875 4.53125 C-11.60215845 -0.15577901 -6.85539311 -0.0554992 0 0 Z " fill="#010100" transform="translate(242.875,26.46875)"/>
<path d="M0 0 C1.36560059 0.00303635 1.36560059 0.00303635 2.75878906 0.00613403 C3.68723633 0.00517731 4.61568359 0.00422058 5.57226562 0.00323486 C7.53938871 0.00255298 9.50651403 0.00440781 11.47363281 0.00857544 C14.49581932 0.01392358 17.51785721 0.00863071 20.54003906 0.00222778 C22.44628939 0.00288856 24.35253963 0.00416972 26.25878906 0.00613403 C27.16918945 0.0041098 28.07958984 0.00208557 29.01757812 0 C35.39383938 0.02399685 35.39383938 0.02399685 36.50878906 1.13894653 C36.61787326 2.88391818 36.66461558 4.63286997 36.68457031 6.38113403 C36.70841797 7.44718872 36.73226562 8.51324341 36.75683594 9.61160278 C36.7996531 11.87182993 36.83098581 14.13230508 36.85058594 16.39285278 C36.87830078 17.4614856 36.90601563 18.53011841 36.93457031 19.63113403 C36.95644409 21.10622437 36.95644409 21.10622437 36.97875977 22.6111145 C37.28433543 25.26387458 37.28433543 25.26387458 39.38256836 26.91189575 C41.8577628 28.34034072 44.33841443 29.36960998 47.00878906 30.38894653 C56.41123964 34.21406041 64.81322723 39.03766771 72.27832031 45.95144653 C75.68887548 47.76722371 77.8208199 47.081471 81.50878906 46.13894653 C84.00409927 44.96416332 86.30873233 43.55579582 88.63378906 42.07644653 C91.74022113 40.10544571 94.56755883 38.33724323 98.21582031 37.56863403 C100.50878906 38.13894653 100.50878906 38.13894653 102.32519531 40.24441528 C102.90140625 41.2614856 103.47761719 42.27855591 104.07128906 43.32644653 C104.39282959 43.88581909 104.71437012 44.44519165 105.0456543 45.02151489 C105.78157657 46.30551141 106.50959591 47.59405629 107.23144531 48.88601685 C108.69120477 51.46068432 110.20728365 53.99798784 111.72753906 56.53738403 C112.84318078 58.42477966 113.95776462 60.31280099 115.07128906 62.20144653 C115.89512085 63.57562744 115.89512085 63.57562744 116.7355957 64.97756958 C117.23953857 65.84680054 117.74348145 66.71603149 118.26269531 67.61160278 C118.71974854 68.38769897 119.17680176 69.16379517 119.64770508 69.96340942 C120.50878906 72.13894653 120.50878906 72.13894653 120.31982422 74.29690552 C118.94385305 77.42204172 116.20621179 78.46992909 113.32128906 80.13894653 C108.9535655 82.69468878 104.69157546 85.29541344 100.50878906 88.13894653 C100.58097656 88.76156372 100.65316406 89.38418091 100.72753906 90.02566528 C101.43320244 97.05289639 101.61915654 104.01686625 101.63378906 111.07644653 C101.64055664 112.44385986 101.64055664 112.44385986 101.64746094 113.83889771 C101.6380723 118.06886906 101.57702563 122.01860548 100.50878906 126.13894653 C99.44067243 130.29679563 99.44067243 130.29679563 100.50878906 134.13894653 C104.55363426 137.37835018 108.95403622 139.66962722 113.50878906 142.13894653 C119.17852532 145.48027602 119.17852532 145.48027602 120.37719727 147.87088013 C120.58064737 151.37746905 118.99953441 153.44083709 117.24707031 156.44363403 C116.72647285 157.34603317 116.72647285 157.34603317 116.19535828 158.2666626 C115.08209961 160.18933885 113.95182899 162.10139165 112.82128906 164.01394653 C112.0786638 165.29326304 111.33711514 166.57320513 110.59667969 167.85379028 C101.27213983 183.90107138 101.27213983 183.90107138 98.29003906 184.83035278 C93.22115148 183.57025011 89.08623561 180.42732499 84.74707031 177.60574341 C80.53163091 174.88216498 80.53163091 174.88216498 75.69238281 174.13894653 C73.31231093 175.22892578 71.90630813 176.34099995 70.07128906 178.20144653 C62.75957244 184.90729586 47.68710344 195.13894653 37.50878906 195.13894653 C37.17878906 203.71894653 36.84878906 212.29894653 36.50878906 221.13894653 C33.08125682 222.85271265 29.15082163 222.28040014 25.37988281 222.27175903 C24.47504654 222.27271576 23.57021027 222.27367249 22.63795471 222.2746582 C20.72388642 222.27533926 18.80981582 222.27349015 16.89575195 222.26931763 C13.95486302 222.26396215 11.01412639 222.26926831 8.07324219 222.27566528 C6.21712206 222.27500461 4.36100202 222.27372367 2.50488281 222.27175903 C1.17679848 222.27479538 1.17679848 222.27479538 -0.17811584 222.27789307 C-6.37625686 222.25390061 -6.37625686 222.25390061 -7.49121094 221.13894653 C-7.64927625 219.21415841 -7.74234594 217.28395443 -7.80761719 215.35379028 C-7.84951172 214.18396606 -7.89140625 213.01414185 -7.93457031 211.80886841 C-7.97388672 210.57716919 -8.01320313 209.34546997 -8.05371094 208.07644653 C-8.09689453 206.84088013 -8.14007813 205.60531372 -8.18457031 204.33230591 C-8.29105292 201.26797318 -8.39306518 198.2035558 -8.49121094 195.13894653 C-9.12607422 194.96516479 -9.7609375 194.79138306 -10.41503906 194.61233521 C-15.93881603 193.03847254 -20.9584677 191.21438695 -25.99121094 188.45144653 C-26.94495605 187.9368689 -26.94495605 187.9368689 -27.91796875 187.41189575 C-32.85394137 184.66955018 -37.23890124 181.47340141 -41.53808594 177.80300903 C-44.69459614 174.9374233 -44.69459614 174.9374233 -48.70996094 174.22879028 C-53.23591245 175.7098952 -56.9959043 178.39955834 -60.96386719 180.98855591 C-63.75211398 182.7431799 -65.99867991 184.03105211 -69.23730469 184.74050903 C-71.49121094 184.13894653 -71.49121094 184.13894653 -73.30761719 182.03347778 C-73.88382813 181.01640747 -74.46003906 179.99933716 -75.05371094 178.95144653 C-75.37525146 178.39207397 -75.69679199 177.83270142 -76.02807617 177.25637817 C-76.76399844 175.97238166 -77.49201779 174.68383678 -78.21386719 173.39187622 C-79.67362664 170.81720874 -81.18970552 168.27990523 -82.70996094 165.74050903 C-83.82560265 163.85311341 -84.94018649 161.96509207 -86.05371094 160.07644653 C-86.60293213 159.16032593 -87.15215332 158.24420532 -87.71801758 157.30032349 C-88.22196045 156.43109253 -88.72590332 155.56186157 -89.24511719 154.66629028 C-89.93069702 153.502146 -89.93069702 153.502146 -90.63012695 152.31448364 C-91.49121094 150.13894653 -91.49121094 150.13894653 -91.30224609 147.98098755 C-89.92627492 144.85585134 -87.18863367 143.80796398 -84.30371094 142.13894653 C-77.72308533 138.40181511 -77.72308533 138.40181511 -71.49121094 134.13894653 C-71.07301152 130.37515181 -71.1211929 127.65240377 -72.01074219 124.01394653 C-72.73070387 119.70588312 -72.63778866 115.43630143 -72.61621094 111.07644653 C-72.61427734 110.14356812 -72.61234375 109.2106897 -72.61035156 108.24954224 C-72.56818773 101.50040036 -72.26903184 94.8476518 -71.49121094 88.13894653 C-77.03743968 84.36108058 -82.63069833 80.84978213 -88.52246094 77.63113403 C-90.49121094 76.13894653 -90.49121094 76.13894653 -91.28637695 74.39212036 C-91.58321534 71.1268981 -90.35221783 69.42319219 -88.73730469 66.59597778 C-88.12951172 65.52154419 -87.52171875 64.4471106 -86.89550781 63.34011841 C-86.24646484 62.22185669 -85.59742188 61.10359497 -84.92871094 59.95144653 C-84.30673828 58.85252075 -83.68476563 57.75359497 -83.04394531 56.62136841 C-72.73293245 38.5528537 -72.73293245 38.5528537 -68.49121094 37.13894653 C-66.68530273 37.94338989 -66.68530273 37.94338989 -64.69042969 39.22879028 C-63.96017578 39.68318481 -63.22992188 40.13757935 -62.47753906 40.60574341 C-60.95507345 41.57975922 -59.434214 42.55629055 -57.91503906 43.53543091 C-52.14465214 47.19957769 -52.14465214 47.19957769 -45.49121094 47.13894653 C-42.95605456 45.6902319 -40.75176029 43.91687267 -38.49121094 42.07644653 C-30.40686105 35.81369492 -22.07066801 31.48666316 -12.64746094 27.51394653 C-9.68085571 26.45054162 -9.68085571 26.45054162 -8.49121094 25.13894653 C-8.34568362 23.37161477 -8.26398625 21.5989366 -8.20996094 19.82644653 C-8.17257813 18.75136841 -8.13519531 17.67629028 -8.09667969 16.56863403 C-8.061875 15.43683716 -8.02707031 14.30504028 -7.99121094 13.13894653 C-7.922656 10.90964146 -7.84996854 8.6804583 -7.77246094 6.45144653 C-7.74216797 5.45757935 -7.711875 4.46371216 -7.68066406 3.43972778 C-7.28878494 -1.3193815 -4.05657351 0.01526678 0 0 Z " fill="#2679B8" transform="translate(241.4912109375,36.861053466796875)"/>
<path d="M0 0 C1.59747461 -0.00981625 3.19493921 -0.02140433 4.79238892 -0.03466797 C8.12962176 -0.05393359 11.46554748 -0.04711616 14.80273438 -0.02246094 C19.05272324 0.00618999 23.29840217 -0.03746678 27.54787254 -0.10186768 C30.84438364 -0.1424343 34.13988256 -0.14042039 37.43657303 -0.12646484 C39.00170817 -0.12549988 40.56692031 -0.13818261 42.13181686 -0.16552734 C51.7871006 -0.30934902 58.02625014 0.7720863 65.35121155 7.73396301 C66.07320236 8.48175522 66.79519318 9.22954742 67.5390625 10 C68.79571817 11.15527133 70.05628516 12.30633655 71.32421875 13.44921875 C87.16118312 28.85315942 102.18341949 49.17049364 102.90234375 72.15625 C102.9010368 74.27090068 102.88399198 76.3855976 102.8515625 78.5 C102.85478516 79.55058594 102.85800781 80.60117187 102.86132812 81.68359375 C102.74620956 98.61648851 98.24653798 115.30817506 86.5390625 128 C77.84709403 135.84215337 67.16894575 139.88005002 55.625 141.12109375 C54.85610443 141.20433899 54.08720886 141.28758423 53.29501343 141.37335205 C43.66212017 142.31124941 34.01473348 142.29945795 24.34472656 142.26074219 C21.17493465 142.25003672 18.0057122 142.26069567 14.8359375 142.2734375 C-31.22918181 142.30631639 -31.22918181 142.30631639 -47.68359375 126.921875 C-52.04731254 121.97800863 -54.79567506 116.58529431 -57.3359375 110.5625 C-57.62243164 109.8833252 -57.90892578 109.20415039 -58.20410156 108.50439453 C-64.75097633 91.86146681 -65.30556128 70.38898937 -59.06640625 53.62890625 C-51.48932166 36.50211406 -41.26440064 22.41246939 -27.38237 9.76957703 C-26.12550704 8.612047 -24.90222703 7.41667792 -23.72032166 6.18270874 C-16.63249294 -0.43681731 -9.12132818 -0.05959023 0 0 Z " fill="#A26841" transform="translate(371.4609375,333)"/>
<path d="M0 0 C0.97646484 -0.00322266 1.95292969 -0.00644531 2.95898438 -0.00976562 C19.97720939 0.11545208 35.80836033 6.83268914 48.1875 18.5625 C61.91225849 32.99927638 66.88736885 49.94567689 66.5859375 69.4140625 C65.91539857 87.02453233 57.08830808 102.72339379 44.5078125 114.73828125 C30.46978572 126.9568999 12.87235464 131.7484252 -5.42675781 130.51757812 C-22.24962041 128.90221409 -38.74061413 119.54876521 -49.5625 106.75 C-62.51660036 90.01350011 -65.53292029 71.37672231 -63.16015625 50.828125 C-59.60515832 33.63401738 -47.81490908 19.0158239 -33.5625 9.3125 C-22.6379444 2.93140196 -12.64195327 -0.20944257 0 0 Z " fill="#FDC276" transform="translate(193.5625,344.6875)"/>
<path d="M0 0 C10.87399315 8.25769405 18.93254605 18.86934001 21.6484375 32.42578125 C23.43456089 45.5041736 21.33718453 58.86772002 14 70 C4.87300209 81.61886002 -5.24302176 89.08158084 -20 92 C-29.08145957 92.83583237 -37.44997767 92.22270072 -46 89 C-46.81726563 88.69449219 -47.63453125 88.38898438 -48.4765625 88.07421875 C-59.32072622 83.34065522 -69.35844296 73.92763926 -74 63 C-79.07378008 48.97530602 -80.41360612 34.77317185 -74 21 C-66.87085178 7.57193348 -56.63869784 -1.79181558 -42.1875 -6.9375 C-28.06271739 -10.58772472 -12.22613924 -7.84429093 0 0 Z " fill="#71A7D0" transform="translate(284,106)"/>
<path d="M0 0 C9.89498618 7.33023224 16.67839878 17.28804066 20.03515625 29.21484375 C21.82212529 44.16040302 19.97988829 57.58526081 11.3046875 70.23046875 C3.98522304 79.5250268 -6.224676 85.72728852 -17.6640625 88.73046875 C-33.44491813 90.25869137 -45.83543171 88.33303914 -58.6640625 78.73046875 C-59.6953125 77.98796875 -60.7265625 77.24546875 -61.7890625 76.48046875 C-68.85439176 69.72232771 -72.89887142 62.03697208 -75.6640625 52.73046875 C-75.85742188 52.13234375 -76.05078125 51.53421875 -76.25 50.91796875 C-78.97842742 36.50363523 -75.75183724 22.80915417 -67.6640625 10.73046875 C-50.81026204 -9.80404676 -22.43282161 -14.70112096 0 0 Z " fill="#ECC118" transform="translate(419.6640625,365.26953125)"/>
<path d="M0 0 C1.71389671 -0.01268921 1.71389671 -0.01268921 3.4624176 -0.02563477 C4.71188171 -0.01956207 5.96134583 -0.01348938 7.24867249 -0.00723267 C9.22722984 -0.0151181 9.22722984 -0.0151181 11.24575806 -0.02316284 C14.8615282 -0.03683796 18.47704149 -0.03153677 22.09281611 -0.02202559 C25.8781381 -0.01442837 29.66343814 -0.02147491 33.44876099 -0.02618408 C39.80658412 -0.03164213 46.16430272 -0.02444947 52.52210999 -0.01016235 C59.86917282 0.0061573 67.21598582 0.00088094 74.56304258 -0.01564157 C80.87314965 -0.02926345 87.18318157 -0.03117247 93.49329859 -0.02332556 C97.26107633 -0.01865198 101.02873671 -0.01801532 104.79650688 -0.02793503 C108.33998343 -0.03661245 111.88313854 -0.03056896 115.42658043 -0.01325226 C117.34476151 -0.00740417 119.26296982 -0.01629689 121.18113708 -0.02563477 C122.89926353 -0.01294556 122.89926353 -0.01294556 124.65209961 0 C126.1417594 0.00169662 126.1417594 0.00169662 127.66151333 0.00342751 C132.07086649 0.61362429 134.657682 2.6089894 137.67079163 5.78720093 C140.21934868 11.11600204 139.97042439 16.05065155 139.88954163 21.88095093 C139.91274475 23.55350952 139.91274475 23.55350952 139.93641663 25.25985718 C139.90719345 31.38941743 139.80953195 35.71876935 135.38954163 40.38095093 C131.70247257 43.0035529 129.20105923 43.75672662 124.6967926 43.76190186 C123.56123428 43.77036133 122.42567596 43.7788208 121.25570679 43.78753662 C120.01918869 43.78146393 118.78267059 43.77539124 117.50868225 43.76913452 C115.54453621 43.77701996 115.54453621 43.77701996 113.54071045 43.7850647 C109.95598938 43.79872228 106.3715278 43.79344623 102.78680229 43.78392744 C99.03218267 43.77632272 95.27758499 43.78337871 91.52296448 43.78808594 C85.21819578 43.79354113 78.91353258 43.78635812 72.60877991 43.77206421 C65.32361157 43.75573808 58.03869512 43.76102676 50.75353289 43.77754343 C44.49436048 43.79116507 38.23526382 43.79307466 31.97608137 43.78522742 C28.23961732 43.78055461 24.5032716 43.7799152 20.76681519 43.78983688 C16.60119247 43.80012587 12.4360028 43.78585812 8.270401 43.76913452 C6.41562386 43.77824356 6.41562386 43.77824356 4.52337646 43.78753662 C3.38781815 43.77907715 2.25225983 43.77061768 1.08229065 43.76190186 C0.09785728 43.76077078 -0.88657608 43.7596397 -1.90084076 43.75847435 C-6.58606321 43.10569545 -9.03279204 41.1238061 -11.89170837 37.44735718 C-14.54569349 32.3547557 -14.19241302 26.92892928 -14.11045837 21.31845093 C-14.12592712 20.2556189 -14.14139587 19.19278687 -14.15733337 18.0977478 C-14.12711858 12.05101297 -13.85375715 8.0500737 -9.61045837 3.38095093 C-6.39989913 0.45632205 -4.30933431 0.00490989 0 0 Z " fill="#FDA532" transform="translate(50.61045837402344,272.6190490722656)"/>
<path d="M0 0 C1.29821686 -0.00686325 2.59643372 -0.0137265 3.93399048 -0.02079773 C7.48358363 -0.03869878 11.03292918 -0.03756681 14.58255386 -0.03185534 C17.54978932 -0.02875956 20.51697748 -0.03486015 23.4842062 -0.04089409 C30.48527925 -0.05492718 37.48623024 -0.05338774 44.48730469 -0.04199219 C51.70265958 -0.03050718 58.91764293 -0.04459556 66.13294888 -0.07138866 C72.33611126 -0.09355824 78.53915712 -0.10018038 84.7423563 -0.09431225 C88.44367436 -0.09094504 92.14475419 -0.09334202 95.84603882 -0.11056328 C99.97311887 -0.12892892 104.09947738 -0.11483256 108.2265625 -0.09765625 C110.05956406 -0.1121582 110.05956406 -0.1121582 111.92959595 -0.12695312 C118.23100747 -0.07197097 122.41092868 -0.00962568 127.11328125 4.40405273 C128.48828125 7.15405273 128.48828125 7.15405273 129.11328125 9.40405273 C128.14390625 9.5394043 127.17453125 9.67475586 126.17578125 9.81420898 C106.70585202 12.82052299 90.11643616 21.24768722 77.11328125 36.40405273 C76.79087684 36.96763898 76.46847242 37.53122522 76.13629818 38.11188984 C74.93847351 40.12422498 73.78335485 41.75734874 72.11328125 43.40405273 C68.98038737 44.11541921 66.87339749 44.33822462 63.74633789 44.26220703 C62.50148872 44.27337807 62.50148872 44.27337807 61.23149109 44.28477478 C58.49430572 44.30026214 55.76037687 44.26533018 53.0234375 44.22827148 C51.11681837 44.22536715 49.21019388 44.2249818 47.30357361 44.227005 C43.30943335 44.22378896 39.31639375 44.1968273 35.32250977 44.15185547 C30.20997971 44.09522468 25.09882407 44.08699241 19.98603153 44.09526348 C16.04906021 44.09806521 12.1123941 44.0804331 8.17550468 44.05613136 C6.29091876 44.0459372 4.40629814 44.04082378 2.52168465 44.04092979 C-0.11629236 44.03695012 -2.75269462 44.00675274 -5.39038086 43.96923828 C-6.16511749 43.97262207 -6.93985413 43.97600586 -7.73806763 43.97949219 C-12.92151001 43.86779761 -15.89302571 42.68146293 -19.88671875 39.40405273 C-23.89739484 33.97734513 -23.3672011 27.87485046 -23.32421875 21.40405273 C-23.34419922 20.33670898 -23.36417969 19.26936523 -23.38476562 18.16967773 C-23.38102615 12.15659449 -23.26269247 7.94749301 -18.88671875 3.40405273 C-13.05737147 -0.64704729 -6.81603011 -0.02510912 0 0 Z " fill="#E8892B" transform="translate(59.88671875,325.595947265625)"/>
<path d="M0 0 C0.75175507 -0.00043808 1.50351013 -0.00087616 2.27804565 -0.00132751 C4.75098069 0.00075452 7.22322902 0.02405722 9.69604492 0.04760742 C11.415254 0.05320547 13.13446789 0.05747459 14.85368347 0.06047058 C19.36979478 0.07190291 23.88561479 0.10135612 28.40161133 0.13458252 C33.01338765 0.16531823 37.62521123 0.17898339 42.23706055 0.1940918 C51.27950595 0.22622744 60.32173555 0.27740423 69.36401367 0.34057617 C69.8287207 1.36030518 70.29342773 2.38003418 70.7722168 3.43066406 C71.39635111 4.78745228 72.02071212 6.14413622 72.64526367 7.50073242 C72.94980469 8.17060181 73.2543457 8.84047119 73.56811523 9.53063965 C76.22761721 15.28761714 79.43289347 20.35584492 83.36401367 25.34057617 C84.1606543 26.3827832 84.1606543 26.3827832 84.97338867 27.44604492 C89.03173904 32.44168097 93.72986651 36.02148393 99.00854492 39.67651367 C101.36401367 41.34057617 101.36401367 41.34057617 103.36401367 43.34057617 C88.99510008 43.43409342 74.62623381 43.50432538 60.25707817 43.54782486 C53.58492043 43.56870217 46.91300682 43.59702302 40.2409668 43.64233398 C33.80245071 43.68578557 27.36413128 43.70971223 20.92547989 43.72008514 C18.46866892 43.72747765 16.01186874 43.74191335 13.55514145 43.7634964 C10.11473048 43.79252014 6.67513278 43.79653245 3.23461914 43.79467773 C2.21825882 43.80905884 1.2018985 43.82343994 0.15473938 43.83825684 C-5.7669558 43.80369866 -9.12428331 43.28148447 -13.63598633 39.34057617 C-17.64666242 33.91386857 -17.11646868 27.81137389 -17.07348633 21.34057617 C-17.0934668 20.27323242 -17.11344727 19.20588867 -17.1340332 18.10620117 C-17.13027658 12.06555529 -16.96169007 7.95466016 -12.63598633 3.34057617 C-8.51565537 0.23724171 -4.99958084 -0.07681236 0 0 Z " fill="#E8892B" transform="translate(53.635986328125,431.659423828125)"/>
<path d="M0 0 C0.78101578 -0.00043808 1.56203156 -0.00087616 2.36671448 -0.00132751 C4.93703591 0.00075525 7.50669743 0.02406163 10.0769043 0.04760742 C11.86337426 0.05320521 13.64984885 0.05747444 15.43632507 0.06047058 C20.12998246 0.07190498 24.82335974 0.10136005 29.51690674 0.13458252 C34.30965384 0.16531371 39.10244636 0.17898243 43.89526367 0.1940918 C53.29317295 0.22623111 62.69087467 0.27741047 72.08862305 0.34057617 C71.73131104 1.48187988 71.37399902 2.62318359 71.00585938 3.79907227 C68.11525716 13.36202631 66.37102979 21.89433461 66.77612305 31.96557617 C66.79868164 33.07674805 66.82124023 34.18791992 66.84448242 35.33276367 C66.90204433 38.0036363 66.98321193 40.67124245 67.08862305 43.34057617 C57.41352651 43.4333541 47.73858368 43.50438053 38.06313896 43.54782486 C33.57017146 43.56867854 29.07750884 43.59695534 24.5847168 43.64233398 C20.24695982 43.68587135 15.90949567 43.70972997 11.57153702 43.72008514 C9.91854367 43.7274624 8.26556592 43.74186864 6.6126976 43.7634964 C4.29296284 43.79263637 1.97443006 43.79652792 -0.34545898 43.79467773 C-2.3240239 43.8080014 -2.3240239 43.8080014 -4.34255981 43.82159424 C-8.52324643 43.25810619 -10.65032646 41.9664236 -13.91137695 39.34057617 C-17.92205304 33.91386857 -17.39185931 27.81137389 -17.34887695 21.34057617 C-17.36885742 20.27323242 -17.38883789 19.20588867 -17.40942383 18.10620117 C-17.40566721 12.06555529 -17.23708069 7.95466016 -12.91137695 3.34057617 C-8.72750996 0.16414168 -5.08186122 -0.07507653 0 0 Z " fill="#FDA532" transform="translate(53.911376953125,378.659423828125)"/>
<path d="M0 0 C3.53953093 2.81110573 6.79679659 5.81380475 10 9 C10.82951172 9.77730469 10.82951172 9.77730469 11.67578125 10.5703125 C15.4632134 14.47004048 17.80399678 19.13508873 20.25 23.9375 C20.5917627 24.60595947 20.93352539 25.27441895 21.28564453 25.96313477 C27.97361214 39.6239834 27.47788443 54.791919 23.03515625 69.109375 C17.62147395 84.63953432 7.36982947 96.20422207 -7 104 C-21.9155134 110.69845929 -38.40810067 112.54864785 -54 107 C-70.38822388 100.46333343 -82.13144611 89.39899638 -89.8125 73.4375 C-95.41229709 60.23008383 -96.47818605 43.6492348 -91.26513672 30.08837891 C-87.30374103 20.73302849 -82.39002557 13.06399503 -75 6 C-74.484375 5.4534375 -73.96875 4.906875 -73.4375 4.34375 C-69.5486354 0.53590341 -64.86923772 -1.8017932 -60.0625 -4.25 C-59.39404053 -4.5917627 -58.72558105 -4.93352539 -58.03686523 -5.28564453 C-39.39784566 -14.41078474 -16.98255027 -11.38889128 0 0 Z M-72.15234375 16.70703125 C-81.81605197 28.69983617 -85.33037021 40.74609608 -84 56 C-81.57905049 70.42482414 -75.27327606 82.14149074 -63.46484375 90.875 C-57.54472885 94.87170204 -51.94405569 97.39086053 -45 99 C-44.07960938 99.27070313 -44.07960938 99.27070313 -43.140625 99.546875 C-30.92210024 102.13327805 -18.96303942 99.30375519 -8.15234375 93.4609375 C4.44162355 85.24663425 12.23267979 73.70086907 15.49609375 59.13671875 C17.87872337 44.30531111 14.68864337 31.19784302 6 19 C-2.91853418 8.22826391 -14.202278 1.9323591 -28 0 C-45.44892449 -1.20678503 -60.00813263 3.81471677 -72.15234375 16.70703125 Z " fill="#010304" transform="translate(290,98)"/>
<path d="M0 0 C11.82531863 10.19179113 21.28051714 23.32951157 22.53833008 39.30126953 C22.61779045 41.70180911 22.6249361 44.09055043 22.6015625 46.4921875 C22.61316406 47.69004883 22.61316406 47.69004883 22.625 48.91210938 C22.57458968 64.37547564 15.53786336 77.77740314 5.3984375 89.11328125 C-6.93991951 101.19262695 -22.76286488 105.37329443 -39.51416016 105.36572266 C-47.91719983 105.21628419 -54.2127005 104.03291172 -61.6484375 99.9296875 C-62.95748047 99.26066406 -62.95748047 99.26066406 -64.29296875 98.578125 C-79.82030172 90.03928444 -88.84287245 76.96169443 -93.734375 60.2109375 C-94.83505434 55.66857777 -94.99394089 51.2758513 -94.9609375 46.6171875 C-94.95529785 45.78050537 -94.9496582 44.94382324 -94.94384766 44.08178711 C-94.81772847 37.63909455 -94.08035811 31.94451404 -91.6484375 25.9296875 C-91.26945312 24.970625 -90.89046875 24.0115625 -90.5 23.0234375 C-83.8570131 8.12471544 -71.68415832 -2.33179656 -56.94140625 -8.8125 C-38.13872639 -15.99454379 -15.77068881 -12.32811957 0 0 Z M-73.46875 14.09375 C-82.94357822 26.42121467 -85.91525551 39.63122045 -84.6484375 54.9296875 C-83.08198934 63.37955641 -79.89049031 70.17418113 -74.6484375 76.9296875 C-73.5346875 78.4765625 -73.5346875 78.4765625 -72.3984375 80.0546875 C-63.48531812 89.37294867 -52.32675234 94.93041859 -39.48974609 95.2734375 C-24.38413591 95.44331257 -13.18019473 92.16781812 -1.6484375 81.9296875 C7.71874125 72.10124616 12.77246068 60.0982656 12.6640625 46.5546875 C12.65842285 45.81009277 12.6527832 45.06549805 12.64697266 44.29833984 C12.51786591 38.42462213 11.74777544 33.34166654 9.3515625 27.9296875 C8.96097656 27.04023438 8.57039063 26.15078125 8.16796875 25.234375 C1.37688104 11.42134108 -9.00546531 4.65898221 -22.79296875 -0.94140625 C-40.83266995 -6.64022253 -60.85153773 0.93772439 -73.46875 14.09375 Z " fill="#040301" transform="translate(427.6484375,359.0703125)"/>
<path d="M0 0 C3.5625 0.25 3.5625 0.25 7 1 C8.32229189 3.64458379 8.09677194 5.67761301 8.0625 8.625 C8.05347656 9.62789063 8.04445312 10.63078125 8.03515625 11.6640625 C8.02355469 12.43492187 8.01195312 13.20578125 8 14 C8.7734375 14.14695312 9.546875 14.29390625 10.34375 14.4453125 C17.16941304 15.91519538 23.32849699 17.50111907 28 23 C29.125 26.75 29.125 26.75 29 30 C28.34 30.66 27.68 31.32 27 32 C23.375 31.625 23.375 31.625 20 31 C20 30.34 20 29.68 20 29 C19.319375 28.731875 18.63875 28.46375 17.9375 28.1875 C14.6049285 26.84029024 11.30394054 25.41597452 8 24 C8 32.91 8 41.82 8 51 C10.31 51.33 12.62 51.66 15 52 C20.94835941 55.15942273 26.84684629 60.54053887 29 67 C29.7420757 73.84899379 29.14162684 79.37672075 25 85 C20.11604232 90.49031811 15.10237994 93.2737271 8 95 C8.05220703 96.24716797 8.05220703 96.24716797 8.10546875 97.51953125 C8.13253906 98.60621094 8.15960938 99.69289063 8.1875 100.8125 C8.23970703 102.43091797 8.23970703 102.43091797 8.29296875 104.08203125 C8 107 8 107 6.6484375 108.8984375 C5 110 5 110 2.4375 109.8125 C0 109 0 109 -2 107 C-2.1953125 104.1796875 -2.1953125 104.1796875 -2.125 100.875 C-2.10695312 99.77929688 -2.08890625 98.68359375 -2.0703125 97.5546875 C-2.04710937 96.71164062 -2.02390625 95.86859375 -2 95 C-3.299375 94.95875 -4.59875 94.9175 -5.9375 94.875 C-12.65480054 94.15339425 -18.65627382 90.13471335 -23 85 C-23.375 81.9375 -23.375 81.9375 -23 79 C-20 77 -20 77 -17.6875 77.0625 C-14.7511778 78.08679844 -13.00569031 79.5541729 -10.8203125 81.74609375 C-8.35499706 83.58710168 -8.35499706 83.58710168 -2 85 C-2 76.42 -2 67.84 -2 59 C-3.98 58.67 -5.96 58.34 -8 58 C-15.16268297 54.3375278 -20.33051034 49.69441138 -23 42 C-23.93867765 35.38973315 -23.45258099 30.17552705 -19.48828125 24.71484375 C-15.68038869 20.32727201 -11.40496371 17.23248501 -6 15 C-4.68 15 -3.36 15 -2 15 C-2.02320313 14.08476562 -2.04640625 13.16953125 -2.0703125 12.2265625 C-2.08835938 11.03804688 -2.10640625 9.84953125 -2.125 8.625 C-2.14820313 7.44164062 -2.17140625 6.25828125 -2.1953125 5.0390625 C-2 2 -2 2 0 0 Z " fill="#040302" transform="translate(192,355)"/>
<path d="M0 0 C2.5 0.25 2.5 0.25 4.5 2.25 C4.6953125 4.4140625 4.6953125 4.4140625 4.625 6.875 C4.60695313 7.69226563 4.58890625 8.50953125 4.5703125 9.3515625 C4.54710937 9.97804688 4.52390625 10.60453125 4.5 11.25 C5.7375 11.3428125 5.7375 11.3428125 7 11.4375 C12.59114013 12.73544324 17.73662682 15.85557339 21.5 20.25 C21.8125 22.8125 21.8125 22.8125 21.5 25.25 C19.5 27.25 19.5 27.25 16.6875 27.625 C12.80196646 27.16787841 11.37469231 25.81391477 8.5 23.25 C7.51 22.92 6.52 22.59 5.5 22.25 C5.5 28.19 5.5 34.13 5.5 40.25 C7.15 40.58 8.8 40.91 10.5 41.25 C15.65769995 44.15002543 19.65726505 47.49145328 21.5 53.25 C22.21479043 59.58100099 21.14057767 63.99138781 17.5 69.25 C14.0637979 73.14951025 10.73457658 74.87610167 5.5 75.25 C5.54640625 75.85328125 5.5928125 76.4565625 5.640625 77.078125 C5.93402545 83.5748493 5.93402545 83.5748493 3.8125 86.875 C1.5 88.25 1.5 88.25 -1.1875 88.0625 C-3.5 87.25 -3.5 87.25 -4.5 86.25 C-4.57205511 84.56391034 -4.58386068 82.87499341 -4.5625 81.1875 C-4.55347656 80.26839844 -4.54445313 79.34929687 -4.53515625 78.40234375 C-4.52355469 77.69207031 -4.51195312 76.98179687 -4.5 76.25 C-5.655 76.20875 -6.81 76.1675 -8 76.125 C-13.21638874 75.46481533 -16.93378362 73.06337989 -20.5 69.25 C-21.6875 66.0625 -21.6875 66.0625 -21.5 63.25 C-20.375 61.3125 -20.375 61.3125 -18.5 60.25 C-13.9911362 60.37186118 -11.10612902 62.74138851 -7.5 65.25 C-6.51 65.58 -5.52 65.91 -4.5 66.25 C-4.5 60.31 -4.5 54.37 -4.5 48.25 C-6.15 47.92 -7.8 47.59 -9.5 47.25 C-14.56492538 44.40097947 -18.94978134 40.82742768 -21.3125 35.375 C-22.1 26.45 -22.1 26.45 -19.9375 22.125 C-16.15283448 17.66103554 -12.85543675 13.84956572 -7.0625 12.375 C-5.7940625 12.313125 -5.7940625 12.313125 -4.5 12.25 C-4.52320313 11.55132812 -4.54640625 10.85265625 -4.5703125 10.1328125 C-4.58835937 9.22273438 -4.60640625 8.31265625 -4.625 7.375 C-4.64820313 6.47007812 -4.67140625 5.56515625 -4.6953125 4.6328125 C-4.41286704 1.18697783 -3.40798164 0.34079816 0 0 Z " fill="#060500" transform="translate(391.5,361.75)"/>
<path d="M0 0 C1.56234375 -0.01836914 1.56234375 -0.01836914 3.15625 -0.03710938 C9.13551629 -0.04843374 14.27382143 0.44624618 20 2.1875 C19.44570313 3.16589844 18.89140625 4.14429688 18.3203125 5.15234375 C17.58794764 6.47623407 16.85621045 7.80047173 16.125 9.125 C15.57779297 10.0850293 15.57779297 10.0850293 15.01953125 11.06445312 C12.14371365 16.31935619 11.37979853 19.97840663 10 26.1875 C-8.81 26.1875 -27.62 26.1875 -47 26.1875 C-47.66 23.2175 -48.32 20.2475 -49 17.1875 C-49.99617179 14.41490102 -49.99617179 14.41490102 -51.125 12.125 C-51.47820312 11.37089844 -51.83140625 10.61679687 -52.1953125 9.83984375 C-52.59363281 9.02193359 -52.59363281 9.02193359 -53 8.1875 C-51.87464844 8.10113281 -50.74929688 8.01476562 -49.58984375 7.92578125 C-40.32262385 7.11274257 -32.12946072 5.63265676 -23.4296875 2.30859375 C-15.78286535 -0.1909939 -7.9679683 0.00493067 0 0 Z " fill="#A36942" transform="translate(410,272.8125)"/>
<path d="M0 0 C0.7354303 -0.00365067 1.4708606 -0.00730133 2.22857666 -0.01106262 C4.65522483 -0.01915672 7.08120282 -0.00556795 9.5078125 0.0090332 C11.19645182 0.00955195 12.88509175 0.00903369 14.57373047 0.00752258 C18.11109443 0.00761226 21.64823025 0.01803138 25.18554688 0.03613281 C29.718471 0.05881981 34.25106182 0.05936354 38.7840271 0.05261517 C42.27045653 0.04927275 45.75681006 0.05591042 49.2432251 0.0657444 C50.91456709 0.06959198 52.58591752 0.07074645 54.25726318 0.06915855 C56.59354726 0.06878745 58.92940501 0.0814205 61.265625 0.09765625 C61.95561584 0.09517883 62.64560669 0.09270142 63.35650635 0.09014893 C66.93134498 0.12977235 69.66453252 0.28533783 72.6328125 2.37231445 C74.6328125 5.37231445 74.6328125 5.37231445 74.4453125 8.87231445 C73.36898357 13.5088083 73.36898357 13.5088083 70.6328125 15.37231445 C68.04434853 15.67861995 65.69401303 15.80275545 63.10375977 15.79223633 C62.33921478 15.80070587 61.5746698 15.80917542 60.78695679 15.81790161 C58.25754195 15.84131669 55.72873381 15.84229273 53.19921875 15.84106445 C51.44188696 15.84816339 49.68455749 15.85586199 47.92723083 15.86413574 C44.24268146 15.87759094 40.55834638 15.87914472 36.8737793 15.87329102 C32.15106544 15.86739423 27.42937937 15.89798008 22.70686436 15.9384079 C19.07714799 15.96425281 15.44768014 15.96716525 11.81788445 15.96351624 C10.07673497 15.96521054 8.33557439 15.97488294 6.59451485 15.99266052 C4.1593962 16.01478798 1.726371 16.00518227 -0.70874023 15.98754883 C-1.78816139 16.0074437 -1.78816139 16.0074437 -2.88938904 16.02774048 C-6.58845064 15.96547406 -8.10179663 15.61984988 -10.84584045 13.0604248 C-12.3671875 10.37231445 -12.3671875 10.37231445 -12.3671875 6.74731445 C-10.4155796 0.1606378 -6.23764158 -0.06910077 0 0 Z " fill="#7D5336" transform="translate(360.3671875,308.627685546875)"/>
<path d="M0 0 C0 7.92 0 15.84 0 24 C-4.80210037 22.07915985 -6.60863889 20.67397453 -10 17 C-10.33 16.67 -10.66 16.34 -11 16 C-11.47177341 11.36089485 -11.7464188 8.34754483 -8.75 4.625 C-3.9047619 0 -3.9047619 0 0 0 Z " fill="#F5BC72" transform="translate(190,380)"/>
<path d="M0 0 C6.1186736 2.03955787 7.65320943 2.78294411 11 8 C11.82183108 12.60225405 11.40772129 14.36443446 8.875 18.3125 C6 21 6 21 0 23 C0 15.41 0 7.82 0 0 Z " fill="#FCC175" transform="translate(200,416)"/>
<path d="M0 0 C5 2 5 2 7 5 C6.77777778 11.22222222 6.77777778 11.22222222 4.0625 13.9375 C2 15 2 15 0 15 C0 10.05 0 5.1 0 0 Z " fill="#D0AA15" transform="translate(396,412)"/>
<path d="M0 0 C0 4.62 0 9.24 0 14 C-4 12 -4 12 -6 9 C-6.375 6.5625 -6.375 6.5625 -6 4 C-2.75675676 0 -2.75675676 0 0 0 Z " fill="#E8BD18" transform="translate(386,385)"/>
</svg>
