<?xml version="1.0" encoding="UTF-8"?>
<svg version="1.1" xmlns="http://www.w3.org/2000/svg" width="512" height="512">
<path d="M0 0 C153.12 0 306.24 0 464 0 C464 52.8 464 105.6 464 160 C421.76 160 379.52 160 336 160 C336 183.76 336 207.52 336 232 C338.64 232 341.28 232 344 232 C343.95875 232.969375 343.9175 233.93875 343.875 234.9375 C344.74658429 241.03859004 350.54217878 244.32739833 355 248 C356.67446974 249.4912843 358.34132993 250.99116225 360 252.5 C361.2375 253.61375 361.2375 253.61375 362.5 254.75 C400 288.5 400 288.5 402.46484375 290.734375 C404.22792771 292.31001243 406.01371406 293.86046186 407.81640625 295.390625 C408.72261719 296.16921875 409.62882812 296.9478125 410.5625 297.75 C411.38878906 298.44609375 412.21507812 299.1421875 413.06640625 299.859375 C415.33781903 302.37398955 415.64054091 303.66872398 416 307 C415.46267414 309.25836468 415.46267414 309.25836468 414.51472473 311.59611511 C414.16007141 312.48885132 413.80541809 313.38158752 413.4400177 314.30137634 C412.84092842 315.75163963 412.84092842 315.75163963 412.22973633 317.23120117 C411.81690399 318.25950043 411.40407166 319.28779968 410.97872925 320.34725952 C409.60871451 323.75090599 408.22047738 327.14680402 406.83203125 330.54296875 C405.87498047 332.91037484 404.91907912 335.2782459 403.96427917 337.64656067 C401.70127909 343.25182046 399.4268258 348.85229588 397.14673489 354.45061427 C394.56804116 360.78384382 392.0036551 367.12283013 389.44065058 373.46242177 C385.05092597 384.31986688 380.65135333 395.17327045 376.23762512 406.02098083 C375.86887268 406.92781616 375.50012024 407.83465149 375.12019348 408.76896667 C374.80548505 409.54230945 374.49077662 410.31565222 374.16653156 411.11242962 C365.46345207 432.65557116 368.85166838 429.9332649 368 464 C331.04 464 294.08 464 256 464 C255.67 450.8 255.34 437.6 255 424 C245.19375671 408.35013177 245.19375671 408.35013177 229.6762085 400.45532227 C219.66070892 398.81618287 209.34230183 399.03649749 199.26481628 400.019104 C193.60710335 400.44657583 189.76050764 399.06121802 185 396 C182.7578125 394.03515625 182.7578125 394.03515625 181.125 392.0625 C180.57070312 391.41410156 180.01640625 390.76570313 179.4453125 390.09765625 C174.96587903 383.59642443 175.32536272 376.62859083 176 369 C177.71108626 362.22063292 182.55088383 358.06914519 188 354 C188.66 353.67 189.32 353.34 190 353 C189.154375 352.97421875 188.30875 352.9484375 187.4375 352.921875 C177.81287003 352.4406435 171.74229166 351.24931267 165.125 344.0625 C159.88493802 337.9328461 159.54743525 332.31566857 159.6953125 324.4453125 C160.31557397 317.43158661 162.97811042 313.70405861 168.125 309.0625 C170.06196634 307.45810712 171.75203163 306.12398418 174 305 C158.82 304.67 143.64 304.34 128 304 C128 256.48 128 208.96 128 160 C85.76 160 43.52 160 0 160 C0 107.2 0 54.4 0 0 Z " fill="#55B569" transform="translate(24,24)"/>
<path d="M0 0 C153.12 0 306.24 0 464 0 C464 52.8 464 105.6 464 160 C421.76 160 379.52 160 336 160 C336 149.44 336 138.88 336 128 C367.68 128 399.36 128 432 128 C432 112.16 432 96.32 432 80 C300 80 168 80 32 80 C32 95.84 32 111.68 32 128 C63.68 128 95.36 128 128 128 C128 138.56 128 149.12 128 160 C85.76 160 43.52 160 0 160 C0 107.2 0 54.4 0 0 Z " fill="#AABECE" transform="translate(24,24)"/>
<path d="M0 0 C5.6269859 3.86085164 9.9495019 9.00290968 12.140625 15.46875 C12.36767578 18.0559082 12.36767578 18.0559082 12.3359375 20.76953125 C12.32626953 22.23422852 12.32626953 22.23422852 12.31640625 23.72851562 C12.29126953 25.23961914 12.29126953 25.23961914 12.265625 26.78125 C12.25660156 27.80798828 12.24757813 28.83472656 12.23828125 29.89257812 C12.21478701 32.41820899 12.18193631 34.9433581 12.140625 37.46875 C14.780625 37.46875 17.420625 37.46875 20.140625 37.46875 C20.099375 38.438125 20.058125 39.4075 20.015625 40.40625 C20.88720929 46.50734004 26.68280378 49.79614833 31.140625 53.46875 C32.81509474 54.9600343 34.48195493 56.45991225 36.140625 57.96875 C36.965625 58.71125 37.790625 59.45375 38.640625 60.21875 C76.140625 93.96875 76.140625 93.96875 78.60546875 96.203125 C80.36855271 97.77876243 82.15433906 99.32921186 83.95703125 100.859375 C84.86324219 101.63796875 85.76945312 102.4165625 86.703125 103.21875 C87.94255859 104.26289063 87.94255859 104.26289063 89.20703125 105.328125 C91.47844403 107.84273955 91.78116591 109.13747398 92.140625 112.46875 C91.60329914 114.72711468 91.60329914 114.72711468 90.65534973 117.06486511 C90.30069641 117.95760132 89.94604309 118.85033752 89.5806427 119.77012634 C88.98155342 121.22038963 88.98155342 121.22038963 88.37036133 122.69995117 C87.95752899 123.72825043 87.54469666 124.75654968 87.11935425 125.81600952 C85.74933951 129.21965599 84.36110238 132.61555402 82.97265625 136.01171875 C82.01560547 138.37912484 81.05970412 140.7469959 80.10490417 143.11531067 C77.84190409 148.72057046 75.5674508 154.32104588 73.28735989 159.91936427 C70.70866616 166.25259382 68.1442801 172.59158013 65.58127558 178.93117177 C61.19155097 189.78861688 56.79197833 200.64202045 52.37825012 211.48973083 C52.00949768 212.39656616 51.64074524 213.30340149 51.26081848 214.23771667 C50.94611005 215.01105945 50.63140162 215.78440222 50.30715656 216.58117962 C41.60407707 238.12432116 44.99229338 235.4020149 44.140625 269.46875 C7.180625 269.46875 -29.779375 269.46875 -67.859375 269.46875 C-68.189375 256.26875 -68.519375 243.06875 -68.859375 229.46875 C-78.66561829 213.81888177 -78.66561829 213.81888177 -94.1831665 205.92407227 C-104.19866608 204.28493287 -114.51707317 204.50524749 -124.59455872 205.487854 C-130.25227165 205.91532583 -134.09886736 204.52996802 -138.859375 201.46875 C-141.1015625 199.50390625 -141.1015625 199.50390625 -142.734375 197.53125 C-143.28867188 196.88285156 -143.84296875 196.23445312 -144.4140625 195.56640625 C-148.89349597 189.06517443 -148.53401228 182.09734083 -147.859375 174.46875 C-146.14828874 167.68938292 -141.30849117 163.53789519 -135.859375 159.46875 C-135.199375 159.13875 -134.539375 158.80875 -133.859375 158.46875 C-134.705 158.44296875 -135.550625 158.4171875 -136.421875 158.390625 C-146.04650497 157.9093935 -152.11708334 156.71806267 -158.734375 149.53125 C-163.97443698 143.4015961 -164.31193975 137.78441857 -164.1640625 129.9140625 C-163.54380103 122.90033661 -160.88126458 119.17280861 -155.734375 114.53125 C-153.79740866 112.92685712 -152.10734337 111.59273418 -149.859375 110.46875 C-165.039375 110.13875 -180.219375 109.80875 -195.859375 109.46875 C-195.859375 90.98875 -195.859375 72.50875 -195.859375 53.46875 C-186.84056032 53.46875 -186.84056032 53.46875 -183.9296875 54.3515625 C-183.28451172 54.5460498 -182.63933594 54.74053711 -181.97460938 54.94091797 C-181.31783203 55.15635254 -180.66105469 55.37178711 -179.984375 55.59375 C-178.94120117 55.93043701 -178.94120117 55.93043701 -177.87695312 56.27392578 C-163.27893825 61.20431382 -152.54350291 70.67191444 -145.3828125 84.2734375 C-141.20521381 93.09281251 -139.859375 99.47520006 -139.859375 109.46875 C-105.539375 109.46875 -71.219375 109.46875 -35.859375 109.46875 C-36.01757857 78.89341287 -36.01757857 78.89341287 -36.21972656 48.31835938 C-36.23779297 42.38769531 -36.23779297 42.38769531 -36.2411499 39.6060791 C-36.24726845 37.67472644 -36.26128746 35.74338851 -36.28167725 33.81213379 C-36.31110641 30.87644143 -36.31499416 27.94167791 -36.31347656 25.00585938 C-36.327869 24.15401817 -36.34226143 23.30217697 -36.35709 22.4245224 C-36.30895974 15.43388021 -34.32992041 10.25308562 -29.67578125 5.0078125 C-28.93199219 4.37617188 -28.18820312 3.74453125 -27.421875 3.09375 C-26.68066406 2.44664062 -25.93945312 1.79953125 -25.17578125 1.1328125 C-17.68122943 -4.25113198 -8.10718954 -4.08275732 0 0 Z " fill="#FED681" transform="translate(347.859375,218.53125)"/>
<path d="M0 0 C73.92 0 147.84 0 224 0 C224 15.84 224 31.68 224 48 C150.08 48 76.16 48 0 48 C0 32.16 0 16.32 0 0 Z " fill="#7D8D9C" transform="translate(144,24)"/>
<path d="M0 0 C9.01881468 0 9.01881468 0 11.9296875 0.8828125 C12.57486328 1.0772998 13.22003906 1.27178711 13.88476562 1.47216797 C14.54154297 1.68760254 15.19832031 1.90303711 15.875 2.125 C16.57044922 2.34945801 17.26589844 2.57391602 17.98242188 2.80517578 C32.58043675 7.73556382 43.31587209 17.20316444 50.4765625 30.8046875 C54.65416119 39.62406251 56 46.00645006 56 56 C89.99 56 123.98 56 159 56 C156.31571954 58.68428046 153.15735591 59.78445573 149.7109375 61.23046875 C148.9748526 61.54397781 148.2387677 61.85748688 147.4803772 62.18049622 C145.11382443 63.18739035 142.74453846 64.18765507 140.375 65.1875 C138.06516022 66.16699824 135.75591205 67.14787814 133.44683838 68.12918091 C131.9158166 68.77951043 130.38436317 69.42882471 128.85247803 70.07711792 C125.00679099 71.70744948 121.17185621 73.35803703 117.35253906 75.04931641 C116.6156485 75.37531326 115.87875793 75.70131012 115.11953735 76.03718567 C113.72155591 76.65763811 112.32497655 77.28126222 110.93002319 77.90849304 C106.2187525 80 106.2187525 80 104 80 C104 103.76 104 127.52 104 152 C97.73 152.0825 91.46 152.165 85 152.25 C82.05513672 152.30462402 82.05513672 152.30462402 79.05078125 152.36035156 C77.47136524 152.3720486 75.89193705 152.38223801 74.3125 152.390625 C73.51134766 152.41108887 72.71019531 152.43155273 71.88476562 152.45263672 C65.07513799 152.45679908 59.9022477 150.54325887 54.7578125 146.03515625 C53.94957031 145.05869141 53.94957031 145.05869141 53.125 144.0625 C52.57070312 143.41410156 52.01640625 142.76570312 51.4453125 142.09765625 C46.96587903 135.59642443 47.32536272 128.62859083 48 121 C49.71108626 114.22063292 54.55088383 110.06914519 60 106 C60.66 105.67 61.32 105.34 62 105 C61.154375 104.97421875 60.30875 104.9484375 59.4375 104.921875 C49.81287003 104.4406435 43.74229166 103.24931267 37.125 96.0625 C31.88493802 89.9328461 31.54743525 84.31566857 31.6953125 76.4453125 C32.31557397 69.43158661 34.97811042 65.70405861 40.125 61.0625 C42.06196634 59.45810712 43.75203163 58.12398418 46 57 C30.82 56.67 15.64 56.34 0 56 C0 37.52 0 19.04 0 0 Z " fill="#F9BB4B" transform="translate(152,272)"/>
<path d="M0 0 C31.68 0 63.36 0 96 0 C96 15.84 96 31.68 96 48 C64.32 48 32.64 48 0 48 C0 32.16 0 16.32 0 0 Z " fill="#394D5C" transform="translate(360,104)"/>
<path d="M0 0 C31.68 0 63.36 0 96 0 C96 15.84 96 31.68 96 48 C64.32 48 32.64 48 0 48 C0 32.16 0 16.32 0 0 Z " fill="#394D5C" transform="translate(56,104)"/>
<path d="M0 0 C5.28 0 10.56 0 16 0 C16 15.84 16 31.68 16 48 C21.28 48 26.56 48 32 48 C31.97381592 46.72358643 31.94763184 45.44717285 31.9206543 44.13208008 C31.83004584 39.3892576 31.77271173 34.64651138 31.7253418 29.90307617 C31.70022194 27.85151294 31.66611964 25.80003899 31.62280273 23.7487793 C31.56203998 20.79713909 31.53376508 17.8466835 31.51171875 14.89453125 C31.48591232 13.97976517 31.4601059 13.06499908 31.43351746 12.12251282 C31.43162839 7.81812975 31.61145875 5.59707527 34.00512695 1.91870117 C37.8371181 -0.5363097 40.99543914 -0.68793184 45.40625 -0.59375 C46.60973083 -0.59381042 46.60973083 -0.59381042 47.83752441 -0.59387207 C49.52864443 -0.58852641 51.2197646 -0.57098422 52.91064453 -0.54199219 C55.49198724 -0.50012994 58.07071867 -0.50092685 60.65234375 -0.5078125 C62.29949721 -0.49731904 63.94663728 -0.48438008 65.59375 -0.46875 C66.7455072 -0.46844788 66.7455072 -0.46844788 67.92053223 -0.46813965 C72.43224744 -0.36901692 75.41712988 0.19347566 79 3 C80.17426264 5.34852528 80.11508173 6.73774065 80.09765625 9.3515625 C80.09282227 10.62773437 80.09282227 10.62773437 80.08789062 11.9296875 C80.07532227 13.26386719 80.07532227 13.26386719 80.0625 14.625 C80.05798828 15.5221875 80.05347656 16.419375 80.04882812 17.34375 C80.03702611 19.56252831 80.01909039 21.78127243 80 24 C85.28 24 90.56 24 96 24 C96 29.28 96 34.56 96 40 C90.72 40 85.44 40 80 40 C80 47.92 80 55.84 80 64 C74.72 64 69.44 64 64 64 C64 48.16 64 32.32 64 16 C58.72 16 53.44 16 48 16 C48.01571045 17.24612061 48.0314209 18.49224121 48.04760742 19.77612305 C48.10198073 24.40724198 48.13637711 29.03833278 48.16479492 33.66967773 C48.17986465 35.67265572 48.2003241 37.6756008 48.22631836 39.6784668 C48.26278127 42.56046681 48.27974461 45.44202984 48.29296875 48.32421875 C48.30845261 49.21711105 48.32393646 50.11000336 48.33988953 51.029953 C48.34117575 55.80088712 48.24028887 59.19952077 45 63 C41.2303119 64.2565627 37.68282257 64.18175362 33.75390625 64.203125 C32.94638412 64.20882507 32.138862 64.21452515 31.30686951 64.22039795 C29.59969388 64.22983834 27.89250011 64.23637812 26.18530273 64.24023438 C23.57568625 64.2499509 20.96685393 64.2809869 18.35742188 64.3125 C16.69792134 64.31902933 15.03841518 64.32428007 13.37890625 64.328125 C12.59963272 64.3404718 11.82035919 64.3528186 11.01747131 64.36553955 C7.77722836 64.35223287 5.41616205 64.22539875 2.53881836 62.66699219 C0.00870095 59.92613202 -0.12290112 57.32905832 -0.09765625 53.76953125 C-0.09443359 52.96708984 -0.09121094 52.16464844 -0.08789062 51.33789062 C-0.07951172 50.50451172 -0.07113281 49.67113281 -0.0625 48.8125 C-0.05798828 47.96751953 -0.05347656 47.12253906 -0.04882812 46.25195312 C-0.03705403 44.16793845 -0.0191189 42.08396023 0 40 C-5.28 40 -10.56 40 -16 40 C-16 34.72 -16 29.44 -16 24 C-10.72 24 -5.44 24 0 24 C0 16.08 0 8.16 0 0 Z " fill="#FBEF5A" transform="translate(216,128)"/>
<path d="M0 0 C5.28 0 10.56 0 16 0 C16.33 37.62 16.66 75.24 17 114 C19.64 111.36 22.28 108.72 25 106 C28.84281736 107.92140868 30.80431927 109.5926816 33.75 112.625 C34.54921875 113.44226563 35.3484375 114.25953125 36.171875 115.1015625 C36.77515625 115.72804688 37.3784375 116.35453125 38 117 C36.41921612 120.83418237 33.98192672 123.26189306 31.0625 126.16796875 C30.58176025 126.64825027 30.10102051 127.1285318 29.60571289 127.62336731 C28.59269849 128.6333707 27.5772648 129.64095273 26.55957031 130.64624023 C25.00004002 132.18746045 23.4487143 133.73658712 21.8984375 135.28710938 C13.32570216 143.81714453 13.32570216 143.81714453 8.375 144.5 C4.66893009 144.44075922 3.02628 143.55339362 0.3203125 141.05859375 C-0.3711084 140.42356934 -1.0625293 139.78854492 -1.77490234 139.13427734 C-5.73942426 135.33157265 -9.63612095 131.46728331 -13.5 127.5625 C-14.32242188 126.73556641 -15.14484375 125.90863281 -15.9921875 125.05664062 C-17.99712113 123.04005041 -19.99966253 121.02114764 -22 119 C-20.30413874 115.36696916 -18.26199512 113.05450954 -15.375 110.25 C-14.55773437 109.45078125 -13.74046875 108.6515625 -12.8984375 107.828125 C-12.27195312 107.22484375 -11.64546875 106.6215625 -11 106 C-6.37866085 107.77743813 -4.93994379 110.06005621 -1 114 C-0.67 76.38 -0.34 38.76 0 0 Z " fill="#2C75BB" transform="translate(96,208)"/>
<path d="M0 0 C0.76163452 0.00201416 1.52326904 0.00402832 2.3079834 0.00610352 C5.13637365 0.01651909 7.96467764 0.04444154 10.79296875 0.0703125 C17.12484375 0.1115625 23.45671875 0.1528125 29.98046875 0.1953125 C29.98046875 16.0353125 29.98046875 31.8753125 29.98046875 48.1953125 C23.71046875 48.2778125 17.44046875 48.3603125 10.98046875 48.4453125 C8.03560547 48.49993652 8.03560547 48.49993652 5.03125 48.55566406 C3.45183399 48.5673611 1.8724058 48.57755051 0.29296875 48.5859375 C-0.50818359 48.60640137 -1.30933594 48.62686523 -2.13476562 48.64794922 C-8.94439326 48.65211158 -14.11728355 46.73857137 -19.26171875 42.23046875 C-19.80054688 41.57949219 -20.339375 40.92851562 -20.89453125 40.2578125 C-21.44882813 39.60941406 -22.003125 38.96101563 -22.57421875 38.29296875 C-27.05365222 31.79173693 -26.69416853 24.82390333 -26.01953125 17.1953125 C-24.33867542 10.53571917 -19.55574803 6.00983803 -14.01953125 2.1953125 C-9.38156526 -0.22335281 -5.09863476 -0.0638933 0 0 Z " fill="#EDAE49" transform="translate(226.01953125,375.8046875)"/>
<path d="M0 0 C9.01881468 0 9.01881468 0 11.9296875 0.8828125 C12.57486328 1.0772998 13.22003906 1.27178711 13.88476562 1.47216797 C14.54154297 1.68760254 15.19832031 1.90303711 15.875 2.125 C16.57044922 2.34945801 17.26589844 2.57391602 17.98242188 2.80517578 C32.58043675 7.73556382 43.31587209 17.20316444 50.4765625 30.8046875 C54.65416119 39.62406251 56 46.00645006 56 56 C37.52 56 19.04 56 0 56 C0 37.52 0 19.04 0 0 Z " fill="#C7D852" transform="translate(152,272)"/>
<path d="M0 0 C1.95373787 0.01061211 1.95373787 0.01061211 3.94694519 0.0214386 C7.39810759 0.04046612 10.84820614 0.08952686 14.2989502 0.1449585 C17.82480479 0.19624476 21.35083248 0.21897242 24.87695312 0.24414062 C31.78693759 0.29765262 38.69604246 0.38555178 45.60546875 0.48828125 C45.60546875 5.76828125 45.60546875 11.04828125 45.60546875 16.48828125 C29.76546875 16.48828125 13.92546875 16.48828125 -2.39453125 16.48828125 C-2.39453125 21.76828125 -2.39453125 27.04828125 -2.39453125 32.48828125 C-7.67453125 32.48828125 -12.95453125 32.48828125 -18.39453125 32.48828125 C-18.52940416 28.09142442 -18.62861704 23.69869845 -18.70703125 19.30078125 C-18.74892578 18.05490234 -18.79082031 16.80902344 -18.83398438 15.52539062 C-18.85009766 14.32333984 -18.86621094 13.12128906 -18.8828125 11.8828125 C-18.90899658 10.77784424 -18.93518066 9.67287598 -18.9621582 8.53442383 C-18.39453125 5.48828125 -18.39453125 5.48828125 -16.70117188 2.61914062 C-11.4176684 -0.78564513 -6.1468613 -0.12542317 0 0 Z " fill="#F3F3E5" transform="translate(66.39453125,47.51171875)"/>
<path d="M0 0 C7.47588274 -0.06785817 14.95159632 -0.12286332 22.42772198 -0.15543652 C25.8994411 -0.17107243 29.37093803 -0.19227212 32.8425293 -0.22631836 C36.83644712 -0.26524063 40.83013263 -0.27972629 44.82421875 -0.29296875 C46.06709152 -0.30845261 47.30996429 -0.32393646 48.59049988 -0.33988953 C49.75132584 -0.34011612 50.91215179 -0.34034271 52.1081543 -0.34057617 C53.63704536 -0.35056892 53.63704536 -0.35056892 55.19682312 -0.36076355 C58.47230388 0.06078461 60.34857323 1.06215722 63 3 C64.38308781 5.76617563 64.11210196 8.01018 64.09765625 11.1015625 C64.09282227 12.91914062 64.09282227 12.91914062 64.08789062 14.7734375 C64.07532227 16.67996094 64.07532227 16.67996094 64.0625 18.625 C64.05798828 19.90375 64.05347656 21.1825 64.04882812 22.5 C64.03701213 25.66668645 64.01907621 28.83334896 64 32 C58.72 32 53.44 32 48 32 C48 26.72 48 21.44 48 16 C32.16 16 16.32 16 0 16 C0 10.72 0 5.44 0 0 Z " fill="#F3F3E5" transform="translate(400,48)"/>
<path d="M0 0 C5.28 0 10.56 0 16 0 C16 23.76 16 47.52 16 72 C10.72 72 5.44 72 0 72 C0 48.24 0 24.48 0 0 Z " fill="#F9BB4B" transform="translate(352,256)"/>
</svg>
