<?xml version="1.0" encoding="UTF-8"?>
<svg version="1.1" xmlns="http://www.w3.org/2000/svg" width="512" height="512">
<path d="M0 0 C2.62101388 1.9293676 4.74663717 4.228075 6.9375 6.625 C8.16074009 7.91077925 9.385985 9.19465434 10.61328125 10.4765625 C11.1954541 11.09047852 11.77762695 11.70439453 12.37744141 12.33691406 C14.35302626 14.36184395 16.44815332 16.19481007 18.625 18 C21.76946887 20.70491945 24.17900574 23.19966415 26 27 C26 30.77279648 25.8279979 32.9732826 23.4375 35.9375 C19.84797226 37.50216594 16.7674583 37.98429091 13 37 C10.00624305 34.96796808 7.50322943 32.60310891 5 30 C4.67 29.67 4.34 29.34 4 29 C3.67 44.84 3.34 60.68 3 77 C7.95 76.01 12.9 75.02 18 74 C26.07028595 73.24044368 31.2059088 74.51215994 38 79 C44.05480619 84.43380042 44.98843947 93.30457691 46 101 C47.01320313 101.09796875 48.02640625 101.1959375 49.0703125 101.296875 C50.42197055 101.44705923 51.77352817 101.59814923 53.125 101.75 C54.12273437 101.8428125 54.12273437 101.8428125 55.140625 101.9375 C60.05191425 102.51529873 63.15019655 103.93263083 67 107 C71.45360989 112.89802391 72.72161822 117.66708544 72 125 C69.78873048 136.16093469 64.23732417 147.31040472 57.2109375 156.28515625 C55.70024535 158.04310431 55.70024535 158.04310431 56.1875 160.875 C56.92334424 163.96569481 56.92334424 163.96569481 58.0625 166.6875 C59.80912682 172.85891475 59.85858008 179.16174858 57.4375 185.125 C56.56499043 188.91061129 56.56499043 188.91061129 58.5546875 191.10546875 C60.12456977 192.64004225 61.73218815 194.13656309 63.3671875 195.6015625 C67.78428838 199.62544965 71.34977812 204.28564564 75 209 C75.78117187 210.00289062 76.56234375 211.00578125 77.3671875 212.0390625 C96.12715906 236.81581367 111.48893066 269.49954457 112 301 C113.051875 301.14695312 113.051875 301.14695312 114.125 301.296875 C124.25148314 302.8928968 131.47644733 305.849709 138 314 C143.86752024 323.12116075 144.97625908 332.43461492 143 343 C140.32335818 350.37075247 136.26373836 356.0957543 130.34765625 361.19140625 C126.22098326 364.78190548 122.22438571 368.49255136 118.25 372.25 C112.51185663 377.65236904 106.74064591 383.01259914 100.921875 388.328125 C97.79356015 391.18877655 94.6763228 394.0610975 91.5625 396.9375 C91.02214111 397.43660889 90.48178223 397.93571777 89.92504883 398.44995117 C88.83035108 399.46120612 87.73570604 400.47251812 86.64111328 401.48388672 C85.00979813 402.99094817 83.37804191 404.4975303 81.74609375 406.00390625 C81.21000488 406.49890625 80.67391602 406.99390625 80.12158203 407.50390625 C79.04388058 408.49820834 77.96543411 409.49170357 76.88623047 410.484375 C74.09669441 413.05233208 71.32384019 415.63539727 68.57421875 418.24609375 C57.86598779 428.37152211 49.71993234 434.40314066 34.62402344 434.16357422 C33.7109845 434.1574411 32.79794556 434.15130798 31.85723877 434.14498901 C29.88584583 434.13074137 27.91448127 434.11199448 25.94316864 434.08919907 C22.82490655 434.05430175 19.70685087 434.03378599 16.58843994 434.0173645 C7.72640496 433.96854121 -1.13534929 433.89702443 -9.99707031 433.80810547 C-15.4256381 433.75463497 -20.85404767 433.72049303 -26.28282928 433.69836807 C-28.35139599 433.68593418 -30.41993125 433.66590553 -32.48834991 433.6382103 C-35.37297393 433.59990535 -38.25675807 433.58600593 -41.14160156 433.57763672 C-41.99878784 433.56011353 -42.85597412 433.54259033 -43.73913574 433.52453613 C-48.38151727 433.46973913 -48.38151727 433.46973913 -52.0536499 436.02639771 C-52.36594543 436.67768646 -52.67824097 437.32897522 -53 438 C-52.27683594 438.88751953 -52.27683594 438.88751953 -51.5390625 439.79296875 C-50.90742188 440.58316406 -50.27578125 441.37335938 -49.625 442.1875 C-48.99851563 442.96480469 -48.37203125 443.74210937 -47.7265625 444.54296875 C-44.96437246 448.47377765 -43.70344795 451.94898542 -43.625 456.75 C-43.59664062 457.52859375 -43.56828125 458.3071875 -43.5390625 459.109375 C-45.12096675 469.02979151 -51.22558938 474.88234306 -58.25 481.625 C-59.16652344 482.52734375 -60.08304688 483.4296875 -61.02734375 484.359375 C-66.20181483 489.42312274 -71.50711634 494.28579149 -77 499 C-77.845625 499.763125 -78.69125 500.52625 -79.5625 501.3125 C-85.01446628 505.0869382 -90.11737312 505.18974876 -96.47265625 504.58203125 C-101.82680825 503.34900397 -105.6900975 500.68547541 -109.51733398 496.83911133 C-110.35517929 496.00426712 -111.1930246 495.16942291 -112.05625916 494.3092804 C-113.38772728 492.95929207 -113.38772728 492.95929207 -114.74609375 491.58203125 C-116.14010155 490.1852137 -116.14010155 490.1852137 -117.56227112 488.76017761 C-119.52602962 486.79183004 -121.48479749 484.81869821 -123.43969727 482.84155273 C-125.92515932 480.32792737 -128.41910214 477.82294544 -130.91644192 475.32112598 C-133.32114447 472.91122203 -135.72115244 470.4966774 -138.12109375 468.08203125 C-139.44952553 466.74722466 -139.44952553 466.74722466 -140.80479431 465.38545227 C-144.49547418 461.65261013 -148.13013789 457.91409615 -151.5546875 453.93432617 C-155.47568621 449.37905928 -159.72541041 445.18594439 -164.00390625 440.96875 C-165.73125489 439.25404234 -167.45846424 437.53919434 -169.18554688 435.82421875 C-171.87818818 433.15639328 -174.57241429 430.49020822 -177.26928711 427.82666016 C-179.89363068 425.2326572 -182.51160449 422.63235521 -185.12890625 420.03125 C-185.92905655 419.24455933 -186.72920685 418.45786865 -187.55360413 417.64733887 C-201.91676775 403.34821853 -201.91676775 403.34821853 -202.02734375 393.5859375 C-201.47625335 384.23153119 -196.97246007 378.50681865 -190.546875 372.11328125 C-189.92782288 371.48898727 -189.30877075 370.8646933 -188.67095947 370.22148132 C-187.3669293 368.91106287 -186.05905889 367.60445579 -184.74755859 366.30151367 C-182.75732072 364.31978941 -180.78646863 362.3201177 -178.81640625 360.31835938 C-177.5401944 359.04053519 -176.26288589 357.76380516 -174.984375 356.48828125 C-174.11362335 355.60067863 -174.11362335 355.60067863 -173.22528076 354.69514465 C-168.49249636 350.04065165 -163.48426811 346.50262058 -156.8046875 345.5390625 C-155.83789062 345.56742187 -154.87109375 345.59578125 -153.875 345.625 C-152.41707031 345.64433594 -152.41707031 345.64433594 -150.9296875 345.6640625 C-148 346 -148 346 -145.16015625 347.43359375 C-142.10422606 348.32224527 -142.10422606 348.32224527 -140.046875 346.93164062 C-137.78858078 345.19078488 -135.67342192 343.35431416 -133.5625 341.4375 C-132.10723986 340.1633389 -130.65022921 338.89117412 -129.19140625 337.62109375 C-128.14364014 336.69852783 -128.14364014 336.69852783 -127.07470703 335.75732422 C-124.17559838 333.30171301 -121.13123431 331.14937164 -118 329 C-118.44911466 325.25737787 -118.91484512 321.53108046 -119.51171875 317.80859375 C-125.14396977 282.05778057 -109.75523215 245.94271553 -89.7890625 216.76953125 C-83.29681307 207.89835288 -76.18954965 198.79841267 -68.09765625 191.31640625 C-67.40542969 190.55199219 -66.71320313 189.78757813 -66 189 C-66.56335882 185.60244457 -66.56335882 185.60244457 -67.3671875 183.3046875 C-68.97517244 177.44844604 -68.74397665 171.23248912 -66.4375 165.625 C-64.87263675 161.67882311 -64.77181945 160.8976506 -66 157 C-67.36328324 154.58608733 -68.75836723 152.26787643 -70.25 149.9375 C-76.67366297 139.58061799 -82.50548138 128.54567813 -81 116 C-79.2901416 110.72174146 -76.7804141 106.95930397 -72 104 C-66.59457734 101.55468975 -60.84586058 101.39527171 -55 101 C-54.85304687 99.83984375 -54.85304687 99.83984375 -54.703125 98.65625 C-53.59032588 90.90502852 -52.35557723 84.35557723 -46.6875 78.6875 C-35.76183651 71.82719967 -27.92966335 73.84505611 -15 76 C-15 61.15 -15 46.3 -15 31 C-17.31 33.31 -19.62 35.62 -22 38 C-26.39906124 38.72223393 -28.69764862 38.86823425 -32.4375 36.375 C-34.37231132 33.4340868 -34.92809193 31.52349544 -35 28 C-32.87048203 23.63851302 -29.70901418 20.50815361 -26.25 17.1875 C-22.71471755 13.73823674 -19.29850948 10.29255729 -16.125 6.5 C-11.19038632 0.79062813 -7.69718881 -2.06275029 0 0 Z " fill="#010101" transform="translate(211,4)"/>
<path d="M0 0 C1.37717949 -0.01073296 1.37717949 -0.01073296 2.78218079 -0.02168274 C3.78740784 -0.02437164 4.79263489 -0.02706055 5.82832336 -0.02983093 C6.88880386 -0.03640213 7.94928436 -0.04297333 9.04190063 -0.04974365 C12.55835539 -0.06948564 16.07476741 -0.08114184 19.59126282 -0.09111023 C20.79210825 -0.09518576 21.99295368 -0.09926128 23.23018837 -0.10346031 C29.58711704 -0.12432574 35.9440241 -0.13862496 42.30097961 -0.147995 C48.86373034 -0.15905518 55.42614161 -0.19344973 61.98877239 -0.23316669 C67.03746161 -0.25932667 72.08606991 -0.26768636 77.13482094 -0.27127647 C79.55368655 -0.27614466 81.9725485 -0.28776515 84.39134789 -0.30631447 C87.78076851 -0.33068976 91.16931047 -0.32974322 94.55879211 -0.32279968 C96.05145096 -0.34201477 96.05145096 -0.34201477 97.57426453 -0.36161804 C103.71026291 -0.31591284 108.41399072 0.5977187 113.51704407 4.14717102 C118.2691112 9.26478178 118.65851525 12.65333991 118.61470032 19.43623352 C118.6125779 20.66386917 118.6125779 20.66386917 118.6104126 21.91630554 C118.60480696 24.53496427 118.59225355 27.15353806 118.57954407 29.77217102 C118.57452979 31.54560729 118.56996676 33.31904489 118.56587219 35.09248352 C118.55483571 39.44407884 118.53756732 43.79561052 118.51704407 48.14717102 C119.32858948 48.12622375 120.14013489 48.10527649 120.97627258 48.08369446 C124.67723549 48.00020019 128.37799973 47.94840347 132.07954407 47.89717102 C133.35636047 47.8636554 134.63317688 47.83013977 135.94868469 47.79560852 C143.0026873 47.72232018 147.88721069 47.68654913 153.51704407 52.14717102 C158.08815094 58.04149304 158.66773043 62.5381958 158.64985657 69.79560852 C158.65081329 70.64515106 158.65177002 71.4946936 158.65275574 72.36997986 C158.65343614 74.16713027 158.65159158 75.96428315 158.64741516 77.76142883 C158.64207816 80.50464953 158.64735804 83.24770551 158.65376282 85.99092102 C158.65310175 87.73831721 158.65182 89.48571331 158.64985657 91.23310852 C158.6518808 92.05096832 158.65390503 92.86882812 158.6559906 93.71147156 C158.63971107 97.69205054 158.30484023 101.23686995 157.51704407 105.14717102 C157.84704407 106.13717102 158.17704407 107.12717102 158.51704407 108.14717102 C158.7961874 113.77067243 158.83061996 119.39409949 158.86714172 125.02388 C158.8836651 126.88891612 158.91090728 128.75388985 158.94917297 130.61860657 C159.00426649 133.31986549 159.02586645 136.01964278 159.04048157 138.72138977 C159.06315094 139.5456395 159.08582031 140.36988922 159.10917664 141.21911621 C159.08716735 147.3240496 157.59646568 151.54291681 153.51704407 156.14717102 C148.3410868 160.8215262 142.65778282 160.68298143 135.98970032 160.53779602 C135.00078293 160.53213623 134.01186554 160.52647644 132.99298096 160.52064514 C129.85466264 160.49837117 126.7175135 160.448191 123.57954407 160.39717102 C121.44349292 160.37709444 119.30742377 160.3588457 117.17134094 160.34248352 C111.95243633 160.30194834 106.73603871 160.22363981 101.51704407 160.14717102 C101.51704407 170.37717102 101.51704407 180.60717102 101.51704407 191.14717102 C105.47704407 191.14717102 109.43704407 191.14717102 113.51704407 191.14717102 C119.63976946 193.21682467 122.22478295 195.41428885 125.48698425 200.88154602 C127.21927929 204.69174314 127.21367621 208.26684306 127.14595032 212.39717102 C127.14836227 213.25471985 127.15077423 214.11226868 127.15325928 214.99580383 C127.15228565 216.79760898 127.1390085 218.59944587 127.1139679 220.40107727 C127.07962889 223.14040459 127.09334135 225.87650415 127.11274719 228.61592102 C127.10584798 230.37635125 127.09617491 232.13677326 127.08345032 233.89717102 C127.08841019 234.70573547 127.09337006 235.51429993 127.09848022 236.34736633 C126.98307492 241.99074093 125.75304015 246.46016151 122.51704407 251.14717102 C117.7767021 254.99869887 113.98319168 256.26482465 107.98976135 256.28761292 C107.08709534 256.29332306 106.18442932 256.2990332 105.25440979 256.30491638 C104.27147949 256.30603424 103.28854919 256.3071521 102.27583313 256.30830383 C101.23471375 256.31326874 100.19359436 256.31823364 99.1209259 256.323349 C95.67483357 256.33795995 92.22878729 256.34477113 88.78266907 256.35029602 C86.38616434 256.35604866 83.98965962 256.36180638 81.59315491 256.36756897 C76.56615484 256.37807614 71.53917076 256.38392057 66.51216125 256.3874054 C60.07841496 256.39288732 53.64488059 256.41691033 47.21120071 256.44537735 C42.25944914 256.46402433 37.30774838 256.46921045 32.35596466 256.47074127 C29.98455904 256.47376402 27.61315424 256.48177973 25.24178314 256.49492645 C21.91963703 256.51202842 18.5980057 256.51009622 15.27583313 256.50361633 C14.30099976 256.51283112 13.32616638 256.5220459 12.3217926 256.53153992 C6.12328384 256.49376912 -0.20883519 256.12162519 -5.04224777 251.73059464 C-9.45883243 246.65637969 -9.62359868 242.40868269 -9.58061218 235.97920227 C-9.57919724 235.1843895 -9.57778229 234.38957672 -9.57632446 233.57067871 C-9.57072971 231.03363777 -9.55817821 228.49668527 -9.54545593 225.95967102 C-9.54044025 224.23896917 -9.53587746 222.51826594 -9.53178406 220.79756165 C-9.520762 216.58073072 -9.50350099 212.36396587 -9.48295593 208.14717102 C-10.38078796 208.16094788 -11.27862 208.17472473 -12.20365906 208.18891907 C-13.37863953 208.1996344 -14.55362 208.21034973 -15.76420593 208.22138977 C-16.93016296 208.23516663 -18.09612 208.24894348 -19.29740906 208.26313782 C-24.60143454 208.07004983 -27.28006571 206.15869234 -31.23295593 202.83467102 C-35.49919068 197.73889062 -35.79175484 192.40154514 -35.78373718 185.96748352 C-35.78802231 185.19588898 -35.79230743 184.42429443 -35.79672241 183.62931824 C-35.80244091 182.00393144 -35.80298435 180.37851907 -35.79862976 178.75312805 C-35.79547409 176.28636803 -35.81894384 173.820814 -35.84428406 171.35420227 C-35.84655798 169.76696418 -35.84726011 168.17972291 -35.84623718 166.59248352 C-35.85544693 165.86514008 -35.86465668 165.13779663 -35.87414551 164.38841248 C-35.82424116 158.77387075 -34.93148694 153.01161728 -31.17260742 148.61424255 C-24.91973521 143.02772092 -18.41723758 142.86190568 -10.49076843 142.95185852 C-9.54482819 142.95468842 -8.59888794 142.95751831 -7.62428284 142.96043396 C-4.61870899 142.9715817 -1.61343892 142.99667637 1.39204407 143.02217102 C3.43631058 143.03220781 5.48058179 143.04133243 7.52485657 143.04951477 C12.5223685 143.07150335 17.51965487 143.10599593 22.51704407 143.14717102 C22.51180725 142.07757141 22.50657043 141.0079718 22.50117493 139.90596008 C22.48305692 135.93266132 22.47158717 131.95936621 22.46211243 127.98603821 C22.45708777 126.26728196 22.45026697 124.54852997 22.44160461 122.82978821 C22.42945727 120.35744676 22.42379704 117.8851619 22.41938782 115.41279602 C22.41422653 114.64598511 22.40906525 113.87917419 22.40374756 113.08912659 C22.40316883 107.56899352 22.40316883 107.56899352 23.0866394 105.0372467 C23.74427571 103.07276431 23.74427571 103.07276431 22.51704407 101.14717102 C22.43028869 98.44823921 22.40146509 95.77547871 22.41938782 93.07685852 C22.42080276 92.2806308 22.42221771 91.48440308 22.42367554 90.66404724 C22.42928062 88.11671722 22.44183393 85.56947455 22.45454407 83.02217102 C22.45955842 81.29691187 22.46412144 79.57165135 22.46821594 77.84638977 C22.47925169 73.61328311 22.4965197 69.38024188 22.51704407 65.14717102 C21.39060486 65.17073669 21.39060486 65.17073669 20.2414093 65.19477844 C16.81253196 65.2574486 13.38377552 65.29626363 9.95454407 65.33467102 C8.77311829 65.35980774 7.5916925 65.38494446 6.37446594 65.4108429 C-1.00152869 65.47282604 -6.67838783 65.48185222 -12.44389343 60.42842102 C-12.91053406 59.84060852 -13.37717468 59.25279602 -13.85795593 58.64717102 C-14.34006531 58.05935852 -14.82217468 57.47154602 -15.31889343 56.86592102 C-18.08371202 52.78363854 -17.67823706 48.3338342 -17.72123718 43.60420227 C-17.72930893 42.76177475 -17.73738068 41.91934723 -17.74569702 41.0513916 C-17.75952571 39.26685129 -17.7702533 37.48228467 -17.77812195 35.69770813 C-17.78962177 33.88122251 -17.81004189 32.06477016 -17.83964539 30.24848938 C-17.88253598 27.61682791 -17.89852223 24.98617087 -17.90873718 22.35420227 C-17.92624527 21.55182632 -17.94375336 20.74945038 -17.96179199 19.92276001 C-17.94031458 14.26614199 -16.74638638 9.83311913 -13.48295593 5.14717102 C-9.09461174 1.65440727 -5.57471772 0.02985313 0 0 Z " fill="#010100" transform="translate(353.4829559326172,245.8528289794922)"/>
<path d="M0 0 C1.051875 0.268125 2.10375 0.53625 3.1875 0.8125 C3.0225 1.59625 2.8575 2.38 2.6875 3.1875 C2.2791399 6.14811075 2.02567779 8.95709065 1.9375 11.9375 C1.89882812 13.17886719 1.89882812 13.17886719 1.859375 14.4453125 C2.266228 17.38046626 3.11939952 18.71111974 5.1875 20.8125 C8.64499949 21.47926878 8.64499949 21.47926878 12.1875 20.8125 C14.98509038 18.66480357 16.05014463 17.33997293 16.9453125 13.90234375 C17.12707031 12.34193359 17.12707031 12.34193359 17.3125 10.75 C17.99716767 5.09799849 17.99716767 5.09799849 20.1875 1.8125 C22.28823853 1.45173645 22.28823853 1.45173645 24.91259766 1.47192383 C25.89346344 1.47215042 26.87432922 1.47237701 27.88491821 1.47261047 C28.94641083 1.48809433 30.00790344 1.50357819 31.1015625 1.51953125 C32.18633881 1.52377609 33.27111511 1.52802094 34.38876343 1.53239441 C37.86359167 1.549227 41.33784618 1.58688811 44.8125 1.625 C47.16405414 1.64004089 49.51561735 1.65373033 51.8671875 1.66601562 C57.64082173 1.69914546 63.41411989 1.74939018 69.1875 1.8125 C71.1023738 5.50675975 72.49944482 8.25725112 72.625 12.4375 C72.89779098 15.54836637 73.10724461 16.69063071 74.875 19.375 C77.93616743 21.27788786 79.64299525 21.40325079 83.1875 20.8125 C85.78662251 19.6338337 85.78662251 19.6338337 87.1875 16.8125 C87.78376996 11.35369052 87.38122801 6.16001329 86.1875 0.8125 C89.29296875 -0.0390625 89.29296875 -0.0390625 93.1875 -0.1875 C95.72115108 1.63872329 97.44800376 3.165342 99.5 5.4375 C100.06195068 6.03361084 100.62390137 6.62972168 101.20288086 7.24389648 C102.8985903 9.07254607 104.5502309 10.93145748 106.1875 12.8125 C106.64060547 13.33183105 107.09371094 13.85116211 107.56054688 14.38623047 C126.43055393 36.49088819 144.011683 69.15225333 145.0625 98.6875 C145.10713379 99.41880127 145.15176758 100.15010254 145.19775391 100.90356445 C145.17144892 103.94463415 144.81376087 106.18062642 142.63476562 108.37915039 C141.26711921 109.38488153 139.87016073 110.35154473 138.45166016 111.28417969 C134.55843625 113.91212681 131.31566293 117.25310372 127.9375 120.5 C126.44456105 121.91985004 124.95106865 123.33911836 123.45703125 124.7578125 C122.73209473 125.4477832 122.0071582 126.13775391 121.26025391 126.84863281 C114.05776716 133.67275571 106.7036294 140.33536496 99.1875 146.8125 C98.02693537 145.07165305 96.8815496 143.32009784 95.77734375 141.54296875 C89.79409048 132.33469953 82.81007815 127.46236662 72.1875 124.8125 C68.57647247 124.44308724 65.00581171 124.46426664 61.37890625 124.51171875 C59.31184575 124.50407855 57.24478825 124.49558898 55.17773438 124.48632812 C51.960942 124.48853662 48.74475515 124.50004491 45.52807617 124.52758789 C42.39441017 124.5484263 39.26253792 124.53221535 36.12890625 124.51171875 C35.18068497 124.53022385 34.23246368 124.54872894 33.25550842 124.5677948 C25.77829931 124.48668113 21.27910729 121.9490821 15.1875 117.8125 C-2.06624196 108.59989904 -22.06579951 107.23676717 -40.9453125 111.87890625 C-44.64049479 113.08210593 -47.55524744 114.71338168 -50.8125 116.8125 C-51.8025 116.8125 -52.7925 116.8125 -53.8125 116.8125 C-60.06095726 85.51857354 -45.34418293 53.83158489 -28.4453125 28.171875 C-22.66944344 19.66947989 -15.96803339 12.170453 -8.8125 4.8125 C-7.51699219 3.38550781 -7.51699219 3.38550781 -6.1953125 1.9296875 C-3.8125 -0.1875 -3.8125 -0.1875 0 0 Z " fill="#95D87A" transform="translate(161.8125,204.1875)"/>
<path d="M0 0 C4.09839947 2.21487972 6.88222754 4.65547124 8.5859375 8.9921875 C9.46295145 15.3066879 9.49783019 19.84309847 5.8984375 25.2421875 C2.25149974 29.32508104 -1.76034646 32.95538709 -5.88671875 36.54296875 C-9.96709673 40.09843569 -13.91923304 43.77449952 -17.8515625 47.4921875 C-23.58970587 52.89455654 -29.36091659 58.25478664 -35.1796875 63.5703125 C-38.3080046 66.4309661 -41.42495434 69.30359148 -44.5390625 72.1796875 C-45.07724609 72.675896 -45.61542969 73.17210449 -46.16992188 73.68334961 C-48.94287606 76.24137499 -51.70795821 78.80719954 -54.4609375 81.38671875 C-55.0185376 81.90693604 -55.5761377 82.42715332 -56.15063477 82.96313477 C-57.19028916 83.93338592 -58.22753391 84.90623072 -59.26147461 85.88256836 C-60.2475123 86.80079456 -61.25231417 87.69926628 -62.2744751 88.57710266 C-64.16058214 90.22700293 -64.16058214 90.22700293 -65.82649231 92.25836182 C-71.46259174 98.02025392 -76.52783676 98.98131631 -84.2578125 99.11523438 C-87.29823066 99.12597162 -90.3330415 99.09351329 -93.37280273 99.02870178 C-96.65362355 98.95984486 -99.9313883 98.94179344 -103.21289062 98.93640137 C-111.35657289 98.91269846 -119.49866845 98.80273936 -127.64160156 98.69561768 C-134.53595248 98.60824632 -141.42906697 98.55382524 -148.32397461 98.54249573 C-151.54350597 98.52377508 -154.75971959 98.45717856 -157.97851562 98.3885498 C-170.05127079 98.05163711 -170.05127079 98.05163711 -180.5078125 103.28710938 C-182.63628948 105.37539291 -182.63628948 105.37539291 -184.1015625 107.2421875 C-189.94076871 102.42484237 -195.30752526 97.18997221 -200.64453125 91.82958984 C-202.09525315 90.3735201 -203.55122909 88.92285974 -205.0078125 87.47265625 C-208.91758662 83.56542731 -212.80686808 79.66870291 -216.38671875 75.453125 C-222.04089812 68.85461505 -228.37853236 62.86176591 -234.5390625 56.7421875 C-235.85635309 55.42992165 -237.17341236 54.11742355 -238.49023438 52.8046875 C-241.6913486 49.61450244 -244.89558115 46.42748099 -248.1015625 43.2421875 C-246.4140056 39.60407168 -244.65013559 37.80231828 -241.4765625 35.3046875 C-240.00509766 34.13486328 -240.00509766 34.13486328 -238.50390625 32.94140625 C-237.96233887 32.5139209 -237.42077148 32.08643555 -236.86279297 31.64599609 C-234.94844699 30.12014506 -233.05695806 28.56884 -231.16796875 27.01171875 C-204.92622972 5.39756864 -204.92622972 5.39756864 -188.1640625 5.8046875 C-187.19549316 5.81935059 -186.22692383 5.83401367 -185.22900391 5.84912109 C-172.7958743 6.17812857 -160.73870828 9.5051784 -151.12768555 17.81274414 C-146.30998232 21.25958688 -141.4987507 20.90017205 -135.76171875 20.80859375 C-134.68079453 20.81422836 -133.5998703 20.81986298 -132.4861908 20.82566833 C-129.04503616 20.8420757 -125.60517176 20.8266146 -122.1640625 20.8046875 C-118.72664402 20.78805366 -115.2900781 20.77905667 -111.85264587 20.79441833 C-109.71898614 20.80364395 -107.58514514 20.79471746 -105.45167542 20.76478577 C-98.49552193 20.79025437 -92.68539702 21.7462563 -87.5450592 26.76051331 C-83.92966122 30.96672656 -82.78986842 33.58050488 -82.890625 39.15234375 C-83.37357013 43.93707795 -85.62031019 47.02213662 -89.1640625 50.0546875 C-93.71185532 53.44134173 -96.84439211 53.39281425 -102.35913086 53.39990234 C-103.21291824 53.40498306 -104.06670563 53.41006378 -104.94636536 53.41529846 C-106.80375575 53.42601309 -108.66115915 53.43462897 -110.51856804 53.44141769 C-113.45585311 53.45318287 -116.39298956 53.47262863 -119.33021545 53.49453735 C-127.68257732 53.55624001 -136.03492401 53.61025205 -144.38745117 53.64355469 C-149.49270613 53.66446084 -154.59769051 53.69973038 -159.70279121 53.74431229 C-161.65124903 53.75850412 -163.59975471 53.76720187 -165.54826164 53.77036667 C-168.2706638 53.77525706 -170.99234344 53.7983657 -173.71459961 53.82568359 C-174.52353668 53.82267746 -175.33247375 53.81967133 -176.16592407 53.8165741 C-180.3578986 53.8542444 -180.3578986 53.8542444 -184.09449768 55.55337524 C-185.87096395 58.53244665 -185.57251076 60.88668111 -185.1015625 64.2421875 C-182.21353784 67.40374031 -180.50361359 68.18948399 -176.22676086 68.75012207 C-174.68951992 68.77378119 -173.15184404 68.77553867 -171.61450195 68.75976562 C-170.35002983 68.77027954 -170.35002983 68.77027954 -169.06001282 68.78100586 C-166.27795276 68.79858422 -163.49691389 68.78695854 -160.71484375 68.7734375 C-158.7729625 68.77613372 -156.83108257 68.78001723 -154.88920593 68.78503418 C-150.81801508 68.79093008 -146.74717538 68.78236795 -142.67602539 68.76367188 C-137.4787771 68.74095831 -132.28235858 68.75395657 -127.08514118 68.77796173 C-123.07258465 68.7924822 -119.06022159 68.78778388 -115.04765892 68.77745056 C-113.13286426 68.77479655 -111.21805158 68.77800597 -109.30327797 68.78736877 C-96.95976523 68.8344554 -86.23706857 68.8065471 -76.6796875 59.94140625 C-74.43984732 57.52969714 -72.54378694 54.92005802 -70.625 52.25 C-67.11648022 47.62595086 -62.7802081 43.79736776 -58.3984375 40.01953125 C-54.06787463 36.24487185 -49.89158114 32.32266942 -45.7265625 28.3671875 C-40.35742576 23.29084939 -34.96893346 18.24867813 -29.4453125 13.33984375 C-27.68027341 11.76013376 -25.93325857 10.16025013 -24.1953125 8.55078125 C-23.7007959 8.09364746 -23.2062793 7.63651367 -22.69677734 7.16552734 C-21.31085507 5.88270921 -19.92873927 4.59578218 -18.546875 3.30859375 C-13.1107726 -1.28517329 -6.83770947 -2.46564245 0 0 Z " fill="#FCC5A9" transform="translate(329.1015625,322.7578125)"/>
<path d="M0 0 C5.07938076 1.82474809 8.08383526 5.3956265 11.75390625 9.25390625 C12.84155273 10.36282227 12.84155273 10.36282227 13.95117188 11.49414062 C17.2436975 14.87541358 20.42682481 18.31458962 23.50415039 21.89233398 C27.62848208 26.62273168 32.04530676 31.02810075 36.50390625 35.44140625 C37.3652417 36.29895508 38.22657715 37.15650391 39.11401367 38.04003906 C41.84571745 40.75961514 44.580639 43.47591825 47.31640625 46.19140625 C50.92352476 49.77178651 54.52722427 53.35555806 58.12890625 56.94140625 C59.35420044 58.15425293 59.35420044 58.15425293 60.60424805 59.39160156 C64.84329057 63.61263924 68.8923951 67.91867269 72.79275513 72.45404053 C74.72913691 74.66202849 76.79778721 76.68901805 78.9375 78.69921875 C79.72705078 79.45847656 80.51660156 80.21773438 81.33007812 81 C82.96418505 82.56168478 84.60767026 84.11360757 86.25976562 85.65625 C87.04029297 86.41292969 87.82082031 87.16960937 88.625 87.94921875 C89.33454834 88.62098145 90.04409668 89.29274414 90.77514648 89.98486328 C92.31640625 92.19140625 92.31640625 92.19140625 92.91674805 95.03710938 C92.05142934 99.58363953 89.64091641 101.73002923 86.40234375 104.90234375 C85.79508453 105.51534332 85.18782532 106.1283429 84.56216431 106.75991821 C83.27651381 108.04964471 81.98328255 109.33185273 80.68310547 110.60693359 C78.6979151 112.56000271 76.74675224 114.54299516 74.796875 116.53125 C73.54228383 117.78187621 72.28583263 119.03063983 71.02734375 120.27734375 C70.44584564 120.87098724 69.86434753 121.46463074 69.26522827 122.07626343 C66.51420726 124.734395 64.99475299 126.06268272 61.16430664 126.78955078 C57.72415584 126.06701589 56.46609954 125.05186996 54.0390625 122.53515625 C53.27787109 121.75914062 52.51667969 120.983125 51.73242188 120.18359375 C50.95576172 119.36117187 50.17910156 118.53875 49.37890625 117.69140625 C48.60611328 116.89992188 47.83332031 116.1084375 47.03710938 115.29296875 C43.62262454 111.77169107 40.31324276 108.1928124 37.11499023 104.47460938 C32.99525058 99.74966416 28.58243982 95.34969729 24.12890625 90.94140625 C23.2675708 90.08385742 22.40623535 89.22630859 21.51879883 88.34277344 C18.78709505 85.62319736 16.0521735 82.90689425 13.31640625 80.19140625 C9.70928774 76.61102599 6.10558823 73.02725444 2.50390625 69.44140625 C1.27861206 68.22855957 1.27861206 68.22855957 0.02856445 66.99121094 C-4.21047807 62.77017326 -8.2595826 58.46413981 -12.15994263 53.92877197 C-14.09632441 51.72078401 -16.16497471 49.69379445 -18.3046875 47.68359375 C-19.09423828 46.92433594 -19.88378906 46.16507812 -20.69726562 45.3828125 C-22.33137255 43.82112772 -23.97485776 42.26920493 -25.62695312 40.7265625 C-26.40748047 39.96988281 -27.18800781 39.21320313 -27.9921875 38.43359375 C-28.70173584 37.76183105 -29.41128418 37.09006836 -30.14233398 36.39794922 C-32.1943374 33.46020063 -32.16569968 31.70405858 -31.68359375 28.19140625 C-30.52539063 26.33618164 -30.52539063 26.33618164 -28.90234375 24.7890625 C-28.31138916 24.2122876 -27.72043457 23.6355127 -27.11157227 23.04125977 C-26.47533936 22.45143311 -25.83910645 21.86160645 -25.18359375 21.25390625 C-24.22054321 20.32759399 -24.22054321 20.32759399 -23.23803711 19.38256836 C-19.39984691 15.71498593 -15.49238391 12.12661297 -11.4140625 8.7265625 C-8.88985206 6.48725166 -6.70204236 3.94917314 -4.51953125 1.37890625 C-2.68359375 0.19140625 -2.68359375 0.19140625 0 0 Z " fill="#5FB5FD" transform="translate(57.68359375,365.80859375)"/>
<path d="M0 0 C34.32 0 68.64 0 104 0 C104 10.56 104 21.12 104 32 C69.68 32 35.36 32 0 32 C0 21.44 0 10.88 0 0 Z " fill="#FECF38" transform="translate(392,358)"/>
<path d="M0 0 C34.32 0 68.64 0 104 0 C104 10.56 104 21.12 104 32 C69.68 32 35.36 32 0 32 C0 21.44 0 10.88 0 0 Z " fill="#F89507" transform="translate(392,310)"/>
<path d="M0 0 C13.41226093 -0.02254861 26.82450938 -0.04091369 40.23678493 -0.05181217 C46.46393472 -0.0570416 52.69107092 -0.06414033 58.91821289 -0.07543945 C64.92226865 -0.08626621 70.92631129 -0.09227638 76.93037605 -0.09487724 C79.2266161 -0.09673188 81.52285539 -0.10035321 83.81908989 -0.10573006 C87.02320814 -0.11293768 90.2272715 -0.11399106 93.43139648 -0.11352539 C94.87069267 -0.1189183 94.87069267 -0.1189183 96.33906555 -0.12442017 C97.20709808 -0.1230455 98.07513062 -0.12167084 98.96946716 -0.12025452 C99.72810279 -0.12117631 100.48673841 -0.1220981 101.268363 -0.12304783 C103 0 103 0 104 1 C104 11.23 104 21.46 104 32 C69.68 32 35.36 32 0 32 C0 21.44 0 10.88 0 0 Z " fill="#FECF38" transform="translate(360,453)"/>
<path d="M0 0 C1.13795344 0.00138269 1.13795344 0.00138269 2.29889584 0.00279331 C3.16692837 0.00141865 4.0349609 0.00004398 4.92929745 -0.00137234 C5.88882824 0.00222294 6.84835903 0.00581821 7.83696651 0.00952244 C8.84173031 0.00937641 9.8464941 0.00923038 10.88170528 0.00907993 C14.22024817 0.00977953 17.55873604 0.01757409 20.89726925 0.02539158 C23.20512518 0.02725559 25.51298151 0.02867957 27.82083797 0.0296793 C33.90854126 0.03350578 39.99622086 0.04333718 46.08391476 0.05438328 C52.29057654 0.0645946 58.49724212 0.06917632 64.70390987 0.0742197 C76.89207302 0.08495933 89.08021234 0.10255718 101.268363 0.12304783 C101.268363 10.68304783 101.268363 21.24304783 101.268363 32.12304783 C66.948363 32.12304783 32.628363 32.12304783 -2.731637 32.12304783 C-2.731637 0.1941065 -2.731637 0.1941065 0 0 Z " fill="#FDCE38" transform="translate(354.7316370010376,261.8769521713257)"/>
<path d="M0 0 C33.99 0 67.98 0 103 0 C103 10.56 103 21.12 103 32 C69.01 32 35.02 32 0 32 C0 21.44 0 10.88 0 0 Z " fill="#F99608" transform="translate(335,406)"/>
<path d="M0 0 C1.875 1.5625 1.875 1.5625 3 4 C3.020625 5.299375 3.04125 6.59875 3.0625 7.9375 C3.14306655 10.07141315 3.14306655 10.07141315 4 12 C6.37175609 13.58415407 8.78780887 14.60475044 11.4140625 15.7109375 C15.84054123 17.91749034 18.80655949 21.61311898 21 26 C21.203125 28.2421875 21.203125 28.2421875 21.25 30.875 C21.27578125 31.73867188 21.3015625 32.60234375 21.328125 33.4921875 C20.92842357 36.54704841 20.20716667 37.8611969 18 40 C14.95010068 40.75142447 12.0795767 40.5698656 9 40 C6.67108112 37.97158678 6.11568711 36.31621144 5.0625 33.4375 C3.74218561 30.40854345 2.9834916 29.45349591 0 28 C-4.2868059 27.42368908 -7.77774485 27.28453357 -11.5625 29.5 C-12.036875 29.995 -12.51125 30.49 -13 31 C-12.65555119 33.47266765 -12.65555119 33.47266765 -12 36 C-9.568662 37.215669 -7.84033325 37.13981256 -5.125 37.25 C3.51485129 38.00967196 11.31899526 40.5869323 17.1875 47.1875 C21.69951126 52.92906178 21.49080683 57.81723074 21 65 C19.24062541 70.82792833 14.91222432 74.60267698 10 78 C7.61362656 79.01824581 5.56800787 79.51849852 3 80 C3.05800781 80.60328125 3.11601562 81.2065625 3.17578125 81.828125 C3.54363757 88.34443704 3.54363757 88.34443704 0.875 91.5625 C-2.48635301 93.2431765 -4.29467907 93.63069292 -8 93 C-10.375 91.5625 -10.375 91.5625 -12 89 C-12.32338916 85.96953066 -12.23343996 83.03471946 -12 80 C-12.70125 79.9175 -13.4025 79.835 -14.125 79.75 C-20.67625193 78.04097776 -25.17111906 73.37539963 -29 68 C-30.3520408 63.94387761 -30.53580267 60.2404954 -30 56 C-28.4375 53.4375 -28.4375 53.4375 -26 52 C-22.07717021 51.43959574 -19.97079325 51.31782096 -16.6875 53.625 C-15 56 -15 56 -14.0625 59.125 C-13.28322081 62.13206901 -13.28322081 62.13206901 -10.8125 63.375 C-5.67241161 64.51724186 -0.60559542 64.84463246 4 62 C4.89386164 59.45224694 4.89386164 59.45224694 5 57 C1.17336578 55.4486618 -2.17064002 54.88423509 -6.25 54.6875 C-13.63819033 54.1137577 -19.277826 51.25882524 -24.9375 46.5625 C-29.61324574 40.75324014 -30.55719388 36.21010206 -30.34765625 28.83984375 C-29.68964423 23.46484666 -26.9650027 20.9221137 -23.1875 17.3125 C-19.81638433 14.86678863 -16.87039026 13.4707483 -13 12 C-12.97873047 11.09507812 -12.97873047 11.09507812 -12.95703125 10.171875 C-12.70988176 6.03045108 -12.5416002 3.66903554 -9.875 0.375 C-6.06543371 -1.44696649 -4.01661681 -1.19010868 0 0 Z " fill="#020301" transform="translate(211,225)"/>
<path d="M0 0 C3.62202177 0.07789294 7.05992625 0.62454846 10.625 1.25 C22.12359501 3.11535724 33.28705945 2.68324699 44.73828125 0.71484375 C49.07656597 0.03106112 53.33285812 -0.54489495 57.6875 0.25 C60.27078353 2.45338889 60.52761722 4.10798013 60.98828125 7.3984375 C61.91606736 24.62875091 54.24154698 42.31581667 48.6875 58.25 C42.7475 58.25 36.8075 58.25 30.6875 58.25 C30.6875 49.91297119 32.17662867 44.65917881 36.375 37.5625 C38.44645546 33.95942293 39.57297231 31.48058992 38.6875 27.25 C36.6303308 24.24336809 35.35571695 23.40979101 31.8125 22.5625 C27.07310072 23.60516784 25.24432703 26.25969582 22.6875 30.25 C17.85328168 39.34578819 15.46935426 48.02416932 14.6875 58.25 C11.7175 58.25 8.7475 58.25 5.6875 58.25 C4.21805653 54.12887489 2.76401591 50.00247009 1.3125 45.875 C0.9 44.71871094 0.4875 43.56242187 0.0625 42.37109375 C-3.57024748 32.00018561 -5.66126981 22.74637255 -5.5625 11.75 C-5.57023438 10.85796875 -5.57796875 9.9659375 -5.5859375 9.046875 C-5.58335937 8.19609375 -5.58078125 7.3453125 -5.578125 6.46875 C-5.57586914 5.70498047 -5.57361328 4.94121094 -5.57128906 4.15429688 C-5.07205341 0.48067606 -3.46065347 0.26118139 0 0 Z " fill="#66C743" transform="translate(179.3125,94.75)"/>
<path d="M0 0 C1.74649255 2.91082092 1.94832188 5.5181158 2.125 8.875 C1.3107568 12.13197281 0.3354192 12.74776978 -2.5625 14.5 C-5.95456362 15.90802641 -9.33939297 16.89358595 -12.875 17.875 C-3.32002587 23.84735669 6.37984686 29.49897729 16.19726562 35.02587891 C36.39162694 46.40825388 36.39162694 46.40825388 38.125 49.875 C38.69318182 56.01136364 38.69318182 56.01136364 36.5625 59.25 C33.10496812 61.55502125 31.33246588 62.00857035 27.125 61.875 C24.83081055 60.83374023 24.83081055 60.83374023 22.26171875 59.37109375 C21.29081299 58.82324219 20.31990723 58.27539062 19.31958008 57.7109375 C18.26536865 57.10507813 17.21115723 56.49921875 16.125 55.875 C15.01213623 55.24335938 13.89927246 54.61171875 12.75268555 53.9609375 C9.16246196 51.92187651 5.58080586 49.86804146 2 47.8125 C-5.59932593 43.45343941 -13.19875868 39.09781854 -20.875 34.875 C-20.524375 35.885625 -20.17375 36.89625 -19.8125 37.9375 C-18.7085034 41.86105626 -18.82244556 44.89032961 -19.875 48.875 C-21.5 51.3125 -21.5 51.3125 -23.875 52.875 C-27.3125 53.4375 -27.3125 53.4375 -30.875 52.875 C-35.23088168 49.3216048 -36.82002188 46.16239732 -38.3671875 40.81640625 C-38.56224884 40.14963364 -38.75731018 39.48286102 -38.95828247 38.79588318 C-39.36423149 37.39378131 -39.76214248 35.98932943 -40.15234375 34.58276367 C-40.74906934 32.44084057 -41.37632054 30.30963356 -42.0078125 28.17773438 C-42.40028641 26.80782002 -42.79097257 25.43739196 -43.1796875 24.06640625 C-43.7053833 22.21317749 -43.7053833 22.21317749 -44.24169922 20.32250977 C-44.91022818 16.68322781 -44.95427321 14.4061874 -43.875 10.875 C-40.94047292 6.86777688 -37.62080085 5.85352996 -32.94921875 4.48046875 C-32.28340286 4.28399246 -31.61758698 4.08751617 -30.93159485 3.88508606 C-29.52731557 3.47462244 -28.12109707 3.0707423 -26.71313477 2.6730957 C-24.57384694 2.06572156 -22.44448344 1.43000011 -20.31445312 0.79101562 C-18.94321071 0.39409364 -17.57147951 -0.00114439 -16.19921875 -0.39453125 C-14.96260498 -0.75135986 -13.72599121 -1.10818848 -12.4519043 -1.47583008 C-8.05508484 -2.27380584 -3.92813879 -2.35688327 0 0 Z " fill="#000000" transform="translate(70.875,96.125)"/>
<path d="M0 0 C2.5 1.5 2.5 1.5 4 4 C4.69245802 7.40458526 4.97199821 8.79669622 4 12 C2.17675781 14.38989258 2.17675781 14.38989258 -0.046875 16.76953125 C-0.78260742 17.56593018 -1.51833984 18.3623291 -2.27636719 19.18286133 C-2.84516602 19.78251709 -3.41396484 20.38217285 -4 21 C-2.94550407 21.00879936 -2.94550407 21.00879936 -1.8697052 21.01777649 C4.76593488 21.07575849 11.401255 21.14786637 18.03657055 21.23571491 C21.44761464 21.28038071 24.85854036 21.31964467 28.26977539 21.34643555 C32.19443149 21.37749806 36.11858601 21.43228618 40.04296875 21.48828125 C41.26396774 21.49467117 42.48496674 21.5010611 43.7429657 21.50764465 C44.8837709 21.52743881 46.02457611 21.54723297 47.19995117 21.56762695 C48.20144699 21.57873001 49.20294281 21.58983307 50.23478699 21.60127258 C53.46538121 22.06710523 55.372709 23.09165655 58 25 C59.56935594 28.13871188 59.35201103 30.53855822 59 34 C57.34015313 36.58138446 56.61278293 37.57219637 54 39 C49.7605566 39.76289137 45.56019624 39.72112852 41.26171875 39.70703125 C39.40786308 39.72971321 39.40786308 39.72971321 37.51655579 39.75285339 C34.24321905 39.78850722 30.97070394 39.80288843 27.69720459 39.80688477 C24.3519655 39.81623156 21.00718269 39.85407261 17.66210938 39.88867188 C11.10806572 39.95159704 4.5543217 39.98647293 -2 40 C-1.50338867 40.53471924 -1.00677734 41.06943848 -0.49511719 41.62036133 C0.14780273 42.3295874 0.79072266 43.03881348 1.453125 43.76953125 C2.09411133 44.46925049 2.73509766 45.16896973 3.39550781 45.88989258 C5 48 5 48 5.75 51.6875 C4.79040457 55.92571313 3.51812713 57.47612619 0 60 C-3.6603288 60.70091403 -5.37273754 60.35201595 -8.6171875 58.53125 C-13.3273018 55.26905703 -17.19466301 51.01453307 -21.1875 46.9375 C-22.39696289 45.71450195 -22.39696289 45.71450195 -23.63085938 44.46679688 C-25.12365304 42.95663072 -26.61437578 41.44441246 -28.10229492 39.92944336 C-29.28346552 38.7285182 -30.47696732 37.53944416 -31.6887207 36.36938477 C-33.55230357 34.42322273 -33.99349246 33.0341646 -34.5 30.375 C-33.73600091 25.21800613 -30.59239869 22.60600627 -27 19 C-26.01 18.00613281 -26.01 18.00613281 -25 16.9921875 C-23.66599761 15.66339605 -22.32743569 14.33916646 -20.984375 13.01953125 C-18.39399366 10.38325732 -16.00985223 7.59674065 -13.640625 4.76171875 C-9.42038265 0.22998232 -6.10065253 -1.08761633 0 0 Z " fill="#000000" transform="translate(34,180)"/>
<path d="M0 0 C1.25296875 0.29197266 2.5059375 0.58394531 3.796875 0.88476562 C5.0034375 1.18447266 6.21 1.48417969 7.453125 1.79296875 C8.54270508 2.06004639 9.63228516 2.32712402 10.75488281 2.60229492 C14.37174134 4.0637204 16.27617817 5.81906262 18.75 8.8125 C19.88019656 16.32145743 17.33821898 23.7484137 15.5 31 C15.19964844 32.25748047 14.89929688 33.51496094 14.58984375 34.81054688 C14.28691406 36.02162109 13.98398437 37.23269531 13.671875 38.48046875 C13.39956055 39.57641357 13.12724609 40.6723584 12.84667969 41.80151367 C11.63036826 45.14095464 10.19429529 47.24587427 7.75 49.8125 C4.11706886 51.04924251 2.50808047 51.15708203 -1 49.5625 C-3.25 47.8125 -3.25 47.8125 -5.25 44.8125 C-5.26171875 42.47265625 -5.26171875 42.47265625 -4.9375 39.875 C-4.83824219 39.02035156 -4.73898437 38.16570312 -4.63671875 37.28515625 C-4.29159973 35.07848618 -3.83470623 32.96641782 -3.25 30.8125 C-13.53118638 36.11785579 -23.54285736 41.83436701 -33.5078125 47.71142578 C-36.4154578 49.42313806 -39.32968312 51.1225018 -42.25 52.8125 C-43.25353516 53.39410889 -44.25707031 53.97571777 -45.29101562 54.57495117 C-46.26232422 55.1238501 -47.23363281 55.67274902 -48.234375 56.23828125 C-49.10288086 56.73239502 -49.97138672 57.22650879 -50.86621094 57.7355957 C-54.55484249 59.40197769 -56.46582371 59.1527291 -60.25 57.8125 C-63.14479637 56.07562218 -63.26335881 54.76097318 -64.125 51.4375 C-64.26889433 47.26456434 -63.68975905 46.10900559 -61.25 42.8125 C-58.88427734 41.1184082 -58.88427734 41.1184082 -56.0859375 39.61328125 C-55.0537207 39.04843018 -54.02150391 38.4835791 -52.95800781 37.90161133 C-51.85811523 37.31532959 -50.75822266 36.72904785 -49.625 36.125 C-47.35596819 34.88688651 -45.08774186 33.64729573 -42.8203125 32.40625 C-41.70430664 31.79910156 -40.58830078 31.19195312 -39.43847656 30.56640625 C-35.07666212 28.16707433 -30.78030519 25.6662198 -26.5 23.125 C-25.49332275 22.52909058 -25.49332275 22.52909058 -24.46630859 21.92114258 C-21.05399129 19.89643038 -17.65062873 17.85677109 -14.25 15.8125 C-15.40628906 15.43158203 -15.40628906 15.43158203 -16.5859375 15.04296875 C-17.58882813 14.69878906 -18.59171875 14.35460937 -19.625 14 C-20.62273437 13.66355469 -21.62046875 13.32710937 -22.6484375 12.98046875 C-25.25 11.8125 -25.25 11.8125 -27.25 8.8125 C-27.90364121 1.94926732 -27.90364121 1.94926732 -25.8125 -1.6875 C-18.36482719 -6.04711335 -7.73702654 -1.94634574 0 0 Z " fill="#000000" transform="translate(367.25,98.1875)"/>
<path d="M0 0 C5.30076943 1.0781226 7.96381811 3.97460031 11.6875 7.75 C12.56921875 8.62978516 12.56921875 8.62978516 13.46875 9.52734375 C14.61590163 10.67710254 15.75784001 11.83208614 16.89453125 12.9921875 C18.81861137 14.87854056 20.8262002 16.62537799 22.875 18.375 C30.17966263 24.75771492 30.17966263 24.75771492 31.5 29.9375 C30.32967421 35.42902873 27.23981892 38.23343307 23.31982422 42.12792969 C21.3954411 44.04022425 19.49736427 45.97725933 17.59765625 47.9140625 C14.76341943 50.78691899 11.92534779 53.65561702 9.06640625 56.50390625 C8.4638501 57.10533447 7.86129395 57.7067627 7.24047852 58.32641602 C5.06975808 60.31627152 3.82708755 60.73138833 0.875 61.125 C-2.3125 60.75 -2.3125 60.75 -5.1875 58.6875 C-7.3125 55.75 -7.3125 55.75 -8.0625 52.4375 C-6.9986138 47.20672618 -4.04234979 44.41723841 -0.3125 40.75 C0.0175 40.42 0.3475 40.09 0.6875 39.75 C-0.34820381 39.74120064 -0.34820381 39.74120064 -1.40483093 39.73222351 C-8.5913651 39.6682892 -15.77745148 39.58386877 -22.96362305 39.48754883 C-25.64556601 39.45264989 -28.32743801 39.4250113 -31.00952148 39.40356445 C-34.86472433 39.37002854 -38.71928475 39.31771073 -42.57421875 39.26171875 C-43.77334396 39.25532883 -44.97246918 39.2489389 -46.20793152 39.24235535 C-47.8891082 39.21266411 -47.8891082 39.21266411 -49.60424805 39.18237305 C-50.58797897 39.17126999 -51.5717099 39.16016693 -52.58525085 39.14872742 C-55.81773057 38.67613462 -57.6873164 37.67178394 -60.3125 35.75 C-62.65799674 32.23175489 -62.89241403 30.89224306 -62.3125 26.75 C-60.65805266 24.19624823 -59.90204237 23.18372661 -57.3125 21.75 C-53.0013237 20.98189553 -48.7254496 21.02889372 -44.35546875 21.04296875 C-43.09736893 21.02784744 -41.8392691 21.01272614 -40.54304504 20.99714661 C-37.21034173 20.96148744 -33.87893734 20.94711139 -30.54614258 20.94311523 C-27.14061989 20.93376945 -23.73541646 20.89634715 -20.33007812 20.86132812 C-13.65754502 20.79839853 -6.98530625 20.76352618 -0.3125 20.75 C-0.80621094 20.26789063 -1.29992187 19.78578125 -1.80859375 19.2890625 C-2.44925781 18.65742188 -3.08992188 18.02578125 -3.75 17.375 C-4.38808594 16.74851563 -5.02617187 16.12203125 -5.68359375 15.4765625 C-7.8199423 13.2121355 -8.27237481 12.05093889 -8.6875 8.9375 C-8.3125 5.75 -8.3125 5.75 -6.25 2.875 C-3.3125 0.75 -3.3125 0.75 0 0 Z " fill="#000000" transform="translate(382.3125,179.25)"/>
<path d="M0 0 C1.15619087 -0.0098568 1.15619087 -0.0098568 2.33573914 -0.01991272 C4.89871305 -0.03969837 7.46162813 -0.051322 10.0246582 -0.0612793 C10.89885721 -0.06535482 11.77305622 -0.06943035 12.67374611 -0.07362938 C17.30365388 -0.09451592 21.93353182 -0.10880451 26.56347656 -0.11816406 C31.34414483 -0.12921376 36.12434573 -0.16358942 40.90484905 -0.20333576 C44.58092607 -0.22950335 48.25689201 -0.23785618 51.93305397 -0.24144554 C53.69488482 -0.24631379 55.45671062 -0.2579346 57.21845055 -0.27648354 C59.68897608 -0.30087097 62.15829681 -0.29991068 64.62890625 -0.29296875 C65.35382263 -0.30577881 66.07873901 -0.31858887 66.82562256 -0.33178711 C71.87643298 -0.28020586 74.75063623 0.99724307 78.63793945 4.17700195 C80.37425582 7.64963468 80.23984347 11.38893208 79.63793945 15.17700195 C77.456348 17.93269642 75.76616452 19.61288942 72.63793945 21.17700195 C70.13204645 21.29068812 67.65328456 21.34480824 65.14648438 21.35400391 C63.98766502 21.3638607 63.98766502 21.3638607 62.80543518 21.37391663 C60.24309191 21.39366335 57.68080729 21.40531525 55.1184082 21.4152832 C54.24387812 21.41935873 53.36934803 21.42343426 52.46831703 21.42763329 C47.8395575 21.44849991 43.21082766 21.46279904 38.58203125 21.47216797 C33.80017304 21.48323356 29.01878003 21.5176333 24.2370863 21.55733967 C20.56105177 21.5834812 16.88512848 21.5918576 13.20900917 21.59544945 C11.44635183 21.60032182 9.68369968 21.61195434 7.92113304 21.63048744 C5.45290619 21.65482706 2.98588816 21.65392375 0.51757812 21.64697266 C-0.20936249 21.65978271 -0.9363031 21.67259277 -1.68527222 21.68579102 C-6.5184223 21.63622707 -8.97122058 20.60978344 -12.36206055 17.17700195 C-14.09704171 13.70703963 -13.97000236 9.96193 -13.36206055 6.17700195 C-10.92456055 3.17700195 -10.92456055 3.17700195 -8.36206055 1.17700195 C-6.41040965 -0.77464894 -2.66534787 0.00975034 0 0 Z " fill="#E5E1E5" transform="translate(173.362060546875,168.822998046875)"/>
<path d="M0 0 C2.0704028 1.69849169 3.85047781 3.32871074 5.6875 5.25 C6.21150391 5.79011719 6.73550781 6.33023438 7.27539062 6.88671875 C29.50275081 30.21871138 51.06553108 67.08123616 50.86083984 100.16357422 C50.65528135 103.44727772 50.25252744 105.64373476 48.3359375 108.34765625 C46.27994414 109.91467741 44.34639659 110.93384535 42 112 C40.64677928 112.97291904 39.30745927 113.96640044 38 115 C38.15855469 114.00742187 38.31710937 113.01484375 38.48046875 111.9921875 C42.241313 85.36567744 31.40878644 60.00821289 19 37 C18.68063477 36.39607422 18.36126953 35.79214844 18.03222656 35.16992188 C11.75830483 23.3609362 3.79670828 11.21224557 -6 2 C-6.66 2 -7.32 2 -8 2 C-8 1.34 -8 0.68 -8 0 C-4.55774803 -1.14741732 -3.40646651 -1.13715134 0 0 Z " fill="#66C643" transform="translate(256,205)"/>
<path d="M0 0 C3.96 0 7.92 0 12 0 C12 10.56 12 21.12 12 32 C-22.32 32 -56.64 32 -92 32 C-92 31.67 -92 31.34 -92 31 C-61.64 31 -31.28 31 0 31 C0 20.77 0 10.54 0 0 Z " fill="#E7930E" transform="translate(484,358)"/>
<path d="M0 0 C34.32 0 68.64 0 104 0 C104 10.56 104 21.12 104 32 C100.04 32 96.08 32 92 32 C92 21.77 92 11.54 92 1 C61.64 1 31.28 1 0 1 C0 0.67 0 0.34 0 0 Z " fill="#CF7601" transform="translate(392,310)"/>
<path d="M0 0 C13.41225793 -0.0231207 26.82451117 -0.04091369 40.23678493 -0.05181217 C46.46393472 -0.0570416 52.69107092 -0.06414033 58.91821289 -0.07543945 C64.92226865 -0.08626621 70.92631129 -0.09227638 76.93037605 -0.09487724 C79.2266161 -0.09673188 81.52285539 -0.10035321 83.81908989 -0.10573006 C87.02320814 -0.11293768 90.2272715 -0.11399106 93.43139648 -0.11352539 C94.87069267 -0.1189183 94.87069267 -0.1189183 96.33906555 -0.12442017 C97.20709808 -0.1230455 98.07513062 -0.12167084 98.96946716 -0.12025452 C99.72810279 -0.12117631 100.48673841 -0.1220981 101.268363 -0.12304783 C103 0 103 0 104 1 C104.08790975 3.29151417 104.10694038 5.58572524 104.09765625 7.87890625 C104.0962413 8.5655687 104.09482635 9.25223114 104.09336853 9.95970154 C104.08775479 12.16067801 104.07520007 14.36155409 104.0625 16.5625 C104.05748676 18.05143083 104.05292355 19.54036324 104.04882812 21.02929688 C104.03778093 24.68623075 104.02050713 28.34310558 104 32 C100.04 32 96.08 32 92 32 C92 21.77 92 11.54 92 1 C61.64 1 31.28 1 0 1 C0 0.67 0 0.34 0 0 Z " fill="#D7860B" transform="translate(360,453)"/>
<path d="M0 0 C3.96 0 7.92 0 12 0 C12 10.56 12 21.12 12 32 C-21.99 32 -55.98 32 -91 32 C-91 31.67 -91 31.34 -91 31 C-60.97 31 -30.94 31 0 31 C0 20.77 0 10.54 0 0 Z " fill="#CC7501" transform="translate(426,406)"/>
<path d="M0 0 C33.99 0 67.98 0 103 0 C103 10.56 103 21.12 103 32 C99.04 32 95.08 32 91 32 C91 21.77 91 11.54 91 1 C60.97 1 30.94 1 0 1 C0 0.67 0 0.34 0 0 Z " fill="#DC890B" transform="translate(353,262)"/>
<path d="M0 0 C1.81242052 -0.02687279 3.62495233 -0.04633715 5.4375 -0.0625 C6.44683594 -0.07410156 7.45617187 -0.08570312 8.49609375 -0.09765625 C11 0 11 0 12 1 C12 11.65337582 6.05892381 22.44879949 -0.4453125 30.7109375 C-2 32 -2 32 -5.875 32.5 C-6.90625 32.335 -7.9375 32.17 -9 32 C-8.3893149 27.97394675 -7.55090878 24.14114519 -6.40625 20.234375 C-6.09816406 19.17992187 -5.79007813 18.12546875 -5.47265625 17.0390625 C-5.15167969 15.95367187 -4.83070313 14.86828125 -4.5 13.75 C-4.17902344 12.64914063 -3.85804688 11.54828125 -3.52734375 10.4140625 C-1.13778832 2.27557664 -1.13778832 2.27557664 0 0 Z " fill="#41A41D" transform="translate(254,122)"/>
<path d="M0 0 C1.51400391 0.01740234 1.51400391 0.01740234 3.05859375 0.03515625 C4.07050781 0.04417969 5.08242187 0.05320312 6.125 0.0625 C7.29869141 0.07990234 7.29869141 0.07990234 8.49609375 0.09765625 C9.78534807 4.00961351 11.06685397 7.92401571 12.34130859 11.84082031 C12.77572077 13.17224019 13.21222471 14.5029795 13.65087891 15.83300781 C14.28189995 17.74753424 14.90472355 19.66475634 15.52734375 21.58203125 C15.90439453 22.73413086 16.28144531 23.88623047 16.66992188 25.07324219 C17.49609375 28.09765625 17.49609375 28.09765625 17.49609375 32.09765625 C14.43359375 32.72265625 14.43359375 32.72265625 10.49609375 32.09765625 C7.53596283 29.15028452 5.55921756 25.7093032 3.49609375 22.09765625 C2.92246094 21.10121094 2.34882813 20.10476562 1.7578125 19.078125 C-1.51395771 12.99528731 -3.39027115 8.02939735 -3.50390625 1.09765625 C-2.50390625 0.09765625 -2.50390625 0.09765625 0 0 Z " fill="#42A51E" transform="translate(150.50390625,121.90234375)"/>
<path d="M0 0 C10.32700287 -0.09275657 20.65390633 -0.16379377 30.98124123 -0.20724869 C35.77686929 -0.22810691 40.57221196 -0.25639228 45.36767578 -0.30175781 C49.99720432 -0.34527858 54.62645865 -0.36915039 59.25617599 -0.37950897 C61.02080984 -0.38688917 62.78542899 -0.40130111 64.54994583 -0.42292023 C67.02532409 -0.45203762 69.49957518 -0.45595261 71.97509766 -0.45410156 C73.0648288 -0.47567322 73.0648288 -0.47567322 74.17657471 -0.49768066 C79.23545156 -0.45685614 82.10771742 0.81342758 86 4 C87.73631636 7.47263273 87.60190402 11.21193013 87 15 C84.81840855 17.75569447 83.12822506 19.43588747 80 21 C77.46714949 21.09292928 74.96206407 21.12581684 72.42919922 21.11352539 C71.25833267 21.11374443 71.25833267 21.11374443 70.06381226 21.1139679 C67.47740931 21.11326986 64.89107791 21.10548257 62.3046875 21.09765625 C60.51392659 21.09579168 58.72316517 21.09436796 56.93240356 21.09336853 C52.21415809 21.08954641 47.4959433 21.07971871 42.77770996 21.06866455 C37.96509211 21.05844389 33.15246932 21.0538695 28.33984375 21.04882812 C18.89321567 21.03809619 9.44661038 21.0210234 0 21 C0 20.67 0 20.34 0 20 C24.42 20 48.84 20 74 20 C74.90903079 16.36387684 75.13411861 13.58627562 75.125 9.875 C75.12757813 8.82054687 75.13015625 7.76609375 75.1328125 6.6796875 C75.181529 4.02773346 75.181529 4.02773346 74 2 C37.37 1.505 37.37 1.505 0 1 C0 0.67 0 0.34 0 0 Z " fill="#C4BCC4" transform="translate(166,169)"/>
<path d="M0 0 C3.95525349 2.41709936 5.95429576 4.44249068 7.4375 8.75 C7.953125 9.8225 8.46875 10.895 9 12 C12.58863524 13.0615942 12.58863524 13.0615942 16 13 C16 13.33 16 13.66 16 14 C10.83994675 15.1825122 8.22907617 14.91670881 3.25 12.7578125 C-0.26501952 11.5739344 -3.79838874 11.53262667 -7.484375 11.40625 C-10.40235959 10.93502267 -11.80389866 9.92928529 -14 8 C-13.69209738 5.15190074 -13.34521809 3.41713852 -11.5 1.1875 C-7.65684386 -0.63799917 -4.16889816 -0.75995539 0 0 Z " fill="#8DCB72" transform="translate(211,252)"/>
<path d="M0 0 C3.63 0 7.26 0 11 0 C11 0.33 11 0.66 11 1 C8.69 1 6.38 1 4 1 C3.896875 2.28132813 3.79375 3.56265625 3.6875 4.8828125 C3.10457641 10.12296714 1.66696409 14.8898338 0 19.875 C-0.40992188 21.13570312 -0.40992188 21.13570312 -0.828125 22.421875 C-1.54363607 24.61751191 -2.2685879 26.80961903 -3 29 C-3.33 29.99 -3.66 30.98 -4 32 C-5.65 32 -7.3 32 -9 32 C-8.3893149 27.97394675 -7.55090878 24.14114519 -6.40625 20.234375 C-6.09816406 19.17992187 -5.79007813 18.12546875 -5.47265625 17.0390625 C-5.15167969 15.95367187 -4.83070313 14.86828125 -4.5 13.75 C-4.17902344 12.64914063 -3.85804688 11.54828125 -3.52734375 10.4140625 C-1.13778832 2.27557664 -1.13778832 2.27557664 0 0 Z " fill="#2C830D" transform="translate(254,122)"/>
<path d="M0 0 C3.63 0 7.26 0 11 0 C12.28925432 3.91195726 13.57076022 7.82635946 14.84521484 11.74316406 C15.27962702 13.07458394 15.71613096 14.40532325 16.15478516 15.73535156 C16.7858062 17.64987799 17.4086298 19.56710009 18.03125 21.484375 C18.40830078 22.63647461 18.78535156 23.78857422 19.17382812 24.97558594 C20 28 20 28 20 32 C18.35 32 16.7 32 15 32 C13.65511116 27.77442007 12.3261247 23.54400264 11 19.3125 C10.6184375 18.11431641 10.236875 16.91613281 9.84375 15.68164062 C9.4828125 14.52470703 9.121875 13.36777344 8.75 12.17578125 C8.41484375 11.11270752 8.0796875 10.04963379 7.734375 8.9543457 C7.04031463 6.1621833 6.85202402 3.86009819 7 1 C4.69 1 2.38 1 0 1 C0 0.67 0 0.34 0 0 Z " fill="#2C830D" transform="translate(148,122)"/>
</svg>
