<?xml version="1.0" encoding="UTF-8"?>
<svg version="1.1" xmlns="http://www.w3.org/2000/svg" width="512" height="512">
<path d="M0 0 C17.39566499 13.40725983 29.99754704 30.95518681 35.16796875 52.48046875 C35.50441406 53.87072266 35.50441406 53.87072266 35.84765625 55.2890625 C40.70784245 79.29039299 35.36476835 102.56568181 23.16796875 123.48046875 C23.68746094 123.88136719 24.20695312 124.28226563 24.7421875 124.6953125 C30.97040366 129.77228723 35.53922057 135.4568239 37.16796875 143.48046875 C37.39487466 147.76918115 37.35312224 152.06135856 37.35546875 156.35546875 C37.36771484 157.52722656 37.37996094 158.69898438 37.39257812 159.90625 C37.39451172 161.04191406 37.39644531 162.17757812 37.3984375 163.34765625 C37.40254639 164.38003418 37.40665527 165.41241211 37.41088867 166.47607422 C37.14690712 169.74095566 36.31901505 172.42450782 35.16796875 175.48046875 C37.08875244 175.44119263 37.08875244 175.44119263 39.04833984 175.40112305 C43.83787288 175.31004081 48.62733069 175.25300972 53.41748047 175.20581055 C55.48336701 175.18079786 57.54916623 175.14677639 59.61474609 175.10327148 C62.59885299 175.04203317 65.58178162 175.01412615 68.56640625 174.9921875 C69.9326564 174.95347786 69.9326564 174.95347786 71.32650757 174.91398621 C79.06556332 174.91066556 85.55704039 177.16300291 91.31942749 182.45707703 C100.21186547 191.90889152 100.43893394 202.45052407 100.31640625 214.7890625 C99.8891006 225.41547943 97.19311632 232.88954138 89.41796875 240.29296875 C80.83523732 248.14803382 68.8241394 246.95303279 58.0078125 246.9921875 C56.24946352 247.00905438 54.49112645 247.0272073 52.73280334 247.04658508 C48.13143639 247.09387324 43.53011774 247.12381912 38.92858887 247.15002441 C34.22247787 247.17993743 29.51653297 247.2264306 24.81054688 247.27148438 C15.59644144 247.35727613 6.38230159 247.42472812 -2.83203125 247.48046875 C-2.50203125 248.47046875 -2.17203125 249.46046875 -1.83203125 250.48046875 C-1.73677448 252.65591765 -1.70129995 254.83418634 -1.69921875 257.01171875 C-1.69792969 258.29691406 -1.69664062 259.58210938 -1.6953125 260.90625 C-1.69740723 261.57479004 -1.69950195 262.24333008 -1.70166016 262.93212891 C-1.70701182 264.9730574 -1.70170729 267.01376584 -1.6953125 269.0546875 C-1.69724609 270.98248047 -1.69724609 270.98248047 -1.69921875 272.94921875 C-1.70034668 274.12935547 -1.70147461 275.30949219 -1.70263672 276.52539062 C-1.83203125 279.48046875 -1.83203125 279.48046875 -2.83203125 282.48046875 C-1.70297363 282.49505127 -0.57391602 282.50963379 0.58935547 282.5246582 C4.82029237 282.58308995 9.05072176 282.66031599 13.28125 282.74291992 C15.10440774 282.77595982 16.92766263 282.80405534 18.75097656 282.8269043 C43.28649022 283.14266803 43.28649022 283.14266803 53.1875 291.37890625 C60.72624039 299.37859526 61.38568072 308.63524348 61.48046875 319.04296875 C61.50947266 320.07744141 61.53847656 321.11191406 61.56835938 322.17773438 C61.64651856 331.77928955 59.24061156 339.35643479 54.16796875 347.48046875 C55.34359375 348.99640625 55.34359375 348.99640625 56.54296875 350.54296875 C61.89933942 357.44986778 61.53308334 365.44473762 61.54296875 373.79296875 C61.56746094 374.86998047 61.59195312 375.94699219 61.6171875 377.05664062 C61.65110807 386.39045096 59.35657973 393.69755227 54.16796875 401.48046875 C54.58949219 402.1559375 55.01101563 402.83140625 55.4453125 403.52734375 C56.26708984 404.86539063 56.26708984 404.86539063 57.10546875 406.23046875 C57.92337891 407.55304688 57.92337891 407.55304688 58.7578125 408.90234375 C61.99338648 414.81779756 61.38760433 421.08268543 61.41796875 427.66796875 C61.44890625 429.31635742 61.44890625 429.31635742 61.48046875 430.99804688 C61.52472745 440.2757773 60.48263376 447.74165097 54.04296875 454.79296875 C53.33914063 455.59347656 52.6353125 456.39398438 51.91015625 457.21875 C44.09827374 463.66188387 36.29533997 464.06484837 26.45336914 464.01391602 C25.08896456 464.02098646 23.72456783 464.02973618 22.36018372 464.0400238 C18.67821437 464.06240212 14.99667722 464.05960547 11.31466603 464.05070233 C8.23083542 464.04556852 5.14708434 464.05290432 2.06326193 464.06017441 C-5.21660469 464.07713675 -12.49626151 464.0736448 -19.77612305 464.05688477 C-27.26476226 464.03996607 -34.75281843 464.0558024 -42.24139398 464.08810765 C-48.69182813 464.11487128 -55.14208154 464.12206139 -61.5925656 464.11359257 C-65.43597172 464.1086831 -69.27902727 464.1107706 -73.12238884 464.13138008 C-76.73834918 464.14984452 -80.3534762 464.14364954 -83.96939278 464.11918068 C-85.91401104 464.11185128 -87.85867443 464.12894452 -89.80322266 464.14700317 C-98.85590725 464.04981966 -105.36209521 462.07107311 -112.453125 456.375 C-113.35224609 455.34439453 -113.35224609 455.34439453 -114.26953125 454.29296875 C-114.88699219 453.61878906 -115.50445312 452.94460938 -116.140625 452.25 C-120.77293229 444.66499799 -121.31076951 436.61469281 -121.20703125 427.91796875 C-121.21863281 426.94150391 -121.23023438 425.96503906 -121.2421875 424.95898438 C-121.20442094 415.5488157 -118.73456683 408.42595745 -113.83203125 400.48046875 C-114.25355469 399.81660156 -114.67507813 399.15273438 -115.109375 398.46875 C-115.93115234 397.14423828 -115.93115234 397.14423828 -116.76953125 395.79296875 C-117.58744141 394.48779297 -117.58744141 394.48779297 -118.421875 393.15625 C-121.53307555 387.25272542 -121.0487793 380.8061935 -121.08203125 374.29296875 C-121.11296875 372.80700195 -121.11296875 372.80700195 -121.14453125 371.29101562 C-121.19074996 362.48057477 -120.19592403 354.06380611 -113.83203125 347.48046875 C-114.8310145 345.47354276 -115.8367049 343.47143891 -116.8671875 341.48046875 C-117.20621094 340.82046875 -117.54523438 340.16046875 -117.89453125 339.48046875 C-118.23613281 338.82046875 -118.57773437 338.16046875 -118.9296875 337.48046875 C-121.50830426 331.76509307 -121.0158584 325.81999385 -121.01953125 319.66796875 C-121.03177734 318.59998047 -121.04402344 317.53199219 -121.05664062 316.43164062 C-121.05857422 315.38943359 -121.06050781 314.34722656 -121.0625 313.2734375 C-121.06660889 312.33008545 -121.07071777 311.3867334 -121.07495117 310.41479492 C-120.83203125 307.48046875 -120.83203125 307.48046875 -118.83203125 300.48046875 C-125.10203125 300.48046875 -131.37203125 300.48046875 -137.83203125 300.48046875 C-137.8231488 302.06772263 -137.81426636 303.6549765 -137.80511475 305.29032898 C-137.72386748 320.28200657 -137.6637475 335.27360272 -137.62478256 350.26544476 C-137.60421717 357.9720568 -137.57621293 365.67850374 -137.53027344 373.38500977 C-137.49021994 380.10736342 -137.46455474 386.82959742 -137.45567727 393.5520671 C-137.45049357 397.10676357 -137.43843847 400.6611179 -137.40911102 404.21570396 C-137.37652382 408.19823312 -137.37608358 412.1801795 -137.37792969 416.1628418 C-137.36354858 417.32234848 -137.34916748 418.48185516 -137.33435059 419.67649841 C-137.39909015 432.66638604 -140.93143526 443.86845744 -149.83203125 453.48046875 C-152.66240811 455.92836225 -155.55136217 457.70352831 -158.83203125 459.48046875 C-159.48200608 459.8457946 -160.13198092 460.21112045 -160.80165195 460.58751678 C-169.43455378 464.72631376 -178.52810077 464.04237707 -187.87670898 463.99804688 C-189.8012037 464.00347373 -191.72569425 464.01059955 -193.650177 464.01928711 C-198.85480733 464.03745748 -204.059119 464.03047858 -209.26375461 464.01777077 C-214.72386423 464.00760902 -220.18394747 464.01704538 -225.64405823 464.02331543 C-234.81264112 464.03058321 -243.98109493 464.02102756 -253.1496582 464.00195312 C-263.73115085 463.98019262 -274.31233507 463.98723338 -284.89382023 464.00925875 C-293.99732989 464.02744525 -303.10074702 464.02995499 -312.20426899 464.01950407 C-317.63324952 464.01328618 -323.06208536 464.01238637 -328.49105644 464.02565002 C-333.59741559 464.03725501 -338.70337948 464.02909811 -343.8096962 464.006073 C-345.6772566 464.0008104 -347.54485061 464.00225742 -349.41239738 464.01112366 C-364.38132058 464.07560486 -375.39723176 462.26527162 -386.703125 451.73828125 C-398.4818407 439.52894583 -397.5487157 425.41351126 -397.46313477 409.52709961 C-397.46827855 407.09985329 -397.47556328 404.67261071 -397.4848175 402.24537659 C-397.50136666 396.35970081 -397.49473791 390.47432946 -397.47672928 384.58868354 C-397.462654 379.80214118 -397.45882101 375.01568895 -397.46217155 370.22912788 C-397.462649 369.54564013 -397.46312644 368.86215237 -397.46361835 368.15795286 C-397.46464477 366.7690983 -397.46570013 365.38024375 -397.46678411 363.99138922 C-397.47533427 351.73499706 -397.45873045 339.47876524 -397.42895508 327.22241211 C-397.40011542 315.35092435 -397.39303929 303.47966749 -397.40844727 291.6081543 C-397.42523681 278.65459105 -397.42921613 265.7011372 -397.41173691 252.74757105 C-397.40989267 251.36437866 -397.40805795 249.98118626 -397.40623283 248.59799385 C-397.40532074 247.91758219 -397.40440865 247.23717053 -397.40346893 246.53614033 C-397.3978811 241.75917637 -397.40115421 236.98226613 -397.40777779 232.2053051 C-397.41635036 225.76766442 -397.40325848 219.33028043 -397.37592888 212.89269066 C-397.36906212 210.53491448 -397.36892863 208.17710726 -397.37614441 205.81933212 C-397.38488165 202.59170854 -397.36880998 199.3650973 -397.34669495 196.13755798 C-397.35493571 195.2128295 -397.36317648 194.28810101 -397.37166697 193.33535045 C-397.22824736 181.93229675 -392.92845587 172.45463192 -384.83203125 164.48046875 C-372.41234723 154.48826842 -359.54001149 154.03596585 -344.31640625 154.09228516 C-342.46073092 154.08821372 -340.60505801 154.08286865 -338.74938965 154.07635498 C-333.7370045 154.06274358 -328.72480577 154.06795442 -323.7124176 154.07749224 C-318.45117717 154.08512096 -313.18995203 154.07803433 -307.92871094 154.07333374 C-299.09567417 154.06788552 -290.2627128 154.07504327 -281.4296875 154.08935547 C-271.23732332 154.10568015 -261.04513921 154.10039098 -250.85277939 154.08387625 C-242.08046815 154.07023476 -233.30821092 154.06835473 -224.53589249 154.07619226 C-219.30592144 154.08085414 -214.07603486 154.08153463 -208.84606934 154.07158279 C-203.92771532 154.06287657 -199.00959207 154.06900151 -194.09126282 154.08626556 C-192.29303876 154.09021095 -190.49479506 154.08913002 -188.69657898 154.08247757 C-177.45714467 154.04475112 -166.51278432 154.10882046 -156.58203125 160.16796875 C-155.834375 160.60496094 -155.08671875 161.04195312 -154.31640625 161.4921875 C-150.68018087 164.40231127 -147.80995513 167.91474064 -144.83203125 171.48046875 C-144.85559692 170.37759521 -144.85559692 170.37759521 -144.87963867 169.25244141 C-144.94260739 165.87019775 -144.98121691 162.48807803 -145.01953125 159.10546875 C-145.04466797 157.94917969 -145.06980469 156.79289063 -145.09570312 155.6015625 C-145.1697904 146.85926452 -144.62296527 138.10854387 -138.89453125 131.04296875 C-138.16943359 130.11677734 -138.16943359 130.11677734 -137.4296875 129.171875 C-135.69170574 127.33190898 -133.94357325 125.87536619 -131.83203125 124.48046875 C-131.17203125 124.48046875 -130.51203125 124.48046875 -129.83203125 124.48046875 C-130.37730469 123.67609375 -130.37730469 123.67609375 -130.93359375 122.85546875 C-137.31249135 112.91093095 -142.05859624 101.20356512 -143.83203125 89.48046875 C-143.94160156 88.79339844 -144.05117188 88.10632813 -144.1640625 87.3984375 C-147.28048075 64.33694247 -142.01351067 40.67749605 -128.83203125 21.48046875 C-126.00449773 17.95787264 -123.01235918 14.68535519 -119.83203125 11.48046875 C-118.98640625 10.59359375 -118.14078125 9.70671875 -117.26953125 8.79296875 C-116.06296875 7.64828125 -116.06296875 7.64828125 -114.83203125 6.48046875 C-114.30867188 5.96226563 -113.7853125 5.4440625 -113.24609375 4.91015625 C-105.02802387 -2.82245802 -95.046329 -7.91306048 -84.58203125 -11.89453125 C-83.95748047 -12.13308838 -83.33292969 -12.37164551 -82.68945312 -12.61743164 C-55.36253224 -22.47321763 -23.20888486 -16.87661908 0 0 Z M-143.83203125 172.48046875 C-142.83203125 174.48046875 -142.83203125 174.48046875 -142.83203125 174.48046875 Z M-142.83203125 174.48046875 C-141.83203125 176.48046875 -141.83203125 176.48046875 -141.83203125 176.48046875 Z M-140.83203125 178.48046875 C-139.83203125 180.48046875 -139.83203125 180.48046875 -139.83203125 180.48046875 Z M-139.83203125 180.48046875 C-139.67355713 181.599375 -139.51508301 182.71828125 -139.35180664 183.87109375 C-138.75566876 188.65753133 -138.60965805 193.41156257 -138.515625 198.23046875 C-138.49697388 199.02839844 -138.47832275 199.82632813 -138.45910645 200.6484375 C-138.39147377 203.59234924 -138.33090384 206.53641985 -138.26953125 209.48046875 C-138.12515625 216.08046875 -137.98078125 222.68046875 -137.83203125 229.48046875 C-118.69203125 229.48046875 -99.55203125 229.48046875 -79.83203125 229.48046875 C-80.16203125 227.83046875 -80.49203125 226.18046875 -80.83203125 224.48046875 C-80.92277465 222.32437123 -80.96267319 220.16581764 -80.96484375 218.0078125 C-80.96677734 216.16413086 -80.96677734 216.16413086 -80.96875 214.28320312 C-80.96488281 213.00767578 -80.96101563 211.73214844 -80.95703125 210.41796875 C-80.96283203 208.49887695 -80.96283203 208.49887695 -80.96875 206.54101562 C-80.96746094 205.31318359 -80.96617187 204.08535156 -80.96484375 202.8203125 C-80.96371582 201.70003662 -80.96258789 200.57976074 -80.96142578 199.42553711 C-80.85149269 196.92341854 -80.5621553 194.86189125 -79.83203125 192.48046875 C-80.90050293 192.46064941 -81.96897461 192.44083008 -83.06982422 192.42041016 C-87.07704148 192.34368457 -91.08392686 192.25507709 -95.09082031 192.16308594 C-96.81699009 192.12507025 -98.54323172 192.0901724 -100.26953125 192.05859375 C-116.09367218 191.7655541 -127.34516983 191.01625807 -139.83203125 180.48046875 Z " fill="#010201" transform="translate(404.83203125,32.51953125)"/>
<path d="M0 0 C0.77944052 -0.00453111 1.55888105 -0.00906223 2.36194098 -0.01373065 C4.96422475 -0.02635412 7.56629869 -0.02475562 10.16860962 -0.02310181 C12.03826668 -0.0290883 13.90792128 -0.03589412 15.77757263 -0.04345703 C20.84992001 -0.0611109 25.92219989 -0.06581213 30.99457502 -0.0670886 C34.16496576 -0.06851099 37.33533938 -0.07278221 40.50572586 -0.07808304 C51.5699599 -0.09658053 62.63414578 -0.10475391 73.69839478 -0.10317993 C84.00605182 -0.10197827 94.31349956 -0.12308632 104.62110364 -0.15466726 C113.47648807 -0.1808304 122.33180412 -0.19154723 131.18722689 -0.19026911 C136.47367185 -0.18975954 141.75993073 -0.1954405 147.04633713 -0.21662521 C152.01881845 -0.23600842 156.99093616 -0.23613142 161.9634304 -0.22159195 C163.78549545 -0.21950294 165.60758325 -0.22421025 167.4296093 -0.23631287 C169.92298018 -0.25179863 172.41510239 -0.2424361 174.90844727 -0.22705078 C175.98211078 -0.24248147 175.98211078 -0.24248147 177.07746446 -0.25822389 C183.81957158 -0.16670219 188.76863475 2.32276228 193.83120728 6.57992554 C199.42782703 13.26477691 200.66706092 17.80449296 200.47183228 26.35726929 C200.46617249 27.30179459 200.4605127 28.24631989 200.4546814 29.21946716 C200.43241799 32.2151511 200.38224058 35.20960749 200.33120728 38.20492554 C200.31112929 40.24462172 200.2928808 42.28433678 200.27651978 44.32406616 C200.2325861 49.3056538 200.16362847 54.28633205 200.08120728 59.26742554 C199.36835571 59.36539429 198.65550415 59.46336304 197.92105103 59.56430054 C191.76273005 60.52576115 187.27384567 61.80566661 182.08120728 65.26742554 C182.07186157 64.54675903 182.06251587 63.82609253 182.05288696 63.08358765 C181.9989072 59.79002849 181.915313 56.49784755 181.83120728 53.20492554 C181.81702759 52.07119507 181.8028479 50.9374646 181.78823853 49.76937866 C181.59524891 43.14983481 181.31407175 38.50168915 177.08120728 33.26742554 C172.60209028 30.52511156 169.23725175 29.89008537 164.02212524 29.87974548 C163.33519529 29.87435995 162.64826534 29.86897441 161.94051933 29.86342567 C159.65129267 29.84918045 157.36264706 29.85624094 155.07339478 29.8633728 C153.4270888 29.85766747 151.78078677 29.85070258 150.13449097 29.84257507 C145.67171866 29.82464797 141.20914301 29.82581102 136.74634552 29.83151746 C133.01860325 29.8346095 129.29089874 29.82851679 125.56316185 29.82247871 C116.76901477 29.808437 107.97496485 29.80999225 99.18081665 29.82138062 C90.11141689 29.83286595 81.0423127 29.81877841 71.97295189 29.79198414 C64.18169765 29.76982859 56.3905362 29.7631893 48.5992527 29.76906055 C43.94780014 29.77243115 39.29653712 29.77000808 34.64511108 29.75280952 C30.27176743 29.7373444 25.8988619 29.74129096 21.52553558 29.76011467 C19.92194452 29.76380154 18.31832101 29.76068916 16.71475983 29.75022888 C14.52276515 29.73702326 12.33222195 29.74856032 10.14028931 29.76622009 C8.91472321 29.76642938 7.6891571 29.76663866 6.42645264 29.76685429 C1.53180177 30.49927336 -1.6226781 32.71513606 -4.76669312 36.4805603 C-6.33114964 40.2648941 -6.36742707 43.82729264 -6.35238647 47.85726929 C-6.36024925 49.09048668 -6.36024925 49.09048668 -6.36827087 50.34861755 C-6.37467673 52.08252842 -6.37337269 53.81648283 -6.36483765 55.55038452 C-6.35633051 58.19318588 -6.38510197 60.833822 -6.4168396 63.47640991 C-6.41845197 65.16586239 -6.4178734 66.85531868 -6.41488647 68.54476929 C-6.42612045 69.32931992 -6.43735443 70.11387054 -6.44892883 70.92219543 C-6.38299953 76.15240993 -5.39039029 79.13351637 -1.91879272 83.26742554 C1.56078434 86.61430482 4.27489686 86.64867071 9.01608276 86.66615295 C9.71370436 86.67279978 10.41132596 86.67944661 11.13008761 86.68629485 C13.46713267 86.7049439 15.80366662 86.70231838 18.14077759 86.69979858 C19.81623051 86.70881461 21.49167682 86.71914143 23.16711426 86.73068237 C27.71633643 86.75829733 32.2654336 86.76754298 36.81472874 86.77353644 C41.56870556 86.78290842 46.32258858 86.80911084 51.07650757 86.83354187 C60.07909468 86.87724297 69.08166362 86.90576775 78.0843246 86.92886525 C88.33336933 86.95589758 98.58231987 86.99981029 108.8312974 87.04515398 C129.91455005 87.13805196 150.9978309 87.2097091 172.08120728 87.26742554 C172.13309204 88.57155396 172.18497681 89.87568237 172.23843384 91.21932983 C172.31584617 92.9476187 172.39366721 94.6758893 172.47183228 96.40414429 C172.5048645 97.26165283 172.53789673 98.11916138 172.57192993 99.00265503 C173.00716212 108.24689779 175.21356774 115.70501442 182.08120728 122.26742554 C186.45278352 125.32667675 190.5358678 127.21292944 195.74819946 128.33480835 C196.55940247 128.51070496 197.37060547 128.68660156 198.20639038 128.86782837 C198.82507996 128.99969543 199.44376953 129.1315625 200.08120728 129.26742554 C200.15134613 145.96602059 200.20421929 162.66456773 200.23664379 179.36327457 C200.25210046 187.11710096 200.27316694 194.87083571 200.30752563 202.62460327 C200.33746485 209.38425444 200.35679101 216.14383923 200.36347276 222.90355486 C200.36737739 226.48146721 200.37652854 230.0591897 200.39839745 233.63704109 C200.42263563 237.63509604 200.42317437 241.63282271 200.42178345 245.63095093 C200.43256927 246.81202927 200.4433551 247.9931076 200.45446777 249.2099762 C200.42190831 257.85552858 199.0365969 264.1586382 192.90801907 270.57608795 C184.8552867 278.03163919 173.97874422 276.83513124 163.74502563 276.78500366 C161.88477532 276.79042959 160.02452931 276.79755488 158.16429138 276.8062439 C153.13128192 276.82442292 148.09860176 276.81743246 143.06558681 276.80472755 C137.78958063 276.79457328 132.51360193 276.80399983 127.2375946 276.81027222 C118.37999428 276.81754091 109.52252754 276.80798065 100.66494751 276.78890991 C90.43389148 276.76713599 80.20315425 276.77419951 69.97210592 276.79621553 C61.17609081 276.81438366 52.38017151 276.81692114 43.5841437 276.80646086 C38.33577123 276.80023458 33.08754848 276.79936665 27.83918571 276.81260681 C22.90520659 276.82418545 17.97163752 276.81610272 13.03770256 276.79302979 C11.23016032 276.78775375 9.4225834 276.7892375 7.61505508 276.79808044 C5.14151405 276.80906348 2.66927484 276.79524043 0.19581604 276.77536011 C-0.86894151 276.78874444 -0.86894151 276.78874444 -1.95520931 276.80239916 C-9.204216 276.68991523 -15.82102363 273.36519463 -20.91879272 268.26742554 C-23.7807332 263.50074765 -26.03766574 258.8033287 -26.05580711 253.17525291 C-26.06088166 252.33881512 -26.0659562 251.50237733 -26.07118452 250.64059293 C-26.07168227 249.72164294 -26.07218003 248.80269295 -26.07269287 247.855896 C-26.07707512 246.87963025 -26.08145738 245.9033645 -26.08597243 244.89751494 C-26.09937596 241.61114858 -26.10554281 238.32480906 -26.11166382 235.03842163 C-26.11956359 232.6880786 -26.12783247 230.33773678 -26.13644409 227.98739624 C-26.16041432 220.9229206 -26.17559476 213.85844412 -26.18850416 206.79394048 C-26.19469504 203.46581243 -26.20161272 200.13768583 -26.20836258 196.80955887 C-26.23019389 185.74337754 -26.24888223 174.67719579 -26.25998497 163.61099815 C-26.2629146 160.73947521 -26.26587627 157.8679523 -26.26889038 154.99642944 C-26.27000946 153.92589407 -26.27000946 153.92589407 -26.27115114 152.83373173 C-26.2837991 141.27777789 -26.3170149 129.72197811 -26.35869221 118.16609626 C-26.40114604 106.29743655 -26.42468403 94.42885564 -26.42990553 82.56012022 C-26.43331592 75.89809816 -26.44559608 69.23628521 -26.47800827 62.57432175 C-26.50807218 56.30504728 -26.51440631 50.03619213 -26.50262451 43.76686096 C-26.50240364 41.46789106 -26.51072003 39.16890179 -26.52827835 36.86999893 C-26.55097764 33.72644793 -26.5426703 30.58441641 -26.52679443 27.44085693 C-26.54067652 26.53529127 -26.55455861 25.62972562 -26.56886137 24.69671857 C-26.4783113 17.39850507 -24.18295016 11.72043855 -19.13405836 6.37943113 C-13.46836166 1.06771086 -7.64409648 -0.03287157 0 0 Z " fill="#817481" transform="translate(49.918792724609375,203.73257446289063)"/>
<path d="M0 0 C1.37502622 1.16328264 2.72944966 2.35134337 4.0625 3.5625 C4.80757813 4.21605469 5.55265625 4.86960937 6.3203125 5.54296875 C17.71546392 16.14625372 27.10680753 32.56849559 28.26757812 48.35083008 C28.36695458 51.50730002 28.38450048 54.65454198 28.375 57.8125 C28.39111328 58.86824219 28.40722656 59.92398438 28.42382812 61.01171875 C28.43584809 80.65233347 20.23336426 98.29536714 6.75 112.375 C-8.24171804 126.74637109 -27.84863452 134.28615657 -48.52416992 134.03051758 C-69.16639461 133.27870727 -87.67682729 123.55786573 -101.6875 108.6875 C-116.04104809 92.11016277 -121.27246158 72.09413833 -119.9375 50.5625 C-117.99886731 32.36450725 -109.56742803 15.96322517 -96.25390625 3.4296875 C-67.59743981 -19.66945408 -29.99745636 -22.31644678 0 0 Z " fill="#FCC137" transform="translate(396.9375,47.4375)"/>
<path d="M0 0 C6.00929935 3.47484295 10.20562354 9.51073593 14.4609375 14.85546875 C17.3141697 18.42600034 20.3095448 21.86776431 23.3125 25.3125 C24.1324646 26.25585205 24.1324646 26.25585205 24.96899414 27.21826172 C27.2125295 29.79909921 29.4578436 32.37837493 31.70556641 34.95556641 C33.34900348 36.84226447 34.98743123 38.73320833 36.625 40.625 C37.12169189 41.19259033 37.61838379 41.76018066 38.13012695 42.3449707 C45.72071984 51.13511665 45.72071984 51.13511665 46 57 C44.6436759 60.93333988 43.40284909 64.44786318 40 67 C36.71480525 68.09506492 34.26336585 68.09960608 30.8125 68.0625 C29.72582031 68.05347656 28.63914062 68.04445313 27.51953125 68.03515625 C26.27236328 68.01775391 26.27236328 68.01775391 25 68 C25.00888245 68.97195312 25.01776489 69.94390625 25.0269165 70.9453125 C25.10816513 80.12562842 25.16804333 89.30587095 25.20724869 98.48646545 C25.22808256 103.20581095 25.25632305 107.92486511 25.30175781 112.64404297 C25.34536595 117.20225876 25.36916868 121.76019514 25.37950897 126.31860352 C25.38687356 128.05367427 25.40125483 129.78873053 25.42292023 131.52368164 C25.45215412 133.96273291 25.45594781 136.40064419 25.45410156 138.83984375 C25.46848267 139.54978989 25.48286377 140.25973602 25.49768066 140.99119568 C25.45373397 146.39168851 23.96498892 150.55906298 21 155 C14.24923181 160.23184535 6.16869439 159.21924891 -1.96142578 159.24023438 C-4.22856785 159.24990855 -6.49479037 159.28093954 -8.76171875 159.3125 C-22.64021813 159.41588284 -22.64021813 159.41588284 -29 156 C-33.75323296 150.27174489 -34.14975342 145.59024902 -34.11352539 138.38574219 C-34.11367142 137.62437958 -34.11381744 136.86301697 -34.1139679 136.07858276 C-34.11327255 133.56798429 -34.10549787 131.05746048 -34.09765625 128.546875 C-34.09579073 126.80381308 -34.09436746 125.06075063 -34.09336853 123.31768799 C-34.08955394 118.73427884 -34.07973267 114.15090149 -34.06866455 109.56750488 C-34.0584277 104.88875763 -34.05386604 100.21000523 -34.04882812 95.53125 C-34.03810946 86.35415272 -34.02104572 77.177079 -34 68 C-35.21236328 68.05220703 -35.21236328 68.05220703 -36.44921875 68.10546875 C-37.51785156 68.13253906 -38.58648437 68.15960938 -39.6875 68.1875 C-41.27111328 68.23970703 -41.27111328 68.23970703 -42.88671875 68.29296875 C-47.15589307 67.89122713 -49.67162571 66.19095626 -52.8125 63.375 C-54.71842871 59.56314258 -54.81290885 56.16181537 -54 52 C-52.47644494 48.92074736 -50.27707811 46.55373247 -48 44 C-47.10304965 42.9499783 -46.20872331 41.89771193 -45.31640625 40.84375 C-43.27065289 38.43384711 -41.21276203 36.03517017 -39.14453125 33.64453125 C-36.2386806 30.28327946 -33.36461973 26.89639732 -30.5 23.5 C-29.60303235 22.43996219 -28.70589527 21.38006771 -27.80859375 20.3203125 C-26.34280465 18.58891761 -24.87888524 16.85603833 -23.41845703 15.12011719 C-21.80371562 13.20173681 -20.18353673 11.28806172 -18.5625 9.375 C-18.06621094 8.78267578 -17.56992187 8.19035156 -17.05859375 7.58007812 C-11.8886752 1.49906737 -8.17790703 -1.82784346 0 0 Z " fill="#000101" transform="translate(62,16)"/>
<path d="M0 0 C0.74121094 0.05285156 1.48242188 0.10570312 2.24609375 0.16015625 C5.59009881 1.28234344 7.20748054 3.34807736 9.5625 5.9375 C10.73039062 7.17886719 10.73039062 7.17886719 11.921875 8.4453125 C16.81760279 13.80501449 21.51733989 19.26450398 26.07421875 24.9140625 C28.49268957 27.8526754 30.96723101 30.72996032 33.47070312 33.59594727 C35.16142515 35.53263184 36.8414805 37.47811503 38.51953125 39.42578125 C40.30248446 41.49515265 42.10352999 43.52811703 43.94921875 45.54296875 C47.2837472 49.36448716 48.99291668 52.03827226 49.25 57.1875 C48.93475994 61.50025232 47.8255461 63.96236973 44.5625 66.9375 C41.55936252 68.43906874 38.77182478 68.03031204 35.4375 68 C34.15617187 67.99097656 32.87484375 67.98195313 31.5546875 67.97265625 C30.56726563 67.96105469 29.57984375 67.94945313 28.5625 67.9375 C28.57249275 68.87258141 28.57249275 68.87258141 28.58268738 69.82655334 C28.64920785 76.33182605 28.69436999 82.83700164 28.72729492 89.3425293 C28.74235409 91.76835049 28.76280562 94.19414458 28.78881836 96.61987305 C28.82532703 100.11253562 28.84225553 103.60483725 28.85546875 107.09765625 C28.87095261 108.17709 28.88643646 109.25652374 28.90238953 110.3686676 C28.90397009 117.4872177 28.25208521 122.50596025 23.75 128.25 C17.30517388 133.22172301 9.16520489 132.27582555 1.45019531 132.25317383 C-0.7993234 132.25001848 -3.04751887 132.27349089 -5.296875 132.29882812 C-12.49536555 132.33107204 -18.91666893 132.35745908 -25.4375 128.9375 C-29.03536018 125.33963982 -30.31218275 122.49600083 -30.55775452 117.48236084 C-30.55553391 116.56746887 -30.55331329 115.6525769 -30.55102539 114.70996094 C-30.55094986 113.66918396 -30.55087433 112.62840698 -30.55079651 111.55609131 C-30.54563522 110.43929993 -30.54047394 109.32250854 -30.53515625 108.171875 C-30.5337413 107.02334045 -30.53232635 105.87480591 -30.53086853 104.69146729 C-30.52527143 101.02345169 -30.51271944 97.35549715 -30.5 93.6875 C-30.49498463 91.20052171 -30.49042178 88.71354247 -30.48632812 86.2265625 C-30.47530295 80.1301875 -30.45856769 74.03384811 -30.4375 67.9375 C-31.39011719 67.98390625 -32.34273437 68.0303125 -33.32421875 68.078125 C-34.57847656 68.11421875 -35.83273438 68.1503125 -37.125 68.1875 C-38.36636719 68.23390625 -39.60773438 68.2803125 -40.88671875 68.328125 C-45.01658892 67.87379385 -46.53632036 66.83867964 -49.4375 63.9375 C-51.15826784 61.04348136 -51.43042676 59.11786757 -51.5625 55.75 C-49.87071286 50.01672135 -46.33931588 46.38403069 -42.4375 41.9375 C-41.40153421 40.7415862 -40.36642661 39.54492863 -39.33203125 38.34765625 C-37.65459831 36.40875354 -35.97527528 34.47164583 -34.2902832 32.53930664 C-31.0890656 28.86602862 -27.94504657 25.15953013 -24.875 21.375 C-21.32655615 17.0117283 -17.7491299 12.67553166 -14.125 8.375 C-13.620896 7.76648193 -13.11679199 7.15796387 -12.59741211 6.53100586 C-8.70113621 1.93661735 -6.13978182 -0.58524783 0 0 Z " fill="#000101" transform="translate(184.4375,43.0625)"/>
<path d="M0 0 C1.10045654 -0.00990463 2.20091309 -0.01980927 3.3347168 -0.03001404 C4.53226089 -0.02551239 5.72980499 -0.02101074 6.96363831 -0.01637268 C8.23244843 -0.02323593 9.50125854 -0.03009918 10.80851746 -0.03717041 C14.28172745 -0.05509161 17.75468465 -0.05393546 21.22792697 -0.04822803 C24.13049415 -0.04513455 27.03301288 -0.0512304 29.93557316 -0.05726677 C36.7846503 -0.07130705 43.6336027 -0.06975499 50.48268127 -0.05836487 C57.54180824 -0.04688464 64.60055525 -0.06095853 71.65963215 -0.08776134 C77.72689499 -0.10993334 83.79403868 -0.11655235 89.86133915 -0.11068493 C93.48219055 -0.10731762 97.10279842 -0.10971501 100.72361565 -0.12693596 C104.76220049 -0.14530605 108.80004824 -0.13120277 112.83863831 -0.11402893 C114.63191811 -0.12853088 114.63191811 -0.12853088 116.46142578 -0.14332581 C122.75844565 -0.08719684 126.70894533 0.09401367 131.46583557 4.38768005 C135.45088621 8.91193417 134.94683832 14.10259104 134.90333557 19.82518005 C134.92331604 20.75394958 134.94329651 21.68271912 134.96388245 22.63963318 C134.95980535 28.36795411 134.46503867 31.96462979 130.46583557 36.38768005 C126.83681413 38.96887298 124.36572673 39.764062 119.93167114 39.77536011 C118.8312146 39.78526474 117.73075806 39.79516937 116.59695435 39.80537415 C115.39941025 39.8008725 114.20186615 39.79637085 112.96803284 39.79173279 C111.06481766 39.80202766 111.06481766 39.80202766 109.12315369 39.81253052 C105.6499437 39.83045172 102.17698649 39.82929557 98.70374417 39.82358813 C95.801177 39.82049465 92.89865826 39.82659051 89.99609798 39.83262688 C83.14702084 39.84666716 76.29806845 39.84511509 69.44898987 39.83372498 C62.3898629 39.82224475 55.3311159 39.83631864 48.272039 39.86312145 C42.20477616 39.88529345 36.13763246 39.89191246 30.07033199 39.88604504 C26.44948059 39.88267773 22.82887272 39.88507512 19.2080555 39.90229607 C15.16947065 39.92066615 11.13162291 39.90656288 7.09303284 39.88938904 C5.29975304 39.90389099 5.29975304 39.90389099 3.47024536 39.91868591 C-2.82677451 39.86255695 -6.77727419 39.68134644 -11.53416443 35.38768005 C-15.51921507 30.86342594 -15.01516718 25.67276907 -14.97166443 19.95018005 C-14.9916449 19.02141052 -15.01162537 18.09264099 -15.0322113 17.13572693 C-15.02813421 11.40740599 -14.53336752 7.81073031 -10.53416443 3.38768005 C-6.90514299 0.80648713 -4.43405559 0.0112981 0 0 Z " fill="#FEE076" transform="translate(252.53416442871094,277.61231994628906)"/>
<path d="M0 0 C1.10612137 -0.00852997 2.21224274 -0.01705994 3.35188293 -0.02584839 C4.56596832 -0.02494202 5.78005371 -0.02403564 7.03092957 -0.02310181 C8.3092012 -0.02981903 9.58747284 -0.03653625 10.90447998 -0.04345703 C14.41287687 -0.06113731 17.92117622 -0.06581332 21.42961335 -0.0670886 C23.62222131 -0.06850989 25.81480444 -0.07277911 28.00740623 -0.07808304 C35.65881806 -0.09659171 43.31016016 -0.10475282 50.96159363 -0.10317993 C58.08996264 -0.10197907 65.21802859 -0.12306822 72.34632093 -0.15466726 C78.46873198 -0.18083853 84.59104414 -0.19154684 90.71351069 -0.19026911 C94.36906023 -0.18975962 98.02434062 -0.19543507 101.67983437 -0.21662521 C105.75931547 -0.23962671 109.83812023 -0.2304816 113.91764832 -0.21841431 C115.12566101 -0.22965332 116.33367371 -0.24089233 117.57829285 -0.25247192 C123.87932176 -0.20504675 127.94994682 -0.10454725 132.66838074 4.26742554 C135.75940368 8.90395995 135.07691278 13.62429309 135.10588074 19.07992554 C135.13875183 20.16080444 135.17162292 21.24168335 135.20549011 22.35531616 C135.26572664 31.27579893 135.26572664 31.27579893 132.39103699 34.90414429 C128.31309463 38.44382165 125.69327741 39.51573976 120.29243469 39.53485107 C119.20176697 39.54338104 118.11109924 39.55191101 116.98738098 39.56069946 C115.79559235 39.55979309 114.60380371 39.55888672 113.37590027 39.55795288 C111.48753448 39.56802872 111.48753448 39.56802872 109.5610199 39.57830811 C106.11053125 39.59596453 102.66014182 39.60066333 99.20961237 39.60193968 C97.05267844 39.60336206 94.89576968 39.60763329 92.73884201 39.61293411 C85.2106186 39.6314333 77.68246597 39.63960488 70.15422058 39.63803101 C63.14227633 39.63682967 56.13063993 39.65793052 49.11877358 39.68951833 C43.09400587 39.71568993 37.06933865 39.72639794 31.04451454 39.72512019 C27.44822291 39.7246108 23.85220489 39.73028057 20.25597 39.75147629 C16.24365015 39.77447907 12.23201789 39.76533251 8.21965027 39.75326538 C7.0319101 39.76450439 5.84416992 39.77574341 4.62043762 39.787323 C-1.67046331 39.73918483 -5.56875515 39.53581956 -10.33161926 35.26742554 C-14.74680239 30.70214955 -13.84583624 25.33304221 -13.83161926 19.32992554 C-13.85997864 18.24517944 -13.88833801 17.16043335 -13.91755676 16.04281616 C-13.93714377 8.07580075 -13.93714377 8.07580075 -10.98786926 4.13851929 C-6.93522887 1.28379171 -4.95222009 0.01723863 0 0 Z " fill="#FEE076" transform="translate(314.3316192626953,386.7325744628906)"/>
<path d="M0 0 C1.10894119 -0.00845947 2.21788239 -0.01691895 3.36042786 -0.02563477 C4.57248901 -0.01956207 5.78455017 -0.01348938 7.03334045 -0.00723267 C8.31336441 -0.01248962 9.59338837 -0.01774658 10.91220093 -0.02316284 C14.42053907 -0.03683604 17.92861246 -0.03153757 21.43695521 -0.02202559 C25.11016853 -0.01442732 28.78335927 -0.02147521 32.45657349 -0.02618408 C38.62608405 -0.03164185 44.79548687 -0.02445024 50.96498108 -0.01016235 C58.09392023 0.00615704 65.22260189 0.00088103 72.35153478 -0.01564157 C78.47480754 -0.02926452 84.59800286 -0.03117194 90.72128588 -0.02332556 C94.37728218 -0.01865254 98.03315755 -0.01801377 101.68914604 -0.02793503 C105.76627165 -0.03822618 109.84295495 -0.02395412 113.9200592 -0.00723267 C115.13009613 -0.01330536 116.34013306 -0.01937805 117.58683777 -0.02563477 C118.69859879 -0.01717529 119.8103598 -0.00871582 120.95581055 0 C121.9194197 0.00113108 122.88302885 0.00226215 123.87583828 0.00342751 C128.06976524 0.5974139 130.717768 2.64742827 133.82655334 5.41610718 C136.37560689 9.82324076 136.08600201 13.81906999 135.97889709 18.81845093 C135.98598694 19.74722046 135.99307678 20.67598999 136.00038147 21.63290405 C135.95144354 26.92196541 135.60922125 30.8800842 132.54139709 35.38095093 C129.37800463 38.3176562 127.23971662 38.75919878 122.96890259 38.77536011 C121.83471893 38.7867099 120.70053528 38.79805969 119.53198242 38.80975342 C118.29186905 38.80682281 117.05175568 38.80389221 115.77406311 38.8008728 C114.46477844 38.80934235 113.15549377 38.81781189 111.80653381 38.82653809 C108.21764969 38.84875501 104.62899515 38.85168473 101.0400517 38.84979057 C98.04299568 38.84967088 95.04598832 38.85823432 92.04894584 38.86656809 C84.97795582 38.88580263 77.90708385 38.88868575 70.83607483 38.88192749 C63.54342613 38.87528563 56.25128309 38.89815627 48.95873696 38.93524122 C42.6953307 38.96593596 36.43208714 38.97729855 30.16860718 38.97340441 C26.42866183 38.97133671 22.68911 38.97681865 18.94923592 39.001297 C14.77852513 39.02769365 10.60888247 39.01383818 6.43812561 38.9961853 C5.20003647 39.00944855 3.96194733 39.02271179 2.68634033 39.03637695 C-6.62216875 38.94461186 -6.62216875 38.94461186 -9.68392944 35.96923828 C-13.58953803 30.27307077 -13.82377705 26.31526684 -13.83360291 19.50595093 C-13.85809509 18.62036499 -13.88258728 17.73477905 -13.90782166 16.82235718 C-13.93312001 11.16395751 -13.31821468 7.8093476 -9.45860291 3.38095093 C-6.2928115 0.50064272 -4.24872287 0.00498907 0 0 Z " fill="#FECF63" transform="translate(352.45860290527344,223.61904907226563)"/>
<path d="M0 0 C1.11460602 -0.00571014 2.22921204 -0.01142029 3.37759399 -0.01730347 C4.60619644 -0.01842133 5.83479889 -0.01953918 7.10063171 -0.02069092 C8.39011719 -0.02565582 9.67960266 -0.03062073 11.00816345 -0.03573608 C14.55165564 -0.04886871 18.09512887 -0.05530685 21.6386416 -0.05974674 C23.85216735 -0.06267641 26.0656879 -0.06678105 28.27921104 -0.07125092 C35.20382994 -0.08492885 42.12843699 -0.09459374 49.05306846 -0.09845281 C57.04819451 -0.10293279 65.04314952 -0.12047656 73.03822356 -0.1494534 C79.21663842 -0.17106907 85.39500515 -0.18115704 91.57345742 -0.18249393 C95.26416003 -0.18354215 98.95470194 -0.18945339 102.64536476 -0.20731354 C106.76337179 -0.22685346 110.88102098 -0.22250573 114.99906921 -0.21600342 C116.83286385 -0.22982559 116.83286385 -0.22982559 118.70370483 -0.243927 C120.38830307 -0.23557327 120.38830307 -0.23557327 122.10693359 -0.22705078 C123.08051473 -0.22851734 124.05409586 -0.2299839 125.05717945 -0.2314949 C129.0852264 0.32611996 131.73326314 2.09548841 134.52934265 4.98638916 C136.94161239 9.26447076 136.21263887 14.28784469 136.18144226 19.07794189 C136.20142273 20.16268799 136.2214032 21.24743408 136.24198914 22.36505127 C136.23712917 30.27221615 136.23712917 30.27221615 133.96659851 34.26934814 C130.09313854 37.5301343 127.31436963 38.39031861 122.25410461 38.41459656 C121.13819443 38.42457169 120.02228424 38.43454681 118.87255859 38.44482422 C117.65271774 38.44548889 116.43287689 38.44615356 115.17607117 38.44683838 C113.88789993 38.4551619 112.5997287 38.46348541 111.27252197 38.47206116 C107.74146813 38.49399053 104.21050086 38.50280285 100.67938662 38.5078876 C98.47219983 38.51153285 96.26503567 38.51777375 94.05785751 38.52488899 C86.35457616 38.54937749 78.6513621 38.5624342 70.94804382 38.565979 C63.7724473 38.56961446 56.59727846 38.59951166 49.42181265 38.64138359 C43.25691853 38.67609463 37.0921661 38.69152757 30.92717493 38.69222504 C27.24697739 38.69301755 23.56721568 38.70174354 19.88711929 38.7302227 C15.78130735 38.76128655 11.67651273 38.75234003 7.57060242 38.73980713 C6.35481003 38.75464142 5.13901764 38.76947571 3.88638306 38.78475952 C-5.29824349 38.70480284 -5.29824349 38.70480284 -8.995224 35.79048157 C-13.30578754 30.73784802 -12.54504906 25.16521802 -12.63105774 18.82794189 C-12.68713196 17.2781665 -12.68713196 17.2781665 -12.74433899 15.69708252 C-12.8430731 7.14561115 -12.8430731 7.14561115 -9.85762024 3.47247314 C-6.2766404 0.26249572 -4.70069966 0.01437914 0 0 Z " fill="#FECF63" transform="translate(313.2560577392578,332.85955810546875)"/>
<path d="M0 0 C1.68236252 -0.0129007 1.68236252 -0.0129007 3.39871216 -0.02606201 C4.6350943 -0.03032196 5.87147644 -0.03458191 7.14532471 -0.03897095 C8.44295746 -0.04714844 9.74059021 -0.05532593 11.07754517 -0.06375122 C15.38820313 -0.08997763 19.69887084 -0.10528065 24.00958252 -0.11953735 C25.49346167 -0.12489701 26.97734076 -0.13027452 28.46121979 -0.13566971 C34.63426751 -0.15730042 40.80731261 -0.17603665 46.98038864 -0.1872921 C55.82678773 -0.2035278 64.67274734 -0.23669358 73.51898074 -0.29369295 C79.73902097 -0.33240377 85.95894371 -0.35192618 92.17910123 -0.35721266 C95.89400187 -0.36086498 99.60843385 -0.37287213 103.32320404 -0.4053154 C107.46990548 -0.44101122 111.61566377 -0.43702235 115.76251221 -0.42959595 C116.99079742 -0.44600128 118.21908264 -0.46240662 119.48458862 -0.47930908 C128.76091134 -0.4111936 128.76091134 -0.4111936 132.45959473 2.56536865 C136.74363848 7.48717381 135.96740557 12.10734163 136.02520752 18.40390015 C136.05421143 19.44159546 136.08321533 20.47929077 136.11309814 21.5484314 C136.16430317 27.71666696 136.00255018 31.55603025 131.71270752 36.15390015 C128.5137771 38.16841316 126.00801231 38.4082693 122.26083374 38.42132568 C121.15333771 38.42985565 120.04584167 38.43838562 118.90478516 38.44717407 C117.69429504 38.4462677 116.48380493 38.44536133 115.2366333 38.44442749 C113.95821564 38.45114471 112.67979797 38.45786194 111.36264038 38.46478271 C107.85843474 38.48244042 104.3543268 38.48713799 100.85008097 38.48841429 C98.65964526 38.48983659 96.46923433 38.49410768 94.27880478 38.49940872 C86.63387222 38.51790832 78.98900938 38.52607944 71.34405518 38.52450562 C64.22304975 38.52330426 57.10234745 38.54440538 49.98141873 38.57599294 C43.86323375 38.60216323 37.74514774 38.6128726 31.62690723 38.6115948 C27.97472594 38.61108537 24.32281406 38.61675723 20.67068863 38.6379509 C16.59610597 38.66095088 12.52220049 38.65180789 8.4475708 38.63973999 C6.63790833 38.65659851 6.63790833 38.65659851 4.79168701 38.67379761 C-1.5103565 38.62630322 -5.54130806 38.48791807 -10.28729248 34.15390015 C-13.45125537 29.64995298 -12.69519544 24.06690489 -12.72479248 18.77890015 C-12.75766357 17.75022827 -12.79053467 16.7215564 -12.82440186 15.66171265 C-12.8844974 7.18277703 -12.8844974 7.18277703 -9.88494873 3.48983765 C-6.30176898 0.26766999 -4.71135594 0.02682923 0 0 Z " fill="#FECF63" transform="translate(313.28729248046875,441.8460998535156)"/>
<path d="M0 0 C51.48 0 102.96 0 156 0 C156 8.58 156 17.16 156 26 C104.52 26 53.04 26 0 26 C0 17.42 0 8.84 0 0 Z " fill="#6BF4C1" transform="translate(59,249)"/>
<path d="M0 0 C2.375 1.5625 2.375 1.5625 4 4 C4.32695874 6.75805517 4.18630777 9.20538347 4 12 C4.60585938 12.11214844 5.21171875 12.22429688 5.8359375 12.33984375 C14.79410101 14.44845762 21.6412235 19.86855912 26.625 27.625 C28.18745517 31.46011723 28.61845982 33.90270366 28 38 C26.4375 40.4375 26.4375 40.4375 24 42 C20.1947167 42.5436119 18.027314 42.75537794 14.875 40.4375 C13 38 13 38 11.89453125 36.28125 C8.86371452 31.65165293 6.54326294 29.54484377 1 28 C-5.87517959 27.11430859 -10.38828725 27.90812612 -16 32 C-18.6788311 36.01824665 -18.7967596 39.27941355 -18 44 C-13.41508986 49.80755284 -4.57624769 50.79793928 2.375 51.8125 C12.34423109 53.56099315 19.97531906 58.05939661 26.4765625 65.75390625 C31.11594666 72.59402392 30.65973078 80.05785636 30 88 C28.36579566 94.65059109 23.6173024 99.32643304 18 103 C13.4569968 105.10393181 9.04799651 107 4 107 C4.0825 108.2375 4.165 109.475 4.25 110.75 C4.23907335 113.83677837 4.14153661 114.78769509 2.375 117.4375 C-0.58928482 119.38768738 -2.44050856 120 -6 120 C-8.74716387 118.22960551 -10.53145922 116.93708156 -12 114 C-12.04022391 111.6670134 -12.04320247 109.33293334 -12 107 C-13.2065625 106.9071875 -13.2065625 106.9071875 -14.4375 106.8125 C-22.34755892 105.00845147 -29.05260647 100.40854084 -34 94 C-37.07210449 88.87376648 -38.94950622 84.05310218 -38 78 C-36.4375 75.5625 -36.4375 75.5625 -34 74 C-30.5625 73.4375 -30.5625 73.4375 -27 74 C-23.51921546 76.59035129 -21.86149181 79.16864949 -20.1875 83.0625 C-18.32320474 86.96057191 -16.38594465 88.71331173 -12.40234375 90.375 C-4.73867511 92.36879997 2.21599376 91.55253056 9.2578125 88.0703125 C11.16069113 86.99420952 11.16069113 86.99420952 13 85 C13.47022751 82.96983336 13.47022751 82.96983336 13.5 80.6875 C13.5515625 79.92824219 13.603125 79.16898437 13.65625 78.38671875 C12.64399298 74.70523637 10.15175553 72.89113898 7 71 C4.36609171 70.12944742 2.002652 69.4740418 -0.6875 68.9375 C-2.11031479 68.61479301 -3.53219715 68.28794783 -4.953125 67.95703125 C-5.64341797 67.79799316 -6.33371094 67.63895508 -7.04492188 67.47509766 C-16.63702527 65.14414945 -26.47723591 61.41223266 -32 52.8125 C-35.90761346 45.93347213 -35.79819044 38.6874264 -35 31 C-31.90287295 22.22290194 -25.49593833 17.54487075 -17.6875 13.125 C-15 12 -15 12 -12 12 C-12.12375 10.4221875 -12.12375 10.4221875 -12.25 8.8125 C-11.96269651 4.43112175 -11.05154419 3.05154419 -8 0 C-5.02898609 -1.48550695 -3.16565278 -0.82306972 0 0 Z " fill="#040300" transform="translate(355,47)"/>
<path d="M0 0 C8.25864407 8.17201494 15.7276614 16.94781563 23 26 C23.74636719 26.91136719 24.49273437 27.82273437 25.26171875 28.76171875 C27 31 27 31 27 32 C25.96939453 32.14695312 25.96939453 32.14695312 24.91796875 32.296875 C24.01691406 32.44640625 23.11585937 32.5959375 22.1875 32.75 C21.29417969 32.88921875 20.40085938 33.0284375 19.48046875 33.171875 C16.29053439 34.23686096 15.63520229 35.06294646 14 38 C13.69628242 40.8244073 13.56243229 43.4318677 13.56762695 46.25683594 C13.5574353 47.08647354 13.54724365 47.91611115 13.53674316 48.77088928 C13.50658722 51.50878632 13.49734331 54.24633363 13.48828125 56.984375 C13.47143648 58.88439092 13.45328652 60.78439569 13.43388367 62.68438721 C13.38635558 67.68203241 13.35656436 72.67963237 13.33044434 77.6774292 C13.30065302 82.77853327 13.25411778 87.87948143 13.20898438 92.98046875 C13.12291912 102.98691561 13.05713578 112.99334609 13 123 C4.75 123 -3.5 123 -12 123 C-12.00410889 120.45128174 -12.00821777 117.90256348 -12.01245117 115.27661133 C-12.0296503 106.85464063 -12.07415465 98.43297355 -12.13209057 90.01118946 C-12.16637814 84.90510499 -12.19147331 79.79932028 -12.19555664 74.69311523 C-12.19983578 69.76506661 -12.22826664 64.83769439 -12.27343178 59.9098568 C-12.28641908 58.03004585 -12.2907101 56.15015401 -12.28615379 54.27030373 C-12.28125647 51.63624712 -12.30729989 49.00417407 -12.34057617 46.37036133 C-12.33195053 45.59352493 -12.32332489 44.81668854 -12.31443787 44.01631165 C-12.39970561 39.98884291 -12.84054142 38.19781627 -15.40132141 35.02104187 C-17.97302997 33.0209751 -19.12781876 32.34943294 -22.3125 32.1875 C-23.529375 32.125625 -24.74625 32.06375 -26 32 C-23.5200837 27.4462861 -20.35625369 23.79184587 -16.9375 19.9375 C-15.77509589 18.61280848 -14.61365034 17.28727527 -13.453125 15.9609375 C-12.87498047 15.30061523 -12.29683594 14.64029297 -11.70117188 13.95996094 C-7.72088601 9.37417809 -3.86393885 4.68382656 0 0 Z " fill="#68F3C0" transform="translate(57,35)"/>
<path d="M0 0 C3.35341551 1.30089395 5.80308446 3.64418292 8.515625 5.94140625 C27.88091955 21.66387657 50.68272791 27.14630786 75.265625 25.87890625 C94.15647441 23.66087617 111.70936417 15.15002811 125.890625 2.69921875 C128.16471061 0.95625182 129.41835664 0.02628039 132.265625 -0.12109375 C137.75793269 3.86352163 137.75793269 3.86352163 139.265625 6.87890625 C139.56162187 10.810153 139.54365489 14.75032395 139.578125 18.69140625 C139.60712891 19.78517578 139.63613281 20.87894531 139.66601562 22.00585938 C139.72978974 30.05611533 139.72978974 30.05611533 137.49609375 34.015625 C133.6238861 37.2503764 130.85891609 38.12875279 125.81375122 38.14633179 C124.70625519 38.15486176 123.59875916 38.16339172 122.45770264 38.17218018 C121.24721252 38.1712738 120.03672241 38.17036743 118.78955078 38.16943359 C117.51113312 38.17615082 116.23271545 38.18286804 114.91555786 38.18978882 C111.41135222 38.20744653 107.90724428 38.2121441 104.40299845 38.21342039 C102.21256274 38.21484269 100.02215181 38.21911379 97.83172226 38.22441483 C90.1867897 38.24291442 82.54192686 38.25108554 74.89697266 38.24951172 C67.77596723 38.24831036 60.65526493 38.26941148 53.53433621 38.30099905 C47.41615123 38.32716934 41.29806522 38.3378787 35.17982471 38.3366009 C31.52764342 38.33609148 27.87573154 38.34176334 24.22360611 38.362957 C20.14902345 38.38595699 16.07511797 38.376814 12.00048828 38.36474609 C10.19082581 38.38160461 10.19082581 38.38160461 8.34460449 38.39880371 C2.04256098 38.35130932 -1.98839058 38.21292417 -6.734375 33.87890625 C-9.89833789 29.37495908 -9.14227796 23.79191099 -9.171875 18.50390625 C-9.20474609 17.47523438 -9.23761719 16.4465625 -9.27148438 15.38671875 C-9.33157992 6.90778313 -9.33157992 6.90778313 -6.33203125 3.21484375 C-2.55835876 -0.17862415 -2.55835876 -0.17862415 0 0 Z " fill="#FDDF76" transform="translate(285.734375,170.12109375)"/>
<path d="M0 0 C3.59721356 1.4954708 5.63097221 3.52706308 8.1875 6.4375 C8.97253906 7.33082031 9.75757813 8.22414063 10.56640625 9.14453125 C13.71783438 12.84227437 16.79373733 16.59651332 19.84765625 20.375 C22.41332081 23.50408635 25.07854933 26.53172148 27.78515625 29.5390625 C29 31 29 31 29 32 C28.32453125 32.02578125 27.6490625 32.0515625 26.953125 32.078125 C26.06109375 32.13484375 25.1690625 32.1915625 24.25 32.25 C23.36828125 32.29640625 22.4865625 32.3428125 21.578125 32.390625 C18.24128105 33.17933357 17.14117139 34.34431113 15 37 C14.38699573 39.7340261 14.38699573 39.7340261 14.45410156 42.77832031 C14.43438293 43.9392218 14.41466431 45.10012329 14.39434814 46.29620361 C14.39311951 47.54423767 14.39189087 48.79227173 14.390625 50.078125 C14.37408875 51.35983582 14.35755249 52.64154663 14.34051514 53.96209717 C14.29687446 57.36182546 14.27685035 60.7612959 14.26177979 64.16125488 C14.24219642 67.63369981 14.20022797 71.10586676 14.16015625 74.578125 C14.08489014 81.38533937 14.03664719 88.19246928 14 95 C5.75 95 -2.5 95 -11 95 C-11.0093457 93.26395508 -11.01869141 91.52791016 -11.02832031 89.73925781 C-11.06385994 83.99945668 -11.11766564 78.25998259 -11.18390274 72.52046585 C-11.22339051 69.04096863 -11.2555721 65.56172495 -11.27099609 62.08203125 C-11.28905547 58.08031624 -11.33899981 54.07954876 -11.390625 50.078125 C-11.39185364 48.83009094 -11.39308228 47.58205688 -11.39434814 46.29620361 C-11.41406677 45.13530212 -11.4337854 43.97440063 -11.45410156 42.77832031 C-11.46298401 41.75683899 -11.47186646 40.73535767 -11.48101807 39.68292236 C-12.13560978 36.29895344 -13.32504762 35.10893618 -16 33 C-18.57117914 32.31125617 -18.57117914 32.31125617 -21.25 32.25 C-22.14203125 32.19328125 -23.0340625 32.1365625 -23.953125 32.078125 C-24.96632812 32.03945312 -24.96632812 32.03945312 -26 32 C-22.12339563 26.55755152 -17.88667516 21.59541043 -13.3828125 16.6640625 C-8.64115499 11.36273394 -3.94840999 5.92261498 0 0 Z " fill="#69F3C0" transform="translate(182,63)"/>
<path d="M0 0 C1.08868126 -0.00929787 1.08868126 -0.00929787 2.19935608 -0.01878357 C3.72460601 -0.02584344 5.24993363 -0.02277508 6.77514648 -0.01000977 C9.08919254 0.00385554 11.39918514 -0.03026054 13.71289062 -0.06835938 C27.42990284 -0.14597174 27.42990284 -0.14597174 32.71508789 4.04150391 C37.67567137 9.27613888 38.8116384 14.02818027 38.66015625 21.12890625 C38.675625 21.85787109 38.69109375 22.58683594 38.70703125 23.33789062 C38.65922055 29.97760142 36.22587759 33.48463409 31.55224609 38.19458008 C27.76148842 41.280629 24.29171177 41.32434944 19.54296875 41.30078125 C18.3189888 41.31507172 18.3189888 41.31507172 17.07028198 41.32965088 C15.35077099 41.34177009 13.63112643 41.3410221 11.91162109 41.328125 C9.29805544 41.3164638 6.69098318 41.3686696 4.078125 41.42578125 C-9.85492761 41.53737665 -9.85492761 41.53737665 -14.91015625 37.26953125 C-20.53995945 31.12702271 -20.41970243 24.65994846 -20.21484375 16.7265625 C-19.95519089 12.55820684 -19.04354024 9.54875043 -16.6171875 6.109375 C-11.41263601 1.59113799 -6.83431079 -0.04966759 0 0 Z " fill="#030303" transform="translate(68.83984375,359.43359375)"/>
<path d="M0 0 C0.75980164 -0.00570007 1.51960327 -0.01140015 2.3024292 -0.01727295 C3.91303107 -0.02672692 5.52365233 -0.03325851 7.13427734 -0.03710938 C9.58596132 -0.04678262 12.03679527 -0.0777875 14.48828125 -0.109375 C16.05468253 -0.11590852 17.6210898 -0.12115762 19.1875 -0.125 C19.91584045 -0.1373468 20.64418091 -0.1496936 21.39459229 -0.16241455 C26.82201433 -0.13893832 30.94757153 1.00328526 35.00390625 4.703125 C40.41272208 11.64956406 39.99304442 18.75419945 39.359375 27.203125 C37.87895473 32.60987729 35.1512689 36.20819131 30.359375 39.203125 C24.63662498 41.16793584 17.96514151 40.54628509 11.97070312 40.6081543 C10.4034213 40.62970604 8.83625893 40.66377654 7.26953125 40.71069336 C-7.39955226 41.14513818 -7.39955226 41.14513818 -12.53125 37.61328125 C-16.87862692 33.46815053 -18.42729902 29.1576522 -19.07421875 23.23046875 C-19.09120944 21.86729276 -19.09239263 20.50383221 -19.078125 19.140625 C-19.09810547 18.45935547 -19.11808594 17.77808594 -19.13867188 17.07617188 C-19.13377197 11.97537047 -17.81011962 9.13167592 -14.640625 5.203125 C-9.60180346 0.76416317 -6.57458365 0.03794101 0 0 Z " fill="#010101" transform="translate(67.640625,410.796875)"/>
<path d="M0 0 C0.75980164 -0.00570007 1.51960327 -0.01140015 2.3024292 -0.01727295 C3.91303107 -0.02672692 5.52365233 -0.03325851 7.13427734 -0.03710938 C9.58596132 -0.04678262 12.03679527 -0.0777875 14.48828125 -0.109375 C16.05468253 -0.11590852 17.6210898 -0.12115762 19.1875 -0.125 C19.91584045 -0.1373468 20.64418091 -0.1496936 21.39459229 -0.16241455 C26.82213244 -0.1389378 30.983633 0.9853896 35.00390625 4.73828125 C40.37217017 11.75831868 40.13093116 18.62315519 39.359375 27.203125 C38.2857813 31.85992315 36.08418286 35.00772463 32.265625 37.87109375 C26.29196939 41.45813559 19.41431237 40.9483867 12.66894531 40.85498047 C10.36356279 40.8281737 8.06304639 40.8547971 5.7578125 40.88671875 C-7.48306949 40.91836333 -7.48306949 40.91836333 -13.24414062 36.59838867 C-18.37306628 31.47394634 -19.00512676 26.16032753 -19.140625 19.078125 C-19.15931641 18.39709717 -19.17800781 17.71606934 -19.19726562 17.0144043 C-19.13328471 11.95806616 -17.77656556 9.10294852 -14.640625 5.203125 C-9.60180346 0.76416317 -6.57458365 0.03794101 0 0 Z " fill="#020202" transform="translate(67.640625,309.796875)"/>
<path d="M0 0 C0.75414185 -0.00145523 1.50828369 -0.00291046 2.28527832 -0.00440979 C3.87202843 -0.00275752 5.45879569 0.0087282 7.04541016 0.02954102 C9.46196176 0.05851237 11.87631772 0.05013383 14.29296875 0.03710938 C15.8411564 0.04334755 17.38933718 0.05173911 18.9375 0.0625 C19.65329224 0.05956436 20.36908447 0.05662872 21.10656738 0.05360413 C26.46327188 0.15339069 30.64541295 1.32727793 34.61328125 5.03125 C38.69384264 10.36736875 39.2026373 13.6216637 39.28125 20.24609375 C39.31025391 21.0453125 39.33925781 21.84453125 39.36914062 22.66796875 C39.42747567 28.1245395 38.58714932 31.16587817 34.96875 35.49609375 C29.95025726 39.91714687 26.9127203 40.66839894 20.36328125 40.734375 C19.60585129 40.74244675 18.84842133 40.75051849 18.06803894 40.75883484 C16.46164233 40.77267677 14.8552163 40.78339844 13.2487793 40.79125977 C10.80785103 40.80840688 8.36830093 40.85228105 5.92773438 40.89648438 C4.36459326 40.90661752 2.80144066 40.91513168 1.23828125 40.921875 C0.51510208 40.93938309 -0.20807709 40.95689117 -0.95317078 40.97492981 C-6.39641488 40.9519752 -9.52793329 39.56789256 -14.03125 36.49609375 C-18.61908712 31.49118052 -18.64519515 26.9529856 -18.53125 20.49609375 C-18.54671875 19.61953125 -18.5621875 18.74296875 -18.578125 17.83984375 C-18.54446033 12.25150838 -17.88929336 8.81710231 -14.03125 4.49609375 C-9.40658326 0.76587649 -5.80111573 -0.09104542 0 0 Z " fill="#010101" transform="translate(127.03125,410.50390625)"/>
<path d="M0 0 C0.77159454 -0.00619858 1.54318909 -0.01239716 2.33816528 -0.01878357 C3.96354925 -0.02585724 5.58900605 -0.02275065 7.21435547 -0.01000977 C9.68204318 0.00383182 12.14591462 -0.03021437 14.61328125 -0.06835938 C29.14256956 -0.14263321 29.14256956 -0.14263321 34.47875977 4.17529297 C39.07851821 8.94497879 39.31559667 13.01739455 39.2578125 19.37890625 C39.2877832 20.53229492 39.2877832 20.53229492 39.31835938 21.70898438 C39.31357576 27.37756572 38.35651949 32.02178746 34.8203125 36.56640625 C28.86441075 42.20539768 19.71920176 41.17234851 12.07495117 41.08789062 C9.75919263 41.06641905 7.44652422 41.08776699 5.13085938 41.11328125 C3.64061824 41.11063825 2.15037901 41.10551384 0.66015625 41.09765625 C-0.02232681 41.10575317 -0.70480988 41.1138501 -1.40797424 41.12219238 C-6.80620451 41.01817496 -9.82913733 39.54507957 -14.1796875 36.56640625 C-18.32530182 31.13538229 -18.80615851 26.71213944 -18.6796875 20.00390625 C-18.69515625 19.17955078 -18.710625 18.35519531 -18.7265625 17.50585938 C-18.69175558 12.06292756 -17.90057406 8.7896125 -14.1796875 4.56640625 C-9.52958021 0.80634173 -5.8368057 -0.03958178 0 0 Z " fill="#010101" transform="translate(186.1796875,410.43359375)"/>
<path d="M0 0 C0.77396622 -0.0038269 1.54793243 -0.00765381 2.34535217 -0.01159668 C3.97495837 -0.01430682 5.60460874 -0.00700863 7.23413086 0.00976562 C9.71242514 0.03116167 12.18781149 0.00995138 14.66601562 -0.015625 C16.25651675 -0.01298099 17.84701607 -0.0078545 19.4375 0 C20.5362571 -0.01214539 20.5362571 -0.01214539 21.6572113 -0.02453613 C27.09655518 0.07332008 30.28323781 1.45971638 34.78515625 4.53125 C39.11319221 9.35732575 39.38065767 13.35390406 39.22265625 19.53125 C39.22974609 20.31242187 39.23683594 21.09359375 39.24414062 21.8984375 C39.18241086 27.53958867 38.21884404 31.86306625 34.28515625 36.17578125 C29.20334129 40.1327153 25.52994478 40.70430154 19.265625 40.76953125 C18.52943436 40.777603 17.79324371 40.78567474 17.03474426 40.79399109 C15.47720683 40.80781035 13.91963938 40.81854215 12.36206055 40.82641602 C10.77440477 40.8379337 9.18678765 40.85838247 7.59936523 40.88793945 C5.30035196 40.9307396 3.00248786 40.94680128 0.703125 40.95703125 C-0.00020462 40.97453934 -0.70353424 40.99204742 -1.42817688 41.01008606 C-7.9886843 40.9814638 -11.39866927 38.21002476 -16.0546875 33.90625 C-19.23418738 29.8487239 -18.9121538 25.48643003 -18.77734375 20.53125 C-18.78830078 19.6546875 -18.79925781 18.778125 -18.81054688 17.875 C-18.74757054 12.29949523 -18.0562462 8.84080333 -14.21484375 4.53125 C-9.5481385 0.75426526 -5.85622351 -0.06455483 0 0 Z " fill="#020202" transform="translate(186.21484375,309.46875)"/>
<path d="M0 0 C0.80136383 -0.0066568 1.60272766 -0.0133136 2.42837524 -0.02017212 C4.12117219 -0.03028126 5.81400884 -0.03498968 7.50683594 -0.03466797 C10.08596062 -0.03903608 12.66336597 -0.0753574 15.2421875 -0.11328125 C16.89061918 -0.11915098 18.53905894 -0.12311933 20.1875 -0.125 C21.33622086 -0.14655655 21.33622086 -0.14655655 22.50814819 -0.16854858 C27.69086582 -0.12470691 30.61512682 0.92101022 34.7265625 4.3359375 C38.67612161 9.70075528 39.35794086 13.83499341 39.2265625 20.3984375 C39.24203125 21.17509766 39.2575 21.95175781 39.2734375 22.75195312 C39.23744355 28.06555962 38.23529225 31.13561363 34.7265625 35.3359375 C27.34757046 40.90782945 20.7159007 40.61578443 11.84057617 40.68603516 C10.31502978 40.70254155 8.78955904 40.72976156 7.2644043 40.76806641 C-8.34041281 41.15738281 -8.34041281 41.15738281 -13.88623047 36.72753906 C-18.92635138 31.67145156 -18.82168655 26.80139285 -18.8359375 19.9609375 C-18.87267578 19.04054688 -18.90941406 18.12015625 -18.94726562 17.171875 C-18.98525167 11.26293472 -18.05945389 7.99633985 -13.95678711 3.68896484 C-9.53539685 0.13518024 -5.54544796 0.01603171 0 0 Z " fill="#020202" transform="translate(127.2734375,309.6640625)"/>
<path d="M0 0 C1.52554639 -0.01650639 3.05101714 -0.04372641 4.57617188 -0.08203125 C20.18127857 -0.47135488 20.18127857 -0.47135488 25.65991211 3.88671875 C30.11412262 8.36934766 31.60684248 11.78384088 31.61206055 17.98291016 C31.59208008 18.76408203 31.57209961 19.54525391 31.55151367 20.35009766 C31.55860352 21.13126953 31.56569336 21.91244141 31.57299805 22.71728516 C31.51905205 27.64711916 30.80754212 31.0804998 28.11401367 35.35009766 C23.00335211 40.07745961 18.88725092 40.52236809 12.15698242 40.58837891 C11.37639969 40.59645065 10.59581696 40.6045224 9.7915802 40.61283875 C8.13988453 40.62666085 6.48816052 40.63739138 4.83642578 40.64526367 C2.32097732 40.66246456 -0.19315209 40.70636372 -2.70825195 40.75048828 C-4.3156642 40.76061707 -5.92308758 40.7691326 -7.53051758 40.77587891 C-8.65113335 40.80214104 -8.65113335 40.80214104 -9.79438782 40.82893372 C-14.98906524 40.80754735 -17.87564488 39.60394202 -21.88598633 36.35009766 C-26.20435558 31.43609127 -26.12383581 26.76345061 -26.19848633 20.53759766 C-26.22749023 19.74289062 -26.25649414 18.94818359 -26.28637695 18.12939453 C-26.34486494 12.69001218 -25.48445186 9.67088291 -21.88598633 5.35009766 C-15.23494988 -0.65205719 -8.49942884 0.0672754 0 0 Z " fill="#020202" transform="translate(193.885986328125,359.64990234375)"/>
<path d="M0 0 C1.05538719 -0.00574036 1.05538719 -0.00574036 2.13209534 -0.01159668 C3.61029503 -0.01430102 5.0885438 -0.0070439 6.56665039 0.00976562 C8.80790848 0.03116885 11.04595047 0.00993488 13.28710938 -0.015625 C21.571084 -0.03594103 28.69771133 -0.00028754 34.93676758 6.03930664 C38.69262524 10.54542088 39.17564667 14.74667142 39.00390625 20.46875 C38.9898877 21.26418213 38.97586914 22.05961426 38.96142578 22.87915039 C38.75105712 27.96096653 38.10385696 31.91146519 35.05859375 36.12109375 C30.16615672 40.2284653 25.32710569 40.9895103 19.12890625 40.96484375 C18.35256836 40.9700856 17.57623047 40.97532745 16.77636719 40.98072815 C15.14259024 40.98712292 13.50876709 40.98584445 11.875 40.97729492 C9.38588039 40.96877387 6.89905026 40.99759591 4.41015625 41.02929688 C2.81640693 41.03090897 1.22265358 41.0303312 -0.37109375 41.02734375 C-1.47759277 41.04419472 -1.47759277 41.04419472 -2.60644531 41.06138611 C-7.75897995 40.99242654 -10.64366201 39.75608492 -14.62109375 36.53125 C-19.15849343 31.44936235 -19.23566179 27.0234391 -19.12109375 20.53125 C-19.1365625 19.6546875 -19.15203125 18.778125 -19.16796875 17.875 C-19.13440204 12.30292593 -18.53039756 8.79594506 -14.62109375 4.53125 C-9.53291647 1.11538881 -6.25651411 0.02179834 0 0 Z " fill="#020202" transform="translate(127.62109375,359.46875)"/>
<path d="M0 0 C3.3 0.66 6.6 1.32 10 2 C10.06950198 18.6985998 10.12301201 35.39713977 10.15543652 52.09584904 C10.17089318 59.84967542 10.19195967 67.60341017 10.22631836 75.35717773 C10.25625757 82.1168289 10.27558373 88.87641369 10.28226548 95.63612932 C10.28617011 99.21404167 10.29532127 102.79176416 10.31719017 106.36961555 C10.34142836 110.3676705 10.3419671 114.36539717 10.34057617 118.36352539 C10.351362 119.54460373 10.36214783 120.72568207 10.3732605 121.94255066 C10.34070409 130.58729084 8.95622913 136.8926032 2.82631588 143.30841446 C-5.2646714 150.80251624 -16.18611302 149.54093723 -26.46313477 149.45410156 C-28.33635941 149.4529721 -30.20958583 149.45360887 -32.08280945 149.45587158 C-37.14838725 149.45701581 -42.21358358 149.43355362 -47.279073 149.40557575 C-52.58014808 149.38051354 -57.8812326 149.3782163 -63.18235779 149.37347412 C-73.21194403 149.36105851 -83.24135517 149.328256 -93.27086443 149.28807616 C-104.69283834 149.24331445 -116.11482075 149.22136034 -127.53686059 149.20129442 C-151.02467067 149.15952216 -174.51232551 149.08919758 -198 149 C-198 148.67 -198 148.34 -198 148 C-197.03147535 148.00222061 -196.06295071 148.00444122 -195.06507683 148.00672913 C-171.50436788 148.05892041 -147.94398775 148.06522441 -124.3832531 148.02334595 C-112.98942626 148.00415736 -101.59595871 147.99990763 -90.20214844 148.03076172 C-80.27185785 148.05761481 -70.34203264 148.05650426 -60.4117595 148.02174091 C-55.15301853 148.00430994 -49.8951113 148.00093196 -44.63640976 148.03103638 C-39.68659213 148.05893084 -34.73825439 148.04943611 -29.78851891 148.01126289 C-27.97207772 148.00384441 -26.15552143 148.01008675 -24.33918571 148.03101921 C-15.06120471 148.46028134 -15.06120471 148.46028134 -6.63037491 145.3984375 C-4.95265901 143.31869821 -3.95919417 141.48598046 -3 139 C-2.32923935 137.41946083 -2.32923935 137.41946083 -1.64492798 135.80699158 C-0.69974393 130.22759693 -0.6912464 124.73812272 -0.68115234 119.08813477 C-0.67110672 117.79964127 -0.6610611 116.51114777 -0.65071106 115.18360901 C-0.62351838 111.66761922 -0.6082937 108.15166926 -0.59528303 104.63560224 C-0.57960527 100.95468938 -0.55282996 97.27385729 -0.5272522 93.59300232 C-0.48054639 86.63048676 -0.44376273 79.66795587 -0.41057932 72.70536417 C-0.37229985 64.77543571 -0.32290503 56.84558853 -0.27259517 48.91572869 C-0.16939731 32.61054326 -0.08049185 16.30531351 0 0 Z " fill="#695F69" transform="translate(240,331)"/>
<path d="M0 0 C15.41172712 8.59552809 24.05477295 25.27837313 29.11328125 41.58984375 C30.42985739 47.09227339 30.32943488 52.62084735 30.3125 58.25 C30.32861328 59.30574219 30.34472656 60.36148438 30.36132812 61.44921875 C30.37291171 80.3767898 22.76264836 98.26353471 9.51416016 111.75170898 C7.37459711 113.86884836 5.19986354 115.94571567 3 118 C2.67 117.01 2.34 116.02 2 115 C3.15234375 113.44921875 3.15234375 113.44921875 4.9375 111.6875 C20.72493431 94.38749713 23.84101676 72.59028587 23.17041016 50.06054688 C22.31749371 34.74226526 15.41450814 19.38896296 5.4453125 7.796875 C3.96373073 5.95490848 2.97773246 4.14531589 2 2 C1.34 2 0.68 2 0 2 C0 1.34 0 0.68 0 0 Z " fill="#EFB328" transform="translate(395,47)"/>
<path d="M0 0 C8.64893639 2.31768884 13.23772196 6.06157208 17.93270874 13.68725586 C19.81981165 17.77647345 19.61542624 21.75685057 19.48828125 26.1875 C19.48120651 27.13061035 19.47413177 28.0737207 19.46684265 29.04541016 C19.4390545 32.03111128 19.37634651 35.01487442 19.3125 38 C19.28739694 40.03512899 19.26458731 42.07028765 19.24414062 44.10546875 C19.18927904 49.07104897 19.10311612 54.03519696 19 59 C14.05 59.495 14.05 59.495 9 60 C8.9906543 58.71947754 8.98130859 57.43895508 8.97167969 56.11962891 C8.93154797 51.32957266 8.86572602 46.54014311 8.79248047 41.75048828 C8.76440462 39.6848155 8.74312409 37.61903797 8.72900391 35.55322266 C8.70738807 32.56879557 8.66064376 29.58561046 8.609375 26.6015625 C8.60814636 25.69072906 8.60691772 24.77989563 8.60565186 23.84146118 C8.40212061 14.75667029 5.35875123 7.27259096 0 0 Z " fill="#675D67" transform="translate(231,204)"/>
<path d="M0 0 C17.10699942 -0.09347956 34.21391903 -0.16399686 51.32111549 -0.20724869 C59.26445687 -0.22786589 67.20763945 -0.25597023 75.15087891 -0.30175781 C82.07496001 -0.34165155 88.99892611 -0.36743894 95.92311895 -0.37635398 C99.58881009 -0.3815645 103.25417224 -0.39379306 106.91975784 -0.42292023 C111.01387316 -0.45518806 115.10741807 -0.4559578 119.20166016 -0.45410156 C120.41438599 -0.46848267 121.62711182 -0.48286377 122.87658691 -0.49768066 C129.19120584 -0.46664892 133.27426639 -0.38837172 138 4 C141.09102294 8.63653441 140.40853204 13.35686755 140.4375 18.8125 C140.47037109 19.89337891 140.50324219 20.97425781 140.53710938 22.08789062 C140.59734591 31.00837339 140.59734591 31.00837339 137.72265625 34.63671875 C133.62322045 38.19505255 131.01440041 39.25099305 125.5836792 39.24050903 C124.48434052 39.24325836 123.38500183 39.24600769 122.25234985 39.24884033 C121.05113495 39.24164978 119.84992004 39.23445923 118.61230469 39.22705078 C116.70948227 39.22748886 116.70948227 39.22748886 114.76821899 39.22793579 C111.29330333 39.22850949 107.8185258 39.21675241 104.34364223 39.20278788 C100.71081175 39.19028342 97.07797808 39.18911024 93.44512939 39.18673706 C86.56745122 39.18052145 79.68983665 39.16410955 72.81218648 39.14403808 C64.98153824 39.12168159 57.15088696 39.11068628 49.32021475 39.10064721 C33.21343927 39.07974339 17.10672775 39.04456585 1 39 C1 38.67 1 38.34 1 38 C43.57 37.67 86.14 37.34 130 37 C132.03217485 32.93565029 132.25646202 31.24983486 132.265625 26.84375 C132.26820313 25.65652344 132.27078125 24.46929687 132.2734375 23.24609375 C132.26570312 22.00988281 132.25796875 20.77367187 132.25 19.5 C132.25773438 18.26378906 132.26546875 17.02757812 132.2734375 15.75390625 C132.27085937 14.56667969 132.26828125 13.37945312 132.265625 12.15625 C132.26224121 10.52913086 132.26224121 10.52913086 132.25878906 8.86914062 C132.1477639 5.68710011 132.1477639 5.68710011 130 2 C65.65 1.505 65.65 1.505 0 1 C0 0.67 0 0.34 0 0 Z " fill="#D4B35A" transform="translate(309,387)"/>
<path d="M0 0 C16.97661531 -0.09348109 33.95315019 -0.1639976 50.92996407 -0.20724869 C58.81277195 -0.22786557 66.69541982 -0.25596929 74.578125 -0.30175781 C81.4494684 -0.34165255 88.3206959 -0.36743917 95.1921519 -0.37635398 C98.82989849 -0.38156433 102.46731354 -0.39379182 106.10495377 -0.42292023 C110.16793718 -0.45519005 114.23034585 -0.45595773 118.29345703 -0.45410156 C119.49683212 -0.46848267 120.70020721 -0.48286377 121.94004822 -0.49768066 C128.25953694 -0.46638968 132.23080717 -0.32008052 137 4 C140.98505064 8.52425411 140.48100275 13.71491098 140.4375 19.4375 C140.45748047 20.36626953 140.47746094 21.29503906 140.49804688 22.25195312 C140.49396978 27.98027406 139.99920309 31.57694974 136 36 C132.35255211 38.59982657 129.88448664 39.37358913 125.42546082 39.36076355 C124.31633331 39.36488754 123.20720581 39.36901154 122.06446838 39.3732605 C120.25401283 39.35708176 120.25401283 39.35708176 118.40698242 39.34057617 C117.12853455 39.34101425 115.85008667 39.34145233 114.53289795 39.34190369 C111.03524452 39.34276319 107.53790077 39.32514501 104.0403192 39.30418181 C100.38214555 39.28540738 96.72396452 39.28366397 93.06575012 39.28010559 C86.14202668 39.27078736 79.21844563 39.24617665 72.29478484 39.21605712 C64.41092123 39.18250615 56.52705077 39.16602536 48.64313352 39.15097082 C32.42867238 39.11962684 16.21435437 39.06687074 0 39 C0 38.67 0 38.34 0 38 C42.9 38 85.8 38 130 38 C131.83309689 31.68631094 131.83309689 31.68631094 132.265625 25.53125 C132.26820313 24.54769531 132.27078125 23.56414062 132.2734375 22.55078125 C132.26570312 21.54402344 132.25796875 20.53726562 132.25 19.5 C132.25773438 18.49324219 132.26546875 17.48648437 132.2734375 16.44921875 C132.27085937 15.46566406 132.26828125 14.48210937 132.265625 13.46875 C132.26224121 12.14520508 132.26224121 12.14520508 132.25878906 10.79492188 C132.01664923 7.2416297 132.01664923 7.2416297 130 1 C87.1 1 44.2 1 0 1 C0 0.67 0 0.34 0 0 Z " fill="#D3B259" transform="translate(247,278)"/>
<path d="M0 0 C3.55630426 0.20321739 4.93939083 0.9463842 7.640625 3.3359375 C11.23837443 7.85616953 10.69177248 12.97272786 10.5625 18.5 C10.57345703 19.51964844 10.58441406 20.53929687 10.59570312 21.58984375 C10.53661053 27.64880409 10.16729608 31.47256722 6 36 C2.78676853 38.03222342 0.27463573 38.24767041 -3.49224854 38.24050903 C-4.60841553 38.24325836 -5.72458252 38.24600769 -6.87457275 38.24884033 C-8.09448914 38.24164978 -9.31440552 38.23445923 -10.57128906 38.22705078 C-11.85934448 38.22734283 -13.1473999 38.22763489 -14.4744873 38.22793579 C-18.00311939 38.22850954 -21.53161547 38.21675173 -25.06021595 38.20278788 C-28.74910098 38.19028416 -32.43798914 38.1891103 -36.12689209 38.18673706 C-43.1108177 38.18052124 -50.09468068 38.16410904 -57.07857871 38.14403808 C-65.03014377 38.12168227 -72.98171183 38.11068645 -80.9333005 38.10064721 C-97.28890366 38.07974289 -113.64444384 38.04456493 -130 38 C-130 37.67 -130 37.34 -130 37 C-87.1 36.67 -44.2 36.34 0 36 C1.78055606 31.54860984 2.25563304 29.56775301 2.265625 25 C2.26820313 23.865625 2.27078125 22.73125 2.2734375 21.5625 C2.26570312 20.386875 2.25796875 19.21125 2.25 18 C2.25773438 16.824375 2.26546875 15.64875 2.2734375 14.4375 C2.27085937 13.303125 2.26828125 12.16875 2.265625 11 C2.26224121 9.453125 2.26224121 9.453125 2.25878906 7.875 C1.99067741 4.89643133 1.25012032 2.70135235 0 0 Z " fill="#F0BB43" transform="translate(439,442)"/>
<path d="M0 0 C0.99 0 1.98 0 3 0 C3 27.06 3 54.12 3 82 C2.01 82 1.02 82 0 82 C0 54.94 0 27.88 0 0 Z " fill="#00E499" transform="translate(67,76)"/>
<path d="M0 0 C4.40556007 1.02454885 7.12705683 2.48039559 9.96801758 6.05615234 C12.04097894 9.96079355 11.63238831 14.18534452 11.5 18.5 C11.50257813 19.42425781 11.50515625 20.34851563 11.5078125 21.30078125 C11.43210875 26.59247371 10.9539716 30.43872032 8 35 C5.39070749 37.44621173 4.62968776 38 1 38 C1.32355469 37.26652344 1.64710938 36.53304687 1.98046875 35.77734375 C3.44166915 30.36362425 3.32869958 25.14487642 3.3125 19.5625 C3.32861328 18.45583984 3.34472656 17.34917969 3.36132812 16.20898438 C3.36502725 10.02034692 2.97965838 5.46401735 0 0 Z " fill="#F9BF37" transform="translate(477,224)"/>
<path d="M0 0 C4.50783433 1.37739382 6.60447142 2.91854269 9 7 C9.59687938 11.00767296 9.55792121 14.95516916 9.5 19 C9.51546875 20.08023437 9.5309375 21.16046875 9.546875 22.2734375 C9.50805551 30.13438442 9.50805551 30.13438442 7.140625 34.16796875 C4.84885836 36.12935297 2.87529314 37.12143821 0 38 C0.16226074 37.30777344 0.32452148 36.61554688 0.49169922 35.90234375 C1.04669214 32.73339284 1.12955846 29.77935371 1.1328125 26.5625 C1.13410156 25.33789062 1.13539063 24.11328125 1.13671875 22.8515625 C1.13285156 21.58054687 1.12898438 20.30953125 1.125 19 C1.13080078 17.09347656 1.13080078 17.09347656 1.13671875 15.1484375 C1.13478516 13.31152344 1.13478516 13.31152344 1.1328125 11.4375 C1.13168457 10.32246094 1.13055664 9.20742188 1.12939453 8.05859375 C1.01080192 5.25533302 0.63904595 2.7262576 0 0 Z " fill="#FBC038" transform="translate(440,333)"/>
<path d="M0 0 C1.32 0 2.64 0 4 0 C4 18.15 4 36.3 4 55 C2.68 55 1.36 55 0 55 C0 36.85 0 18.7 0 0 Z " fill="#0BE59D" transform="translate(192,103)"/>
<path d="M0 0 C3.55748747 0.203285 5.00305918 1.00254287 7.77734375 3.30859375 C11.31622215 7.95727329 10.68674189 13.47833084 10.5625 19.0625 C10.57345703 20.13822266 10.58441406 21.21394531 10.59570312 22.32226562 C10.52341148 30.09602708 10.52341148 30.09602708 8.16796875 34.1640625 C5.58227863 36.35374603 3.26748483 37.18312879 0 38 C0.2165625 37.48695313 0.433125 36.97390625 0.65625 36.4453125 C4.77629699 25.11518327 4.70226565 11.13989124 0 0 Z " fill="#FBCD62" transform="translate(415,170)"/>
<path d="M0 0 C8.58 0 17.16 0 26 0 C26 2.64 26 5.28 26 8 C17.42 8 8.84 8 0 8 C0 5.36 0 2.72 0 0 Z " fill="#E0E3E5" transform="translate(124,427)"/>
<path d="M0 0 C8.58 0 17.16 0 26 0 C26 2.64 26 5.28 26 8 C17.42 8 8.84 8 0 8 C0 5.36 0 2.72 0 0 Z " fill="#E0E3E5" transform="translate(65,427)"/>
<path d="M0 0 C8.58 0 17.16 0 26 0 C26 2.64 26 5.28 26 8 C17.42 8 8.84 8 0 8 C0 5.36 0 2.72 0 0 Z " fill="#DBDDDF" transform="translate(124,376)"/>
<path d="M0 0 C8.58 0 17.16 0 26 0 C26 2.64 26 5.28 26 8 C17.42 8 8.84 8 0 8 C0 5.36 0 2.72 0 0 Z " fill="#DBDDDF" transform="translate(65,376)"/>
<path d="M0 0 C8.58 0 17.16 0 26 0 C26 2.64 26 5.28 26 8 C17.42 8 8.84 8 0 8 C0 5.36 0 2.72 0 0 Z " fill="#DCDFE1" transform="translate(124,326)"/>
<path d="M0 0 C8.58 0 17.16 0 26 0 C26 2.64 26 5.28 26 8 C17.42 8 8.84 8 0 8 C0 5.36 0 2.72 0 0 Z " fill="#DCDFE1" transform="translate(65,326)"/>
<path d="M0 0 C8.25 0 16.5 0 25 0 C25 2.64 25 5.28 25 8 C16.75 8 8.5 8 0 8 C0 5.36 0 2.72 0 0 Z " fill="#E6E9EB" transform="translate(184,427)"/>
<path d="M0 0 C8.25 0 16.5 0 25 0 C25 2.64 25 5.28 25 8 C16.75 8 8.5 8 0 8 C0 5.36 0 2.72 0 0 Z " fill="#E0E3E5" transform="translate(184,376)"/>
<path d="M0 0 C8.25 0 16.5 0 25 0 C25 2.64 25 5.28 25 8 C16.75 8 8.5 8 0 8 C0 5.36 0 2.72 0 0 Z " fill="#E2E5E7" transform="translate(184,326)"/>
<path d="M0 0 C0.33 0 0.66 0 1 0 C1 1.98 1 3.96 1 6 C-50.48 6 -101.96 6 -155 6 C-155 5.67 -155 5.34 -155 5 C-154.21939807 4.99853344 -153.43879614 4.99706688 -152.6345396 4.99555588 C-133.65638933 4.95853299 -114.67842381 4.89957856 -95.70041943 4.81609726 C-86.52285143 4.77625759 -77.3453698 4.74389021 -68.16772461 4.72900391 C-60.1701425 4.71601285 -52.17275001 4.68911368 -44.17527467 4.64538693 C-39.93911716 4.62271451 -35.70319402 4.60709276 -31.46697044 4.60811615 C-27.48187661 4.60885938 -23.497302 4.59104575 -19.51234245 4.55883217 C-18.04781205 4.55029458 -16.58322367 4.54860929 -15.11867905 4.55419731 C-13.12285289 4.56079967 -11.12699112 4.54062218 -9.13127136 4.51898193 C-7.45406903 4.51345118 -7.45406903 4.51345118 -5.74298382 4.50780869 C-2.86303991 4.26351251 -2.86303991 4.26351251 -1.17929554 1.96756363 C-0.79012801 1.31826763 -0.40096048 0.66897163 0 0 Z " fill="#31EBAC" transform="translate(214,269)"/>
<path d="M0 0 C0.33 0 0.66 0 1 0 C1 1.98 1 3.96 1 6 C-0.98 6 -2.96 6 -5 6 C-3.35830472 3.97945196 -1.69088222 1.97956942 0 0 Z " fill="#0BE59D" transform="translate(214,269)"/>
</svg>
