<?xml version="1.0" encoding="UTF-8"?>
<svg version="1.1" xmlns="http://www.w3.org/2000/svg" width="512" height="512">
<path d="M0 0 C22.66108721 -0.61246182 43.05312079 6.99703596 59.96875 22.15625 C73.84792275 35.83064807 83.90872958 54.45175134 84.1640625 74.28515625 C84.15094556 76.42977546 84.12735717 78.57435401 84.09375 80.71875 C84.08472656 81.82283203 84.07570313 82.92691406 84.06640625 84.06445312 C84.04305128 86.7619517 84.01030054 89.45898077 83.96875 92.15625 C84.61489258 91.94476318 85.26103516 91.73327637 85.92675781 91.51538086 C93.29218846 89.28361083 100.04502155 88.64608857 107.71875 88.71875 C108.86327637 88.72777344 110.00780273 88.73679687 111.18701172 88.74609375 C129.09433846 89.11149761 146.27801996 95.3990627 159.96875 107.15625 C160.60683594 107.65253906 161.24492187 108.14882812 161.90234375 108.66015625 C177.38300615 121.18349913 186.18258124 140.50194115 188.71875 159.96875 C188.82500522 161.36302579 188.90857858 162.75922654 188.96875 164.15625 C189.00871094 164.90648437 189.04867188 165.65671875 189.08984375 166.4296875 C189.64482355 186.60483551 183.00965202 205.80722373 169.96875 221.15625 C169.44796875 221.82140625 168.9271875 222.4865625 168.390625 223.171875 C159.81646867 233.743893 148.45397336 240.28571235 135.96875 245.15625 C134.855 245.59195313 133.74125 246.02765625 132.59375 246.4765625 C112.96989731 252.85431462 90.20902455 250.61094354 71.71875 241.96875 C64.93529233 238.35657813 58.87429736 234.06130733 52.96875 229.15625 C52.32550781 228.62773437 51.68226563 228.09921875 51.01953125 227.5546875 C35.54866978 213.49026798 28.45202302 192.71514459 27.0546875 172.4296875 C26.92838506 167.61871273 27.34781674 162.92310687 27.96875 158.15625 C27.14890625 158.3728125 26.3290625 158.589375 25.484375 158.8125 C23.86789062 159.23015625 23.86789062 159.23015625 22.21875 159.65625 C20.61773437 160.07390625 20.61773437 160.07390625 18.984375 160.5 C15.96875 161.15625 15.96875 161.15625 11.96875 161.15625 C11.97243717 161.83285549 11.97612434 162.50946098 11.97992325 163.20656967 C12.06823431 179.66467419 12.13444002 196.12270372 12.17599869 212.58098984 C12.19663 220.54008235 12.22476128 228.49901677 12.27050781 236.45800781 C12.31035838 243.39452158 12.33617868 250.33092088 12.34510398 257.26754594 C12.35032182 260.94099742 12.3625969 264.61412138 12.39167023 268.28746796 C12.4238522 272.38678051 12.42471057 276.48552251 12.42285156 280.58496094 C12.44442322 282.41483551 12.44442322 282.41483551 12.46643066 284.28167725 C12.46093201 285.39784424 12.45543335 286.51401123 12.44976807 287.66400146 C12.45345524 288.63372768 12.45714241 289.6034539 12.46094131 290.60256577 C11.79288766 294.06869376 10.88486504 295.16511788 7.96875 297.15625 C5.15559446 297.54910501 2.73386737 297.69703449 -0.078125 297.66418457 C-1.30408386 297.67354451 -1.30408386 297.67354451 -2.55480957 297.68309355 C-5.29724864 297.69906602 -8.03880412 297.6864029 -10.78125 297.67382812 C-12.74577351 297.67924736 -14.71029296 297.6863689 -16.67480469 297.69506836 C-22.01361016 297.71332823 -27.35210699 297.70622313 -32.69091797 297.69355202 C-38.27312056 297.68343818 -43.85529639 297.6928132 -49.4375 297.69909668 C-58.81254836 297.70637779 -68.18747076 297.69677318 -77.5625 297.67773438 C-88.40757339 297.65596481 -99.25234601 297.66301584 -110.09741211 297.68504 C-119.40196308 297.70318075 -128.7064234 297.70575879 -138.01098633 297.69528532 C-143.57117647 297.68904312 -149.13122515 297.68823476 -154.69140625 297.70143127 C-159.91831572 297.71296983 -165.14483669 297.70500043 -170.3717041 297.68185425 C-172.29218907 297.6765565 -174.21270662 297.67809908 -176.13317871 297.68690491 C-178.75068838 297.69780201 -181.3669456 297.68416811 -183.984375 297.66418457 C-184.74818481 297.67310746 -185.51199463 297.68203034 -186.2989502 297.69122362 C-189.59885016 297.64220287 -191.70588668 297.36636091 -194.50243378 295.56042576 C-196.57724805 292.29762798 -196.5345567 290.0412382 -196.53918457 286.1815033 C-196.54854451 285.12833675 -196.54854451 285.12833675 -196.55809355 284.0538941 C-196.57404973 281.70087109 -196.56140956 279.34888032 -196.54882812 276.99584961 C-196.55424846 275.30868933 -196.56137061 273.62153378 -196.57006836 271.93438721 C-196.5883251 267.34920326 -196.58122196 262.76437883 -196.56855202 258.17918849 C-196.55842488 253.37567981 -196.56781798 248.57220191 -196.57409668 243.76869202 C-196.58137883 235.69412722 -196.57177565 227.61970862 -196.55273438 219.54516602 C-196.53101609 210.22823492 -196.53797792 200.91165465 -196.56004 191.59473222 C-196.57823953 183.58687221 -196.58072857 175.57911738 -196.57028532 167.57124335 C-196.56406871 162.79274194 -196.56316304 158.01440489 -196.57643127 153.23591423 C-196.58805364 148.7353478 -196.57984832 144.23522915 -196.55685425 139.73471069 C-196.55159884 138.08968916 -196.55302614 136.44462946 -196.56190491 134.79962349 C-196.62842386 121.21424531 -194.73946522 110.32584574 -185.03125 100.15625 C-173.00174359 88.6725057 -160.19701695 88.59053716 -144.48828125 88.765625 C-142.50860672 88.77309767 -140.52892473 88.77878575 -138.54924011 88.78277588 C-133.37225443 88.79795144 -128.19572713 88.83716256 -123.0189209 88.8815918 C-117.72296344 88.92271991 -112.42693096 88.94082416 -107.13085938 88.9609375 C-96.76412299 89.00366551 -86.39772481 89.07181756 -76.03125 89.15625 C-76.10574875 88.48395355 -76.1802475 87.8116571 -76.25700378 87.11898804 C-76.35161392 86.22942413 -76.44622406 85.33986023 -76.54370117 84.42333984 C-76.63882492 83.5447934 -76.73394867 82.66624695 -76.83195496 81.76107788 C-77.11758947 78.02777511 -76.82618578 74.48416387 -76.34375 70.78125 C-76.25125977 70.05010986 -76.15876953 69.31896973 -76.06347656 68.56567383 C-73.31022904 48.76965045 -62.48493885 29.91434416 -46.8671875 17.42578125 C-33.03844418 7.22314163 -17.17275324 0.88519347 0 0 Z " fill="#000000" transform="translate(252.03125,6.84375)"/>
<path d="M0 0 C2.15543743 -0.0043554 4.30879349 -0.04067531 6.46386719 -0.07861328 C16.97789833 -0.16488662 25.94294478 1.24191083 33.89355469 8.66748047 C39.99739952 15.45645075 42.66830134 22.57264146 42.69223022 31.70648193 C42.69676134 32.42325804 42.70129245 33.14003415 42.70596087 33.87853074 C42.7185726 36.26885906 42.7169866 38.65895859 42.71533203 41.04931641 C42.72131937 42.7679473 42.72812539 44.48657551 42.73568726 46.2052002 C42.75333518 50.86653912 42.75804217 55.52780459 42.75931883 60.1891737 C42.76074185 63.10429584 42.76501436 66.01939939 42.77031326 68.93451691 C42.78881068 79.11276939 42.79698438 89.29096954 42.79541016 99.46923828 C42.79420936 108.9429847 42.81530035 118.41650306 42.84689748 127.89019179 C42.87308952 136.03478619 42.8837762 144.17930625 42.88249934 152.32394242 C42.8819905 157.18344788 42.88763038 162.0427507 42.90885544 166.90221405 C42.92828678 171.47581453 42.92832895 176.0490201 42.91382217 180.62263489 C42.91173893 182.29550507 42.91640597 183.96840028 42.92854309 185.64122772 C43.00602357 197.06564756 42.30722975 207.08172106 34.12792969 215.83935547 C25.35432898 223.72754693 16.25770466 224.74378846 4.84960938 224.74121094 C2.69417194 224.74556633 0.54081588 224.78188625 -1.61425781 224.81982422 C-12.12828895 224.90609755 -21.0933354 223.4993001 -29.04394531 216.07373047 C-35.48354945 208.91131363 -37.9218342 201.49861791 -37.70019531 191.99560547 C-37.67718869 190.63542847 -37.65493987 189.27523851 -37.63330078 187.91503906 C-37.61412598 186.74537598 -37.59495117 185.57571289 -37.57519531 184.37060547 C-56.0732645 183.56725541 -69.81707145 188.73141283 -86.45019531 196.37060547 C-88.9085805 197.47157115 -91.37216312 198.56063656 -93.83618164 199.64892578 C-98.76410182 201.82990349 -103.6829643 204.02975992 -108.59619141 206.24365234 C-117.5971868 210.29052287 -126.65855884 214.19093012 -135.74249268 218.04736328 C-138.18315008 219.08673069 -140.61855978 220.13759948 -143.05322266 221.19091797 C-172.44035842 233.82754409 -202.93468341 237.08889156 -233.45019531 225.99560547 C-243.78994601 221.68066638 -253.46641143 216.39879475 -263.01269531 210.55810547 C-265.20459792 209.22995192 -267.39734145 207.90318542 -269.59082031 206.57763672 C-270.43860298 206.0648114 -270.43860298 206.0648114 -271.30351257 205.54162598 C-277.91942223 201.54636778 -284.59019543 197.64534274 -291.26269531 193.74560547 C-293.7159117 192.31086587 -296.16898741 190.87588578 -298.62207031 189.44091797 C-299.21564331 189.0937825 -299.80921631 188.74664703 -300.42077637 188.38899231 C-308.60989026 183.598021 -316.77341475 178.76377545 -324.93798828 173.93115234 C-328.56112938 171.78718661 -332.1856795 169.64560919 -335.81030273 167.50415039 C-337.64779557 166.4185288 -339.48519849 165.33275501 -341.32250977 164.24682617 C-345.92894023 161.52426721 -350.53631935 158.80333671 -355.14550781 156.08544922 C-359.72006523 153.38788011 -364.2896697 150.68203472 -368.85839844 147.97460938 C-371.60771351 146.35140664 -374.36440283 144.74128794 -377.12207031 143.13232422 C-378.8982708 142.08702113 -380.67431859 141.04145852 -382.45019531 139.99560547 C-383.25215332 139.53210693 -384.05411133 139.0686084 -384.88037109 138.59106445 C-394.62678472 132.8204054 -402.17707154 126.5323259 -405.57519531 115.37060547 C-406.97253489 106.25525012 -406.64381004 96.30053497 -401.57519531 88.37060547 C-395.97425638 80.77573227 -389.15839253 74.14214721 -379.57519531 72.37060547 C-376.99038696 72.11758752 -374.47749647 71.95637625 -371.88769531 71.87060547 C-371.23736328 71.81646484 -370.58703125 71.76232422 -369.91699219 71.70654297 C-361.23467829 71.48081893 -353.32684748 75.91794074 -345.57519531 79.37060547 C-343.9555043 80.08086493 -342.33546262 80.7903252 -340.71508789 81.49902344 C-335.40803875 83.82882441 -330.11656222 86.19295903 -324.82519531 88.55810547 C-322.86152668 89.43353111 -320.89773824 90.30868805 -318.93383789 91.18359375 C-314.85823518 92.99955725 -310.78314362 94.81665991 -306.70849609 96.63476562 C-300.72657812 99.3035812 -294.74311454 101.96891179 -288.75878906 104.63232422 C-287.80028046 105.05894348 -286.84177185 105.48556274 -285.85421753 105.92510986 C-281.11439881 108.03406877 -276.37354541 110.14066066 -271.63085938 112.24316406 C-270.25799271 112.85179291 -270.25799271 112.85179291 -268.85739136 113.47271729 C-267.04455733 114.27634328 -265.23167155 115.07985253 -263.41873169 115.88323975 C-258.32688542 118.1419052 -253.2431441 120.41750803 -248.16694641 122.71112061 C-245.16755125 124.06437508 -242.16370846 125.40753718 -239.15884399 126.74859619 C-237.78702303 127.36385318 -236.41730082 127.98381475 -235.04989624 128.60882568 C-233.19923183 129.45429217 -231.34052909 130.28209786 -229.48144531 131.10888672 C-228.45341797 131.57335205 -227.42539063 132.03781738 -226.36621094 132.51635742 C-221.9127632 133.87942719 -219.5391461 132.84018038 -215.42480469 130.8359375 C-214.25232375 130.19039477 -213.08387691 129.53748651 -211.91894531 128.87841797 C-211.29419312 128.53181122 -210.66944092 128.18520447 -210.02575684 127.82809448 C-208.0386527 126.72355822 -206.05697392 125.60966296 -204.07519531 124.49560547 C-202.74349886 123.75411844 -201.41147063 123.01322695 -200.07910156 122.27294922 C-194.87017216 119.37218619 -189.67269797 116.46517655 -184.57519531 113.37060547 C-185.88601074 113.36125977 -187.19682617 113.35191406 -188.54736328 113.34228516 C-193.44922842 113.30216323 -198.35048052 113.23634369 -203.25195312 113.16308594 C-205.36613032 113.1350045 -207.48041001 113.11372671 -209.59472656 113.09960938 C-212.64864082 113.07800149 -215.70133936 113.03126064 -218.75488281 112.97998047 C-219.68759003 112.97875183 -220.62029724 112.97752319 -221.58126831 112.97625732 C-230.50356062 112.78081236 -238.43563421 110.24564367 -245.04394531 104.07373047 C-252.43760822 95.85016662 -254.15709598 87.13614912 -253.88769531 76.35888672 C-253.41336896 67.97319216 -249.80050008 60.96766847 -243.57519531 55.37060547 C-235.77361247 49.50381517 -228.68699753 48.07515407 -219.07910156 47.99169922 C-218.05453354 47.97470474 -217.02996552 47.95771027 -215.97434998 47.94020081 C-212.69552805 47.88725671 -209.4167113 47.84700618 -206.13769531 47.80810547 C-174.02662866 47.48323212 -174.02662866 47.48323212 -142.13574219 44.1484375 C-107.44596465 38.77955768 -72.56774573 39.78447227 -37.57519531 40.37060547 C-37.60347412 38.73490601 -37.60347412 38.73490601 -37.63232422 37.06616211 C-37.64757379 35.61686653 -37.66236049 34.16756602 -37.67675781 32.71826172 C-37.69037354 32.00174438 -37.70398926 31.28522705 -37.71801758 30.54699707 C-37.78166571 21.99121977 -35.15227796 15.19114345 -29.27832031 8.90185547 C-20.5047196 1.013664 -11.40809529 -0.00257752 0 0 Z " fill="#000000" transform="translate(437.5751953125,271.62939453125)"/>
<path d="M0 0 C14.3240625 0.061875 14.3240625 0.061875 28.9375 0.125 C28.9375 37.085 28.9375 74.045 28.9375 112.125 C15.5725 112.62 15.5725 112.62 1.9375 113.125 C-3.21910785 114.51911822 -6.92362203 115.63016728 -11.54296875 117.875 C-13.18906883 118.60357208 -13.18906883 118.60357208 -14.86842346 119.34686279 C-18.34939838 120.89827 -21.79806888 122.51016361 -25.25 124.125 C-27.68648159 125.22260059 -30.12434586 126.31609934 -32.56542969 127.40332031 C-37.44024461 129.57999925 -42.30336512 131.78035495 -47.15966797 133.99804688 C-56.13555062 138.08385131 -65.19591423 141.96314452 -74.2796936 145.80175781 C-76.733269 146.84142694 -79.18195352 147.8918632 -81.62963867 148.9453125 C-108.35867763 160.39890466 -134.01239629 164.71013377 -161.875 154.0625 C-176.15766282 147.67134938 -189.59696587 139.30665337 -202.95703125 131.2109375 C-208.15691063 128.06004037 -213.38739607 124.9626787 -218.625 121.875 C-220.47009412 120.78652958 -222.31514519 119.6979862 -224.16015625 118.609375 C-225.58739014 117.76729492 -225.58739014 117.76729492 -227.04345703 116.90820312 C-231.97628869 113.99461729 -236.90416906 111.07268435 -241.83215332 108.15090942 C-250.67632234 102.90726868 -259.52282051 97.66760821 -268.375 92.4375 C-269.25881348 91.91502686 -270.14262695 91.39255371 -271.05322266 90.85424805 C-275.61664414 88.15730028 -280.18309553 85.46565732 -284.75390625 82.78125 C-290.20070983 79.58020543 -295.63504846 76.3587305 -301.0625 73.125 C-301.86606934 72.64869141 -302.66963867 72.17238281 -303.49755859 71.68164062 C-305.714257 70.36232128 -307.92100551 69.02790639 -310.125 67.6875 C-310.76163574 67.31085205 -311.39827148 66.9342041 -312.05419922 66.54614258 C-316.83150803 63.6034088 -320.52677397 60.19645207 -323.0625 55.125 C-323.90178639 49.50496838 -323.53873745 45.12329436 -320.5 40.25 C-317.52107696 36.32670975 -314.78183484 33.65227748 -310.0625 32.125 C-303.00692237 31.30202597 -297.60053923 32.58660565 -291.26171875 35.578125 C-290.44456894 35.94512009 -289.62741913 36.31211517 -288.7855072 36.69023132 C-286.09890425 37.90143798 -283.42489913 39.13818845 -280.75 40.375 C-278.84054929 41.2409309 -276.93021091 42.10490678 -275.01904297 42.96704102 C-271.02725892 44.7700287 -267.03978476 46.58209175 -263.05517578 48.40087891 C-254.5532807 52.27494044 -246.00787554 56.05042294 -237.46463013 59.83215332 C-232.81523131 61.89196764 -228.16945462 63.95991601 -223.5234375 66.02734375 C-212.44895958 70.9537581 -201.37286898 75.87654072 -190.29656982 80.79885864 C-185.59870335 82.88662314 -180.90091593 84.97456551 -176.203125 87.0625 C-172.74770717 88.59836973 -172.74770717 88.59836973 -169.28999329 90.12905884 C-167.73021681 90.82645515 -166.17677805 91.53812037 -164.62834167 92.26034546 C-163.44030693 92.80895737 -163.44030693 92.80895737 -162.22827148 93.36865234 C-161.51944321 93.70134125 -160.81061493 94.03403015 -160.08030701 94.37680054 C-156.48771495 95.70892766 -153.568484 95.33905371 -150.0625 94.125 C-145.81589668 92.15447852 -141.79514356 89.85207221 -137.75 87.5 C-136.56263941 86.82250602 -135.37447174 86.14642477 -134.18554688 85.47167969 C-131.71356219 84.06747244 -129.2451564 82.65724589 -126.77880859 81.24316406 C-122.04089613 78.53388283 -117.26260596 75.89950152 -112.4831543 73.2644043 C-109.10932967 71.40086645 -105.74542037 69.52040531 -102.3828125 67.63671875 C-98.34174604 65.37645082 -94.27839317 63.17333632 -90.1796875 61.01953125 C-88.43219134 60.07570656 -86.68478902 59.13170811 -84.9375 58.1875 C-84.1434375 57.78756836 -83.349375 57.38763672 -82.53125 56.97558594 C-78.57187719 54.84497892 -78.57187719 54.84497892 -76.29003906 51.13623047 C-75.65987586 47.22404162 -75.84776075 45.44710888 -78.0625 42.125 C-81.6236074 40.9379642 -84.85416786 40.98042744 -88.55981445 40.9831543 C-89.32114685 40.97967987 -90.08247925 40.97620544 -90.86688232 40.97262573 C-92.52017296 40.96527509 -94.17347343 40.95992602 -95.8267765 40.95633507 C-98.44573067 40.94916413 -101.06449808 40.93349268 -103.68339539 40.91499329 C-111.12964309 40.86255464 -118.57578842 40.81455408 -126.0222168 40.79907227 C-130.57758775 40.78898032 -135.13248853 40.75962546 -139.68767357 40.71775246 C-141.42152535 40.70545495 -143.15544358 40.70031892 -144.88933754 40.70255089 C-147.31906779 40.70490886 -149.74745368 40.68270163 -152.17700195 40.6550293 C-152.88942551 40.66163071 -153.60184906 40.66823212 -154.33586121 40.67503357 C-159.35702106 40.58140629 -162.17648201 39.24213737 -166.0625 36.125 C-170.3647759 31.35761319 -171.42532503 27.68752705 -171.34375 21.40625 C-170.75430611 16.62520514 -167.91429203 13.87538822 -164.4375 10.8125 C-160.72580558 8.17524343 -158.72813798 7.99434209 -154.18945312 7.96728516 C-152.33350525 7.95189194 -152.33350525 7.95189194 -150.44006348 7.93618774 C-149.77436844 7.93274982 -149.1086734 7.9293119 -148.42280579 7.92576981 C-146.3151031 7.91390119 -144.20759812 7.89441007 -142.09997559 7.87265015 C-136.1041571 7.81143465 -130.10834238 7.7578496 -124.11230469 7.72363281 C-103.40256062 7.59883344 -82.9618449 6.97379324 -62.54077148 3.09570312 C-41.9954586 -0.7234466 -20.80286601 -0.12809437 0 0 Z " fill="#F1B8A0" transform="translate(371.0625,327.875)"/>
<path d="M0 0 C20.728125 -0.185625 41.45625 -0.37125 62.8125 -0.5625 C69.34264893 -0.64443604 75.87279785 -0.72637207 82.60083008 -0.81079102 C90.6126709 -0.85144043 90.6126709 -0.85144043 94.37065125 -0.85899353 C96.98092967 -0.87276656 99.58720574 -0.90086643 102.19670105 -0.95018005 C106.16243285 -1.02411731 110.12656924 -1.02514301 114.09301758 -1.02172852 C115.24322042 -1.05411149 116.39342325 -1.08649446 117.57848072 -1.11985874 C126.88618379 -1.01316367 131.40142207 2.76311997 138 9 C149.66399182 17.53240457 162.05041063 20.63566282 176 23 C176 31.25 176 39.5 176 48 C173.9271875 48.02578125 171.854375 48.0515625 169.71875 48.078125 C167.68649476 48.11988367 165.65423994 48.16178393 163.62207031 48.20751953 C162.22180039 48.23555071 160.82137749 48.25685316 159.42089844 48.27099609 C150.1736106 48.36993284 143.00483122 48.61423327 135.7578125 54.96484375 C135.21898437 55.61582031 134.68015625 56.26679688 134.125 56.9375 C133.29355469 57.91009766 133.29355469 57.91009766 132.4453125 58.90234375 C128.49831197 64.63082831 128.27628859 70.24536013 129 77 C130.78963347 84.15853388 134.9363073 88.92366282 141 93 C145.08073948 94.97896762 148.5377831 95.29883702 153.05078125 95.4140625 C154.25645752 95.44967285 155.46213379 95.4852832 156.7043457 95.52197266 C158.22503662 95.55597168 159.74572754 95.5899707 161.3125 95.625 C166.159375 95.74875 171.00625 95.8725 176 96 C176 111.84 176 127.68 176 144 C117.92 144 59.84 144 0 144 C0 96.48 0 48.96 0 0 Z " fill="#0058BD" transform="translate(72,144)"/>
<path d="M0 0 C14.42480439 10.88186998 25.2790108 25.51079462 28.2265625 43.6796875 C29.56669694 64.38895245 24.54203289 81.92257868 10.9765625 97.8046875 C3.29258701 106.07875126 -5.23106077 110.83431238 -15.7734375 114.6796875 C-17.21976563 115.21142578 -17.21976563 115.21142578 -18.6953125 115.75390625 C-35.44887709 120.79273215 -52.1787833 117.61709588 -67.5234375 110.0546875 C-81.88572127 101.61900878 -91.10978173 89.13545143 -96.7734375 73.6796875 C-97.09441406 72.91527344 -97.41539062 72.15085937 -97.74609375 71.36328125 C-103.04598249 57.1891602 -100.25702786 40.16020386 -94.26025391 26.76220703 C-86.48733205 10.35868811 -73.69477866 -0.7584856 -56.7734375 -7.3203125 C-55.566875 -7.80177734 -55.566875 -7.80177734 -54.3359375 -8.29296875 C-36.43990602 -14.30491682 -15.53429283 -10.30281277 0 0 Z " fill="#F9B532" transform="translate(395.7734375,122.3203125)"/>
<path d="M0 0 C1.33514648 -0.01160156 1.33514648 -0.01160156 2.69726562 -0.0234375 C20.26063392 0.02787987 35.10108402 7.15622169 47.8125 19.0625 C54.38863319 25.93509821 59.27101067 34.35078811 62.5625 43.25 C62.8615625 44.0440625 63.160625 44.838125 63.46875 45.65625 C67.30250062 57.44148339 67.35719404 73.73662641 62.5625 85.25 C60.57113788 87.47662853 58.58710421 88.94310697 56.08984375 90.57421875 C46.0295882 97.24477459 38.35299472 108.09398196 33.30078125 118.96484375 C30.72956518 122.34498174 27.62868722 123.17916969 23.6875 124.5 C22.97980469 124.75523437 22.27210938 125.01046875 21.54296875 125.2734375 C5.19162984 131.05882743 -11.94116393 129.10080277 -27.4375 121.75 C-43.9522817 113.42700436 -54.28585178 99.32635794 -60.82421875 82.3046875 C-65.60938755 66.27284808 -63.1068059 48.62901066 -55.79296875 33.94921875 C-46.73138606 17.52382168 -32.67669386 6.6095442 -14.69921875 1.10546875 C-9.81324368 -0.045851 -4.99784202 -0.04324016 0 0 Z " fill="#F9B532" transform="translate(254.4375,23.75)"/>
<path d="M0 0 C1.13308594 -0.020625 2.26617187 -0.04125 3.43359375 -0.0625 C10.14203386 -0.0939581 15.25320928 -0.01422507 20.39453125 4.78515625 C24.11475826 9.6500685 24.87572818 11.74923733 24.89044189 17.86602783 C24.89341302 18.55362364 24.89638414 19.24121944 24.8994453 19.94965148 C24.90815068 22.26494909 24.9096421 24.58019511 24.91113281 26.89550781 C24.91575975 28.5510723 24.92078424 30.20663571 24.92617798 31.86219788 C24.93931745 36.36853653 24.94575014 40.87486027 24.95018864 45.3812151 C24.95311735 48.19577295 24.95722181 51.01032671 24.96169281 53.82488251 C24.97537287 62.62842422 24.98503659 71.4319566 24.9888947 80.2355082 C24.99337448 90.40229787 25.01091651 100.56895303 25.0398953 110.7357018 C25.06150794 118.59055077 25.07159879 126.44536189 25.07293582 134.30024028 C25.07398431 138.99309247 25.07990114 143.6858183 25.09775543 148.37863922 C25.11422851 152.79452561 25.11639534 157.21019057 25.10761642 161.62609673 C25.10684559 163.24581686 25.11119485 164.86554885 25.12107468 166.48523903 C25.13378538 168.69910203 25.12792273 170.91217981 25.11749268 173.1260376 C25.11895924 174.36417332 25.1204258 175.60230904 25.1219368 176.87796402 C24.6389586 181.25671833 23.23160389 184.6256374 20.25 187.89453125 C13.77373258 192.93724989 8.36433125 192.49528549 0.4375 192.5625 C-0.69107422 192.59150391 -1.81964844 192.62050781 -2.98242188 192.65039062 C-9.38949751 192.69941475 -13.42572475 192.64153295 -18.25 188.25 C-22.67813727 183.34314518 -23.3746369 180.02960944 -23.39717102 173.51371765 C-23.40268605 172.48104231 -23.40268605 172.48104231 -23.4083125 171.42750484 C-23.41934579 169.11531797 -23.42319255 166.80317605 -23.42700195 164.4909668 C-23.43326681 162.83525449 -23.43991363 161.17954359 -23.44691467 159.52383423 C-23.4679525 154.08230569 -23.47831588 148.64077688 -23.48828125 143.19921875 C-23.49232872 141.32622577 -23.49644564 139.45323293 -23.50063133 137.58024025 C-23.51968133 128.78204389 -23.53391352 119.98385592 -23.5422433 111.1856429 C-23.55201948 101.02731367 -23.57834973 90.86920211 -23.61874419 80.7109496 C-23.64889198 72.86032763 -23.66371085 65.00976812 -23.66702431 57.15908939 C-23.66937608 52.46955987 -23.67835314 47.78026297 -23.70348549 43.09079552 C-23.72674825 38.67895342 -23.73100676 34.2674974 -23.72072411 29.85560989 C-23.72022822 28.23749445 -23.72656436 26.61936011 -23.74028015 25.00130272 C-23.75797828 22.78948372 -23.75090478 20.57905345 -23.73774719 18.36723328 C-23.74013555 17.13039638 -23.7425239 15.89355947 -23.74498463 14.61924267 C-22.98072637 9.41711842 -20.50359473 6.35435726 -16.625 2.9375 C-11.40567624 -0.77096688 -6.23940415 0.02801079 0 0 Z " fill="#C0CEE7" transform="translate(439.25,287.75)"/>
<path d="M0 0 C3.3 0 6.6 0 10 0 C10.43699219 1.97806641 10.43699219 1.97806641 10.8828125 3.99609375 C14.9099513 21.81530676 20.32845362 37.90752725 29 54 C29.55429688 55.04800781 30.10859375 56.09601563 30.6796875 57.17578125 C35.27037514 65.46757352 40.91197629 72.77148652 47 80 C47.46535156 80.55333008 47.93070313 81.10666016 48.41015625 81.67675781 C75.58834207 113.529743 114.7809014 131.17679997 156 135 C162.66046659 135.49686725 169.32495433 135.79004737 176 136 C176 138.64 176 141.28 176 144 C117.92 144 59.84 144 0 144 C0 96.48 0 48.96 0 0 Z " fill="#004C9D" transform="translate(72,144)"/>
<path d="M0 0 C1.03404123 1.55106184 2.06583114 3.10401714 3.06274414 4.67919922 C5.97191512 9.06959197 8.77070468 11.50820444 13.4375 14.125 C14.77886667 14.89284351 16.11999797 15.66109829 17.4609375 16.4296875 C18.18764648 16.83928711 18.91435547 17.24888672 19.66308594 17.67089844 C23.99840991 20.13657998 28.27413538 22.70384262 32.5625 25.25 C34.45927056 26.37040958 36.35641057 27.4901939 38.25390625 28.609375 C43.83744121 31.9037079 49.4189343 35.20148603 55 38.5 C56.83332361 39.58334979 58.66665695 40.66668311 60.5 41.75 C115.5 74.25 115.5 74.25 118.25097656 75.8762207 C120.08030327 76.95675817 121.91037952 78.0360277 123.74121094 79.11401367 C128.39288333 81.85508904 133.02854326 84.61853108 137.640625 87.42578125 C165.00419143 104.01155976 193.19253255 115.15278627 225.77490234 107.29394531 C237.11758317 104.10788175 247.88026808 99.02298307 258.65673828 94.32177734 C265.07966793 91.52380221 271.52269692 88.77288987 277.96484375 86.01953125 C280.47188756 84.94769663 282.97887355 83.87572683 285.48583984 82.80371094 C286.11249165 82.53576406 286.73914345 82.26781719 287.3847847 81.99175072 C292.9237097 79.62291415 298.46018428 77.2484032 303.99563599 74.87145996 C306.28543829 73.88853416 308.57569018 72.90665494 310.86642456 71.92590332 C315.45607739 69.95978998 320.04282895 67.99054357 324.60351562 65.95800781 C325.2541246 65.67046127 325.90473358 65.38291473 326.57505798 65.08665466 C328.17274203 64.37832868 329.76643818 63.66102411 331.35961914 62.94262695 C335.41159734 61.49605388 338.74984777 61.56032908 343 62 C343 67.28 343 72.56 343 78 C340.54953247 77.91685547 340.54953247 77.91685547 338.04956055 77.83203125 C319.36940391 77.61420619 305.56797974 82.1616749 288.8125 90 C286.37601841 91.09760059 283.93815414 92.19109934 281.49707031 93.27832031 C276.62225539 95.45499925 271.75913488 97.65535495 266.90283203 99.87304688 C257.92694938 103.95885131 248.86658577 107.83814452 239.7828064 111.67675781 C237.329231 112.71642694 234.88054648 113.7668632 232.43286133 114.8203125 C205.70382237 126.27390466 180.05010371 130.58513377 152.1875 119.9375 C137.90483718 113.54634938 124.46553413 105.18165337 111.10546875 97.0859375 C105.90558937 93.93504037 100.67510393 90.8376787 95.4375 87.75 C93.59240588 86.66152958 91.74735481 85.5729862 89.90234375 84.484375 C88.47510986 83.64229492 88.47510986 83.64229492 87.01904297 82.78320312 C82.08621131 79.86961729 77.15833094 76.94768435 72.23034668 74.02590942 C63.38617766 68.78226868 54.53967949 63.54260821 45.6875 58.3125 C44.80368652 57.79002686 43.91987305 57.26755371 43.00927734 56.72924805 C38.44585586 54.03230028 33.87940447 51.34065732 29.30859375 48.65625 C23.86179017 45.45520543 18.42745154 42.2337305 13 39 C12.19643066 38.52369141 11.39286133 38.04738281 10.56494141 37.55664062 C8.348243 36.23732128 6.14149449 34.90290639 3.9375 33.5625 C3.30086426 33.18585205 2.66422852 32.8092041 2.00830078 32.42114258 C-2.76900803 29.4784088 -6.46427397 26.07145207 -9 21 C-10.05342566 13.94604843 -8.75174819 9.54562713 -4.60546875 3.8125 C-3 2 -3 2 0 0 Z " fill="#CE8C77" transform="translate(57,362)"/>
<path d="M0 0 C-0.35361571 0.52699934 -0.70723143 1.05399868 -1.07156277 1.5969677 C-5.9036261 9.78332663 -5.70272375 17.61651484 -5.63110352 26.79736328 C-5.63624954 28.48042554 -5.64353595 30.1634824 -5.65278625 31.8465271 C-5.67121881 36.3919868 -5.65841466 40.93685602 -5.63869596 45.48229074 C-5.62224593 50.25112946 -5.63113091 55.01993264 -5.63621521 59.78878784 C-5.64072821 67.79304378 -5.62491347 75.79706542 -5.59692383 83.80126953 C-5.56485363 93.0434154 -5.56489876 102.28513935 -5.5821386 111.52731526 C-5.59802235 120.4366178 -5.59125964 129.34576627 -5.57420158 138.2550621 C-5.56734522 142.03878783 -5.56834891 145.82238952 -5.57574654 149.60611343 C-5.58342873 154.0632702 -5.57122043 158.51994876 -5.54389763 162.97702408 C-5.53703378 164.6087909 -5.53689431 166.24060256 -5.54411316 167.87236786 C-5.61178308 179.51381563 -5.61178308 179.51381563 -1 190 C-0.505 190.99 -0.505 190.99 0 192 C-9.73032529 192.62329486 -9.73032529 192.62329486 -14.4375 190.3125 C-17.92582821 187.1644965 -20.50169243 184.4949227 -22 180 C-22.10066208 177.75629365 -22.13940378 175.50966749 -22.14717102 173.26371765 C-22.15268605 172.23104231 -22.15268605 172.23104231 -22.1583125 171.17750484 C-22.16934579 168.86531797 -22.17319255 166.55317605 -22.17700195 164.2409668 C-22.18326681 162.58525449 -22.18991363 160.92954359 -22.19691467 159.27383423 C-22.2179525 153.83230569 -22.22831588 148.39077688 -22.23828125 142.94921875 C-22.24232872 141.07622577 -22.24644564 139.20323293 -22.25063133 137.33024025 C-22.26968133 128.53204389 -22.28391352 119.73385592 -22.2922433 110.9356429 C-22.30201948 100.77731367 -22.32834973 90.61920211 -22.36874419 80.4609496 C-22.39889198 72.61032763 -22.41371085 64.75976812 -22.41702431 56.90908939 C-22.41937608 52.21955987 -22.42835314 47.53026297 -22.45348549 42.84079552 C-22.47674825 38.42895342 -22.48100676 34.0174974 -22.47072411 29.60560989 C-22.47022822 27.98749445 -22.47656436 26.36936011 -22.49028015 24.75130272 C-22.50797828 22.53948372 -22.50090478 20.32905345 -22.48774719 18.11723328 C-22.49013555 16.88039638 -22.4925239 15.64355947 -22.49498463 14.36924267 C-21.73072637 9.16711842 -19.25359473 6.10435726 -15.375 2.6875 C-10.41678072 -0.83544528 -5.90425503 -0.06865413 0 0 Z " fill="#94AED0" transform="translate(438,288)"/>
<path d="M0 0 C5.28 0 10.56 0 16 0 C16 3.3 16 6.6 16 10 C16.845625 10.165 17.69125 10.33 18.5625 10.5 C24.61335548 13.1403733 28.51778126 18.15504809 30.9375 24.25 C32 28 32 28 32 32 C26.72 32 21.44 32 16 32 C15.01 30.02 14.02 28.04 13 26 C10.15916359 24.57958179 8.14522722 24.68547728 5 25 C2.5 26.5 2.5 26.5 1 29 C0.33333333 32 0.33333333 32 1 35 C4.02062863 38.87334197 6.62360959 39.65826184 11.375 40.5 C19.98996058 42.309623 24.8641135 45.9979684 30 53 C32.92019472 58.0439727 32.61458218 63.70919176 31.5703125 69.30078125 C29.88065653 75.33973684 26.74693921 79.90401237 22 84 C18.5625 85.5 18.5625 85.5 16 86 C16 89.3 16 92.6 16 96 C10.72 96 5.44 96 0 96 C0 92.7 0 89.4 0 86 C-0.845625 85.835 -1.69125 85.67 -2.5625 85.5 C-8.61335548 82.8596267 -12.51778126 77.84495191 -14.9375 71.75 C-16 68 -16 68 -16 64 C-10.72 64 -5.44 64 0 64 C0.99 65.98 1.98 67.96 3 70 C5.84083641 71.42041821 7.85477278 71.31452272 11 71 C13.5 69.5 13.5 69.5 15 67 C15.66666667 64 15.66666667 64 15 61 C12.88628667 58.30353393 11.63986782 57.14442731 8.265625 56.3828125 C7.27046875 56.29773438 6.2753125 56.21265625 5.25 56.125 C-2.24810718 55.09172425 -6.16108776 51.9156396 -11.3125 46.625 C-15.44991029 40.18902844 -17.24595461 33.65372115 -16 26 C-13.714162 19.69108713 -9.7062993 14.57441567 -4 11 C-2.68 10.67 -1.36 10.34 0 10 C0 6.7 0 3.4 0 0 Z " fill="#010101" transform="translate(352,128)"/>
<path d="M0 0 C5.28 0 10.56 0 16 0 C16 3.3 16 6.6 16 10 C16.845625 10.165 17.69125 10.33 18.5625 10.5 C24.61335548 13.1403733 28.51778126 18.15504809 30.9375 24.25 C32 28 32 28 32 32 C26.72 32 21.44 32 16 32 C15.01 30.02 14.02 28.04 13 26 C10.15916359 24.57958179 8.14522722 24.68547728 5 25 C2.5 26.5 2.5 26.5 1 29 C0.33333333 32 0.33333333 32 1 35 C4.02062863 38.87334197 6.62360959 39.65826184 11.375 40.5 C19.98996058 42.309623 24.8641135 45.9979684 30 53 C32.92019472 58.0439727 32.61458218 63.70919176 31.5703125 69.30078125 C29.88065653 75.33973684 26.74693921 79.90401237 22 84 C18.5625 85.5 18.5625 85.5 16 86 C16 89.3 16 92.6 16 96 C10.72 96 5.44 96 0 96 C0 92.7 0 89.4 0 86 C-0.845625 85.835 -1.69125 85.67 -2.5625 85.5 C-8.61335548 82.8596267 -12.51778126 77.84495191 -14.9375 71.75 C-16 68 -16 68 -16 64 C-10.72 64 -5.44 64 0 64 C0.99 65.98 1.98 67.96 3 70 C5.84083641 71.42041821 7.85477278 71.31452272 11 71 C13.5 69.5 13.5 69.5 15 67 C15.66666667 64 15.66666667 64 15 61 C12.88628667 58.30353393 11.63986782 57.14442731 8.265625 56.3828125 C7.27046875 56.29773438 6.2753125 56.21265625 5.25 56.125 C-2.24810718 55.09172425 -6.16108776 51.9156396 -11.3125 46.625 C-15.44991029 40.18902844 -17.24595461 33.65372115 -16 26 C-13.714162 19.69108713 -9.7062993 14.57441567 -4 11 C-2.68 10.67 -1.36 10.34 0 10 C0 6.7 0 3.4 0 0 Z " fill="#010101" transform="translate(248,40)"/>
<path d="M0 0 C1.20411059 3.61233177 0.38825408 4.45436994 -1.09765625 7.76171875 C-8.13853627 25.22675879 -6.48392814 45.009016 0.66015625 62.05859375 C8.02257964 78.55003259 21.18764696 91.96424423 38.0390625 98.94140625 C49.43552008 103.01586536 59.99442207 104.6844789 72 105 C69.34352515 107.65647485 66.72690752 108.32092773 63.1875 109.5625 C61.35251953 110.21412109 61.35251953 110.21412109 59.48046875 110.87890625 C43.11896834 116.14910896 25.98728611 113.04523491 10.94116211 105.46240234 C-4.52385883 97.12292838 -14.19119372 83.1838197 -20.38671875 67.0546875 C-25.17188755 51.02284808 -22.6693059 33.37901066 -15.35546875 18.69921875 C-11.4087775 11.54528405 -6.88222131 4.58814754 0 0 Z " fill="#F49930" transform="translate(214,39)"/>
<path d="M0 0 C1.16213553 3.40061135 0.82148181 5.37492617 -0.3125 8.75 C-6.73284181 28.16761914 -5.21981038 46.70130579 3.5625 65.1875 C12.21925641 82.23228413 27.53553701 93.93410513 45.390625 100.1875 C55.3907815 103.25137774 64.62882243 103.42767743 75 103 C71.66630346 105.82909235 68.29316024 107.17489682 64.1875 108.625 C63.00542969 109.05039063 61.82335937 109.47578125 60.60546875 109.9140625 C43.59772467 115.03665497 26.86960691 112.07291515 11.25 104.375 C-3.11228377 95.93932128 -12.33634423 83.45576393 -18 68 C-18.32097656 67.23558594 -18.64195312 66.47117187 -18.97265625 65.68359375 C-24.27902706 51.49213693 -21.49425083 34.42187184 -15.43359375 21.0300293 C-11.48436915 12.7337538 -6.60063124 6.3842171 0 0 Z " fill="#F39930" transform="translate(317,128)"/>
<path d="M0 0 C0.87855148 -0.00029205 1.75710297 -0.00058411 2.66227722 -0.00088501 C5.55709822 0.00050483 8.45165968 0.01604983 11.34643555 0.03173828 C13.35711018 0.03546964 15.36778664 0.03831603 17.37846375 0.04031372 C22.66387983 0.04794051 27.94918555 0.06758086 33.23455811 0.08972168 C38.63055936 0.11020063 44.02657849 0.11931983 49.42260742 0.12939453 C60.00533813 0.1508276 70.58798703 0.18495208 81.1706543 0.22705078 C81.80293945 1.70818359 81.80293945 1.70818359 82.44799805 3.21923828 C83.00135155 4.51352276 83.55473872 5.80779284 84.1081543 7.10205078 C84.38594727 7.75302734 84.66374023 8.40400391 84.94995117 9.07470703 C86.48958989 12.68325301 86.48958989 12.68325301 88.1706543 16.22705078 C50.8806543 16.22705078 13.5906543 16.22705078 -24.8293457 16.22705078 C-22.56466285 9.43300223 -22.56466285 9.43300223 -18.5168457 5.97705078 C-17.75758789 5.31189453 -16.99833008 4.64673828 -16.21606445 3.96142578 C-10.92217468 0.11447479 -6.32076454 -0.05518496 0 0 Z " fill="#013762" transform="translate(98.829345703125,111.77294921875)"/>
<path d="M0 0 C1.26521484 0.02255859 2.53042969 0.04511719 3.83398438 0.06835938 C6.95232979 0.12719608 10.07006589 0.21687319 13.1875 0.3125 C13.1875 5.5925 13.1875 10.8725 13.1875 16.3125 C8.77046833 16.39329936 4.35490904 16.45291087 -0.0625 16.5 C-1.31675781 16.52513672 -2.57101563 16.55027344 -3.86328125 16.57617188 C-5.06855469 16.58583984 -6.27382812 16.59550781 -7.515625 16.60546875 C-8.62583008 16.6211792 -9.73603516 16.63688965 -10.87988281 16.65307617 C-14.14220947 16.27420956 -15.47390562 15.57039373 -17.8125 13.3125 C-18.59765625 11.4453125 -18.59765625 11.4453125 -18.875 9.4375 C-18.98972656 8.78007812 -19.10445312 8.12265625 -19.22265625 7.4453125 C-18.71730689 4.81749583 -17.76476523 3.11947256 -15.78930664 1.30273438 C-11.04935391 -1.07163246 -5.15815192 -0.17345053 0 0 Z " fill="#013762" transform="translate(234.8125,207.6875)"/>
</svg>
