<?xml version="1.0" encoding="UTF-8"?>
<svg version="1.1" xmlns="http://www.w3.org/2000/svg" width="512" height="512">
<path d="M0 0 C0.82567978 -0.01409912 1.65135956 -0.02819824 2.50205994 -0.04272461 C3.39417175 -0.03260345 4.28628357 -0.0224823 5.20542908 -0.01205444 C6.63066139 -0.02519684 6.63066139 -0.02519684 8.08468628 -0.03860474 C11.22037125 -0.06058302 14.3546423 -0.04605224 17.49034119 -0.02914429 C19.67079946 -0.03251258 21.85125591 -0.0373653 24.03170776 -0.04364014 C28.5989115 -0.05100913 33.16562599 -0.0403036 37.73277283 -0.01693726 C43.58987083 0.01156691 49.44582417 -0.00486446 55.30288029 -0.03479958 C59.80418543 -0.05285708 64.30521862 -0.04712181 68.80653191 -0.03416061 C70.96631951 -0.03082322 73.12613173 -0.03492533 75.28589058 -0.04655838 C78.30270547 -0.05924307 81.31765927 -0.0399233 84.33433533 -0.01205444 C85.22847137 -0.0221756 86.12260742 -0.03229675 87.0438385 -0.04272461 C93.09392806 0.06093938 93.09392806 0.06093938 96.25674438 3.03086853 C97.74176883 5.70068982 98.23229974 7.25638732 98.31455994 10.27944946 C98.3467865 11.12056274 98.37901306 11.96167603 98.41221619 12.82827759 C98.42639587 13.69259399 98.44057556 14.5569104 98.45518494 15.44741821 C98.48483337 16.33107056 98.51448181 17.2147229 98.54502869 18.12515259 C98.61538883 20.29459039 98.66259101 22.46475769 98.70518494 24.63491821 C99.79830994 24.32038696 100.89143494 24.00585571 102.01768494 23.68179321 C115.10973247 20.01786122 128.24688894 17.52384164 141.70518494 15.63491821 C142.53131287 15.51487427 143.3574408 15.39483032 144.20860291 15.27114868 C195.98505679 8.10637232 265.91837067 10.76519959 309.70518494 42.63491821 C310.62686462 43.30007446 311.54854431 43.96523071 312.49815369 44.65054321 C321.70095814 51.70814222 330.56493976 60.83868318 332.70518494 72.63491821 C332.76604911 74.22371655 332.78579823 75.81463823 332.76377869 77.40444946 C332.75531921 78.20084839 332.74685974 78.99724731 332.73814392 79.81777954 C332.72182922 80.71726318 332.72182922 80.71726318 332.70518494 81.63491821 C335.41358702 80.23072827 338.12160401 78.82580217 340.82920837 77.42007446 C343.14322188 76.21870648 345.45768347 75.01820122 347.77256775 73.81851196 C354.7644256 70.19906637 354.7644256 70.19906637 361.68565369 66.44741821 C393.35483981 48.89126247 443.32405482 22.62057258 480.45518494 32.88491821 C489.45531493 36.22342797 496.13337326 42.60960308 500.14268494 51.32241821 C502.87576482 59.05822259 503.14024885 67.29886426 499.83018494 74.88491821 C494.34751615 84.38004293 484.33655603 90.61331504 475.73985291 97.09341431 C473.41846335 98.85214405 471.11039257 100.62760389 468.80284119 102.40444946 C452.62486805 114.84339331 436.03255547 126.47190986 419.08018494 137.82241821 C418.38316467 138.29036804 417.68614441 138.75831787 416.96800232 139.240448 C407.37932597 145.67061109 397.65666197 151.78275894 387.70518494 157.63491821 C386.80106873 158.17350464 385.89695251 158.71209106 384.96543884 159.26699829 C331.06196024 191.29949373 284.04235037 201.74073954 222.70323181 186.42446899 C209.00129847 182.81599567 196.74448769 176.96025349 184.26768494 170.34194946 C160.3445913 158.51632931 126.36687298 162.49600852 101.70518494 169.63491821 C100.37295719 169.97264313 99.0398454 170.30693903 97.70518494 170.63491821 C97.71565857 171.58334595 97.7261322 172.53177368 97.73692322 173.50894165 C97.77105202 177.03500813 97.79610662 180.5608985 97.81504822 184.08706665 C97.82509237 185.61183445 97.83873025 187.13658305 97.85606384 188.6612854 C97.88038231 190.8556696 97.89168383 193.04979863 97.90049744 195.24429321 C97.91097107 196.56397095 97.9214447 197.88364868 97.93223572 199.24331665 C97.7222019 202.380725 97.47864311 204.08406438 95.70518494 206.63491821 C92.24611571 208.36445283 88.2454492 207.78207017 84.43785095 207.78018188 C82.99623596 207.7852198 82.99623596 207.7852198 81.52549744 207.7903595 C78.33668234 207.7998875 75.14791964 207.8018135 71.95909119 207.80288696 C69.74953184 207.80609813 67.53997271 207.80946209 65.33041382 207.81297302 C60.69418342 207.81896883 56.05797168 207.82081245 51.42173767 207.82022095 C45.47175801 207.82011927 39.52189753 207.83377532 33.57194614 207.85099316 C29.0072779 207.86209406 24.44263866 207.86414075 19.8779583 207.86361122 C17.68384833 207.86479408 15.48973768 207.86923286 13.29564095 207.87694359 C10.23097939 207.88670547 7.16657892 207.88388053 4.10191345 207.87783813 C3.19011826 207.88345764 2.27832306 207.88907715 1.33889771 207.89486694 C0.08754532 207.88857521 0.08754532 207.88857521 -1.18908691 207.88215637 C-2.27613245 207.88297352 -2.27613245 207.88297352 -3.38513851 207.88380718 C-5.29481506 207.63491821 -5.29481506 207.63491821 -8.29481506 205.63491821 C-9.51139786 201.98516982 -9.44620761 198.62927638 -9.44871521 194.82891846 C-9.45309746 194.0254232 -9.45747972 193.22192794 -9.46199477 192.39408433 C-9.47538543 189.69262166 -9.48156217 186.9911916 -9.48768616 184.28970337 C-9.49558674 182.35650993 -9.50385567 180.42331797 -9.51246643 178.49012756 C-9.53868567 172.13475961 -9.55399129 165.77938506 -9.56825256 159.42398071 C-9.57361177 157.23769501 -9.57898928 155.05140936 -9.58438492 152.86512375 C-9.60601109 143.77367283 -9.62474953 134.68222369 -9.63600731 125.59075356 C-9.65225891 112.55152455 -9.6854692 99.51259293 -9.74240816 86.47347605 C-9.78106312 77.30993122 -9.80063458 68.14646609 -9.80592787 58.98284185 C-9.80958664 53.50691598 -9.8216643 48.03130731 -9.85403061 42.55546951 C-9.88403392 37.40571937 -9.89045071 32.25647966 -9.87864685 27.10666084 C-9.87842549 25.2155969 -9.88678239 23.3245098 -9.90430069 21.43352699 C-9.92690476 18.85336085 -9.91873924 16.27505952 -9.90281677 13.69488525 C-9.91669886 12.94497901 -9.93058095 12.19507276 -9.9448837 11.42244208 C-9.88597139 7.55325428 -9.40359912 5.77699027 -7.0252409 2.67085266 C-4.3094448 0.64582683 -3.29477651 0.00871263 0 0 Z " fill="#FCD6AC" transform="translate(9.294815063476563,304.3650817871094)"/>
<path d="M0 0 C1.86600288 -0.0083016 1.86600288 -0.0083016 3.76970279 -0.0167709 C7.20644193 -0.02799775 10.64229193 -0.0213741 14.07896256 -0.00703418 C17.79133202 0.00409925 21.50363814 -0.00787471 25.21600342 -0.01687622 C32.48147468 -0.03079378 39.74677188 -0.02326392 47.01223482 -0.00820064 C55.4745558 0.00867522 63.93683361 0.00544729 72.39916621 0.00170528 C87.49749972 -0.00417039 102.59574976 0.00998775 117.69406128 0.03465271 C132.34318163 0.05858114 146.99219052 0.06565329 161.6413269 0.05516052 C177.59828077 0.04375147 193.5551831 0.04182044 209.51213634 0.05625862 C211.21350344 0.05778445 212.91487054 0.0593048 214.61623764 0.06081963 C215.45332299 0.06157744 216.29040833 0.06233525 217.1528599 0.06311603 C223.05121579 0.06785829 228.94954867 0.0660079 234.84790421 0.06175423 C242.03465825 0.05682789 249.22130693 0.06281068 256.40803684 0.08264852 C260.07461883 0.09252027 263.74104037 0.09762692 267.40763092 0.08975601 C271.38139374 0.08140018 275.3548746 0.09627901 279.32861328 0.11352539 C280.48852756 0.10751535 281.64844183 0.1015053 282.84350502 0.09531313 C289.30458423 0.14646972 294.10383354 0.51627161 299.18185425 4.93089294 C303.42798377 10.18530072 303.6613211 14.38844221 303.67103577 20.97773743 C303.67530075 22.28710266 303.67956573 23.5964679 303.68395996 24.94551086 C303.68361048 26.38969424 303.68314896 27.8338776 303.68258667 29.27806091 C303.68558001 30.8043679 303.68898294 32.33067413 303.69276428 33.85697937 C303.70159045 37.99752117 303.70394181 42.13804229 303.70458007 46.27859259 C303.70529133 48.86686893 303.70742709 51.45514003 303.71007729 54.04341507 C303.71932596 63.07703739 303.72341275 72.11064496 303.72262573 81.14427185 C303.72202499 89.55859919 303.73257742 97.97286242 303.7483694 106.38717353 C303.76145383 113.61705097 303.76680925 120.84690747 303.76617032 128.07679665 C303.76591561 132.39233984 303.76875202 136.70782602 303.77934837 141.02335739 C303.78904462 145.08303851 303.78909808 149.14260831 303.78183174 153.2022934 C303.78078781 154.68936196 303.78313738 156.17643751 303.7891922 157.66349411 C303.79694196 159.6992173 303.79105454 161.73497859 303.78456116 163.77070618 C303.78510592 164.90815718 303.78565069 166.04560818 303.78621197 167.21752739 C303.39709897 172.35122941 302.51785585 176.30866549 299.224823 180.31370544 C295.04923437 183.71244038 291.53871936 184.7502693 286.19674969 184.75847435 C285.13277578 184.76492324 284.06880187 184.77137213 282.97258633 184.77801645 C281.80975922 184.77491924 280.6469321 184.77182204 279.4488678 184.76863098 C278.20884028 184.77316209 276.96881277 184.77769321 275.69120866 184.78236163 C272.25180259 184.79283514 268.81260557 184.79433092 265.37319839 184.79197288 C261.66279023 184.79156477 257.95241328 184.80260331 254.24201965 184.81208801 C246.97351652 184.82870031 239.70504583 184.83419766 232.43652531 184.83531277 C226.52805047 184.83626315 220.61958634 184.84037294 214.71111488 184.84671402 C197.95856686 184.86432717 181.20604447 184.87355279 164.45348712 184.87205307 C163.55036927 184.87197316 162.64725142 184.87189325 161.71676636 184.87181091 C160.81254546 184.87172915 159.90832456 184.87164739 158.97670303 184.87156315 C144.32276577 184.87075026 129.66893131 184.88988843 115.01502379 184.91808765 C99.96757441 184.94681562 84.92017516 184.96062798 69.87269765 184.95890009 C61.42505351 184.95823615 52.97751713 184.96373012 44.52989769 184.9852562 C37.33726779 185.00346688 30.14479448 185.00781631 22.9521515 184.99423735 C19.28325826 184.98770702 15.61466545 184.98759246 11.94580078 185.00494385 C7.96597111 185.0235721 3.98658015 185.01112156 0.00672913 184.99568176 C-1.14940583 185.00596889 -2.30554078 185.01625602 -3.49671012 185.02685487 C-10.28218197 184.96862557 -14.69686875 184.1619032 -20.462677 180.50120544 C-26.11099288 174.14290339 -25.02640603 165.99188057 -24.98025513 157.94651794 C-24.98568008 156.36079771 -24.99280483 154.77508253 -25.00149536 153.18937683 C-25.01968745 148.89594345 -25.01267832 144.60289575 -24.99997902 140.30945587 C-24.98982996 135.80972274 -24.99924998 131.31002195 -25.00552368 126.81028748 C-25.01279454 119.25472606 -25.00322714 111.6993212 -24.98416138 104.14378357 C-24.96239368 95.41689316 -24.96944545 86.6903766 -24.991467 77.96349525 C-25.00963702 70.46178812 -25.0121715 62.96019333 -25.00171232 55.4584713 C-24.99548618 50.9819514 -24.99461749 46.50560704 -25.00785828 42.02909851 C-25.01943953 37.81986805 -25.01134984 33.61111812 -24.98828125 29.40193939 C-24.98300626 27.86005195 -24.98448722 26.31812385 -24.99333191 24.77625275 C-25.07187383 9.6897725 -25.07187383 9.6897725 -20.462677 4.50120544 C-13.63086027 0.16509319 -7.96961502 -0.06624953 0 0 Z " fill="#20B65C" transform="translate(116.46267700195313,97.49879455566406)"/>
<path d="M0 0 C0.82567978 -0.01409912 1.65135956 -0.02819824 2.50205994 -0.04272461 C3.39417175 -0.03260345 4.28628357 -0.0224823 5.20542908 -0.01205444 C6.63066139 -0.02519684 6.63066139 -0.02519684 8.08468628 -0.03860474 C11.22037125 -0.06058302 14.3546423 -0.04605224 17.49034119 -0.02914429 C19.67079946 -0.03251258 21.85125591 -0.0373653 24.03170776 -0.04364014 C28.5989115 -0.05100913 33.16562599 -0.0403036 37.73277283 -0.01693726 C43.58987083 0.01156691 49.44582417 -0.00486446 55.30288029 -0.03479958 C59.80418543 -0.05285708 64.30521862 -0.04712181 68.80653191 -0.03416061 C70.96631951 -0.03082322 73.12613173 -0.03492533 75.28589058 -0.04655838 C78.30270547 -0.05924307 81.31765927 -0.0399233 84.33433533 -0.01205444 C85.22847137 -0.0221756 86.12260742 -0.03229675 87.0438385 -0.04272461 C93.09392806 0.06093938 93.09392806 0.06093938 96.25674438 3.03086853 C97.74176883 5.70068982 98.23229974 7.25638732 98.31455994 10.27944946 C98.3467865 11.12056274 98.37901306 11.96167603 98.41221619 12.82827759 C98.42639587 13.69259399 98.44057556 14.5569104 98.45518494 15.44741821 C98.48483337 16.33107056 98.51448181 17.2147229 98.54502869 18.12515259 C98.61538883 20.29459039 98.66259101 22.46475769 98.70518494 24.63491821 C99.79830994 24.32038696 100.89143494 24.00585571 102.01768494 23.68179321 C115.10973247 20.01786122 128.24688894 17.52384164 141.70518494 15.63491821 C142.53131287 15.51487427 143.3574408 15.39483032 144.20860291 15.27114868 C195.98505679 8.10637232 265.91837067 10.76519959 309.70518494 42.63491821 C310.62686462 43.30007446 311.54854431 43.96523071 312.49815369 44.65054321 C321.70095814 51.70814222 330.56493976 60.83868318 332.70518494 72.63491821 C332.76604911 74.22371655 332.78579823 75.81463823 332.76377869 77.40444946 C332.75531921 78.20084839 332.74685974 78.99724731 332.73814392 79.81777954 C332.72182922 80.71726318 332.72182922 80.71726318 332.70518494 81.63491821 C335.41358702 80.23072827 338.12160401 78.82580217 340.82920837 77.42007446 C343.14322188 76.21870648 345.45768347 75.01820122 347.77256775 73.81851196 C354.7644256 70.19906637 354.7644256 70.19906637 361.68565369 66.44741821 C393.35483981 48.89126247 443.32405482 22.62057258 480.45518494 32.88491821 C489.45531493 36.22342797 496.13337326 42.60960308 500.14268494 51.32241821 C502.87576482 59.05822259 503.14024885 67.29886426 499.83018494 74.88491821 C494.34751615 84.38004293 484.33655603 90.61331504 475.73985291 97.09341431 C473.41846335 98.85214405 471.11039257 100.62760389 468.80284119 102.40444946 C452.62486805 114.84339331 436.03255547 126.47190986 419.08018494 137.82241821 C418.38316467 138.29036804 417.68614441 138.75831787 416.96800232 139.240448 C407.37932597 145.67061109 397.65666197 151.78275894 387.70518494 157.63491821 C386.80106873 158.17350464 385.89695251 158.71209106 384.96543884 159.26699829 C331.06196024 191.29949373 284.04235037 201.74073954 222.70323181 186.42446899 C209.00129847 182.81599567 196.74448769 176.96025349 184.26768494 170.34194946 C160.3445913 158.51632931 126.36687298 162.49600852 101.70518494 169.63491821 C100.37295719 169.97264313 99.0398454 170.30693903 97.70518494 170.63491821 C97.71565857 171.58334595 97.7261322 172.53177368 97.73692322 173.50894165 C97.77105202 177.03500813 97.79610662 180.5608985 97.81504822 184.08706665 C97.82509237 185.61183445 97.83873025 187.13658305 97.85606384 188.6612854 C97.88038231 190.8556696 97.89168383 193.04979863 97.90049744 195.24429321 C97.91097107 196.56397095 97.9214447 197.88364868 97.93223572 199.24331665 C97.7222019 202.380725 97.47864311 204.08406438 95.70518494 206.63491821 C92.24611571 208.36445283 88.2454492 207.78207017 84.43785095 207.78018188 C82.99623596 207.7852198 82.99623596 207.7852198 81.52549744 207.7903595 C78.33668234 207.7998875 75.14791964 207.8018135 71.95909119 207.80288696 C69.74953184 207.80609813 67.53997271 207.80946209 65.33041382 207.81297302 C60.69418342 207.81896883 56.05797168 207.82081245 51.42173767 207.82022095 C45.47175801 207.82011927 39.52189753 207.83377532 33.57194614 207.85099316 C29.0072779 207.86209406 24.44263866 207.86414075 19.8779583 207.86361122 C17.68384833 207.86479408 15.48973768 207.86923286 13.29564095 207.87694359 C10.23097939 207.88670547 7.16657892 207.88388053 4.10191345 207.87783813 C3.19011826 207.88345764 2.27832306 207.88907715 1.33889771 207.89486694 C0.08754532 207.88857521 0.08754532 207.88857521 -1.18908691 207.88215637 C-2.27613245 207.88297352 -2.27613245 207.88297352 -3.38513851 207.88380718 C-5.29481506 207.63491821 -5.29481506 207.63491821 -8.29481506 205.63491821 C-9.51139786 201.98516982 -9.44620761 198.62927638 -9.44871521 194.82891846 C-9.45309746 194.0254232 -9.45747972 193.22192794 -9.46199477 192.39408433 C-9.47538543 189.69262166 -9.48156217 186.9911916 -9.48768616 184.28970337 C-9.49558674 182.35650993 -9.50385567 180.42331797 -9.51246643 178.49012756 C-9.53868567 172.13475961 -9.55399129 165.77938506 -9.56825256 159.42398071 C-9.57361177 157.23769501 -9.57898928 155.05140936 -9.58438492 152.86512375 C-9.60601109 143.77367283 -9.62474953 134.68222369 -9.63600731 125.59075356 C-9.65225891 112.55152455 -9.6854692 99.51259293 -9.74240816 86.47347605 C-9.78106312 77.30993122 -9.80063458 68.14646609 -9.80592787 58.98284185 C-9.80958664 53.50691598 -9.8216643 48.03130731 -9.85403061 42.55546951 C-9.88403392 37.40571937 -9.89045071 32.25647966 -9.87864685 27.10666084 C-9.87842549 25.2155969 -9.88678239 23.3245098 -9.90430069 21.43352699 C-9.92690476 18.85336085 -9.91873924 16.27505952 -9.90281677 13.69488525 C-9.91669886 12.94497901 -9.93058095 12.19507276 -9.9448837 11.42244208 C-9.88597139 7.55325428 -9.40359912 5.77699027 -7.0252409 2.67085266 C-4.3094448 0.64582683 -3.29477651 0.00871263 0 0 Z M96.70518494 39.63491821 C96.60936672 41.1657766 96.58330385 42.70105577 96.58493042 44.23490906 C96.58355576 45.2291539 96.58218109 46.22339874 96.58076477 47.24777222 C96.58436005 48.34756409 96.58795532 49.44735596 96.59165955 50.58047485 C96.59151352 51.73154221 96.59136749 52.88260956 96.59121704 54.06855774 C96.59191676 57.89408213 96.59971191 61.71955853 96.60752869 65.54507446 C96.60939266 68.18923414 96.61081666 70.83339417 96.61181641 73.47755432 C96.61492944 79.73907239 96.62314246 86.00057307 96.6331659 92.26208347 C96.64432789 99.38893359 96.6498377 106.51578451 96.65486133 113.64264119 C96.66532509 128.30674251 96.682924 142.97083012 96.70518494 157.63491821 C97.87010468 157.35577576 99.03502441 157.0766333 100.23524475 156.78903198 C101.78004875 156.42146935 103.32488055 156.05402353 104.86973572 155.68667603 C105.63558487 155.50283356 106.40143402 155.31899109 107.19049072 155.12957764 C112.63430081 153.83850779 117.99882773 152.85043753 123.58018494 152.38491821 C124.40840759 152.31047485 125.23663025 152.23603149 126.08995056 152.15933228 C149.06146849 150.26971158 174.46906856 150.24978112 194.89268494 162.06460571 C227.6916004 180.37733351 275.78484535 189.06489074 312.22911072 178.93325806 C369.96755697 162.29640652 421.16319686 123.25777624 467.98155212 86.9659729 C469.80318449 85.55923924 471.63296684 84.16351676 473.46299744 82.76773071 C474.71065242 81.8071297 475.95805439 80.84619998 477.20518494 79.88491821 C477.78059021 79.44937622 478.35599548 79.01383423 478.94883728 78.56509399 C483.25208017 75.22739518 487.23304303 71.57920202 489.70518494 66.63491821 C490.53675027 59.98239554 488.236517 55.22456814 484.70518494 49.63491821 C480.45236522 45.03727528 475.36457516 43.97968721 469.34190369 43.41226196 C420.44029014 41.70552886 365.04560965 75.71362837 324.97154236 101.29483032 C300.05474415 117.01983918 256.75853056 109.43290178 229.01133728 103.20571899 C218.59967924 100.62870687 205.89232035 95.93532289 198.70518494 87.63491821 C198.33018494 85.00991821 198.33018494 85.00991821 198.70518494 82.63491821 C200.70518494 80.63491821 200.70518494 80.63491821 203.26768494 80.13491821 C206.82847671 80.65285156 207.92952191 81.29292296 210.76768494 83.32241821 C231.60186412 98.14404904 261.7009352 97.91253562 286.26768494 97.94741821 C287.47000259 97.95266006 287.47000259 97.95266006 288.6966095 97.95800781 C304.18334935 98.62095405 304.18334935 98.62095405 317.70518494 92.63491821 C320.55568475 87.08394489 321.81872567 80.80222072 320.70518494 74.63491821 C314.74898423 58.75171634 299.16185926 49.24749477 284.49424744 42.45205688 C275.83669621 38.64231221 266.84244578 36.02133851 257.70518494 33.63491821 C256.96187927 33.43914185 256.21857361 33.24336548 255.45274353 33.04165649 C232.98630994 27.26226614 209.46669975 25.40377959 186.33018494 25.38491821 C185.57595245 25.38424347 184.82171997 25.38356873 184.04463196 25.38287354 C137.66098262 24.07765852 137.66098262 24.07765852 96.70518494 39.63491821 Z " fill="#010101" transform="translate(9.294815063476563,304.3650817871094)"/>
<path d="M0 0 C1.86600288 -0.0083016 1.86600288 -0.0083016 3.76970279 -0.0167709 C7.20644193 -0.02799775 10.64229193 -0.0213741 14.07896256 -0.00703418 C17.79133202 0.00409925 21.50363814 -0.00787471 25.21600342 -0.01687622 C32.48147468 -0.03079378 39.74677188 -0.02326392 47.01223482 -0.00820064 C55.4745558 0.00867522 63.93683361 0.00544729 72.39916621 0.00170528 C87.49749972 -0.00417039 102.59574976 0.00998775 117.69406128 0.03465271 C132.34318163 0.05858114 146.99219052 0.06565329 161.6413269 0.05516052 C177.59828077 0.04375147 193.5551831 0.04182044 209.51213634 0.05625862 C211.21350344 0.05778445 212.91487054 0.0593048 214.61623764 0.06081963 C215.45332299 0.06157744 216.29040833 0.06233525 217.1528599 0.06311603 C223.05121579 0.06785829 228.94954867 0.0660079 234.84790421 0.06175423 C242.03465825 0.05682789 249.22130693 0.06281068 256.40803684 0.08264852 C260.07461883 0.09252027 263.74104037 0.09762692 267.40763092 0.08975601 C271.38139374 0.08140018 275.3548746 0.09627901 279.32861328 0.11352539 C280.48852756 0.10751535 281.64844183 0.1015053 282.84350502 0.09531313 C289.30458423 0.14646972 294.10383354 0.51627161 299.18185425 4.93089294 C303.42798377 10.18530072 303.6613211 14.38844221 303.67103577 20.97773743 C303.67530075 22.28710266 303.67956573 23.5964679 303.68395996 24.94551086 C303.68361048 26.38969424 303.68314896 27.8338776 303.68258667 29.27806091 C303.68558001 30.8043679 303.68898294 32.33067413 303.69276428 33.85697937 C303.70159045 37.99752117 303.70394181 42.13804229 303.70458007 46.27859259 C303.70529133 48.86686893 303.70742709 51.45514003 303.71007729 54.04341507 C303.71932596 63.07703739 303.72341275 72.11064496 303.72262573 81.14427185 C303.72202499 89.55859919 303.73257742 97.97286242 303.7483694 106.38717353 C303.76145383 113.61705097 303.76680925 120.84690747 303.76617032 128.07679665 C303.76591561 132.39233984 303.76875202 136.70782602 303.77934837 141.02335739 C303.78904462 145.08303851 303.78909808 149.14260831 303.78183174 153.2022934 C303.78078781 154.68936196 303.78313738 156.17643751 303.7891922 157.66349411 C303.79694196 159.6992173 303.79105454 161.73497859 303.78456116 163.77070618 C303.78510592 164.90815718 303.78565069 166.04560818 303.78621197 167.21752739 C303.39709897 172.35122941 302.51785585 176.30866549 299.224823 180.31370544 C295.04923437 183.71244038 291.53871936 184.7502693 286.19674969 184.75847435 C285.13277578 184.76492324 284.06880187 184.77137213 282.97258633 184.77801645 C281.80975922 184.77491924 280.6469321 184.77182204 279.4488678 184.76863098 C278.20884028 184.77316209 276.96881277 184.77769321 275.69120866 184.78236163 C272.25180259 184.79283514 268.81260557 184.79433092 265.37319839 184.79197288 C261.66279023 184.79156477 257.95241328 184.80260331 254.24201965 184.81208801 C246.97351652 184.82870031 239.70504583 184.83419766 232.43652531 184.83531277 C226.52805047 184.83626315 220.61958634 184.84037294 214.71111488 184.84671402 C197.95856686 184.86432717 181.20604447 184.87355279 164.45348712 184.87205307 C163.55036927 184.87197316 162.64725142 184.87189325 161.71676636 184.87181091 C160.81254546 184.87172915 159.90832456 184.87164739 158.97670303 184.87156315 C144.32276577 184.87075026 129.66893131 184.88988843 115.01502379 184.91808765 C99.96757441 184.94681562 84.92017516 184.96062798 69.87269765 184.95890009 C61.42505351 184.95823615 52.97751713 184.96373012 44.52989769 184.9852562 C37.33726779 185.00346688 30.14479448 185.00781631 22.9521515 184.99423735 C19.28325826 184.98770702 15.61466545 184.98759246 11.94580078 185.00494385 C7.96597111 185.0235721 3.98658015 185.01112156 0.00672913 184.99568176 C-1.14940583 185.00596889 -2.30554078 185.01625602 -3.49671012 185.02685487 C-10.28218197 184.96862557 -14.69686875 184.1619032 -20.462677 180.50120544 C-26.11099288 174.14290339 -25.02640603 165.99188057 -24.98025513 157.94651794 C-24.98568008 156.36079771 -24.99280483 154.77508253 -25.00149536 153.18937683 C-25.01968745 148.89594345 -25.01267832 144.60289575 -24.99997902 140.30945587 C-24.98982996 135.80972274 -24.99924998 131.31002195 -25.00552368 126.81028748 C-25.01279454 119.25472606 -25.00322714 111.6993212 -24.98416138 104.14378357 C-24.96239368 95.41689316 -24.96944545 86.6903766 -24.991467 77.96349525 C-25.00963702 70.46178812 -25.0121715 62.96019333 -25.00171232 55.4584713 C-24.99548618 50.9819514 -24.99461749 46.50560704 -25.00785828 42.02909851 C-25.01943953 37.81986805 -25.01134984 33.61111812 -24.98828125 29.40193939 C-24.98300626 27.86005195 -24.98448722 26.31812385 -24.99333191 24.77625275 C-25.07187383 9.6897725 -25.07187383 9.6897725 -20.462677 4.50120544 C-13.63086027 0.16509319 -7.96961502 -0.06624953 0 0 Z M21.537323 13.50120544 C20.547323 16.47120544 19.557323 19.44120544 18.537323 22.50120544 C14.03576379 32.08859703 7.69077544 38.59021681 -2.09158325 42.67698669 C-5.17318459 43.74818584 -8.32573045 44.604935 -11.462677 45.50120544 C-11.462677 76.19120544 -11.462677 106.88120544 -11.462677 138.50120544 C-7.172677 139.82120544 -2.882677 141.14120544 1.537323 142.50120544 C14.09852275 149.26492839 17.26416877 157.61345421 21.537323 171.50120544 C99.087323 171.50120544 176.637323 171.50120544 256.537323 171.50120544 C258.517323 165.06620544 258.517323 165.06620544 260.537323 158.50120544 C265.85165989 148.95955511 273.0531867 142.86925582 283.537323 139.50120544 C287.002323 139.00620544 287.002323 139.00620544 290.537323 138.50120544 C290.537323 107.15120544 290.537323 75.80120544 290.537323 43.50120544 C285.257323 42.51120544 279.977323 41.52120544 274.537323 40.50120544 C264.68127888 35.68269499 258.70846922 29.64467467 254.537323 19.50120544 C253.877323 17.52120544 253.217323 15.54120544 252.537323 13.50120544 C176.307323 13.50120544 100.077323 13.50120544 21.537323 13.50120544 Z " fill="#010402" transform="translate(116.46267700195313,97.49879455566406)"/>
<path d="M0 0 C26.73 0 53.46 0 81 0 C81 60.06 81 120.12 81 182 C54.27 182 27.54 182 0 182 C0 121.94 0 61.88 0 0 Z " fill="#9958DD" transform="translate(13,318)"/>
<path d="M0 0 C11.31097919 8.05267243 20.34693282 20.19570659 23.4453125 33.92578125 C25.65099098 50.92877848 22.97863431 65.83230731 12.84765625 80.02734375 C3.58101844 91.23724529 -9.45991512 99.7380314 -24.19042969 101.234375 C-41.24291783 102.32299713 -55.65892878 97.9405885 -69.0234375 87.0625 C-78.77126736 77.74393237 -85.7618033 64.34148839 -86.48828125 50.765625 C-86.83564518 33.61429104 -82.38885336 19.9993713 -70.53515625 7.3828125 C-50.93940844 -11.98806608 -23.25751283 -14.49381234 0 0 Z " fill="#FCA618" transform="translate(287.15234375,143.97265625)"/>
<path d="M0 0 C13.80455011 11.65520603 23.09346654 26.19786034 25.8125 44.25 C27.05015162 65.55188852 21.70547957 83.34852862 7.75390625 99.65625 C-4.27882859 112.55004293 -20.27919381 119.21510912 -37.65234375 120.5078125 C-55.87833092 121.08155816 -72.42455843 115.33453406 -86.1875 103.25 C-86.86425781 102.66734375 -87.54101562 102.0846875 -88.23828125 101.484375 C-101.2592898 89.44942341 -107.09769073 73.23588559 -108.4453125 55.94140625 C-109.07778593 37.36776997 -102.45796266 21.09050218 -90.1875 7.25 C-89.65640625 6.62480469 -89.1253125 5.99960938 -88.578125 5.35546875 C-65.97431034 -19.43039733 -25.61331402 -19.54492885 0 0 Z M-86 20.625 C-95.26539391 33.14639318 -97.53062342 47.08613663 -96.1875 62.25 C-93.24708161 77.95450733 -85.05604561 90.33440362 -72.12109375 99.390625 C-58.80314274 107.83182964 -44.11924498 110.4324769 -28.62109375 107.59765625 C-13.19255497 103.2717242 -0.82114022 94.16670603 7.25 80.3125 C14.50486495 67.04205421 16.34169195 52.04865387 12.25 37.375 C6.46012789 21.33685252 -3.72574594 9.56377827 -19.1875 2.25 C-43.80990769 -8.48447787 -69.42657594 0.56432619 -86 20.625 Z " fill="#010200" transform="translate(297.1875,136.75)"/>
<path d="M0 0 C3.4375 0.875 3.4375 0.875 5.4375 3.875 C5.47875 5.174375 5.52 6.47375 5.5625 7.8125 C5.69304195 9.95928231 5.69304195 9.95928231 6.4375 11.875 C8.30766078 13.17110663 10.19358429 13.90270461 12.30078125 14.75390625 C16.92159291 17.17835405 19.41290292 21.96552363 21.8125 26.4375 C22.66467538 29.760984 22.81011608 32.4593526 22.4375 35.875 C20.8125 38.375 20.8125 38.375 18.4375 39.875 C15.3125 39.8125 15.3125 39.8125 12.4375 38.875 C10.61464443 36.14071665 9.96293729 34.45943173 9.125 31.375 C8.11386434 28.2812267 7.63658543 27.05749498 5.1875 24.8125 C1.6609902 23.61028075 -0.85746171 23.41187021 -4.5625 23.875 C-7.31579021 25.67062405 -9.08877461 26.92754922 -10.5625 29.875 C-10.93962577 34.87191647 -10.65540612 37.86567725 -7.5625 41.875 C-4.17032187 44.13645208 -1.86968431 44.45130189 2.125 45.125 C9.68906636 46.70799533 14.53220649 48.74191661 19.02734375 55.13671875 C22.31541343 60.93865888 23.68888601 66.26932303 22.4375 72.875 C20.05586892 80.26024134 16.18257428 85.05090977 9.4375 88.875 C7.9525 89.37 7.9525 89.37 6.4375 89.875 C6.27314453 90.92300781 6.27314453 90.92300781 6.10546875 91.9921875 C5.86763672 93.35730469 5.86763672 93.35730469 5.625 94.75 C5.47417969 95.65492188 5.32335937 96.55984375 5.16796875 97.4921875 C4.4375 99.875 4.4375 99.875 1.4375 101.875 C-1.3835803 102.22763504 -2.89226842 102.37488769 -5.20703125 100.6484375 C-6.96123031 98.35331828 -6.87403744 97.04036104 -6.75 94.1875 C-6.72292969 93.37925781 -6.69585937 92.57101563 -6.66796875 91.73828125 C-6.63316406 91.12339844 -6.59835938 90.50851563 -6.5625 89.875 C-7.42875 89.648125 -8.295 89.42125 -9.1875 89.1875 C-16.36680701 86.39554728 -19.50258883 82.20796217 -22.64453125 75.375 C-23.89368531 71.97304852 -24.20546197 69.44701097 -23.5625 65.875 C-21.9375 63.375 -21.9375 63.375 -19.5625 61.875 C-16.4375 61.9375 -16.4375 61.9375 -13.5625 62.875 C-11.75558374 65.58537439 -11.05304702 67.32012818 -10.1875 70.375 C-9.29037613 73.10634248 -8.68737543 74.72782539 -6.8125 76.9375 C-3.54443847 78.2991923 -1.06868968 78.2440726 2.4375 77.875 C5.29496217 76.60501681 6.91887263 75.5911997 8.75 73.0625 C10.02226509 69.01438379 9.94664951 65.99512891 8.1875 62.125 C5.16980582 58.24510749 1.91477576 57.67704585 -2.8125 57.0625 C-9.37917131 55.90830478 -14.10878513 53.9233925 -18.3515625 48.65234375 C-22.85049424 42.0958437 -24.53191412 36.84448584 -23.5625 28.875 C-21.27646497 21.57891624 -17.3136867 16.51231927 -10.5625 12.875 C-8.31640625 12.22265625 -8.31640625 12.22265625 -6.5625 11.875 C-6.61470703 10.95267578 -6.61470703 10.95267578 -6.66796875 10.01171875 C-6.69503906 9.20347656 -6.72210938 8.39523438 -6.75 7.5625 C-6.80220703 6.36173828 -6.80220703 6.36173828 -6.85546875 5.13671875 C-6.5625 2.875 -6.5625 2.875 -5.2734375 1.07421875 C-3.5625 -0.125 -3.5625 -0.125 0 0 Z " fill="#050300" transform="translate(256.5625,139.125)"/>
<path d="M0 0 C1.66438293 1.16157532 1.66438293 1.16157532 3 3 C3.39872742 5.56266785 3.39872742 5.56266785 3.43237305 8.66479492 C3.46206429 10.40626045 3.46206429 10.40626045 3.49235535 12.1829071 C3.49874527 13.43610245 3.50513519 14.68929779 3.51171875 15.98046875 C3.52966995 17.26359451 3.54762115 18.54672028 3.56611633 19.86872864 C3.61362737 23.27663059 3.64342907 26.68446629 3.66955566 30.09259033 C3.69935598 33.57162563 3.74588801 37.05043261 3.79101562 40.52929688 C3.87706083 47.35273455 3.94440051 54.17624822 4 61 C4.58007812 60.36191406 5.16015625 59.72382812 5.7578125 59.06640625 C6.53898437 58.24011719 7.32015625 57.41382813 8.125 56.5625 C8.89070313 55.73878906 9.65640625 54.91507813 10.4453125 54.06640625 C13.40011919 51.67635619 15.23970622 51.20144431 19 51 C21.375 52 21.375 52 23 54 C23.72955425 57.38247881 23.81086353 59.67780836 21.953125 62.70703125 C20.07760868 64.92574773 18.05183922 66.94180834 16 69 C14.82316125 70.27908305 13.64890869 71.56054804 12.4765625 72.84375 C11.17355322 74.23074518 9.86884438 75.61614553 8.5625 77 C7.94238037 77.68384766 7.32226074 78.36769531 6.68334961 79.07226562 C3.5983535 82.25771472 1.55977897 83.83590679 -2.7578125 85.1015625 C-8.80768748 84.51620934 -12.96985057 79.09487102 -16.94799805 74.93017578 C-18.43557776 73.37700699 -19.95500582 71.8615597 -21.48242188 70.34765625 C-29.83162582 61.85942163 -29.83162582 61.85942163 -30 56 C-27.9375 53.0625 -27.9375 53.0625 -25 51 C-22.1875 50.6875 -22.1875 50.6875 -19 52 C-17.5570529 53.31476869 -16.16001445 54.68088952 -14.80078125 56.08203125 C-14.08704346 56.81268799 -13.37330566 57.54334473 -12.63793945 58.29614258 C-11.82715942 59.139552 -11.82715942 59.139552 -11 60 C-10.99191315 59.31983826 -10.98382629 58.63967651 -10.97549438 57.93890381 C-10.88950402 50.86614128 -10.79000253 43.79366079 -10.68261719 36.72119141 C-10.64431033 34.08094007 -10.60946051 31.44063624 -10.578125 28.80029297 C-10.53251211 25.00729599 -10.47451044 21.21466095 -10.4140625 17.421875 C-10.40251129 16.23946228 -10.39096008 15.05704956 -10.37905884 13.83880615 C-10.35918915 12.73796692 -10.33931946 11.63712769 -10.31884766 10.50292969 C-10.30552399 9.53474304 -10.29220032 8.5665564 -10.2784729 7.56903076 C-9.9887479 4.89619463 -9.4481262 3.25207199 -8 1 C-5.20129973 -0.39935013 -3.09501208 -0.25265405 0 0 Z " fill="#000000" transform="translate(259,0)"/>
<path d="M0 0 C5.09232433 2.86062841 8.44703489 7.00141474 10.75 12.375 C11.78395206 18.77107555 10.52555071 24.13546023 6.75 29.375 C2.10537295 34.33214255 -1.68157761 36.45449636 -8.5 36.6875 C-14.18771824 36.6033068 -18.68384978 34.81379785 -22.82421875 30.87890625 C-27.36621735 25.66016287 -27.65828614 21.12845485 -27.59375 14.45703125 C-27.0768687 9.82272054 -25.39155954 6.77017503 -22.25 3.375 C-15.46412781 -1.91798031 -8.03093882 -3.67259252 0 0 Z " fill="#010102" transform="translate(66.25,335.625)"/>
<path d="M0 0 C5.67458259 1.89152753 9.32628019 5.65256038 12 11 C12.5072965 16.55531248 12.76260422 21.41830236 10.3125 26.5 C6.48025404 30.64296861 3.30639268 33.68337527 -2.48828125 34.23828125 C-8.57422375 34.39821612 -12.23202494 34.18651469 -17 30 C-17.7425 29.38125 -18.485 28.7625 -19.25 28.125 C-22.17592877 24.57208649 -22.85423507 21.12447231 -23.4375 16.625 C-22.71149739 10.60954979 -19.74219405 6.58012949 -15.3125 2.5625 C-10.38084792 -0.76969735 -5.83174384 -0.44605406 0 0 Z " fill="#000201" transform="translate(375,173)"/>
<path d="M0 0 C5.67458259 1.89152753 9.32628019 5.65256038 12 11 C12.5072965 16.55531248 12.76260422 21.41830236 10.3125 26.5 C6.48025404 30.64296861 3.30639268 33.68337527 -2.48828125 34.23828125 C-8.54656353 34.39748922 -12.29956464 34.2418563 -17 30 C-20.84802547 25.83130574 -22.69527206 22.30722579 -23.4375 16.6875 C-22.7193197 10.63426608 -19.77073445 6.60601497 -15.3125 2.5625 C-10.38084792 -0.76969735 -5.83174384 -0.44605406 0 0 Z " fill="#000201" transform="translate(147,173)"/>
<path d="M0 0 C8.58 0 17.16 0 26 0 C26 5.94 26 11.88 26 18 C17.50876407 18 13.03427285 17.73249653 7.015625 12.1640625 C3.17932836 8.02656902 1.87528165 5.62584494 0 0 Z " fill="#6CCE93" transform="translate(381,111)"/>
<path d="M0 0 C0 7.26 0 14.52 0 22 C-7.26 22 -14.52 22 -22 22 C-20.8186941 13.73085869 -18.42549394 10.33534937 -12.625 4.6875 C-8.90566038 2.29649596 -4.51011408 0 0 0 Z " fill="#6BCD93" transform="translate(407,247)"/>
<path d="M0 0 C7.78742594 1.11248942 11.69212267 2.89169804 16.58203125 8.96484375 C19.44191596 13.25879168 20.09980072 15.59880431 21 21 C14.07 21 7.14 21 0 21 C0 14.07 0 7.14 0 0 Z " fill="#6CCE93" transform="translate(105,248)"/>
<path d="M0 0 C6.93 0 13.86 0 21 0 C17.85312138 9.44063585 16.11549447 12.91802378 8.1953125 17.984375 C6 19 6 19 0 20 C0 13.4 0 6.8 0 0 Z " fill="#6BCD93" transform="translate(105,111)"/>
<path d="M0 0 C2.4375 1.625 2.4375 1.625 4 4 C4.60605429 7.63632575 4.47161336 9.28314769 2.4375 12.375 C-0.95870843 14.63913895 -3.00099302 14.64269755 -7 14 C-9.5 11.875 -9.5 11.875 -11 9 C-10.936318 5.81590023 -10.51040601 3.85067668 -8.875 1.125 C-5.83167192 -0.70099685 -3.45750445 -0.42460581 0 0 Z " fill="#7845AE" transform="translate(61,346)"/>
<path d="M0 0 C2.7211493 0.88437352 3.95082809 1.40267703 5.5 3.8125 C5.35970853 6.61832937 4.81262012 8.31888929 3.3125 10.6875 C1.5 11.8125 1.5 11.8125 -1.5625 11.6875 C-4.5 10.8125 -4.5 10.8125 -6.5 7.8125 C-6.3125 4.75 -6.3125 4.75 -5.5 1.8125 C-2.5 -0.1875 -2.5 -0.1875 0 0 Z " fill="#D6D6D6" transform="translate(370.5,184.1875)"/>
<path d="M0 0 C2.7211493 0.88437352 3.95082809 1.40267703 5.5 3.8125 C5.35970853 6.61832937 4.81262012 8.31888929 3.3125 10.6875 C1.5 11.8125 1.5 11.8125 -1.5625 11.6875 C-4.5 10.8125 -4.5 10.8125 -6.5 7.8125 C-6.3125 4.75 -6.3125 4.75 -5.5 1.8125 C-2.5 -0.1875 -2.5 -0.1875 0 0 Z " fill="#D6D6D6" transform="translate(142.5,184.1875)"/>
</svg>
