<?xml version="1.0" encoding="UTF-8"?>
<svg version="1.1" xmlns="http://www.w3.org/2000/svg" width="512" height="512">
<path d="M0 0 C3.99438106 2.21733238 7.14995847 4.71671224 10.4375 7.875 C13.14553275 10.40737657 14.99111985 12.09445657 18.75 12.4375 C23.10401452 11.96423755 25.5604048 9.41013999 28.6015625 6.453125 C36.61507187 -1.05016093 43.87712976 -3.06288062 54.59375 -2.83984375 C62.94573671 -2.37818577 68.75301977 1.89692731 74.21484375 7.94921875 C76.83224953 10.70547895 78.60944973 11.48809403 82.375 12.0625 C87.12543485 11.9498072 89.31213665 9.65153907 92.6015625 6.453125 C100.61507187 -1.05016093 107.87712976 -3.06288062 118.59375 -2.83984375 C127.05643949 -2.37206665 132.48241637 1.91335214 138.04296875 7.9296875 C140.58141359 10.3535707 143.41611298 11.33164749 146.6875 12.5 C153.53012701 15.18525403 153.53012701 15.18525403 154.6875 17.5 C155.53951626 24.86270658 153.38434613 28.43196458 149.0625 34.25 C148.47782959 35.06927979 147.89315918 35.88855957 147.29077148 36.73266602 C146.0560418 38.46187938 144.8139357 40.18584668 143.56494141 41.90478516 C141.16077264 45.22810298 138.81750171 48.59174172 136.47509766 51.95874023 C134.74077113 54.45076079 132.99870384 56.93717645 131.25390625 59.421875 C130.67141113 60.25138672 130.08891602 61.08089844 129.48876953 61.93554688 C128.89435059 62.78181641 128.29993164 63.62808594 127.6875 64.5 C125.18621071 68.0615973 122.68646235 71.62426977 120.1875 75.1875 C119.34264038 76.38910767 119.34264038 76.38910767 118.48071289 77.61499023 C114.80351168 82.85849817 111.21685535 88.15588828 107.6875 93.5 C108.25041748 93.89888428 108.81333496 94.29776855 109.39331055 94.70874023 C115.41542062 99.01257916 120.37556421 103.2251087 122.6875 110.5 C122.91796875 113.98046875 122.91796875 113.98046875 122.875 117.6875 C122.86855469 118.91855469 122.86210937 120.14960938 122.85546875 121.41796875 C122.6875 124.5 122.6875 124.5 121.6875 126.5 C122.23535156 126.51417969 122.78320312 126.52835938 123.34765625 126.54296875 C131.62867003 127.04117608 138.95283125 129.70520636 146.6875 132.5 C146.93113281 131.62214844 147.17476563 130.74429688 147.42578125 129.83984375 C149.576476 124.14682824 153.71074469 120.02595779 157.6875 115.5 C158.24566406 114.84515625 158.80382812 114.1903125 159.37890625 113.515625 C169.82519249 102.10063552 186.86864325 94.52239268 202.25878906 93.29492188 C224.78650571 92.48534497 243.72457672 97.02172736 260.6875 112.5 C261.30753906 113.02851563 261.92757813 113.55703125 262.56640625 114.1015625 C273.82345962 124.32608972 281.68011863 141.07340593 282.90869141 156.22851562 C283.77473687 177.91281989 280.34189929 197.47535231 265.3125 213.9375 C253.31490799 226.44689609 237.43156108 237.02082083 219.49487305 237.60375977 C217.92539917 237.58526978 217.92539917 237.58526978 216.32421875 237.56640625 C215.26291748 237.55681885 214.20161621 237.54723145 213.1081543 237.53735352 C212.30933838 237.52502686 211.51052246 237.5127002 210.6875 237.5 C210.77217813 249.027403 210.86716628 260.55467174 210.97502708 272.08188248 C211.02480271 277.43542175 211.07113328 282.78894306 211.109375 288.14257812 C211.14646583 293.31684742 211.19288788 298.4909592 211.24556351 303.66509247 C211.26398181 305.6312354 211.2791352 307.59741193 211.29084396 309.56360626 C211.44394462 334.40215489 217.73012613 349.14817516 231.03515625 369.81640625 C244.70427881 391.05812841 254.46281933 408.29486738 250.02734375 434.3828125 C245.65474954 450.09386528 236.08511007 461.62285494 222.6875 470.5 C212.26697808 476.22161283 202.9404339 477.79882491 191.19599915 477.76742554 C189.94876908 477.77195665 188.70153901 477.77648776 187.4165141 477.78115618 C183.97073582 477.79159723 180.52516691 477.79313104 177.07938778 477.79076743 C173.35666683 477.79035812 169.63397664 477.80140931 165.91127014 477.81088257 C158.62345276 477.82746941 151.33566774 477.83299108 144.04783306 477.83410732 C138.12088029 477.83505898 132.19393816 477.83917513 126.26698875 477.84550858 C109.44681847 477.86311533 92.62667366 477.87234843 75.80649409 477.87084763 C74.44737107 477.87072776 74.44737107 477.87072776 73.06079102 477.87060547 C72.15359694 477.87052371 71.24640287 477.87044195 70.31171807 477.87035771 C55.61608378 477.86954516 40.92055206 477.88867649 26.22494743 477.9168822 C11.11974833 477.94564424 -3.9854008 477.95942064 -19.09062797 477.95769465 C-27.56465572 477.95703185 -36.03857595 477.96247553 -44.51257896 477.98405075 C-51.7287816 478.00230639 -58.94482799 478.00657412 -66.16104379 477.9930319 C-69.83867821 477.98652401 -73.51601326 477.98630536 -77.19361877 478.0037384 C-81.19133009 478.0224929 -85.1883552 478.0098579 -89.18608093 477.99447632 C-90.90704036 478.00990701 -90.90704036 478.00990701 -92.66276664 478.02564943 C-107.95375769 477.89624995 -122.10170725 472.18274604 -133.25 461.69140625 C-144.89479987 449.31880638 -150.12129969 434.26826734 -150.3125 417.5 C-149.24577285 400.9657291 -141.91531892 388.73186121 -133.10253906 375.25244141 C-129.78941853 370.15804412 -126.54996732 365.0176745 -123.3125 359.875 C-122.67779785 358.88008545 -122.0430957 357.8851709 -121.38916016 356.86010742 C-112.96472856 343.4893342 -109.99088264 331.88572358 -110.05712891 316.03442383 C-110.05350845 314.95782501 -110.049888 313.8812262 -110.04615784 312.77200317 C-110.039315 310.45591383 -110.0367487 308.13980854 -110.03810501 305.82370949 C-110.0390796 302.14243018 -110.02601737 298.46143547 -110.00912476 294.78019714 C-109.96313988 284.32085352 -109.93826994 273.86154103 -109.93164062 263.40209961 C-109.92659283 256.98200518 -109.90218085 250.56221018 -109.86631393 244.14221764 C-109.85659436 241.71408585 -109.85414051 239.28591247 -109.85948563 236.85776711 C-109.92610698 205.10451338 -101.91415965 178.3443155 -79.3125 155.5 C-78.71953125 154.84644531 -78.1265625 154.19289062 -77.515625 153.51953125 C-64.57848439 139.52564401 -41.56214765 127.17268917 -22.29296875 126.375 C-21.63941406 126.41625 -20.98585937 126.4575 -20.3125 126.5 C-20.6425 125.84 -20.9725 125.18 -21.3125 124.5 C-21.94314373 116.62212259 -22.49138507 108.91263609 -17.3125 102.5 C-13.91670488 99.06320937 -10.3289518 96.17763454 -6.3125 93.5 C-18.99190105 74.88619113 -31.85023382 56.39797069 -44.79663086 37.96899414 C-45.84407013 36.47595654 -46.88864739 34.98090496 -47.9296875 33.48339844 C-48.80008677 32.23496558 -49.67912814 30.99247052 -50.5703125 29.75878906 C-53.7591767 25.24405845 -54.00987275 22.90463878 -53.3125 17.5 C-51.10824385 13.79284194 -48.47180094 13.20312033 -44.5 12.1875 C-40.66153911 11.15944061 -38.58404715 10.15267322 -35.9375 7.1875 C-26.47495388 -3.17939202 -12.68993566 -5.8692968 0 0 Z " fill="#59A9E6" transform="translate(189.3125,18.5)"/>
<path d="M0 0 C3.99438106 2.21733238 7.14995847 4.71671224 10.4375 7.875 C13.14553275 10.40737657 14.99111985 12.09445657 18.75 12.4375 C23.10401452 11.96423755 25.5604048 9.41013999 28.6015625 6.453125 C36.61507187 -1.05016093 43.87712976 -3.06288062 54.59375 -2.83984375 C62.94573671 -2.37818577 68.75301977 1.89692731 74.21484375 7.94921875 C76.83224953 10.70547895 78.60944973 11.48809403 82.375 12.0625 C87.12543485 11.9498072 89.31213665 9.65153907 92.6015625 6.453125 C100.61507187 -1.05016093 107.87712976 -3.06288062 118.59375 -2.83984375 C127.05643949 -2.37206665 132.48241637 1.91335214 138.04296875 7.9296875 C140.58141359 10.3535707 143.41611298 11.33164749 146.6875 12.5 C153.53012701 15.18525403 153.53012701 15.18525403 154.6875 17.5 C155.53951626 24.86270658 153.38434613 28.43196458 149.0625 34.25 C148.47782959 35.06927979 147.89315918 35.88855957 147.29077148 36.73266602 C146.0560418 38.46187938 144.8139357 40.18584668 143.56494141 41.90478516 C141.16077264 45.22810298 138.81750171 48.59174172 136.47509766 51.95874023 C134.74077113 54.45076079 132.99870384 56.93717645 131.25390625 59.421875 C130.67141113 60.25138672 130.08891602 61.08089844 129.48876953 61.93554688 C128.89435059 62.78181641 128.29993164 63.62808594 127.6875 64.5 C125.18621071 68.0615973 122.68646235 71.62426977 120.1875 75.1875 C119.34264038 76.38910767 119.34264038 76.38910767 118.48071289 77.61499023 C114.80351168 82.85849817 111.21685535 88.15588828 107.6875 93.5 C108.25041748 93.89888428 108.81333496 94.29776855 109.39331055 94.70874023 C115.41542062 99.01257916 120.37556421 103.2251087 122.6875 110.5 C122.91796875 113.98046875 122.91796875 113.98046875 122.875 117.6875 C122.86855469 118.91855469 122.86210937 120.14960938 122.85546875 121.41796875 C122.6875 124.5 122.6875 124.5 121.6875 126.5 C122.23535156 126.51417969 122.78320312 126.52835938 123.34765625 126.54296875 C131.62867003 127.04117608 138.95283125 129.70520636 146.6875 132.5 C146.93113281 131.62214844 147.17476563 130.74429688 147.42578125 129.83984375 C149.576476 124.14682824 153.71074469 120.02595779 157.6875 115.5 C158.24566406 114.84515625 158.80382812 114.1903125 159.37890625 113.515625 C169.82519249 102.10063552 186.86864325 94.52239268 202.25878906 93.29492188 C224.78650571 92.48534497 243.72457672 97.02172736 260.6875 112.5 C261.30753906 113.02851563 261.92757813 113.55703125 262.56640625 114.1015625 C273.82345962 124.32608972 281.68011863 141.07340593 282.90869141 156.22851562 C283.77473687 177.91281989 280.34189929 197.47535231 265.3125 213.9375 C253.31490799 226.44689609 237.43156108 237.02082083 219.49487305 237.60375977 C217.92539917 237.58526978 217.92539917 237.58526978 216.32421875 237.56640625 C215.26291748 237.55681885 214.20161621 237.54723145 213.1081543 237.53735352 C212.30933838 237.52502686 211.51052246 237.5127002 210.6875 237.5 C210.77217813 249.027403 210.86716628 260.55467174 210.97502708 272.08188248 C211.02480271 277.43542175 211.07113328 282.78894306 211.109375 288.14257812 C211.14646583 293.31684742 211.19288788 298.4909592 211.24556351 303.66509247 C211.26398181 305.6312354 211.2791352 307.59741193 211.29084396 309.56360626 C211.44394462 334.40215489 217.73012613 349.14817516 231.03515625 369.81640625 C244.70427881 391.05812841 254.46281933 408.29486738 250.02734375 434.3828125 C245.65474954 450.09386528 236.08511007 461.62285494 222.6875 470.5 C212.26697808 476.22161283 202.9404339 477.79882491 191.19599915 477.76742554 C189.94876908 477.77195665 188.70153901 477.77648776 187.4165141 477.78115618 C183.97073582 477.79159723 180.52516691 477.79313104 177.07938778 477.79076743 C173.35666683 477.79035812 169.63397664 477.80140931 165.91127014 477.81088257 C158.62345276 477.82746941 151.33566774 477.83299108 144.04783306 477.83410732 C138.12088029 477.83505898 132.19393816 477.83917513 126.26698875 477.84550858 C109.44681847 477.86311533 92.62667366 477.87234843 75.80649409 477.87084763 C74.44737107 477.87072776 74.44737107 477.87072776 73.06079102 477.87060547 C72.15359694 477.87052371 71.24640287 477.87044195 70.31171807 477.87035771 C55.61608378 477.86954516 40.92055206 477.88867649 26.22494743 477.9168822 C11.11974833 477.94564424 -3.9854008 477.95942064 -19.09062797 477.95769465 C-27.56465572 477.95703185 -36.03857595 477.96247553 -44.51257896 477.98405075 C-51.7287816 478.00230639 -58.94482799 478.00657412 -66.16104379 477.9930319 C-69.83867821 477.98652401 -73.51601326 477.98630536 -77.19361877 478.0037384 C-81.19133009 478.0224929 -85.1883552 478.0098579 -89.18608093 477.99447632 C-90.90704036 478.00990701 -90.90704036 478.00990701 -92.66276664 478.02564943 C-107.95375769 477.89624995 -122.10170725 472.18274604 -133.25 461.69140625 C-144.89479987 449.31880638 -150.12129969 434.26826734 -150.3125 417.5 C-149.24577285 400.9657291 -141.91531892 388.73186121 -133.10253906 375.25244141 C-129.78941853 370.15804412 -126.54996732 365.0176745 -123.3125 359.875 C-122.67779785 358.88008545 -122.0430957 357.8851709 -121.38916016 356.86010742 C-112.96472856 343.4893342 -109.99088264 331.88572358 -110.05712891 316.03442383 C-110.05350845 314.95782501 -110.049888 313.8812262 -110.04615784 312.77200317 C-110.039315 310.45591383 -110.0367487 308.13980854 -110.03810501 305.82370949 C-110.0390796 302.14243018 -110.02601737 298.46143547 -110.00912476 294.78019714 C-109.96313988 284.32085352 -109.93826994 273.86154103 -109.93164062 263.40209961 C-109.92659283 256.98200518 -109.90218085 250.56221018 -109.86631393 244.14221764 C-109.85659436 241.71408585 -109.85414051 239.28591247 -109.85948563 236.85776711 C-109.92610698 205.10451338 -101.91415965 178.3443155 -79.3125 155.5 C-78.71953125 154.84644531 -78.1265625 154.19289062 -77.515625 153.51953125 C-64.57848439 139.52564401 -41.56214765 127.17268917 -22.29296875 126.375 C-21.63941406 126.41625 -20.98585937 126.4575 -20.3125 126.5 C-20.6425 125.84 -20.9725 125.18 -21.3125 124.5 C-21.94314373 116.62212259 -22.49138507 108.91263609 -17.3125 102.5 C-13.91670488 99.06320937 -10.3289518 96.17763454 -6.3125 93.5 C-18.99190105 74.88619113 -31.85023382 56.39797069 -44.79663086 37.96899414 C-45.84407013 36.47595654 -46.88864739 34.98090496 -47.9296875 33.48339844 C-48.80008677 32.23496558 -49.67912814 30.99247052 -50.5703125 29.75878906 C-53.7591767 25.24405845 -54.00987275 22.90463878 -53.3125 17.5 C-51.10824385 13.79284194 -48.47180094 13.20312033 -44.5 12.1875 C-40.66153911 11.15944061 -38.58404715 10.15267322 -35.9375 7.1875 C-26.47495388 -3.17939202 -12.68993566 -5.8692968 0 0 Z M-65.3125 164.5 C-65.97507812 165.06074219 -66.63765625 165.62148437 -67.3203125 166.19921875 C-77.5020402 175.59955805 -84.99908719 188.42281248 -89.3125 201.5 C-89.64560181 202.49384705 -89.97870361 203.48769409 -90.32189941 204.51165771 C-94.14523296 217.60225103 -93.88043485 230.54030113 -93.8515625 244.0859375 C-93.86148766 246.63987055 -93.87343575 249.19379647 -93.88729858 251.74771118 C-93.91619848 257.74894642 -93.92923114 263.7499817 -93.93287504 269.75126708 C-93.93996298 281.14131708 -93.9755142 292.53119357 -94.0263176 303.92113113 C-94.03883943 307.64460585 -94.03815097 311.36790878 -94.03604126 315.09140015 C-94.04262423 317.3843397 -94.04963101 319.6772781 -94.05712891 321.97021484 C-94.05300491 322.99381104 -94.04888092 324.01740723 -94.04463196 325.07202148 C-94.13631242 341.53625423 -100.10592049 354.20068501 -108.8125 367.9375 C-109.87453257 369.64173173 -110.93656298 371.34596481 -111.99836731 373.05033875 C-115.02322222 377.89498879 -118.0840703 382.71685724 -121.14453125 387.5390625 C-122.02818359 388.94200562 -122.02818359 388.94200562 -122.9296875 390.37329102 C-124.02364475 392.10859331 -125.12593126 393.83868572 -126.23828125 395.56225586 C-133.03065391 406.33563991 -134.95379412 416.53587808 -132.625 429.1875 C-129.36766633 441.47551048 -121.99769322 450.81674772 -111.09765625 457.2109375 C-102.96005158 460.97729029 -95.96810167 461.93299643 -87.01550293 461.8742218 C-85.80134815 461.87819621 -84.58719337 461.88217061 -83.33624601 461.88626546 C-79.98750187 461.89419238 -76.63927444 461.88876109 -73.29057288 461.87751496 C-69.6708818 461.86863833 -66.05122462 461.87712643 -62.43153381 461.88337708 C-55.34903527 461.89284701 -48.26663889 461.88628107 -41.18414795 461.87411413 C-32.93074973 461.86046601 -24.67737561 461.86213448 -16.42396897 461.86424746 C-1.69457167 461.86743472 13.03477721 461.85578482 27.76416016 461.83618164 C42.04640172 461.81717864 56.32858654 461.81009443 70.61083984 461.81567383 C86.17521852 461.82173613 101.73957227 461.82154627 117.30394888 461.810188 C118.96463108 461.80898075 120.62531328 461.80777476 122.28599548 461.80657005 C123.10301493 461.80596651 123.92003439 461.80536298 124.761812 461.80474115 C130.51048679 461.80086715 136.25915229 461.80125362 142.00782776 461.8031559 C149.01658448 461.80528137 156.0252916 461.80002716 163.03403437 461.78554235 C166.60780414 461.77831513 170.18150179 461.774207 173.75527763 461.77878571 C177.63373426 461.78363378 181.51206056 461.77291657 185.39050293 461.76069641 C187.07538842 461.7663654 187.07538842 461.7663654 188.794312 461.77214891 C202.50059095 461.6957951 213.50280598 458.28457051 223.6484375 448.73046875 C231.37284919 440.2809686 235.42334136 429.82363664 234.9453125 418.3828125 C234.81769531 416.95582031 234.81769531 416.95582031 234.6875 415.5 C234.55988281 414.07300781 234.55988281 414.07300781 234.4296875 412.6171875 C232.59491424 401.22994392 225.83936946 392.01047776 219.6875 382.5 C218.94209961 381.34516113 218.94209961 381.34516113 218.18164062 380.16699219 C216.3157025 377.28246841 214.44378157 374.40188811 212.56811523 371.52368164 C202.6527224 356.26240991 195.60150777 342.37497272 195.48217773 323.82275391 C195.47227814 322.86602783 195.46237854 321.90930176 195.45217896 320.92358398 C195.42069828 317.77460163 195.39585979 314.62560422 195.37109375 311.4765625 C195.35051262 309.2879498 195.32951584 307.09934098 195.30812073 304.91073608 C195.2530198 299.16016787 195.20355781 293.4095645 195.15527344 287.65893555 C195.10497081 281.78691492 195.04933053 275.91494512 194.99414062 270.04296875 C194.88670562 258.5286893 194.78522826 247.01436564 194.6875 235.5 C193.60065918 235.10530518 192.51381836 234.71061035 191.39404297 234.30395508 C189.94749396 233.7719113 188.50104754 233.23958852 187.0546875 232.70703125 C186.34078857 232.4486145 185.62688965 232.19019775 184.89135742 231.9239502 C167.91272841 225.64331694 153.99872701 212.52338417 145.875 196.375 C139.54056675 181.06678631 138.0901265 164.7810973 140.6875 148.5 C128.71119793 143.17419524 117.19220298 141.04777174 104.12060547 141.08007812 C102.83249466 141.07160858 101.54438385 141.06313904 100.21723938 141.05441284 C96.72298402 141.03243129 93.22896607 141.02925447 89.73465109 141.03116035 C86.79562576 141.03128121 83.85664867 141.02267002 80.91763699 141.01438284 C73.96914623 140.99523044 67.02077553 140.992234 60.07226562 140.99902344 C52.95749748 141.00564889 45.84324976 140.98284171 38.72858703 140.94570971 C32.57433354 140.91478222 26.4202454 140.90367762 20.26591599 140.90754652 C16.61060807 140.90959148 12.95570497 140.90449254 9.30047226 140.87965393 C-19.78699904 140.69768499 -42.86056272 145.32362864 -65.3125 164.5 Z " fill="#000000" transform="translate(189.3125,18.5)"/>
<path d="M0 0 C3.42110038 2.912218 6.72906159 5.92080626 10 9 C10.60328125 9.53882813 11.2065625 10.07765625 11.828125 10.6328125 C31.76958481 29.17650644 44.0387049 59.19819905 45.38671875 86.03515625 C46.37309974 121.2579745 34.82789854 153.08219058 10.66650391 178.73193359 C-3.89299344 193.67596702 -22.8411535 204.68891929 -43 210 C-43.71929687 210.19464844 -44.43859375 210.38929688 -45.1796875 210.58984375 C-77.75696852 219.0955161 -110.08663366 212.98159373 -138.93066406 196.27099609 C-165.81097791 179.76097794 -184.55686279 152.41141814 -192 122 C-198.3025434 94.6946874 -196.06117005 66.00151548 -183 41 C-182.66484375 40.33564941 -182.3296875 39.67129883 -181.984375 38.98681641 C-176.8390437 28.85694541 -170.72737629 20.30734978 -163 12 C-162.19820312 11.11699219 -161.39640625 10.23398438 -160.5703125 9.32421875 C-145.73600771 -6.31259762 -125.80442435 -17.50324677 -104.90673828 -22.52832031 C-103.18344993 -22.95461905 -101.47855784 -23.45366639 -99.77734375 -23.9609375 C-65.99065107 -33.0879499 -26.69203933 -21.59813869 0 0 Z " fill="#FD9610" transform="translate(315,226)"/>
<path d="M0 0 C3.42110038 2.912218 6.72906159 5.92080626 10 9 C10.60328125 9.53882813 11.2065625 10.07765625 11.828125 10.6328125 C31.76958481 29.17650644 44.0387049 59.19819905 45.38671875 86.03515625 C46.37309974 121.2579745 34.82789854 153.08219058 10.66650391 178.73193359 C-3.89299344 193.67596702 -22.8411535 204.68891929 -43 210 C-43.71929687 210.19464844 -44.43859375 210.38929688 -45.1796875 210.58984375 C-77.75696852 219.0955161 -110.08663366 212.98159373 -138.93066406 196.27099609 C-165.81097791 179.76097794 -184.55686279 152.41141814 -192 122 C-198.3025434 94.6946874 -196.06117005 66.00151548 -183 41 C-182.66484375 40.33564941 -182.3296875 39.67129883 -181.984375 38.98681641 C-176.8390437 28.85694541 -170.72737629 20.30734978 -163 12 C-162.19820312 11.11699219 -161.39640625 10.23398438 -160.5703125 9.32421875 C-145.73600771 -6.31259762 -125.80442435 -17.50324677 -104.90673828 -22.52832031 C-103.18344993 -22.95461905 -101.47855784 -23.45366639 -99.77734375 -23.9609375 C-65.99065107 -33.0879499 -26.69203933 -21.59813869 0 0 Z M-124 2 C-125.58361328 2.81791016 -125.58361328 2.81791016 -127.19921875 3.65234375 C-151.53251525 16.89389434 -168.53773561 41.12888498 -176.32421875 67.27734375 C-182.76575718 91.15178469 -179.433946 117.2014439 -168.875 139.375 C-168.48465576 140.19645508 -168.09431152 141.01791016 -167.69213867 141.86425781 C-164.22045188 148.94524781 -160.08749224 154.95497595 -155 161 C-154.19949219 162.00740234 -154.19949219 162.00740234 -153.3828125 163.03515625 C-137.28628976 182.82952881 -111.04921405 195.35317025 -86 198 C-58.9634317 199.86313903 -31.26164437 193.17927342 -10.0546875 175.72265625 C-9.03069641 174.82161037 -8.01262876 173.9137967 -7 173 C-6.45118164 172.50483887 -5.90236328 172.00967773 -5.33691406 171.49951172 C13.8602543 153.85901918 27.60661052 129.25148304 29.12548828 102.81591797 C30.27357369 74.66763298 23.0590738 49.10026514 5 27 C4.38640625 26.22140625 3.7728125 25.4428125 3.140625 24.640625 C-6.88502525 12.55843111 -19.98724494 4.66518779 -34 -2 C-34.92683594 -2.44214844 -35.85367188 -2.88429687 -36.80859375 -3.33984375 C-64.54484282 -15.40898333 -97.86691847 -12.08570052 -124 2 Z " fill="#020202" transform="translate(315,226)"/>
<path d="M0 0 C10.77902698 8.76310209 18.55335738 22.5487842 20.08032227 36.42138672 C21.03638999 53.05412337 16.93411852 68.22238326 6.109375 81.1640625 C-3.34289811 91.18920065 -17.32901895 98.99589989 -31.3046875 99.75 C-47.93392639 100.08721688 -62.95049086 95.85720724 -75.37109375 84.24609375 C-86.84747014 72.36437073 -92.67822221 57.21063811 -92.5625 40.8269043 C-92.05264007 25.75417003 -85.06401177 11.69489711 -74.140625 1.4140625 C-51.5523663 -17.22782821 -23.27038769 -17.24046971 0 0 Z " fill="#FD9710" transform="translate(436.140625,140.5859375)"/>
<path d="M0 0 C0.82145508 0.39034424 1.64291016 0.78068848 2.48925781 1.18286133 C9.57024781 4.65454812 15.57997595 8.78750776 21.625 13.875 C22.29660156 14.40867188 22.96820313 14.94234375 23.66015625 15.4921875 C43.67372912 31.76696104 55.2857803 57.29005888 58.37744141 82.44238281 C61.16691758 109.85297511 53.77918978 135.86109811 37 157.75 C19.43592286 178.9802033 -3.91169143 193.88677624 -31.62109375 197.5546875 C-58.7891997 199.87288176 -86.17428444 194.8627321 -108.01855469 177.57421875 C-111.28030579 174.81849632 -114.35203033 171.88799287 -117.375 168.875 C-118.22191406 168.03324219 -119.06882813 167.19148437 -119.94140625 166.32421875 C-120.74449219 165.51597656 -121.54757813 164.70773437 -122.375 163.875 C-123.02082031 163.22660156 -123.66664063 162.57820312 -124.33203125 161.91015625 C-137.1462238 148.28664628 -145.44799571 129.22506535 -148.375 110.875 C-148.55546875 109.80636719 -148.7359375 108.73773438 -148.921875 107.63671875 C-151.59937906 85.40881865 -147.98658081 64.54301615 -137.375 44.875 C-136.5396875 43.27398437 -136.5396875 43.27398437 -135.6875 41.640625 C-131.77203561 34.49852792 -127.05123041 28.69178469 -121.375 22.875 C-120.570625 22.029375 -119.76625 21.18375 -118.9375 20.3125 C-118.091875 19.508125 -117.24625 18.70375 -116.375 17.875 C-115.35212891 16.87726563 -115.35212891 16.87726563 -114.30859375 15.859375 C-83.66942272 -13.05849429 -37.49769575 -17.85623121 0 0 Z M-111.375 34.875 C-128.2786809 54.07523155 -134.43938521 77.04009187 -133.55419922 102.23486328 C-131.96689355 125.62059007 -118.81366195 147.16335464 -101.56640625 162.34765625 C-82.57728584 177.36890075 -60.40699878 183.32854831 -36.375 181.875 C-12.72633971 179.06195372 7.57333524 167.88441448 23.125 150 C38.64483995 130.28560871 44.56759055 106.6539185 42.625 81.875 C40.01851163 63.57745163 31.49541668 47.76967648 19.625 33.875 C19.05265625 33.20082031 18.4803125 32.52664063 17.890625 31.83203125 C6.5905356 19.60891474 -9.57374019 12.06183062 -25.375 7.875 C-26.17035156 7.648125 -26.96570313 7.42125 -27.78515625 7.1875 C-58.29352577 -0.34801494 -90.44235677 12.82773253 -111.375 34.875 Z " fill="#FBD021" transform="translate(285.375,226.125)"/>
<path d="M0 0 C5.5878276 1.28949868 9.08028242 4.57795219 13.25 8.3125 C19.47420144 13.84907538 25.58543426 16.2043699 33.953125 16.015625 C42.85766299 14.9858485 48.85899246 10.92757555 55.15625 4.7734375 C57.97593651 2.04844195 59.61683457 0.82167911 63.5625 0.375 C69.53589568 0.98246397 72.80041172 4.3332588 77.0625 8.25 C83.74299767 14.12227111 90.16409717 16.59318072 99.125 16.26171875 C107.42952662 14.90185252 114.32803274 10.50153553 119.84765625 4.265625 C122.29500689 1.62057751 123.98733235 0.77973596 127.5625 0.375 C135.49172968 1.18136234 141.78225738 8.28225738 147.25 13.75 C139.59688646 24.93291693 131.85706852 36.05270842 124.07470703 47.14599609 C122.22252205 49.78921325 120.3743628 52.43520212 118.52734375 55.08203125 C117.60949097 56.3963916 117.60949097 56.3963916 116.6730957 57.73730469 C115.52111216 59.38715158 114.36984154 61.03749663 113.21948242 62.68847656 C112.16936146 64.19132056 111.10514166 65.68444695 110.02468872 67.16563416 C108.19581866 69.72827124 108.19581866 69.72827124 106.74028015 72.56343079 C104.0546475 77.14311033 102.02776758 80.1952167 96.82861328 81.81770325 C92.55209617 82.27474387 88.40040076 82.38879787 84.10546875 82.3515625 C82.52896549 82.36916579 80.95248988 82.38942566 79.37605286 82.41220093 C76.07927486 82.44636153 72.78575299 82.43902054 69.48901367 82.40380859 C66.12318917 82.37157248 62.76695564 82.39922416 59.40209961 82.48583984 C30.11906565 83.23680368 30.11906565 83.23680368 23.72436523 77.56616211 C21.1492152 74.50310668 19.43771041 71.23368051 17.97311401 67.52355957 C17.04724166 65.25270083 15.74639639 63.43031433 14.26171875 61.48828125 C13.48471079 60.34789644 12.70991998 59.20599738 11.9375 58.0625 C7.7541343 51.92566838 3.51710357 45.82889942 -0.75 39.75 C-6.80448242 31.1203455 -12.79642142 22.44951482 -18.75 13.75 C-6.49531182 1.29906236 -6.49531182 1.29906236 0 0 Z " fill="#59A9E5" transform="translate(175.75,31.25)"/>
<path d="M0 0 C17.8256006 14.83139129 30.50574743 36.04979062 32.71044922 59.41015625 C34.17479196 84.70210104 27.0606535 108.28535832 10.51660156 127.54663086 C-4.20341553 143.97076694 -24.61223658 154.35487348 -46.53955078 156.76123047 C-72.83088887 158.1648748 -96.10097173 151.17600379 -115.85205078 133.44873047 C-130.29040512 119.91898446 -137.75411236 103.56681697 -142.53955078 84.76123047 C-142.74322266 83.97619141 -142.94689453 83.19115234 -143.15673828 82.38232422 C-146.73590384 57.87599674 -139.94609244 34.51329424 -125.53955078 14.76123047 C-110.57950653 -4.22549236 -89.68313657 -16.03157251 -65.77197266 -19.00732422 C-41.84091818 -21.4883653 -18.86572283 -15.17993619 0 0 Z M-103.53955078 14.76123047 C-104.28462891 15.41478516 -105.02970703 16.06833984 -105.79736328 16.74169922 C-114.26593722 24.62177903 -120.64982612 34.86248505 -124.53955078 45.76123047 C-124.83732422 46.59138672 -125.13509766 47.42154297 -125.44189453 48.27685547 C-131.19563106 67.26153453 -127.55979902 87.46734205 -118.38720703 104.64404297 C-115.77998359 109.04269901 -112.94689526 112.95302194 -109.53955078 116.76123047 C-108.88470703 117.50888672 -108.22986328 118.25654297 -107.55517578 119.02685547 C-94.80529634 132.70738304 -77.40390685 139.85644358 -58.94580078 140.97998047 C-37.24387678 141.5180447 -19.0625781 133.82775688 -3.35205078 119.07373047 C10.52511982 104.64587849 17.0767263 85.54455647 16.69873047 65.74951172 C15.68004389 48.6990364 10.07239786 33.54183347 -1.53955078 20.76123047 C-2.19310547 20.01615234 -2.84666016 19.27107422 -3.52001953 18.50341797 C-15.81400347 5.29130408 -32.56655766 -2.2016567 -50.43408203 -3.52783203 C-70.38076014 -3.9584767 -88.4993881 1.09633558 -103.53955078 14.76123047 Z " fill="#040300" transform="translate(295.53955078125,251.23876953125)"/>
<path d="M0 0 C5.28 0 10.56 0 16 0 C16 5.28 16 10.56 16 16 C17.175625 16.0825 18.35125 16.165 19.5625 16.25 C27.26828995 17.26748987 31.76212365 21.23737981 36.5546875 27.05078125 C39.96630601 31.65185595 40 34.11273047 40 40 C34.72 40 29.44 40 24 40 C23.01 38.02 22.02 36.04 21 34 C19.35 33.34 17.7 32.68 16 32 C16 37.28 16 42.56 16 48 C17.175625 48.0825 18.35125 48.165 19.5625 48.25 C27.27315534 49.26813231 31.59615638 53.23539282 36.51953125 58.90234375 C40.53655352 64.59400855 40.71487505 70.25046542 40 77 C38.17332847 84.63769372 33.35053106 89.6125554 27 94 C23.31278113 95.73558544 20.09339438 96 16 96 C16 101.28 16 106.56 16 112 C10.72 112 5.44 112 0 112 C0 106.72 0 101.44 0 96 C-1.32 95.95875 -2.64 95.9175 -4 95.875 C-10.89758185 95.10498693 -15.35477631 91.00925374 -19.875 86 C-23.28618884 81.184204 -24 77.90043065 -24 72 C-18.72 72 -13.44 72 -8 72 C-7.01 73.98 -6.02 75.96 -5 78 C-3.35 78.66 -1.7 79.32 0 80 C0 74.72 0 69.44 0 64 C-1.32 63.95875 -2.64 63.9175 -4 63.875 C-10.89758185 63.10498693 -15.35477631 59.00925374 -19.875 54 C-24.31054544 47.7380535 -24.82356443 41.49764504 -24 34 C-22.13464824 26.92668627 -16.78722647 22.15743419 -11 18 C-6.82535715 15.87546539 -5.06742722 16 0 16 C0 10.72 0 5.44 0 0 Z " fill="#020100" transform="translate(232,264)"/>
<path d="M0 0 C1.4266833 2.85336661 0.40736348 4.83897304 -0.33569336 7.8125 C-7.66921757 37.51550433 -1.55687104 69.69376983 13.5546875 96.06640625 C29.08170776 121.75347105 54.84982998 141.67158157 84.0546875 149.0390625 C84.7259668 149.20051758 85.39724609 149.36197266 86.08886719 149.52832031 C87.82471498 149.95673855 89.54292326 150.45510686 91.2578125 150.9609375 C109.02846461 155.72015391 128.49520457 153.82413088 146.13134766 149.45751953 C148.40773681 148.90017001 150.6976494 148.43657347 153 148 C151.43850544 151.12298913 148.35941865 151.67455238 145.25 152.875 C144.57114746 153.13893555 143.89229492 153.40287109 143.19287109 153.67480469 C114.72215135 164.58979928 83.25061517 165.50493946 55 153 C25.11372694 139.32807415 4.39488036 115.47211556 -7 85 C-8.20669402 81.36520217 -9.17690512 77.73935819 -10 74 C-10.20496094 73.11570312 -10.40992187 72.23140625 -10.62109375 71.3203125 C-14.73901118 50.81592364 -13.50055748 23.07684311 -2 5 C-1.30177383 3.34630643 -0.62501395 1.68272986 0 0 Z " fill="#3C98DE" transform="translate(124,286)"/>
<path d="M0 0 C0.9778093 -0.00554901 1.95561859 -0.01109802 2.96305847 -0.01681519 C6.19136748 -0.02861436 9.41827378 -0.00433254 12.64648438 0.02148438 C14.89180436 0.02319546 17.13712635 0.02312982 19.38244629 0.0213623 C24.08670174 0.02301571 28.79048076 0.04171827 33.49462891 0.07324219 C39.52404007 0.11291941 45.55282712 0.11728746 51.58234406 0.10977936 C56.2183402 0.10670954 60.85419609 0.11883071 65.49015808 0.13591003 C67.71330383 0.14294039 69.93646548 0.14606452 72.15962219 0.1452179 C75.26686319 0.14701597 78.37335698 0.16839946 81.48046875 0.1953125 C82.39906174 0.1923819 83.31765472 0.18945129 84.26408386 0.18643188 C89.05386571 0.25042776 92.37603763 0.45115905 96.24023438 3.61523438 C97.64481174 6.42438911 97.48918595 8.50333972 97.24023438 11.61523438 C95.46039033 14.75115008 94.71715231 15.45626173 91.24023438 16.61523438 C89.8556056 16.71340306 88.46683048 16.75861896 87.07876587 16.76913452 C86.23203812 16.77773499 85.38531036 16.78633545 84.51292419 16.79519653 C83.58714066 16.79945648 82.66135712 16.80371643 81.70751953 16.80810547 C80.73000229 16.81628296 79.75248505 16.82446045 78.74534607 16.83288574 C75.50666925 16.85772336 72.26803614 16.87424961 69.02929688 16.88867188 C67.37135164 16.89665739 67.37135164 16.89665739 65.67991257 16.90480423 C59.83218835 16.93152579 53.98448543 16.95090589 48.13671875 16.96533203 C42.09147921 16.98199818 36.04678287 17.02679574 30.00174904 17.07770348 C25.35722206 17.11132053 20.71282508 17.12290327 16.06818771 17.12855911 C13.83940849 17.13528441 11.61063819 17.15053944 9.38197708 17.17444992 C6.2647765 17.20599122 3.14905587 17.20615475 0.03173828 17.19873047 C-0.8899968 17.2151358 -1.81173187 17.23154114 -2.76139832 17.2484436 C-7.25501196 17.20458923 -9.15962973 17.07398583 -12.83267212 14.26626587 C-14.75976562 11.61523438 -14.75976562 11.61523438 -15.38476562 8.61523438 C-13.61716022 0.13072844 -7.26442958 -0.10488857 0 0 Z " fill="#3C99E0" transform="translate(198.759765625,127.384765625)"/>
<path d="M0 0 C0.66 0 1.32 0 2 0 C1.84144531 0.83015625 1.68289063 1.6603125 1.51953125 2.515625 C-1.39067143 22.03367608 2.80121272 41.4408728 13.87890625 57.76953125 C24.72395418 72.03241246 38.82137107 81.21767107 56 86 C56 89.3 56 92.6 56 96 C36.42902237 94.74162919 21.01919695 88.89675802 7.3125 74.25 C-4.13120723 60.32906673 -9.55664626 43.88457517 -8.20068359 25.96191406 C-7.24036919 16.57373095 -4.24479944 8.37215383 0 0 Z " fill="#3C98DF" transform="translate(328,168)"/>
<path d="M0 0 C26.4 0 52.8 0 80 0 C80 5.28 80 10.56 80 16 C53.6 16 27.2 16 0 16 C0 10.72 0 5.44 0 0 Z " fill="#000000" transform="translate(360,176)"/>
<path d="M0 0 C0 5.28 0 10.56 0 16 C-5 15 -5 15 -6.8125 13.3125 C-8.40188959 10.21737291 -8.56159999 8.43979993 -8 5 C-3.97826087 0 -3.97826087 0 0 0 Z " fill="#F39010" transform="translate(232,296)"/>
<path d="M0 0 C5 1 5 1 6.8125 2.6875 C8.36382423 5.70849983 8.41972691 7.64218474 8 11 C6.8125 13.3125 6.8125 13.3125 5 15 C3.35 15.33 1.7 15.66 0 16 C0 10.72 0 5.44 0 0 Z " fill="#F39110" transform="translate(248,328)"/>
</svg>
