<svg width="24" height="18" viewBox="0 0 24 18" fill="none" xmlns="http://www.w3.org/2000/svg">
<path d="M6 1.80156C6 1.13884 6.53728 0.601562 7.2 0.601562H22.8C23.4627 0.601562 24 1.13884 24 1.80156C24 2.46428 23.4627 3.00156 22.8 3.00156H7.2C6.53728 3.00156 6 2.46423 6 1.80156ZM22.8 7.80156H1.2C0.537281 7.80156 0 8.33889 0 9.00156C0 9.66428 0.537281 10.2016 1.2 10.2016H22.8C23.4627 10.2016 24 9.66428 24 9.00156C24 8.33889 23.4627 7.80156 22.8 7.80156ZM22.8 15.0016H12C11.3373 15.0016 10.8 15.5388 10.8 16.2016C10.8 16.8642 11.3373 17.4016 12 17.4016H22.8C23.4627 17.4016 24 16.8642 24 16.2016C24 15.5388 23.4627 15.0016 22.8 15.0016Z" fill="white"/>
</svg>
